<svg id="Layer_1" xmlns="http://www.w3.org/2000/svg" viewBox="0 0 22 22"><style>.st0{fill:#606465}.st1{fill:#fff}</style><path class="st0" d="M0 0h22v22H0z"/><path class="st1" d="M14.9 4.7H7.1c-1.3 0-2.4 1.1-2.4 2.4v7.8c0 1.3 1.1 2.4 2.4 2.4h7.8c1.3 0 2.4-1.1 2.4-2.4V7.1c0-1.3-1.1-2.4-2.4-2.4zm.7 1.4h.3v2.2h-2.1V6.2l1.8-.1zM9.2 9.7c.4-.6 1.1-.9 1.8-.9s1.4.4 1.8.9c.3.4.4.8.4 1.3 0 1.2-1 2.2-2.2 2.2s-2.2-1-2.2-2.2c0-.5.1-.9.4-1.3zm6.9 5.2c0 .7-.5 1.2-1.2 1.2H7.1c-.7 0-1.2-.5-1.2-1.2V9.7h1.9c-.2.4-.3.8-.3 1.3 0 1.9 1.6 3.5 3.5 3.5s3.5-1.6 3.5-3.5c0-.5-.1-.9-.3-1.3h1.9v5.2z"/></svg>