<svg id="Layer_1" xmlns="http://www.w3.org/2000/svg" viewBox="0 0 63 24"><style>.st0{fill:#b7def4}.st1{fill:#015287}</style><path class="st0" d="M29.4 4.9c-1.5.5-2.7 1.5-3.6 2.8-.8 1.2-1.1 2.5-1.1 4 .1 1.5.6 2.9 1.5 4.1 1 1.2 2.2 2 3.7 2.4-.1.2-.2.4-.4.6-.4.6-.8 1.1-1.2 1.6-.6.7-1.3 1.3-2.1 1.9-1 .7-2.1 1.2-3.2 1.4-.5.1-1 .2-1.4.2-.4 0-.7.1-1.1.1h-9.9c-.9 0-1.7-.1-2.6-.4-1.1-.3-2.1-.8-3-1.4-.4-.3-.8-.6-1.2-1-.6-.6-1.2-1.2-1.7-2s-.9-1.6-1.3-2.5c-.3-.7-.5-1.5-.6-2.2 0-.5-.1-1.1-.2-1.6V12c0-.5.1-1 .1-1.5.1-.9.3-1.8.6-2.7.4-1.3 1.1-2.6 1.9-3.7.4-.5.8-1 1.3-1.4C4.7 2 5.6 1.4 6.6.9 7.4.5 8.3.2 9.2.1c.4-.1.8-.1 1.2-.1h10.3c1.4 0 2.7.3 4 .9.9.4 1.7.9 2.5 1.5.8.7 1.5 1.5 2.2 2.5-.1 0-.1 0 0 0zm-14.9 7.5v-1.5h3.2c.4 0 .8-.3.9-.7.2-.6-.3-1.3-.9-1.2h-3.2V7c0-.6-.5-1.1-1.1-1.1-.6 0-1.1.5-1.1 1.1v6.3c0 .2.1.4.1.5.2.4.6.6 1 .6h5.4c.1 0 .2 0 .2.1.8 1.2 1.5 2.3 2.3 3.5.3.4.7.5 1.1.3.6-.3 1.1-.6 1.7-.9.3-.2.5-.6.3-.9-.2-.3-.6-.4-.9-.3-.1.1-.2.1-.3.2-.2.1-.5.3-.7.4 0-.1-.1-.1-.1-.1-.8-1.2-1.6-2.5-2.4-3.7-.2-.3-.5-.5-.9-.5h-4.5c.1-.1 0-.1-.1-.1zm-8 2.3c0 1.1.2 2.2.7 3.1 1.1 2.2 3.4 3.5 5.8 3.3 1.4-.1 2.6-.6 3.6-1.6.9-.8 1.4-1.7 1.8-2.8.2-.5-.1-1-.5-1.1-.5-.2-.9.1-1.1.6-.3.8-.7 1.5-1.3 2-1.7 1.5-4.2 1.4-5.8-.2-1.1-1.1-1.6-2.5-1.3-4.1.3-1.4 1-2.5 2.3-3.2.4-.2.6-.6.5-1-.1-.6-.7-.9-1.2-.7-.6.3-1.2.7-1.6 1.2-1.3 1.3-1.8 2.8-1.9 4.5zM15 3.6c0-.8-.7-1.5-1.5-1.5S12 2.8 12 3.6s.7 1.5 1.5 1.5S15 4.4 15 3.6zm18 14.6c3-.9 4.8-2.7 5.3-5.8.2-1.1.1-2.1-.3-3.2-.4-1-.9-1.9-1.7-2.7-.8-.8-1.7-1.3-2.8-1.7.1-.2.3-.4.4-.6.4-.5.8-.9 1.2-1.4.7-.7 1.4-1.2 2.2-1.7.9-.5 1.8-.8 2.8-1 .4-.1.8-.1 1.3-.2h10.5c.9 0 1.7.1 2.6.3 1 .3 1.9.7 2.8 1.2.8.5 1.6 1.2 2.3 1.9.7.7 1.2 1.5 1.7 2.4.6 1 1 2.1 1.2 3.3.1.5.2.9.2 1.4.1.8.1 1.5.1 2.3 0 .5-.1 1.1-.2 1.6-.1.6-.3 1.3-.5 1.9-.4 1.3-1 2.4-1.8 3.5-.3.4-.6.7-.9 1-.9 1-1.9 1.7-3.1 2.3-.8.4-1.7.7-2.6.8-.4.1-.9.1-1.3.1H42.1c-.9 0-1.8-.2-2.7-.4-1-.3-2-.8-2.9-1.5-.6-.4-1.2-1-1.7-1.5-.8-.6-1.3-1.4-1.8-2.3 0 .1 0 0 0 0zM47.8 15H54c.2 0 .2 0 .2-.2V2.9c0-.2 0-.2-.2-.2H41.5c-.2 0-.2 0-.2.2v11.9c0 .2 0 .2.2.2h6.3zm0 .7h-6.5c-.2 0-.2 0-.2.2v4.7c0 .2 0 .3.3.3h13c.2 0 .3 0 .3-.3v-4.7c0-.2 0-.3-.3-.3-2.3.1-4.5.1-6.6.1z"/><path class="st1" d="M30.2 17V5.9c1.8 1.8 3.7 3.7 5.5 5.6L30.2 17zm32.6 6.8h-.3v-1.5c-.2.5-.3 1-.5 1.5h-.3c-.2-.5-.3-1-.5-1.5v1.5h-.3v-2h.4l.1.1c.2.4.3.9.5 1.4.1-.3.2-.5.2-.8.1-.2.1-.4.2-.6 0-.1.1-.1.1-.1h.4v2zm-3.1-1.7h-.5v-.2h1.4v.2h-.5v1.7h-.3c-.1-.5-.1-1.1-.1-1.7zm-45.2-9.7h4.7c.4 0 .7.1.9.5.8 1.2 1.6 2.5 2.4 3.7l.1.1c.2-.1.5-.3.7-.4.1-.1.2-.1.3-.2.3-.2.7 0 .9.3.2.3.1.7-.3.9-.6.3-1.1.6-1.7.9-.4.2-.8.1-1.1-.3-.8-1.2-1.5-2.3-2.3-3.5-.1-.1-.1-.1-.2-.1h-5.4c-.4 0-.8-.2-1-.6-.1-.2-.1-.4-.1-.5V6.9c0-.6.5-1.1 1.1-1.1.6 0 1.1.5 1.1 1.1v2h3.2c.7 0 1.1.6.9 1.2-.1.4-.4.7-.9.7h-3.2c-.1.6-.1 1.1-.1 1.6z"/><path class="st1" d="M6.5 14.7c0-1.7.6-3.2 1.8-4.5.5-.5 1.1-.9 1.7-1.2.5-.2 1.1.1 1.2.7.1.4-.1.8-.5 1-1.3.7-2 1.8-2.3 3.2-.3 1.6.1 3 1.3 4.1 1.7 1.7 4.1 1.7 5.8.2.6-.5 1.1-1.2 1.3-2 .2-.5.6-.7 1.1-.6.5.2.7.7.5 1.1-.4 1.1-.9 2-1.8 2.8-1 .9-2.2 1.5-3.6 1.6-2.4.2-4.7-1.2-5.8-3.3-.4-1-.7-2-.7-3.1zM15 3.6c0 .8-.7 1.5-1.5 1.5S12 4.4 12 3.6s.7-1.5 1.5-1.5 1.5.7 1.5 1.5zM47.8 15h-6.2c-.2 0-.2 0-.2-.2V2.9c0-.2 0-.2.2-.2h12.5c.2 0 .2 0 .2.2v11.9c0 .2 0 .2-.2.2h-6.3zm0-10.5h-4.6c-.2 0-.2 0-.2.2v7.9c0 .2 0 .2.2.2h9.1c.2 0 .2 0 .2-.2V4.7c0-.2 0-.2-.2-.2h-4.5zm0 11.2h6.5c.2 0 .3 0 .3.3v4.7c0 .2 0 .3-.3.3h-13c-.2 0-.3 0-.3-.3V16c0-.2 0-.2.2-.2 2.2-.1 4.4-.1 6.6-.1zm-3.3 3.5v.6c0 .1.1.2.2.2h1.2c.1 0 .2-.1.2-.2v-1.2c0-.1-.1-.2-.2-.2h-1.2c-.1 0-.2.1-.2.2v.6zm-2.5.1v.6c0 .1 0 .2.2.2h1.2c.1 0 .2 0 .2-.2v-1.2c0-.1-.1-.2-.2-.2h-1.2c-.1 0-.2 0-.2.2v.6zm6.6 0v-.6c0-.2 0-.2-.2-.2h-1.2c-.2 0-.2 0-.2.2v1.2c0 .2 0 .2.2.2h1.2c.1 0 .2 0 .2-.2v-.6zm2.4 0v-.6c0-.1 0-.2-.2-.2h-1.2c-.1 0-.2 0-.2.2v1.2c0 .1.1.2.2.2h1.2c.1 0 .2 0 .2-.2v-.6zm.9 0v.6c0 .1.1.2.2.2h1.2c.1 0 .2-.1.2-.2v-1.2c0-.1-.1-.2-.2-.2h-1.2c-.1 0-.2 0-.2.2v.6zM44.1 18h.6c.1 0 .2-.1.2-.2v-1.2c0-.1-.1-.2-.2-.2h-1.2c-.1 0-.2.1-.2.2v1.2c0 .1.1.2.2.2h.6zm2.5 0h.6c.1 0 .2 0 .2-.2v-1.2c0-.1 0-.2-.2-.2H46c-.1 0-.2 0-.2.2v1.2c0 .1 0 .2.2.2h.6zm4.9 0h.6c.1 0 .2-.1.2-.2v-1.3c0-.1-.1-.2-.2-.2h-1.3c-.1 0-.2 0-.2.2v1.3c0 .1.1.2.2.2h.7zm-2.4-1.6h-.6c-.2 0-.2 0-.2.2v1.2c0 .2 0 .2.2.2h1.2c.1 0 .2 0 .2-.2v-1.2c0-.1-.1-.2-.2-.2h-.6z"/><path class="st0" d="M47.8 4.5h4.6c.2 0 .2 0 .2.2v7.9c0 .2 0 .2-.2.2h-9.1c-.2 0-.2 0-.2-.2V4.7c0-.2 0-.2.2-.2h4.5zm-3.3 14.7v-.6c0-.1 0-.2.2-.2h1.2c.1 0 .2.1.2.2v1.2c0 .1-.1.2-.2.2h-1.2c-.1 0-.2-.1-.2-.2v-.6zm-2.5.1v-.6c0-.1 0-.2.2-.2h1.2c.1 0 .2 0 .2.2v1.2c0 .1-.1.2-.2.2h-1.2c-.1 0-.2 0-.2-.2v-.6zm6.6 0v.6c0 .2 0 .2-.2.2h-1.2c-.1 0-.2 0-.2-.2v-1.2c0-.2 0-.2.2-.2h1.2c.2 0 .2 0 .2.2v.6zm2.4 0v.6c0 .1 0 .2-.2.2h-1.2c-.1 0-.2 0-.2-.2v-1.2c0-.1 0-.2.2-.2h1.2c.1 0 .2 0 .2.2v.6zm.9 0v-.6c0-.1 0-.2.2-.2h1.2c.1 0 .2.1.2.2v1.2c0 .1-.1.2-.2.2h-1.2c-.1 0-.2-.1-.2-.2v-.6zM44.1 18h-.6c-.1 0-.2-.1-.2-.2v-1.2c0-.1.1-.2.2-.2h1.2c.1 0 .2.1.2.2v1.2c0 .1-.1.2-.2.2h-.6zm2.5 0H46c-.1 0-.2 0-.2-.2v-1.2c0-.1 0-.2.2-.2h1.2c.1 0 .2 0 .2.2v1.2c0 .1 0 .2-.2.2h-.6zm4.9 0h-.6c-.1 0-.2-.1-.2-.2v-1.3c0-.1.1-.2.2-.2h1.3c.1 0 .2.1.2.2v1.3c0 .1-.1.2-.2.2h-.7zm-2.4-1.6h.6c.1 0 .2.1.2.2v1.2c0 .1 0 .2-.2.2h-1.2c-.2 0-.2 0-.2-.2v-1.2c0-.2 0-.2.2-.2h.6z"/></svg>