<svg id="Layer_1" xmlns="http://www.w3.org/2000/svg" viewBox="0 0 147 56"><style>.st0{fill:#fff}.st1{fill:#015287}</style><path class="st0" d="M68.7 11.5c-3.6 1.2-6.4 3.4-8.4 6.6-1.8 2.8-2.7 5.9-2.5 9.2.1 3.6 1.3 6.8 3.6 9.6s5.2 4.6 8.7 5.5l-.9 1.5c-.8 1.4-1.8 2.6-2.9 3.8-1.5 1.6-3.1 3.1-4.9 4.3-2.3 1.6-4.8 2.7-7.5 3.3-1.1.3-2.2.4-3.4.5-.9.1-1.8.1-2.6.1H24.8c-2.1 0-4.1-.3-6.1-.9-2.5-.7-4.8-1.8-6.9-3.4-1-.7-1.9-1.5-2.8-2.3-1.6-1.3-2.8-2.9-4-4.5C3.8 43 2.8 41.1 2 39 1.3 37.3.8 35.6.5 33.8.3 32.6.2 31.3 0 30v-2c0-1.2.1-2.3.2-3.5.2-2.1.7-4.2 1.3-6.2 1-3.1 2.6-6 4.6-8.6.9-1.2 1.9-2.3 3-3.3 1.9-1.7 4-3.2 6.3-4.3 2-.9 4-1.6 6.2-1.8 1-.1 1.9-.2 2.9-.2.9-.1 1.8-.1 2.7-.1h21.2c3.2 0 6.4.7 9.3 2 2.1.9 4 2.1 5.8 3.6 2 1.6 3.7 3.5 5.1 5.7 0 0 0 .1.1.2zM34 28.8v-3.5h7.6c1 0 1.8-.7 2.1-1.6.4-1.4-.6-2.9-2.2-2.9-2.4.1-4.7 0-7.1 0H34v-4.6c0-1.4-1.1-2.5-2.5-2.5S29 14.8 29 16.2v14.6c0 .4.1.9.3 1.3.5.9 1.3 1.3 2.4 1.3h12.6c.3 0 .4.1.6.3l5.4 8.1c.6.9 1.7 1.2 2.6.7 1.3-.7 2.6-1.4 3.9-2.2.8-.4 1.1-1.4.6-2.1-.4-.7-1.3-1-2.1-.6-.3.1-.5.3-.8.4-.5.3-1.1.6-1.6.9-.1-.1-.2-.2-.2-.3-1.9-2.9-3.8-5.8-5.7-8.6-.5-.7-1.1-1.1-2-1.1H34.5c-.2-.1-.3-.1-.5-.1zm-18.7 5.4c0 2.7.6 5 1.7 7.2 2.6 5.1 8 8.2 13.6 7.8 3.2-.2 6.1-1.5 8.5-3.7 2-1.8 3.3-4 4.2-6.6.4-1.1-.2-2.3-1.3-2.7-1.1-.4-2.2.2-2.6 1.4-.6 1.9-1.6 3.5-3.1 4.8-4.1 3.5-9.7 3.3-13.6-.6-2.7-2.6-3.6-5.9-3-9.6.6-3.3 2.4-5.8 5.4-7.4.9-.5 1.3-1.3 1.1-2.3-.2-1.3-1.7-2.1-2.8-1.5-1.4.7-2.7 1.7-3.8 2.8-2.9 3-4.3 6.5-4.3 10.4zM35.1 8.4c0-1.9-1.6-3.5-3.6-3.5s-3.6 1.6-3.6 3.5c0 2 1.6 3.5 3.6 3.5s3.6-1.6 3.6-3.5zm42.1 34c6.9-2 11.2-6.4 12.4-13.5.4-2.5.1-5-.7-7.4-.8-2.4-2.1-4.5-4-6.3-1.8-1.8-4-3-6.4-3.9.3-.5.6-.9.9-1.3.9-1.1 1.8-2.2 2.8-3.2C83.8 5.3 85.5 4 87.4 3c2-1.1 4.2-2 6.4-2.4 1-.2 2-.3 2.9-.4 1-.1 2-.1 3-.1h21.5c2 0 4 .2 6 .7 2.3.6 4.5 1.5 6.5 2.8 2 1.2 3.7 2.7 5.3 4.4 1.6 1.7 2.9 3.5 4 5.6 1.3 2.4 2.3 5 2.9 7.6.2 1.1.4 2.2.5 3.3.3 1.8.2 3.6.2 5.3 0 1.2-.2 2.5-.4 3.7-.3 1.5-.7 2.9-1.1 4.4-1 2.9-2.4 5.7-4.3 8.1-.6.9-1.4 1.7-2.1 2.4-2.1 2.2-4.5 4-7.2 5.3-1.9.9-3.9 1.6-6 1.9l-3 .3c-.8.1-1.6.1-2.5.1H98.2c-2.2 0-4.3-.4-6.3-1-2.5-.8-4.7-1.9-6.8-3.4-1.5-1-2.8-2.2-4-3.5-1.5-1.6-2.8-3.4-3.9-5.4v-.3zm34.6-7.5h14.6c.4 0 .5-.1.5-.5V6.7c0-.4-.1-.5-.5-.5H97.2c-.5 0-.5 0-.5.5v27.7c0 .5 0 .5.5.5h14.6zm0 1.6H96.5c-.5 0-.6.1-.6.6V48c0 .6.1.6.6.6H127c.6 0 .6-.1.6-.6V37.1c0-.5-.1-.6-.6-.6h-15.2z"/><path class="st1" d="M70.6 39.7V13.8l12.9 12.9c-4.2 4.3-8.6 8.7-12.9 13zM147 55.6h-.7v-3.4h-.1c-.4 1.1-.8 2.3-1.2 3.4h-.6c-.4-1.2-.8-2.3-1.2-3.5v3.5h-.7V51h1.1c.1 0 .2.1.2.2.4 1 .7 2.1 1.1 3.2l.6-1.8c.2-.5.3-1 .5-1.5 0-.2.1-.2.3-.2h1c-.3 1.6-.3 3.1-.3 4.7zm-7.2-4.1h-1.3v-.6h3.3v.6h-1.2v4h-.8v-4zM34 28.8h10.9c.9 0 1.5.3 2 1.1 1.9 2.9 3.8 5.8 5.7 8.6.1.1.1.2.2.3.5-.3 1.1-.6 1.6-.9.3-.1.5-.3.8-.4.8-.4 1.7-.1 2.1.6.4.8.1 1.7-.6 2.1-1.3.7-2.6 1.5-3.9 2.2-.9.5-2 .2-2.6-.7l-5.4-8.1c-.2-.2-.3-.3-.6-.3H31.6c-1 0-1.9-.4-2.4-1.3-.2-.4-.3-.8-.3-1.3V16.1c0-1.4 1.1-2.5 2.5-2.5s2.5 1.1 2.5 2.5v4.6h.4c2.4 0 4.7.1 7.1 0 1.5-.1 2.5 1.4 2.2 2.9-.2.9-1.1 1.6-2.1 1.6h-7.6c.1 1.3.1 2.4.1 3.6z"/><path class="st1" d="M15.3 34.2c.1-3.9 1.4-7.4 4.3-10.4 1.1-1.2 2.4-2.1 3.8-2.8 1.1-.6 2.6.2 2.8 1.5.2 1-.3 1.8-1.1 2.3-2.9 1.6-4.8 4.1-5.4 7.4-.7 3.7.3 7 3 9.6 3.9 3.9 9.6 4.1 13.6.6 1.5-1.3 2.5-2.9 3.1-4.8.4-1.1 1.5-1.7 2.6-1.4 1.1.4 1.6 1.6 1.3 2.7-.8 2.6-2.2 4.8-4.2 6.6-2.4 2.2-5.2 3.4-8.5 3.7-5.6.4-11-2.7-13.6-7.8-1.1-2.2-1.7-4.5-1.7-7.2zM35.1 8.4c0 1.9-1.6 3.5-3.6 3.5s-3.6-1.6-3.6-3.5c0-2 1.6-3.5 3.6-3.5 1.9 0 3.6 1.6 3.6 3.5zm76.7 26.5H97.2c-.5 0-.5 0-.5-.5V6.7c0-.5 0-.5.5-.5h29.2c.4 0 .5.1.5.5v27.7c0 .5-.1.5-.5.5h-14.6zm0-24.4h-10.7c-.5 0-.5 0-.5.5v18.5c0 .4 0 .5.5.5h21.4c.4 0 .5 0 .5-.5V11c0-.5 0-.5-.5-.5h-10.7zm0 26h15.3c.5 0 .6.1.6.6V48c0 .5-.1.6-.6.6H96.6c-.6 0-.6-.1-.6-.6V37.1c0-.5.1-.6.6-.6h15.2zm-7.7 8.4v1.5c0 .3.1.4.4.4h2.9c.3 0 .4-.1.4-.4v-2.9c0-.3-.1-.4-.4-.4h-2.9c-.3 0-.4.1-.4.4v1.4zm-5.8 0v1.4c0 .3.1.4.4.4h2.8c.3 0 .4-.1.4-.4v-2.9c0-.3-.1-.4-.4-.4h-2.8c-.3 0-.4.1-.4.5v1.4zm15.3 0v-1.4c0-.4-.1-.5-.5-.5h-2.7c-.4 0-.5.1-.5.5v2.8c0 .4.1.5.5.5h2.8c.4 0 .5-.1.5-.5-.1-.5-.1-.9-.1-1.4zm5.8 0v-1.4c0-.3-.1-.5-.4-.5h-2.8c-.3 0-.4.1-.4.4v2.9c0 .3.1.4.4.4h2.8c.3 0 .4-.1.4-.4v-1.4zm2.1 0v1.5c0 .3.1.4.4.4h2.9c.3 0 .4-.1.4-.4v-2.9c0-.3-.1-.4-.4-.4h-2.9c-.3 0-.4.1-.4.4v1.4zm-18.3-3h1.5c.3 0 .4-.1.4-.4v-2.9c0-.3-.1-.4-.4-.4h-2.9c-.3 0-.4.1-.4.4v2.9c0 .3.1.4.4.4h1.4zm5.8 0h1.4c.3 0 .4-.1.4-.4v-2.8c0-.3-.1-.4-.4-.4h-2.9c-.3 0-.4.1-.4.4v2.8c0 .3.1.4.5.4h1.4zm11.6 0h1.5c.3 0 .4-.1.4-.4v-3c0-.2-.1-.4-.4-.4h-3c-.2 0-.4.1-.4.4v3c0 .3.1.4.4.4h1.5zm-5.8-3.7h-1.4c-.4 0-.5.1-.5.5v2.8c0 .4.1.4.4.4h2.8c.3 0 .4-.1.4-.4v-2.9c0-.3-.1-.4-.4-.4h-1.3z"/><path class="st0" d="M111.8 10.5h10.7c.5 0 .5 0 .5.5v18.5c0 .4 0 .5-.5.5h-21.4c-.4 0-.5 0-.5-.5V11c0-.5 0-.5.5-.5h10.7zm-7.7 34.4v-1.4c0-.3.1-.4.4-.4h2.9c.3 0 .4.1.4.4v2.9c0 .3-.1.4-.4.4h-2.9c-.3 0-.4-.1-.4-.4v-1.5zm-5.8 0v-1.4c0-.3.1-.5.4-.5h2.8c.3 0 .4.1.4.4v2.9c0 .3-.1.4-.4.4h-2.8c-.3 0-.4-.1-.4-.4v-1.4zm15.3 0v1.4c0 .4-.1.5-.5.5h-2.8c-.3 0-.5-.1-.5-.5v-2.8c0-.4.1-.5.5-.5h2.7c.4 0 .5.1.5.5.1.5.1 1 .1 1.4zm5.8 0v1.4c0 .3-.1.4-.4.4h-2.8c-.3 0-.4-.1-.4-.4v-2.9c0-.3.1-.4.4-.4h2.8c.3 0 .4.1.4.5v1.4zm2.1 0v-1.4c0-.3.1-.4.4-.4h2.9c.3 0 .4.1.4.4v2.9c0 .3-.1.4-.4.4h-2.9c-.3 0-.4-.1-.4-.4v-1.5zm-18.3-3h-1.4c-.3 0-.4-.1-.4-.4v-2.9c0-.3.1-.4.4-.4h2.9c.3 0 .4.1.4.4v2.9c0 .3-.1.4-.4.4h-1.5zm5.8 0h-1.4c-.3 0-.5-.1-.5-.4v-2.8c0-.3.1-.4.4-.4h2.9c.3 0 .4.1.4.4v2.8c0 .3-.1.4-.4.4H109zm11.6 0h-1.5c-.3 0-.4-.1-.4-.4v-3c0-.2.1-.4.4-.4h3c.2 0 .4.1.4.4v3c0 .3-.1.4-.4.4h-1.5zm-5.8-3.7h1.5c.3 0 .4.1.4.4v2.9c0 .3-.1.4-.4.4h-2.8c-.4 0-.4-.1-.4-.4v-2.8c0-.4.1-.5.5-.5h1.2z"/></svg>