<svg id="Layer_1" xmlns="http://www.w3.org/2000/svg" viewBox="0 -16 783 73"><style>.st0{fill:#fff}.st1{fill:#bbbdbf}</style><path class="st0" d="M0 24.4h782.2v30H0z"/><path class="st1" d="M214.5 55.6h-5.3V49c-2-.6-3.8-.9-5.3-1.6-2.5-1.3-3.5-3.6-3.6-6.4 0-1-.4-2.2-1-3-3.3-4.4-1.2-10.2 4.1-11.7.8-.2 1.6-.8 2-1.5 3.4-4.7 9.3-4.7 12.6-.1.5.7 1.4 1.3 2.3 1.6 5.1 1.5 7.1 7.3 3.9 11.6-.5.6-1 1.4-1.1 2.1-.5 6.2-2 7.8-8.7 8.7.1 2.2.1 4.5.1 6.9zm-.3-9.5c4.4 1 7.7-1.8 7-5.5-.3-1.6.3-2.4 1.1-3.7.9-1.4 1.6-3.7 1.1-5.2s-2.4-3-4-3.5c-1.4-.5-2.3-.8-2.9-2.1-.9-1.9-2.5-2.8-4.7-2.8s-4.1.9-4.9 2.9c-.6 1.4-1.4 1.7-2.7 2-4.5.9-6.3 5.7-3.1 8.9 1.2 1.2 1.4 2.1 1.1 3.7-.5 2.9 1.9 5.6 4.8 5.9 1.5.1 2.2-.5 1.5-1.9-.7-1.6-1.7-3-2.7-4.7 2.4-2.5 2.8 1.3 4.4 1.6.4-1.3-.7-4.2 2.7-3l.3 3c1.5-.5 2-4 4.1-1.5-1 2-2 3.9-3.1 5.9z"/><path class="st0" d="M214.2 46.1c1.1-2 2.1-3.9 3.2-6.1-2.2-2.4-2.6 1-4.1 1.5l-.3-3c-3.4-1.1-2.3 1.7-2.7 3-1.6-.3-2-4.1-4.4-1.6 1 1.7 2 3.2 2.7 4.7.6 1.4-.1 2-1.5 1.9-2.9-.3-5.3-3-4.8-5.9.3-1.5.1-2.5-1.1-3.7-3.2-3.1-1.4-8 3.1-8.9 1.4-.3 2.1-.6 2.7-2 .8-2 2.7-2.9 4.9-2.9 2.1 0 3.8.9 4.7 2.8.6 1.4 1.5 1.7 2.9 2.1 1.6.5 3.5 2 4 3.5s-.2 3.7-1.1 5.2c-.8 1.2-1.4 2.1-1.1 3.7.6 3.9-2.7 6.7-7.1 5.7z"/><path class="st1" d="M196.4 55.6h-4.3v-5.4c-1.6-.5-3.1-.7-4.3-1.3-2-1.1-2.9-2.9-3-5.2 0-.8-.3-1.8-.8-2.5-2.7-3.6-1-8.3 3.3-9.5.6-.2 1.3-.7 1.7-1.2 2.7-3.8 7.5-3.9 10.3 0 .4.6 1.1 1.1 1.8 1.3 4.2 1.2 5.8 6 3.2 9.4-.4.5-.8 1.1-.9 1.7-.4 5-1.6 6.3-7 7.1v5.6zm-.2-7.7c3.6.8 6.2-1.5 5.7-4.5-.2-1.3.3-2 .9-3 .7-1.2 1.3-3 .9-4.2-.4-1.2-2-2.4-3.3-2.9-1.1-.4-1.8-.6-2.3-1.7-.7-1.5-2.1-2.3-3.8-2.3-1.8 0-3.3.7-4 2.3-.5 1.1-1.1 1.4-2.2 1.6-3.7.7-5.1 4.7-2.5 7.2 1 1 1.1 1.7.9 3-.4 2.4 1.5 4.6 3.9 4.8 1.2.1 1.8-.4 1.3-1.5-.6-1.3-1.4-2.4-2.2-3.8 1.9-2.1 2.3 1.1 3.6 1.3.4-1.1-.6-3.4 2.2-2.5.1.8.2 1.7.3 2.4 1.2-.4 1.6-3.2 3.4-1.3-1.1 1.9-2 3.4-2.8 5.1z"/><path class="st0" d="M196.2 47.9c.9-1.7 1.7-3.2 2.6-5-1.8-2-2.1.8-3.4 1.3l-.3-2.4c-2.8-.9-1.8 1.4-2.2 2.5-1.3-.2-1.6-3.3-3.6-1.3.8 1.4 1.6 2.6 2.2 3.8.5 1.1 0 1.6-1.3 1.5-2.4-.2-4.3-2.4-3.9-4.8.2-1.3.1-2-.9-3-2.6-2.6-1.2-6.5 2.5-7.2 1.1-.2 1.7-.5 2.2-1.6.7-1.6 2.2-2.3 4-2.3 1.7 0 3.1.7 3.8 2.3.5 1.1 1.2 1.4 2.3 1.7 1.3.4 2.9 1.7 3.3 2.9.4 1.2-.1 3-.9 4.2-.6 1-1.2 1.7-.9 3 .7 2.9-2 5.2-5.5 4.4z"/><path class="st1" d="M766.3 23.9c-.7.3-1.3.5-2.2.8 2.5-4 4.8-7.9 6.3-12.7 1.5 4.8 3.8 8.8 6.5 12.8-.9-.4-1.6-.7-2.3-1l-.2.2c1.5 3 2.9 6 4.5 9.1l-2.2-1.1 4.1 8.2c-.8-.3-1.4-.6-2.1-.8 0 .1-.1.1-.1.2 1.2 2.1 2.4 4.2 3.7 6.5-7.9 2.4-15.7 2.4-23.6 0 1.3-2.2 2.5-4.4 3.8-6.8-.9.3-1.6.6-2.4 1 1.4-2.7 2.6-5.3 3.9-7.9 0-.1-.1-.1-.1-.2-.6.3-1.2.5-1.9.9.8-1.7 1.6-3.3 2.3-4.9.6-1.3 1.2-2.5 1.9-3.8 0 0 .1-.2.1-.5.1 0 .1 0 0 0 .1 0 .1 0 0-.1v.1zm7.3 30.4H767c.5-.8 1.1-1.5 1.3-2.3.3-.8.2-1.8.4-2.8h2.5c.1 0 .3.2.4.3.6 1.6 1.3 3.2 2 4.8zm-393.4-21c-.5.2-.9.4-1.5.6 1.7-2.7 3.3-5.4 4.3-8.7 1.1 3.3 2.6 6.1 4.4 8.8-.6-.3-1.1-.5-1.5-.7l-.1.1c1 2.1 2 4.1 3.1 6.3-.6-.3-1-.5-1.5-.7 1 1.9 1.9 3.7 2.8 5.7l-1.5-.6-.1.1c.8 1.5 1.7 2.9 2.5 4.5-5.4 1.6-10.8 1.7-16.2 0 .9-1.5 1.7-3 2.6-4.7-.6.2-1.1.4-1.7.7.9-1.9 1.8-3.7 2.7-5.4l-.1-.1c-.4.2-.8.4-1.3.6.6-1.2 1.1-2.3 1.6-3.4.4-.9.9-1.7 1.3-2.6.2-.1.2-.3.2-.5.1 0 .1 0 0 0 .1 0 .1 0 0 0zm5 21h-4.5c.3-.5.7-1 .9-1.6.2-.6.2-1.3.2-1.9h1.8c.1 0 .2.1.3.2.4 1.1.8 2.2 1.3 3.3zM225.8 51v-5.6c0-.1.1-.3.1-.4.2-.7.7-1.1 1.3-1.4.3-.1.4-.2.5-.5.4-1.2.9-2.4 1.4-3.5.4-1.1 1.1-1.6 2.4-1.7h8.1c1.2 0 1.9.5 2.4 1.7.4 1 .8 2 1.1 3 .2.5.3 1 1 1.2.1 0 .3.2.4.3.3.4.5.8.7 1.2V51h-1.5v.9c0 .4 0 .8-.1 1.2-.1.9-1.1 1.4-2 1-.7-.3-.9-.8-.9-1.5v-1.5h-10.5V53c0 .6-.4 1-1 1.2-.5.2-1 .1-1.4-.3-.4-.4-.5-.8-.5-1.4V51h-1.5zm16-7.4c-.4-1.1-.8-2.2-1.2-3.2-.2-.6-.4-.8-1.1-.8h-7.9c-.7 0-.9.1-1.1.8-.4 1-.7 1.9-1.1 2.9 0 .1-.1.2-.1.3h12.5zm-13 4.3c.7 0 1.3-.6 1.3-1.3 0-.7-.6-1.4-1.3-1.4s-1.3.6-1.3 1.3c0 .7.6 1.4 1.3 1.4zm14.6-1.4c0-.7-.6-1.4-1.3-1.3-.7 0-1.3.6-1.3 1.4 0 .7.6 1.3 1.3 1.3.7 0 1.3-.6 1.3-1.4z"/><path class="st0" d="M241.8 43.6h-12.5c0-.1.1-.2.1-.3.4-1 .7-1.9 1.1-2.9.2-.6.4-.8 1.1-.8h7.9c.7 0 .9.1 1.1.8.4 1 .7 2.1 1.2 3.2zm-13 4.3c-.7 0-1.3-.6-1.3-1.4 0-.7.6-1.3 1.3-1.3s1.3.6 1.3 1.4c.1.7-.6 1.3-1.3 1.3zm14.6-1.4c0 .7-.6 1.4-1.3 1.4s-1.3-.6-1.3-1.3c0-.7.6-1.3 1.3-1.4.7 0 1.3.6 1.3 1.3z"/><path class="st1" d="M740.1 40.1h18v16.2h-18z"/><path class="st0" d="M742.6 43h3.2v3.2h-3.2zm4.9 0h3.2v3.2h-3.2zm4.8 0h3.2v3.2h-3.2zm-9.7 5.3h3.2v6.3h-3.2zm4.9 0h3.2v6.3h-3.2zm4.8 0h3.2v6.3h-3.2z"/><path class="st1" d="M759.3 41.1h-20.4L749.1 31zM646.4 16.3h11.5v9.2h-11.5z"/><path class="st1" d="M659.5 16.7h-14.6l7.3-6.2z"/><ellipse class="st0" cx="749.1" cy="38.1" rx="1.9" ry="1.9"/><ellipse class="st0" cx="652.2" cy="19.6" rx="2.8" ry="2.7"/><path class="st1" d="M715.6 11h22.2v44.2h-22.2z"/><path class="st0" d="M717.9 13.9h2.3v3.7h-2.3zm5 0h2.3v3.7h-2.3zm5.1 0h2.3v3.7H728zm5 0h2.3v3.7H733zm-15.1 6.2h2.3v3.7h-2.3zm5 0h2.3v3.7h-2.3zm5.1 0h2.3v3.7H728zm5 0h2.3v3.7H733zm-15.1 6.2h2.3V30h-2.3zm5 0h2.3V30h-2.3zm5.1 0h2.3V30H728zm5 0h2.3V30H733zm-15.1 6.2h2.3v3.7h-2.3zm5 0h2.3v3.7h-2.3zm5.1 0h2.3v3.7H728zm5 0h2.3v3.7H733zm-15.1 6.2h2.3v3.7h-2.3zm5 0h2.3v3.7h-2.3zm5.1 0h2.3v3.7H728zm5 0h2.3v3.7H733zm-15.1 6.2h2.3v3.7h-2.3zm5 0h2.3v3.7h-2.3zm5.1 0h2.3v3.7H728zm5 0h2.3v3.7H733zm-15.1 6.2h2.3v3.7h-2.3zm5 0h2.3v3.7h-2.3zm5.1 0h2.3v3.7H728zm5 0h2.3v3.7H733z"/><path class="st1" d="M695.5 30.2h21.3v26.2h-21.3z"/><path class="st0" d="M698.2 32.7h15.7v2.6h-15.7zm0 4.8h15.7v2.6h-15.7zm0 4.9h15.7V45h-15.7zm0 4.8h15.7v2.6h-15.7zm0 4.8h15.7v2.6h-15.7z"/><path class="st1" d="M666.3 18.6h5v37.7h-5z"/><path class="st0" d="M671.8 55.9V19.3l10.5 3.7v32.9z"/><path class="st1" d="M672.3 20l9.6 3.3v32h-9.6V20m-1-1.4v37.7h11.6V22.6l-11.6-4z"/><path class="st1" d="M673.7 22.9v2.8l6.8 2.3v-2.8zm0 5.1v3l6.8 1.7V30zm1.9 5.5h5v21.9h-5z"/><path class="st0" d="M681 54.8V34.2l10.6 3.6v17z"/><path class="st1" d="M681.5 34.9l9.6 3.3v16.2h-9.6V34.9m-1-1.4v21.9h11.6V37.5l-11.6-4z"/><path class="st1" d="M682.9 37.8v2.7l6.8 2.4v-2.8zm0 5.1v3l6.8 1.6v-2.6zM368.5 11h6v45.3h-6z"/><path class="st0" d="M355.2 55.7V16.2l12.7-4.3v43.8z"/><path class="st1" d="M367.3 12.7v42.4h-11.5V16.7l11.5-4m1.2-1.7l-13.9 4.8v40.6h13.9V11z"/><path class="st1" d="M365.6 16.2v3.3l-8.1 2.8v-3.4zm0 6.1v3.6l-8.1 2v-3.2zm-8.2 6.6h6v26.3h-6z"/><path class="st0" d="M344.1 54.5V34.1l12.7-4.4v24.8z"/><path class="st1" d="M356.2 30.6v23.3h-11.5V34.5l11.5-3.9m1.2-1.7l-13.9 4.8v21.5h13.9V28.9z"/><path class="st1" d="M354.5 34v3.3l-8.2 2.8v-3.3zm0 6.1v3.6l-8.2 2v-3.1zm286.2-16.3h23v31.9h-23z"/><path class="st0" d="M644 28h4v4h-4zm6.2 0h4v4h-4zm6.1 0h4v4h-4zM644 34.1h4v4h-4zm6.2 0h4v4h-4zm6.1 0h4v4h-4zM644 40.2h4v4h-4zm6.2 0h4v4h-4zm6.1 0h4v4h-4zM644 46.4h4v4.1h-4zm6.2 0h4v8.3h-4zm6.1 0h4v4.1h-4zm-72.7-27.8H597v37h-13.4zM611 6.5h12.6v50.8H611z"/><path class="st1" d="M622.8 8.3c-3.5.5-6.9 1-10.4 1.5V57h-16.6V21.1c-1.2.2-2.4.3-3.5.5-2.1.3-4.2.7-6.3.9-.5.1-.6.3-.6.7v33.7h-8.6v-2.8h3c.6 0 .8-.2.8-.8V18.4c1.7-.3 3.4-.5 5.1-.8 4.6-.7 9.2-1.3 13.7-2.1 1.2-.2 2.1.2 3.2.5.9.2 1.3.6 1.4 1.6.6 5.1 1.3 10.3 1.9 15.4.2 1.3.3 2.6.5 3.9.1.5.6.9.9 1.3.1 0 .1-.1.2-.1V6.3c0-.5.1-.7.7-.8 5.2-.7 10.4-1.5 15.6-2.3 1-.1 2-.3 3-.4.5-.1 1.1 0 1.6.1 2.4.8 4.8 1.6 7.1 2.4.4.1.6.3.6.8v48.1h3V57h-16.3V8.3z"/><path class="st1" d="M618.4 48.1v-3.6h2.3v3.6h-2.3zm2.3-33.2c-.7.1-1.5.2-2.2.3v-3.7c.7-.1 1.5-.2 2.2-.3v3.7zm-2.3 6.8v-3.6c.7-.1 1.5-.2 2.3-.2v2.8c0 .9 0 .9-.9 1-.4 0-.8.1-1.2.1 0-.1-.1-.1-.2-.1zm.1 16.1c.8 0 1.5-.1 2.2-.1v3.7h-2.2v-3.6zm2.2-13.4v3.7c-.7.1-1.5.1-2.2.2v-3.7c.7 0 1.4-.1 2.2-.2zm-2.3 6.8c.7 0 1.5-.1 2.2-.1v3.7h-2.2v-3.6zm-27 16.2v-3.7c.7 0 1.5-.1 2.2-.1v3.7c-.7 0-1.4.1-2.2.1zm.1-16.9c.7-.1 1.4-.1 2.2-.2V34c-.7.1-1.4.1-2.2.2v-3.7zm2.2 6.5v3.7c-.7 0-1.4.1-2.2.1v-3.4c0-.1.2-.2.3-.3.5-.1 1.2-.1 1.9-.1zm0-13.4v3.7c-.7.1-1.5.2-2.2.3v-3.4c0-.1.2-.3.3-.3.5-.1 1.2-.2 1.9-.3zm-.1 30.4h-2.2v-3.6h2.2V54zm20.6-9.5h2.2v3.6h-1.9c-.1 0-.3-.2-.3-.3v-3.3zm-27 9.4v-3.6h2.1v3.6h-2.1zm0-19.4v-3.6c.7-.1 1.4-.1 2.2-.2v3.4c0 .1-.2.2-.3.3-.6.1-1.2.1-1.9.1zm27 .6v-3.3c0-.1.2-.3.4-.4.6-.1 1.2-.1 1.8-.1v3.6c-.7.1-1.4.1-2.2.2zm-24.8 2.2V41c-.7 0-1.4.1-2.1.1v-3.6c.6-.1 1.3-.2 2.1-.2zm24.8-8.7V25c.7-.1 1.4-.1 2.2-.2v2.5c0 1.2 0 1.2-1.2 1.2-.3 0-.6.1-1 .1zm-27-4.2l2.1-.3v3.7c-.7.1-1.4.1-2.1.2v-3.6zm29.2-9c-.7.1-1.4.2-2.2.3v-3.4c0-.1.2-.3.3-.3.6-.1 1.2-.2 1.9-.2v3.6zm0 2.9V22c-.7.1-1.4.1-2.2.2v-3.6c.7-.2 1.4-.3 2.2-.3zm-29.2 29.2v-3.7h2.1v3.5c-.6.2-1.3.2-2.1.2zm27-9.6h2.2v3.5h-2.2v-3.5z"/><path class="st0" d="M522.4 20.9h48.8v33.8h-48.8zm17.9-18.1H555v13.4h-14.7z"/><path class="st1" d="M555.1 46.2h14.8c.5 0 .7-.1.7-.6V22.3h-46.4v23.8h15.4v8.5H522c-1 0-1.2-.2-1.2-1.2V23c0-.6-.1-.9-.8-.8-.3 0-.9-.1-.9-.2-.1-.5-.2-1.3.1-1.6 1.5-1.6 3.1-3.2 4.7-4.7.2-.2.7-.3 1-.3h12.9v-12c-.4 0-.8.1-1.1 0-.2 0-.5-.3-.5-.5-.1-.7 0-1.3.6-1.9 1.4-1.3 2.7-2.6 4-3.9.3-.3.8-.5 1.2-.5h10.6c.4 0 .9.2 1.2.5 1.5 1.4 2.9 2.8 4.3 4.3.3.3.5 1.4.3 1.8-.1.1-.4.2-.6.2h-1.1v12h13c.4 0 .9.2 1.2.5 1.5 1.4 2.9 2.8 4.3 4.2.3.3.5 1.4.3 1.8-.1.1-.3.2-.5.2h-1.1v31.2c0 1.1-.1 1.3-1.3 1.3h-16.9c-.6 0-.8-.2-.8-.8v-7.1c.2 0 .2-.2.2-.5zM541.4 3.5v11.9h12V4c0-.5-.3-.5-.6-.5h-11.4z"/><path class="st1" d="M544.8 47.8V36h5.1v11.8h-5.1zm13.7-5.1h-4.7c-.1 0-.4-.3-.4-.4v-6c0-.1.2-.4.3-.4h4.8v6.8zM562 36h5.1v6.7H562V36zm-25.7 0h5v6.7h-5V36zm-3.6 0v6.7h-5.1V36h5.1zm34.4-10.3v6.7H562v-6.7h5.1zm-13.7 6.7v-6.7h5.1v6.7h-5.1zm-3.5-6.7v6.7h-5.1v-6.7h5.1zm-13.7 6.8v-6.7h5.1v6.7h-5.1zm-8.6-.1v-6.7h5.1v6.7h-5.1zm13.8 18.8v-1.6h11.9v1.6h-11.9zm0 1.8h11.9v1.6h-11.9V53zm3.4-39.3V7h5.1v6.7h-5.1zm-66.9 42.2V25.5c-.6.4-1 .8-1.5 1.2-1-1.5-2.1-2.9-3.1-4.4 7.1-5.5 14.2-10.9 21.4-16.3 2.1 1.6 4.3 3.2 6.5 4.9V6h5.8v8.9c0 .4.1.7.5 1 2.7 2 5.3 4.1 8 6.1.2.1.3.3.5.4-1 1.5-2 2.9-3.1 4.4-.5-.4-.9-.7-1.5-1.2v30.3h-33.5zm19.8-13.8h-5.6v11.2h5.6V42.1zm-9.3 0h-5.7v5.2h5.7v-5.2zm13.1 5.2h5.7v-5.2h-5.7v5.2zm-13.2-22.7h-5.7v5.1h5.7v-5.1zm3.7 5.1h5.7v-5.2H492v5.2zm9.5-5.2v5.2h5.6v-5.2h-5.6zm-18.9 8.7v5.2h5.6v-5.2h-5.6zm15 5.2v-5.2H492v5.2h5.6zm3.9-5.2v5.2h5.6v-5.2h-5.6z"/><path class="st0" d="M497.7 42.1v11.2h-5.6V42.1h5.6zm-9.3 0v5.2h-5.7v-5.2h5.7zm13.1 5.2v-5.2h5.7v5.2h-5.7zm-13.2-22.7v5.1h-5.7v-5.1h5.7zm3.7 5.1v-5.2h5.7v5.2H492zm9.5-5.2h5.6v5.2h-5.6v-5.2zm-18.9 8.7h5.6v5.2h-5.6v-5.2zm15 5.2H492v-5.2h5.6v5.2zm3.9-5.2h5.6v5.2h-5.6v-5.2z"/><path class="st1" d="M478.9 55.6h-6.1v-7.5c-2.3-.7-4.4-1-6.1-1.9-2.9-1.5-4-4.1-4.2-7.3 0-1.2-.4-2.5-1.1-3.5-3.8-5-1.4-11.7 4.7-13.4.9-.2 1.8-.9 2.3-1.7 3.9-5.4 10.6-5.4 14.5-.1.6.8 1.6 1.5 2.6 1.8 5.9 1.7 8.2 8.4 4.5 13.3-.5.7-1.1 1.6-1.2 2.4-.5 7.1-2.3 8.9-9.9 9.9v8zm-.3-10.9c5 1.1 8.8-2.1 8-6.3-.3-1.9.4-2.8 1.3-4.2 1-1.7 1.8-4.2 1.2-5.9-.6-1.7-2.8-3.4-4.6-4-1.6-.5-2.6-.9-3.3-2.4-1-2.2-2.9-3.2-5.3-3.2-2.5 0-4.6 1-5.6 3.3-.7 1.6-1.5 2-3.1 2.3-5.2 1-7.2 6.6-3.6 10.2 1.4 1.3 1.6 2.5 1.3 4.2-.6 3.3 2.2 6.5 5.5 6.8 1.7.2 2.5-.5 1.8-2.1-.8-1.8-1.9-3.4-3.1-5.4 2.7-2.9 3.2 1.5 5 1.8.5-1.5-.8-4.8 3.1-3.5.1 1.2.3 2.3.4 3.4 1.7-.6 2.3-4.6 4.7-1.8-1.3 2.3-2.4 4.5-3.7 6.8z"/><path class="st0" d="M478.6 44.7c1.2-2.3 2.4-4.5 3.7-7-2.5-2.8-3 1.2-4.7 1.8-.1-1.1-.2-2.2-.4-3.4-3.9-1.3-2.6 1.9-3.1 3.5-1.8-.3-2.3-4.7-5-1.8 1.1 2 2.2 3.6 3.1 5.4.7 1.6-.1 2.3-1.8 2.1-3.3-.3-6.1-3.4-5.5-6.8.3-1.8.1-2.9-1.3-4.2-3.6-3.6-1.6-9.2 3.6-10.2 1.6-.3 2.4-.7 3.1-2.3.9-2.3 3-3.3 5.6-3.3 2.4 0 4.3 1.1 5.3 3.2.7 1.6 1.7 1.9 3.3 2.4 1.8.6 4 2.3 4.6 4s-.2 4.3-1.2 5.9c-.9 1.4-1.6 2.3-1.3 4.2.8 4.5-2.9 7.7-8 6.5z"/><path class="st1" d="M383 56.3v-1.9h6.3V3c-1.4-.3-1.4-.3-1.4-1.8V-.3h29.9c0 1 .1 1.9 0 2.9 0 .2-.6.3-1 .5v22.2c0 .7.1.9.8.9 1.4-.1 2.9 0 4.4 0V-7.5c0-.7.2-.9.8-1.1 7.6-2 15.1-4.1 22.7-6.2.2-.1.5-.1.8-.2v69.4h6.5v2c-23.2-.1-46.5-.1-69.8-.1zm25.8-49.9v41.9h2.5c1 0 1 0 1-1V6.5c-1.2-.1-2.3-.1-3.5-.1zm-12.9 0h-3.5v4.9h3.1c.1 0 .4-.2.4-.4.1-1.4 0-2.9 0-4.5zm36.4 0V11c0 .1.2.4.3.4h3.1v-5h-3.4zm11.1 9.2h-3.1c-.2 0-.4.3-.4.4v4.1c0 .2.3.4.4.4h2.6c.2 0 .4-.2.4-.4.1-1.4.1-2.9.1-4.5zm0 32.6v-4.9H440v4.9h3.4zm-7.6-4.9h-3.5v4.6c0 .1.2.4.4.4h3.1v-5zm-10.8 0v4.9h3.4v-4.9H425zm-32.5 0v5h3.1c.1 0 .4-.2.4-.3v-4.6c-1.3-.1-2.4-.1-3.5-.1zm50.9-18.5h-3.1c-.2 0-.4.3-.4.5-.1.7 0 1.4 0 2.1v2.3h3.5v-4.9zm-7.6 0h-3.1c-.1 0-.3.2-.3.3v4.6h3.5c-.1-1.6-.1-3.2-.1-4.9zm-7.4 5v-4.9H425v4.9h3.4zm-32.5 0v-4.6c0-.1-.2-.4-.3-.4h-3.2v5h3.5zm36.5-9.2h3.4v-4.9h-3.4v4.9zm-4 0v-4.9H425v4.9h3.4zm-36 0h3.1c.2 0 .4-.3.4-.4v-4.1c0-.2-.3-.4-.4-.4h-2.6c-.2 0-.4.2-.4.4-.1 1.4-.1 2.9-.1 4.5zm47.5-14.2V11c0 .1.2.4.3.4h3.2v-5h-3.5zm-11.5 5v-5H425V11c0 .1.2.4.4.4h3zm-36 27.6h3.1c.2 0 .4-.3.4-.5v-4.4h-3.5V39zm43.4 0v-4.9h-3.4V39h3.4zm4.1-4.9V39h3.4v-4.9h-3.4zm0-36.9v4.5c0 .1.2.4.3.4h3.1v-4.9h-3.4zm-4.1 0h-3.4v4.9h3.4v-4.9zm-7.4 0H425v4.9h3.4v-4.9zM425 39h3.4v-4.9H425V39z"/><path class="st0" d="M408.8 6.4h3.5v40.8c0 1 0 1-1 1h-2.5V6.4zm-12.9 0v4.5c0 .1-.2.4-.4.4h-3.1V6.4h3.5zm36.4 0h3.5v5h-3.1c-.1 0-.3-.3-.3-.4-.1-1.5-.1-3-.1-4.6zm11.1 9.2v4.7c0 .1-.3.4-.4.4h-2.6c-.2 0-.4-.3-.4-.4v-4.1c0-.2.3-.4.4-.4.9-.2 1.9-.2 3-.2zm0 32.6H440v-4.9h3.4v4.9zm-7.6-4.9v5h-3.1c-.1 0-.4-.2-.4-.4v-4.6h3.5zm-10.8 0h3.4v4.9H425v-4.9zm-32.5 0h3.5v4.6c0 .1-.2.3-.4.3h-3.1v-4.9zm50.9-18.5v4.9h-3.5v-4.4c0-.2.3-.5.4-.5h3.1zm-7.6 0v4.9h-3.5v-4.6c0-.1.2-.3.3-.3h3.2zm-7.4 5H425v-4.9h3.4v4.9zm-32.5 0h-3.5v-5h3.2c.1 0 .3.2.3.4.1 1.5 0 3 0 4.6zm36.5-9.2v-4.9h3.4v4.9h-3.4zm-4 0H425v-4.9h3.4v4.9zm-36 0v-4.7c0-.1.3-.4.4-.4h2.6c.2 0 .4.3.4.4V20c0 .2-.3.4-.4.4-.9.2-1.9.2-3 .2zm47.5-14.2h3.5v5h-3.2c-.1 0-.3-.2-.3-.4V6.4zm-11.5 5h-3.1c-.1 0-.3-.2-.4-.4V6.4h3.4c.1 1.7.1 3.3.1 5zm-36 27.6v-4.9h3.5v4.4c0 .2-.3.5-.4.5-1 .1-2 0-3.1 0zm43.4 0h-3.4v-4.9h3.4V39zm4.1-4.9h3.4V39h-3.4v-4.9zm0-36.9h3.5v4.9h-3.1c-.1 0-.3-.2-.3-.4-.1-1.4-.1-2.9-.1-4.5zm-4.1 0v4.9h-3.4v-4.9h3.4zm-7.4 0v4.9H425v-4.9h3.4zM425 39v-4.9h3.4V39H425zm-89.6 7h6.9v9.1h-6.9z"/><path class="st1" d="M344.3 54.9h-2.9v-8.1H336v8.1h-25.3V36.2c0-.3.1-.4.3-.5l9-4.5c.2-.1.4-.1.6 0 1.4.7 2.7 1.4 4.1 2.1.1.1.2.1.4.2V16.9h19.2v38zm-6.4-15.7v3.1h3.1v-3.1h-3.1zm-1.6 3.1v-3.1h-3.1v3.1h3.1zm-7.9-3.1v3.1h3.1v-3.1h-3.1zm12.7-4.7H338v3.1h3.1v-3.1zm-7.9 0v3.1h3.1v-3.1h-3.1zm-4.8 3.1h3.1v-3.1h-3.1v3.1zm12.7-7.8H338v3.1h3.1v-3.1zm-7.9 0v3.1h3.1v-3.1h-3.1zm-4.8 3.1h3.1v-3.1h-3.1v3.1zm12.7-7.8H338v3.1h3.1v-3.1zm-4.8 0h-3.1v3.1h3.1v-3.1zm-7.9 3.1h3.1v-3.1h-3.1v3.1zm9.5-7.8v3.1h3.1v-3.1h-3.1zm-1.6.1h-3.1v3.1h3.1v-3.1zm-7.9 3h3.1v-3.1h-3.1v3.1zm-6.9 20.2h-2.3V46h2.3v-2.3zm1.3-1.2h2.3v-2.3h-2.3v2.3zm-1.3.1v-2.3h-2.3v2.1c0 .1.2.2.2.2h2.1zm1.3 3.4h2.4v-1.6c0-.8.1-.7-.7-.7h-1.7V46zm-3.6 1.3v2.3h2.3v-2.3h-2.3zm3.6 0v2.3h2.3v-2.3h-2.3zm-7.2-1.3h2.3v-2.3h-2.3V46zm0-3.5h2.3v-2.3h-2.3v2.3zm2.3 7.1v-2.3h-2.3v2.3h2.3z"/><path class="st0" d="M337.9 39.2h3.1v3.1h-3.1v-3.1zm-1.6 3.1h-3.1v-3.1h3.1v3.1zm-7.9-3.1h3.1v3.1h-3.1v-3.1zm12.7-4.7v3.1H338v-3.1h3.1zm-7.9 0h3.1v3.1h-3.1v-3.1zm-4.8 3.1v-3.1h3.1v3.1h-3.1zm12.7-7.8v3.1H338v-3.1h3.1zm-7.9 0h3.1v3.1h-3.1v-3.1zm-4.8 3.1v-3.1h3.1v3.1h-3.1zm12.7-7.8v3.1H338v-3.1h3.1zm-4.8 0v3.1h-3.1v-3.1h3.1zm-7.9 3.1v-3.1h3.1v3.1h-3.1zm9.5-7.8h3.1v3.1h-3.1v-3.1zm-1.6.1v3.1h-3.1v-3.1h3.1zm-7.9 3v-3.1h3.1v3.1h-3.1zm-6.9 20.2V46h-2.3v-2.3h2.3zm1.3-1.2v-2.3h2.3v2.3h-2.3zm-1.3.1h-2.1c-.1 0-.2-.1-.2-.2v-2.1h2.3v2.3zm1.3 3.4v-2.3h1.7c.8 0 .7-.1.7.7V46h-2.4zm-3.6 1.3h2.3v2.3h-2.3v-2.3zm3.6 0h2.3v2.3h-2.3v-2.3zm-7.2-1.3v-2.3h2.3V46h-2.3zm0-3.5v-2.3h2.3v2.3h-2.3zm2.3 7.1h-2.3v-2.3h2.3v2.3z"/><path class="st1" d="M291.4 55.5h-13.1c-.8 0-1.2-.4-1.2-1.2V28.9c0-.2-.1-.4-.2-.5-.4-.5-.5-1.1-.3-1.7s.7-1 1.3-1.1c2.2-.4 4.4-.7 6.6-1 2.6-.4 5.1-.8 7.7-1.2.8-.1 1.6-.3 2.4-.4.6-.1 1.3.3 1.7.9.3.6.3 1.4-.2 1.9-.2.2-.3.5-.3.7v6c0 .3.1.4.4.4l2.7.6c2 .5 4.1 1 6.1 1.5.7.2 1.2.6 1.4 1.3.2.7-.1 1.3-.6 1.8-.1.1-.2.3-.2.4v15.7c0 .9-.4 1.3-1.3 1.3h-12.9zm2.3-28.9h-.3c-2.3.3-4.5.7-6.8 1.1s-4.5.7-6.8 1c-.4.1-.5.2-.5.6v24h5.5v-5.4h3.4v5.4h5.5V26.6zm7 26.7h2.8V38.6c0-.3-.1-.4-.4-.4l-5.4-1.2c-.6-.1-1.3-.3-1.9-.4v16.8h2.8v-2.7h2c.1.8.1 1.7.1 2.6z"/><path class="st0" d="M293.7 26.6v26.8h-5.5V48h-3.4v5.4h-5.5v-24c0-.4.1-.5.5-.6 2.3-.3 4.5-.7 6.8-1 2.3-.4 4.5-.7 6.8-1.1.1-.1.2-.1.3-.1zm-7.2 18.2h1.4c.2 0 .3-.1.3-.3v-2.7c0-.2-.1-.3-.3-.3h-2.8c-.2 0-.3.1-.3.3v2.7c0 .3.1.3.3.3h1.4zm-1.6-15.1v3.2h3.3v-3.2h-3.3zm0 5.9v3.2h3.2c.1 0 .2-.2.2-.2v-2.9c-1.2-.1-2.3-.1-3.4-.1zm15.8 17.7v-2.7h-2v2.7h-2.8V36.5c.7.1 1.3.3 1.9.4l5.4 1.2c.3.1.4.1.4.4v14.7c-1 .1-1.9.1-2.9.1zm0-13.8h-1.9v1.9h1.9v-1.9zm-2 3.6v1.7c0 .1.2.2.2.2h1.5c.1 0 .2-.1.2-.2v-1.7h-1.9zm.1 3.5v1.8h1.9v-1.8h-1.9z"/><path class="st1" d="M286.5 44.8h-1.3c-.2 0-.3 0-.3-.3v-2.7c0-.2.1-.3.3-.3h2.8c.2 0 .3.1.3.3v2.7c0 .2-.1.3-.3.3h-1.5zm-1.6-15.1h3.3v3.2h-3.3v-3.2zm0 5.9h3.3v2.9c0 .1-.1.2-.2.2h-3.2c.1-.9.1-2 .1-3.1zm15.8 3.9v1.9h-1.9v-1.9h1.9zm-2 3.6h2v1.7c0 .1-.1.2-.2.2H299c-.1 0-.2-.1-.2-.2-.1-.6-.1-1.2-.1-1.7zm.1 3.5h1.9v1.8h-1.9v-1.8zm-30.9 7.7H266c-.6-.2-1-.7-1-1.3v-1.4h-5.4v1.3c0 .6-.3 1.1-.9 1.3-.1 0-.2.1-.3.1h-1.8c-.1 0-.1 0-.2-.1-.6-.2-1-.7-1-1.3v-1.4c-.9-.1-1.4-.6-1.4-1.5V38.8c0-.6 0-1.2.1-1.7.4-1.9 2.1-3.1 4.1-3.1h5.8c.9 0 1.9 0 2.8.1 1.7.1 3.2 1.5 3.4 3.2.1.6.1 1.1.1 1.7v11.1c0 .3 0 .6-.2.8-.3.4-.7.6-1.1.6v1.3c0 .6-.4 1-.9 1.2 0 .3-.1.3-.2.3zm1.1-16.1h-13.6v8.1H269v-8.1zm-9.5-1.4h5.4v-1.3h-5.4v1.3zm-2.7 10.8c-.8 0-1.4.6-1.4 1.4 0 .7.6 1.3 1.4 1.3.7 0 1.4-.6 1.4-1.4-.1-.7-.7-1.3-1.4-1.3zm10.9 0c-.8 0-1.4.6-1.4 1.4 0 .7.6 1.3 1.3 1.3.8 0 1.4-.6 1.4-1.3 0-.8-.6-1.4-1.3-1.4z"/><path class="st0" d="M258.4 54.3c.1 0 .2-.1.3-.1.5-.2.9-.7.9-1.3v-1.3h5.4V53c0 .6.4 1.1 1 1.3h.1-7.7z"/><path class="st1" d="M251.3 40c.3-.6.8-.5 1.3-.5v4c-.5 0-1.1.1-1.3-.5v-3zm21.8 3c-.3.5-.4.6-1.3.5v-4c.9-.1 1-.1 1.3.5v3z"/><path class="st0" d="M269 38.2v8.1h-13.6v-8.1H269zm-9.5-1.4v-1.3h5.4v1.3h-5.4zm-2.7 10.8c.8 0 1.4.6 1.4 1.3 0 .7-.6 1.4-1.4 1.4-.8 0-1.4-.6-1.4-1.3 0-.8.6-1.4 1.4-1.4zm10.9 0c.7 0 1.4.6 1.3 1.4 0 .7-.6 1.3-1.4 1.3-.7 0-1.3-.6-1.3-1.3 0-.8.6-1.4 1.4-1.4z"/><path class="st1" d="M-4.4 54.1h789v3.1h-789z"/></svg>