<svg id="Layer_1" xmlns="http://www.w3.org/2000/svg" viewBox="0 0 22 22"><style>.st0{fill:#ED4744;} .st1{fill:#FFFFFF;}</style><path class="st0" d="M0 0h22v22H0z"/><path class="st1" d="M8.9 16.7c-1.5 0-2.6-1-2.6-2.1s1.3-2.1 2.9-2c.4 0 .7.1 1 .2.8.6 1.4.9 1.6 1.5v.4c0 1.1-.8 2-2.9 2m.4-6.7c-1 0-2-1.1-2.1-2.5-.2-1.3.5-2.3 1.5-2.3s2 1.1 2.1 2.4c.2 1.3-.5 2.4-1.5 2.4m2.1 1.9c-.4-.3-1-.9-1-1.2 0-.4.1-.6.8-1.1.6-.5 1.1-1.2 1.1-2 0-1-.4-1.9-1.3-2.3h1.2l.9-.6H9.2C7.4 4.6 5.8 6 5.8 7.5c0 1.6 1.2 2.8 3 2.8h.4c-.1.2-.2.5-.2.7 0 .4.2.8.5 1.1h-.7c-2.2 0-3.9 1.4-3.9 2.8s1.8 2.3 4 2.3c2.5 0 3.9-1.4 3.9-2.8 0-1.1-.4-1.7-1.4-2.5m5.7-1.8h-1.5V8.6h-1.2v1.5h-1.5v1.2h1.5v1.5h1.2v-1.5h1.5v-1.2z"/></svg>