<svg id="Layer_1" xmlns="http://www.w3.org/2000/svg" viewBox="0 0 22 22"><style>.st0{fill:#65CAEC;} .st1{fill:#FFFFFF;}</style><path class="st0" d="M0 0h22v22H0z"/><path class="st1" d="M17.3 7.6c-.5.2-1 .3-1.5.4.5-.3.9-.8 1.1-1.4-.5.3-1.1.5-1.7.6-.5-.5-1.1-.8-1.9-.8-1.4 0-2.6 1.2-2.6 2.6 0 .2 0 .4.1.6-2-.1-4-1.2-5.2-2.7-.3.3-.4.8-.4 1.3 0 .9.5 1.7 1.2 2.2-.4 0-.8-.1-1.2-.3 0 1.3.9 2.3 2.1 2.5-.2.1-.4.1-.7.1h-.5c.3 1 1.3 1.8 2.4 1.8-.9.7-2 1.1-3.2 1.1h-.6c1.2.7 2.5 1.2 4 1.2 4.8 0 7.4-4 7.4-7.4v-.3c.5-.5.9-1 1.2-1.5"/></svg>