<svg id="Layer_1" xmlns="http://www.w3.org/2000/svg" viewBox="0 0 22 22"><style>.st0{fill:#EC6A52;} .st1{fill:#FFFFFF;}</style><path class="st0" d="M0 0h22v22H0z"/><path class="st1" d="M15.1 5.1v3.3c-.1.1-.2.2-.3.2-.1.1-.2.1-.3.1-.1 0-.2 0-.2-.1-.1-.1-.1-.1-.1-.2V5.1h-1v3.7c0 .3.1.5.2.6.1.1.3.2.5.2s.4 0 .6-.1c.3-.2.5-.3.6-.5v.5h1V5.1h-1zm-3.1.2c-.3-.2-.6-.3-1.1-.3-.5 0-.8.1-1.1.3-.3.2-.4.5-.4.8v2.3c0 .4.1.7.4.9.3.2.6.3 1.1.3.5 0 .8-.1 1.1-.3.3-.2.4-.5.4-.9V6.1c0-.3-.1-.6-.4-.8zm-.7 3.2c0 .1 0 .2-.1.3-.1.1-.2.1-.3.1-.1 0-.2 0-.3-.1-.1-.1-.1-.2-.1-.3V6.1c0-.1 0-.2.1-.2.1-.1.2-.1.3-.1.1 0 .2 0 .3.1.1.1.1.1.1.2v2.4zm-3.2-5l-.7 2.4h-.1l-.7-2.4H5.4l1.4 3.6v2.4H8V7l1.3-3.5H8.1zM16.2 14c.1.1.1.2.1.4v.4h-.8v-.4c0-.2 0-.3.1-.4.1-.1.2-.1.3-.1.1 0 .2 0 .3.1zM13 14c-.1-.1-.2-.1-.3-.1h-.2c-.1 0-.1.1-.2.1v2.5c.1.1.2.1.2.1h.2c.1 0 .2 0 .3-.1.1-.1.1-.1.1-.3v-2.1c0 .1 0 0-.1-.1zm0 0c-.1-.1-.2-.1-.3-.1h-.2c-.1 0-.1.1-.2.1v2.5c.1.1.2.1.2.1h.2c.1 0 .2 0 .3-.1.1-.1.1-.1.1-.3v-2.1c0 .1 0 0-.1-.1zm3.6-3.1H5.4c-1.4 0-2.5 1.1-2.5 2.5V16c0 1.4 1.1 2.5 2.5 2.5h11.2c1.4 0 2.5-1.1 2.5-2.5v-2.5c0-1.5-1.1-2.6-2.5-2.6zm-8.9 1.8H6.6v4.6h-1v-4.6H4.5v-.8h3.2v.8zm3 4.6h-.9v-.4c-.2.2-.3.3-.5.4-.2.1-.4.1-.5.1-.2 0-.4-.1-.5-.2-.1-.1-.2-.3-.2-.5v-3.3H9v3.1c0 .1 0 .2.1.2 0 0 .1.1.2.1s.2 0 .3-.1c.1-.1.2-.1.3-.2v-3h.9v3.8zm3.3-.8c0 .3-.1.5-.2.7-.1.1-.4.2-.6.2-.2 0-.3 0-.5-.1-.1-.1-.3-.2-.4-.3v.3h-.9v-5.4h.9v1.7c.1-.1.3-.2.4-.3.1-.1.3-.1.4-.1.3 0 .5.1.7.3.2.2.2.4.2.7v2.3zm3.2-1.1h-1.8v.7c0 .2 0 .4.1.4.1.1.2.1.3.1.2 0 .3 0 .3-.1.1-.1.1-.2.1-.4V16h1v.2c0 .4-.1.7-.4.9-.2.2-.6.3-1 .3s-.7-.1-1-.3c-.2-.2-.4-.5-.4-.9v-1.8c0-.3.1-.6.4-.8.3-.2.6-.3 1-.3s.7.1 1 .3c.2.2.3.5.3.9v.9zm-4.5-1.5h-.2c-.1 0-.1.1-.2.1v2.5c.1.1.2.1.2.1h.2c.1 0 .2 0 .3-.1.1-.1.1-.1.1-.3v-2.1c0-.1 0-.2-.1-.3-.1.1-.2.1-.3.1zm.3.1c-.1-.1-.2-.1-.3-.1h-.2c-.1 0-.1.1-.2.1v2.5c.1.1.2.1.2.1h.2c.1 0 .2 0 .3-.1.1-.1.1-.1.1-.3v-2.1c0 .1 0 0-.1-.1zm0 0c-.1-.1-.2-.1-.3-.1h-.2c-.1 0-.1.1-.2.1v2.5c.1.1.2.1.2.1h.2c.1 0 .2 0 .3-.1.1-.1.1-.1.1-.3v-2.1c0 .1 0 0-.1-.1z"/></svg>