<?xml version="1.0" encoding="utf-8"?>
<!-- Generator: Adobe Illustrator 19.1.0, SVG Export Plug-In . SVG Version: 6.00 Build 0)  -->
<svg version="1.1" id="Layer_1" xmlns="http://www.w3.org/2000/svg" xmlns:xlink="http://www.w3.org/1999/xlink" x="0px" y="0px"
	 viewBox="0 0 22 22" style="enable-background:new 0 0 22 22;" xml:space="preserve">
<metadata><?xpacket begin="﻿" id="W5M0MpCehiHzreSzNTczkc9d"?>
<x:xmpmeta xmlns:x="adobe:ns:meta/" x:xmptk="Adobe XMP Core 5.6-c067 79.157747, 2015/03/30-23:40:42        ">
   <rdf:RDF xmlns:rdf="http://www.w3.org/1999/02/22-rdf-syntax-ns#">
      <rdf:Description rdf:about=""/>
   </rdf:RDF>
</x:xmpmeta>
                                                                                                    
                                                                                                    
                                                                                                    
                                                                                                    
                                                                                                    
                                                                                                    
                                                                                                    
                                                                                                    
                                                                                                    
                                                                                                    
                                                                                                    
                                                                                                    
                                                                                                    
                                                                                                    
                                                                                                    
                                                                                                    
                                                                                                    
                                                                                                    
                                                                                                    
                                                                                                    
                           
<?xpacket end="w"?></metadata>
<style type="text/css">
	.st0{fill:#ED4744;}
	.st1{fill:#FFFFFF;}
</style>
<g>
	<rect x="0" y="0" class="st0" width="22" height="22"/>
	<path class="st1" d="M8.9,16.7c-1.5,0-2.6-1-2.6-2.1c0-1.1,1.3-2.1,2.9-2c0.4,0,0.7,0.1,1,0.2c0.8,0.6,1.4,0.9,1.6,1.5
		c0,0.1,0,0.3,0,0.4C11.8,15.8,11,16.7,8.9,16.7 M9.3,10c-1,0-2-1.1-2.1-2.5C7,6.2,7.7,5.2,8.7,5.2c1,0,2,1.1,2.1,2.4
		C11,8.9,10.3,10,9.3,10 M11.4,11.9c-0.4-0.3-1-0.9-1-1.2c0-0.4,0.1-0.6,0.8-1.1c0.6-0.5,1.1-1.2,1.1-2c0-1-0.4-1.9-1.3-2.3h1.2
		l0.9-0.6H9.2C7.4,4.6,5.8,6,5.8,7.5c0,1.6,1.2,2.8,3,2.8c0.1,0,0.2,0,0.4,0c-0.1,0.2-0.2,0.5-0.2,0.7c0,0.4,0.2,0.8,0.5,1.1
		c-0.2,0-0.4,0-0.7,0c-2.2,0-3.9,1.4-3.9,2.8c0,1.4,1.8,2.3,4,2.3c2.5,0,3.9-1.4,3.9-2.8C12.8,13.3,12.4,12.7,11.4,11.9 M17.1,10.1
		h-1.5V8.6h-1.2v1.5h-1.5v1.2h1.5v1.5h1.2v-1.5h1.5V10.1z"/>
</g>
</svg>
