<?xml version="1.0" encoding="utf-8"?>
<!-- Generator: Adobe Illustrator 19.1.0, SVG Export Plug-In . SVG Version: 6.00 Build 0)  -->
<svg version="1.1" id="Layer_1" xmlns="http://www.w3.org/2000/svg" xmlns:xlink="http://www.w3.org/1999/xlink" x="0px" y="0px"
	 viewBox="0 0 22 22" style="enable-background:new 0 0 22 22;" xml:space="preserve">
<metadata><?xpacket begin="﻿" id="W5M0MpCehiHzreSzNTczkc9d"?>
<x:xmpmeta xmlns:x="adobe:ns:meta/" x:xmptk="Adobe XMP Core 5.6-c067 79.157747, 2015/03/30-23:40:42        ">
   <rdf:RDF xmlns:rdf="http://www.w3.org/1999/02/22-rdf-syntax-ns#">
      <rdf:Description rdf:about=""/>
   </rdf:RDF>
</x:xmpmeta>
                                                                                                    
                                                                                                    
                                                                                                    
                                                                                                    
                                                                                                    
                                                                                                    
                                                                                                    
                                                                                                    
                                                                                                    
                                                                                                    
                                                                                                    
                                                                                                    
                                                                                                    
                                                                                                    
                                                                                                    
                                                                                                    
                                                                                                    
                                                                                                    
                                                                                                    
                                                                                                    
                           
<?xpacket end="w"?></metadata>
<style type="text/css">
	.st0{fill:#606465;}
	.st1{fill:#FFFFFF;}
</style>
<g>
	<rect x="0" y="0" class="st0" width="22" height="22"/>
	<path class="st1" d="M14.9,4.7H7.1c-1.3,0-2.4,1.1-2.4,2.4v2.6v5.2c0,1.3,1.1,2.4,2.4,2.4h7.8c1.3,0,2.4-1.1,2.4-2.4V9.7V7.1
		C17.3,5.8,16.2,4.7,14.9,4.7z M15.6,6.1l0.3,0v0.3v1.9l-2.1,0l0-2.1L15.6,6.1z M9.2,9.7c0.4-0.6,1.1-0.9,1.8-0.9s1.4,0.4,1.8,0.9
		c0.3,0.4,0.4,0.8,0.4,1.3c0,1.2-1,2.2-2.2,2.2s-2.2-1-2.2-2.2C8.8,10.5,8.9,10.1,9.2,9.7z M16.1,14.9c0,0.7-0.5,1.2-1.2,1.2H7.1
		c-0.7,0-1.2-0.5-1.2-1.2V9.7h1.9c-0.2,0.4-0.3,0.8-0.3,1.3c0,1.9,1.6,3.5,3.5,3.5c1.9,0,3.5-1.6,3.5-3.5c0-0.5-0.1-0.9-0.3-1.3h1.9
		V14.9z"/>
</g>
</svg>
