<?xml version="1.0" encoding="utf-8"?>
<!-- Generator: Adobe Illustrator 19.1.0, SVG Export Plug-In . SVG Version: 6.00 Build 0)  -->
<svg version="1.1" id="Layer_1" xmlns="http://www.w3.org/2000/svg" xmlns:xlink="http://www.w3.org/1999/xlink" x="0px" y="0px"
	 viewBox="0 0 63 24" style="enable-background:new 0 0 63 24;" xml:space="preserve">
<metadata><?xpacket begin="﻿" id="W5M0MpCehiHzreSzNTczkc9d"?>
<x:xmpmeta xmlns:x="adobe:ns:meta/" x:xmptk="Adobe XMP Core 5.6-c067 79.157747, 2015/03/30-23:40:42        ">
   <rdf:RDF xmlns:rdf="http://www.w3.org/1999/02/22-rdf-syntax-ns#">
      <rdf:Description rdf:about=""/>
   </rdf:RDF>
</x:xmpmeta>
                                                                                                    
                                                                                                    
                                                                                                    
                                                                                                    
                                                                                                    
                                                                                                    
                                                                                                    
                                                                                                    
                                                                                                    
                                                                                                    
                                                                                                    
                                                                                                    
                                                                                                    
                                                                                                    
                                                                                                    
                                                                                                    
                                                                                                    
                                                                                                    
                                                                                                    
                                                                                                    
                           
<?xpacket end="w"?></metadata>
<style type="text/css">
	.st0{fill:#B7DEF4;}
	.st1{fill:#015287;}
</style>
<g>
	<path class="st0" d="M29.4,4.9c-1.5,0.5-2.7,1.5-3.6,2.8c-0.8,1.2-1.1,2.5-1.1,4c0.1,1.5,0.6,2.9,1.5,4.1c1,1.2,2.2,2,3.7,2.4
		c-0.1,0.2-0.2,0.4-0.4,0.6c-0.4,0.6-0.8,1.1-1.2,1.6c-0.6,0.7-1.3,1.3-2.1,1.9c-1,0.7-2.1,1.2-3.2,1.4c-0.5,0.1-1,0.2-1.4,0.2
		c-0.4,0-0.7,0.1-1.1,0.1c-3.3,0-6.6,0-9.9,0c-0.9,0-1.7-0.1-2.6-0.4c-1.1-0.3-2.1-0.8-3-1.4c-0.4-0.3-0.8-0.6-1.2-1
		c-0.6-0.6-1.2-1.2-1.7-2c-0.5-0.8-0.9-1.6-1.3-2.5c-0.3-0.7-0.5-1.5-0.6-2.2C0.2,14,0.1,13.4,0,12.9C0,12.6,0,12.3,0,12
		c0-0.5,0.1-1,0.1-1.5c0.1-0.9,0.3-1.8,0.6-2.7c0.4-1.3,1.1-2.6,1.9-3.7c0.4-0.5,0.8-1,1.3-1.4C4.7,2,5.6,1.4,6.6,0.9
		c0.8-0.4,1.7-0.7,2.6-0.8c0.4-0.1,0.8-0.1,1.2-0.1c0.4,0,0.8,0,1.2,0c3,0,6,0,9.1,0c1.4,0,2.7,0.3,4,0.9c0.9,0.4,1.7,0.9,2.5,1.5
		C28,3.1,28.7,3.9,29.4,4.9C29.3,4.9,29.3,4.9,29.4,4.9z M14.5,12.4c0-0.5,0-1,0-1.5c0,0,0.1,0,0.1,0c1,0,2.1,0,3.1,0
		c0.4,0,0.8-0.3,0.9-0.7c0.2-0.6-0.3-1.3-0.9-1.2c-1,0-2,0-3,0c-0.1,0-0.1,0-0.2,0c0-0.1,0-0.1,0-0.2c0-0.6,0-1.2,0-1.8
		c0-0.6-0.5-1.1-1.1-1.1c-0.6,0-1.1,0.5-1.1,1.1c0,2.1,0,4.2,0,6.3c0,0.2,0.1,0.4,0.1,0.5c0.2,0.4,0.6,0.6,1,0.6c1.8,0,3.6,0,5.4,0
		c0.1,0,0.2,0,0.2,0.1c0.8,1.2,1.5,2.3,2.3,3.5c0.3,0.4,0.7,0.5,1.1,0.3c0.6-0.3,1.1-0.6,1.7-0.9c0.3-0.2,0.5-0.6,0.3-0.9
		c-0.2-0.3-0.6-0.4-0.9-0.3c-0.1,0.1-0.2,0.1-0.3,0.2c-0.2,0.1-0.5,0.3-0.7,0.4c0-0.1-0.1-0.1-0.1-0.1c-0.8-1.2-1.6-2.5-2.4-3.7
		c-0.2-0.3-0.5-0.5-0.9-0.5c-1.5,0-3,0-4.5,0C14.7,12.4,14.6,12.4,14.5,12.4z M6.5,14.7c0,1.1,0.2,2.2,0.7,3.1
		c1.1,2.2,3.4,3.5,5.8,3.3c1.4-0.1,2.6-0.6,3.6-1.6c0.9-0.8,1.4-1.7,1.8-2.8c0.2-0.5-0.1-1-0.5-1.1c-0.5-0.2-0.9,0.1-1.1,0.6
		c-0.3,0.8-0.7,1.5-1.3,2c-1.7,1.5-4.2,1.4-5.8-0.2c-1.1-1.1-1.6-2.5-1.3-4.1c0.3-1.4,1-2.5,2.3-3.2c0.4-0.2,0.6-0.6,0.5-1
		C11.1,9.1,10.5,8.8,10,9c-0.6,0.3-1.2,0.7-1.6,1.2C7.1,11.5,6.6,13,6.5,14.7z M15,3.6c0-0.8-0.7-1.5-1.5-1.5
		c-0.8,0-1.5,0.7-1.5,1.5c0,0.8,0.7,1.5,1.5,1.5C14.3,5.1,15,4.4,15,3.6z"/>
	<path class="st0" d="M33,18.2c3-0.9,4.8-2.7,5.3-5.8c0.2-1.1,0.1-2.1-0.3-3.2c-0.4-1-0.9-1.9-1.7-2.7c-0.8-0.8-1.7-1.3-2.8-1.7
		c0.1-0.2,0.3-0.4,0.4-0.6c0.4-0.5,0.8-0.9,1.2-1.4c0.7-0.7,1.4-1.2,2.2-1.7c0.9-0.5,1.8-0.8,2.8-1c0.4-0.1,0.8-0.1,1.3-0.2
		c0.4,0,0.9,0,1.3,0c3.1,0,6.1,0,9.2,0c0.9,0,1.7,0.1,2.6,0.3c1,0.3,1.9,0.7,2.8,1.2c0.8,0.5,1.6,1.2,2.3,1.9
		c0.7,0.7,1.2,1.5,1.7,2.4c0.6,1,1,2.1,1.2,3.3c0.1,0.5,0.2,0.9,0.2,1.4c0.1,0.8,0.1,1.5,0.1,2.3c0,0.5-0.1,1.1-0.2,1.6
		c-0.1,0.6-0.3,1.3-0.5,1.9c-0.4,1.3-1,2.4-1.8,3.5c-0.3,0.4-0.6,0.7-0.9,1c-0.9,1-1.9,1.7-3.1,2.3c-0.8,0.4-1.7,0.7-2.6,0.8
		c-0.4,0.1-0.9,0.1-1.3,0.1c-0.3,0-0.7,0-1,0c-3.1,0-6.2,0-9.3,0c-0.9,0-1.8-0.2-2.7-0.4c-1-0.3-2-0.8-2.9-1.5
		c-0.6-0.4-1.2-1-1.7-1.5C34,19.9,33.5,19.1,33,18.2C33,18.3,33,18.2,33,18.2z M47.8,15c2.1,0,4.2,0,6.2,0c0.2,0,0.2,0,0.2-0.2
		c0,0,0-0.1,0-0.1c0-3.9,0-7.8,0-11.6c0-0.1,0-0.1,0-0.2c0-0.2,0-0.2-0.2-0.2c-4.2,0-8.3,0-12.5,0c-0.2,0-0.2,0-0.2,0.2
		c0,4,0,7.9,0,11.9c0,0.2,0,0.2,0.2,0.2C43.6,15,45.7,15,47.8,15z M47.8,15.7c-2.2,0-4.4,0-6.5,0c-0.2,0-0.2,0-0.2,0.2
		c0,1.6,0,3.1,0,4.7c0,0.2,0,0.3,0.3,0.3c4.3,0,8.7,0,13,0c0.2,0,0.3,0,0.3-0.3c0-1.6,0-3.1,0-4.7c0-0.2,0-0.3-0.3-0.3
		C52.1,15.7,49.9,15.7,47.8,15.7z"/>
	<path class="st1" d="M30.2,17c0-3.7,0-7.4,0-11.1c1.8,1.8,3.7,3.7,5.5,5.6C33.9,13.3,32,15.2,30.2,17z"/>
	<path class="st1" d="M62.8,23.8c-0.1,0-0.2,0-0.3,0c0-0.5,0-1,0-1.5c0,0,0,0,0,0c-0.2,0.5-0.3,1-0.5,1.5c-0.1,0-0.2,0-0.3,0
		c-0.2-0.5-0.3-1-0.5-1.5c0,0,0,0,0,0c0,0.5,0,1,0,1.5c-0.1,0-0.2,0-0.3,0c0-0.7,0-1.3,0-2c0.2,0,0.3,0,0.4,0c0,0,0.1,0.1,0.1,0.1
		c0.2,0.4,0.3,0.9,0.5,1.4c0.1-0.3,0.2-0.5,0.2-0.8c0.1-0.2,0.1-0.4,0.2-0.6c0-0.1,0.1-0.1,0.1-0.1c0.1,0,0.3,0,0.4,0
		C62.8,22.5,62.8,23.2,62.8,23.8z"/>
	<path class="st1" d="M59.7,22.1c-0.2,0-0.4,0-0.5,0c0-0.1,0-0.2,0-0.2c0.5,0,0.9,0,1.4,0c0,0.1,0,0.2,0,0.2c-0.2,0-0.3,0-0.5,0
		c0,0.6,0,1.2,0,1.7c-0.1,0-0.2,0-0.3,0C59.7,23.3,59.7,22.7,59.7,22.1z"/>
	<path class="st1" d="M14.5,12.4c0.1,0,0.1,0,0.2,0c1.5,0,3,0,4.5,0c0.4,0,0.7,0.1,0.9,0.5c0.8,1.2,1.6,2.5,2.4,3.7
		c0,0,0.1,0.1,0.1,0.1c0.2-0.1,0.5-0.3,0.7-0.4c0.1-0.1,0.2-0.1,0.3-0.2c0.3-0.2,0.7,0,0.9,0.3c0.2,0.3,0.1,0.7-0.3,0.9
		c-0.6,0.3-1.1,0.6-1.7,0.9c-0.4,0.2-0.8,0.1-1.1-0.3c-0.8-1.2-1.5-2.3-2.3-3.5c-0.1-0.1-0.1-0.1-0.2-0.1c-1.8,0-3.6,0-5.4,0
		c-0.4,0-0.8-0.2-1-0.6c-0.1-0.2-0.1-0.4-0.1-0.5c0-2.1,0-4.2,0-6.3c0-0.6,0.5-1.1,1.1-1.1c0.6,0,1.1,0.5,1.1,1.1c0,0.6,0,1.2,0,1.8
		c0,0,0,0.1,0,0.2c0.1,0,0.1,0,0.2,0c1,0,2,0,3,0c0.7,0,1.1,0.6,0.9,1.2c-0.1,0.4-0.4,0.7-0.9,0.7c-1,0-2.1,0-3.1,0c0,0-0.1,0-0.1,0
		C14.5,11.4,14.5,11.9,14.5,12.4z"/>
	<path class="st1" d="M6.5,14.7c0-1.7,0.6-3.2,1.8-4.5C8.8,9.7,9.4,9.3,10,9c0.5-0.2,1.1,0.1,1.2,0.7c0.1,0.4-0.1,0.8-0.5,1
		c-1.3,0.7-2,1.8-2.3,3.2c-0.3,1.6,0.1,3,1.3,4.1c1.7,1.7,4.1,1.7,5.8,0.2c0.6-0.5,1.1-1.2,1.3-2c0.2-0.5,0.6-0.7,1.1-0.6
		c0.5,0.2,0.7,0.7,0.5,1.1c-0.4,1.1-0.9,2-1.8,2.8c-1,0.9-2.2,1.5-3.6,1.6c-2.4,0.2-4.7-1.2-5.8-3.3C6.8,16.8,6.5,15.8,6.5,14.7z"/>
	<path class="st1" d="M15,3.6c0,0.8-0.7,1.5-1.5,1.5c-0.8,0-1.5-0.7-1.5-1.5c0-0.8,0.7-1.5,1.5-1.5C14.3,2.1,15,2.8,15,3.6z"/>
	<path class="st1" d="M47.8,15c-2.1,0-4.2,0-6.2,0c-0.2,0-0.2,0-0.2-0.2c0-4,0-7.9,0-11.9c0-0.2,0-0.2,0.2-0.2c4.2,0,8.3,0,12.5,0
		c0.2,0,0.2,0,0.2,0.2c0,0.1,0,0.1,0,0.2c0,3.9,0,7.8,0,11.6c0,0,0,0.1,0,0.1c0,0.2,0,0.2-0.2,0.2C51.9,15,49.8,15,47.8,15z
		 M47.8,4.5c-1.5,0-3,0-4.6,0c-0.2,0-0.2,0-0.2,0.2c0,2.6,0,5.3,0,7.9c0,0.2,0,0.2,0.2,0.2c3,0,6.1,0,9.1,0c0.2,0,0.2,0,0.2-0.2
		c0-2.6,0-5.3,0-7.9c0-0.2,0-0.2-0.2-0.2C50.8,4.5,49.3,4.5,47.8,4.5z"/>
	<path class="st1" d="M47.8,15.7c2.2,0,4.4,0,6.5,0c0.2,0,0.3,0,0.3,0.3c0,1.6,0,3.1,0,4.7c0,0.2,0,0.3-0.3,0.3c-4.3,0-8.7,0-13,0
		c-0.2,0-0.3,0-0.3-0.3c0-1.6,0-3.1,0-4.7c0-0.2,0-0.2,0.2-0.2C43.4,15.7,45.6,15.7,47.8,15.7z M44.5,19.2c0,0.2,0,0.4,0,0.6
		c0,0.1,0.1,0.2,0.2,0.2c0.4,0,0.8,0,1.2,0c0.1,0,0.2-0.1,0.2-0.2c0-0.4,0-0.8,0-1.2c0-0.1-0.1-0.2-0.2-0.2c-0.4,0-0.8,0-1.2,0
		c-0.1,0-0.2,0.1-0.2,0.2C44.5,18.8,44.5,19,44.5,19.2z M42,19.3c0,0.2,0,0.4,0,0.6c0,0.1,0,0.2,0.2,0.2c0.4,0,0.8,0,1.2,0
		c0.1,0,0.2,0,0.2-0.2c0-0.4,0-0.8,0-1.2c0-0.1-0.1-0.2-0.2-0.2c-0.4,0-0.8,0-1.2,0c-0.1,0-0.2,0-0.2,0.2C42,18.9,42,19.1,42,19.3z
		 M48.6,19.3c0-0.2,0-0.4,0-0.6c0-0.2,0-0.2-0.2-0.2c-0.4,0-0.8,0-1.2,0c-0.2,0-0.2,0-0.2,0.2c0,0.4,0,0.8,0,1.2
		c0,0.2,0,0.2,0.2,0.2c0.4,0,0.8,0,1.2,0c0.1,0,0.2,0,0.2-0.2C48.6,19.7,48.6,19.5,48.6,19.3z M51,19.3c0-0.2,0-0.4,0-0.6
		c0-0.1,0-0.2-0.2-0.2c-0.4,0-0.8,0-1.2,0c-0.1,0-0.2,0-0.2,0.2c0,0.4,0,0.8,0,1.2c0,0.1,0.1,0.2,0.2,0.2c0.4,0,0.8,0,1.2,0
		c0.1,0,0.2,0,0.2-0.2C51,19.7,51,19.5,51,19.3z M51.9,19.3c0,0.2,0,0.4,0,0.6c0,0.1,0.1,0.2,0.2,0.2c0.4,0,0.8,0,1.2,0
		c0.1,0,0.2-0.1,0.2-0.2c0-0.4,0-0.8,0-1.2c0-0.1-0.1-0.2-0.2-0.2c-0.4,0-0.8,0-1.2,0c-0.1,0-0.2,0-0.2,0.2
		C51.9,18.8,51.9,19.1,51.9,19.3z M44.1,18c0.2,0,0.4,0,0.6,0c0.1,0,0.2-0.1,0.2-0.2c0-0.4,0-0.8,0-1.2c0-0.1-0.1-0.2-0.2-0.2
		c-0.4,0-0.8,0-1.2,0c-0.1,0-0.2,0.1-0.2,0.2c0,0.4,0,0.8,0,1.2c0,0.1,0.1,0.2,0.2,0.2C43.7,18,43.9,18,44.1,18z M46.6,18
		c0.2,0,0.4,0,0.6,0c0.1,0,0.2,0,0.2-0.2c0-0.4,0-0.8,0-1.2c0-0.1,0-0.2-0.2-0.2c-0.4,0-0.8,0-1.2,0c-0.1,0-0.2,0-0.2,0.2
		c0,0.4,0,0.8,0,1.2c0,0.1,0,0.2,0.2,0.2C46.2,18,46.4,18,46.6,18z M51.5,18c0.2,0,0.4,0,0.6,0c0.1,0,0.2-0.1,0.2-0.2
		c0-0.4,0-0.8,0-1.3c0-0.1-0.1-0.2-0.2-0.2c-0.4,0-0.8,0-1.3,0c-0.1,0-0.2,0-0.2,0.2c0,0.4,0,0.8,0,1.3c0,0.1,0.1,0.2,0.2,0.2
		C51.1,18,51.3,18,51.5,18z M49.1,16.4c-0.2,0-0.4,0-0.6,0c-0.2,0-0.2,0-0.2,0.2c0,0.4,0,0.8,0,1.2c0,0.2,0,0.2,0.2,0.2
		c0.4,0,0.8,0,1.2,0c0.1,0,0.2,0,0.2-0.2c0-0.4,0-0.8,0-1.2c0-0.1-0.1-0.2-0.2-0.2C49.5,16.4,49.3,16.4,49.1,16.4z"/>
	<path class="st0" d="M47.8,4.5c1.5,0,3,0,4.6,0c0.2,0,0.2,0,0.2,0.2c0,2.6,0,5.3,0,7.9c0,0.2,0,0.2-0.2,0.2c-3,0-6.1,0-9.1,0
		c-0.2,0-0.2,0-0.2-0.2c0-2.6,0-5.3,0-7.9c0-0.2,0-0.2,0.2-0.2C44.7,4.5,46.3,4.5,47.8,4.5z"/>
	<path class="st0" d="M44.5,19.2c0-0.2,0-0.4,0-0.6c0-0.1,0-0.2,0.2-0.2c0.4,0,0.8,0,1.2,0c0.1,0,0.2,0.1,0.2,0.2c0,0.4,0,0.8,0,1.2
		c0,0.1-0.1,0.2-0.2,0.2c-0.4,0-0.8,0-1.2,0c-0.1,0-0.2-0.1-0.2-0.2C44.5,19.7,44.5,19.5,44.5,19.2z"/>
	<path class="st0" d="M42,19.3c0-0.2,0-0.4,0-0.6c0-0.1,0-0.2,0.2-0.2c0.4,0,0.8,0,1.2,0c0.1,0,0.2,0,0.2,0.2c0,0.4,0,0.8,0,1.2
		c0,0.1-0.1,0.2-0.2,0.2c-0.4,0-0.8,0-1.2,0c-0.1,0-0.2,0-0.2-0.2C42,19.7,42,19.5,42,19.3z"/>
	<path class="st0" d="M48.6,19.3c0,0.2,0,0.4,0,0.6c0,0.2,0,0.2-0.2,0.2c-0.4,0-0.8,0-1.2,0c-0.1,0-0.2,0-0.2-0.2c0-0.4,0-0.8,0-1.2
		c0-0.2,0-0.2,0.2-0.2c0.4,0,0.8,0,1.2,0c0.2,0,0.2,0,0.2,0.2C48.6,18.9,48.6,19.1,48.6,19.3z"/>
	<path class="st0" d="M51,19.3c0,0.2,0,0.4,0,0.6c0,0.1,0,0.2-0.2,0.2c-0.4,0-0.8,0-1.2,0c-0.1,0-0.2,0-0.2-0.2c0-0.4,0-0.8,0-1.2
		c0-0.1,0-0.2,0.2-0.2c0.4,0,0.8,0,1.2,0c0.1,0,0.2,0,0.2,0.2C51,18.9,51,19.1,51,19.3z"/>
	<path class="st0" d="M51.9,19.3c0-0.2,0-0.4,0-0.6c0-0.1,0-0.2,0.2-0.2c0.4,0,0.8,0,1.2,0c0.1,0,0.2,0.1,0.2,0.2c0,0.4,0,0.8,0,1.2
		c0,0.1-0.1,0.2-0.2,0.2c-0.4,0-0.8,0-1.2,0c-0.1,0-0.2-0.1-0.2-0.2C51.9,19.7,51.9,19.5,51.9,19.3z"/>
	<path class="st0" d="M44.1,18c-0.2,0-0.4,0-0.6,0c-0.1,0-0.2-0.1-0.2-0.2c0-0.4,0-0.8,0-1.2c0-0.1,0.1-0.2,0.2-0.2
		c0.4,0,0.8,0,1.2,0c0.1,0,0.2,0.1,0.2,0.2c0,0.4,0,0.8,0,1.2c0,0.1-0.1,0.2-0.2,0.2C44.5,18,44.3,18,44.1,18z"/>
	<path class="st0" d="M46.6,18c-0.2,0-0.4,0-0.6,0c-0.1,0-0.2,0-0.2-0.2c0-0.4,0-0.8,0-1.2c0-0.1,0-0.2,0.2-0.2c0.4,0,0.8,0,1.2,0
		c0.1,0,0.2,0,0.2,0.2c0,0.4,0,0.8,0,1.2c0,0.1,0,0.2-0.2,0.2C47,18,46.8,18,46.6,18z"/>
	<path class="st0" d="M51.5,18c-0.2,0-0.4,0-0.6,0c-0.1,0-0.2-0.1-0.2-0.2c0-0.4,0-0.8,0-1.3c0-0.1,0.1-0.2,0.2-0.2
		c0.4,0,0.8,0,1.3,0c0.1,0,0.2,0.1,0.2,0.2c0,0.4,0,0.8,0,1.3c0,0.1-0.1,0.2-0.2,0.2C52,18,51.8,18,51.5,18z"/>
	<path class="st0" d="M49.1,16.4c0.2,0,0.4,0,0.6,0c0.1,0,0.2,0.1,0.2,0.2c0,0.4,0,0.8,0,1.2c0,0.1,0,0.2-0.2,0.2
		c-0.4,0-0.8,0-1.2,0c-0.2,0-0.2,0-0.2-0.2c0-0.4,0-0.8,0-1.2c0-0.2,0-0.2,0.2-0.2C48.7,16.4,48.9,16.4,49.1,16.4z"/>
</g>
</svg>
