<?xml version="1.0" encoding="utf-8"?>
<!-- Generator: Adobe Illustrator 19.1.0, SVG Export Plug-In . SVG Version: 6.00 Build 0)  -->
<svg version="1.1" id="Layer_1" xmlns="http://www.w3.org/2000/svg" xmlns:xlink="http://www.w3.org/1999/xlink" x="0px" y="0px"
	 viewBox="0 0 147 56" style="enable-background:new 0 0 147 56;" xml:space="preserve">
<metadata><?xpacket begin="﻿" id="W5M0MpCehiHzreSzNTczkc9d"?>
<x:xmpmeta xmlns:x="adobe:ns:meta/" x:xmptk="Adobe XMP Core 5.6-c067 79.157747, 2015/03/30-23:40:42        ">
   <rdf:RDF xmlns:rdf="http://www.w3.org/1999/02/22-rdf-syntax-ns#">
      <rdf:Description rdf:about=""/>
   </rdf:RDF>
</x:xmpmeta>
                                                                                                    
                                                                                                    
                                                                                                    
                                                                                                    
                                                                                                    
                                                                                                    
                                                                                                    
                                                                                                    
                                                                                                    
                                                                                                    
                                                                                                    
                                                                                                    
                                                                                                    
                                                                                                    
                                                                                                    
                                                                                                    
                                                                                                    
                                                                                                    
                                                                                                    
                                                                                                    
                           
<?xpacket end="w"?></metadata>
<style type="text/css">
	.st0{fill:#FFFFFF;}
	.st1{fill:#015287;}
</style>
<g>
	<path class="st0" d="M68.7,11.5c-3.6,1.2-6.4,3.4-8.4,6.6c-1.8,2.8-2.7,5.9-2.5,9.2c0.1,3.6,1.3,6.8,3.6,9.6
		c2.3,2.8,5.2,4.6,8.7,5.5c-0.3,0.5-0.6,1-0.9,1.5c-0.8,1.4-1.8,2.6-2.9,3.8c-1.5,1.6-3.1,3.1-4.9,4.3c-2.3,1.6-4.8,2.7-7.5,3.3
		c-1.1,0.3-2.2,0.4-3.4,0.5c-0.9,0.1-1.8,0.1-2.6,0.1c-7.7,0-15.4,0-23.1,0c-2.1,0-4.1-0.3-6.1-0.9c-2.5-0.7-4.8-1.8-6.9-3.4
		c-1-0.7-1.9-1.5-2.8-2.3C7.4,48,6.2,46.4,5,44.8C3.8,43,2.8,41.1,2,39c-0.7-1.7-1.2-3.4-1.5-5.2c-0.2-1.2-0.3-2.5-0.5-3.8
		C0,29.4,0,28.7,0,28c0-1.2,0.1-2.3,0.2-3.5c0.2-2.1,0.7-4.2,1.3-6.2c1-3.1,2.6-6,4.6-8.6C7,8.5,8,7.4,9.1,6.4
		c1.9-1.7,4-3.2,6.3-4.3c2-0.9,4-1.6,6.2-1.8c1-0.1,1.9-0.2,2.9-0.2C25.4,0,26.3,0,27.2,0c7.1,0,14.1,0,21.2,0c3.2,0,6.4,0.7,9.3,2
		c2.1,0.9,4,2.1,5.8,3.6c2,1.6,3.7,3.5,5.1,5.7C68.6,11.3,68.6,11.4,68.7,11.5z M34,28.8c0-1.2,0-2.4,0-3.5c0.1,0,0.2,0,0.3,0
		c2.4,0,4.9,0,7.3,0c1,0,1.8-0.7,2.1-1.6c0.4-1.4-0.6-2.9-2.2-2.9c-2.4,0.1-4.7,0-7.1,0c-0.1,0-0.2,0-0.4,0c0-0.1,0-0.3,0-0.4
		c0-1.4,0-2.8,0-4.2c0-1.4-1.1-2.5-2.5-2.5c-1.4,0-2.5,1.1-2.5,2.5c0,4.9,0,9.7,0,14.6c0,0.4,0.1,0.9,0.3,1.3
		c0.5,0.9,1.3,1.3,2.4,1.3c4.2,0,8.4,0,12.6,0c0.3,0,0.4,0.1,0.6,0.3c1.8,2.7,3.6,5.4,5.4,8.1c0.6,0.9,1.7,1.2,2.6,0.7
		c1.3-0.7,2.6-1.4,3.9-2.2c0.8-0.4,1.1-1.4,0.6-2.1c-0.4-0.7-1.3-1-2.1-0.6c-0.3,0.1-0.5,0.3-0.8,0.4c-0.5,0.3-1.1,0.6-1.6,0.9
		c-0.1-0.1-0.2-0.2-0.2-0.3c-1.9-2.9-3.8-5.8-5.7-8.6c-0.5-0.7-1.1-1.1-2-1.1c-3.5,0-7,0-10.5,0C34.3,28.8,34.2,28.8,34,28.8z
		 M15.3,34.2c0,2.7,0.6,5,1.7,7.2c2.6,5.1,8,8.2,13.6,7.8c3.2-0.2,6.1-1.5,8.5-3.7c2-1.8,3.3-4,4.2-6.6c0.4-1.1-0.2-2.3-1.3-2.7
		c-1.1-0.4-2.2,0.2-2.6,1.4c-0.6,1.9-1.6,3.5-3.1,4.8c-4.1,3.5-9.7,3.3-13.6-0.6c-2.7-2.6-3.6-5.9-3-9.6c0.6-3.3,2.4-5.8,5.4-7.4
		c0.9-0.5,1.3-1.3,1.1-2.3c-0.2-1.3-1.7-2.1-2.8-1.5c-1.4,0.7-2.7,1.7-3.8,2.8C16.7,26.8,15.3,30.3,15.3,34.2z M35.1,8.4
		c0-1.9-1.6-3.5-3.6-3.5c-2,0-3.6,1.6-3.6,3.5c0,2,1.6,3.5,3.6,3.5C33.5,11.9,35.1,10.3,35.1,8.4z"/>
	<path class="st0" d="M77.2,42.4c6.9-2,11.2-6.4,12.4-13.5c0.4-2.5,0.1-5-0.7-7.4c-0.8-2.4-2.1-4.5-4-6.3c-1.8-1.8-4-3-6.4-3.9
		c0.3-0.5,0.6-0.9,0.9-1.3c0.9-1.1,1.8-2.2,2.8-3.2C83.8,5.3,85.5,4,87.4,3c2-1.1,4.2-2,6.4-2.4c1-0.2,2-0.3,2.9-0.4
		c1-0.1,2-0.1,3-0.1c7.2,0,14.3,0,21.5,0c2,0,4,0.2,6,0.7c2.3,0.6,4.5,1.5,6.5,2.8c2,1.2,3.7,2.7,5.3,4.4c1.6,1.7,2.9,3.5,4,5.6
		c1.3,2.4,2.3,5,2.9,7.6c0.2,1.1,0.4,2.2,0.5,3.3c0.3,1.8,0.2,3.6,0.2,5.3c0,1.2-0.2,2.5-0.4,3.7c-0.3,1.5-0.7,2.9-1.1,4.4
		c-1,2.9-2.4,5.7-4.3,8.1c-0.6,0.9-1.4,1.7-2.1,2.4c-2.1,2.2-4.5,4-7.2,5.3c-1.9,0.9-3.9,1.6-6,1.9c-1,0.1-2,0.2-3,0.3
		c-0.8,0.1-1.6,0.1-2.5,0.1c-7.3,0-14.6,0-21.8,0c-2.2,0-4.3-0.4-6.3-1c-2.5-0.8-4.7-1.9-6.8-3.4c-1.5-1-2.8-2.2-4-3.5
		c-1.5-1.6-2.8-3.4-3.9-5.4C77.2,42.6,77.2,42.5,77.2,42.4z M111.8,34.9c4.9,0,9.7,0,14.6,0c0.4,0,0.5-0.1,0.5-0.5
		c0-0.1,0-0.1,0-0.2c0-9,0-18.1,0-27.1c0-0.1,0-0.2,0-0.4c0-0.4-0.1-0.5-0.5-0.5c-9.7,0-19.5,0-29.2,0c-0.5,0-0.5,0-0.5,0.5
		c0,9.2,0,18.5,0,27.7c0,0.5,0,0.5,0.5,0.5C102,34.9,106.9,34.9,111.8,34.9z M111.8,36.5c-5.1,0-10.2,0-15.3,0
		c-0.5,0-0.6,0.1-0.6,0.6c0,3.6,0,7.3,0,10.9c0,0.6,0.1,0.6,0.6,0.6c10.2,0,20.3,0,30.5,0c0.6,0,0.6-0.1,0.6-0.6c0-3.6,0-7.3,0-10.9
		c0-0.5-0.1-0.6-0.6-0.6C122,36.5,116.9,36.5,111.8,36.5z"/>
	<path class="st1" d="M70.6,39.7c0-8.7,0-17.4,0-25.9c4.3,4.3,8.6,8.6,12.9,12.9C79.3,31,74.9,35.4,70.6,39.7z"/>
	<path class="st1" d="M147,55.6c-0.3,0-0.5,0-0.7,0c0-1.1,0-2.3,0-3.4c0,0-0.1,0-0.1,0c-0.4,1.1-0.8,2.3-1.2,3.4c-0.2,0-0.4,0-0.6,0
		c-0.4-1.2-0.8-2.3-1.2-3.5c0,0,0,0,0,0c0,1.2,0,2.3,0,3.5c-0.3,0-0.5,0-0.7,0c0-1.5,0-3.1,0-4.6c0.4,0,0.7,0,1.1,0
		c0.1,0,0.2,0.1,0.2,0.2c0.4,1,0.7,2.1,1.1,3.2c0.2-0.6,0.4-1.2,0.6-1.8c0.2-0.5,0.3-1,0.5-1.5c0-0.2,0.1-0.2,0.3-0.2
		c0.3,0,0.6,0,1,0C147,52.5,147,54,147,55.6z"/>
	<path class="st1" d="M139.8,51.5c-0.4,0-0.9,0-1.3,0c0-0.2,0-0.4,0-0.6c1.1,0,2.2,0,3.3,0c0,0.2,0,0.4,0,0.6c-0.4,0-0.8,0-1.2,0
		c0,1.4,0,2.7,0,4c-0.3,0-0.5,0-0.8,0C139.8,54.2,139.8,52.9,139.8,51.5z"/>
	<path class="st1" d="M34,28.8c0.1,0,0.3,0,0.4,0c3.5,0,7,0,10.5,0c0.9,0,1.5,0.3,2,1.1c1.9,2.9,3.8,5.8,5.7,8.6
		c0.1,0.1,0.1,0.2,0.2,0.3c0.5-0.3,1.1-0.6,1.6-0.9c0.3-0.1,0.5-0.3,0.8-0.4c0.8-0.4,1.7-0.1,2.1,0.6c0.4,0.8,0.1,1.7-0.6,2.1
		c-1.3,0.7-2.6,1.5-3.9,2.2c-0.9,0.5-2,0.2-2.6-0.7c-1.8-2.7-3.6-5.4-5.4-8.1c-0.2-0.2-0.3-0.3-0.6-0.3c-4.2,0-8.4,0-12.6,0
		c-1,0-1.9-0.4-2.4-1.3c-0.2-0.4-0.3-0.8-0.3-1.3c0-4.9,0-9.7,0-14.6c0-1.4,1.1-2.5,2.5-2.5c1.4,0,2.5,1.1,2.5,2.5
		c0,1.4,0,2.8,0,4.2c0,0.1,0,0.2,0,0.4c0.2,0,0.3,0,0.4,0c2.4,0,4.7,0.1,7.1,0c1.5-0.1,2.5,1.4,2.2,2.9c-0.2,0.9-1.1,1.6-2.1,1.6
		c-2.4,0-4.9,0-7.3,0c-0.1,0-0.2,0-0.3,0C34,26.5,34,27.6,34,28.8z"/>
	<path class="st1" d="M15.3,34.2c0.1-3.9,1.4-7.4,4.3-10.4c1.1-1.2,2.4-2.1,3.8-2.8c1.1-0.6,2.6,0.2,2.8,1.5c0.2,1-0.3,1.8-1.1,2.3
		c-2.9,1.6-4.8,4.1-5.4,7.4c-0.7,3.7,0.3,7,3,9.6c3.9,3.9,9.6,4.1,13.6,0.6c1.5-1.3,2.5-2.9,3.1-4.8c0.4-1.1,1.5-1.7,2.6-1.4
		c1.1,0.4,1.6,1.6,1.3,2.7c-0.8,2.6-2.2,4.8-4.2,6.6c-2.4,2.2-5.2,3.4-8.5,3.7c-5.6,0.4-11-2.7-13.6-7.8
		C15.9,39.2,15.3,36.9,15.3,34.2z"/>
	<path class="st1" d="M35.1,8.4c0,1.9-1.6,3.5-3.6,3.5c-2,0-3.6-1.6-3.6-3.5c0-2,1.6-3.5,3.6-3.5C33.4,4.9,35.1,6.5,35.1,8.4z"/>
	<path class="st1" d="M111.8,34.9c-4.9,0-9.7,0-14.6,0c-0.5,0-0.5,0-0.5-0.5c0-9.2,0-18.5,0-27.7c0-0.5,0-0.5,0.5-0.5
		c9.7,0,19.5,0,29.2,0c0.4,0,0.5,0.1,0.5,0.5c0,0.1,0,0.2,0,0.4c0,9,0,18.1,0,27.1c0,0.1,0,0.1,0,0.2c0,0.5-0.1,0.5-0.5,0.5
		C121.5,34.9,116.6,34.9,111.8,34.9z M111.8,10.5c-3.6,0-7.1,0-10.7,0c-0.5,0-0.5,0-0.5,0.5c0,6.2,0,12.3,0,18.5
		c0,0.4,0,0.5,0.5,0.5c7.1,0,14.3,0,21.4,0c0.4,0,0.5,0,0.5-0.5c0-6.2,0-12.3,0-18.5c0-0.5,0-0.5-0.5-0.5
		C119,10.5,115.4,10.5,111.8,10.5z"/>
	<path class="st1" d="M111.8,36.5c5.1,0,10.2,0,15.3,0c0.5,0,0.6,0.1,0.6,0.6c0,3.6,0,7.3,0,10.9c0,0.5-0.1,0.6-0.6,0.6
		c-10.2,0-20.3,0-30.5,0c-0.6,0-0.6-0.1-0.6-0.6c0-3.6,0-7.3,0-10.9c0-0.5,0.1-0.6,0.6-0.6C101.5,36.5,106.6,36.5,111.8,36.5z
		 M104.1,44.9c0,0.5,0,1,0,1.5c0,0.3,0.1,0.4,0.4,0.4c1,0,1.9,0,2.9,0c0.3,0,0.4-0.1,0.4-0.4c0-1,0-1.9,0-2.9c0-0.3-0.1-0.4-0.4-0.4
		c-1,0-1.9,0-2.9,0c-0.3,0-0.4,0.1-0.4,0.4C104.1,44,104.1,44.4,104.1,44.9z M98.3,44.9c0,0.5,0,1,0,1.4c0,0.3,0.1,0.4,0.4,0.4
		c0.9,0,1.9,0,2.8,0c0.3,0,0.4-0.1,0.4-0.4c0-1,0-1.9,0-2.9c0-0.3-0.1-0.4-0.4-0.4c-0.9,0-1.9,0-2.8,0c-0.3,0-0.4,0.1-0.4,0.5
		C98.3,44,98.3,44.4,98.3,44.9z M113.6,44.9c0-0.5,0-0.9,0-1.4c0-0.4-0.1-0.5-0.5-0.5c-0.9,0-1.8,0-2.7,0c-0.4,0-0.5,0.1-0.5,0.5
		c0,0.9,0,1.9,0,2.8c0,0.4,0.1,0.5,0.5,0.5c0.9,0,1.9,0,2.8,0c0.4,0,0.5-0.1,0.5-0.5C113.6,45.8,113.6,45.4,113.6,44.9z M119.4,44.9
		c0-0.5,0-0.9,0-1.4c0-0.3-0.1-0.5-0.4-0.5c-0.9,0-1.9,0-2.8,0c-0.3,0-0.4,0.1-0.4,0.4c0,1,0,1.9,0,2.9c0,0.3,0.1,0.4,0.4,0.4
		c0.9,0,1.9,0,2.8,0c0.3,0,0.4-0.1,0.4-0.4C119.4,45.9,119.4,45.4,119.4,44.9z M121.5,44.9c0,0.5,0,1,0,1.5c0,0.3,0.1,0.4,0.4,0.4
		c1,0,1.9,0,2.9,0c0.3,0,0.4-0.1,0.4-0.4c0-1,0-1.9,0-2.9c0-0.3-0.1-0.4-0.4-0.4c-1,0-1.9,0-2.9,0c-0.3,0-0.4,0.1-0.4,0.4
		C121.5,44,121.5,44.4,121.5,44.9z M103.2,41.9c0.5,0,1,0,1.5,0c0.3,0,0.4-0.1,0.4-0.4c0-1,0-1.9,0-2.9c0-0.3-0.1-0.4-0.4-0.4
		c-1,0-1.9,0-2.9,0c-0.3,0-0.4,0.1-0.4,0.4c0,1,0,1.9,0,2.9c0,0.3,0.1,0.4,0.4,0.4C102.2,41.9,102.7,41.9,103.2,41.9z M109,41.9
		c0.5,0,1,0,1.4,0c0.3,0,0.4-0.1,0.4-0.4c0-0.9,0-1.9,0-2.8c0-0.3-0.1-0.4-0.4-0.4c-1,0-1.9,0-2.9,0c-0.3,0-0.4,0.1-0.4,0.4
		c0,0.9,0,1.9,0,2.8c0,0.3,0.1,0.4,0.5,0.4C108.1,41.9,108.5,41.9,109,41.9z M120.6,41.9c0.5,0,1,0,1.5,0c0.3,0,0.4-0.1,0.4-0.4
		c0-1,0-2,0-3c0-0.2-0.1-0.4-0.4-0.4c-1,0-2,0-3,0c-0.2,0-0.4,0.1-0.4,0.4c0,1,0,2,0,3c0,0.3,0.1,0.4,0.4,0.4
		C119.6,41.9,120.1,41.9,120.6,41.9z M114.8,38.2c-0.5,0-0.9,0-1.4,0c-0.4,0-0.5,0.1-0.5,0.5c0,0.9,0,1.9,0,2.8
		c0,0.4,0.1,0.4,0.4,0.4c0.9,0,1.9,0,2.8,0c0.3,0,0.4-0.1,0.4-0.4c0-1,0-1.9,0-2.9c0-0.3-0.1-0.4-0.4-0.4
		C115.8,38.2,115.3,38.2,114.8,38.2z"/>
	<path class="st0" d="M111.8,10.5c3.6,0,7.1,0,10.7,0c0.5,0,0.5,0,0.5,0.5c0,6.2,0,12.3,0,18.5c0,0.4,0,0.5-0.5,0.5
		c-7.1,0-14.3,0-21.4,0c-0.4,0-0.5,0-0.5-0.5c0-6.2,0-12.3,0-18.5c0-0.5,0-0.5,0.5-0.5C104.7,10.5,108.3,10.5,111.8,10.5z"/>
	<path class="st0" d="M104.1,44.9c0-0.5,0-0.9,0-1.4c0-0.3,0.1-0.4,0.4-0.4c1,0,1.9,0,2.9,0c0.3,0,0.4,0.1,0.4,0.4c0,1,0,1.9,0,2.9
		c0,0.3-0.1,0.4-0.4,0.4c-1,0-1.9,0-2.9,0c-0.3,0-0.4-0.1-0.4-0.4C104.1,45.9,104.1,45.4,104.1,44.9z"/>
	<path class="st0" d="M98.3,44.9c0-0.5,0-0.9,0-1.4c0-0.3,0.1-0.5,0.4-0.5c0.9,0,1.9,0,2.8,0c0.3,0,0.4,0.1,0.4,0.4c0,1,0,1.9,0,2.9
		c0,0.3-0.1,0.4-0.4,0.4c-0.9,0-1.9,0-2.8,0c-0.3,0-0.4-0.1-0.4-0.4C98.3,45.9,98.3,45.4,98.3,44.9z"/>
	<path class="st0" d="M113.6,44.9c0,0.5,0,0.9,0,1.4c0,0.4-0.1,0.5-0.5,0.5c-0.9,0-1.9,0-2.8,0c-0.3,0-0.5-0.1-0.5-0.5
		c0-0.9,0-1.9,0-2.8c0-0.4,0.1-0.5,0.5-0.5c0.9,0,1.8,0,2.7,0c0.4,0,0.5,0.1,0.5,0.5C113.6,44,113.6,44.5,113.6,44.9z"/>
	<path class="st0" d="M119.4,44.9c0,0.5,0,1,0,1.4c0,0.3-0.1,0.4-0.4,0.4c-0.9,0-1.9,0-2.8,0c-0.3,0-0.4-0.1-0.4-0.4
		c0-1,0-1.9,0-2.9c0-0.3,0.1-0.4,0.4-0.4c0.9,0,1.9,0,2.8,0c0.3,0,0.4,0.1,0.4,0.5C119.4,44,119.4,44.4,119.4,44.9z"/>
	<path class="st0" d="M121.5,44.9c0-0.5,0-0.9,0-1.4c0-0.3,0.1-0.4,0.4-0.4c1,0,1.9,0,2.9,0c0.3,0,0.4,0.1,0.4,0.4c0,1,0,1.9,0,2.9
		c0,0.3-0.1,0.4-0.4,0.4c-1,0-1.9,0-2.9,0c-0.3,0-0.4-0.1-0.4-0.4C121.5,45.9,121.5,45.4,121.5,44.9z"/>
	<path class="st0" d="M103.2,41.9c-0.5,0-1,0-1.4,0c-0.3,0-0.4-0.1-0.4-0.4c0-1,0-1.9,0-2.9c0-0.3,0.1-0.4,0.4-0.4c1,0,1.9,0,2.9,0
		c0.3,0,0.4,0.1,0.4,0.4c0,1,0,1.9,0,2.9c0,0.3-0.1,0.4-0.4,0.4C104.2,41.9,103.7,41.9,103.2,41.9z"/>
	<path class="st0" d="M109,41.9c-0.5,0-0.9,0-1.4,0c-0.3,0-0.5-0.1-0.5-0.4c0-0.9,0-1.9,0-2.8c0-0.3,0.1-0.4,0.4-0.4
		c1,0,1.9,0,2.9,0c0.3,0,0.4,0.1,0.4,0.4c0,0.9,0,1.9,0,2.8c0,0.3-0.1,0.4-0.4,0.4C110,41.9,109.5,41.9,109,41.9z"/>
	<path class="st0" d="M120.6,41.9c-0.5,0-1,0-1.5,0c-0.3,0-0.4-0.1-0.4-0.4c0-1,0-2,0-3c0-0.2,0.1-0.4,0.4-0.4c1,0,2,0,3,0
		c0.2,0,0.4,0.1,0.4,0.4c0,1,0,2,0,3c0,0.3-0.1,0.4-0.4,0.4C121.6,41.9,121.1,41.9,120.6,41.9z"/>
	<path class="st0" d="M114.8,38.2c0.5,0,1,0,1.5,0c0.3,0,0.4,0.1,0.4,0.4c0,1,0,1.9,0,2.9c0,0.3-0.1,0.4-0.4,0.4c-0.9,0-1.9,0-2.8,0
		c-0.4,0-0.4-0.1-0.4-0.4c0-0.9,0-1.9,0-2.8c0-0.4,0.1-0.5,0.5-0.5C113.9,38.2,114.3,38.2,114.8,38.2z"/>
</g>
</svg>
