<?xml version="1.0" encoding="utf-8"?>
<!-- Generator: Adobe Illustrator 19.1.0, SVG Export Plug-In . SVG Version: 6.00 Build 0)  -->
<svg version="1.1" id="Layer_1" xmlns="http://www.w3.org/2000/svg" xmlns:xlink="http://www.w3.org/1999/xlink" x="0px" y="0px"
	 viewBox="0 0 245 79" style="enable-background:new 0 0 245 79;" xml:space="preserve">
<metadata><?xpacket begin="﻿" id="W5M0MpCehiHzreSzNTczkc9d"?>
<x:xmpmeta xmlns:x="adobe:ns:meta/" x:xmptk="Adobe XMP Core 5.6-c067 79.157747, 2015/03/30-23:40:42        ">
   <rdf:RDF xmlns:rdf="http://www.w3.org/1999/02/22-rdf-syntax-ns#">
      <rdf:Description rdf:about=""/>
   </rdf:RDF>
</x:xmpmeta>
                                                                                                    
                                                                                                    
                                                                                                    
                                                                                                    
                                                                                                    
                                                                                                    
                                                                                                    
                                                                                                    
                                                                                                    
                                                                                                    
                                                                                                    
                                                                                                    
                                                                                                    
                                                                                                    
                                                                                                    
                                                                                                    
                                                                                                    
                                                                                                    
                                                                                                    
                                                                                                    
                           
<?xpacket end="w"?></metadata>
<style type="text/css">
	.st0{fill:#0080C3;}
	.st1{fill:#75B943;}
</style>
<g>
	<g>
		<path class="st0" d="M2.8,21.2H1c-0.3,0-0.4-0.1-0.4-0.4l0-8.9l0-8.9c0-0.2,0.1-0.4,0.4-0.4h1.8c0.3,0,0.4,0.1,0.4,0.4l0,8.9
			l0,8.9C3.2,21.1,3.1,21.2,2.8,21.2"/>
		<path class="st0" d="M21.4,17.2l0,3.9c0,0.5-0.7,0.4-0.8,0.3L11,10c-0.1-0.1-0.2,0-0.2,0l0.3,10.7c0,0.2-0.1,0.5-0.4,0.5H9.4
			c-0.3,0-0.4-0.2-0.4-0.5l0.3-10.4L9.3,6.6c0-0.2,0.2-0.4,0.5-0.4h0.7c0.2,0,0.4,0.1,0.6,0.2l8.5,10.1c0.2,0.2,0.3,0.1,0.3-0.1
			l-0.3-9.8c0-0.2,0-0.5,0.4-0.5h1.3c0.3,0,0.4,0.2,0.4,0.5L21.4,17.2"/>
		<path class="st0" d="M37.9,7.7C37.9,8,37.6,8,37.4,8c0,0-2.9-0.3-4.3-0.3c-0.2,0-0.3,0.2-0.3,0.4v12.7c0,0.2-0.2,0.4-0.4,0.4h-1.6
			c-0.3,0-0.4-0.1-0.4-0.4V8c0-0.2-0.2-0.3-0.3-0.3c-1.4,0-4.3,0.3-4.3,0.3c-0.2,0-0.4,0-0.4-0.3l-0.1-1.1c0-0.2,0.2-0.3,0.5-0.3
			h11.6c0.3,0,0.6,0.1,0.5,0.3L37.9,7.7"/>
		<path class="st0" d="M52.2,21.2h-9.7c-0.3,0-0.4-0.1-0.4-0.4l0-7.1l0-7.1c0-0.2,0.2-0.4,0.4-0.4h9.4c0.3,0,0.5,0.1,0.5,0.3v1.1
			c0,0.2-0.2,0.3-0.5,0.3c0,0-2.9-0.4-4.3-0.4h-2.5c-0.3,0-0.6,0.2-0.6,0.5l0,4.5l0.1,0.1l5.2-0.1c0.2,0,0.4,0,0.4,0.2V14
			c0,0.2-0.2,0.3-0.4,0.3l-5.2-0.1l-0.1,0.1l0,5c0,0.2,0.2,0.5,0.6,0.5h2.5c1.4,0,4.6-0.5,4.6-0.5c0.2,0,0.5,0,0.5,0.3v1.2
			C52.7,21.1,52.4,21.2,52.2,21.2 M52.1,1.5l-6.6,3.7c-0.1,0.1-0.3-0.1-0.3-0.1L45,4.8c0,0,0-0.2,0.1-0.3l6.2-4.5
			c0.3-0.2,0.8,0,1.1,0.3C52.5,0.7,52.5,1.3,52.1,1.5z"/>
		<path class="st0" d="M69.2,21.2c-0.3,0-1-0.6-1.1-0.7c-0.2-0.1-0.2-0.1-0.4,0c-1.1,0.5-2.6,0.9-4,0.9c-3.5,0-7.1-2-7.1-7.7
			c0-4.7,3.3-7.5,7.1-7.5h4.4c0.2,0,0.5,0.1,0.4,0.3L68.3,8c0,0.3-0.2,0.4-0.5,0.3C67.2,8.2,66.6,8,66,7.9c-0.6-0.1-1.3-0.2-2.4-0.2
			c-2.7,0-4.3,2.1-4.3,6.1c0,4.8,2.4,6.3,5.2,6.3c1.3,0,2.8-0.8,2.8-1.5c0-0.2-0.3-4.1-0.3-4.1c0,0-0.1-0.5-0.1-0.6
			c0-0.2,0.2-0.4,0.5-0.4h1.9c0.2,0,0.3,0.1,0.3,0.3v7.1C69.7,21.1,69.5,21.2,69.2,21.2"/>
		<path class="st0" d="M87.2,21.2h-2.1c-0.2,0-0.3-0.1-0.4-0.2l-0.1-0.1l-3.9-5.6c-0.4-0.6-0.8-0.9-1.3-0.9h-1.8
			c-0.2,0-0.4,0.2-0.4,0.3l0,6.2c0,0.2-0.2,0.4-0.5,0.4h-1.6c-0.3,0-0.4-0.1-0.4-0.4l0-7.1l0-7.1c0-0.2,0-0.4,0.3-0.4h6.6
			c2.4,0,4.4,1.5,4.4,3.6c0,2.1-1.6,3.7-3.9,4.1l0,0c0.2,0.2,0.5,0.5,1.1,1.2l3.6,4.6l0.8,0.9C87.7,21,87.5,21.2,87.2,21.2
			 M80.7,7.5h-2.9c-0.3,0-0.6,0.2-0.6,0.5l0,4.9c0,0.2,0.2,0.3,0.4,0.3h2c2.4,0,3.9-0.8,3.9-3.1C83.4,8.5,82.3,7.5,80.7,7.5z"/>
		<path class="st0" d="M103.7,21.2h-2.1c-0.3,0-0.5-0.1-0.6-0.3c0,0-0.4-1.1-0.7-1.7l-0.8-2.1c0-0.1-0.1-0.2-0.2-0.2h-5.9
			c-0.1,0-0.2,0.1-0.2,0.2l-1.4,3.8c-0.1,0.2-0.2,0.3-0.5,0.3h-1.4c-0.3,0-0.4-0.2-0.3-0.5l6.1-14.3c0.2-0.4,1.5-0.4,1.7,0l5.7,12.7
			c0.2,0.6,0.9,1.6,0.9,1.6C104.2,21,104,21.2,103.7,21.2 M96.3,9.1L96.3,9.1l-2.6,6.5l0.1,0.1h5.2c0.1,0,0.1,0,0.1-0.1L96.3,9.1z"
			/>
		<path class="st0" d="M116,7.7c0,0.3-0.2,0.3-0.4,0.3c0,0-2.9-0.3-4.3-0.3c-0.2,0-0.3,0.2-0.3,0.4v12.7c0,0.2-0.2,0.4-0.4,0.4h-1.6
			c-0.3,0-0.4-0.1-0.4-0.4V8c0-0.2-0.2-0.3-0.3-0.3c-1.4,0-4.3,0.3-4.3,0.3c-0.2,0-0.4,0-0.4-0.3l-0.1-1.1c0-0.2,0.2-0.3,0.5-0.3
			h11.6c0.3,0,0.6,0.1,0.5,0.3L116,7.7"/>
		<path class="st0" d="M121.7,21.2h-1.6c-0.3,0-0.4-0.1-0.4-0.4l0-7.1l0-7.1c0-0.2,0.2-0.4,0.4-0.4h1.6c0.3,0,0.5,0.1,0.5,0.4l0,7.1
			l0,7.1C122.2,21.1,122,21.2,121.7,21.2"/>
		<path class="st0" d="M134.3,21.7c-5.3,0-7-3.7-7-7.8c0-3.9,1.9-8,7.1-8c5.3,0,7,3.7,7,7.8C141.4,17.6,139.5,21.7,134.3,21.7
			 M134.3,7.1c-3.6,0-4.2,3.5-4.2,6.4c0,2.7,0.4,7,4.4,7c3.6,0,4.2-3.5,4.2-6.4C138.7,11.3,138.3,7.1,134.3,7.1z"/>
		<path class="st0" d="M158.5,17.2l0,3.9c0,0.5-0.7,0.4-0.8,0.3L148.1,10c-0.1-0.1-0.2,0-0.2,0l0.3,10.7c0,0.2-0.1,0.5-0.4,0.5h-1.4
			c-0.3,0-0.4-0.2-0.4-0.5l0.3-10.4l-0.1-3.6c0-0.2,0.2-0.4,0.5-0.4h0.7c0.2,0,0.4,0.1,0.6,0.2l8.5,10.1c0.2,0.2,0.3,0.1,0.3-0.1
			l-0.3-9.8c0-0.2,0-0.5,0.4-0.5h1.3c0.3,0,0.4,0.2,0.4,0.5L158.5,17.2"/>
		<path class="st1" d="M7.1,41.1c-3.5,0-7.1-2-7.1-7.7c0-4.7,3.3-7.5,7.1-7.5h4.4c0.2,0,0.4,0.1,0.4,0.3l-0.2,1.4
			c0,0.3-0.2,0.4-0.5,0.3c-1.5-0.5-2.4-0.7-4.2-0.7c-2.7,0-4.2,2.1-4.2,6.1c0,4.8,2.3,6.3,5.2,6.3c1.1,0,2.5-0.7,3.3-1.4
			c0.1-0.1,0.3-0.2,0.4,0l0.5,0.6c0.1,0.1,0.1,0.2,0,0.3C11,40.4,9.2,41.1,7.1,41.1"/>
		<path class="st1" d="M23,41.3c-5.3,0-7-3.7-7-7.8c0-3.9,1.9-8,7.1-8c5.2,0,7,3.7,7,7.8C30,37.3,28.1,41.3,23,41.3 M22.9,26.7
			c-3.6,0-4.2,3.5-4.2,6.4c0,2.7,0.4,7,4.4,7c3.6,0,4.2-3.5,4.2-6.4C27.3,30.9,26.9,26.7,22.9,26.7z"/>
		<path class="st1" d="M51.3,33.3v7.1c0,0.2-0.2,0.4-0.4,0.4h-1.5c-0.3,0-0.5-0.1-0.5-0.4l0-7.1V30c0-0.1-0.2-0.2-0.3,0l-5.8,10.2
			c-0.2,0.2-0.5,0.2-0.6,0L36.7,30L36.6,30l0.3,10.4c0,0.2-0.2,0.4-0.4,0.4h-1.3c-0.3,0-0.4-0.1-0.4-0.4L35,30.1L35,26.3
			c0-0.2,0.2-0.4,0.4-0.4H37c0.2,0,0.4,0.1,0.5,0.2l5.3,10.4c0.1,0.1,0.3,0.1,0.3,0l5.6-10.2c0.1-0.2,0.3-0.4,0.6-0.4h1.5
			c0.3,0,0.5,0.2,0.5,0.5L51.3,33.3"/>
		<path class="st1" d="M73.7,33.3v7.1c0,0.2-0.2,0.4-0.4,0.4h-1.5c-0.3,0-0.5-0.1-0.5-0.4l0-7.1V30c0-0.1-0.2-0.2-0.3,0l-5.8,10.2
			c-0.2,0.2-0.5,0.2-0.6,0L59.2,30L59,30l0.3,10.4c0,0.2-0.2,0.4-0.4,0.4h-1.3c-0.3,0-0.4-0.1-0.4-0.4l0.3-10.3l-0.1-3.9
			c0-0.2,0.2-0.4,0.4-0.4h1.6c0.2,0,0.4,0.1,0.5,0.2l5.3,10.4c0.1,0.1,0.3,0.1,0.3,0l5.6-10.2c0.1-0.2,0.3-0.4,0.6-0.4h1.5
			c0.3,0,0.5,0.2,0.5,0.5L73.7,33.3"/>
		<path class="st1" d="M91.2,28.1L91,36.4c-0.1,3.2-2.1,4.9-5.6,4.9c-3.9,0-6.2-1.6-6.3-4.9L79,27.9l0-1.6c0-0.2,0.2-0.4,0.5-0.4
			h1.7c0.3,0,0.5,0.1,0.5,0.4l-0.1,1.6l0,8.2c0,2.3,1.8,3.6,4,3.6c1.9,0,3.6-1,3.6-3.3L89,28.2c0-0.7-0.1-1.8-0.1-1.8
			c0-0.2,0.1-0.5,0.4-0.5h1.6c0.3,0,0.4,0.2,0.4,0.5C91.3,26.4,91.2,27.4,91.2,28.1"/>
		<path class="st1" d="M109.3,36.8l0,3.9c0,0.5-0.7,0.4-0.8,0.3l-9.6-11.4c-0.1-0.1-0.2,0-0.2,0l0.3,10.7c0,0.2-0.1,0.5-0.4,0.5
			h-1.4c-0.3,0-0.4-0.2-0.4-0.5l0.3-10.4l-0.1-3.6c0-0.2,0.2-0.4,0.5-0.4h0.7c0.2,0,0.4,0.1,0.6,0.2l8.5,10.1
			c0.2,0.2,0.3,0.1,0.3-0.1l-0.3-9.8c0-0.2,0-0.5,0.4-0.5h1.3c0.3,0,0.4,0.2,0.4,0.5L109.3,36.8"/>
		<path class="st1" d="M126.7,40.8h-2.1c-0.3,0-0.5-0.1-0.6-0.3c0,0-0.4-1.1-0.7-1.7l-0.8-2.1c0-0.1-0.1-0.2-0.2-0.2h-5.9
			c-0.1,0-0.2,0.1-0.2,0.2l-1.4,3.8c-0.1,0.2-0.2,0.3-0.5,0.3h-1.4c-0.3,0-0.4-0.2-0.3-0.5l6.1-14.3c0.2-0.4,1.5-0.4,1.7,0l5.7,12.7
			c0.2,0.6,0.9,1.6,0.9,1.6C127.2,40.7,127,40.8,126.7,40.8 M119.2,28.8L119.2,28.8l-2.6,6.5l0.1,0.1h5.2c0.1,0,0.1,0,0.1-0.1
			L119.2,28.8z"/>
		<path class="st1" d="M142.3,28.1l-0.2,8.2c-0.1,3.2-2.1,4.9-5.6,4.9c-3.9,0-6.2-1.6-6.3-4.9l-0.1-8.4l0-1.6c0-0.2,0.2-0.4,0.5-0.4
			h1.7c0.3,0,0.5,0.1,0.5,0.4l-0.1,1.6l0,8.2c0,2.3,1.8,3.6,4,3.6c1.9,0,3.6-1,3.6-3.3l-0.1-8.2c0-0.7-0.1-1.8-0.1-1.8
			c0-0.2,0.1-0.5,0.4-0.5h1.6c0.3,0,0.4,0.2,0.4,0.5C142.4,26.4,142.3,27.4,142.3,28.1"/>
		<path class="st1" d="M158.3,27.3c0,0.3-0.2,0.3-0.4,0.3c0,0-2.9-0.3-4.3-0.3c-0.2,0-0.3,0.2-0.3,0.4v12.7c0,0.2-0.2,0.4-0.4,0.4
			h-1.6c-0.3,0-0.4-0.1-0.4-0.4V27.7c0-0.2-0.2-0.3-0.3-0.3c-1.4,0-4.3,0.3-4.3,0.3c-0.2,0-0.4,0-0.4-0.3l-0.1-1.1
			c0-0.2,0.2-0.3,0.5-0.3h11.7c0.3,0,0.6,0.1,0.5,0.3L158.3,27.3"/>
		<path class="st1" d="M171.9,40.8h-2.1c-0.3,0-0.5-0.1-0.6-0.3c0,0-0.4-1.1-0.7-1.7l-0.8-2.1c0-0.1-0.1-0.2-0.2-0.2h-5.9
			c-0.1,0-0.2,0.1-0.2,0.2l-1.4,3.8c-0.1,0.2-0.2,0.3-0.5,0.3H158c-0.3,0-0.4-0.2-0.3-0.5l6.1-14.3c0.2-0.4,1.5-0.4,1.7,0l5.7,12.7
			c0.3,0.6,0.9,1.6,0.9,1.6C172.3,40.7,172.1,40.8,171.9,40.8 M164.4,28.8L164.4,28.8l-2.6,6.5l0.1,0.1h5.2c0.1,0,0.1,0,0.1-0.1
			L164.4,28.8z"/>
		<path class="st1" d="M177.9,40.8h-1.6c-0.3,0-0.4-0.1-0.4-0.4l0-7.1l0-7.1c0-0.2,0.2-0.4,0.4-0.4h1.6c0.3,0,0.5,0.1,0.5,0.4l0,7.1
			l0,7.1C178.3,40.7,178.2,40.8,177.9,40.8"/>
		<path class="st1" d="M196.6,40.8h-2.1c-0.2,0-0.3-0.1-0.4-0.2l-0.1-0.1l-3.9-5.6c-0.4-0.6-0.8-0.9-1.3-0.9H187
			c-0.2,0-0.4,0.2-0.4,0.3l0,6.2c0,0.2-0.2,0.4-0.5,0.4h-1.6c-0.3,0-0.4-0.1-0.4-0.4l0-7.1l0-7.1c0-0.2,0-0.4,0.3-0.4h6.6
			c2.4,0,4.4,1.5,4.4,3.6c0,2.1-1.6,3.7-3.9,4.1l0,0c0.2,0.2,0.5,0.5,1.1,1.2l3.6,4.6l0.8,0.9C197.1,40.6,196.9,40.8,196.6,40.8
			 M190.1,27.1h-2.9c-0.3,0-0.6,0.2-0.6,0.5l0,4.9c0,0.2,0.2,0.3,0.4,0.3h2c2.4,0,3.9-0.8,3.9-3.1C192.9,28.2,191.8,27.1,190.1,27.1
			z"/>
		<path class="st1" d="M210.8,40.8h-9.7c-0.3,0-0.4-0.1-0.4-0.4l0-7.1l0-7.1c0-0.2,0.2-0.4,0.4-0.4h9.4c0.3,0,0.5,0.1,0.5,0.3v1.1
			c0,0.2-0.2,0.3-0.5,0.3c0,0-2.9-0.4-4.3-0.4h-2.5c-0.3,0-0.6,0.2-0.6,0.5l0,4.5l0.1,0.1l5.2-0.1c0.2,0,0.4,0,0.4,0.2v1.1
			c0,0.2-0.2,0.3-0.4,0.3l-5.2-0.1l-0.1,0.1l0,5c0,0.2,0.2,0.5,0.6,0.5h2.5c1.4,0,4.6-0.5,4.6-0.5c0.2,0,0.5,0,0.5,0.3v1.2
			C211.3,40.7,211.1,40.8,210.8,40.8"/>
		<path class="st0" d="M5.2,54.7c-2.9,0-3.9-2.3-3.9-4.8c0-2.5,1-4.9,3.9-4.9c2.9,0,3.9,2.3,3.9,4.8C9.1,52.2,8,54.7,5.2,54.7
			 M5.1,45.6c-2.1,0-2.4,2.3-2.4,4c0,1.7,0.2,4.4,2.5,4.4c2.1,0,2.4-2.3,2.4-4C7.7,48.3,7.5,45.6,5.1,45.6z"/>
		<path class="st0" d="M16.3,54.4h-0.7c-0.1,0-0.2-0.1-0.2-0.2V50c0-0.9-0.5-1.4-1.4-1.4c-0.6,0-1.7,0.4-1.7,1.2v4.4
			c0,0.1-0.1,0.2-0.2,0.2h-0.7c-0.1,0-0.2-0.1-0.2-0.2v-6.1c0-0.1,0.1-0.2,0.2-0.2h0.4c0.1,0,0.2,0.1,0.2,0.2l0.2,0.5l0.2,0
			c0.5-0.7,1.3-0.9,1.9-0.9c1.3,0,2.2,0.9,2.2,2.4v3.9C16.5,54.3,16.5,54.4,16.3,54.4"/>
		<path class="st0" d="M22.6,48.7l-2,0V53c0,0.6,0.3,0.9,0.7,0.9h0.4c0.1,0,0.1,0,0.1,0.1v0.2c0,0.1,0,0.1-0.1,0.1H21
			c-0.9,0-1.5-0.4-1.5-1.8v-3.9h-1.4L18,48.6c0-0.1,0-0.4,0-0.5c0-0.1,0.1-0.2,0.2-0.2h1.4v-1.4l0-0.1l0.8-0.4
			c0.2-0.1,0.3-0.1,0.3,0.1v1.8h1.9c0.1,0,0.2,0,0.2,0.1v0.5C22.7,48.7,22.6,48.7,22.6,48.7"/>
		<path class="st0" d="M28.6,54.3L28.3,54c-0.1-0.1-0.4-0.1-0.5,0c-0.6,0.4-1.2,0.6-2,0.6c-1.1,0-1.9-0.6-1.9-1.7
			c0-0.6,0.3-1.2,1.1-1.6c0.6-0.2,1.4-0.4,2.2-0.6c0.4-0.1,0.8-0.3,0.8-0.8v-0.3c0-0.8-0.4-1.1-0.9-1.1c-0.6,0-1.4,0.2-2,0.4
			c-0.1,0-0.2,0-0.2-0.1l-0.1-0.7c0-0.1,0.1-0.2,0.2-0.2h2.2c1.1,0,1.9,0.7,1.9,2.2v4.1C29,54.5,28.7,54.4,28.6,54.3 M27.9,51.3
			c0-0.1,0-0.1-0.1-0.1c0,0-1.9,0.6-2,0.6c-0.5,0.2-0.8,0.5-0.8,0.9c0,0.8,0.3,1.4,1.2,1.4c1,0,1.7-0.5,1.7-1.2V51.3z"/>
		<path class="st0" d="M35.2,48.9c0,0.1-0.1,0.2-0.2,0.1c-0.3-0.1-0.5-0.2-1.1-0.2c-0.6,0-1.1,0.3-1.4,0.9v4.5
			c0,0.1-0.1,0.2-0.2,0.2h-0.7c-0.1,0-0.2-0.1-0.2-0.2v-6.1c0-0.1,0.1-0.2,0.2-0.2H32c0.1,0,0.2,0.1,0.2,0.2l0.2,0.5l0.2,0
			c0.6-0.6,1.1-0.8,1.7-0.8H35c0.1,0,0.2,0,0.2,0.2L35.2,48.9"/>
		<path class="st0" d="M37.5,46.2c-0.4,0-0.6-0.2-0.6-0.6c0-0.5,0.4-0.8,0.9-0.8c0.4,0,0.6,0.2,0.6,0.6
			C38.4,45.9,37.9,46.2,37.5,46.2 M38.9,54.4h-0.3c-0.9,0-1.5-0.4-1.5-1.8v-4.5c0-0.1,0.1-0.2,0.2-0.2H38c0.1,0,0.2,0.1,0.2,0.2V53
			c0,0.6,0.3,0.9,0.7,0.9c0.1,0,0.1,0,0.1,0.1v0.2C39,54.4,39,54.4,38.9,54.4z"/>
		<path class="st0" d="M43.5,54.6c-1.7,0-3-1.4-3-3.4s1.3-3.4,3-3.4c1.6,0,3,1.3,3,3.4S45.1,54.6,43.5,54.6 M43.4,48.4
			c-1.4,0-1.7,1.4-1.7,2.6c0,1.2,0.3,3.1,1.8,3.1c1.4,0,1.7-1.6,1.7-2.7C45.2,50.2,45,48.4,43.4,48.4z"/>
		<path class="st0" d="M244,33.2c0.4,0,0.4-0.2,0.2-0.4l-6.4-6.2c-0.3-0.3-0.8-0.4-1.1-0.3l-17.6,5.6c-0.4,0.1-0.3,0.2,0,0.2
			L244,33.2"/>
		<path class="st0" d="M218.2,7.4c-0.3-0.3-0.6-0.2-0.8,0.1l-7.1,13.9c-0.2,0.3-0.3,0.7-0.3,0.9c0,0.2,0.2,0.1,0.5-0.1l12-9.6
			c0.3-0.2,0.3-0.6,0-0.9L218.2,7.4"/>
		<path class="st0" d="M228.9,18.7c0.3-0.1,0.4-0.5,0.1-0.7L224,13c-0.3-0.3-0.7-0.2-0.9,0.1l-7.9,10.5c-0.2,0.3-0.1,0.4,0.2,0.3
			L228.9,18.7"/>
		<path class="st0" d="M236.1,25.6c0.4,0,0.4-0.3,0.2-0.5l-5.7-5.6c-0.3-0.3-0.7-0.3-1-0.1l-12.2,8.1c-0.3,0.2-0.3,0.3,0.1,0.3
			L236.1,25.6"/>
		<path class="st1" d="M244,33.9c0.4,0,0.4,0.2,0.2,0.4l-6.4,6.2c-0.3,0.3-0.8,0.4-1.1,0.3l-17.6-5.6c-0.4-0.1-0.3-0.2,0-0.2
			L244,33.9"/>
		<path class="st1" d="M218.2,59.6c-0.3,0.3-0.6,0.2-0.8-0.1l-7.1-13.9c-0.2-0.3-0.3-0.7-0.3-0.9c0-0.2,0.2-0.1,0.5,0.1l12,9.6
			c0.3,0.2,0.3,0.6,0,0.9L218.2,59.6"/>
		<path class="st1" d="M228.9,48.4c0.3,0.1,0.4,0.4,0.1,0.7L224,54c-0.3,0.3-0.7,0.2-0.9-0.1l-7.9-10.5c-0.2-0.3-0.1-0.4,0.2-0.3
			L228.9,48.4"/>
		<path class="st1" d="M236.1,41.4c0.4,0,0.4,0.3,0.2,0.5l-5.7,5.6c-0.3,0.3-0.7,0.3-1,0.1l-12.2-8.1c-0.3-0.2-0.3-0.3,0.1-0.3
			L236.1,41.4"/>
	</g>
	<path class="st1" d="M80.9,71.7L80,75.8c0,0.1-0.1,0.2-0.2,0.2h-0.8c-0.1,0-0.2-0.1-0.1-0.2l0.9-4.1l0.9-4.1c0-0.1,0.1-0.2,0.2-0.2
		h0.8c0.1,0,0.2,0.1,0.1,0.2L80.9,71.7"/>
	<path class="st1" d="M88.3,74.8c-0.1,0.4-0.1,1-0.1,1c0,0.1-0.1,0.2-0.2,0.2h-0.7c-0.1,0-0.2-0.1-0.1-0.2c0,0,0-0.6,0.1-1
		c0.2-0.7,0.5-2,0.7-2.7c0.2-0.9,0.1-1.7-0.2-1.7c-1.2,0-2.9,3-3.1,4.2L84.3,76l-0.1,0.1l-0.7-0.2c-0.1,0-0.1,0-0.1-0.2l1-4.3
		c0.1-0.5,0.2-1,0.1-1.2c0-0.1,0.1-0.2,0.2-0.2h0.7c0.1,0,0.2,0.1,0.2,0.2c0,0.3-0.1,0.7-0.2,1.2l-0.1,0.4c0,0.1,0.1,0.2,0.2,0.1
		c0.7-1.2,1.6-1.9,2.5-1.9c0.9,0,1.3,1,1.1,2.1C88.9,72.8,88.4,74.2,88.3,74.8"/>
	<path class="st1" d="M96.2,71c-0.1,0.1-0.2,0.1-0.2,0.1c-0.4-0.4-1-0.6-1.7-0.6c-0.5,0-1.1,0.2-1.2,0.8c-0.3,1.3,3.5,0.9,2.9,3.1
		c-0.3,1.3-1.6,1.8-2.8,1.8c-1.2,0-1.8-0.3-2.1-0.4l0-0.2l0.4-0.8c0.1-0.1,0.2-0.1,0.2,0c0.4,0.6,1,0.9,1.6,0.9c0.6,0,1.5-0.3,1.7-1
		c0.2-0.8-0.6-1-1.5-1.3c-0.8-0.3-1.6-0.7-1.4-1.7c0.3-1.1,1.2-1.7,2.3-1.7c1.2,0,1.8,0.2,2.2,0.3l0.1,0.1L96.2,71"/>
	<path class="st1" d="M100.8,76.1c-0.4,0-0.8-0.1-1.1-0.3l-0.2,0l-0.4,1.5c-0.1,0.5-0.2,1-0.1,1.2c0,0.1-0.1,0.2-0.2,0.2h-0.7
		c-0.1,0-0.2-0.1-0.2-0.2c0-0.3,0.1-0.7,0.2-1.2l1.4-6c0.1-0.5,0.2-1,0.1-1.2c0-0.1,0.1-0.2,0.2-0.2h0.7c0.1,0,0.2,0.1,0.2,0.2
		c0,0.2,0,0.5-0.1,0.8c0,0.1,0.1,0.1,0.2,0c0.7-0.9,1.6-1,1.9-1c1.1,0,2.2,0.6,1.6,3C103.9,74.8,102.3,76.1,100.8,76.1 M102.4,70.6
		c-1,0-2,1.3-2.3,2.4l-0.3,1.2c-0.2,0.8,0.2,1.5,1,1.5c1,0,2-1.1,2.4-2.7C103.5,71.9,103.5,70.6,102.4,70.6z"/>
	<path class="st1" d="M108.9,71.1l-0.9,3.6c-0.1,0.6,0.1,0.8,0.5,0.8c0.1,0,0.1,0,0.1,0.1l-0.1,0.2c0,0.1,0,0.1-0.1,0.1h-0.3
		c-0.9,0-1.3-0.4-1-1.6l0.8-3.2c0.1-0.4,0.2-1,0.2-1c0-0.1,0.1-0.2,0.2-0.2h0.7c0.1,0,0.2,0.1,0.1,0.2
		C109.2,70.1,109,70.7,108.9,71.1 M109,68.4c-0.3,0-0.5-0.2-0.5-0.6c0.1-0.4,0.6-0.8,1-0.8c0.3,0,0.5,0.2,0.5,0.6
		C109.9,68,109.4,68.4,109,68.4z"/>
	<path class="st1" d="M115.8,71.1l-0.2,0.1c-0.1,0-0.5-0.2-0.8-0.2c-0.6,0-1.7,1.5-2.2,3.6l-0.3,1.3l-0.1,0.1l-0.7-0.2
		c-0.1,0-0.1,0-0.1-0.2l1-4.3c0.1-0.5,0.2-1,0.1-1.2c0-0.1,0.1-0.2,0.2-0.2h0.7c0.1,0,0.2,0.1,0.2,0.2c0,0.3,0,0.4-0.1,1l-0.1,0.3
		c0,0.1,0.1,0.1,0.2,0.1c0.1-0.2,0.3-0.4,0.4-0.5c0.5-0.7,1.2-1.1,1.9-1.1c0.2,0,0.3,0.1,0.4,0.2c0,0.1,0.1,0.2,0,0.2L115.8,71.1"/>
	<path class="st1" d="M122.2,74.8c-0.1,0.3,0.1,1,0.1,1c0,0.1,0,0.2-0.2,0.2h-0.7c-0.1,0-0.1-0.1-0.1-0.2c-0.1-0.5,0-0.8,0.1-1.1
		c0-0.1-0.1-0.1-0.2,0c-0.6,0.9-1.4,1.5-2.2,1.5c-1.1,0-2.2-0.6-1.5-3c0.5-1.9,2-3.2,3.6-3.2c1.3,0,2.1,0.8,1.8,2.1L122.2,74.8
		 M120.9,70.3c-1,0-2,1.1-2.4,2.7c-0.3,1.1-0.3,2.3,0.8,2.3c1,0,1.9-1.4,2.3-2.4l0.2-0.6C122.3,71,121.7,70.3,120.9,70.3z"/>
	<path class="st1" d="M130.4,74.8c-0.1,0.4-0.1,1-0.1,1c0,0.1-0.1,0.2-0.2,0.2h-0.7c-0.1,0-0.2-0.1-0.1-0.2c0,0,0-0.6,0.1-1
		c0.2-0.7,0.5-2,0.7-2.7c0.2-0.9,0.1-1.7-0.2-1.7c-1.2,0-2.9,3-3.1,4.2l-0.3,1.3l-0.1,0.1l-0.7-0.2c-0.1,0-0.1,0-0.1-0.2l1-4.3
		c0.1-0.5,0.2-1,0.1-1.2c0-0.1,0.1-0.2,0.2-0.2h0.7c0.1,0,0.2,0.1,0.2,0.2c0,0.3-0.1,0.7-0.2,1.2l-0.1,0.4c0,0.1,0.1,0.2,0.2,0.1
		c0.7-1.2,1.6-1.9,2.5-1.9c0.9,0,1.3,1,1.1,2.1C131,72.8,130.5,74.2,130.4,74.8"/>
	<path class="st1" d="M138.2,70.6c0,0.1-0.1,0.1-0.2,0.1l-1.8,0l-1,4c-0.1,0.6,0.1,0.8,0.4,0.8h0.4c0.1,0,0.1,0,0.1,0.1l0,0.2
		c0,0.1-0.1,0.1-0.1,0.1h-0.6c-0.9,0-1.3-0.4-1-1.6l0.9-3.7H134l-0.1-0.1c0-0.1,0.1-0.3,0.1-0.4c0-0.1,0.1-0.1,0.2-0.1h1.3l0.3-1.3
		l0.1-0.1l0.8-0.3c0.2-0.1,0.3-0.1,0.2,0.1l-0.4,1.7h1.8c0.1,0,0.1,0,0.1,0.1L138.2,70.6"/>
	<path class="st1" d="M150,68.4l-1.1,4.5l-0.4,1.9c-0.1,0.3,0.1,1,0.1,1c0,0.1-0.1,0.2-0.2,0.2h-0.7c-0.1,0-0.1-0.1-0.1-0.2
		c0,0-0.1-0.4,0-0.7c0-0.1-0.1-0.1-0.2,0c-0.7,0.8-1.6,1-1.9,1c-1.1,0-2.2-0.6-1.6-3c0.5-1.9,2.1-3.2,3.6-3.2c0.4,0,0.8,0.1,1.1,0.3
		l0.2,0l0.4-1.7c0.1-0.5,0.2-1,0.1-1.2c0-0.1,0.1-0.2,0.2-0.2h0.7c0.1,0,0.2,0.1,0.2,0.2C150.2,67.5,150.1,67.8,150,68.4
		 M147.2,70.3c-1,0-2,1.1-2.4,2.7c-0.3,1.1-0.2,2.3,0.8,2.3c1,0,2-1.3,2.3-2.4l0.3-1.2C148.3,71,147.9,70.3,147.2,70.3z"/>
	<path class="st1" d="M152.8,74.3c0,0.8,0.4,1.3,1,1.3c0.6,0,1.3-0.4,1.8-0.9l0.1-0.1l0.1-0.1l0.3,0.3l0,0.1
		c-0.6,0.7-1.4,1.2-2.5,1.2c-1.4,0-2.3-1.2-1.8-3.1c0.4-1.6,1.9-3.1,3.4-3.1c1.2,0,1.9,0.6,1.6,1.8
		C156.5,72.8,154.9,73.9,152.8,74.3 M155.1,70.4c-1,0-1.7,1-2.1,2.6c-0.1,0.3-0.1,0.5-0.1,0.8c1.5-0.3,2.7-1.1,3-2.2
		C156,70.8,155.7,70.4,155.1,70.4z"/>
	<path class="st1" d="M163.4,71c-0.1,0.1-0.2,0.1-0.2,0.1c-0.4-0.4-1-0.6-1.7-0.6c-0.5,0-1.1,0.2-1.2,0.8c-0.3,1.3,3.5,0.9,2.9,3.1
		c-0.3,1.3-1.6,1.8-2.8,1.8c-1.2,0-1.8-0.3-2.1-0.4l0-0.2l0.4-0.8c0.1-0.1,0.2-0.1,0.2,0c0.4,0.6,1,0.9,1.6,0.9c0.6,0,1.5-0.3,1.7-1
		c0.2-0.8-0.6-1-1.5-1.3c-0.8-0.3-1.6-0.7-1.4-1.7c0.3-1.1,1.2-1.7,2.3-1.7c1.2,0,1.8,0.2,2.2,0.3l0.1,0.1L163.4,71"/>
	<path class="st1" d="M172,76.1c-0.4,0-0.8-0.1-1.1-0.3l-0.2,0l-0.4,1.5c-0.1,0.5-0.2,1-0.1,1.2c0,0.1-0.1,0.2-0.2,0.2h-0.7
		c-0.1,0-0.2-0.1-0.2-0.2c0-0.3,0.1-0.7,0.2-1.2l1.4-6c0.1-0.5,0.2-1,0.1-1.2c0-0.1,0.1-0.2,0.2-0.2h0.7c0.1,0,0.2,0.1,0.2,0.2
		c0,0.2,0,0.5-0.1,0.8c0,0.1,0.1,0.1,0.2,0c0.7-0.9,1.6-1,1.9-1c1.1,0,2.2,0.6,1.6,3C175.1,74.8,173.5,76.1,172,76.1 M173.6,70.6
		c-1,0-2,1.3-2.3,2.4l-0.3,1.2c-0.2,0.8,0.2,1.5,1,1.5c1,0,2-1.1,2.4-2.7C174.7,71.9,174.7,70.6,173.6,70.6z"/>
	<path class="st1" d="M179.9,76.1c-1.5,0-2.4-1.3-1.9-3.2c0.5-1.9,1.9-3.2,3.4-3.2c1.5,0,2.4,1.2,1.9,3.2
		C182.9,74.9,181.4,76.1,179.9,76.1 M181.2,70.4c-1.1,0-1.8,1-2.1,2.6c-0.3,1.6,0,2.6,1,2.6c1.1,0,1.8-1.1,2.1-2.7
		C182.6,71.3,182.3,70.4,181.2,70.4z"/>
	<path class="st1" d="M190.3,71c-0.1,0.1-0.2,0.1-0.2,0.1c-0.4-0.4-1-0.6-1.7-0.6c-0.5,0-1.1,0.2-1.2,0.8c-0.3,1.3,3.5,0.9,2.9,3.1
		c-0.3,1.3-1.6,1.8-2.8,1.8c-1.2,0-1.8-0.3-2.1-0.4l0-0.2l0.4-0.8c0.1-0.1,0.2-0.1,0.2,0c0.4,0.6,1,0.9,1.6,0.9c0.6,0,1.5-0.3,1.7-1
		c0.2-0.8-0.6-1-1.5-1.3c-0.8-0.3-1.6-0.7-1.4-1.7c0.3-1.1,1.2-1.7,2.3-1.7c1.2,0,1.8,0.2,2.2,0.3l0.1,0.1L190.3,71"/>
	<path class="st1" d="M197.4,71c-0.1,0.1-0.2,0.1-0.2,0.1c-0.4-0.4-1-0.6-1.7-0.6c-0.5,0-1.1,0.2-1.2,0.8c-0.3,1.3,3.5,0.9,2.9,3.1
		c-0.3,1.3-1.6,1.8-2.8,1.8c-1.2,0-1.8-0.3-2.1-0.4l0-0.2l0.4-0.8c0.1-0.1,0.2-0.1,0.2,0c0.4,0.6,1,0.9,1.6,0.9c0.6,0,1.5-0.3,1.7-1
		c0.2-0.8-0.6-1-1.5-1.3c-0.8-0.3-1.6-0.7-1.4-1.7c0.3-1.1,1.2-1.7,2.3-1.7c1.2,0,1.8,0.2,2.2,0.3l0.1,0.1L197.4,71"/>
	<path class="st1" d="M202.1,71.1l-0.9,3.6c-0.1,0.6,0.1,0.8,0.5,0.8c0.1,0,0.1,0,0.1,0.1l-0.1,0.2c0,0.1,0,0.1-0.1,0.1h-0.3
		c-0.9,0-1.3-0.4-1-1.6l0.8-3.2c0.1-0.4,0.2-1,0.2-1c0-0.1,0.1-0.2,0.2-0.2h0.7c0.1,0,0.2,0.1,0.1,0.2
		C202.3,70.1,202.1,70.7,202.1,71.1 M202.1,68.4c-0.3,0-0.5-0.2-0.5-0.6c0.1-0.4,0.6-0.8,1-0.8c0.3,0,0.5,0.2,0.5,0.6
		C203,68,202.5,68.4,202.1,68.4z"/>
	<path class="st1" d="M206.7,76.1c-0.5,0-0.9-0.2-1.2-0.5l-0.2-0.1c-0.2,0-0.4,0.3-0.7,0.4c-0.1,0.1-0.4,0.1-0.3-0.1l1.8-7.4
		c0.1-0.5,0.2-1,0.1-1.2c0-0.1,0.1-0.2,0.2-0.2h0.7c0.1,0,0.2,0.1,0.2,0.2c0,0.3,0,0.7-0.2,1.2l-0.6,2.4c0,0.1,0.1,0.1,0.2,0
		c0.7-0.8,1.6-1,1.9-1c1.1,0,2.2,0.6,1.6,3C209.8,74.7,208.2,76.1,206.7,76.1 M208.3,70.5c-1,0-2,1.3-2.3,2.4l-0.3,1.2
		c-0.2,0.8,0.2,1.5,1,1.5c1,0,2-1.1,2.4-2.7C209.4,71.8,209.3,70.5,208.3,70.5z"/>
	<path class="st1" d="M214.6,71.1l-0.9,3.6c-0.1,0.6,0.1,0.8,0.5,0.8c0.1,0,0.1,0,0.1,0.1l-0.1,0.2c0,0.1,0,0.1-0.1,0.1h-0.3
		c-0.9,0-1.3-0.4-1-1.6l0.8-3.2c0.1-0.4,0.2-1,0.2-1c0-0.1,0.1-0.2,0.2-0.2h0.7c0.1,0,0.2,0.1,0.1,0.2
		C214.9,70.1,214.7,70.7,214.6,71.1 M214.7,68.4c-0.3,0-0.5-0.2-0.5-0.6c0.1-0.4,0.6-0.8,1-0.8c0.3,0,0.5,0.2,0.5,0.6
		C215.6,68,215.1,68.4,214.7,68.4z"/>
	<path class="st1" d="M219.8,68.1l-1.6,6.6c-0.1,0.6,0.1,0.8,0.4,0.8c0.1,0,0.1,0,0.1,0.1l-0.1,0.2c0,0.1,0,0.1-0.1,0.1h-0.3
		c-0.9,0-1.3-0.4-1-1.6l1.5-6.2c0.1-0.4,0.1-0.9,0.1-0.9c0-0.1,0.1-0.2,0.2-0.2h0.7c0.1,0,0.2,0.1,0.1,0.2
		C219.9,67.1,219.9,67.7,219.8,68.1"/>
	<path class="st1" d="M223.9,71.1l-0.9,3.6c-0.1,0.6,0.1,0.8,0.5,0.8c0.1,0,0.1,0,0.1,0.1l-0.1,0.2c0,0.1,0,0.1-0.1,0.1h-0.3
		c-0.9,0-1.3-0.4-1-1.6l0.8-3.2c0.1-0.4,0.2-1,0.2-1c0-0.1,0.1-0.2,0.2-0.2h0.7c0.1,0,0.2,0.1,0.1,0.2
		C224.1,70.1,224,70.7,223.9,71.1 M223.9,68.4c-0.3,0-0.5-0.2-0.5-0.6c0.1-0.4,0.6-0.8,1-0.8c0.3,0,0.5,0.2,0.5,0.6
		C224.8,68,224.3,68.4,223.9,68.4z"/>
	<path class="st1" d="M230.9,70.6c0,0.1-0.1,0.1-0.2,0.1l-1.8,0l-1,4c-0.1,0.6,0.1,0.8,0.4,0.8h0.4c0.1,0,0.1,0,0.1,0.1l0,0.2
		c0,0.1-0.1,0.1-0.1,0.1H228c-0.9,0-1.3-0.4-1-1.6l0.9-3.7h-1.3l-0.1-0.1c0-0.1,0.1-0.3,0.1-0.4c0-0.1,0.1-0.1,0.2-0.1h1.3l0.3-1.3
		l0.1-0.1l0.8-0.3c0.2-0.1,0.3-0.1,0.2,0.1l-0.4,1.7h1.8c0.1,0,0.1,0,0.1,0.1L230.9,70.6"/>
	<path class="st1" d="M233.6,74.3c0,0.8,0.4,1.3,1,1.3c0.6,0,1.3-0.4,1.8-0.9l0.1-0.1l0.1-0.1l0.3,0.3l0,0.1
		c-0.6,0.7-1.4,1.2-2.5,1.2c-1.4,0-2.3-1.2-1.8-3.1c0.4-1.6,1.9-3.1,3.4-3.1c1.2,0,1.9,0.6,1.6,1.8
		C237.2,72.8,235.6,73.9,233.6,74.3 M235.8,70.4c-1,0-1.7,1-2.1,2.6c-0.1,0.3-0.1,0.5-0.1,0.8c1.5-0.3,2.7-1.1,3-2.2
		C236.8,70.8,236.5,70.4,235.8,70.4z M238.5,67.3L235,69l-0.1,0l0-0.1l0.1-0.1l3.3-2.1c0.2-0.1,0.4,0,0.4,0.1
		C238.7,67,238.6,67.2,238.5,67.3z"/>
	<path class="st1" d="M244.1,71c-0.1,0.1-0.2,0.1-0.2,0.1c-0.4-0.4-1-0.6-1.7-0.6c-0.5,0-1.1,0.2-1.2,0.8c-0.3,1.3,3.5,0.9,2.9,3.1
		c-0.3,1.3-1.6,1.8-2.8,1.8c-1.2,0-1.8-0.3-2.1-0.4l0-0.2l0.4-0.8c0.1-0.1,0.2-0.1,0.2,0c0.4,0.6,1,0.9,1.6,0.9c0.6,0,1.5-0.3,1.7-1
		c0.2-0.8-0.6-1-1.5-1.3c-0.8-0.3-1.6-0.7-1.4-1.7c0.3-1.1,1.2-1.7,2.3-1.7c1.2,0,1.8,0.2,2.2,0.3l0.1,0.1L244.1,71"/>
</g>
</svg>
