<?xml version="1.0" encoding="utf-8"?>
<!-- Generator: Adobe Illustrator 19.1.0, SVG Export Plug-In . SVG Version: 6.00 Build 0)  -->
<svg version="1.1" id="Layer_1" xmlns="http://www.w3.org/2000/svg" xmlns:xlink="http://www.w3.org/1999/xlink" x="0px" y="0px"
	 viewBox="-46 22 152 35" style="enable-background:new -46 22 152 35;" xml:space="preserve">
<metadata><?xpacket begin="﻿" id="W5M0MpCehiHzreSzNTczkc9d"?>
<x:xmpmeta xmlns:x="adobe:ns:meta/" x:xmptk="Adobe XMP Core 5.6-c067 79.157747, 2015/03/30-23:40:42        ">
   <rdf:RDF xmlns:rdf="http://www.w3.org/1999/02/22-rdf-syntax-ns#">
      <rdf:Description rdf:about=""/>
   </rdf:RDF>
</x:xmpmeta>
                                                                                                    
                                                                                                    
                                                                                                    
                                                                                                    
                                                                                                    
                                                                                                    
                                                                                                    
                                                                                                    
                                                                                                    
                                                                                                    
                                                                                                    
                                                                                                    
                                                                                                    
                                                                                                    
                                                                                                    
                                                                                                    
                                                                                                    
                                                                                                    
                                                                                                    
                                                                                                    
                           
<?xpacket end="w"?></metadata>
<style type="text/css">
	.st0{fill:#0080C3;}
	.st1{fill:#75B943;}
</style>
<g>
	<g>
		<path class="st0" d="M-44.2,31.4h-1.1c-0.2,0-0.3-0.1-0.3-0.2l0-4l0-4c0-0.1,0.1-0.2,0.3-0.2h1.1c0.2,0,0.3,0.1,0.3,0.2l0,4l0,4
			C-44,31.4-44.1,31.4-44.2,31.4"/>
		<path class="st0" d="M-32.7,29.6l0,1.8c0,0.2-0.4,0.2-0.5,0.1l-6-5.1c-0.1,0-0.1,0-0.1,0l0.2,4.7c0,0.1,0,0.2-0.3,0.2h-0.9
			c-0.2,0-0.2-0.1-0.2-0.2l0.2-4.6l0-1.6c0-0.1,0.1-0.2,0.3-0.2h0.4c0.1,0,0.3,0,0.3,0.1l5.3,4.5c0.1,0.1,0.2,0,0.2,0l-0.2-4.3
			c0-0.1,0-0.2,0.2-0.2h0.8c0.2,0,0.2,0.1,0.2,0.2L-32.7,29.6"/>
		<path class="st0" d="M-22.4,25.4c0,0.1-0.1,0.1-0.3,0.1c0,0-1.8-0.1-2.7-0.1c-0.1,0-0.2,0.1-0.2,0.2v5.7c0,0.1-0.1,0.2-0.3,0.2h-1
			c-0.2,0-0.3-0.1-0.3-0.2v-5.7c0-0.1-0.1-0.2-0.2-0.2c-0.9,0-2.7,0.1-2.7,0.1c-0.1,0-0.3,0-0.3-0.1l-0.1-0.5c0-0.1,0.2-0.2,0.3-0.2
			h7.2c0.2,0,0.3,0,0.3,0.2L-22.4,25.4"/>
		<path class="st0" d="M-13.6,31.4h-6c-0.2,0-0.3-0.1-0.3-0.2l0-3.1l0-3.1c0-0.1,0.1-0.2,0.3-0.2h5.8c0.2,0,0.3,0,0.3,0.2v0.5
			c0,0.1-0.2,0.2-0.3,0.1c0,0-1.8-0.2-2.7-0.2H-18c-0.2,0-0.3,0.1-0.3,0.2l0,2l0.1,0l3.2-0.1c0.1,0,0.2,0,0.2,0.1v0.5
			c0,0.1-0.1,0.1-0.2,0.1l-3.2-0.1l-0.1,0l0,2.2c0,0.1,0.2,0.2,0.3,0.2h1.5c0.9,0,2.9-0.2,2.9-0.2c0.1,0,0.3,0,0.3,0.1v0.6
			C-13.2,31.4-13.4,31.4-13.6,31.4 M-13.6,22.6l-4.1,1.6c-0.1,0-0.2,0-0.2,0l-0.1-0.1c0,0,0-0.1,0-0.1l3.8-2c0.2-0.1,0.5,0,0.7,0.1
			C-13.3,22.3-13.4,22.6-13.6,22.6z"/>
		<path class="st0" d="M-2.9,31.4c-0.2,0-0.6-0.3-0.7-0.3c-0.1,0-0.1,0-0.2,0c-0.7,0.2-1.6,0.4-2.5,0.4c-2.2,0-4.4-0.9-4.4-3.4
			c0-2.1,2-3.3,4.4-3.3h2.7c0.1,0,0.3,0,0.3,0.2l-0.1,0.6c0,0.1-0.2,0.2-0.3,0.2c-0.4-0.1-0.7-0.2-1.1-0.2c-0.4-0.1-0.8-0.1-1.5-0.1
			c-1.7,0-2.7,0.9-2.7,2.7c0,2.1,1.5,2.8,3.2,2.8c0.8,0,1.7-0.4,1.7-0.7c0-0.1-0.2-1.8-0.2-1.8c0,0,0-0.2,0-0.3
			c0-0.1,0.1-0.2,0.3-0.2h1.2c0.1,0,0.2,0,0.2,0.1v3.2C-2.7,31.4-2.8,31.4-2.9,31.4"/>
		<path class="st0" d="M8.2,31.4H6.9c-0.1,0-0.2,0-0.3-0.1l0-0.1l-2.4-2.5c-0.3-0.3-0.5-0.4-0.8-0.4H2.3c-0.2,0-0.3,0.1-0.3,0.1
			l0,2.8c0,0.1-0.1,0.2-0.3,0.2h-1c-0.2,0-0.3-0.1-0.3-0.2l0-3.1l0-3.1c0-0.1,0-0.2,0.2-0.2h4.1c1.5,0,2.8,0.7,2.8,1.6
			c0,0.9-1,1.6-2.5,1.8l0,0c0.1,0.1,0.3,0.2,0.7,0.5l2.2,2.1l0.5,0.4C8.5,31.3,8.4,31.4,8.2,31.4 M4.2,25.3H2.4
			c-0.2,0-0.4,0.1-0.4,0.2l0,2.2c0,0.1,0.1,0.2,0.3,0.2h1.2c1.5,0,2.4-0.4,2.4-1.4C5.9,25.8,5.2,25.3,4.2,25.3z"/>
		<path class="st0" d="M18.5,31.4h-1.3c-0.2,0-0.3-0.1-0.3-0.2c0,0-0.3-0.5-0.4-0.7l-0.5-0.9c0,0-0.1-0.1-0.2-0.1h-3.7
			c-0.1,0-0.1,0-0.1,0.1l-0.9,1.7c-0.1,0.1-0.2,0.2-0.3,0.2H9.9c-0.2,0-0.3-0.1-0.2-0.2l3.8-6.3c0.1-0.2,0.9-0.2,1.1,0l3.6,5.6
			c0.2,0.3,0.6,0.7,0.6,0.7C18.8,31.3,18.7,31.4,18.5,31.4 M13.9,26.1L13.9,26.1l-1.6,2.9l0,0.1h3.2c0.1,0,0.1,0,0,0L13.9,26.1z"/>
		<path class="st0" d="M26.2,25.4c0,0.1-0.1,0.1-0.3,0.1c0,0-1.8-0.1-2.7-0.1c-0.1,0-0.2,0.1-0.2,0.2v5.7c0,0.1-0.1,0.2-0.3,0.2h-1
			c-0.2,0-0.3-0.1-0.3-0.2v-5.7c0-0.1-0.1-0.2-0.2-0.2c-0.9,0-2.7,0.1-2.7,0.1c-0.1,0-0.3,0-0.3-0.1l-0.1-0.5c0-0.1,0.2-0.2,0.3-0.2
			h7.2c0.2,0,0.3,0,0.3,0.2L26.2,25.4"/>
		<path class="st0" d="M29.7,31.4h-1c-0.2,0-0.3-0.1-0.3-0.2l0-3.1l0-3.1c0-0.1,0.1-0.2,0.3-0.2h1c0.2,0,0.3,0.1,0.3,0.2l0,3.1
			l0,3.1C30,31.4,29.9,31.4,29.7,31.4"/>
		<path class="st0" d="M37.6,31.6c-3.3,0-4.3-1.7-4.3-3.5c0-1.8,1.2-3.5,4.4-3.5c3.3,0,4.3,1.7,4.3,3.5C42,29.8,40.8,31.6,37.6,31.6
			 M37.5,25.1c-2.2,0-2.6,1.6-2.6,2.8c0,1.2,0.3,3.1,2.8,3.1c2.2,0,2.6-1.6,2.6-2.8C40.3,27,40,25.1,37.5,25.1z"/>
		<path class="st0" d="M52.6,29.6l0,1.8c0,0.2-0.4,0.2-0.5,0.1l-6-5.1c-0.1,0-0.1,0-0.1,0l0.2,4.7c0,0.1,0,0.2-0.3,0.2h-0.9
			c-0.2,0-0.2-0.1-0.2-0.2l0.2-4.6l0-1.6c0-0.1,0.1-0.2,0.3-0.2h0.4c0.1,0,0.3,0,0.3,0.1l5.3,4.5c0.1,0.1,0.2,0,0.2,0L51.4,25
			c0-0.1,0-0.2,0.2-0.2h0.8c0.2,0,0.2,0.1,0.2,0.2L52.6,29.6"/>
		<path class="st1" d="M-41.6,40.3c-2.2,0-4.4-0.9-4.4-3.4c0-2.1,2.1-3.3,4.4-3.3h2.8c0.1,0,0.3,0,0.3,0.2l-0.1,0.6
			c0,0.1-0.2,0.2-0.3,0.2c-0.9-0.2-1.5-0.3-2.6-0.3c-1.7,0-2.6,0.9-2.6,2.7c0,2.1,1.4,2.8,3.2,2.8c0.7,0,1.5-0.3,2.1-0.6
			c0,0,0.2-0.1,0.3,0l0.3,0.3c0.1,0,0.1,0.1,0,0.2C-39.2,39.9-40.3,40.3-41.6,40.3"/>
		<path class="st1" d="M-31.7,40.3c-3.3,0-4.3-1.7-4.3-3.5c0-1.8,1.2-3.5,4.4-3.5c3.3,0,4.3,1.7,4.3,3.5
			C-27.3,38.6-28.5,40.3-31.7,40.3 M-31.8,33.9c-2.2,0-2.6,1.6-2.6,2.8c0,1.2,0.3,3.1,2.8,3.1c2.2,0,2.6-1.6,2.6-2.8
			C-29,35.7-29.2,33.9-31.8,33.9z"/>
		<path class="st1" d="M-14.1,36.8V40c0,0.1-0.1,0.2-0.3,0.2h-0.9c-0.2,0-0.3-0.1-0.3-0.2l0-3.2v-1.5c0,0-0.1-0.1-0.2,0l-3.6,4.5
			c-0.1,0.1-0.3,0.1-0.4,0l-3.4-4.5l-0.1,0l0.2,4.6c0,0.1-0.1,0.2-0.3,0.2h-0.8c-0.2,0-0.3-0.1-0.3-0.2l0.2-4.6l0-1.7
			c0-0.1,0.1-0.2,0.3-0.2h1c0.1,0,0.3,0,0.3,0.1l3.3,4.6c0.1,0.1,0.2,0.1,0.2,0l3.5-4.5c0.1-0.1,0.2-0.2,0.4-0.2h0.9
			c0.2,0,0.3,0.1,0.3,0.2L-14.1,36.8"/>
		<path class="st1" d="M-0.1,36.8V40c0,0.1-0.1,0.2-0.3,0.2h-0.9c-0.2,0-0.3-0.1-0.3-0.2l0-3.2v-1.5c0,0-0.1-0.1-0.2,0l-3.6,4.5
			c-0.1,0.1-0.3,0.1-0.4,0l-3.4-4.5l-0.1,0l0.2,4.6c0,0.1-0.1,0.2-0.3,0.2h-0.8c-0.2,0-0.3-0.1-0.3-0.2l0.2-4.6l0-1.7
			c0-0.1,0.1-0.2,0.3-0.2h1c0.1,0,0.3,0,0.3,0.1l3.3,4.6c0.1,0.1,0.2,0.1,0.2,0l3.5-4.5c0.1-0.1,0.2-0.2,0.4-0.2h0.9
			c0.2,0,0.3,0.1,0.3,0.2L-0.1,36.8"/>
		<path class="st1" d="M10.7,34.5l-0.1,3.6c-0.1,1.4-1.3,2.2-3.5,2.2c-2.4,0-3.9-0.7-3.9-2.2l-0.1-3.7l0-0.7c0-0.1,0.1-0.2,0.3-0.2
			h1c0.2,0,0.3,0.1,0.3,0.2l0,0.7l0,3.7c0,1,1.1,1.6,2.5,1.6c1.2,0,2.3-0.4,2.2-1.5l-0.1-3.7c0-0.3-0.1-0.8-0.1-0.8
			c0-0.1,0-0.2,0.2-0.2h1c0.2,0,0.2,0.1,0.2,0.2C10.8,33.7,10.8,34.2,10.7,34.5"/>
		<path class="st1" d="M22,38.4l0,1.8c0,0.2-0.4,0.2-0.5,0.1l-6-5.1c-0.1,0-0.1,0-0.1,0l0.2,4.7c0,0.1,0,0.2-0.3,0.2h-0.9
			c-0.2,0-0.2-0.1-0.2-0.2l0.2-4.6l0-1.6c0-0.1,0.1-0.2,0.3-0.2h0.4c0.1,0,0.3,0,0.3,0.1l5.3,4.5c0.1,0.1,0.2,0,0.2,0l-0.2-4.3
			c0-0.1,0-0.2,0.2-0.2h0.8c0.2,0,0.2,0.1,0.2,0.2L22,38.4"/>
		<path class="st1" d="M32.8,40.1h-1.3c-0.2,0-0.3-0.1-0.3-0.2c0,0-0.3-0.5-0.4-0.7l-0.5-0.9c0,0-0.1-0.1-0.2-0.1h-3.7
			c-0.1,0-0.1,0-0.1,0.1L25.4,40c-0.1,0.1-0.2,0.2-0.3,0.2h-0.8C24,40.1,24,40,24,39.9l3.8-6.3c0.1-0.2,0.9-0.2,1.1,0l3.6,5.6
			c0.2,0.3,0.6,0.7,0.6,0.7C33.1,40.1,33,40.1,32.8,40.1 M28.2,34.8L28.2,34.8l-1.6,2.9l0,0.1h3.2c0.1,0,0.1,0,0,0L28.2,34.8z"/>
		<path class="st1" d="M42.5,34.5l-0.1,3.6c-0.1,1.4-1.3,2.2-3.5,2.2c-2.4,0-3.9-0.7-3.9-2.2l-0.1-3.7l0-0.7c0-0.1,0.1-0.2,0.3-0.2
			h1c0.2,0,0.3,0.1,0.3,0.2l0,0.7l0,3.7c0,1,1.1,1.6,2.5,1.6c1.2,0,2.3-0.4,2.2-1.5l-0.1-3.7c0-0.3-0.1-0.8-0.1-0.8
			c0-0.1,0-0.2,0.2-0.2h1c0.2,0,0.2,0.1,0.2,0.2C42.6,33.7,42.5,34.2,42.5,34.5"/>
		<path class="st1" d="M52.5,34.1c0,0.1-0.1,0.1-0.3,0.1c0,0-1.8-0.1-2.7-0.1c-0.1,0-0.2,0.1-0.2,0.2V40c0,0.1-0.1,0.2-0.3,0.2h-1
			c-0.2,0-0.3-0.1-0.3-0.2v-5.7c0-0.1-0.1-0.2-0.2-0.2c-0.9,0-2.7,0.1-2.7,0.1c-0.1,0-0.3,0-0.3-0.1l-0.1-0.5c0-0.1,0.2-0.2,0.3-0.2
			h7.2c0.2,0,0.3,0,0.3,0.2L52.5,34.1"/>
		<path class="st1" d="M60.9,40.1h-1.3c-0.2,0-0.3-0.1-0.3-0.2c0,0-0.3-0.5-0.4-0.7l-0.5-0.9c0,0-0.1-0.1-0.2-0.1h-3.7
			c-0.1,0-0.1,0-0.1,0.1L53.5,40c-0.1,0.1-0.2,0.2-0.3,0.2h-0.8c-0.2,0-0.3-0.1-0.2-0.2l3.8-6.3c0.1-0.2,0.9-0.2,1.1,0l3.6,5.6
			c0.2,0.3,0.6,0.7,0.6,0.7C61.2,40.1,61.1,40.1,60.9,40.1 M56.3,34.8L56.3,34.8l-1.6,2.9l0,0.1h3.2c0.1,0,0.1,0,0,0L56.3,34.8z"/>
		<path class="st1" d="M64.6,40.1h-1c-0.2,0-0.3-0.1-0.3-0.2l0-3.1l0-3.1c0-0.1,0.1-0.2,0.3-0.2h1c0.2,0,0.3,0.1,0.3,0.2l0,3.1
			l0,3.1C64.9,40.1,64.8,40.1,64.6,40.1"/>
		<path class="st1" d="M76.3,40.1H75c-0.1,0-0.2,0-0.3-0.1l0-0.1l-2.4-2.5c-0.3-0.3-0.5-0.4-0.8-0.4h-1.1c-0.2,0-0.3,0.1-0.3,0.1
			l0,2.8c0,0.1-0.1,0.2-0.3,0.2h-1c-0.2,0-0.3-0.1-0.3-0.2l0-3.1l0-3.1c0-0.1,0-0.2,0.2-0.2h4.1c1.5,0,2.8,0.7,2.8,1.6
			c0,0.9-1,1.6-2.5,1.8l0,0c0.1,0.1,0.3,0.2,0.7,0.5l2.2,2.1l0.5,0.4C76.6,40,76.5,40.1,76.3,40.1 M72.3,34h-1.8
			c-0.2,0-0.4,0.1-0.4,0.2l0,2.2c0,0.1,0.1,0.2,0.3,0.2h1.2c1.5,0,2.4-0.4,2.4-1.4C74,34.5,73.3,34,72.3,34z"/>
		<path class="st1" d="M85.1,40.1h-6c-0.2,0-0.3-0.1-0.3-0.2l0-3.1l0-3.1c0-0.1,0.1-0.2,0.3-0.2h5.8c0.2,0,0.3,0,0.3,0.2v0.5
			c0,0.1-0.2,0.2-0.3,0.1c0,0-1.8-0.2-2.7-0.2h-1.5c-0.2,0-0.3,0.1-0.3,0.2l0,2l0.1,0l3.2-0.1c0.1,0,0.2,0,0.2,0.1v0.5
			c0,0.1-0.1,0.1-0.2,0.1L80.4,37l-0.1,0l0,2.2c0,0.1,0.2,0.2,0.3,0.2h1.5c0.9,0,2.9-0.2,2.9-0.2c0.1,0,0.3,0,0.3,0.1V40
			C85.5,40.1,85.3,40.1,85.1,40.1"/>
		<path class="st0" d="M-42.8,46.3c-1.8,0-2.4-1-2.4-2.1c0-1.1,0.6-2.2,2.4-2.2c1.8,0,2.4,1,2.4,2.1C-40.4,45.2-41,46.3-42.8,46.3
			 M-42.8,42.2c-1.3,0-1.5,1-1.5,1.8c0,0.8,0.1,2,1.6,2c1.3,0,1.5-1,1.5-1.8C-41.2,43.5-41.4,42.2-42.8,42.2z"/>
		<path class="st0" d="M-35.8,46.2h-0.4c-0.1,0-0.1,0-0.1-0.1v-1.9c0-0.4-0.3-0.6-0.9-0.6c-0.4,0-1,0.2-1,0.5v2c0,0.1,0,0.1-0.1,0.1
			h-0.4c-0.1,0-0.1,0-0.1-0.1v-2.7c0-0.1,0-0.1,0.1-0.1h0.2c0.1,0,0.1,0,0.2,0.1l0.1,0.2l0.1,0c0.3-0.3,0.8-0.4,1.2-0.4
			c0.8,0,1.3,0.4,1.3,1.1v1.8C-35.7,46.1-35.7,46.2-35.8,46.2"/>
		<path class="st0" d="M-32,43.6l-1.2,0v1.9c0,0.3,0.2,0.4,0.4,0.4h0.2c0.1,0,0.1,0,0.1,0v0.1c0,0,0,0.1-0.1,0.1h-0.4
			c-0.6,0-0.9-0.2-0.9-0.8v-1.7h-0.8l-0.1-0.1c0,0,0-0.2,0-0.2c0,0,0-0.1,0.1-0.1h0.8v-0.6l0,0l0.5-0.2c0.1,0,0.2,0,0.2,0v0.8h1.2
			c0,0,0.1,0,0.1,0L-32,43.6C-31.9,43.6-31.9,43.6-32,43.6"/>
		<path class="st0" d="M-28.2,46.1l-0.2-0.1c-0.1-0.1-0.2-0.1-0.3,0c-0.3,0.2-0.8,0.3-1.2,0.3c-0.7,0-1.2-0.3-1.2-0.7
			c0-0.3,0.2-0.5,0.7-0.7c0.4-0.1,0.9-0.2,1.3-0.3c0.3-0.1,0.5-0.1,0.5-0.3v-0.1c0-0.4-0.3-0.5-0.6-0.5c-0.4,0-0.9,0.1-1.3,0.2
			c-0.1,0-0.1,0-0.1-0.1l0-0.3c0-0.1,0.1-0.1,0.1-0.1h1.4c0.7,0,1.2,0.3,1.2,1v1.8C-28,46.2-28.2,46.2-28.2,46.1 M-28.7,44.8
			C-28.7,44.7-28.7,44.7-28.7,44.8c-0.1-0.1-1.2,0.2-1.3,0.2c-0.3,0.1-0.5,0.2-0.5,0.4c0,0.4,0.2,0.6,0.8,0.6c0.6,0,1.1-0.2,1.1-0.5
			V44.8z"/>
		<path class="st0" d="M-24.1,43.7c0,0.1-0.1,0.1-0.1,0.1c-0.2-0.1-0.3-0.1-0.7-0.1c-0.4,0-0.7,0.1-0.9,0.4v2c0,0.1,0,0.1-0.1,0.1
			h-0.4c-0.1,0-0.1,0-0.1-0.1v-2.7c0-0.1,0-0.1,0.1-0.1h0.2c0.1,0,0.1,0,0.2,0.1l0.1,0.2l0.1,0c0.4-0.2,0.7-0.3,1-0.3h0.4
			c0.1,0,0.1,0,0.1,0.1L-24.1,43.7"/>
		<path class="st0" d="M-22.7,42.5c-0.2,0-0.4-0.1-0.4-0.3c0-0.2,0.3-0.4,0.5-0.4c0.2,0,0.4,0.1,0.4,0.3
			C-22.1,42.4-22.4,42.5-22.7,42.5 M-21.8,46.2H-22c-0.6,0-0.9-0.2-0.9-0.8v-2c0-0.1,0-0.1,0.1-0.1h0.4c0.1,0,0.1,0,0.1,0.1v2.2
			c0,0.3,0.2,0.4,0.4,0.4c0.1,0,0.1,0,0.1,0L-21.8,46.2C-21.8,46.2-21.8,46.2-21.8,46.2z"/>
		<path class="st0" d="M-19,46.3c-1,0-1.8-0.6-1.8-1.5s0.8-1.5,1.8-1.5c1,0,1.8,0.6,1.8,1.5S-17.9,46.3-19,46.3 M-19,43.5
			c-0.9,0-1.1,0.6-1.1,1.1c0,0.5,0.2,1.4,1.1,1.4c0.9,0,1.1-0.7,1.1-1.2C-17.9,44.3-18,43.5-19,43.5z"/>
		<path class="st0" d="M105.8,36.7c0.2,0,0.3-0.1,0.1-0.2l-4-2.8c-0.2-0.1-0.5-0.2-0.7-0.1l-10.9,2.5c-0.2,0-0.2,0.1,0,0.1
			L105.8,36.7"/>
		<path class="st0" d="M89.7,25.3c-0.2-0.1-0.4-0.1-0.5,0.1l-4.4,6.2c-0.1,0.1-0.2,0.3-0.2,0.4c0,0.1,0.1,0,0.3-0.1l7.5-4.3
			c0.2-0.1,0.2-0.3,0-0.4L89.7,25.3"/>
		<path class="st0" d="M96.4,30.3c0.2-0.1,0.3-0.2,0.1-0.3l-3.1-2.2c-0.2-0.1-0.4-0.1-0.5,0l-4.9,4.7c-0.1,0.1-0.1,0.2,0.1,0.1
			L96.4,30.3"/>
		<path class="st0" d="M100.9,33.4c0.2,0,0.3-0.1,0.1-0.2l-3.6-2.5c-0.2-0.1-0.5-0.1-0.6,0l-7.6,3.6c-0.2,0.1-0.2,0.1,0.1,0.1
			L100.9,33.4"/>
		<path class="st1" d="M105.8,37c0.2,0,0.3,0.1,0.1,0.2l-4,2.8c-0.2,0.1-0.5,0.2-0.7,0.1l-10.9-2.5c-0.2-0.1-0.2-0.1,0-0.1L105.8,37
			"/>
		<path class="st1" d="M89.7,48.5c-0.2,0.1-0.4,0.1-0.5-0.1l-4.4-6.2c-0.1-0.1-0.2-0.3-0.2-0.4c0-0.1,0.1,0,0.3,0.1l7.5,4.3
			c0.2,0.1,0.2,0.3,0,0.4L89.7,48.5"/>
		<path class="st1" d="M96.4,43.5c0.2,0.1,0.3,0.2,0.1,0.3L93.3,46c-0.2,0.1-0.4,0.1-0.5,0l-4.9-4.7c-0.1-0.1-0.1-0.2,0.1-0.1
			L96.4,43.5"/>
		<path class="st1" d="M100.9,40.4c0.2,0,0.3,0.1,0.1,0.2l-3.6,2.5c-0.2,0.1-0.5,0.1-0.6,0l-7.6-3.6c-0.2-0.1-0.2-0.1,0.1-0.1
			L100.9,40.4"/>
	</g>
	<path class="st1" d="M4.3,53.8l-0.6,1.8c0,0.1-0.1,0.1-0.1,0.1H3.1c-0.1,0-0.1,0-0.1-0.1l0.6-1.8L4.1,52c0-0.1,0.1-0.1,0.1-0.1h0.5
		c0.1,0,0.1,0,0.1,0.1L4.3,53.8"/>
	<path class="st1" d="M8.9,55.2c-0.1,0.2,0,0.4,0,0.4c0,0.1,0,0.1-0.1,0.1H8.3c-0.1,0-0.1,0-0.1-0.1c0,0,0-0.3,0.1-0.4
		c0.1-0.3,0.3-0.9,0.5-1.2c0.1-0.4,0.1-0.7-0.1-0.7c-0.8,0-1.8,1.3-2,1.9l-0.2,0.6l-0.1,0l-0.5-0.1c-0.1,0-0.1,0-0.1-0.1l0.6-1.9
		c0.1-0.2,0.1-0.4,0.1-0.6c0-0.1,0-0.1,0.1-0.1h0.4c0.1,0,0.1,0,0.1,0.1c0,0.1,0,0.3-0.1,0.6l-0.1,0.2c0,0.1,0.1,0.1,0.1,0
		c0.4-0.5,1-0.9,1.5-0.9c0.6,0,0.8,0.4,0.7,0.9C9.3,54.3,9,55,8.9,55.2"/>
	<path class="st1" d="M13.8,53.5c0,0.1-0.1,0.1-0.2,0c-0.3-0.2-0.6-0.3-1.1-0.3c-0.3,0-0.7,0.1-0.8,0.3C11.7,54.2,14,54,13.7,55
		c-0.2,0.6-1,0.8-1.7,0.8c-0.7,0-1.1-0.1-1.3-0.2l0-0.1l0.3-0.3c0,0,0.1,0,0.1,0c0.2,0.3,0.6,0.4,1,0.4c0.4,0,0.9-0.1,1-0.5
		c0.1-0.3-0.4-0.5-0.9-0.6c-0.5-0.1-1-0.3-0.9-0.8c0.2-0.5,0.7-0.8,1.4-0.8c0.7,0,1.1,0.1,1.4,0.1l0,0.1L13.8,53.5"/>
	<path class="st1" d="M16.7,55.8c-0.3,0-0.5-0.1-0.7-0.1l-0.1,0l-0.2,0.7c-0.1,0.2-0.1,0.4-0.1,0.6c0,0.1,0,0.1-0.1,0.1H15
		c-0.1,0-0.1,0-0.1-0.1c0-0.1,0-0.3,0.1-0.6l0.9-2.7c0.1-0.2,0.1-0.4,0.1-0.6c0-0.1,0-0.1,0.1-0.1h0.4c0.1,0,0.1,0,0.1,0.1
		c0,0.1,0,0.2-0.1,0.3c0,0,0.1,0,0.1,0c0.5-0.4,1-0.5,1.2-0.5c0.7,0,1.4,0.3,1,1.3C18.6,55.2,17.6,55.8,16.7,55.8 M17.7,53.4
		c-0.6,0-1.3,0.6-1.4,1.1L16.1,55c-0.1,0.4,0.2,0.7,0.6,0.7c0.6,0,1.2-0.5,1.5-1.2C18.4,53.9,18.4,53.4,17.7,53.4z"/>
	<path class="st1" d="M21.8,53.6l-0.5,1.6c-0.1,0.3,0.1,0.4,0.3,0.4c0,0,0.1,0,0.1,0l0,0.1c0,0,0,0.1-0.1,0.1h-0.2
		c-0.5,0-0.8-0.2-0.6-0.7l0.5-1.4c0.1-0.2,0.1-0.4,0.1-0.4c0-0.1,0.1-0.1,0.1-0.1h0.4c0.1,0,0.1,0,0.1,0.1
		C21.9,53.2,21.8,53.4,21.8,53.6 M21.8,52.4c-0.2,0-0.3-0.1-0.3-0.2c0.1-0.2,0.4-0.3,0.6-0.3c0.2,0,0.3,0.1,0.3,0.2
		C22.3,52.2,22,52.4,21.8,52.4z"/>
	<path class="st1" d="M26,53.6l-0.1,0.1c0,0-0.3-0.1-0.5-0.1c-0.4,0-1.1,0.7-1.4,1.6l-0.2,0.6l-0.1,0l-0.5-0.1c-0.1,0-0.1,0-0.1-0.1
		l0.6-1.9c0.1-0.2,0.1-0.4,0.1-0.6c0-0.1,0-0.1,0.1-0.1h0.4c0.1,0,0.1,0,0.1,0.1c0,0.1,0,0.2-0.1,0.4l-0.1,0.1c0,0,0.1,0.1,0.1,0
		c0.1-0.1,0.2-0.2,0.2-0.2c0.3-0.3,0.7-0.5,1.2-0.5c0.1,0,0.2,0,0.2,0.1c0,0,0,0.1,0,0.1L26,53.6"/>
	<path class="st1" d="M30,55.2c0,0.2,0,0.4,0,0.4c0,0.1,0,0.1-0.1,0.1h-0.5c-0.1,0-0.1,0-0.1-0.1c-0.1-0.2,0-0.4,0.1-0.5
		c0,0-0.1-0.1-0.1,0c-0.3,0.4-0.9,0.7-1.4,0.7c-0.7,0-1.3-0.3-1-1.3c0.3-0.8,1.3-1.4,2.2-1.4c0.8,0,1.3,0.4,1.1,0.9L30,55.2
		 M29.2,53.3c-0.6,0-1.2,0.5-1.5,1.2c-0.2,0.5-0.2,1,0.5,1c0.6,0,1.2-0.6,1.4-1.1l0.1-0.3C30.1,53.5,29.7,53.3,29.2,53.3z"/>
	<path class="st1" d="M35.1,55.2c-0.1,0.2,0,0.4,0,0.4c0,0.1,0,0.1-0.1,0.1h-0.4c-0.1,0-0.1,0-0.1-0.1c0,0,0-0.3,0.1-0.4
		c0.1-0.3,0.3-0.9,0.5-1.2c0.1-0.4,0.1-0.7-0.1-0.7c-0.8,0-1.8,1.3-2,1.9l-0.2,0.6l-0.1,0l-0.5-0.1c-0.1,0-0.1,0-0.1-0.1l0.6-1.9
		c0.1-0.2,0.1-0.4,0.1-0.6c0-0.1,0-0.1,0.1-0.1h0.4c0.1,0,0.1,0,0.1,0.1c0,0.1,0,0.3-0.1,0.6l-0.1,0.2c0,0.1,0.1,0.1,0.1,0
		c0.4-0.5,1-0.9,1.5-0.9c0.6,0,0.8,0.4,0.7,0.9C35.5,54.3,35.2,55,35.1,55.2"/>
	<path class="st1" d="M40,53.4c0,0-0.1,0.1-0.1,0.1l-1.1,0l-0.6,1.8c-0.1,0.3,0.1,0.4,0.3,0.4h0.2c0,0,0.1,0,0.1,0l0,0.1
		c0,0,0,0.1-0.1,0.1h-0.4c-0.5,0-0.8-0.2-0.6-0.7l0.6-1.6h-0.8l-0.1-0.1c0,0,0-0.2,0.1-0.2c0,0,0.1-0.1,0.1-0.1h0.8l0.2-0.6l0,0
		l0.5-0.1c0.1,0,0.2,0,0.1,0l-0.2,0.7H40c0,0,0.1,0,0.1,0L40,53.4"/>
	<path class="st1" d="M47.3,52.4l-0.7,2l-0.3,0.9c-0.1,0.2,0,0.4,0,0.4c0,0.1-0.1,0.1-0.1,0.1h-0.5c-0.1,0-0.1,0-0.1-0.1
		c0,0,0-0.2,0-0.3c0,0-0.1,0-0.1,0c-0.5,0.4-1,0.5-1.2,0.5c-0.7,0-1.4-0.3-1-1.3c0.3-0.8,1.3-1.4,2.2-1.4c0.3,0,0.5,0.1,0.7,0.1
		l0.1,0l0.3-0.8c0.1-0.2,0.1-0.4,0.1-0.6c0-0.1,0-0.1,0.1-0.1h0.4c0.1,0,0.1,0,0.1,0.1C47.4,52,47.4,52.1,47.3,52.4 M45.5,53.3
		c-0.6,0-1.2,0.5-1.5,1.2c-0.2,0.5-0.1,1,0.5,1c0.6,0,1.3-0.6,1.4-1.1l0.2-0.5C46.3,53.5,46,53.3,45.5,53.3z"/>
	<path class="st1" d="M49.1,55c0,0.3,0.2,0.6,0.6,0.6c0.4,0,0.8-0.2,1.1-0.4l0.1-0.1l0.1,0l0.2,0.1l0,0.1c-0.4,0.3-0.9,0.6-1.5,0.6
		c-0.9,0-1.4-0.5-1.1-1.4c0.2-0.7,1.2-1.4,2.1-1.4c0.8,0,1.2,0.3,1,0.8C51.3,54.3,50.4,54.8,49.1,55 M50.5,53.3
		c-0.6,0-1.1,0.5-1.3,1.2c0,0.1-0.1,0.2-0.1,0.3c1-0.1,1.7-0.5,1.9-1C51.1,53.5,50.9,53.3,50.5,53.3z"/>
	<path class="st1" d="M55.6,53.5c0,0.1-0.1,0.1-0.2,0c-0.3-0.2-0.6-0.3-1.1-0.3c-0.3,0-0.7,0.1-0.8,0.3c-0.2,0.6,2.2,0.4,1.8,1.4
		c-0.2,0.6-1,0.8-1.7,0.8c-0.7,0-1.1-0.1-1.3-0.2l0-0.1l0.3-0.3c0,0,0.1,0,0.1,0c0.2,0.3,0.6,0.4,1,0.4c0.4,0,0.9-0.1,1-0.5
		c0.1-0.3-0.4-0.5-0.9-0.6c-0.5-0.1-1-0.3-0.9-0.8c0.2-0.5,0.7-0.8,1.4-0.8c0.7,0,1.1,0.1,1.4,0.1l0,0.1L55.6,53.5"/>
	<path class="st1" d="M61,55.8c-0.3,0-0.5-0.1-0.7-0.1l-0.1,0l-0.2,0.7c-0.1,0.2-0.1,0.4-0.1,0.6c0,0.1,0,0.1-0.1,0.1h-0.4
		c-0.1,0-0.1,0-0.1-0.1c0-0.1,0-0.3,0.1-0.6l0.9-2.7c0.1-0.2,0.1-0.4,0.1-0.6c0-0.1,0-0.1,0.1-0.1h0.4c0.1,0,0.1,0,0.1,0.1
		c0,0.1,0,0.2-0.1,0.3c0,0,0.1,0,0.1,0c0.5-0.4,1-0.5,1.2-0.5c0.7,0,1.4,0.3,1,1.3C62.9,55.2,61.9,55.8,61,55.8 M62,53.4
		c-0.6,0-1.3,0.6-1.4,1.1L60.4,55c-0.1,0.4,0.2,0.7,0.6,0.7c0.6,0,1.2-0.5,1.5-1.2C62.7,53.9,62.6,53.4,62,53.4z"/>
	<path class="st1" d="M65.9,55.8c-0.9,0-1.5-0.6-1.2-1.4C65,53.6,66,53,66.9,53c0.9,0,1.5,0.6,1.2,1.4
		C67.8,55.3,66.9,55.8,65.9,55.8 M66.7,53.3c-0.7,0-1.1,0.4-1.3,1.2c-0.2,0.7,0,1.2,0.6,1.2c0.7,0,1.1-0.5,1.3-1.2
		C67.6,53.7,67.4,53.3,66.7,53.3z"/>
	<path class="st1" d="M72.4,53.5c0,0.1-0.1,0.1-0.2,0c-0.3-0.2-0.6-0.3-1.1-0.3c-0.3,0-0.7,0.1-0.8,0.3c-0.2,0.6,2.2,0.4,1.8,1.4
		c-0.2,0.6-1,0.8-1.7,0.8c-0.7,0-1.1-0.1-1.3-0.2l0-0.1l0.3-0.3c0,0,0.1,0,0.1,0c0.2,0.3,0.6,0.4,1,0.4c0.4,0,0.9-0.1,1-0.5
		c0.1-0.3-0.4-0.5-0.9-0.6c-0.5-0.1-1-0.3-0.9-0.8c0.2-0.5,0.7-0.8,1.4-0.8c0.7,0,1.1,0.1,1.4,0.1l0,0.1L72.4,53.5"/>
	<path class="st1" d="M76.8,53.5c0,0.1-0.1,0.1-0.2,0c-0.3-0.2-0.6-0.3-1.1-0.3c-0.3,0-0.7,0.1-0.8,0.3C74.6,54.2,77,54,76.6,55
		c-0.2,0.6-1,0.8-1.7,0.8c-0.7,0-1.1-0.1-1.3-0.2l0-0.1l0.3-0.3c0,0,0.1,0,0.1,0c0.2,0.3,0.6,0.4,1,0.4c0.4,0,0.9-0.1,1-0.5
		c0.1-0.3-0.4-0.5-0.9-0.6c-0.5-0.1-1-0.3-0.9-0.8c0.2-0.5,0.7-0.8,1.4-0.8c0.7,0,1.1,0.1,1.4,0.1l0,0.1L76.8,53.5"/>
	<path class="st1" d="M79.7,53.6l-0.5,1.6c-0.1,0.3,0.1,0.4,0.3,0.4c0,0,0.1,0,0.1,0l0,0.1c0,0,0,0.1-0.1,0.1h-0.2
		c-0.5,0-0.8-0.2-0.6-0.7l0.5-1.4c0.1-0.2,0.1-0.4,0.1-0.4c0-0.1,0.1-0.1,0.1-0.1h0.4c0.1,0,0.1,0,0.1,0.1
		C79.8,53.2,79.7,53.4,79.7,53.6 M79.7,52.4c-0.2,0-0.3-0.1-0.3-0.2c0.1-0.2,0.4-0.3,0.6-0.3c0.2,0,0.3,0.1,0.3,0.2
		C80.3,52.2,80,52.4,79.7,52.4z"/>
	<path class="st1" d="M82.5,55.8c-0.3,0-0.5-0.1-0.7-0.2l-0.1,0c-0.2,0-0.3,0.1-0.4,0.2c-0.1,0-0.2,0.1-0.2-0.1l1.1-3.3
		c0.1-0.2,0.1-0.4,0.1-0.6c0-0.1,0-0.1,0.1-0.1h0.4c0.1,0,0.1,0,0.1,0.1c0,0.1,0,0.3-0.1,0.6l-0.4,1.1c0,0,0.1,0.1,0.1,0
		c0.5-0.4,1-0.5,1.2-0.5c0.7,0,1.4,0.3,1,1.3C84.5,55.2,83.5,55.8,82.5,55.8 M83.6,53.3c-0.6,0-1.3,0.6-1.4,1.1L82,54.9
		c-0.1,0.4,0.1,0.7,0.6,0.7c0.6,0,1.2-0.5,1.5-1.2C84.3,53.9,84.2,53.3,83.6,53.3z"/>
	<path class="st1" d="M87.5,53.6L87,55.2c-0.1,0.3,0.1,0.4,0.3,0.4c0,0,0.1,0,0.1,0l0,0.1c0,0,0,0.1-0.1,0.1H87
		c-0.5,0-0.8-0.2-0.6-0.7l0.5-1.4c0.1-0.2,0.1-0.4,0.1-0.4c0-0.1,0.1-0.1,0.1-0.1h0.4c0.1,0,0.1,0,0.1,0.1
		C87.7,53.2,87.6,53.4,87.5,53.6 M87.5,52.4c-0.2,0-0.3-0.1-0.3-0.2c0.1-0.2,0.4-0.3,0.6-0.3c0.2,0,0.3,0.1,0.3,0.2
		C88.1,52.2,87.8,52.4,87.5,52.4z"/>
	<path class="st1" d="M90.7,52.3l-1,2.9c-0.1,0.3,0.1,0.4,0.3,0.4c0.1,0,0.1,0,0.1,0l0,0.1c0,0,0,0.1-0.1,0.1h-0.2
		c-0.5,0-0.8-0.2-0.6-0.7l0.9-2.8c0-0.2,0-0.4,0-0.4c0-0.1,0.1-0.1,0.1-0.1h0.4c0.1,0,0.1,0,0.1,0.1C90.8,51.8,90.8,52.1,90.7,52.3"
		/>
	<path class="st1" d="M93.3,53.6l-0.5,1.6c-0.1,0.3,0.1,0.4,0.3,0.4c0,0,0.1,0,0.1,0l0,0.1c0,0,0,0.1-0.1,0.1h-0.2
		c-0.5,0-0.8-0.2-0.6-0.7l0.5-1.4c0.1-0.2,0.1-0.4,0.1-0.4c0-0.1,0.1-0.1,0.1-0.1h0.4c0.1,0,0.1,0,0.1,0.1
		C93.4,53.2,93.3,53.4,93.3,53.6 M93.3,52.4c-0.2,0-0.3-0.1-0.3-0.2c0.1-0.2,0.4-0.3,0.6-0.3c0.2,0,0.3,0.1,0.3,0.2
		C93.9,52.2,93.5,52.4,93.3,52.4z"/>
	<path class="st1" d="M97.6,53.4c0,0-0.1,0.1-0.1,0.1l-1.1,0l-0.6,1.8c-0.1,0.3,0.1,0.4,0.3,0.4h0.2c0,0,0.1,0,0.1,0l0,0.1
		c0,0,0,0.1-0.1,0.1h-0.4c-0.5,0-0.8-0.2-0.6-0.7l0.6-1.6H95l-0.1-0.1c0,0,0-0.2,0.1-0.2c0,0,0.1-0.1,0.1-0.1h0.8l0.2-0.6l0,0
		l0.5-0.1c0.1,0,0.2,0,0.1,0l-0.2,0.7h1.1c0,0,0.1,0,0.1,0L97.6,53.4"/>
	<path class="st1" d="M99.3,55c0,0.3,0.2,0.6,0.6,0.6c0.4,0,0.8-0.2,1.1-0.4l0.1-0.1l0.1,0l0.2,0.1l0,0.1c-0.4,0.3-0.9,0.6-1.5,0.6
		c-0.9,0-1.4-0.5-1.1-1.4c0.2-0.7,1.2-1.4,2.1-1.4c0.8,0,1.2,0.3,1,0.8C101.6,54.3,100.6,54.8,99.3,55 M100.7,53.3
		c-0.6,0-1.1,0.5-1.3,1.2c0,0.1-0.1,0.2-0.1,0.3c1-0.1,1.7-0.5,1.9-1C101.3,53.5,101.1,53.3,100.7,53.3z M102.3,51.9l-2.1,0.8
		l-0.1,0l0-0.1l0-0.1l2-0.9c0.1,0,0.2,0,0.3,0.1C102.5,51.8,102.4,51.9,102.3,51.9z"/>
	<path class="st1" d="M105.9,53.5c0,0.1-0.1,0.1-0.2,0c-0.3-0.2-0.6-0.3-1.1-0.3c-0.3,0-0.7,0.1-0.8,0.3c-0.2,0.6,2.2,0.4,1.8,1.4
		c-0.2,0.6-1,0.8-1.7,0.8c-0.7,0-1.1-0.1-1.3-0.2l0-0.1l0.3-0.3c0,0,0.1,0,0.1,0c0.2,0.3,0.6,0.4,1,0.4c0.4,0,0.9-0.1,1-0.5
		c0.1-0.3-0.4-0.5-0.9-0.6c-0.5-0.1-1-0.3-0.9-0.8c0.2-0.5,0.7-0.8,1.4-0.8c0.7,0,1.1,0.1,1.4,0.1l0,0.1L105.9,53.5"/>
</g>
</svg>
