<?xml version="1.0" encoding="utf-8"?>
<!-- Generator: Adobe Illustrator 19.1.0, SVG Export Plug-In . SVG Version: 6.00 Build 0)  -->
<svg version="1.1" id="Layer_1" xmlns="http://www.w3.org/2000/svg" xmlns:xlink="http://www.w3.org/1999/xlink" x="0px" y="0px"
	 viewBox="0 0 152 35" enable-background="new 0 0 152 35" xml:space="preserve">
<g>
	<path fill="#0C81C3" d="M6.1,22c-2.4,0-4.9-1.5-4.9-5.9c0-3.6,2.3-5.7,4.9-5.7h3.1c0.2,0,0.2,0,0.2,0.2l-0.1,1.1
		c0,0.2-0.1,0.2-0.3,0.2c-0.9-0.3-1.5-0.5-2.9-0.5c-1.9,0-3,1.7-3,4.8C3,19.8,4.7,21,6.7,21c0.8,0,1.7-0.5,2.3-1.1
		c0,0,0.1-0.1,0.2,0l0.4,0.5c0.1,0.1,0.1,0.1,0,0.2C8.8,21.4,7.5,22,6.1,22"/>
	<path fill="#0C81C3" d="M14.5,22c-3.2,0-4.3-2.3-4.3-4.8c0-2.4,1.1-4.9,4.3-4.9c3.2,0,4.3,2.3,4.3,4.8C18.9,19.5,17.7,22,14.5,22
		 M14.5,13c-2.2,0-2.6,2.2-2.6,3.9c0,1.7,0.2,4.3,2.7,4.3c2.2,0,2.6-2.2,2.6-3.9C17.2,15.7,17,13,14.5,13z"/>
	<path fill="#0C81C3" d="M30.9,17.1v4.4c0,0.2-0.1,0.2-0.3,0.2h-0.9c-0.2,0-0.3-0.1-0.3-0.2l0-4.4v-2c0-0.1-0.1-0.1-0.2,0l-3.6,6.2
		c-0.1,0.2-0.3,0.2-0.4,0L21.9,15l-0.1,0l0.2,6.4c0,0.2-0.1,0.2-0.3,0.2H21c-0.2,0-0.3-0.1-0.3-0.2l0.2-6.3l0-2.4
		c0-0.2,0.1-0.2,0.3-0.2h1c0.1,0,0.2,0,0.3,0.2l3.3,6.4c0.1,0.1,0.2,0.1,0.2,0l3.4-6.3c0.1-0.1,0.2-0.3,0.4-0.3h0.9
		c0.2,0,0.3,0.1,0.3,0.3L30.9,17.1"/>
	<path fill="#0C81C3" d="M43.5,17.1v4.4c0,0.2-0.1,0.2-0.3,0.2h-0.9c-0.2,0-0.3-0.1-0.3-0.2l0-4.4v-2c0-0.1-0.1-0.1-0.2,0l-3.6,6.2
		c-0.1,0.2-0.3,0.2-0.4,0L34.6,15l-0.1,0l0.2,6.4c0,0.2-0.1,0.2-0.3,0.2h-0.8c-0.2,0-0.3-0.1-0.3-0.2l0.2-6.3l0-2.4
		c0-0.2,0.1-0.2,0.3-0.2h1c0.1,0,0.2,0,0.3,0.2l3.3,6.4c0.1,0.1,0.2,0.1,0.2,0l3.4-6.3c0.1-0.1,0.2-0.3,0.4-0.3h0.9
		c0.2,0,0.3,0.1,0.3,0.3L43.5,17.1"/>
	<path fill="#0C81C3" d="M53.1,13.9L53,19c-0.1,2-1.3,3-3.4,3c-2.4,0-3.8-1-3.9-3l-0.1-5.2l0-1c0-0.2,0.1-0.2,0.3-0.2h1
		c0.2,0,0.3,0.1,0.3,0.2l0,1l0,5c0,1.4,1.1,2.2,2.5,2.2c1.2,0,2.2-0.6,2.2-2l-0.1-5c0-0.5-0.1-1.1-0.1-1.1c0-0.2,0-0.3,0.2-0.3h1
		c0.2,0,0.2,0.2,0.2,0.3C53.2,12.9,53.2,13.5,53.1,13.9"/>
	<path fill="#0C81C3" d="M63.2,19.3l0,2.4c0,0.3-0.4,0.3-0.5,0.2l-5.9-7c-0.1-0.1-0.1,0-0.1,0l0.2,6.5c0,0.1,0,0.3-0.2,0.3h-0.9
		c-0.2,0-0.2-0.2-0.2-0.3l0.2-6.4l0-2.2c0-0.2,0.1-0.2,0.3-0.2h0.4c0.1,0,0.3,0.1,0.3,0.2l5.2,6.2c0.1,0.1,0.2,0,0.2,0l-0.2-6
		c0-0.1,0-0.3,0.2-0.3h0.8c0.2,0,0.2,0.2,0.2,0.3L63.2,19.3"/>
	<path fill="#0C81C3" d="M67,21.7h-1c-0.2,0-0.3-0.1-0.3-0.2l0-4.3l0-4.3c0-0.2,0.1-0.2,0.3-0.2h1c0.2,0,0.3,0.1,0.3,0.2l0,4.3
		l0,4.3C67.3,21.6,67.2,21.7,67,21.7"/>
	<path fill="#0C81C3" d="M76.2,13.4c0,0.2-0.1,0.2-0.3,0.2c0,0-1.8-0.2-2.6-0.2c-0.1,0-0.2,0.1-0.2,0.2v7.8c0,0.2-0.1,0.2-0.3,0.2
		h-1c-0.2,0-0.3-0.1-0.3-0.2v-7.8c0-0.1-0.1-0.2-0.2-0.2c-0.8,0-2.6,0.2-2.6,0.2c-0.1,0-0.3,0-0.3-0.2l-0.1-0.7
		c0-0.2,0.2-0.2,0.3-0.2h7.1c0.2,0,0.3,0.1,0.3,0.2L76.2,13.4"/>
	<path fill="#0C81C3" d="M81.6,17.6c-0.1,0.1-0.1,0.2-0.1,0.3l0,3.6c0,0.2-0.1,0.2-0.3,0.2h-1c-0.2,0-0.3-0.1-0.3-0.2l0-3.3
		c0-0.1,0-0.2-0.1-0.3l-3.7-5c-0.1-0.2-0.1-0.3,0.1-0.3h1.3c0.2,0,0.3,0.1,0.4,0.2l2.8,4.2H81l2.6-4.2c0.1-0.1,0.2-0.2,0.3-0.2h0.8
		c0.2,0,0.2,0.2,0.1,0.3L81.6,17.6"/>
	<path fill="#76BA43" d="M95.5,21.7h-6.2c-0.2,0-0.2-0.1-0.2-0.2l0-5.5l0-5.5c0-0.2,0.1-0.2,0.2-0.2h1.1c0.2,0,0.2,0.1,0.2,0.2
		l0,5.5l0,4.3c0,0.2,0.2,0.5,0.5,0.5h1.5c1,0,2.9-0.4,2.9-0.4c0.2,0,0.3,0,0.3,0.2v1C95.8,21.7,95.6,21.7,95.5,21.7"/>
	<path fill="#76BA43" d="M98.3,21.7h-1c-0.2,0-0.3-0.1-0.3-0.2l0-4.3l0-4.3c0-0.2,0.1-0.2,0.3-0.2h1c0.2,0,0.3,0.1,0.3,0.2l0,4.3
		l0,4.3C98.6,21.6,98.5,21.7,98.3,21.7"/>
	<path fill="#76BA43" d="M105,21.6c0,0.1-0.4,0.2-0.6,0.2c-0.2,0-0.5-0.1-0.6-0.2l-3.5-7.8l-0.5-1c-0.1-0.2,0-0.3,0.2-0.3h1.3
		c0.2,0,0.3,0.1,0.3,0.2l0.4,1l2.4,6.2h0.1l2.6-7.2c0.1-0.1,0.1-0.2,0.3-0.2h0.9c0.2,0,0.2,0.2,0.2,0.3L105,21.6"/>
	<path fill="#76BA43" d="M111,21.7h-1c-0.2,0-0.3-0.1-0.3-0.2l0-4.3l0-4.3c0-0.2,0.1-0.2,0.3-0.2h1c0.2,0,0.3,0.1,0.3,0.2l0,4.3
		l0,4.3C111.3,21.6,111.2,21.7,111,21.7"/>
	<path fill="#76BA43" d="M121.3,19.3l0,2.4c0,0.3-0.4,0.3-0.5,0.2l-5.9-7c-0.1-0.1-0.1,0-0.1,0l0.2,6.5c0,0.1,0,0.3-0.2,0.3H114
		c-0.2,0-0.2-0.2-0.2-0.3l0.2-6.4l0-2.2c0-0.2,0.1-0.2,0.3-0.2h0.4c0.1,0,0.3,0.1,0.3,0.2l5.2,6.2c0.1,0.1,0.2,0,0.2,0l-0.2-6
		c0-0.1,0-0.3,0.2-0.3h0.8c0.2,0,0.2,0.2,0.2,0.3L121.3,19.3"/>
	<path fill="#76BA43" d="M131.3,21.8c-0.2,0-0.6-0.4-0.6-0.4c-0.1-0.1-0.1-0.1-0.2,0c-0.6,0.3-1.6,0.6-2.5,0.6
		c-2.2,0-4.4-1.2-4.4-4.7c0-2.9,2-4.6,4.3-4.6h2.7c0.1,0,0.3,0,0.3,0.2l-0.1,0.9c0,0.2-0.2,0.2-0.3,0.2c-0.4-0.1-0.7-0.2-1.1-0.3
		c-0.4-0.1-0.8-0.1-1.5-0.1c-1.7,0-2.6,1.3-2.6,3.7c0,2.9,1.4,3.9,3.2,3.9c0.8,0,1.7-0.5,1.7-0.9c0-0.1-0.2-2.5-0.2-2.5
		c0,0,0-0.3,0-0.4c0-0.2,0.1-0.3,0.3-0.3h1.1c0.1,0,0.2,0.1,0.2,0.2v4.4C131.6,21.7,131.5,21.8,131.3,21.8"/>
	<path fill="#0C81C3" d="M4.4,31C2.6,31,2,29.6,2,28c0-1.5,0.6-3,2.4-3c1.8,0,2.4,1.4,2.4,3C6.8,29.5,6.2,31,4.4,31 M4.4,25.4
		c-1.3,0-1.5,1.4-1.5,2.5c0,1.1,0.1,2.7,1.6,2.7c1.3,0,1.5-1.4,1.5-2.5C6,27.1,5.8,25.4,4.4,25.4z"/>
	<path fill="#0C81C3" d="M11.3,30.8h-0.4c-0.1,0-0.1,0-0.1-0.1v-2.6c0-0.5-0.3-0.9-0.9-0.9c-0.4,0-1,0.3-1,0.7v2.7
		c0,0.1,0,0.1-0.1,0.1H8.3c-0.1,0-0.1,0-0.1-0.1V27c0-0.1,0-0.1,0.1-0.1h0.2c0.1,0,0.1,0,0.2,0.1l0.1,0.3l0.1,0
		c0.3-0.4,0.8-0.5,1.2-0.5c0.8,0,1.3,0.5,1.3,1.5v2.4C11.4,30.8,11.4,30.8,11.3,30.8"/>
	<path fill="#0C81C3" d="M15.2,27.3l-1.2,0V30c0,0.4,0.2,0.6,0.4,0.6h0.2c0.1,0,0.1,0,0.1,0.1v0.1c0,0.1,0,0.1-0.1,0.1h-0.4
		c-0.6,0-0.9-0.2-0.9-1.1v-2.4h-0.8l-0.1-0.1c0,0,0-0.2,0-0.3c0,0,0-0.1,0.1-0.1h0.8V26l0-0.1l0.5-0.2c0.1,0,0.2,0,0.2,0.1v1.1h1.2
		c0,0,0.1,0,0.1,0.1L15.2,27.3C15.3,27.3,15.2,27.3,15.2,27.3"/>
	<path fill="#0C81C3" d="M18.9,30.8l-0.2-0.2c-0.1-0.1-0.2-0.1-0.3,0c-0.3,0.2-0.8,0.4-1.2,0.4c-0.7,0-1.2-0.4-1.2-1
		c0-0.4,0.2-0.8,0.7-1c0.4-0.2,0.9-0.2,1.3-0.4c0.3-0.1,0.5-0.2,0.5-0.5v-0.2c0-0.5-0.3-0.7-0.6-0.7c-0.4,0-0.9,0.1-1.2,0.3
		c-0.1,0-0.1,0-0.1-0.1l0-0.4c0-0.1,0.1-0.1,0.1-0.1H18c0.7,0,1.2,0.4,1.2,1.4v2.5C19.1,30.9,18.9,30.8,18.9,30.8 M18.4,28.9
		C18.4,28.8,18.4,28.8,18.4,28.9c-0.1-0.1-1.2,0.3-1.3,0.3c-0.3,0.1-0.5,0.3-0.5,0.5c0,0.5,0.2,0.8,0.8,0.8c0.6,0,1.1-0.3,1.1-0.7
		V28.9z"/>
	<path fill="#0C81C3" d="M23,27.4c0,0.1-0.1,0.1-0.1,0.1c-0.2-0.1-0.3-0.2-0.7-0.2c-0.4,0-0.7,0.2-0.8,0.6v2.8c0,0.1,0,0.1-0.1,0.1
		h-0.4c-0.1,0-0.1,0-0.1-0.1V27c0-0.1,0-0.1,0.1-0.1H21c0.1,0,0.1,0,0.2,0.1l0.1,0.3l0.1,0c0.4-0.3,0.7-0.5,1-0.5h0.4
		c0.1,0,0.1,0,0.1,0.1L23,27.4"/>
	<path fill="#0C81C3" d="M24.4,25.8c-0.2,0-0.4-0.2-0.4-0.4c0-0.3,0.3-0.5,0.5-0.5c0.2,0,0.4,0.2,0.4,0.4
		C24.9,25.6,24.7,25.8,24.4,25.8 M25.2,30.8h-0.2c-0.6,0-0.9-0.2-0.9-1.1V27c0-0.1,0-0.1,0.1-0.1h0.4c0.1,0,0.1,0,0.1,0.1v3
		c0,0.4,0.2,0.6,0.4,0.6c0.1,0,0.1,0,0.1,0.1L25.2,30.8C25.3,30.8,25.3,30.8,25.2,30.8z"/>
	<path fill="#0C81C3" d="M28.1,30.9c-1,0-1.8-0.8-1.8-2.1c0-1.3,0.8-2.1,1.8-2.1c1,0,1.8,0.8,1.8,2.1C29.9,30.1,29.1,30.9,28.1,30.9
		 M28.1,27.1c-0.9,0-1.1,0.9-1.1,1.6s0.2,1.9,1.1,1.9c0.9,0,1.1-1,1.1-1.6C29.2,28.2,29,27.1,28.1,27.1z"/>
	<path fill="#0C81C3" d="M151,16.8c0.2,0,0.3-0.1,0.1-0.3l-3.9-3.8c-0.2-0.2-0.5-0.2-0.7-0.2L135.8,16c-0.2,0.1-0.2,0.1,0,0.1
		L151,16.8"/>
	<path fill="#0C81C3" d="M135.2,1c-0.2-0.2-0.4-0.1-0.5,0.1l-4.4,8.5c-0.1,0.2-0.2,0.4-0.2,0.5c0,0.1,0.1,0.1,0.3-0.1l7.3-5.9
		c0.2-0.1,0.2-0.4,0-0.5L135.2,1"/>
	<path fill="#0C81C3" d="M141.7,7.9c0.2-0.1,0.2-0.3,0.1-0.4l-3.1-3c-0.2-0.2-0.4-0.1-0.5,0l-4.8,6.4c-0.1,0.2-0.1,0.3,0.1,0.2
		L141.7,7.9"/>
	<path fill="#0C81C3" d="M146.2,12.2c0.2,0,0.3-0.2,0.1-0.3l-3.5-3.4c-0.2-0.2-0.4-0.2-0.6-0.1l-7.5,5c-0.2,0.1-0.2,0.2,0.1,0.2
		L146.2,12.2"/>
	<path fill="#76BA43" d="M151,17.2c0.2,0,0.3,0.1,0.1,0.3l-3.9,3.8c-0.2,0.2-0.5,0.2-0.7,0.2L135.8,18c-0.2-0.1-0.2-0.1,0-0.1
		L151,17.2"/>
	<path fill="#76BA43" d="M135.2,33c-0.2,0.2-0.4,0.1-0.5-0.1l-4.4-8.5c-0.1-0.2-0.2-0.4-0.2-0.5c0-0.1,0.1-0.1,0.3,0.1l7.3,5.9
		c0.2,0.1,0.2,0.4,0,0.5L135.2,33"/>
	<path fill="#76BA43" d="M141.7,26.1c0.2,0.1,0.2,0.3,0.1,0.4l-3.1,3c-0.2,0.2-0.4,0.1-0.5,0l-4.8-6.4c-0.1-0.2-0.1-0.3,0.1-0.2
		L141.7,26.1"/>
	<path fill="#76BA43" d="M146.2,21.9c0.2,0,0.3,0.2,0.1,0.3l-3.5,3.4c-0.2,0.2-0.4,0.2-0.6,0.1l-7.5-5c-0.2-0.1-0.2-0.2,0.1-0.2
		L146.2,21.9"/>
</g>
</svg>
