<?xml version="1.0" encoding="utf-8"?>
<!-- Generator: Adobe Illustrator 19.1.0, SVG Export Plug-In . SVG Version: 6.00 Build 0)  -->
<svg version="1.1" id="Layer_1" xmlns="http://www.w3.org/2000/svg" xmlns:xlink="http://www.w3.org/1999/xlink" x="250px" y="75px"
	 viewBox="0 0 250 75" enable-background="new 0 0 250 75" xml:space="preserve">
<g>
	<path fill="#0081C4" d="M11.2,35c-3.9,0-7.9-2.5-7.9-9.6c0-5.8,3.7-9.3,7.9-9.3h5c0.2,0,0.4,0.1,0.3,0.3l-0.2,1.8
		c0,0.2-0.2,0.4-0.5,0.3c-1.5-0.5-2.4-0.9-4.7-0.9c-3.1,0-4.9,2.7-4.9,7.8c0,6,2.6,8,5.9,8c1.2,0,2.7-0.8,3.7-1.7
		c0.1-0.1,0.2-0.1,0.3,0l0.6,0.7c0.1,0.1,0.1,0.2,0,0.3C15.5,34.1,13.5,35,11.2,35"/>
	<path fill="#0081C4" d="M24.8,35.1c-5.2,0-6.9-3.7-6.9-7.8c0-3.9,1.8-7.9,7-7.9c5.2,0,6.9,3.7,6.9,7.8C31.8,31.1,30,35.1,24.8,35.1
		 M24.8,20.6c-3.5,0-4.2,3.5-4.2,6.4c0,2.7,0.4,6.9,4.4,6.9c3.5,0,4.2-3.5,4.2-6.3C29.2,24.8,28.8,20.6,24.8,20.6z"/>
	<path fill="#0081C4" d="M51.3,27.2v7.1c0,0.2-0.2,0.4-0.4,0.4h-1.5c-0.3,0-0.5-0.1-0.5-0.4l0-7.1v-3.3c0-0.1-0.2-0.2-0.3,0L42.8,34
		c-0.2,0.2-0.5,0.2-0.6,0l-5.4-10.1l-0.2,0.1l0.3,10.4c0,0.2-0.2,0.4-0.4,0.4h-1.3c-0.3,0-0.4-0.1-0.4-0.4L35.1,24L35,20.2
		c0-0.2,0.2-0.4,0.4-0.4h1.6c0.2,0,0.4,0.1,0.5,0.2l5.3,10.3c0.1,0.1,0.3,0.1,0.3,0l5.6-10.1c0.1-0.2,0.3-0.4,0.6-0.4h1.5
		c0.3,0,0.5,0.2,0.5,0.5L51.3,27.2"/>
	<path fill="#0081C4" d="M71.8,27.2v7.1c0,0.2-0.2,0.4-0.4,0.4h-1.5c-0.3,0-0.5-0.1-0.5-0.4l0-7.1v-3.3c0-0.1-0.2-0.2-0.3,0L63.4,34
		c-0.2,0.2-0.5,0.2-0.6,0l-5.4-10.1l-0.2,0.1l0.3,10.4c0,0.2-0.2,0.4-0.4,0.4h-1.3c-0.3,0-0.4-0.1-0.4-0.4L55.6,24l-0.1-3.8
		c0-0.2,0.2-0.4,0.4-0.4h1.6c0.2,0,0.4,0.1,0.5,0.2l5.3,10.3c0.1,0.1,0.3,0.1,0.3,0l5.6-10.1c0.1-0.2,0.3-0.4,0.6-0.4h1.5
		c0.3,0,0.5,0.2,0.5,0.5L71.8,27.2"/>
	<path fill="#0081C4" d="M87.3,22l-0.2,8.1C87,33.4,85,35,81.6,35c-3.8,0-6.2-1.6-6.3-4.8l-0.1-8.4l0-1.6c0-0.2,0.2-0.4,0.5-0.4h1.7
		c0.3,0,0.5,0.1,0.5,0.4l-0.1,1.6l0,8.2c0,2.3,1.8,3.5,4,3.5c1.9,0,3.6-1,3.6-3.3l-0.1-8.2c0-0.7-0.1-1.8-0.1-1.8
		c0-0.2,0.1-0.5,0.4-0.5h1.6c0.3,0,0.4,0.2,0.4,0.5C87.4,20.3,87.4,21.3,87.3,22"/>
	<path fill="#0081C4" d="M103.6,30.6l0,3.9c0,0.5-0.6,0.4-0.8,0.3l-9.6-11.3c-0.1-0.1-0.2,0-0.2,0l0.3,10.6c0,0.2-0.1,0.5-0.4,0.5
		h-1.4c-0.3,0-0.4-0.2-0.4-0.5l0.3-10.4l-0.1-3.6c0-0.2,0.2-0.4,0.5-0.4h0.7c0.2,0,0.4,0.1,0.6,0.2l8.4,10c0.2,0.2,0.3,0.1,0.3-0.1
		l-0.3-9.7c0-0.2,0-0.5,0.4-0.5h1.3c0.3,0,0.4,0.2,0.4,0.5L103.6,30.6"/>
	<path fill="#0081C4" d="M109.9,34.6h-1.6c-0.3,0-0.4-0.1-0.4-0.4l0-7l0-7c0-0.2,0.2-0.4,0.4-0.4h1.6c0.3,0,0.5,0.1,0.5,0.4l0,7l0,7
		C110.3,34.5,110.2,34.6,109.9,34.6"/>
	<path fill="#0081C4" d="M124.7,21.2c0,0.3-0.2,0.3-0.4,0.3c0,0-2.9-0.3-4.3-0.3c-0.2,0-0.3,0.2-0.3,0.4v12.6c0,0.2-0.2,0.4-0.4,0.4
		h-1.6c-0.3,0-0.4-0.1-0.4-0.4V21.6c0-0.2-0.2-0.3-0.3-0.3c-1.4,0-4.3,0.3-4.3,0.3c-0.2,0-0.4,0-0.4-0.3l-0.1-1.1
		c0-0.2,0.2-0.3,0.5-0.3h11.6c0.3,0,0.6,0.1,0.5,0.3L124.7,21.2"/>
	<path fill="#0081C4" d="M133.5,27.9c-0.1,0.1-0.2,0.3-0.2,0.5l0,5.9c0,0.2-0.2,0.4-0.4,0.4h-1.6c-0.3,0-0.5-0.1-0.5-0.4l0-5.4
		c0-0.2-0.1-0.3-0.2-0.5l-6-8.1c-0.2-0.2-0.1-0.4,0.2-0.4h2.1c0.3,0,0.5,0.1,0.6,0.3l4.6,6.7h0.2l4.2-6.8c0.2-0.2,0.3-0.2,0.6-0.2
		h1.4c0.3,0,0.3,0.2,0.2,0.5L133.5,27.9"/>
	<path fill="#75BA43" d="M155.9,34.6h-10.1c-0.3,0-0.4-0.1-0.4-0.4l0-8.9l0-8.9c0-0.2,0.1-0.4,0.4-0.4h1.8c0.3,0,0.4,0.1,0.4,0.4
		l0,8.9l0,6.9c0,0.4,0.3,0.7,0.7,0.7h2.5c1.5,0,4.7-0.6,4.7-0.6c0.2,0,0.5,0,0.5,0.3v1.6C156.4,34.6,156.2,34.6,155.9,34.6"/>
	<path fill="#75BA43" d="M160.5,34.6H159c-0.3,0-0.4-0.1-0.4-0.4l0-7l0-7c0-0.2,0.2-0.4,0.4-0.4h1.6c0.3,0,0.5,0.1,0.5,0.4l0,7l0,7
		C161,34.5,160.9,34.6,160.5,34.6"/>
	<path fill="#75BA43" d="M171.4,34.5c-0.1,0.2-0.6,0.3-0.9,0.3c-0.3,0-0.8-0.1-0.9-0.3l-5.6-12.6l-0.8-1.6c-0.1-0.3,0-0.4,0.3-0.4
		h2.1c0.3,0,0.5,0.1,0.6,0.3l0.7,1.6l3.9,10h0.2l4.2-11.6c0.1-0.2,0.2-0.3,0.5-0.3h1.4c0.3,0,0.4,0.3,0.3,0.5L171.4,34.5"/>
	<path fill="#75BA43" d="M181,34.6h-1.6c-0.3,0-0.4-0.1-0.4-0.4l0-7l0-7c0-0.2,0.2-0.4,0.4-0.4h1.6c0.3,0,0.5,0.1,0.5,0.4l0,7l0,7
		C181.5,34.5,181.3,34.6,181,34.6"/>
	<path fill="#75BA43" d="M197.8,30.6l0,3.9c0,0.5-0.6,0.4-0.8,0.3l-9.6-11.3c-0.1-0.1-0.2,0-0.2,0l0.3,10.6c0,0.2-0.1,0.5-0.4,0.5
		h-1.4c-0.3,0-0.4-0.2-0.4-0.5l0.3-10.4l-0.1-3.6c0-0.2,0.2-0.4,0.5-0.4h0.7c0.2,0,0.4,0.1,0.6,0.2l8.4,10c0.2,0.2,0.3,0.1,0.3-0.1
		l-0.3-9.7c0-0.2,0-0.5,0.4-0.5h1.3c0.3,0,0.4,0.2,0.4,0.5L197.8,30.6"/>
	<path fill="#75BA43" d="M213.9,34.7c-0.3,0-1-0.6-1-0.6c-0.2-0.1-0.2-0.1-0.4,0c-1,0.5-2.6,0.9-4,0.9c-3.5,0-7.1-2-7.1-7.7
		c0-4.7,3.3-7.4,7-7.4h4.4c0.2,0,0.5,0.1,0.4,0.3l-0.2,1.4c0,0.3-0.2,0.4-0.5,0.3c-0.6-0.2-1.2-0.4-1.8-0.5
		c-0.6-0.1-1.3-0.2-2.4-0.2c-2.7,0-4.3,2-4.3,6c0,4.7,2.3,6.3,5.2,6.3c1.3,0,2.8-0.8,2.8-1.5c0-0.2-0.3-4-0.3-4c0,0-0.1-0.5-0.1-0.6
		c0-0.2,0.2-0.4,0.5-0.4h1.9c0.2,0,0.3,0.1,0.3,0.3v7.1C214.4,34.5,214.2,34.7,213.9,34.7"/>
	<path fill="#0081C4" d="M8.4,49.7c-2.9,0-3.9-2.3-3.9-4.8c0-2.5,1-4.9,3.9-4.9c2.9,0,3.9,2.3,3.9,4.8C12.3,47.2,11.3,49.7,8.4,49.7
		 M8.4,40.6c-2.1,0-2.4,2.3-2.4,4C6,46.3,6.2,49,8.5,49c2.1,0,2.4-2.3,2.4-4C10.9,43.3,10.7,40.6,8.4,40.6z"/>
	<path fill="#0081C4" d="M19.6,49.4h-0.7c-0.1,0-0.2-0.1-0.2-0.2V45c0-0.9-0.5-1.4-1.4-1.4c-0.6,0-1.7,0.4-1.7,1.2v4.4
		c0,0.1-0.1,0.2-0.2,0.2h-0.7c-0.1,0-0.2-0.1-0.2-0.2v-6.1c0-0.1,0.1-0.2,0.2-0.2h0.4c0.1,0,0.2,0.1,0.2,0.2l0.2,0.5l0.2,0
		c0.5-0.7,1.3-0.9,1.9-0.9c1.3,0,2.2,0.9,2.2,2.4v3.9C19.8,49.3,19.7,49.4,19.6,49.4"/>
	<path fill="#0081C4" d="M25.8,43.7l-1.9,0V48c0,0.6,0.3,0.9,0.7,0.9H25c0.1,0,0.1,0,0.1,0.1v0.2c0,0.1,0,0.1-0.1,0.1h-0.7
		c-0.9,0-1.5-0.4-1.5-1.8v-3.9h-1.4l-0.2-0.1c0-0.1,0-0.4,0-0.5c0-0.1,0.1-0.2,0.2-0.2h1.4v-1.4l0-0.1l0.8-0.4
		c0.2-0.1,0.3-0.1,0.3,0.1v1.8h1.9c0.1,0,0.2,0,0.2,0.1v0.5C26,43.7,25.9,43.7,25.8,43.7"/>
	<path fill="#0081C4" d="M31.8,49.3L31.5,49c-0.1-0.1-0.4-0.1-0.5,0c-0.6,0.4-1.2,0.6-2,0.6c-1.1,0-1.9-0.6-1.9-1.7
		c0-0.6,0.3-1.2,1.1-1.6c0.6-0.2,1.4-0.4,2.2-0.6c0.4-0.1,0.8-0.3,0.8-0.8v-0.3c0-0.8-0.4-1.1-0.9-1.1c-0.6,0-1.4,0.2-2,0.4
		c-0.1,0-0.2,0-0.2-0.1l-0.1-0.7c0-0.1,0.1-0.2,0.2-0.2h2.2c1.1,0,1.9,0.7,1.9,2.2v4.1C32.3,49.5,31.9,49.4,31.8,49.3 M31.2,46.3
		c0-0.1,0-0.1-0.1-0.1c0,0-1.9,0.6-2,0.6c-0.5,0.2-0.8,0.5-0.8,0.9c0,0.8,0.3,1.4,1.2,1.4c1,0,1.7-0.5,1.7-1.2V46.3z"/>
	<path fill="#0081C4" d="M38.5,43.8c0,0.1-0.1,0.2-0.2,0.1c-0.3-0.1-0.5-0.2-1.1-0.2c-0.6,0-1.1,0.3-1.4,0.9v4.5
		c0,0.1-0.1,0.2-0.2,0.2h-0.7c-0.1,0-0.2-0.1-0.2-0.2v-6.1c0-0.1,0.1-0.2,0.2-0.2h0.4c0.1,0,0.2,0.1,0.2,0.2l0.2,0.5l0.2,0
		c0.6-0.6,1.1-0.8,1.7-0.8h0.7c0.1,0,0.2,0,0.2,0.2L38.5,43.8"/>
	<path fill="#0081C4" d="M40.8,41.2c-0.4,0-0.6-0.2-0.6-0.6c0-0.5,0.4-0.8,0.9-0.8c0.4,0,0.6,0.2,0.6,0.6
		C41.7,40.8,41.2,41.2,40.8,41.2 M42.1,49.4h-0.3c-0.9,0-1.5-0.4-1.5-1.8v-4.5c0-0.1,0.1-0.2,0.2-0.2h0.7c0.1,0,0.2,0.1,0.2,0.2V48
		c0,0.6,0.3,0.9,0.7,0.9c0.1,0,0.1,0,0.1,0.1v0.2C42.3,49.4,42.3,49.4,42.1,49.4z"/>
	<path fill="#0081C4" d="M46.8,49.6c-1.7,0-3-1.4-3-3.4c0-2.1,1.3-3.4,3-3.4c1.6,0,3,1.3,3,3.4C49.7,48.2,48.4,49.6,46.8,49.6
		 M46.7,43.4c-1.4,0-1.7,1.4-1.7,2.5c0,1.2,0.3,3.1,1.8,3.1c1.4,0,1.7-1.6,1.7-2.7C48.5,45.2,48.2,43.4,46.7,43.4z"/>
	<path fill="#0081C4" d="M245.9,26.7c0.4,0,0.4-0.2,0.2-0.4l-6.3-6.2c-0.3-0.3-0.8-0.4-1.1-0.3l-17.5,5.5c-0.3,0.1-0.3,0.2,0,0.2
		L245.9,26.7"/>
	<path fill="#0081C4" d="M220.3,1.1c-0.3-0.3-0.6-0.2-0.8,0.1L212.4,15c-0.2,0.3-0.3,0.7-0.3,0.9c0,0.2,0.2,0.1,0.5-0.1l11.9-9.6
		c0.3-0.2,0.3-0.6,0-0.9L220.3,1.1"/>
	<path fill="#0081C4" d="M230.8,12.3c0.3-0.1,0.4-0.4,0.1-0.7l-5-4.9c-0.3-0.3-0.7-0.2-0.9,0.1l-7.8,10.4c-0.2,0.3-0.1,0.4,0.2,0.3
		L230.8,12.3"/>
	<path fill="#0081C4" d="M238,19.2c0.4,0,0.4-0.3,0.2-0.5l-5.7-5.6c-0.3-0.3-0.7-0.3-1-0.1l-12.1,8c-0.3,0.2-0.3,0.3,0.1,0.3
		L238,19.2"/>
	<path fill="#75BA43" d="M245.9,27.4c0.4,0,0.4,0.2,0.2,0.4l-6.3,6.2c-0.3,0.3-0.8,0.4-1.1,0.3l-17.5-5.5c-0.3-0.1-0.3-0.2,0-0.2
		L245.9,27.4"/>
	<path fill="#75BA43" d="M220.3,52.9c-0.3,0.3-0.6,0.2-0.8-0.1L212.4,39c-0.2-0.3-0.3-0.7-0.3-0.9c0-0.2,0.2-0.1,0.5,0.1l11.9,9.6
		c0.3,0.2,0.3,0.6,0,0.9L220.3,52.9"/>
	<path fill="#75BA43" d="M230.8,41.8c0.3,0.1,0.4,0.4,0.1,0.7l-5,4.9c-0.3,0.3-0.7,0.2-0.9-0.1l-7.8-10.4c-0.2-0.3-0.1-0.4,0.2-0.3
		L230.8,41.8"/>
	<path fill="#75BA43" d="M238,34.9c0.4,0,0.4,0.3,0.2,0.5l-5.7,5.6c-0.3,0.3-0.7,0.3-1,0.1l-12.1-8c-0.3-0.2-0.3-0.3,0.1-0.3
		L238,34.9"/>
	<path fill="#75BA43" d="M105.1,65.4l-0.9,4.1c0,0.1-0.1,0.2-0.2,0.2h-0.8c-0.1,0-0.2-0.1-0.1-0.2l0.9-4.1l0.9-4.1
		c0-0.1,0.1-0.2,0.2-0.2h0.8c0.1,0,0.2,0.1,0.1,0.2L105.1,65.4"/>
	<path fill="#75BA43" d="M112.5,68.5c-0.1,0.4-0.1,1-0.1,1c0,0.1-0.1,0.2-0.2,0.2h-0.7c-0.1,0-0.2-0.1-0.1-0.2c0,0,0-0.6,0.1-1
		c0.2-0.7,0.5-2,0.7-2.7c0.2-0.9,0.1-1.7-0.2-1.7c-1.2,0-2.9,3-3.1,4.2l-0.3,1.3l-0.1,0.1l-0.7-0.2c-0.1,0-0.1,0-0.1-0.2l1-4.3
		c0.1-0.5,0.2-1,0.1-1.2c0-0.1,0.1-0.2,0.2-0.2h0.7c0.1,0,0.2,0.1,0.2,0.2c0,0.3-0.1,0.7-0.2,1.2l-0.1,0.4c0,0.1,0.1,0.2,0.2,0.1
		c0.7-1.2,1.6-1.9,2.5-1.9c0.9,0,1.3,1,1.1,2.1C113.1,66.4,112.7,67.8,112.5,68.5"/>
	<path fill="#75BA43" d="M120.4,64.7c-0.1,0.1-0.2,0.1-0.2,0.1c-0.4-0.4-1-0.6-1.7-0.6c-0.5,0-1.1,0.2-1.2,0.8
		c-0.3,1.3,3.5,0.9,2.9,3.1c-0.3,1.3-1.6,1.8-2.8,1.8c-1.2,0-1.8-0.3-2.1-0.4l0-0.2l0.4-0.8c0.1-0.1,0.2-0.1,0.2,0
		c0.4,0.6,1,0.9,1.6,0.9c0.6,0,1.5-0.3,1.7-1c0.2-0.8-0.6-1-1.5-1.3c-0.8-0.3-1.6-0.7-1.4-1.7c0.3-1.1,1.2-1.7,2.3-1.7
		c1.2,0,1.8,0.2,2.2,0.3l0.1,0.1L120.4,64.7"/>
	<path fill="#75BA43" d="M125,69.8c-0.4,0-0.8-0.1-1.1-0.3l-0.2,0l-0.4,1.5c-0.1,0.5-0.2,1-0.1,1.2c0,0.1-0.1,0.2-0.2,0.2h-0.7
		c-0.1,0-0.2-0.1-0.2-0.2c0-0.3,0.1-0.7,0.2-1.2l1.4-6c0.1-0.5,0.2-1,0.1-1.2c0-0.1,0.1-0.2,0.2-0.2h0.7c0.1,0,0.2,0.1,0.2,0.2
		c0,0.2,0,0.5-0.1,0.8c0,0.1,0.1,0.1,0.2,0c0.7-0.9,1.6-1,1.9-1c1.1,0,2.2,0.6,1.6,3C128.1,68.5,126.5,69.8,125,69.8 M126.7,64.3
		c-1,0-2,1.3-2.3,2.4l-0.3,1.2c-0.2,0.8,0.2,1.5,1,1.5c1,0,2-1.1,2.4-2.7C127.8,65.5,127.7,64.3,126.7,64.3z"/>
	<path fill="#75BA43" d="M133.2,64.8l-0.9,3.6c-0.1,0.6,0.1,0.8,0.5,0.8c0.1,0,0.1,0,0.1,0.1l-0.1,0.2c0,0.1,0,0.1-0.1,0.1h-0.3
		c-0.9,0-1.3-0.4-1-1.6l0.8-3.2c0.1-0.4,0.2-1,0.2-1c0-0.1,0.1-0.2,0.2-0.2h0.7c0.1,0,0.2,0.1,0.1,0.2
		C133.4,63.8,133.2,64.4,133.2,64.8 M133.2,62c-0.3,0-0.5-0.2-0.5-0.6c0.1-0.4,0.6-0.8,1-0.8c0.3,0,0.5,0.2,0.5,0.6
		C134.1,61.7,133.6,62,133.2,62z"/>
	<path fill="#75BA43" d="M140,64.7l-0.2,0.1c-0.1,0-0.5-0.2-0.8-0.2c-0.6,0-1.7,1.5-2.2,3.6l-0.3,1.3l-0.1,0.1l-0.7-0.2
		c-0.1,0-0.1,0-0.1-0.2l1-4.3c0.1-0.5,0.2-1,0.1-1.2c0-0.1,0.1-0.2,0.2-0.2h0.7c0.1,0,0.2,0.1,0.2,0.2c0,0.3,0,0.4-0.1,1l-0.1,0.3
		c0,0.1,0.1,0.1,0.2,0.1c0.1-0.2,0.3-0.4,0.4-0.5c0.5-0.7,1.2-1.1,1.9-1.1c0.2,0,0.3,0.1,0.4,0.2c0,0.1,0.1,0.2,0,0.2L140,64.7"/>
	<path fill="#75BA43" d="M143.9,64.8l-0.9,3.6c-0.1,0.6,0.1,0.8,0.5,0.8c0.1,0,0.1,0,0.1,0.1l-0.1,0.2c0,0.1,0,0.1-0.1,0.1h-0.3
		c-0.9,0-1.3-0.4-1-1.6l0.8-3.2c0.1-0.4,0.2-1,0.2-1c0-0.1,0.1-0.2,0.2-0.2h0.7c0.1,0,0.2,0.1,0.1,0.2
		C144.1,63.8,144,64.4,143.9,64.8 M143.9,62c-0.3,0-0.5-0.2-0.5-0.6c0.1-0.4,0.6-0.8,1-0.8c0.3,0,0.5,0.2,0.5,0.6
		C144.8,61.7,144.3,62,143.9,62z"/>
	<path fill="#75BA43" d="M151.4,68.5c-0.1,0.4-0.1,1-0.1,1c0,0.1-0.1,0.2-0.2,0.2h-0.7c-0.1,0-0.2-0.1-0.1-0.2c0,0,0-0.6,0.1-1
		c0.2-0.7,0.5-2,0.7-2.7c0.2-0.9,0.1-1.7-0.2-1.7c-1.2,0-2.9,3-3.1,4.2l-0.3,1.3l-0.1,0.1l-0.7-0.2c-0.1,0-0.1,0-0.1-0.2l1-4.3
		c0.1-0.5,0.2-1,0.1-1.2c0-0.1,0.1-0.2,0.2-0.2h0.7c0.1,0,0.2,0.1,0.2,0.2c0,0.3-0.1,0.7-0.2,1.2l-0.1,0.4c0,0.1,0.1,0.2,0.2,0.1
		c0.7-1.2,1.6-1.9,2.5-1.9c0.9,0,1.3,1,1.1,2.1C152,66.4,151.6,67.8,151.4,68.5"/>
	<path fill="#75BA43" d="M159.2,70.6c-0.4,1.5-1.2,2.1-2.3,2.1h-1.3c-0.1,0-0.2,0-0.2-0.1l0.3-0.5c0.1-0.1,0.1-0.2,0.2-0.1
		c0,0,0.6,0.3,0.9,0.3c0.5,0,1-0.6,1.2-1.4l0.6-2.6c0-0.1-0.1-0.1-0.1,0c-0.6,0.9-1.4,1.5-2.3,1.5c-1.1,0-2.2-0.6-1.5-3
		c0.5-1.9,2.1-3.2,3.5-3.2c2.2,0,2,2.5,1.6,4.1L159.2,70.6 M158.3,64c-1,0-2,1.1-2.4,2.7c-0.3,1.1-0.2,2.3,0.8,2.3
		c1,0,2-1.3,2.3-2.4l0.1-0.6C159.4,64.9,159.1,64,158.3,64z"/>
	<path fill="#75BA43" d="M169.6,66h-0.9c-0.1,0-0.3,0.1-0.3,0.2l-0.7,3.2c0,0.1-0.1,0.2-0.2,0.2h-0.8c-0.1,0-0.2-0.1-0.1-0.2
		l0.9-4.1l0.9-4.1c0-0.1,0.1-0.2,0.2-0.2h2.8c1.4,0,2.7,0.6,2.4,2.4C173.4,64.9,172,66,169.6,66 M170.6,61.6h-0.8
		c-0.2,0-0.4,0.1-0.4,0.3l-0.7,3.2c0,0.1,0.1,0.3,0.2,0.3h0.7c1.3,0,2.5-0.4,2.9-2C172.7,62.2,172.2,61.6,170.6,61.6z"/>
	<path fill="#75BA43" d="M177.1,69.8c-1.5,0-2.4-1.3-1.9-3.2c0.5-1.9,1.9-3.2,3.4-3.2c1.5,0,2.4,1.2,1.9,3.2
		C180.1,68.5,178.6,69.8,177.1,69.8 M178.4,64.1c-1.1,0-1.8,1-2.1,2.6c-0.3,1.6,0,2.6,1,2.6c1.1,0,1.8-1.1,2.1-2.7
		C179.8,65,179.4,64,178.4,64.1z"/>
	<path fill="#75BA43" d="M187.4,64.7c-0.1,0.1-0.2,0.1-0.2,0.1c-0.4-0.4-1-0.6-1.7-0.6c-0.5,0-1.1,0.2-1.2,0.8
		c-0.3,1.3,3.5,0.9,2.9,3.1c-0.3,1.3-1.6,1.8-2.8,1.8c-1.2,0-1.8-0.3-2.1-0.4l0-0.2l0.4-0.8c0.1-0.1,0.2-0.1,0.2,0
		c0.4,0.6,1,0.9,1.6,0.9c0.6,0,1.5-0.3,1.7-1c0.2-0.8-0.6-1-1.5-1.3c-0.8-0.3-1.6-0.7-1.4-1.7c0.3-1.1,1.2-1.7,2.3-1.7
		c1.2,0,1.8,0.2,2.2,0.3l0.1,0.1L187.4,64.7"/>
	<path fill="#75BA43" d="M194.5,64.7c-0.1,0.1-0.2,0.1-0.2,0.1c-0.4-0.4-1-0.6-1.7-0.6c-0.5,0-1.1,0.2-1.2,0.8
		c-0.3,1.3,3.5,0.9,2.9,3.1c-0.3,1.3-1.6,1.8-2.8,1.8c-1.2,0-1.8-0.3-2.1-0.4l0-0.2l0.4-0.8c0.1-0.1,0.2-0.1,0.2,0
		c0.4,0.6,1,0.9,1.6,0.9c0.6,0,1.5-0.3,1.7-1c0.2-0.8-0.6-1-1.5-1.3c-0.8-0.3-1.6-0.7-1.4-1.7c0.3-1.1,1.2-1.7,2.3-1.7
		c1.2,0,1.8,0.2,2.2,0.3l0.1,0.1L194.5,64.7"/>
	<path fill="#75BA43" d="M199.2,64.8l-0.9,3.6c-0.1,0.6,0.1,0.8,0.5,0.8c0.1,0,0.1,0,0.1,0.1l-0.1,0.2c0,0.1,0,0.1-0.1,0.1h-0.3
		c-0.9,0-1.3-0.4-1-1.6l0.8-3.2c0.1-0.4,0.2-1,0.2-1c0-0.1,0.1-0.2,0.2-0.2h0.7c0.1,0,0.2,0.1,0.1,0.2
		C199.4,63.8,199.3,64.4,199.2,64.8 M199.2,62c-0.3,0-0.5-0.2-0.5-0.6c0.1-0.4,0.6-0.8,1-0.8c0.3,0,0.5,0.2,0.5,0.6
		C200.1,61.7,199.6,62,199.2,62z"/>
	<path fill="#75BA43" d="M203.8,69.7c-0.5,0-0.9-0.2-1.2-0.5l-0.2-0.1c-0.2,0-0.4,0.3-0.7,0.4c-0.1,0.1-0.4,0.1-0.3-0.1l1.8-7.4
		c0.1-0.5,0.2-1,0.1-1.2c0-0.1,0.1-0.2,0.2-0.2h0.7c0.1,0,0.2,0.1,0.2,0.2c0,0.3,0,0.7-0.2,1.2l-0.6,2.4c0,0.1,0.1,0.1,0.2,0
		c0.7-0.8,1.6-1,1.9-1c1.1,0,2.2,0.6,1.6,3C206.9,68.4,205.3,69.7,203.8,69.7 M205.4,64.2c-1,0-2,1.3-2.3,2.4l-0.3,1.2
		c-0.2,0.8,0.2,1.5,1,1.5c1,0,2-1.1,2.4-2.7C206.5,65.4,206.5,64.2,205.4,64.2z"/>
	<path fill="#75BA43" d="M211.8,64.8l-0.9,3.6c-0.1,0.6,0.1,0.8,0.5,0.8c0.1,0,0.1,0,0.1,0.1l-0.1,0.2c0,0.1,0,0.1-0.1,0.1H211
		c-0.9,0-1.3-0.4-1-1.6l0.8-3.2c0.1-0.4,0.2-1,0.2-1c0-0.1,0.1-0.2,0.2-0.2h0.7c0.1,0,0.2,0.1,0.1,0.2
		C212,63.8,211.8,64.4,211.8,64.8 M211.8,62c-0.3,0-0.5-0.2-0.5-0.6c0.1-0.4,0.6-0.8,1-0.8c0.3,0,0.5,0.2,0.5,0.6
		C212.7,61.7,212.2,62,211.8,62z"/>
	<path fill="#75BA43" d="M216.9,61.8l-1.6,6.6c-0.1,0.6,0.1,0.8,0.4,0.8c0.1,0,0.1,0,0.1,0.1l-0.1,0.2c0,0.1,0,0.1-0.1,0.1h-0.3
		c-0.9,0-1.3-0.4-1-1.6l1.5-6.2c0.1-0.4,0.1-0.9,0.1-0.9c0-0.1,0.1-0.2,0.2-0.2h0.7c0.1,0,0.2,0.1,0.1,0.2
		C217.1,60.8,217,61.4,216.9,61.8"/>
	<path fill="#75BA43" d="M221,64.8l-0.9,3.6c-0.1,0.6,0.1,0.8,0.5,0.8c0.1,0,0.1,0,0.1,0.1l-0.1,0.2c0,0.1,0,0.1-0.1,0.1h-0.3
		c-0.9,0-1.3-0.4-1-1.6l0.8-3.2c0.1-0.4,0.2-1,0.2-1c0-0.1,0.1-0.2,0.2-0.2h0.7c0.1,0,0.2,0.1,0.1,0.2
		C221.3,63.8,221.1,64.4,221,64.8 M221,62c-0.3,0-0.5-0.2-0.5-0.6c0.1-0.4,0.6-0.8,1-0.8c0.3,0,0.5,0.2,0.5,0.6
		C221.9,61.7,221.4,62,221,62z"/>
	<path fill="#75BA43" d="M228.2,64.2c0,0.1-0.1,0.1-0.2,0.1l-1.8,0l-1,4c-0.1,0.6,0.1,0.8,0.4,0.8h0.4c0.1,0,0.1,0,0.1,0.1l0,0.2
		c0,0.1-0.1,0.1-0.1,0.1h-0.6c-0.9,0-1.3-0.4-1-1.6l0.9-3.7H224l-0.1-0.1c0-0.1,0.1-0.3,0.1-0.4c0-0.1,0.1-0.1,0.2-0.1h1.3l0.3-1.3
		l0.1-0.1l0.8-0.3c0.2-0.1,0.3-0.1,0.2,0.1l-0.4,1.7h1.8c0.1,0,0.1,0,0.1,0.1L228.2,64.2"/>
	<path fill="#75BA43" d="M231.8,64.8l-0.9,3.6c-0.1,0.6,0.1,0.8,0.5,0.8c0.1,0,0.1,0,0.1,0.1l-0.1,0.2c0,0.1,0,0.1-0.1,0.1H231
		c-0.9,0-1.3-0.4-1-1.6l0.8-3.2c0.1-0.4,0.2-1,0.2-1c0-0.1,0.1-0.2,0.2-0.2h0.7c0.1,0,0.2,0.1,0.1,0.2
		C232.1,63.8,231.9,64.4,231.8,64.8 M231.8,62c-0.3,0-0.5-0.2-0.5-0.6c0.1-0.4,0.6-0.8,1-0.8c0.3,0,0.5,0.2,0.5,0.6
		C232.7,61.7,232.3,62,231.8,62z"/>
	<path fill="#75BA43" d="M235.5,67.9c0,0.8,0.4,1.3,1,1.3c0.6,0,1.3-0.4,1.8-0.9l0.1-0.1l0.1-0.1l0.3,0.3l0,0.1
		c-0.6,0.7-1.4,1.2-2.5,1.2c-1.4,0-2.3-1.2-1.8-3.1c0.4-1.6,1.9-3.1,3.4-3.1c1.2,0,1.9,0.6,1.6,1.8
		C239.2,66.4,237.6,67.6,235.5,67.9 M237.8,64c-1,0-1.7,1-2.1,2.6c-0.1,0.3-0.1,0.5-0.1,0.8c1.5-0.3,2.7-1.1,3-2.2
		C238.7,64.5,238.4,64,237.8,64z"/>
	<path fill="#75BA43" d="M246.1,64.7c-0.1,0.1-0.2,0.1-0.2,0.1c-0.4-0.4-1-0.6-1.7-0.6c-0.5,0-1.1,0.2-1.2,0.8
		c-0.3,1.3,3.5,0.9,2.9,3.1c-0.3,1.3-1.6,1.8-2.8,1.8c-1.2,0-1.8-0.3-2.1-0.4l0-0.2l0.4-0.8c0.1-0.1,0.2-0.1,0.2,0
		c0.4,0.6,1,0.9,1.6,0.9c0.6,0,1.5-0.3,1.7-1c0.2-0.8-0.6-1-1.5-1.3c-0.8-0.3-1.6-0.7-1.4-1.7c0.3-1.1,1.2-1.7,2.3-1.7
		c1.2,0,1.8,0.2,2.2,0.3l0.1,0.1L246.1,64.7"/>
	<path fill="#75BA43" d="M105.2,65.3l-0.9,4.1c0,0.1-0.1,0.2-0.2,0.2h-0.8c-0.1,0-0.2-0.1-0.1-0.2l0.9-4.1l0.9-4.1
		c0-0.1,0.1-0.2,0.2-0.2h0.8c0.1,0,0.2,0.1,0.1,0.2L105.2,65.3"/>
	<path fill="#75BA43" d="M112.6,68.4c-0.1,0.4-0.1,1-0.1,1c0,0.1-0.1,0.2-0.2,0.2h-0.7c-0.1,0-0.2-0.1-0.1-0.2c0,0,0-0.6,0.1-1
		c0.2-0.7,0.5-2,0.7-2.7c0.2-0.9,0.1-1.7-0.2-1.7c-1.2,0-2.9,3-3.1,4.2l-0.3,1.3l-0.1,0.1l-0.7-0.2c-0.1,0-0.1,0-0.1-0.2l1-4.3
		c0.1-0.5,0.2-1,0.1-1.2c0-0.1,0.1-0.2,0.2-0.2h0.7c0.1,0,0.2,0.1,0.2,0.2c0,0.3-0.1,0.7-0.2,1.2l-0.1,0.4c0,0.1,0.1,0.2,0.2,0.1
		c0.7-1.2,1.6-1.9,2.5-1.9c0.9,0,1.3,1,1.1,2.1C113.2,66.3,112.7,67.7,112.6,68.4"/>
	<path fill="#75BA43" d="M120.5,64.6c-0.1,0.1-0.2,0.1-0.2,0.1c-0.4-0.4-1-0.6-1.7-0.6c-0.5,0-1.1,0.2-1.2,0.8
		c-0.3,1.3,3.5,0.9,2.9,3.1c-0.3,1.3-1.6,1.8-2.8,1.8c-1.2,0-1.8-0.3-2.1-0.4l0-0.2l0.4-0.8c0.1-0.1,0.2-0.1,0.2,0
		c0.4,0.6,1,0.9,1.6,0.9c0.6,0,1.5-0.3,1.7-1c0.2-0.8-0.6-1-1.5-1.3c-0.8-0.3-1.6-0.7-1.4-1.7c0.3-1.1,1.2-1.7,2.3-1.7
		c1.2,0,1.8,0.2,2.2,0.3l0.1,0.1L120.5,64.6"/>
	<path fill="#75BA43" d="M125,69.7c-0.4,0-0.8-0.1-1.1-0.3l-0.2,0l-0.4,1.5c-0.1,0.5-0.2,1-0.1,1.2c0,0.1-0.1,0.2-0.2,0.2h-0.7
		c-0.1,0-0.2-0.1-0.2-0.2c0-0.3,0.1-0.7,0.2-1.2l1.4-6c0.1-0.5,0.2-1,0.1-1.2c0-0.1,0.1-0.2,0.2-0.2h0.7c0.1,0,0.2,0.1,0.2,0.2
		c0,0.2,0,0.5-0.1,0.8c0,0.1,0.1,0.1,0.2,0c0.7-0.9,1.6-1,1.9-1c1.1,0,2.2,0.6,1.6,3C128.2,68.4,126.5,69.7,125,69.7 M126.7,64.2
		c-1,0-2,1.3-2.3,2.4l-0.3,1.2c-0.2,0.8,0.2,1.5,1,1.5c1,0,2-1.1,2.4-2.7C127.8,65.4,127.7,64.2,126.7,64.2z"/>
	<path fill="#75BA43" d="M133.2,64.7l-0.9,3.6c-0.1,0.6,0.1,0.8,0.5,0.8c0.1,0,0.1,0,0.1,0.1l-0.1,0.2c0,0.1,0,0.1-0.1,0.1h-0.3
		c-0.9,0-1.3-0.4-1-1.6l0.8-3.2c0.1-0.4,0.2-1,0.2-1c0-0.1,0.1-0.2,0.2-0.2h0.7c0.1,0,0.2,0.1,0.1,0.2
		C133.5,63.7,133.3,64.3,133.2,64.7 M133.2,62c-0.3,0-0.5-0.2-0.5-0.6c0.1-0.4,0.6-0.8,1-0.8c0.3,0,0.5,0.2,0.5,0.6
		C134.1,61.6,133.6,62,133.2,62z"/>
	<path fill="#75BA43" d="M140.1,64.6l-0.2,0.1c-0.1,0-0.5-0.2-0.8-0.2c-0.6,0-1.7,1.5-2.2,3.6l-0.3,1.3l-0.1,0.1l-0.7-0.2
		c-0.1,0-0.1,0-0.1-0.2l1-4.3c0.1-0.5,0.2-1,0.1-1.2c0-0.1,0.1-0.2,0.2-0.2h0.7c0.1,0,0.2,0.1,0.2,0.2c0,0.3,0,0.4-0.1,1l-0.1,0.3
		c0,0.1,0.1,0.1,0.2,0.1c0.1-0.2,0.3-0.4,0.4-0.5c0.5-0.7,1.2-1.1,1.9-1.1c0.2,0,0.3,0.1,0.4,0.2c0,0.1,0.1,0.2,0,0.2L140.1,64.6"/>
	<path fill="#75BA43" d="M143.9,64.7l-0.9,3.6c-0.1,0.6,0.1,0.8,0.5,0.8c0.1,0,0.1,0,0.1,0.1l-0.1,0.2c0,0.1,0,0.1-0.1,0.1h-0.3
		c-0.9,0-1.3-0.4-1-1.6l0.8-3.2c0.1-0.4,0.2-1,0.2-1c0-0.1,0.1-0.2,0.2-0.2h0.7c0.1,0,0.2,0.1,0.1,0.2
		C144.2,63.7,144,64.3,143.9,64.7 M143.9,62c-0.3,0-0.5-0.2-0.5-0.6c0.1-0.4,0.6-0.8,1-0.8c0.3,0,0.5,0.2,0.5,0.6
		C144.8,61.6,144.4,62,143.9,62z"/>
	<path fill="#75BA43" d="M151.4,68.4c-0.1,0.4-0.1,1-0.1,1c0,0.1-0.1,0.2-0.2,0.2h-0.7c-0.1,0-0.2-0.1-0.1-0.2c0,0,0-0.6,0.1-1
		c0.2-0.7,0.5-2,0.7-2.7c0.2-0.9,0.1-1.7-0.2-1.7c-1.2,0-2.9,3-3.1,4.2l-0.3,1.3l-0.1,0.1l-0.7-0.2c-0.1,0-0.1,0-0.1-0.2l1-4.3
		c0.1-0.5,0.2-1,0.1-1.2c0-0.1,0.1-0.2,0.2-0.2h0.7c0.1,0,0.2,0.1,0.2,0.2c0,0.3-0.1,0.7-0.2,1.2l-0.1,0.4c0,0.1,0.1,0.2,0.2,0.1
		c0.7-1.2,1.6-1.9,2.5-1.9c0.9,0,1.3,1,1.1,2.1C152,66.3,151.6,67.7,151.4,68.4"/>
	<path fill="#75BA43" d="M159.2,70.5c-0.4,1.5-1.2,2.1-2.3,2.1h-1.3c-0.1,0-0.2,0-0.2-0.1l0.3-0.5c0.1-0.1,0.1-0.2,0.2-0.1
		c0,0,0.6,0.3,0.9,0.3c0.5,0,1-0.6,1.2-1.4l0.6-2.6c0-0.1-0.1-0.1-0.1,0c-0.6,0.9-1.4,1.5-2.3,1.5c-1.1,0-2.2-0.6-1.5-3
		c0.5-1.9,2.1-3.2,3.5-3.2c2.2,0,2,2.5,1.6,4.1L159.2,70.5 M158.3,63.9c-1,0-2,1.1-2.4,2.7c-0.3,1.1-0.2,2.3,0.8,2.3
		c1,0,2-1.3,2.3-2.4l0.1-0.6C159.4,64.8,159.1,63.9,158.3,63.9z"/>
	<path fill="#75BA43" d="M169.6,65.9h-0.9c-0.1,0-0.3,0.1-0.3,0.2l-0.7,3.2c0,0.1-0.1,0.2-0.2,0.2h-0.8c-0.1,0-0.2-0.1-0.1-0.2
		l0.9-4.1l0.9-4.1c0-0.1,0.1-0.2,0.2-0.2h2.8c1.4,0,2.7,0.6,2.4,2.4C173.4,64.8,172,65.9,169.6,65.9 M170.6,61.6h-0.8
		c-0.2,0-0.4,0.1-0.4,0.3l-0.7,3.2c0,0.1,0.1,0.3,0.2,0.3h0.7c1.3,0,2.5-0.4,2.9-2C172.7,62.1,172.2,61.6,170.6,61.6z"/>
	<path fill="#75BA43" d="M177.1,69.7c-1.5,0-2.4-1.3-1.9-3.2c0.5-1.9,1.9-3.2,3.4-3.2c1.5,0,2.4,1.2,1.9,3.2
		C180.1,68.4,178.6,69.7,177.1,69.7 M178.4,64c-1.1,0-1.8,1-2.1,2.6c-0.3,1.6,0,2.6,1,2.6c1.1,0,1.8-1.1,2.1-2.7
		C179.8,64.9,179.4,63.9,178.4,64z"/>
	<path fill="#75BA43" d="M187.4,64.6c-0.1,0.1-0.2,0.1-0.2,0.1c-0.4-0.4-1-0.6-1.7-0.6c-0.5,0-1.1,0.2-1.2,0.8
		c-0.3,1.3,3.5,0.9,2.9,3.1c-0.3,1.3-1.6,1.8-2.8,1.8c-1.2,0-1.8-0.3-2.1-0.4l0-0.2l0.4-0.8c0.1-0.1,0.2-0.1,0.2,0
		c0.4,0.6,1,0.9,1.6,0.9c0.6,0,1.5-0.3,1.7-1c0.2-0.8-0.6-1-1.5-1.3c-0.8-0.3-1.6-0.7-1.4-1.7c0.3-1.1,1.2-1.7,2.3-1.7
		c1.2,0,1.8,0.2,2.2,0.3l0.1,0.1L187.4,64.6"/>
	<path fill="#75BA43" d="M194.5,64.6c-0.1,0.1-0.2,0.1-0.2,0.1c-0.4-0.4-1-0.6-1.7-0.6c-0.5,0-1.1,0.2-1.2,0.8
		c-0.3,1.3,3.5,0.9,2.9,3.1c-0.3,1.3-1.6,1.8-2.8,1.8c-1.2,0-1.8-0.3-2.1-0.4l0-0.2l0.4-0.8c0.1-0.1,0.2-0.1,0.2,0
		c0.4,0.6,1,0.9,1.6,0.9c0.6,0,1.5-0.3,1.7-1c0.2-0.8-0.6-1-1.5-1.3c-0.8-0.3-1.6-0.7-1.4-1.7c0.3-1.1,1.2-1.7,2.3-1.7
		c1.2,0,1.8,0.2,2.2,0.3l0.1,0.1L194.5,64.6"/>
	<path fill="#75BA43" d="M199.2,64.7l-0.9,3.6c-0.1,0.6,0.1,0.8,0.5,0.8c0.1,0,0.1,0,0.1,0.1l-0.1,0.2c0,0.1,0,0.1-0.1,0.1h-0.3
		c-0.9,0-1.3-0.4-1-1.6l0.8-3.2c0.1-0.4,0.2-1,0.2-1c0-0.1,0.1-0.2,0.2-0.2h0.7c0.1,0,0.2,0.1,0.1,0.2
		C199.4,63.7,199.3,64.3,199.2,64.7 M199.2,62c-0.3,0-0.5-0.2-0.5-0.6c0.1-0.4,0.6-0.8,1-0.8c0.3,0,0.5,0.2,0.5,0.6
		C200.1,61.6,199.6,62,199.2,62z"/>
	<path fill="#75BA43" d="M203.8,69.6c-0.5,0-0.9-0.2-1.2-0.5l-0.2-0.1c-0.2,0-0.4,0.3-0.7,0.4c-0.1,0.1-0.4,0.1-0.3-0.1l1.8-7.4
		c0.1-0.5,0.2-1,0.1-1.2c0-0.1,0.1-0.2,0.2-0.2h0.7c0.1,0,0.2,0.1,0.2,0.2c0,0.3,0,0.7-0.2,1.2l-0.6,2.4c0,0.1,0.1,0.1,0.2,0
		c0.7-0.8,1.6-1,1.9-1c1.1,0,2.2,0.6,1.6,3C206.9,68.3,205.3,69.6,203.8,69.6 M205.4,64.1c-1,0-2,1.3-2.3,2.4l-0.3,1.2
		c-0.2,0.8,0.2,1.5,1,1.5c1,0,2-1.1,2.4-2.7C206.5,65.3,206.4,64.1,205.4,64.1z"/>
	<path fill="#75BA43" d="M211.7,64.7l-0.9,3.6c-0.1,0.6,0.1,0.8,0.5,0.8c0.1,0,0.1,0,0.1,0.1l-0.1,0.2c0,0.1,0,0.1-0.1,0.1h-0.3
		c-0.9,0-1.3-0.4-1-1.6l0.8-3.2c0.1-0.4,0.2-1,0.2-1c0-0.1,0.1-0.2,0.2-0.2h0.7c0.1,0,0.2,0.1,0.1,0.2
		C212,63.7,211.8,64.3,211.7,64.7 M211.8,62c-0.3,0-0.5-0.2-0.5-0.6c0.1-0.4,0.6-0.8,1-0.8c0.3,0,0.5,0.2,0.5,0.6
		C212.7,61.6,212.2,62,211.8,62z"/>
	<path fill="#75BA43" d="M216.9,61.7l-1.6,6.6c-0.1,0.6,0.1,0.8,0.4,0.8c0.1,0,0.1,0,0.1,0.1l-0.1,0.2c0,0.1,0,0.1-0.1,0.1h-0.3
		c-0.9,0-1.3-0.4-1-1.6l1.5-6.2c0.1-0.4,0.1-0.9,0.1-0.9c0-0.1,0.1-0.2,0.2-0.2h0.7c0.1,0,0.2,0.1,0.1,0.2
		C217,60.7,217,61.3,216.9,61.7"/>
	<path fill="#75BA43" d="M221,64.7l-0.9,3.6c-0.1,0.6,0.1,0.8,0.5,0.8c0.1,0,0.1,0,0.1,0.1l-0.1,0.2c0,0.1,0,0.1-0.1,0.1h-0.3
		c-0.9,0-1.3-0.4-1-1.6l0.8-3.2c0.1-0.4,0.2-1,0.2-1c0-0.1,0.1-0.2,0.2-0.2h0.7c0.1,0,0.2,0.1,0.1,0.2
		C221.2,63.7,221.1,64.3,221,64.7 M221,62c-0.3,0-0.5-0.2-0.5-0.6c0.1-0.4,0.6-0.8,1-0.8c0.3,0,0.5,0.2,0.5,0.6
		C221.9,61.6,221.4,62,221,62z"/>
	<path fill="#75BA43" d="M228.2,64.1c0,0.1-0.1,0.1-0.2,0.1l-1.8,0l-1,4c-0.1,0.6,0.1,0.8,0.4,0.8h0.4c0.1,0,0.1,0,0.1,0.1l0,0.2
		c0,0.1-0.1,0.1-0.1,0.1h-0.6c-0.9,0-1.3-0.4-1-1.6l0.9-3.6h-1.3l-0.1-0.1c0-0.1,0.1-0.3,0.1-0.4c0-0.1,0.1-0.1,0.2-0.1h1.3l0.3-1.3
		l0.1-0.1l0.8-0.3c0.2-0.1,0.3-0.1,0.2,0.1l-0.4,1.7h1.8c0.1,0,0.1,0,0.1,0.1L228.2,64.1"/>
	<path fill="#75BA43" d="M231.8,64.7l-0.9,3.6c-0.1,0.6,0.1,0.8,0.5,0.8c0.1,0,0.1,0,0.1,0.1l-0.1,0.2c0,0.1,0,0.1-0.1,0.1H231
		c-0.9,0-1.3-0.4-1-1.6l0.8-3.2c0.1-0.4,0.2-1,0.2-1c0-0.1,0.1-0.2,0.2-0.2h0.7c0.1,0,0.2,0.1,0.1,0.2
		C232,63.7,231.9,64.3,231.8,64.7 M231.8,62c-0.3,0-0.5-0.2-0.5-0.6c0.1-0.4,0.6-0.8,1-0.8c0.3,0,0.5,0.2,0.5,0.6
		C232.7,61.6,232.2,62,231.8,62z"/>
	<path fill="#75BA43" d="M235.5,67.8c0,0.8,0.4,1.3,1,1.3c0.6,0,1.3-0.4,1.8-0.9l0.1-0.1l0.1-0.1l0.3,0.3l0,0.1
		c-0.6,0.7-1.4,1.2-2.5,1.2c-1.4,0-2.3-1.2-1.8-3.1c0.4-1.6,1.9-3.1,3.3-3.1c1.2,0,1.9,0.6,1.6,1.8
		C239.1,66.3,237.6,67.5,235.5,67.8 M237.7,63.9c-1,0-1.7,1-2.1,2.6c-0.1,0.3-0.1,0.5-0.1,0.8c1.5-0.3,2.7-1.1,3-2.2
		C238.7,64.4,238.4,63.9,237.7,63.9z"/>
	<path fill="#75BA43" d="M246,64.6c-0.1,0.1-0.2,0.1-0.2,0.1c-0.4-0.4-1-0.6-1.7-0.6c-0.5,0-1.1,0.2-1.2,0.8
		c-0.3,1.3,3.5,0.9,2.9,3.1c-0.3,1.3-1.6,1.8-2.8,1.8c-1.2,0-1.8-0.3-2.1-0.4l0-0.2l0.4-0.8c0.1-0.1,0.2-0.1,0.2,0
		c0.4,0.6,1,0.9,1.6,0.9c0.6,0,1.5-0.3,1.7-1c0.2-0.8-0.6-1-1.5-1.3c-0.8-0.3-1.6-0.7-1.4-1.7c0.3-1.1,1.2-1.7,2.3-1.7
		c1.2,0,1.8,0.2,2.2,0.3l0.1,0.1L246,64.6"/>
</g>
</svg>
