<?xml version="1.0" encoding="utf-8"?>
<!-- Generator: Adobe Illustrator 19.1.0, SVG Export Plug-In . SVG Version: 6.00 Build 0)  -->
<svg version="1.1" id="Layer_1" xmlns="http://www.w3.org/2000/svg" xmlns:xlink="http://www.w3.org/1999/xlink" x="0px" y="0px"
	 viewBox="0 0 584 64" style="enable-background:new 0 0 584 64;" xml:space="preserve">
<metadata><?xpacket begin="﻿" id="W5M0MpCehiHzreSzNTczkc9d"?>
<x:xmpmeta xmlns:x="adobe:ns:meta/" x:xmptk="Adobe XMP Core 5.6-c067 79.157747, 2015/03/30-23:40:42        ">
   <rdf:RDF xmlns:rdf="http://www.w3.org/1999/02/22-rdf-syntax-ns#">
      <rdf:Description rdf:about=""/>
   </rdf:RDF>
</x:xmpmeta>
                                                                                                    
                                                                                                    
                                                                                                    
                                                                                                    
                                                                                                    
                                                                                                    
                                                                                                    
                                                                                                    
                                                                                                    
                                                                                                    
                                                                                                    
                                                                                                    
                                                                                                    
                                                                                                    
                                                                                                    
                                                                                                    
                                                                                                    
                                                                                                    
                                                                                                    
                                                                                                    
                           
<?xpacket end="w"?></metadata>
<style type="text/css">
	.st0{fill:#82BC00;}
	.st1{fill:#E3EEC5;}
</style>
<g>
	<g>
		<g>
			<g>
				<path class="st0" d="M275,62.5c0.4-0.7,1-0.9,1.9-0.8c0-6.9,0-14.8,0-21.8c0.3,0,0.5,0,0.7,0c4.5,0,9,0,13.5,0
					c1.2,0,2.3-0.4,3.2-1.3c3.2-3.1,6.4-6.2,9.5-9.3c0.1-0.1,0.3-0.3,0.5-0.4c1.1,1.1,2.2,2.1,3.3,3.2c2.2,2.2,4.5,4.3,6.7,6.5
					c0.9,0.9,2,1.4,3.3,1.4c4.5,0,8.9,0,13.4,0c0.2,0,0.4,0,0.7,0c0,6.9,0,14.8,0,21.7c1.8,0.3,1.9-0.7,1.9,1.2
					c0,1.2-0.4,0.6-1.6,0.6c-18.4,0-36.9,0-55.3,0c-0.7,0-1.2,0.8-1.6,0.2C275,63,275,63.2,275,62.5z M303.2,36.3
					c-2.2,0.2-3.9,2.5-3.7,5c0.1,2.4,2.3,4.3,4.8,4.3c2.4,0,4.5-2,4.6-4.3c0.1-2.5-1.6-4.7-3.7-5c0,0.1,0,0.2,0,0.3
					c0,1.4,0,2.8,0,4.1c0,0.7-0.4,1.1-1.1,1.1c-0.6,0-1.3,0-1.9,0c-0.6,0-0.7-0.2-0.7-0.9c0-0.7,0.2-0.9,0.7-0.9c0.4,0,0.7,0,1.1,0
					C303.2,38.7,303.2,37.5,303.2,36.3z M307,60.7c0-2.3,0.1-4.7,0-7c-0.1-1.5-1.5-2.5-3.1-2.4c-1.4,0.1-2.5,1.4-2.5,2.8
					c0,2.1,0,4.1,0,6.2c0,0.1,0,0.3,0,0.4C303.3,60.7,305.1,60.7,307,60.7z M286.3,45.7c-1.3,0-2.5,0-3.7,0c0,1.3,0,2.5,0,3.7
					c1.3,0,2.5,0,3.7,0C286.3,48.1,286.3,46.9,286.3,45.7z M295.7,45.6c-1.3,0-2.5,0-3.7,0c0,1.3,0,2.5,0,3.7c1.3,0,2.5,0,3.7,0
					C295.7,48.1,295.7,46.9,295.7,45.6z M312.7,49.4c1.3,0,2.5,0,3.7,0c0-1.3,0-2.5,0-3.7c-1.3,0-2.5,0-3.7,0
					C312.7,46.9,312.7,48.1,312.7,49.4z M325.9,45.7c-1.3,0-2.5,0-3.7,0c0,1.3,0,2.5,0,3.7c1.3,0,2.5,0,3.7,0
					C325.9,48.1,325.9,46.9,325.9,45.7z M282.5,56.9c1.3,0,2.5,0,3.7,0c0-1.3,0-2.5,0-3.7c-1.3,0-2.5,0-3.7,0
					C282.5,54.4,282.5,55.6,282.5,56.9z M295.7,56.9c0-1.3,0-2.5,0-3.7c-1.3,0-2.5,0-3.7,0c0,1.3,0,2.5,0,3.7
					C293.2,56.9,294.4,56.9,295.7,56.9z M316.4,56.9c0-1.3,0-2.5,0-3.7c-1.3,0-2.5,0-3.7,0c0,1.3,0,2.5,0,3.7
					C314,56.9,315.2,56.9,316.4,56.9z M325.9,56.9c0-1.3,0-2.5,0-3.7c-1.3,0-2.5,0-3.7,0c0,1.3,0,2.5,0,3.7
					C323.4,56.9,324.6,56.9,325.9,56.9z"/>
				<path class="st0" d="M275,36.9c2.4-3.1,4.8-6.3,7.2-9.4c0.4-0.5,1-0.8,1.6-0.8c3.9,0,7.7,0,11.6,0c0.3,0,0.7-0.1,0.9-0.3
					c2.2-2.1,4.5-4.3,6.7-6.4c0.2-0.2,0.3-0.5,0.3-0.8c0-2.7,0-5.5,0-8.2c0-1.1,1-1.8,1.9-1.1c1.4,1,2.9,0.9,4.4,0.3
					c1.4-0.6,2.8-0.6,4.2,0c0.5,0.2,0.8,0.5,0.8,1.2c-0.1,1.8,0,3.5,0,5.3c0,0.2,0,0.3,0,0.4c-0.6-0.2-1.3-0.5-1.9-0.7
					c-1-0.3-2.1-0.1-3,0.3c-1,0.4-2,0.7-3,0.4c-0.5-0.1-0.9-0.4-1.4-0.6c0,1,0,2,0,3c0,0.1,0.2,0.3,0.3,0.4c2.2,2.2,4.5,4.3,6.7,6.4
					c0.2,0.2,0.5,0.3,0.8,0.3c3.9,0,7.7,0,11.6,0c0.8,0,1.3,0.3,1.8,0.9c2.2,2.9,4.5,5.9,6.7,8.8c0.3,0.3,0.5,0.7,0.2,1.1
					c-0.2,0.5-0.6,0.5-1.1,0.5c-4.7,0-9.4,0-14,0c-0.8,0-1.4-0.3-1.9-0.8c-3.8-3.8-7.7-7.5-11.6-11.3c-0.2-0.2-0.3-0.3-0.5-0.5
					c-1.2,1.1-2.3,2.2-3.4,3.3c-2.9,2.9-5.9,5.7-8.8,8.6c-0.5,0.5-1,0.7-1.7,0.7c-4.7,0-9.4,0-14,0c-0.6,0-1-0.1-1.3-0.6
					C275,37.3,275,37.1,275,36.9z"/>
				<path class="st1" d="M303.2,36.3c0,1.2,0,2.4,0,3.6c-0.4,0-0.8,0-1.1,0c-0.6,0-0.7,0.2-0.7,0.9c0,0.7,0.2,0.9,0.7,0.9
					c0.6,0,1.3,0,1.9,0c0.7,0,1.1-0.4,1.1-1.1c0-1.4,0-2.8,0-4.1c0-0.1,0-0.2,0-0.3c2.2,0.2,3.9,2.5,3.7,5c-0.1,2.3-2.2,4.3-4.6,4.3
					c-2.5,0-4.7-1.9-4.8-4.3C299.4,38.8,301,36.6,303.2,36.3z"/>
				<path class="st1" d="M307,60.7c-1.9,0-3.7,0-5.6,0c0-0.1,0-0.3,0-0.4c0-2.1,0-4.1,0-6.2c0-1.4,1.2-2.7,2.5-2.8
					c1.6-0.1,3,1,3.1,2.4C307.1,56,307,58.3,307,60.7z"/>
				<path class="st1" d="M286.3,45.7c0,1.2,0,2.5,0,3.7c-1.2,0-2.4,0-3.7,0c0-1.2,0-2.4,0-3.7C283.8,45.7,285,45.7,286.3,45.7z"/>
				<path class="st1" d="M295.7,45.6c0,1.2,0,2.4,0,3.7c-1.2,0-2.4,0-3.7,0c0-1.2,0-2.4,0-3.7C293.2,45.6,294.4,45.6,295.7,45.6z"/>
				<path class="st1" d="M312.7,49.4c0-1.2,0-2.5,0-3.7c1.2,0,2.5,0,3.7,0c0,1.2,0,2.4,0,3.7C315.2,49.4,314,49.4,312.7,49.4z"/>
				<path class="st1" d="M325.9,45.7c0,1.3,0,2.5,0,3.7c-1.2,0-2.4,0-3.7,0c0-1.2,0-2.4,0-3.7C323.4,45.7,324.6,45.7,325.9,45.7z"/>
				<path class="st1" d="M282.5,56.9c0-1.3,0-2.5,0-3.7c1.2,0,2.4,0,3.7,0c0,1.2,0,2.4,0,3.7C285,56.9,283.8,56.9,282.5,56.9z"/>
				<path class="st1" d="M295.7,56.9c-1.2,0-2.5,0-3.7,0c0-1.2,0-2.5,0-3.7c1.2,0,2.4,0,3.7,0C295.7,54.4,295.7,55.6,295.7,56.9z"/>
				<path class="st1" d="M316.4,56.9c-1.2,0-2.4,0-3.7,0c0-1.2,0-2.5,0-3.7c1.2,0,2.4,0,3.7,0C316.4,54.4,316.4,55.6,316.4,56.9z"/>
				<path class="st1" d="M325.9,56.9c-1.3,0-2.5,0-3.7,0c0-1.2,0-2.5,0-3.7c1.2,0,2.4,0,3.7,0C325.9,54.4,325.9,55.7,325.9,56.9z"/>
			</g>
			<g>
				<path class="st0" d="M268,46.5c1,0,2-0.2,2.7,0.7c0.5,0.7,0.3,1.5,0.4,2.4c-0.5,0-1,0-1.5,0c-0.4,0-0.8,0-1.1,0.1
					c-0.5,0.1-0.8,0.5-0.7,1.2c0,0.5,0.4,0.9,0.9,0.9c0.8,0,1.6,0,2.4,0c0,0.4,0,0.8,0,1.2c0,1.2,0,2.4,0,3.6c0,0.8-0.6,1.4-1.4,1.4
					c-0.2,0-0.5,0-0.7,0c-0.8-3-3-4-4.7-4.1c-2.5-0.2-4.9,1.4-5.5,4.1c-0.1,0-0.3,0-0.4,0c-3.9,0-7.8,0-11.7,0
					c-0.3,0-0.4-0.1-0.5-0.4c-0.6-2.2-2.6-3.7-4.9-3.7c-2.3,0-4.4,1.6-5,3.8c-0.1,0.3-0.2,0.3-0.4,0.3c-0.9,0-1.7-0.2-2.4-0.7
					c-0.3-0.2-0.5-0.5-0.5-0.9c0-5,0-10.1,0-15.1c0-1.5,1.4-2.9,2.9-2.9c8.3,0,16.6,0,25,0c1.4,0,2.8,0,4.3,0c1.4,0,2.8,1,2.9,2.9
					c0,1.6,0,3.2,0,4.9C268,46.2,268,46.3,268,46.5z M258.7,47.2c0-1.7,0-3.3,0-5c0-0.6-0.3-0.9-0.9-0.9c-0.8,0-1.5,0-2.3,0
					c-0.8,0-1,0.2-1,1c0,1.6,0,3.3,0,4.9c0,1.9,0,3.8,0,5.6c0,0.6,0.2,0.8,0.8,0.9c0.7,0,1.4,0,2.1-0.1c0.7-0.1,1.3-0.9,1.3-1.6
					C258.7,50.5,258.7,48.9,258.7,47.2z M260.7,43.9c0,0.6,0,1.2,0,1.8c0,0.5,0.3,0.7,0.7,0.7c0.9,0,1.8,0,2.7,0
					c0.5,0,0.7-0.2,0.7-0.7c0-1.2,0-2.4,0-3.6c0-0.5-0.4-0.9-0.9-0.9c-0.8,0-1.6,0-2.4,0c-0.5,0-0.8,0.3-0.8,0.8
					C260.7,42.7,260.7,43.3,260.7,43.9z M238.1,41.4c-0.4,0-0.9,0-1.3,0c-0.4,0-0.7,0.3-0.7,0.7c0,0.5,0,1,0,1.6
					c0,0.5,0.2,0.8,0.7,0.8c0.9,0,1.8,0,2.6,0c0.5,0,0.7-0.3,0.7-0.8c0-0.5,0-1,0-1.6c0-0.6-0.2-0.8-0.8-0.8
					C238.9,41.4,238.5,41.4,238.1,41.4z M250.5,44.5C250.5,44.5,250.5,44.5,250.5,44.5c0.4,0,0.8,0,1.2,0c0.6,0,0.9-0.3,0.9-0.9
					c0-0.5,0-1,0-1.5c0-0.5-0.3-0.8-0.8-0.8c-0.9,0-1.7,0-2.6,0c-0.5,0-0.8,0.2-0.8,0.7c0,0.5,0,1,0,1.6c0,0.5,0.2,0.8,0.8,0.8
					C249.6,44.5,250,44.5,250.5,44.5z M238.1,49.6C238.1,49.6,238.1,49.6,238.1,49.6c0.4,0,0.9,0,1.3,0c0.5,0,0.8-0.3,0.8-0.8
					c0-0.5,0-1,0-1.6c0-0.5-0.3-0.8-0.8-0.8c-0.9,0-1.7,0-2.6,0c-0.5,0-0.8,0.3-0.8,0.8c0,0.5,0,1,0,1.5c0,0.5,0.3,0.8,0.8,0.8
					C237.2,49.7,237.7,49.6,238.1,49.6z M250.4,46.5c-0.4,0-0.9,0-1.3,0c-0.5,0-0.7,0.2-0.7,0.7c0,0.6,0,1.1,0,1.7
					c0,0.4,0.3,0.7,0.7,0.7c0.9,0,1.8,0,2.7,0c0.5,0,0.7-0.3,0.7-0.8c0-0.5,0-1,0-1.5c0-0.5-0.3-0.8-0.8-0.8
					C251.3,46.5,250.9,46.5,250.4,46.5z M244.3,41.4c-0.4,0-0.9,0-1.3,0c-0.5,0-0.8,0.3-0.8,0.8c0,0.5,0,1,0,1.6
					c0,0.5,0.2,0.8,0.7,0.8c0.9,0,1.8,0,2.7,0c0.5,0,0.7-0.3,0.7-0.8c0-0.5,0-1,0-1.5c0-0.5-0.3-0.8-0.8-0.8
					C245.1,41.4,244.7,41.4,244.3,41.4z M244.3,46.5c-0.4,0-0.9,0-1.3,0c-0.5,0-0.8,0.3-0.8,0.8c0,0.5,0,1,0,1.6
					c0,0.5,0.2,0.8,0.7,0.8c0.9,0,1.8,0,2.7,0c0.5,0,0.7-0.3,0.7-0.8c0-0.5,0-1,0-1.6c0-0.5-0.3-0.8-0.8-0.8
					C245.1,46.5,244.7,46.5,244.3,46.5z"/>
				<path class="st0" d="M263.8,55.7c1.9,0,3.3,1.5,3.2,3.3c-0.1,1.9-1.5,3.2-3.3,3.1c-1.8,0-3.2-1.5-3.1-3.3
					C260.7,57,262.1,55.6,263.8,55.7z"/>
				<path class="st0" d="M241.2,55.7c1.7,0,3.2,1.4,3.2,3c0.1,1.9-1.3,3.4-3.2,3.4c-1.7,0-3.2-1.4-3.3-3.1
					C237.9,57.2,239.3,55.6,241.2,55.7z"/>
				<path class="st1" d="M258.7,47.2c0,1.6,0,3.2,0,4.8c0,0.7-0.6,1.5-1.3,1.6c-0.7,0.1-1.4,0.1-2.1,0.1c-0.6,0-0.8-0.3-0.8-0.9
					c0-1.9,0-3.8,0-5.6c0-1.6,0-3.3,0-4.9c0-0.7,0.2-1,1-1c0.8,0,1.5,0,2.3,0c0.6,0,0.9,0.3,0.9,0.9
					C258.7,43.9,258.7,45.6,258.7,47.2z"/>
				<path class="st1" d="M260.7,43.9c0-0.6,0-1.2,0-1.8c0-0.5,0.3-0.8,0.8-0.8c0.8,0,1.6,0,2.4,0c0.5,0,0.9,0.3,0.9,0.9
					c0,1.2,0,2.4,0,3.6c0,0.5-0.3,0.7-0.7,0.7c-0.9,0-1.8,0-2.7,0c-0.5,0-0.7-0.3-0.7-0.7C260.7,45.2,260.7,44.5,260.7,43.9z"/>
				<path class="st1" d="M238.1,41.4c0.4,0,0.8,0,1.2,0c0.6,0,0.8,0.2,0.8,0.8c0,0.5,0,1,0,1.6c0,0.5-0.2,0.7-0.7,0.8
					c-0.9,0-1.8,0-2.6,0c-0.5,0-0.7-0.3-0.7-0.8c0-0.5,0-1,0-1.6c0-0.4,0.3-0.7,0.7-0.7C237.2,41.4,237.6,41.4,238.1,41.4z"/>
				<path class="st1" d="M250.5,44.5c-0.4,0-0.9,0-1.3,0c-0.5,0-0.8-0.3-0.8-0.8c0-0.5,0-1,0-1.6c0-0.5,0.3-0.7,0.8-0.7
					c0.9,0,1.7,0,2.6,0c0.5,0,0.8,0.3,0.8,0.8c0,0.5,0,1,0,1.5c0,0.6-0.3,0.8-0.9,0.9C251.3,44.5,250.9,44.5,250.5,44.5
					C250.5,44.5,250.5,44.5,250.5,44.5z"/>
				<path class="st1" d="M238.1,49.6c-0.4,0-0.8,0-1.2,0c-0.5,0-0.8-0.3-0.8-0.8c0-0.5,0-1,0-1.5c0-0.5,0.3-0.8,0.8-0.8
					c0.9,0,1.7,0,2.6,0c0.5,0,0.8,0.2,0.8,0.8c0,0.5,0,1,0,1.6c0,0.5-0.3,0.8-0.8,0.8C238.9,49.6,238.5,49.6,238.1,49.6
					C238.1,49.6,238.1,49.6,238.1,49.6z"/>
				<path class="st1" d="M250.4,46.5c0.4,0,0.9,0,1.3,0c0.5,0,0.8,0.3,0.8,0.8c0,0.5,0,1,0,1.5c0,0.5-0.2,0.8-0.7,0.8
					c-0.9,0-1.8,0-2.7,0c-0.4,0-0.7-0.3-0.7-0.7c0-0.6,0-1.1,0-1.7c0-0.5,0.3-0.7,0.7-0.7C249.6,46.5,250,46.5,250.4,46.5z"/>
				<path class="st1" d="M244.3,41.4c0.4,0,0.9,0,1.3,0c0.5,0,0.8,0.3,0.8,0.8c0,0.5,0,1,0,1.5c0,0.5-0.2,0.8-0.7,0.8
					c-0.9,0-1.8,0-2.7,0c-0.5,0-0.7-0.3-0.7-0.8c0-0.5,0-1,0-1.6c0-0.5,0.3-0.8,0.8-0.8C243.4,41.4,243.8,41.4,244.3,41.4z"/>
				<path class="st1" d="M244.3,46.5c0.4,0,0.9,0,1.3,0c0.5,0,0.8,0.3,0.8,0.8c0,0.5,0,1,0,1.6c0,0.5-0.2,0.7-0.7,0.8
					c-0.9,0-1.8,0-2.7,0c-0.5,0-0.7-0.3-0.7-0.8c0-0.5,0-1,0-1.6c0-0.5,0.3-0.8,0.8-0.8C243.4,46.5,243.8,46.5,244.3,46.5z"/>
			</g>
			<g>
				<path class="st0" d="M352.9,62.5c0.4-0.4,0.8-0.7,1.1-1.1c1.3-1.9,2.5-3.9,3.8-5.8c0.5-0.7,0.6-1.5,0.4-2.3
					c-0.3-1.2-0.5-2.4-0.8-3.5c-0.1-0.4-0.3-0.9-0.6-0.9c-0.6-0.2-1.3-0.2-1.7,0.6c-0.3,0.6-0.6,1.1-0.8,1.7
					c-0.3,1.1-1.1,1.8-2.1,2.2c-0.4,0.2-1,0.4-0.7,1c0.3,0.7,0.9,0.2,1.3,0c0.8-0.5,1.8-0.7,2.4-1.8c0.2,0.7,0.4,1.4,0.6,2.1
					c0,0.2-0.1,0.4-0.2,0.6c-1.1,1.8-2.2,3.6-3.2,5.3c-0.5,0.9-0.4,1.3,0.4,1.8C352.7,62.5,352.8,62.5,352.9,62.5z"/>
				<path class="st0" d="M361,52.9c-0.4-1.2-0.8-2.4-1.2-3.7c-0.3-0.8-0.6-1-1.3-0.6c-0.2,0.1-0.5,0.5-0.5,0.8
					c0.3,1.4,0.6,2.7,0.9,4.1c0.1,0.5,0.4,0.7,0.9,0.5c0.4-0.1,0.8-0.3,1.2-0.5C361,53.2,361,53.1,361,52.9z"/>
				<path class="st0" d="M361,61.4c-0.3-0.4-0.6-0.8-0.9-1.3c-0.7-1.1-1.3-2.3-1.9-3.4c-0.3,0.4-0.6,0.8-1,1.4
					c-0.1,0.2-0.1,0.5,0,0.7c0.9,1.2,1.8,2.5,2.8,3.7c0.3,0,0.6,0,1,0C361,62.1,361,61.7,361,61.4z"/>
				<path class="st0" d="M354.7,44.7c-0.6,0.3-1.1,0.7-1.2,1.5c-0.1,0.8,0.4,1.6,1.2,1.9c0.8,0.3,1.7-0.2,2.1-1
					c0.3-0.8,0-1.7-0.7-2.1c-0.2-0.1-0.3-0.2-0.5-0.3C355.3,44.7,355,44.7,354.7,44.7z"/>
				<path class="st0" d="M346.7,55.8c0.4,0.7,0.3,1.3-0.2,2.1c-0.7,1-1.3,2-1.9,3.1c-0.1,0.2-0.3,0.4-0.3,0.6c0,0.2,0.1,0.6,0.3,0.7
					c0.2,0.1,0.5,0,0.7-0.1c0.2-0.2,0.4-0.4,0.6-0.7c0.9-1.3,1.7-2.6,2.6-4c0.4-0.6,0.5-1.1,0.3-1.8c-0.2-0.7-0.3-1.4-0.5-2.1
					c-0.1-0.3-0.3-0.6-0.5-0.7c-0.4-0.1-0.9-0.1-1.2,0.4c-0.2,0.4-0.4,0.7-0.6,1.1c-0.3,0.8-0.8,1.3-1.6,1.7c-0.3,0.1-1,0.2-0.7,0.8
					c0.3,0.6,0.8,0.2,1.1,0C345.4,56.6,346,56.2,346.7,55.8z"/>
				<path class="st0" d="M346.6,52.2c0.8,0,1.4-0.6,1.4-1.4c0-0.7-0.6-1.3-1.3-1.3c-0.8,0-1.4,0.6-1.4,1.3
					C345.3,51.6,345.9,52.2,346.6,52.2z"/>
				<path class="st0" d="M348.4,52.8c0.3,1.2,0.5,2.1,0.7,3.1c0.2,0.6,0.7,0.3,1.1,0.3c0.4-0.1,0.5-0.3,0.4-0.7
					c-0.3-0.9-0.5-1.8-0.8-2.7c-0.1-0.2-0.5-0.4-0.7-0.4C348.8,52.4,348.6,52.7,348.4,52.8z"/>
				<path class="st0" d="M348.6,58.2C348.7,58.1,348.6,58.1,348.6,58.2c-1,1.2-1,1.3-0.1,2.5c0.4,0.5,0.7,1,1.1,1.4
					c0.2,0.2,0.5,0.1,0.8,0.2c0-0.3,0.1-0.5,0-0.8c-0.1-0.2-0.3-0.4-0.4-0.6C349.6,59.9,349.1,59.1,348.6,58.2z"/>
			</g>
			<g>
				<path class="st0" d="M174.4,52.2c0.2-0.6,0.7-0.9,1.3-0.8c0.5,0,1,0,1.6,0c0.5,0,0.8-0.2,1.1-0.6c0.9-1.1,1.7-2.3,2.6-3.4
					c0.2-0.2,0.3-0.4,0.5-0.7c0.2-0.3,0.6-0.4,0.9-0.5c0.2,0,0.3,0,0.5,0c2.2,0,4.5,0,6.7,0c0.9,0,1.5,0.3,2.1,1
					c0.9,1.2,1.9,2.4,2.9,3.5c0.3,0.4,0.7,0.6,1.3,0.6c1,0,2,0.1,2.9,0.6c1.3,0.7,2.1,1.7,2.3,3.2c0,0,0,0,0,0.1c0,0.8,0,1.7,0,2.5
					c-0.1,0.4-0.4,0.8-0.9,0.8c-0.7,0-1.5,0-2.2,0c-0.3-2-1.9-3-3.3-3.1c-0.8,0-1.6,0.1-2.2,0.6c-0.9,0.6-1.4,1.5-1.6,2.5
					c-2.1,0-4.1,0-6.1,0c-0.3-2-1.9-3-3.3-3.1c-0.8-0.1-1.6,0.1-2.2,0.6c-0.9,0.6-1.5,1.5-1.7,2.6c-0.6,0-1.2,0-1.8,0
					c-0.6,0-1.1-0.2-1.3-0.8C174.4,55.9,174.4,54,174.4,52.2z M180.4,51.3c1.8,0,3.5,0,5.2,0c0-1,0-2,0-3.1c-0.8,0-1.7,0-2.5,0
					c-0.3,0-0.6,0.1-0.7,0.4c-0.6,0.8-1.3,1.7-1.9,2.6C180.5,51.2,180.4,51.3,180.4,51.3z M187.7,51.3c1.6,0,3.1,0,4.7,0
					c-0.7-0.9-1.4-1.7-2.1-2.6c-0.2-0.2-0.4-0.4-0.7-0.4c-0.6,0-1.3,0-1.9,0c0,0.1,0,0.2,0,0.2C187.7,49.5,187.7,50.4,187.7,51.3z"
					/>
				<path class="st1" d="M180.4,51.3c0-0.1,0.1-0.1,0.1-0.1c0.6-0.9,1.3-1.7,1.9-2.6c0.2-0.2,0.4-0.4,0.7-0.4c0.8,0,1.6,0,2.5,0
					c0,1,0,2,0,3.1C183.9,51.3,182.2,51.3,180.4,51.3z"/>
				<path class="st1" d="M187.7,51.3c0-0.9,0-1.9,0-2.8c0-0.1,0-0.2,0-0.2c0.6,0,1.3,0,1.9,0c0.3,0,0.5,0.2,0.7,0.4
					c0.7,0.9,1.4,1.7,2.1,2.6C190.8,51.3,189.3,51.3,187.7,51.3z"/>
				<path class="st0" d="M194.4,61.4c-1.3,0-2.4-1-2.4-2.4c0-1.3,1-2.4,2.4-2.4c1.3,0,2.4,1.1,2.4,2.4
					C196.8,60.3,195.7,61.4,194.4,61.4z"/>
				<path class="st0" d="M181.1,61.4c-1.3,0-2.4-1-2.4-2.4c0-1.3,1.1-2.4,2.4-2.4c1.3,0,2.4,1.1,2.4,2.4
					C183.4,60.3,182.4,61.4,181.1,61.4z"/>
			</g>
		</g>
		<g>
			<path class="st0" d="M393.4,62c-2.1,0-3.9,0-6,0c0-2.6,0-5.2,0-7.5c-2.3-0.7-4.3-1-6-1.9c-2.9-1.5-4-4.1-4.1-7.3
				c0-1.2-0.4-2.5-1.1-3.5c-3.7-5.1-1.4-11.7,4.7-13.4c0.9-0.2,1.8-0.9,2.3-1.7c3.8-5.4,10.5-5.4,14.4-0.1c0.6,0.8,1.6,1.5,2.6,1.8
				c5.9,1.7,8.1,8.4,4.4,13.3c-0.5,0.7-1.1,1.6-1.2,2.4c-0.5,7.1-2.2,8.9-9.8,9.9C393.4,56.7,393.4,59.3,393.4,62z M393.1,51.1
				c5,1.1,8.7-2.1,7.9-6.3c-0.3-1.9,0.4-2.8,1.3-4.2c1-1.7,1.8-4.2,1.2-5.9c-0.6-1.7-2.7-3.4-4.6-4c-1.6-0.5-2.6-0.9-3.3-2.4
				c-1-2.2-2.9-3.2-5.3-3.2c-2.5,0-4.6,1-5.5,3.3c-0.6,1.6-1.5,2-3.1,2.3c-5.2,1-7.1,6.6-3.5,10.2c1.3,1.3,1.6,2.5,1.3,4.2
				c-0.6,3.3,2.1,6.5,5.5,6.8c1.7,0.2,2.5-0.5,1.8-2.1c-0.8-1.8-1.9-3.4-3-5.4c2.7-2.9,3.2,1.5,5,1.8c0.5-1.5-0.8-4.8,3.1-3.5
				c0.1,1.2,0.2,2.3,0.4,3.4c1.7-0.6,2.2-4.6,4.7-1.8C395.4,46.6,394.3,48.8,393.1,51.1z"/>
			<path class="st1" d="M393.1,51.1c1.2-2.3,2.4-4.5,3.7-7c-2.5-2.8-3,1.2-4.7,1.8c-0.1-1.1-0.2-2.2-0.4-3.4c-3.9-1.3-2.6,2-3.1,3.5
				c-1.8-0.3-2.3-4.7-5-1.8c1.1,2,2.2,3.6,3,5.4c0.7,1.6-0.1,2.3-1.8,2.1c-3.3-0.3-6-3.5-5.5-6.8c0.3-1.8,0.1-2.9-1.3-4.2
				c-3.6-3.6-1.6-9.2,3.5-10.2c1.5-0.3,2.4-0.7,3.1-2.3c0.9-2.3,3-3.3,5.5-3.3c2.4,0,4.3,1.1,5.3,3.2c0.7,1.6,1.7,1.9,3.3,2.4
				c1.8,0.6,4,2.3,4.6,4c0.6,1.7-0.2,4.3-1.2,5.9c-0.9,1.4-1.6,2.4-1.3,4.2C401.8,49.1,398.1,52.3,393.1,51.1z"/>
		</g>
		<g>
			<path class="st0" d="M376.3,61.7c-1.5,0-2.8,0-4.4,0c0-1.9,0-3.8,0-5.5c-1.7-0.5-3.1-0.7-4.4-1.4c-2.1-1.1-2.9-3-3-5.3
				c0-0.9-0.3-1.8-0.8-2.5c-2.7-3.7-1-8.5,3.4-9.7c0.6-0.2,1.3-0.7,1.7-1.2c2.8-3.9,7.6-3.9,10.4,0c0.4,0.6,1.2,1.1,1.9,1.3
				c4.2,1.2,5.9,6.1,3.2,9.6c-0.4,0.5-0.8,1.1-0.9,1.7c-0.4,5.1-1.6,6.5-7.1,7.2C376.3,57.9,376.3,59.7,376.3,61.7z M376.1,53.9
				c3.6,0.8,6.3-1.5,5.7-4.6c-0.2-1.3,0.3-2,0.9-3c0.8-1.2,1.3-3.1,0.9-4.3c-0.4-1.2-2-2.5-3.3-2.9c-1.1-0.4-1.9-0.6-2.4-1.8
				c-0.7-1.6-2.1-2.3-3.8-2.3c-1.8,0-3.3,0.7-4,2.4c-0.5,1.2-1.1,1.4-2.2,1.7c-3.7,0.7-5.2,4.7-2.6,7.4c1,1,1.1,1.8,0.9,3.1
				c-0.4,2.4,1.5,4.7,4,4.9c1.2,0.1,1.8-0.4,1.3-1.5c-0.6-1.3-1.4-2.5-2.2-3.9c1.9-2.1,2.3,1.1,3.6,1.3c0.4-1.1-0.6-3.5,2.2-2.5
				c0.1,0.9,0.2,1.7,0.3,2.5c1.2-0.4,1.6-3.3,3.4-1.3C377.8,50.6,376.9,52.2,376.1,53.9z"/>
			<path class="st1" d="M376.1,53.9c0.9-1.7,1.7-3.3,2.7-5.1c-1.8-2-2.2,0.8-3.4,1.3c-0.1-0.8-0.2-1.6-0.3-2.5
				c-2.8-0.9-1.9,1.4-2.2,2.5c-1.3-0.2-1.6-3.4-3.6-1.3c0.8,1.4,1.6,2.6,2.2,3.9c0.5,1.2,0,1.7-1.3,1.5c-2.4-0.2-4.4-2.5-4-4.9
				c0.2-1.3,0.1-2.1-0.9-3.1c-2.6-2.6-1.2-6.6,2.6-7.4c1.1-0.2,1.8-0.5,2.2-1.7c0.7-1.7,2.2-2.4,4-2.4c1.7,0,3.1,0.8,3.8,2.3
				c0.5,1.1,1.2,1.4,2.4,1.8c1.3,0.4,2.9,1.7,3.3,2.9c0.4,1.2-0.1,3.1-0.9,4.3c-0.6,1-1.2,1.7-0.9,3
				C382.4,52.4,379.7,54.7,376.1,53.9z"/>
		</g>
		<g>
			<path class="st0" d="M212.6,60.3c0.4-0.2,0.3-0.5,0.3-0.8c-0.3,0-0.5,0-0.8,0c-0.4,0-0.8-0.1-1.1-0.3c-0.1,0-0.1-0.2-0.1-0.2
				c0.2-0.5,0.1-1.1,0.1-1.6c0-0.4-0.1-0.9-0.1-1.3c0-0.1,0-0.2,0-0.3c-0.2,0-0.4,0-0.7,0c0.6,1.3,0.7,2.5,0,3.8
				c-0.5,0.9-1.2,1.5-2.2,1.8c-1.9,0.5-3.7-0.3-4.5-2c-0.9-1.9-0.1-4,1.6-4.9c0.1,0.2,0.2,0.4,0.3,0.6c-0.4,0.2-0.7,0.6-1,0.9
				c-1,1.5-0.5,3.6,1.1,4.4c1.8,0.9,4-0.2,4.4-2.1c0.3-1.5-0.5-3-1.9-3.5c-0.1,0-0.2-0.1-0.3-0.2c-0.3-0.8-0.7-1.6-1.1-2.4
				c-0.1,0.2-0.2,0.4-0.3,0.5c0,0,0,0.1,0,0.2c0.3,0.6,0.5,1.2,0.8,1.8c0.1,0.3,0.1,0.6-0.1,0.7c-0.2,0.2-0.5,0.2-0.8,0
				c-0.1-0.1-0.2-0.2-0.2-0.3c-0.3-0.7-0.7-1.5-1-2.2c-0.1-0.2-0.1-0.4,0-0.5c0.3-0.5,0.5-1,0.9-1.5c0.5-0.7,1.2-1,2-0.9
				c0.4,0,0.9,0.5,0.9,0.9c0,0.3,0,0.5,0,0.8c0,0.8,0,1.7,0,2.5c0.3,0,0.5,0,0.8,0c0.6,0,1.3,0,1.9,0c0.4,0,0.7,0.3,0.7,0.7
				c0.1,0.7,0.2,1.4,0.2,2.1c0,0.4,0.1,0.9,0.1,1.3c0,0.2,0,0.4,0,0.6c0.3,0,0.5,0,0.9,0c0,0.5,0.1,1-0.2,1.5
				c-0.1,0.2-0.3,0.3-0.5,0.4c-0.1,0-0.2,0.1-0.2,0.2c-0.2,0.4-0.6,0.5-1,0.4c-0.4-0.1-0.6-0.5-0.6-0.9c0.1-0.4,0.4-0.7,0.8-0.7
				C212.2,59.7,212.4,59.9,212.6,60.3z M211.8,60.3c-0.2,0-0.3,0.1-0.3,0.3c0,0.2,0.1,0.3,0.3,0.3c0.2,0,0.3-0.1,0.3-0.3
				C212.1,60.4,212,60.3,211.8,60.3z"/>
			<path class="st0" d="M207.5,55.7c0.1-0.2,0.2-0.3,0.2-0.5c0.8,0.2,1.6,1.1,1.7,2.1c0.1,1.2-0.6,2.1-1.4,2.5
				c-1.5,0.8-3.4-0.2-3.6-1.9c-0.2-1,0.2-1.8,1.1-2.5c0.1-0.1,0.1-0.1,0.2,0c0.1,0.1,0.2,0.2,0.3,0.3c-0.9,0.6-1.2,1.5-0.9,2.3
				c0.2,0.7,1,1.5,2.1,1.4c0.8-0.1,1.5-0.6,1.7-1.4C209,57.3,208.6,56.2,207.5,55.7z"/>
			<path class="st0" d="M209.4,49.8c-0.9,0.1-2-0.7-2-2c0-1.1,1-1.9,1.9-2c1.1,0,2,0.9,2.1,1.9C211.4,48.9,210.4,49.9,209.4,49.8z"
				/>
		</g>
	</g>
	<g>
		<g>
			<path class="st0" d="M459,12.5c0,16.5,0,33.1,0,49.6c-1.1,0-2.2,0-3.3,0c0-0.1,0-0.3,0-0.4c0-13,0-26.1,0-39.1c0-3,0-6.1,0-9.1
				c0-1-0.3-1.4-1.2-1.4c-6.8,0-13.6,0-20.3,0c-0.9,0-1.1,0.3-1.1,1.1c0,3.5,0,7,0,10.6c0,0.2,0,0.4,0,0.7c0.4,0,0.6,0,0.9,0
				c4.4,0,8.8,0.1,13.1,0c2.8-0.1,4.6,2,4.6,4.6c0,11,0,22,0,33.1c-12.8,0-25.6,0-38.3,0c0-0.2,0-0.3,0-0.5c0-10.8,0-21.7,0-32.5
				c0-0.5,0-1,0.1-1.5c0.5-2,2.1-3.2,4.2-3.2c3.7,0,7.5,0,11.2,0c0.2,0,0.5,0,0.8,0c0-0.3,0-0.5,0-0.7c0-3.4,0-6.8,0-10.2
				c0-1.4,0.3-2.8,1.5-3.7c0.7-0.5,1.5-0.7,2.2-1.1c7.4,0,14.7,0,22.1,0c0.7,0.4,1.5,0.7,2.2,1.2C458.4,10.5,458.7,11.5,459,12.5z
				 M448.3,61.6c0-0.3,0-0.6,0-0.8c0-8.1,0-19.2,0-27.3c0-1.5,0-3,0-4.5c0-0.8-0.4-1.2-1.1-1.2c-9.8,0-19.6,0-29.4,0
				c-0.8,0-1.1,0.3-1.1,1.1c0,9.7,0,22.4,0,32c0,0.2,0,0.4,0,0.7c4.4,0,8.8,0,13.2,0c0-3,0-8.9,0-11.8c1.7,0,3.3,0,5,0
				c0,3,0,8.9,0,11.8C439.3,61.6,443.8,61.6,448.3,61.6z"/>
			<path class="st1" d="M451.6,62.1c0-11,0-22,0-33.1c0-2.6-1.9-4.7-4.6-4.6c-4.4,0.1-8.7,0-13.1,0c-0.3,0-0.5,0-0.9,0
				c0-0.2,0-0.5,0-0.7c0-3.5,0-7,0-10.6c0-0.9,0.3-1.1,1.1-1.1c6.8,0,13.6,0,20.3,0c0.9,0,1.2,0.4,1.2,1.4c0,3,0,6.1,0,9.1
				c0,13,0,26.1,0,39.1c0,0.1,0,0.3,0,0.4C454.3,62.1,453,62.1,451.6,62.1z M446.3,16c0,1.7,0,3.4,0,5.1c1.7,0,3.4,0,5,0
				c0-1.7,0-3.4,0-5.1C449.6,16,447.9,16,446.3,16z M442.2,16c-1.7,0-3.3,0-4.9,0c0,1.7,0,3.4,0,5.1c1.7,0,3.3,0,4.9,0
				C442.2,19.4,442.2,17.7,442.2,16z"/>
			<path class="st1" d="M448.3,61.6c-4.5,0-9,0-13.5,0c0-2.9,0-8.9,0-11.8c-1.7,0-3.3,0-5,0c0,2.9,0,8.8,0,11.8c-4.4,0-8.8,0-13.2,0
				c0-0.2,0-0.4,0-0.7c0-9.7,0-22.4,0-32c0-0.8,0.3-1.1,1.1-1.1c9.8,0,19.6,0,29.4,0c0.7,0,1.1,0.4,1.1,1.2c0,1.5,0,3,0,4.5
				c0,8.1,0,19.2,0,27.3C448.3,61,448.3,61.3,448.3,61.6z M425.7,36.9c0-1.7,0-3.4,0-5.1c-1.7,0-3.4,0-5,0c0,1.7,0,3.4,0,5.1
				C422.4,36.9,424,36.9,425.7,36.9z M444,31.9c-1.7,0-3.4,0-5.1,0c0,1.7,0,3.4,0,5.1c1.7,0,3.4,0,5.1,0C444,35.2,444,33.6,444,31.9
				z M438.9,54.8c1.7,0,3.4,0,5.1,0c0-1.7,0-3.3,0-5c-1.7,0-3.4,0-5.1,0C438.9,51.5,438.9,53.2,438.9,54.8z M420.7,49.8
				c0,1.8,0,3.4,0,5c1.7,0,3.4,0,5.1,0c0-1.6,0-3.1,0-4.6c0-0.2-0.3-0.4-0.4-0.4C423.8,49.8,422.3,49.8,420.7,49.8z M429.9,36.9
				c1.7,0,3.3,0,4.9,0c0-1.7,0-3.4,0-5.1c-1.7,0-3.3,0-4.9,0C429.9,33.6,429.9,35.2,429.9,36.9z M425.8,40.9c-1.7,0-3.4,0-5.1,0
				c0,1.7,0,3.3,0,4.9c1.7,0,3.4,0,5.1,0C425.8,44.2,425.8,42.6,425.8,40.9z M443.9,45.8c0-1.7,0-3.3,0-4.9c-1.7,0-3.4,0-5.1,0
				c0,1.7,0,3.3,0,4.9C440.6,45.8,442.2,45.8,443.9,45.8z M434.8,45.8c0-1.7,0-3.3,0-4.9c-1.7,0-3.3,0-4.9,0c0,1.7,0,3.3,0,4.9
				C431.5,45.8,433.1,45.8,434.8,45.8z"/>
			<path class="st0" d="M446.3,16c1.7,0,3.3,0,5,0c0,1.7,0,3.3,0,5.1c-1.7,0-3.3,0-5,0C446.3,19.4,446.3,17.8,446.3,16z"/>
			<path class="st0" d="M442.2,16c0,1.7,0,3.4,0,5.1c-1.6,0-3.3,0-4.9,0c0-1.7,0-3.4,0-5.1C438.9,16,440.5,16,442.2,16z"/>
			<path class="st0" d="M425.7,36.9c-1.7,0-3.3,0-5,0c0-1.7,0-3.4,0-5.1c1.7,0,3.3,0,5,0C425.7,33.5,425.7,35.2,425.7,36.9z"/>
			<path class="st0" d="M444,31.9c0,1.7,0,3.4,0,5.1c-1.7,0-3.3,0-5.1,0c0-1.7,0-3.3,0-5.1C440.6,31.9,442.2,31.9,444,31.9z"/>
			<path class="st0" d="M438.9,54.8c0-1.7,0-3.3,0-5c1.7,0,3.4,0,5.1,0c0,1.7,0,3.3,0,5C442.3,54.8,440.6,54.8,438.9,54.8z"/>
			<path class="st0" d="M420.7,49.8c1.6,0,3.1,0,4.6,0c0.2,0,0.4,0.3,0.4,0.4c0,1.5,0,3,0,4.6c-1.7,0-3.4,0-5.1,0
				C420.7,53.2,420.7,51.5,420.7,49.8z"/>
			<path class="st0" d="M429.9,36.9c0-1.7,0-3.4,0-5.1c1.6,0,3.2,0,4.9,0c0,1.7,0,3.3,0,5.1C433.2,36.9,431.5,36.9,429.9,36.9z"/>
			<path class="st0" d="M425.8,40.9c0,1.7,0,3.2,0,4.9c-1.7,0-3.4,0-5.1,0c0-1.6,0-3.2,0-4.9C422.4,40.9,424,40.9,425.8,40.9z"/>
			<path class="st0" d="M443.9,45.8c-1.7,0-3.4,0-5.1,0c0-1.6,0-3.2,0-4.9c1.7,0,3.3,0,5.1,0C443.9,42.5,443.9,44.1,443.9,45.8z"/>
			<path class="st0" d="M434.8,45.8c-1.7,0-3.3,0-4.9,0c0-1.6,0-3.3,0-4.9c1.6,0,3.3,0,4.9,0C434.8,42.5,434.8,44.1,434.8,45.8z"/>
		</g>
		<g>
			<path class="st0" d="M479.3,0c9.5,0,19.1,0,28.6,0c0,6.1,0,9.3,0,15.5c4.3,0,8.4,0,12.5,0c0,14.8,0,31.4,0,46.3
				c1.1,0,2.3,0,3.5,0c0,1.2,0,0.2,0,1.3c-21.5,0-43,0-64.4,0c0-1.1,0-0.1,0-1.3c1.1,0,2,0,3.1,0c0-18.5,0-38.8,0-57.3
				c5.6,0,11.1,0,16.7,0C479.3,1.9,479.3,2.4,479.3,0z M491.7,15.4c4.3,0,8.5,0,12.8,0c0-4.9,0-7.7,0-12.5c-7.3,0-14.5,0-21.8,0
				c0,1.2,0,0.4,0,1.6c1.7,0,3.3,0,5.1,0c0,18.4,0,36.7,0,55.1c1.4,0,2.7,0,4.2,0c0-2.9,0-5.8,0-8.7c1.4,0,2.7,0,4.2,0
				c0,3,0,5.8,0,8.7c1.3,0,2.5,0,3.9,0c0-3,0-5.8,0-8.7c1.5,0,2.7,0,4.1,0c0,3,0,5.8,0,8.7c1.4,0,2.6,0,4,0c0-3,0-5.9,0-8.7
				c1.4,0,2.7,0,4.1,0c0,3,0,5.8,0,8.7c1.7,0,3.3,0,4.9,0c0-13.7,0-27.2,0-41c-8.5,0-17,0-25.4,0C491.7,17.5,491.7,16.6,491.7,15.4z
				 M466.4,23.6c5.9,0,11.7,0,17.4,0c0-1.5,0-2.9,0-4.3c-5.9,0-11.6,0-17.4,0C466.4,20.9,466.4,22.2,466.4,23.6z M483.9,37.9
				c-5.9,0-11.7,0-17.4,0c0,1.5,0,2.9,0,4.3c5.9,0,11.6,0,17.4,0C483.9,40.8,483.9,39.4,483.9,37.9z M483.9,14.5c0-1.4,0-2.8,0-4.2
				c-5.9,0-11.7,0-17.4,0c0,1.5,0,2.8,0,4.2C472.3,14.5,478,14.5,483.9,14.5z M483.9,47.3c-5.9,0-11.6,0-17.4,0c0,1.5,0,2.8,0,4.3
				c5.9,0,11.6,0,17.4,0C483.9,50.2,483.9,48.8,483.9,47.3z M466.4,32.8c5.9,0,11.7,0,17.5,0c0-1.5,0-2.9,0-4.3
				c-5.9,0-11.6,0-17.5,0C466.4,30,466.4,31.4,466.4,32.8z M472.9,55.3c0,1.7,0,3.4,0,5c1.7,0,3.4,0,5,0c0-1.7,0-3.3,0-5
				C476.2,55.3,474.6,55.3,472.9,55.3z"/>
			<path class="st1" d="M491.7,15.4c0,1.1,0,2.1,0,3.2c8.4,0,16.9,0,25.4,0c0,13.7,0,29.3,0,43c-1.6,0-3.2,0-4.9,0
				c0-2.9,0-7.7,0-10.7c-1.4,0-2.7,0-4.1,0c0,2.8,0,7.7,0,10.7c-1.4,0-2.6,0-4,0c0-2.9,0-7.8,0-10.7c-1.4,0-2.7,0-4.1,0
				c0,2.9,0,7.8,0,10.7c-1.4,0-2.6,0-3.9,0c0-2.9,0-7.7,0-10.7c-1.4,0-2.7,0-4.2,0c0,2.9,0,7.7,0,10.7c-1.4,0-2.7,0-4.2,0
				c0-18.4,0-38.7,0-57.1c-1.7,0-3.4,0-5.1,0c0-1.2,0-0.4,0-1.6c7.2,0,14.5,0,21.8,0c0,4.8,0,7.6,0,12.5
				C500.2,15.4,496,15.4,491.7,15.4z M504,37.2c0-1.4,0-2.7,0-4c-1.4,0-2.6,0-3.9,0c0,1.4,0,2.7,0,4C501.4,37.2,502.7,37.2,504,37.2
				z M512.1,33.2c-1.4,0-2.7,0-4,0c0,1.4,0,2.7,0,4c1.4,0,2.6,0,4,0C512.1,35.8,512.1,34.6,512.1,33.2z M492,33.2c0,1.4,0,2.7,0,4
				c1.4,0,2.7,0,4,0c0-1.4,0-2.6,0-4C494.6,33.2,493.4,33.2,492,33.2z M492,46.3c1.4,0,2.7,0,3.9,0c0-1.4,0-2.7,0-4
				c-1.4,0-2.6,0-3.9,0C492,43.6,492,44.9,492,46.3z M504,46.3c0-1.4,0-2.7,0-4.1c-1.2,0-2.2,0-3.3,0c-0.3,0-0.7,0.4-0.7,0.7
				c-0.1,1.1,0,2.2,0,3.4C501.4,46.3,502.7,46.3,504,46.3z M508.1,42.2c0,1.5,0,2.7,0,4.1c1.3,0,2.6,0,4,0c0-1.2,0-2.3,0-3.4
				c0-0.2-0.4-0.6-0.7-0.7C510.4,42.2,509.3,42.2,508.1,42.2z M508.2,24.6c0,1.4,0,2.7,0,4.1c1.1,0,2.2,0.1,3.2,0
				c0.3,0,0.8-0.4,0.8-0.7c0.1-1.1,0-2.2,0-3.4C510.8,24.6,509.5,24.6,508.2,24.6z M504,24.6c-1.4,0-2.7,0-4.1,0c0,1.2,0,2.3,0,3.4
				c0,0.2,0.4,0.6,0.6,0.6c1.1,0.1,2.3,0,3.5,0C504,27.2,504,26,504,24.6z M492,28.6c1.4,0,2.7,0,3.9,0c0-1.4,0-2.7,0-3.9
				c-1.4,0-2.6,0-3.9,0C492,26,492,27.2,492,28.6z"/>
			<path class="st1" d="M466.4,23.6c0-1.4,0-2.8,0-4.3c5.8,0,11.5,0,17.4,0c0,1.4,0,2.8,0,4.3C478.1,23.6,472.3,23.6,466.4,23.6z"/>
			<path class="st1" d="M483.9,37.9c0,1.5,0,2.8,0,4.3c-5.8,0-11.6,0-17.4,0c0-1.4,0-2.8,0-4.3C472.2,37.9,478,37.9,483.9,37.9z"/>
			<path class="st1" d="M483.9,14.5c-5.8,0-11.6,0-17.4,0c0-1.4,0-2.8,0-4.2c5.8,0,11.6,0,17.4,0C483.9,11.7,483.9,13,483.9,14.5z"
				/>
			<path class="st1" d="M483.9,47.3c0,1.5,0,2.8,0,4.3c-5.8,0-11.6,0-17.4,0c0-1.4,0-2.8,0-4.3C472.2,47.3,478,47.3,483.9,47.3z"/>
			<path class="st1" d="M466.4,32.8c0-1.5,0-2.8,0-4.3c5.8,0,11.6,0,17.5,0c0,1.4,0,2.8,0,4.3C478.1,32.8,472.3,32.8,466.4,32.8z"/>
			<path class="st1" d="M472.9,55.3c1.7,0,3.3,0,5,0c0,1.7,0,5.3,0,7c-1.6,0-3.2,0-5,0C472.9,60.7,472.9,57.1,472.9,55.3z"/>
			<path class="st0" d="M504,37.2c-1.3,0-2.6,0-3.9,0c0-1.3,0-2.6,0-4c1.3,0,2.6,0,3.9,0C504,34.5,504,35.8,504,37.2z"/>
			<path class="st0" d="M512.1,33.2c0,1.3,0,2.6,0,4c-1.3,0-2.6,0-4,0c0-1.3,0-2.6,0-4C509.4,33.2,510.7,33.2,512.1,33.2z"/>
			<path class="st0" d="M492,33.2c1.3,0,2.6,0,4,0c0,1.3,0,2.6,0,4c-1.3,0-2.6,0-4,0C492,35.9,492,34.6,492,33.2z"/>
			<path class="st0" d="M492,46.3c0-1.4,0-2.6,0-4c1.3,0,2.6,0,3.9,0c0,1.3,0,2.6,0,4C494.7,46.3,493.4,46.3,492,46.3z"/>
			<path class="st0" d="M504,46.3c-1.3,0-2.6,0-4,0c0-1.2,0-2.3,0-3.4c0-0.2,0.4-0.6,0.7-0.7c1.1-0.1,2.1,0,3.3,0
				C504,43.6,504,44.8,504,46.3z"/>
			<path class="st0" d="M508.1,42.2c1.2,0,2.3,0,3.3,0c0.3,0,0.7,0.4,0.7,0.7c0.1,1.1,0,2.2,0,3.4c-1.4,0-2.7,0-4,0
				C508.1,44.9,508.1,43.7,508.1,42.2z"/>
			<path class="st0" d="M508.2,24.6c1.4,0,2.6,0,4,0c0,1.2,0.1,2.3,0,3.4c0,0.3-0.5,0.7-0.8,0.7c-1,0.1-2,0-3.2,0
				C508.2,27.3,508.2,26,508.2,24.6z"/>
			<path class="st0" d="M504,24.6c0,1.4,0,2.6,0,4c-1.2,0-2.3,0-3.5,0c-0.2,0-0.6-0.4-0.6-0.6c-0.1-1.1,0-2.2,0-3.4
				C501.4,24.6,502.6,24.6,504,24.6z"/>
			<path class="st0" d="M492,28.6c0-1.3,0-2.6,0-3.9c1.3,0,2.6,0,3.9,0c0,1.3,0,2.6,0,3.9C494.7,28.6,493.4,28.6,492,28.6z"/>
		</g>
	</g>
	<g>
		<path class="st0" d="M407.2,53.8c-0.1,0-0.2,0-0.4,0c0,0.1,0,0.2,0,0.3c0,1.9,0,3.7,0,5.6c0,0.7-0.8,1.2-1.4,0.8
			c-0.4-0.2-0.5-0.6-0.5-1c0-1.7,0-3.4,0-5.1c0-0.2,0-0.4-0.2-0.5c-0.2-0.1-0.3-0.4-0.4-0.6c-0.3-0.8-0.6-1.6-0.8-2.5
			c-0.2-1-0.1-1.9,0.6-2.7c0.4-0.4,0.8-0.6,1.4-0.6c1,0,2,0,3,0c0.3,0,0.6,0.1,0.8,0.3c0.6,0.3,1,0.9,1.2,1.6
			c0.2,0.7-0.1,1.4-0.7,1.8c-0.5,0.3-1,0.5-1.5,0.5c-0.3,0-0.6,0-1,0c-0.3,0-0.6-0.4-0.6-0.7c0-0.4,0.4-0.6,0.8-0.6
			c0.5,0,0.9,0,1.4-0.2c0.5-0.1,0.5-0.7,0.2-1.2c0,0.3,0,0.5,0,0.7c0,0.1-0.1,0.2-0.1,0.3c-0.3,0.1-0.6,0.2-0.9,0.2
			c-0.1-0.4-0.1-0.8-0.2-1.1c0-0.2-0.1-0.2-0.2-0.2c-0.4,0.1-0.8,0.1-1.2,0.2c-0.2,0-0.4,0.1-0.6,0.1c0.2,1.1,0.3,2.3,0.5,3.4
			c0.7-0.1,1.3-0.2,2-0.3c0-0.2,0-0.4,0-0.6c0.2,0,0.5-0.1,0.8-0.1c0,0.1,0,0.3,0,0.4c0,2.5,0,5,0,7.5c0,0.8-0.6,1.3-1.3,1
			c-0.4-0.1-0.6-0.4-0.6-0.9c0-1.9,0-3.7,0-5.6C407.2,54,407.2,53.9,407.2,53.8z M404.9,49.1c-0.3,0.7-0.2,1.3,0,2
			C404.9,50.4,404.9,49.7,404.9,49.1z"/>
		<path class="st0" d="M407.1,46.9c-1,0.2-1.8-0.9-1.7-1.7c0-0.9,0.8-1.7,1.8-1.7c1,0,1.7,0.8,1.7,1.7
			C408.8,46.2,408.1,46.9,407.1,46.9z"/>
	</g>
	<g>
		<path class="st0" d="M532.1,51.2c-0.3,0-0.6,0-0.8,0c-1.4,0-2.6-0.5-3.5-1.5c-1.1-1.1-1.6-2.4-1.6-3.9c0-0.3-0.1-0.8-0.3-0.9
			c-2.1-1.2-3.1-2.9-3-5.3c0.1-1.9,1-3.2,2.6-4.2c0.5-0.3,0.8-0.6,0.8-1.2c-0.1-2.2,1.5-4.4,3.5-5.1c0.2-0.1,0.5-0.3,0.5-0.5
			c0.4-1.1,1-2.1,1.9-2.9c2.1-2,5.8-2.1,8-0.5c0.4,0.3,0.6,0.3,1,0.1c1.2-0.8,2.4-1.1,3.9-1.2c3.6,0,6.4,3,6.3,6.6
			c0,0.9,0.3,1.1,0.9,1.4c2.6,1.3,3.9,4.6,3.1,7.4c-0.6,2.1-2.1,3.5-4,4.3c0.8,3.9-2.6,9-8.9,7.1c0,1.7,0,8.8,0,10.4
			c-0.7,0-1.4,0-2,0c0-1.7,0-8.8,0-10.4c-0.8,0.1-1.6,0.1-2.4,0.2c0,3.4,0,6.8,0,10.2c-0.7,0-1.4,0-2.1,0c0-0.3,0-0.6,0-0.8
			c0-3.1,0-6.3,0-9.4c0-0.7-0.4-0.9-0.8-1c-0.4-0.1-0.8,0.5-0.8,1c0,3.1,0,6.3,0,9.4c0,0.3,0,0.5,0,0.8c-0.7,0-1.2,0-2,0
			C532.1,58.1,532.1,54.7,532.1,51.2z M528.4,35.2c0.3,0.9,0,1.5-0.9,1.6c-1.3,0.2-2.1,1.1-2.5,2.2c-0.6,1.6,0.5,3.8,2.3,4.2
			c1.2,0.3,1.4,0.6,1.1,1.8c-0.4,1.4,0.2,2.9,1.6,3.8c1.2,0.7,2.7,0.6,3.8-0.5c1-1,1.3-1,2.3,0c0.9,0.9,2.1,1.2,3.3,0.7
			c1.2-0.5,2-1.3,2.2-2.6c0.1-0.5,0-1-0.1-1.6c-0.2-0.9,0.1-1.4,1-1.6c1.5-0.3,2.6-1.9,2.6-3.3c0-1.3-1.3-2.9-2.6-3.1
			c-1-0.2-1.2-0.7-1-1.7c0.7-2.5-1.2-4.4-3.3-4.3c-0.8,0-1.6,0.4-2.2,1c-0.9,0.9-1.2,0.9-2.2,0c-1.1-1-2.3-1.2-3.6-0.7
			c-1.2,0.5-2,1.7-2.1,3.1C528.3,34.6,528.3,34.9,528.4,35.2z M534.7,29.8c0.2,0.1,0.5,0,0.6-0.1c2.5-1.6,5.9-1,7.6,1.6
			c0.6,0.9,0.9,1.9,0.8,2.9c-0.1,0.6,0.1,0.9,0.7,1.1c2.5,1.2,3.6,4.9,2,7.5c-0.6,0.9-1.3,1.5-2.2,2c-0.2,0.1-0.4,0.5-0.4,0.8
			c-0.2,1-0.4,2.1-0.5,3.3c0.9,0.7,2.5,0.6,3.9-0.2c1.8-1,2.6-3.2,2-5.2c-0.3-0.9-0.1-1.3,0.8-1.6c2.1-0.6,3.5-2.3,3.6-4.2
			c0-2.3-1.4-3.9-3.5-4.5c-0.9-0.2-1.2-0.6-0.9-1.5c0.9-2.7-0.8-5.2-3.4-5.8c-1.5-0.3-2.8,0.2-3.9,1.3c-0.7,0.7-1.3,0.8-2.1,0
			c-1.9-1.9-4.3-1.9-6.2-0.3c-0.1,0.1-0.2,0.1-0.2,0.2c-0.3,0.4-0.6,0.9-0.8,1.3C533.3,29.1,534,29.5,534.7,29.8z"/>
		<path class="st1" d="M528.2,34.2c0.1,0.3,0.1,0.7,0.2,1c0.3,0.9,0,1.5-0.9,1.6c-1.3,0.2-2.1,1.1-2.5,2.2c-0.6,1.6,0.5,3.8,2.3,4.2
			c1.2,0.3,1.4,0.6,1.1,1.8c-0.4,1.4,0.2,2.9,1.6,3.8c1.2,0.7,2.7,0.6,3.8-0.5c1-1,1.3-1,2.3,0c0.9,0.9,2.1,1.2,3.3,0.7
			c1.2-0.5,2-1.3,2.2-2.6c0.1-0.5,0-1-0.1-1.6c-0.2-0.9,0.1-1.4,1-1.6c1.5-0.3,2.6-1.9,2.6-3.3c0-1.3-1.3-2.9-2.6-3.1
			c-1-0.2-1.2-0.7-1-1.7c0.7-2.5-1.2-4.4-3.3-4.3c-0.8,0-1.6,0.4-2.2,1c-0.9,0.9-1.2,0.9-2.2,0c-1.1-1-2.3-1.2-3.6-0.7
			C529.1,31.7,528.3,32.9,528.2,34.2z"/>
		<path class="st1" d="M532.5,28.8c0.8,0.4,1.5,0.8,2.3,1.1c0.2,0.1,0.5,0,0.6-0.1c2.5-1.6,5.9-1,7.6,1.6c0.6,0.9,0.9,1.9,0.8,2.9
			c-0.1,0.6,0.1,0.9,0.7,1.1c2.5,1.2,3.6,4.9,2,7.5c-0.6,0.9-1.3,1.5-2.2,2c-0.2,0.1-0.4,0.5-0.4,0.8c-0.2,1-0.4,2.1-0.5,3.3
			c0.9,0.7,2.5,0.6,3.9-0.2c1.8-1,2.6-3.2,2-5.2c-0.3-0.9-0.1-1.3,0.8-1.6c2.1-0.6,3.5-2.3,3.6-4.2c0-2.3-1.4-3.9-3.5-4.5
			c-0.9-0.2-1.2-0.6-0.9-1.5c0.9-2.7-0.8-5.2-3.4-5.8c-1.5-0.3-2.8,0.2-3.9,1.3c-0.7,0.7-1.3,0.8-2.1,0c-1.9-1.9-4.3-1.9-6.2-0.3
			c-0.1,0.1-0.2,0.1-0.2,0.2C533,27.9,532.7,28.3,532.5,28.8z"/>
	</g>
	<g>
		<path class="st0" d="M576,55.7c-0.4,0-0.8,0-1.3,0c0.6-1.9,1.2-3.8,1.7-5.7c0,0-0.1,0-0.1-0.1c-0.1,0.1-0.2,0.2-0.2,0.3
			c-0.3,0.8-0.5,1.6-0.7,2.4c0,0.1-0.1,0.2-0.1,0.3c-0.1,0.2-0.4,0.3-0.6,0.3s-0.4-0.3-0.4-0.5c0-0.1,0-0.2,0-0.3
			c0.3-1,0.6-2,0.9-3.1c0.2-0.5,0.4-1.1,1.1-1.1c0.9-0.1,1.8-0.1,2.7,0c0.6,0,0.9,0.6,1.1,1.1c0.2,0.8,0.5,1.5,0.7,2.3
			c0.1,0.3,0.2,0.5,0.2,0.8c0.1,0.4,0,0.7-0.4,0.8c-0.3,0.1-0.6-0.1-0.7-0.5c-0.3-0.8-0.5-1.7-0.8-2.5c0-0.1-0.1-0.2-0.2-0.3
			c0,0-0.1,0-0.1,0.1c0.6,1.9,1.1,3.8,1.7,5.7c-0.4,0-0.7,0-1,0c-0.3,0-0.4,0.1-0.4,0.4c0,1.2,0,2.4,0,3.6c0,0.2-0.1,0.4-0.2,0.6
			c-0.1,0.3-0.4,0.3-0.7,0.3c-0.3,0-0.5-0.2-0.6-0.5c0-0.2-0.1-0.3-0.1-0.5c0-1.2,0-2.4,0-3.6c0-0.1-0.1-0.2-0.1-0.3
			c0,0.1-0.1,0.2-0.1,0.3c0,1.2,0,2.4,0,3.6c0,0.1,0,0.3,0,0.4c-0.1,0.3-0.3,0.5-0.7,0.6c-0.3,0-0.6-0.2-0.7-0.5
			c0-0.1-0.1-0.3-0.1-0.5C576,58.3,576,57.1,576,55.7z"/>
		<path class="st0" d="M571.8,58.9c-0.2-0.2-0.4-0.5-0.6-0.7c-0.8,0.4-1.6,0.2-2.3-0.2c-0.2-0.1-0.8,0.2-0.8,0.5
			c0,0.1,0.1,0.2,0.2,0.2c0.4,0.3,0.6,0.7,0.5,1.1c-0.1,0.4-0.5,0.7-0.9,0.7c-0.4,0-0.8-0.3-1-0.7c-0.1-0.4,0-0.8,0.5-1.1
			c0.1-0.1,0.2-0.2,0.2-0.3c0-0.2,0.1-0.3,0.2-0.5c1.3-1,2.5-2.1,3.8-3.1c0.3-0.2,0.5-0.5,0.8-0.8c0.2-0.2,0.4-0.4,0.6-0.5
			c0.4-0.3,0.9-0.1,1.2,0.3c0.2,0.4,0.1,1-0.3,1.2c-0.1,0-0.2,0-0.2,0c0,0-0.1-0.2,0-0.2c0-0.1,0.2-0.2,0.2-0.3c0-0.2,0-0.4-0.1-0.5
			c-0.1-0.1-0.4-0.1-0.5-0.1c-0.4,0.3-0.7,0.7-1.1,1c0,0,0,0.2,0,0.2c0.1,0.8,0,1.6-0.3,2.4c0,0.1,0,0.2,0,0.3
			c0.1,0.2,0.3,0.3,0.4,0.4c0.2,0.2,0.3,0.3,0.6,0.3c0.4,0,0.7,0.3,0.8,0.8c0.1,0.4-0.1,0.8-0.5,1c-0.4,0.2-0.8,0.2-1.1-0.1
			c-0.3-0.3-0.4-0.7-0.2-1.1C571.8,59.1,571.8,59,571.8,58.9z"/>
		<path class="st0" d="M571.3,53.6c0,0.8-0.6,1.4-1.4,1.4c-0.8,0-1.4-0.6-1.4-1.4c0-0.8,0.7-1.5,1.4-1.5
			C570.7,52.1,571.3,52.8,571.3,53.6z"/>
		<path class="st0" d="M577.6,44.4c0.9,0,1.7,0.8,1.7,1.7c0,0.9-0.8,1.8-1.8,1.7c-0.9,0-1.7-0.8-1.7-1.7
			C575.9,45.2,576.7,44.4,577.6,44.4z"/>
		<path class="st0" d="M569.1,56.5c-0.6,0.5-1.1,0.9-1.7,1.4c-0.3,0.2-0.6,0.2-0.8,0c-0.2-0.2-0.1-0.5,0.1-0.7
			c0.3-0.3,0.6-0.5,0.9-0.8C568.2,55.9,568.6,56,569.1,56.5z"/>
	</g>
	<g>
		<g>
			<path class="st0" d="M9.9,55c0,0.5-0.1,0.9-0.1,1.4c0,0.2-0.1,0.4-0.1,0.6c-0.4,1-0.8,2-1.1,2.9c-0.1,0.4-0.4,0.6-0.8,0.7
				c-0.7,0.1-1.3-0.5-1-1.2c0.2-0.5,0.4-1.1,0.6-1.6c0.5-1.1,0.7-2.2,0.7-3.4c0-0.2,0-0.3,0-0.5c0-0.3,0-0.6-0.1-0.9
				c-0.1-0.2-0.1-0.6-0.1-0.8c0.2-0.9,0.4-1.7,0.5-2.6c0,0-0.1,0-0.1-0.1C8,50,7.5,50.5,7.1,50.9c-0.2,0.2-0.3,0.4-0.5,0.5
				c-0.3,0.3-0.7,0.3-1,0.1c-0.3-0.2-0.4-0.7-0.1-1c1.1-1.3,2.2-2.6,3.9-3.2c1.2-0.5,1.9-0.3,2.7,0.7c0.7,0.8,1.4,1.6,2.2,2.4
				c0.3,0.3,0.7,0.5,1,0.8c0.3,0.2,0.5,0.5,0.4,0.9c0,0.1,0.1,0.2,0.2,0.3c1.2,1.2,2.4,2.5,3.7,3.7c0,0,0.1,0.1,0.1,0.1
				c-0.1,0.1-0.2,0.2-0.3,0.3c-0.4-0.4-0.8-0.7-1.1-1.1c-0.9-0.9-1.8-1.8-2.7-2.8c-0.1-0.1-0.2-0.2-0.4-0.1c-0.2,0-0.5,0-0.7-0.2
				c-0.9-0.6-1.7-1.2-2.3-2c0-0.1-0.1-0.1-0.1-0.2c0,0-0.1,0-0.1,0.1c-0.2,0.9-0.3,1.7-0.6,2.6c-0.1,0.4,0,0.8,0.2,1.1
				c1,1.3,1.6,2.8,1.9,4.4c0.1,0.4,0.2,0.7,0.3,1.1c0.1,0.6-0.1,1-0.6,1.2c-0.5,0.1-1-0.1-1.2-0.7c-0.3-0.9-0.5-1.7-0.7-2.6
				C11,56.4,10.4,55.8,9.9,55C10,55,9.9,55,9.9,55z"/>
			<path class="st0" d="M20.3,58.9c-0.7,0-1.4,0-2.1,0c0.2,0.3,0.3,0.6,0.5,0.9c0.1,0.2,0.1,0.4-0.1,0.5c-0.2,0.1-0.4,0-0.5-0.2
				c-0.2-0.3-0.4-0.7-0.6-1.1c-0.2,0.4-0.4,0.7-0.5,1c-0.1,0.2-0.3,0.4-0.5,0.3c-0.3-0.1-0.2-0.4-0.1-0.6c0-0.1,0.1-0.1,0.1-0.2
				c0.5-0.6,0.4-1.4,0.4-2.1c0-0.1-0.1-0.2-0.2-0.3c-0.2-0.1-0.4-0.3-0.5-0.4c-0.1-0.1-0.1-0.3,0-0.4c0-0.1,0.3,0,0.4-0.1
				c0,0,0,0,0.1,0c0.4,0.5,1,0.6,1.6,0.5c1-0.2,1.7,0.4,2.5,0.9c0.1,0,0.1,0.2,0.1,0.2c0,0.7,0,1.4,0,2.1c0,0.2-0.1,0.4-0.3,0.4
				c-0.3,0-0.4-0.2-0.3-0.4C20.3,59.6,20.3,59.3,20.3,58.9z"/>
			<path class="st0" d="M11.6,43.5c1,0,1.9,0.8,1.9,1.9c0,1-0.9,1.9-1.9,1.9c-1,0-1.9-0.9-1.9-1.9C9.7,44.3,10.6,43.5,11.6,43.5z"/>
			<path class="st0" d="M21.1,57.4c-0.5-0.3-1-0.6-1.5-0.8c0.2-0.3,0.4-0.6,0.6-0.9c0.2-0.3,0.3-0.6,0.5-0.9
				c0.1-0.1,0.2-0.2,0.3-0.2c0.1,0,0.3,0.2,0.3,0.3c0,0.7,0.5,1,1,1.4c0.2,0.2,0.6,0.2,0.5,0.6c-0.1,0.3-0.4,0.4-0.8,0.4
				c0,0-0.1,0-0.1,0C21.5,57.1,21.3,57.2,21.1,57.4z"/>
		</g>
		<g>
			<path class="st0" d="M134.6,50c-2.3-0.3-2.3-0.3-3.3-1.4c5.2-5.2,10.5-10.5,15.7-15.7c5.1,5.2,10.3,10.4,15.6,15.7
				c-0.5,1.1-1.6,1.5-3.1,1.2c0,3.8,0,7.4,0,11.1c-8.3,0-16.5,0-24.8,0C134.6,57.3,134.6,53.7,134.6,50z M148,61.3
				c0-0.4,0-2.7,0-3.1c0-2.5,0-5.1,0-7.6c0-0.6,0.2-0.9,0.8-0.8c1.5,0,3,0,4.6,0c0.5,0,0.6,0.2,0.6,0.7c0,2.4,0,4.8,0,7.2
				c0,0.6,0,3.1,0,3.7c1.3,0,2.4,0,3.5,0c0-3.6,0-9.1,0-12.6c0-0.3-0.3-0.7-0.5-1c-3.1-3.2-6.3-6.3-9.4-9.4
				c-0.2-0.2-0.4-0.4-0.6-0.6c-3.4,3.5-6.9,6.9-10.3,10.3c-0.2,0.2-0.2,0.6-0.3,0.9c0,1.8,0,3.6,0,5.3c0,1.7,0,5.4,0,7.1
				C140.3,61.3,144.1,61.3,148,61.3z"/>
			<path class="st0" d="M157.9,42.8c-1.3-1.4-2.8-2.7-4-4.1c-0.4-0.5-0.2-1.4-0.3-2.3c1.5,0,2.9,0,4.2,0c0.1,0,0.4,0.4,0.4,0.6
				c0,1.9,0,3.8,0,5.7C158.1,42.7,158,42.7,157.9,42.8z"/>
			<path class="st1" d="M148,61.3c-3.9,0-7.7,0-11.6,0c0-1.7,0-5.4,0-7.1c0-1.8,0-3.6,0-5.3c0-0.3,0.1-0.7,0.3-0.9
				c3.4-3.4,6.8-6.9,10.3-10.3c0.3,0.2,0.5,0.4,0.6,0.6c3.1,3.1,6.3,6.3,9.4,9.4c0.3,0.3,0.5,0.6,0.5,1c0,3.5,0,9,0,12.6
				c-1.2,0-2.3,0-3.5,0c0-0.5,0-3.1,0-3.7c0-2.4,0-4.8,0-7.2c0-0.5-0.2-0.7-0.6-0.7c-1.5,0-3.1,0-4.6,0c-0.7,0-0.8,0.2-0.8,0.8
				c0,2.5,0,5.1,0,7.6C148,58.5,148,60.9,148,61.3z M139.8,54.3c1.6,0,3.1,0,4.6,0c0-1.4,0-2.7,0-4c0-0.2-0.4-0.5-0.6-0.5
				c-1.1-0.1-2.3,0-3.4,0c-0.5,0-0.6,0.2-0.6,0.7C139.9,51.7,139.8,52.9,139.8,54.3z"/>
			<path class="st0" d="M139.8,54.3c0-1.3,0-2.6,0-3.9c0-0.5,0.1-0.7,0.6-0.7c1.1,0,2.3,0,3.4,0c0.2,0,0.5,0.3,0.6,0.5
				c0,1.3,0,2.6,0,4C142.9,54.3,141.4,54.3,139.8,54.3z"/>
		</g>
		<g>
			<path class="st0" d="M97.1,60.8c0-7.8,0-15.6,0-23.5c-1.1,0-2.1,0-3.4,0c0.2-0.9,0.3-1.6,0.6-2.3c1.5-2.9,3-5.8,4.5-8.7
				c0.3-0.5,0.6-0.7,1.2-0.7c5.2,0,10.4,0,15.6,0c0.5,0,1,0,1.5-0.1c0-1,0-1.9,0-2.9c1.5,0,2.9,0,4.5,0c0,1.5,0,3.1,0,4.6
				c0.1,0,0.2,0,0.3,0c0-0.3,0.1-0.7,0.1-1c0-0.5,0.2-0.7,0.7-0.6c1.8,0,3.5,0,5.3,0.1c0.3,0,0.7,0.3,0.9,0.5c1.6,3,3.2,6.1,4.7,9.2
				c0.3,0.5,0.3,1.1,0.5,1.8c-1.2,0-2.3,0-3.4,0c0,7.9,0,15.7,0,23.5C119.4,60.8,108.3,60.8,97.1,60.8z M128.3,37.4
				c-9.8,0-19.4,0-29.1,0c0,7.1,0,16.2,0,23.3c3.8,0,7.6,0,11.5,0c0-3.1,0-8.2,0-11.2c2.1,0,4.2,0,6.3,0c0,3.1,0,8.2,0,11.3
				c3.8,0,7.6,0,11.4,0C128.3,53.6,128.3,44.5,128.3,37.4z"/>
			<path class="st1" d="M128.3,37.4c0,7.1,0,16.2,0,23.4c-3.8,0-7.6,0-11.4,0c0-3.1,0-8.2,0-11.3c-2.1,0-4.1,0-6.3,0
				c0,3,0,8.1,0,11.2c-3.9,0-7.7,0-11.5,0c0-7.1,0-16.2,0-23.3C108.9,37.4,118.5,37.4,128.3,37.4z M120.4,54.2c1.6,0,3.2,0,4.8,0
				c0-1.6,0-3.2,0-4.7c-1.6,0-3.2,0-4.8,0C120.4,51,120.4,52.5,120.4,54.2z M125.2,39.7c-1.5,0-2.9,0-4.3,0c-0.2,0-0.5,0.3-0.5,0.4
				c0,1.4,0,2.9,0,4.3c1.7,0,3.3,0,4.8,0C125.2,42.8,125.2,41.3,125.2,39.7z M111.4,44.4c1.6,0,3.2,0,4.8,0c0-1.4,0-2.7,0-4.1
				c0-0.2-0.4-0.6-0.7-0.6c-1.4-0.1-2.7,0-4.1,0C111.4,41.3,111.4,42.8,111.4,44.4z M107.1,44.5c0-1.6,0-3.1,0-4.7
				c-1.6,0-3.2,0-4.8,0c0,1.5,0,2.8,0,4.2c0,0.2,0.4,0.5,0.6,0.5C104.2,44.5,105.6,44.5,107.1,44.5z M107,54.2c0-1.7,0-3.3,0-4.9
				c-1.5,0-2.8,0-4.2,0c-0.2,0-0.5,0.4-0.5,0.6c-0.1,1.2-0.1,2.5,0,3.7c0,0.2,0.4,0.6,0.6,0.6C104.2,54.3,105.6,54.2,107,54.2z"/>
			<path class="st0" d="M120.4,54.2c0-1.6,0-3.1,0-4.7c1.6,0,3.1,0,4.8,0c0,1.5,0,3.1,0,4.7C123.6,54.2,122,54.2,120.4,54.2z"/>
			<path class="st0" d="M125.2,39.7c0,1.6,0,3.2,0,4.8c-1.6,0-3.1,0-4.8,0c0-1.4,0-2.9,0-4.3c0-0.1,0.3-0.4,0.5-0.4
				C122.3,39.7,123.7,39.7,125.2,39.7z"/>
			<path class="st0" d="M111.4,44.4c0-1.6,0-3.1,0-4.7c1.4,0,2.8,0,4.1,0c0.2,0,0.6,0.4,0.7,0.6c0.1,1.3,0,2.7,0,4.1
				C114.6,44.4,113.1,44.4,111.4,44.4z"/>
			<path class="st0" d="M107.1,44.5c-1.5,0-2.8,0-4.2,0c-0.2,0-0.6-0.3-0.6-0.5c-0.1-1.4,0-2.8,0-4.2c1.7,0,3.2,0,4.8,0
				C107.1,41.4,107.1,42.9,107.1,44.5z"/>
			<path class="st0" d="M107,54.2c-1.4,0-2.8,0-4.1,0c-0.2,0-0.6-0.4-0.6-0.6c-0.1-1.2-0.1-2.5,0-3.7c0-0.2,0.4-0.5,0.5-0.6
				c1.4,0,2.8,0,4.2,0C107,51,107,52.6,107,54.2z"/>
		</g>
		<g>
			<path class="st0" d="M74.9,57.9c0-1.9,0-3.7,0-5.6c0-0.1,0.1-0.3,0.1-0.4c0.2-0.7,0.6-1.1,1.3-1.4c0.3-0.1,0.4-0.2,0.5-0.5
				c0.4-1.2,0.9-2.4,1.4-3.5c0.4-1.1,1.1-1.6,2.4-1.7c2.7,0,5.4,0,8,0c1.2,0,1.9,0.5,2.4,1.7c0.4,1,0.8,2,1.1,3c0.2,0.5,0.3,1,1,1.2
				c0.1,0,0.3,0.2,0.4,0.3c0.3,0.4,0.5,0.8,0.7,1.2c0,1.9,0,3.8,0,5.7c-0.5,0-1,0-1.5,0c0,0.4,0,0.6,0,0.9c0,0.4,0,0.8-0.1,1.2
				c-0.1,0.9-1.1,1.4-1.9,1c-0.7-0.3-0.9-0.8-0.9-1.5c0-0.5,0-1,0-1.5c-3.5,0-6.9,0-10.4,0c0,0.6,0,1.3,0,1.9c0,0.6-0.4,1-1,1.2
				c-0.5,0.2-1,0.1-1.4-0.3c-0.4-0.4-0.5-0.8-0.5-1.4c0-0.5,0-1,0-1.5C75.9,57.9,75.4,57.9,74.9,57.9z M90.7,50.5
				c-0.4-1.1-0.8-2.2-1.2-3.2c-0.2-0.6-0.4-0.8-1.1-0.8c-2.6,0-5.2,0-7.8,0c-0.7,0-0.9,0.1-1.1,0.8c-0.4,1-0.7,1.9-1.1,2.9
				c0,0.1-0.1,0.2-0.1,0.3C82.4,50.5,86.5,50.5,90.7,50.5z M77.9,54.8c0.7,0,1.3-0.6,1.3-1.3c0-0.7-0.6-1.4-1.3-1.4
				c-0.7,0-1.3,0.6-1.3,1.3C76.6,54.1,77.2,54.8,77.9,54.8z M92.4,53.4c0-0.7-0.6-1.4-1.3-1.4c-0.7,0-1.3,0.6-1.3,1.4
				c0,0.7,0.6,1.3,1.3,1.3C91.8,54.8,92.4,54.2,92.4,53.4z"/>
			<path class="st1" d="M90.7,50.5c-4.2,0-8.3,0-12.4,0c0-0.1,0.1-0.2,0.1-0.3c0.4-1,0.7-1.9,1.1-2.9c0.2-0.6,0.4-0.8,1.1-0.8
				c2.6,0,5.2,0,7.8,0c0.7,0,0.9,0.1,1.1,0.8C89.9,48.3,90.3,49.4,90.7,50.5z"/>
			<path class="st1" d="M77.9,54.8c-0.7,0-1.3-0.6-1.3-1.4c0-0.7,0.6-1.3,1.3-1.3c0.7,0,1.3,0.6,1.3,1.4
				C79.2,54.2,78.6,54.8,77.9,54.8z"/>
			<path class="st1" d="M92.4,53.4c0,0.7-0.6,1.4-1.3,1.4c-0.7,0-1.3-0.6-1.3-1.3c0-0.7,0.6-1.4,1.3-1.4
				C91.8,52.1,92.4,52.7,92.4,53.4z"/>
		</g>
		<g>
			<path class="st0" d="M24,51.5c-0.3,0-0.6,0-0.8,0c-1.4,0-2.6-0.5-3.5-1.5c-1.1-1.1-1.6-2.4-1.6-3.9c0-0.3-0.1-0.8-0.3-0.9
				c-2.1-1.2-3.1-2.9-3-5.3c0.1-1.9,1-3.2,2.6-4.2c0.5-0.3,0.8-0.6,0.8-1.2c-0.1-2.2,1.5-4.4,3.5-5.1c0.2-0.1,0.5-0.3,0.5-0.5
				c0.4-1.1,1-2.1,1.9-2.9c2.1-2,5.8-2.1,8-0.5c0.4,0.3,0.6,0.3,1,0.1c1.2-0.8,2.4-1.1,3.9-1.2c3.6,0,6.4,3,6.3,6.6
				c0,0.9,0.3,1.1,0.9,1.4c2.6,1.3,3.9,4.6,3.1,7.4c-0.6,2.1-2.1,3.5-4,4.3c0.8,3.9-2.6,9-8.9,7.1c0,1.7,0,8.8,0,10.4
				c-0.7,0-1.4,0-2,0c0-1.7,0-8.8,0-10.4c-0.8,0.1-1.6,0.1-2.4,0.2c0,3.4,0,6.8,0,10.2c-0.7,0-1.4,0-2.1,0c0-0.3,0-0.6,0-0.8
				c0-3.1,0-6.3,0-9.4c0-0.7-0.4-0.9-0.8-1c-0.4-0.1-0.8,0.5-0.8,1c0,3.1,0,6.3,0,9.4c0,0.3,0,0.5,0,0.8c-0.7,0-1.2,0-2,0
				C24,58.3,24,54.9,24,51.5z M20.2,35.5c0.3,0.9,0,1.5-0.9,1.6c-1.3,0.2-2.1,1.1-2.5,2.2c-0.6,1.6,0.5,3.8,2.3,4.2
				c1.2,0.3,1.4,0.6,1.1,1.8c-0.4,1.4,0.2,2.9,1.6,3.8c1.2,0.7,2.7,0.6,3.8-0.5c1-1,1.3-1,2.3,0c0.9,0.9,2.1,1.2,3.3,0.7
				c1.2-0.5,2-1.3,2.2-2.6c0.1-0.5,0-1-0.1-1.6c-0.2-0.9,0.1-1.4,1-1.6c1.5-0.3,2.6-1.9,2.6-3.3c0-1.3-1.3-2.9-2.6-3.1
				c-1-0.2-1.2-0.7-1-1.7c0.7-2.5-1.2-4.4-3.3-4.3c-0.8,0-1.6,0.4-2.2,1c-0.9,0.9-1.2,0.9-2.2,0c-1.1-1-2.3-1.2-3.6-0.7
				c-1.2,0.5-2,1.7-2.1,3.1C20.1,34.8,20.1,35.1,20.2,35.5z M26.5,30c0.2,0.1,0.5,0,0.6-0.1c2.5-1.6,5.9-1,7.6,1.6
				c0.6,0.9,0.9,1.9,0.8,2.9c-0.1,0.6,0.1,0.9,0.7,1.1c2.5,1.2,3.6,4.9,2,7.5c-0.6,0.9-1.3,1.5-2.2,2c-0.2,0.1-0.4,0.5-0.4,0.8
				c-0.2,1-0.4,2.1-0.5,3.3c0.9,0.7,2.5,0.6,3.9-0.2c1.8-1,2.6-3.2,2-5.2c-0.3-0.9-0.1-1.3,0.8-1.6c2.1-0.6,3.5-2.3,3.6-4.2
				c0-2.3-1.4-3.9-3.5-4.5c-0.9-0.2-1.2-0.6-0.9-1.5c0.9-2.7-0.8-5.2-3.4-5.8c-1.5-0.3-2.8,0.2-3.9,1.3c-0.7,0.7-1.3,0.8-2.1,0
				c-1.9-1.9-4.3-1.9-6.2-0.3c-0.1,0.1-0.2,0.1-0.2,0.2c-0.3,0.4-0.6,0.9-0.8,1.3C25.1,29.4,25.8,29.7,26.5,30z"/>
			<path class="st1" d="M20,34.5c0.1,0.3,0.1,0.7,0.2,1c0.3,0.9,0,1.5-0.9,1.6c-1.3,0.2-2.1,1.1-2.5,2.2c-0.6,1.6,0.5,3.8,2.3,4.2
				c1.2,0.3,1.4,0.6,1.1,1.8c-0.4,1.4,0.2,2.9,1.6,3.8c1.2,0.7,2.7,0.6,3.8-0.5c1-1,1.3-1,2.3,0c0.9,0.9,2.1,1.2,3.3,0.7
				c1.2-0.5,2-1.3,2.2-2.6c0.1-0.5,0-1-0.1-1.6c-0.2-0.9,0.1-1.4,1-1.6c1.5-0.3,2.6-1.9,2.6-3.3c0-1.3-1.3-2.9-2.6-3.1
				c-1-0.2-1.2-0.7-1-1.7c0.7-2.5-1.2-4.4-3.3-4.3c-0.8,0-1.6,0.4-2.2,1c-0.9,0.9-1.2,0.9-2.2,0c-1.1-1-2.3-1.2-3.6-0.7
				C20.9,31.9,20.1,33.1,20,34.5z"/>
			<path class="st1" d="M24.3,29c0.8,0.4,1.5,0.8,2.3,1.1c0.2,0.1,0.5,0,0.6-0.1c2.5-1.6,5.9-1,7.6,1.6c0.6,0.9,0.9,1.9,0.8,2.9
				c-0.1,0.6,0.1,0.9,0.7,1.1c2.5,1.2,3.6,4.9,2,7.5c-0.6,0.9-1.3,1.5-2.2,2c-0.2,0.1-0.4,0.5-0.4,0.8c-0.2,1-0.4,2.1-0.5,3.3
				c0.9,0.7,2.5,0.6,3.9-0.2c1.8-1,2.6-3.2,2-5.2c-0.3-0.9-0.1-1.3,0.8-1.6c2.1-0.6,3.5-2.3,3.6-4.2c0-2.3-1.4-3.9-3.5-4.5
				c-0.9-0.2-1.2-0.6-0.9-1.5c0.9-2.7-0.8-5.2-3.4-5.8c-1.5-0.3-2.8,0.2-3.9,1.3c-0.7,0.7-1.3,0.8-2.1,0c-1.9-1.9-4.3-1.9-6.2-0.3
				c-0.1,0.1-0.2,0.1-0.2,0.2C24.8,28.1,24.5,28.6,24.3,29z"/>
		</g>
		<g>
			<path class="st0" d="M66.8,56.2c-0.1,0.3-0.2,0.7-0.2,1c0,0.9,0.1,1.8,0.2,2.6c0,0.1,0,0.2,0,0.3c0.1,0.4-0.2,0.8-0.6,0.9
				c-0.4,0.1-0.8-0.2-0.9-0.6c-0.2-0.9-0.3-1.7-0.4-2.6c-0.1-0.8,0-1.5,0.3-2.2c0.1-0.4,0.2-0.7,0.3-1.1c0.1-0.4,0.3-0.8,0-1.2
				c-0.1-0.1-0.1-0.3-0.1-0.4c0-0.7-0.1-1.4-0.1-2.1c0-0.1,0.1-0.2,0.1-0.3c0.4-0.6,0.7-1.3,0.8-2.1c0.1-0.5-0.2-0.8-0.6-0.9
				c-0.4-0.1-0.8,0.1-1,0.5c0,0,0,0.1,0,0.2c-0.1-0.6,0.6-1.2,1.3-1c0.2,0.1,0.5,0.3,0.7,0.5c1,1.5,1.6,3.2,1.7,5
				c0,0.4,0,0.8-0.3,1.1C68,53.9,68,54,68,54.1c0.1,0.5,0.2,1,0.3,1.5c0.1,0.3,0.2,0.7,0.4,1c0.5,0.9,1,1.8,1.4,2.7
				c0.3,0.5,0,1-0.5,1.1c-0.3,0.1-0.6-0.1-0.8-0.4c-0.6-1.1-1.2-2.1-1.7-3.2C67,56.7,67,56.5,66.8,56.2
				C66.9,56.2,66.8,56.2,66.8,56.2z"/>
			<path class="st0" d="M66.1,45.5c0,1-0.8,1.9-1.9,1.9c-1.1,0-1.9-0.9-1.9-1.9c0-1,0.9-1.9,1.9-1.9C65.2,43.6,66.1,44.4,66.1,45.5z
				"/>
			<path class="st0" d="M62.2,52.3c-0.5,0-0.8-0.3-0.9-0.7c0-0.4,0.2-0.8,0.7-0.8c1.5-0.2,2.4-1,2.8-2.7c0.1-0.4,0.3-0.6,0.7-0.6
				c0.4,0,0.6,0.2,0.7,0.5c0,0.1,0,0.2,0,0.3c-0.1,1.6-1.5,3.3-3.1,3.8C62.8,52.2,62.5,52.3,62.2,52.3z"/>
			<path class="st0" d="M61.2,51.9c0.1,0.1,0.2,0.2,0.2,0.2c0,0,0.1,0.1,0.1,0.1c-0.1,0.4-0.2,0.7-0.2,1c-0.5,2.5-1,5-1.5,7.5
				c0,0.1,0,0.1,0,0.2c-0.1,0.1-0.2,0.1-0.3,0.2c-0.1-0.1-0.2-0.2-0.2-0.3c0.1-0.6,0.2-1.1,0.3-1.6c0.4-2.2,0.8-4.4,1.3-6.5
				C61,52.4,61.1,52.2,61.2,51.9z"/>
			<path class="st0" d="M62.2,52.4c0.1,0,0.3,0,0.5-0.1c0,0.2,0,0.4-0.1,0.6c-0.1,0.2-0.3,0-0.4-0.2C62.2,52.6,62.2,52.5,62.2,52.4z
				"/>
		</g>
		<g>
			<polygon class="st0" points="162.5,61 162.5,54.2 161.6,52.8 160.8,54.2 160.8,61 			"/>
			<polygon class="st0" points="165.5,61 165.5,54.2 164.6,52.8 163.7,54.2 163.7,61 			"/>
			<polygon class="st0" points="168.4,61 168.4,54.2 167.6,52.8 166.7,54.2 166.7,61 			"/>
			<polygon class="st0" points="171.4,61 171.4,54.2 170.5,52.8 169.6,54.2 169.6,61 			"/>
			<rect x="160.3" y="55.1" class="st0" width="11.7" height="1"/>
			<rect x="160.3" y="58.7" class="st0" width="11.7" height="1"/>
		</g>
	</g>
	<rect y="60.4" class="st0" width="584.1" height="3.1"/>
</g>
</svg>
