<?xml version="1.0" encoding="utf-8"?>
<!-- Generator: Adobe Illustrator 19.1.0, SVG Export Plug-In . SVG Version: 6.00 Build 0)  -->
<svg version="1.1" id="Layer_1" xmlns="http://www.w3.org/2000/svg" xmlns:xlink="http://www.w3.org/1999/xlink" x="0px" y="0px"
	 viewBox="0 -7 783 55" style="enable-background:new 0 -7 783 55;" xml:space="preserve">
<metadata><?xpacket begin="﻿" id="W5M0MpCehiHzreSzNTczkc9d"?>
<x:xmpmeta xmlns:x="adobe:ns:meta/" x:xmptk="Adobe XMP Core 5.6-c067 79.157747, 2015/03/30-23:40:42        ">
   <rdf:RDF xmlns:rdf="http://www.w3.org/1999/02/22-rdf-syntax-ns#">
      <rdf:Description rdf:about=""/>
   </rdf:RDF>
</x:xmpmeta>
                                                                                                    
                                                                                                    
                                                                                                    
                                                                                                    
                                                                                                    
                                                                                                    
                                                                                                    
                                                                                                    
                                                                                                    
                                                                                                    
                                                                                                    
                                                                                                    
                                                                                                    
                                                                                                    
                                                                                                    
                                                                                                    
                                                                                                    
                                                                                                    
                                                                                                    
                                                                                                    
                           
<?xpacket end="w"?></metadata>
<style type="text/css">
	.st0{fill:#BBBDBF;}
	.st1{fill:#FFFFFF;}
</style>
<g>
	<g>
		<g>
			<g>
				<path class="st0" d="M426,46.2c0.4-0.7,1-0.9,1.9-0.8c0-6.9,0-14.8,0-21.8c0.3,0,0.5,0,0.7,0c4.6,0,9.1,0,13.7,0
					c1.2,0,2.3-0.4,3.2-1.3c3.2-3.1,6.5-6.2,9.6-9.3c0.1-0.1,0.3-0.3,0.5-0.4c1.1,1.1,2.2,2.1,3.3,3.2c2.2,2.2,4.6,4.3,6.8,6.5
					c0.9,0.9,2,1.4,3.3,1.4c4.6,0,9,0,13.6,0c0.2,0,0.4,0,0.7,0c0,6.9,0,14.8,0,21.7c1.8,0.3,1.9-0.7,1.9,1.2c0,1.2-0.4,0.6-1.6,0.6
					c-18.6,0-37.4,0-56,0c-0.7,0-1.2,0.8-1.6,0.2C426,46.6,426,46.9,426,46.2z M454.7,20c-2.2,0.2-4,2.5-3.7,5
					c0.1,2.4,2.3,4.3,4.9,4.3c2.4,0,4.6-2,4.7-4.3c0.1-2.5-1.6-4.7-3.7-5c0,0.1,0,0.2,0,0.3c0,1.4,0,2.8,0,4.1
					c0,0.7-0.4,1.1-1.1,1.1c-0.6,0-1.3,0-1.9,0s-0.7-0.2-0.7-0.9c0-0.7,0.2-0.9,0.7-0.9c0.4,0,0.7,0,1.1,0
					C454.7,22.4,454.7,21.2,454.7,20z M458.5,44.4c0-2.3,0.1-4.7,0-7c-0.1-1.5-1.5-2.5-3.1-2.4c-1.4,0.1-2.5,1.4-2.5,2.8
					c0,2.1,0,4.1,0,6.2c0,0.1,0,0.3,0,0.4C454.8,44.4,456.6,44.4,458.5,44.4z M437.5,29.3c-1.3,0-2.5,0-3.7,0c0,1.3,0,2.5,0,3.7
					c1.3,0,2.5,0,3.7,0C437.5,31.8,437.5,30.6,437.5,29.3z M447.1,29.3c-1.3,0-2.5,0-3.7,0c0,1.3,0,2.5,0,3.7c1.3,0,2.5,0,3.7,0
					C447.1,31.8,447.1,30.6,447.1,29.3z M464.3,33c1.3,0,2.5,0,3.7,0c0-1.3,0-2.5,0-3.7c-1.3,0-2.5,0-3.7,0
					C464.3,30.6,464.3,31.8,464.3,33z M477.7,29.3c-1.3,0-2.5,0-3.7,0c0,1.3,0,2.5,0,3.7c1.3,0,2.5,0,3.7,0
					C477.7,31.8,477.7,30.6,477.7,29.3z M433.7,40.6c1.3,0,2.5,0,3.7,0c0-1.3,0-2.5,0-3.7c-1.3,0-2.5,0-3.7,0
					C433.7,38.1,433.7,39.3,433.7,40.6z M447,40.6c0-1.3,0-2.5,0-3.7c-1.3,0-2.5,0-3.7,0c0,1.3,0,2.5,0,3.7
					C444.6,40.6,445.8,40.6,447,40.6z M468.1,40.6c0-1.3,0-2.5,0-3.7c-1.3,0-2.5,0-3.7,0c0,1.3,0,2.5,0,3.7
					C465.6,40.6,466.8,40.6,468.1,40.6z M477.6,40.6c0-1.3,0-2.5,0-3.7c-1.3,0-2.5,0-3.7,0c0,1.3,0,2.5,0,3.7
					C475.2,40.6,476.4,40.6,477.6,40.6z"/>
				<path class="st0" d="M426,20.6c2.4-3.1,4.9-6.3,7.3-9.4c0.4-0.5,1-0.8,1.6-0.8c4,0,7.8,0,11.8,0c0.3,0,0.7-0.1,0.9-0.3
					c2.2-2.1,4.6-4.3,6.8-6.4c0.2-0.2,0.3-0.5,0.3-0.8c0-2.7,0-5.5,0-8.2c0-1.1,1-1.8,1.9-1.1c1.4,1,2.9,0.9,4.5,0.3
					c1.4-0.6,2.8-0.6,4.3,0c0.5,0.2,0.8,0.5,0.8,1.2c-0.1,1.8,0,3.5,0,5.3c0,0.2,0,0.3,0,0.4c-0.6-0.2-1.3-0.5-1.9-0.7
					c-1-0.3-2.1-0.1-3,0.3c-1,0.4-2,0.7-3,0.4c-0.5-0.1-0.9-0.4-1.4-0.6c0,1,0,2,0,3c0,0.1,0.2,0.3,0.3,0.4c2.2,2.2,4.6,4.3,6.8,6.4
					c0.2,0.2,0.5,0.3,0.8,0.3c4,0,7.8,0,11.8,0c0.8,0,1.3,0.3,1.8,0.9c2.2,2.9,4.6,5.9,6.8,8.8c0.3,0.3,0.5,0.7,0.2,1.1
					c-0.2,0.5-0.6,0.5-1.1,0.5c-4.8,0-9.5,0-14.2,0c-0.8,0-1.4-0.3-1.9-0.8c-3.9-3.8-7.8-7.5-11.8-11.3c-0.2-0.2-0.3-0.3-0.5-0.5
					c-1.2,1.1-2.3,2.2-3.4,3.3c-2.9,2.9-6,5.7-8.9,8.6c-0.5,0.5-1,0.7-1.7,0.7c-4.8,0-9.5,0-14.2,0c-0.6,0-1-0.1-1.3-0.6
					C426,21,426,20.8,426,20.6z"/>
				<path class="st1" d="M454.7,20c0,1.2,0,2.4,0,3.6c-0.4,0-0.8,0-1.1,0c-0.6,0-0.7,0.2-0.7,0.9c0,0.7,0.2,0.9,0.7,0.9
					c0.6,0,1.3,0,1.9,0c0.7,0,1.1-0.4,1.1-1.1c0-1.4,0-2.8,0-4.1c0-0.1,0-0.2,0-0.3c2.2,0.2,4,2.5,3.7,5c-0.1,2.3-2.2,4.3-4.7,4.3
					s-4.8-1.9-4.9-4.3C450.7,22.5,452.5,20.3,454.7,20z"/>
				<path class="st1" d="M458.5,44.4c-1.9,0-3.7,0-5.7,0c0-0.1,0-0.3,0-0.4c0-2.1,0-4.1,0-6.2c0-1.4,1.2-2.7,2.5-2.8
					c1.6-0.1,3,1,3.1,2.4C458.6,39.7,458.5,42,458.5,44.4z"/>
				<path class="st1" d="M437.5,29.3c0,1.2,0,2.5,0,3.7c-1.2,0-2.4,0-3.7,0c0-1.2,0-2.4,0-3.7C434.9,29.3,436.3,29.3,437.5,29.3z"/>
				<path class="st1" d="M447.1,29.3c0,1.2,0,2.4,0,3.7c-1.2,0-2.4,0-3.7,0c0-1.2,0-2.4,0-3.7C444.6,29.3,445.8,29.3,447.1,29.3z"/>
				<path class="st1" d="M464.3,33c0-1.2,0-2.5,0-3.7c1.2,0,2.5,0,3.7,0c0,1.2,0,2.4,0,3.7C466.8,33,465.6,33,464.3,33z"/>
				<path class="st1" d="M477.7,29.3c0,1.3,0,2.5,0,3.7c-1.2,0-2.4,0-3.7,0c0-1.2,0-2.4,0-3.7C475.2,29.3,476.4,29.3,477.7,29.3z"/>
				<path class="st1" d="M433.7,40.6c0-1.3,0-2.5,0-3.7c1.2,0,2.4,0,3.7,0c0,1.2,0,2.4,0,3.7C436.3,40.6,435,40.6,433.7,40.6z"/>
				<path class="st1" d="M447,40.6c-1.2,0-2.5,0-3.7,0c0-1.2,0-2.5,0-3.7c1.2,0,2.4,0,3.7,0C447,38.1,447,39.3,447,40.6z"/>
				<path class="st1" d="M468.1,40.6c-1.2,0-2.4,0-3.7,0c0-1.2,0-2.5,0-3.7c1.2,0,2.4,0,3.7,0C468.1,38.1,468.1,39.3,468.1,40.6z"/>
				<path class="st1" d="M477.6,40.6c-1.3,0-2.5,0-3.7,0c0-1.2,0-2.5,0-3.7c1.2,0,2.4,0,3.7,0C477.6,38.1,477.6,39.3,477.6,40.6z"/>
			</g>
			<g>
				<path class="st0" d="M418.9,30.2c1,0,2-0.2,2.7,0.7c0.5,0.7,0.3,1.5,0.4,2.4c-0.5,0-1,0-1.5,0c-0.4,0-0.8,0-1.1,0.1
					c-0.5,0.1-0.8,0.5-0.7,1.2c0,0.5,0.4,0.9,0.9,0.9c0.8,0,1.6,0,2.4,0c0,0.4,0,0.8,0,1.2c0,1.2,0,2.4,0,3.6c0,0.8-0.6,1.4-1.4,1.4
					c-0.2,0-0.5,0-0.7,0c-0.8-3-3-4-4.8-4.1c-2.5-0.2-5,1.4-5.6,4.1c-0.1,0-0.3,0-0.4,0c-4,0-7.9,0-11.9,0c-0.3,0-0.4-0.1-0.5-0.4
					c-0.6-2.2-2.6-3.7-5-3.7s-4.5,1.6-5.1,3.8c-0.1,0.3-0.2,0.3-0.4,0.3c-0.9,0-1.7-0.2-2.4-0.7c-0.3-0.2-0.5-0.5-0.5-0.9
					c0-5,0-10.1,0-15.1c0-1.5,1.4-2.9,2.9-2.9c8.4,0,16.8,0,25.3,0c1.4,0,2.8,0,4.4,0c1.4,0,2.8,1,2.9,2.9c0,1.6,0,3.2,0,4.9
					C418.9,29.9,418.9,30,418.9,30.2z M409.6,30.9c0-1.7,0-3.3,0-5c0-0.6-0.3-0.9-0.9-0.9c-0.8,0-1.5,0-2.3,0s-1,0.2-1,1
					c0,1.6,0,3.3,0,4.9c0,1.9,0,3.8,0,5.6c0,0.6,0.2,0.8,0.8,0.9c0.7,0,1.4,0,2.1-0.1s1.3-0.9,1.3-1.6
					C409.6,34.2,409.6,32.5,409.6,30.9z M411.6,27.6c0,0.6,0,1.2,0,1.8c0,0.5,0.3,0.7,0.7,0.7c0.9,0,1.8,0,2.7,0
					c0.5,0,0.7-0.2,0.7-0.7c0-1.2,0-2.4,0-3.6c0-0.5-0.4-0.9-0.9-0.9c-0.8,0-1.6,0-2.4,0c-0.5,0-0.8,0.3-0.8,0.8
					C411.6,26.4,411.6,27,411.6,27.6z M388.6,25.1c-0.4,0-0.9,0-1.3,0s-0.7,0.3-0.7,0.7c0,0.5,0,1,0,1.6c0,0.5,0.2,0.8,0.7,0.8
					c0.9,0,1.8,0,2.6,0c0.5,0,0.7-0.3,0.7-0.8s0-1,0-1.6s-0.2-0.8-0.8-0.8C389.5,25.1,389,25.1,388.6,25.1z M401.2,28.2L401.2,28.2
					c0.4,0,0.8,0,1.2,0c0.6,0,0.9-0.3,0.9-0.9c0-0.5,0-1,0-1.5S403,25,402.5,25c-0.9,0-1.7,0-2.6,0c-0.5,0-0.8,0.2-0.8,0.7
					s0,1,0,1.6c0,0.5,0.2,0.8,0.8,0.8C400.4,28.2,400.8,28.2,401.2,28.2z M388.6,33.3L388.6,33.3c0.4,0,0.9,0,1.3,0
					c0.5,0,0.8-0.3,0.8-0.8s0-1,0-1.6c0-0.5-0.3-0.8-0.8-0.8c-0.9,0-1.7,0-2.6,0c-0.5,0-0.8,0.3-0.8,0.8s0,1,0,1.5
					c0,0.5,0.3,0.8,0.8,0.8C387.8,33.3,388.2,33.3,388.6,33.3z M401.2,30.2c-0.4,0-0.9,0-1.3,0c-0.5,0-0.7,0.2-0.7,0.7
					c0,0.6,0,1.1,0,1.7c0,0.4,0.3,0.7,0.7,0.7c0.9,0,1.8,0,2.7,0c0.5,0,0.7-0.3,0.7-0.8s0-1,0-1.5s-0.3-0.8-0.8-0.8
					C402.1,30.2,401.6,30.2,401.2,30.2z M394.9,25.1c-0.4,0-0.9,0-1.3,0c-0.5,0-0.8,0.3-0.8,0.8s0,1,0,1.6c0,0.5,0.2,0.8,0.7,0.8
					c0.9,0,1.8,0,2.7,0c0.5,0,0.7-0.3,0.7-0.8s0-1,0-1.5s-0.3-0.8-0.8-0.8C395.8,25.1,395.4,25.1,394.9,25.1z M394.9,30.2
					c-0.4,0-0.9,0-1.3,0c-0.5,0-0.8,0.3-0.8,0.8s0,1,0,1.6c0,0.5,0.2,0.8,0.7,0.8c0.9,0,1.8,0,2.7,0c0.5,0,0.7-0.3,0.7-0.8
					s0-1,0-1.6c0-0.5-0.3-0.8-0.8-0.8C395.8,30.2,395.4,30.2,394.9,30.2z"/>
				<path class="st0" d="M414.8,39.4c1.9,0,3.3,1.5,3.2,3.3c-0.1,1.9-1.5,3.2-3.3,3.1c-1.8,0-3.2-1.5-3.1-3.3
					C411.5,40.7,413,39.3,414.8,39.4z"/>
				<path class="st0" d="M391.8,39.4c1.7,0,3.2,1.4,3.2,3c0.1,1.9-1.3,3.4-3.2,3.4c-1.7,0-3.2-1.4-3.3-3.1
					C388.5,40.9,389.9,39.3,391.8,39.4z"/>
				<path class="st1" d="M409.6,30.9c0,1.6,0,3.2,0,4.8c0,0.7-0.6,1.5-1.3,1.6s-1.4,0.1-2.1,0.1c-0.6,0-0.8-0.3-0.8-0.9
					c0-1.9,0-3.8,0-5.6c0-1.6,0-3.3,0-4.9c0-0.7,0.2-1,1-1s1.5,0,2.3,0c0.6,0,0.9,0.3,0.9,0.9C409.6,27.6,409.6,29.3,409.6,30.9z"/>
				<path class="st1" d="M411.6,27.6c0-0.6,0-1.2,0-1.8c0-0.5,0.3-0.8,0.8-0.8c0.8,0,1.6,0,2.4,0c0.5,0,0.9,0.3,0.9,0.9
					c0,1.2,0,2.4,0,3.6c0,0.5-0.3,0.7-0.7,0.7c-0.9,0-1.8,0-2.7,0c-0.5,0-0.7-0.3-0.7-0.7C411.6,28.8,411.6,28.2,411.6,27.6z"/>
				<path class="st1" d="M388.6,25.1c0.4,0,0.8,0,1.2,0c0.6,0,0.8,0.2,0.8,0.8c0,0.5,0,1,0,1.6c0,0.5-0.2,0.7-0.7,0.8
					c-0.9,0-1.8,0-2.6,0c-0.5,0-0.7-0.3-0.7-0.8s0-1,0-1.6c0-0.4,0.3-0.7,0.7-0.7C387.8,25.1,388.2,25.1,388.6,25.1z"/>
				<path class="st1" d="M401.2,28.2c-0.4,0-0.9,0-1.3,0c-0.5,0-0.8-0.3-0.8-0.8s0-1,0-1.6c0-0.5,0.3-0.7,0.8-0.7c0.9,0,1.7,0,2.6,0
					c0.5,0,0.8,0.3,0.8,0.8s0,1,0,1.5c0,0.6-0.3,0.8-0.9,0.9C402,28.2,401.6,28.2,401.2,28.2L401.2,28.2z"/>
				<path class="st1" d="M388.6,33.3c-0.4,0-0.8,0-1.2,0c-0.5,0-0.8-0.3-0.8-0.8s0-1,0-1.5s0.3-0.8,0.8-0.8c0.9,0,1.7,0,2.6,0
					c0.5,0,0.8,0.2,0.8,0.8c0,0.5,0,1,0,1.6c0,0.5-0.3,0.8-0.8,0.8C389.5,33.3,389.1,33.3,388.6,33.3L388.6,33.3z"/>
				<path class="st1" d="M401.2,30.2c0.4,0,0.9,0,1.3,0c0.5,0,0.8,0.3,0.8,0.8s0,1,0,1.5s-0.2,0.8-0.7,0.8c-0.9,0-1.8,0-2.7,0
					c-0.4,0-0.7-0.3-0.7-0.7c0-0.6,0-1.1,0-1.7c0-0.5,0.3-0.7,0.7-0.7C400.3,30.2,400.8,30.2,401.2,30.2z"/>
				<path class="st1" d="M394.9,25.1c0.4,0,0.9,0,1.3,0c0.5,0,0.8,0.3,0.8,0.8s0,1,0,1.5s-0.2,0.8-0.7,0.8c-0.9,0-1.8,0-2.7,0
					c-0.5,0-0.7-0.3-0.7-0.8s0-1,0-1.6c0-0.5,0.3-0.8,0.8-0.8C394.1,25.1,394.5,25.1,394.9,25.1z"/>
				<path class="st1" d="M394.9,30.2c0.4,0,0.9,0,1.3,0c0.5,0,0.8,0.3,0.8,0.8s0,1,0,1.6c0,0.5-0.2,0.7-0.7,0.8c-0.9,0-1.8,0-2.7,0
					c-0.5,0-0.7-0.3-0.7-0.8s0-1,0-1.6c0-0.5,0.3-0.8,0.8-0.8C394.1,30.2,394.5,30.2,394.9,30.2z"/>
			</g>
			<g>
				<path class="st0" d="M505,46.2c0.4-0.4,0.8-0.7,1.1-1.1c1.3-1.9,2.5-3.9,3.8-5.8c0.5-0.7,0.6-1.5,0.4-2.3
					c-0.3-1.2-0.5-2.4-0.8-3.5c-0.1-0.4-0.3-0.9-0.6-0.9c-0.6-0.2-1.3-0.2-1.7,0.6c-0.3,0.6-0.6,1.1-0.8,1.7
					c-0.3,1.1-1.1,1.8-2.1,2.2c-0.4,0.2-1,0.4-0.7,1c0.3,0.7,0.9,0.2,1.3,0c0.8-0.5,1.8-0.7,2.4-1.8c0.2,0.7,0.4,1.4,0.6,2.1
					c0,0.2-0.1,0.4-0.2,0.6c-1.1,1.8-2.2,3.6-3.2,5.3c-0.5,0.9-0.4,1.3,0.4,1.8C504.8,46.2,504.9,46.2,505,46.2z"/>
				<path class="st0" d="M513.3,36.6c-0.4-1.2-0.8-2.4-1.2-3.7c-0.3-0.8-0.6-1-1.3-0.6c-0.2,0.1-0.5,0.5-0.5,0.8
					c0.3,1.4,0.6,2.7,0.9,4.1c0.1,0.5,0.4,0.7,0.9,0.5c0.4-0.1,0.8-0.3,1.2-0.5C513.3,36.9,513.3,36.7,513.3,36.6z"/>
				<path class="st0" d="M513.3,45c-0.3-0.4-0.6-0.8-0.9-1.3c-0.7-1.1-1.3-2.3-1.9-3.4c-0.3,0.4-0.6,0.8-1,1.4
					c-0.1,0.2-0.1,0.5,0,0.7c0.9,1.2,1.8,2.5,2.8,3.7c0.3,0,0.6,0,1,0C513.3,45.8,513.3,45.4,513.3,45z"/>
				<path class="st0" d="M506.9,28.3c-0.6,0.3-1.1,0.7-1.2,1.5s0.4,1.6,1.2,1.9c0.8,0.3,1.7-0.2,2.1-1c0.3-0.8,0-1.7-0.7-2.1
					c-0.2-0.1-0.3-0.2-0.5-0.3C507.5,28.3,507.2,28.3,506.9,28.3z"/>
				<path class="st0" d="M498.7,39.5c0.4,0.7,0.3,1.3-0.2,2.1c-0.7,1-1.3,2-1.9,3.1c-0.1,0.2-0.3,0.4-0.3,0.6c0,0.2,0.1,0.6,0.3,0.7
					c0.2,0.1,0.5,0,0.7-0.1c0.2-0.2,0.4-0.4,0.6-0.7c0.9-1.3,1.7-2.6,2.6-4c0.4-0.6,0.5-1.1,0.3-1.8s-0.3-1.4-0.5-2.1
					c-0.1-0.3-0.3-0.6-0.5-0.7c-0.4-0.1-0.9-0.1-1.2,0.4c-0.2,0.4-0.4,0.7-0.6,1.1c-0.3,0.8-0.8,1.3-1.6,1.7c-0.3,0.1-1,0.2-0.7,0.8
					s0.8,0.2,1.1,0C497.4,40.3,498.1,39.9,498.7,39.5z"/>
				<path class="st0" d="M498.7,35.9c0.8,0,1.4-0.6,1.4-1.4c0-0.7-0.6-1.3-1.3-1.3c-0.8,0-1.4,0.6-1.4,1.3
					C497.2,35.3,497.9,35.9,498.7,35.9z"/>
				<path class="st0" d="M500.5,36.5c0.3,1.2,0.5,2.1,0.7,3.1c0.2,0.6,0.7,0.3,1.1,0.3c0.4-0.1,0.5-0.3,0.4-0.7
					c-0.3-0.9-0.5-1.8-0.8-2.7c-0.1-0.2-0.5-0.4-0.7-0.4C500.9,36.1,500.7,36.3,500.5,36.5z"/>
				<path class="st0" d="M500.7,41.8L500.7,41.8c-1,1.2-1,1.3-0.1,2.5c0.4,0.5,0.7,1,1.1,1.4c0.2,0.2,0.5,0.1,0.8,0.2
					c0-0.3,0.1-0.5,0-0.8c-0.1-0.2-0.3-0.4-0.4-0.6C501.7,43.6,501.2,42.8,500.7,41.8z"/>
			</g>
			<g>
				<path class="st0" d="M324.1,35.9c0.2-0.6,0.7-0.9,1.3-0.8c0.5,0,1,0,1.6,0c0.5,0,0.8-0.2,1.1-0.6c0.9-1.1,1.7-2.3,2.6-3.4
					c0.2-0.2,0.3-0.4,0.5-0.7s0.6-0.4,0.9-0.5c0.2,0,0.3,0,0.5,0c2.2,0,4.6,0,6.8,0c0.9,0,1.5,0.3,2.1,1c0.9,1.2,1.9,2.4,2.9,3.5
					c0.3,0.4,0.7,0.6,1.3,0.6c1,0,2,0.1,2.9,0.6c1.3,0.7,2.1,1.7,2.3,3.2c0,0,0,0,0,0.1c0,0.8,0,1.7,0,2.5c-0.1,0.4-0.4,0.8-0.9,0.8
					c-0.7,0-1.5,0-2.2,0c-0.3-2-1.9-3-3.3-3.1c-0.8,0-1.6,0.1-2.2,0.6c-0.9,0.6-1.4,1.5-1.6,2.5c-2.1,0-4.2,0-6.2,0
					c-0.3-2-1.9-3-3.3-3.1c-0.8-0.1-1.6,0.1-2.2,0.6c-0.9,0.6-1.5,1.5-1.7,2.6c-0.6,0-1.2,0-1.8,0s-1.1-0.2-1.3-0.8
					C324.1,39.6,324.1,37.7,324.1,35.9z M330.3,35c1.8,0,3.5,0,5.3,0c0-1,0-2,0-3.1c-0.8,0-1.7,0-2.5,0c-0.3,0-0.6,0.1-0.7,0.4
					c-0.6,0.8-1.3,1.7-1.9,2.6C330.3,34.9,330.3,35,330.3,35z M337.7,35c1.6,0,3.1,0,4.8,0c-0.7-0.9-1.4-1.7-2.1-2.6
					c-0.2-0.2-0.4-0.4-0.7-0.4c-0.6,0-1.3,0-1.9,0c0,0.1,0,0.2,0,0.2C337.7,33.2,337.7,34.1,337.7,35z"/>
				<path class="st1" d="M330.3,35c0-0.1,0.1-0.1,0.1-0.1c0.6-0.9,1.3-1.7,1.9-2.6c0.2-0.2,0.4-0.4,0.7-0.4c0.8,0,1.6,0,2.5,0
					c0,1,0,2,0,3.1C333.8,35,332,35,330.3,35z"/>
				<path class="st1" d="M337.7,35c0-0.9,0-1.9,0-2.8c0-0.1,0-0.2,0-0.2c0.6,0,1.3,0,1.9,0c0.3,0,0.5,0.2,0.7,0.4
					c0.7,0.9,1.4,1.7,2.1,2.6C340.8,35,339.3,35,337.7,35z"/>
				<path class="st0" d="M344.5,45.1c-1.3,0-2.4-1-2.4-2.4c0-1.3,1-2.4,2.4-2.4c1.3,0,2.4,1.1,2.4,2.4
					C346.8,44,345.8,45.1,344.5,45.1z"/>
				<path class="st0" d="M330.9,45.1c-1.3,0-2.4-1-2.4-2.4c0-1.3,1.1-2.4,2.4-2.4s2.4,1.1,2.4,2.4S332.2,45.1,330.9,45.1z"/>
			</g>
		</g>
		<g>
			<path class="st0" d="M546.1,45.7c-2.1,0-4,0-6.1,0c0-2.6,0-5.2,0-7.5c-2.3-0.7-4.4-1-6.1-1.9c-2.9-1.5-4.1-4.1-4.2-7.3
				c0-1.2-0.4-2.5-1.1-3.5c-3.7-5.1-1.4-11.7,4.8-13.4c0.9-0.2,1.8-0.9,2.3-1.7c3.9-5.4,10.6-5.4,14.6-0.1c0.6,0.8,1.6,1.5,2.6,1.8
				c6,1.7,8.2,8.4,4.5,13.3c-0.5,0.7-1.1,1.6-1.2,2.4c-0.5,7.1-2.2,8.9-9.9,9.9C546.1,40.3,546.1,43,546.1,45.7z M545.7,34.8
				c5.1,1.1,8.8-2.1,8-6.3c-0.3-1.9,0.4-2.8,1.3-4.2c1-1.7,1.8-4.2,1.2-5.9c-0.6-1.7-2.7-3.4-4.7-4c-1.6-0.5-2.6-0.9-3.3-2.4
				c-1-2.2-2.9-3.2-5.4-3.2s-4.7,1-5.6,3.3c-0.6,1.6-1.5,2-3.1,2.3c-5.3,1-7.2,6.6-3.5,10.2c1.3,1.3,1.6,2.5,1.3,4.2
				c-0.6,3.3,2.1,6.5,5.6,6.8c1.7,0.2,2.5-0.5,1.8-2.1c-0.8-1.8-1.9-3.4-3-5.4c2.7-2.9,3.2,1.5,5.1,1.8c0.5-1.5-0.8-4.8,3.1-3.5
				c0.1,1.2,0.2,2.3,0.4,3.4c1.7-0.6,2.2-4.6,4.8-1.8C548.1,30.3,547,32.5,545.7,34.8z"/>
			<path class="st1" d="M545.7,34.8c1.2-2.3,2.4-4.5,3.7-7c-2.5-2.8-3,1.2-4.8,1.8c-0.1-1.1-0.2-2.2-0.4-3.4c-4-1.3-2.6,2-3.1,3.5
				c-1.8-0.3-2.3-4.7-5.1-1.8c1.1,2,2.2,3.6,3,5.4c0.7,1.6-0.1,2.3-1.8,2.1c-3.3-0.3-6.1-3.5-5.6-6.8c0.3-1.8,0.1-2.9-1.3-4.2
				c-3.6-3.6-1.6-9.2,3.5-10.2c1.5-0.3,2.4-0.7,3.1-2.3c0.9-2.3,3-3.3,5.6-3.3c2.4,0,4.4,1.1,5.4,3.2c0.7,1.6,1.7,1.9,3.3,2.4
				c1.8,0.6,4.1,2.3,4.7,4c0.6,1.7-0.2,4.3-1.2,5.9c-0.9,1.4-1.6,2.4-1.3,4.2C554.5,32.8,550.7,36,545.7,34.8z"/>
		</g>
		<g>
			<path class="st0" d="M528.8,45.4c-1.5,0-2.8,0-4.5,0c0-1.9,0-3.8,0-5.5c-1.7-0.5-3.1-0.7-4.5-1.4c-2.1-1.1-2.9-3-3-5.3
				c0-0.9-0.3-1.8-0.8-2.5c-2.7-3.7-1-8.5,3.4-9.7c0.6-0.2,1.3-0.7,1.7-1.2c2.8-3.9,7.7-3.9,10.5,0c0.4,0.6,1.2,1.1,1.9,1.3
				c4.3,1.2,6,6.1,3.2,9.6c-0.4,0.5-0.8,1.1-0.9,1.7c-0.4,5.1-1.6,6.5-7.2,7.2C528.8,41.5,528.8,43.4,528.8,45.4z M528.4,37.6
				c3.6,0.8,6.4-1.5,5.8-4.6c-0.2-1.3,0.3-2,0.9-3c0.8-1.2,1.3-3.1,0.9-4.3c-0.4-1.2-2-2.5-3.3-2.9c-1.1-0.4-1.9-0.6-2.4-1.8
				c-0.7-1.6-2.1-2.3-3.8-2.3c-1.8,0-3.3,0.7-4.1,2.4c-0.5,1.2-1.1,1.4-2.2,1.7c-3.7,0.7-5.3,4.7-2.6,7.4c1,1,1.1,1.8,0.9,3.1
				c-0.4,2.4,1.5,4.7,4.1,4.9c1.2,0.1,1.8-0.4,1.3-1.5c-0.6-1.3-1.4-2.5-2.2-3.9c1.9-2.1,2.3,1.1,3.6,1.3c0.4-1.1-0.6-3.5,2.2-2.5
				c0.1,0.9,0.2,1.7,0.3,2.5c1.2-0.4,1.6-3.3,3.4-1.3C530.2,34.3,529.4,35.9,528.4,37.6z"/>
			<path class="st1" d="M528.4,37.6c0.9-1.7,1.7-3.3,2.7-5.1c-1.8-2-2.2,0.8-3.4,1.3c-0.1-0.8-0.2-1.6-0.3-2.5
				c-2.8-0.9-1.9,1.4-2.2,2.5c-1.3-0.2-1.6-3.4-3.6-1.3c0.8,1.4,1.6,2.6,2.2,3.9c0.5,1.2,0,1.7-1.3,1.5c-2.4-0.2-4.5-2.5-4.1-4.9
				c0.2-1.3,0.1-2.1-0.9-3.1c-2.6-2.6-1.2-6.6,2.6-7.4c1.1-0.2,1.8-0.5,2.2-1.7c0.7-1.7,2.2-2.4,4.1-2.4c1.7,0,3.1,0.8,3.8,2.3
				c0.5,1.1,1.2,1.4,2.4,1.8c1.3,0.4,2.9,1.7,3.3,2.9c0.4,1.2-0.1,3.1-0.9,4.3c-0.6,1-1.2,1.7-0.9,3C534.8,36,532.1,38.4,528.4,37.6
				z"/>
		</g>
		<g>
			<path class="st0" d="M362.9,44c0.4-0.2,0.3-0.5,0.3-0.8c-0.3,0-0.5,0-0.8,0c-0.4,0-0.8-0.1-1.1-0.3c-0.1,0-0.1-0.2-0.1-0.2
				c0.2-0.5,0.1-1.1,0.1-1.6c0-0.4-0.1-0.9-0.1-1.3c0-0.1,0-0.2,0-0.3c-0.2,0-0.4,0-0.7,0c0.6,1.3,0.7,2.5,0,3.8
				c-0.5,0.9-1.2,1.5-2.2,1.8c-1.9,0.5-3.7-0.3-4.6-2c-0.9-1.9-0.1-4,1.6-4.9c0.1,0.2,0.2,0.4,0.3,0.6c-0.4,0.2-0.7,0.6-1,0.9
				c-1,1.5-0.5,3.6,1.1,4.4c1.8,0.9,4.1-0.2,4.5-2.1c0.3-1.5-0.5-3-1.9-3.5c-0.1,0-0.2-0.1-0.3-0.2c-0.3-0.8-0.7-1.6-1.1-2.4
				c-0.1,0.2-0.2,0.4-0.3,0.5c0,0,0,0.1,0,0.2c0.3,0.6,0.5,1.2,0.8,1.8c0.1,0.3,0.1,0.6-0.1,0.7c-0.2,0.2-0.5,0.2-0.8,0
				c-0.1-0.1-0.2-0.2-0.2-0.3c-0.3-0.7-0.7-1.5-1-2.2c-0.1-0.2-0.1-0.4,0-0.5c0.3-0.5,0.5-1,0.9-1.5c0.5-0.7,1.2-1,2-0.9
				c0.4,0,0.9,0.5,0.9,0.9c0,0.3,0,0.5,0,0.8c0,0.8,0,1.7,0,2.5c0.3,0,0.5,0,0.8,0c0.6,0,1.3,0,1.9,0c0.4,0,0.7,0.3,0.7,0.7
				c0.1,0.7,0.2,1.4,0.2,2.1c0,0.4,0.1,0.9,0.1,1.3c0,0.2,0,0.4,0,0.6c0.3,0,0.5,0,0.9,0c0,0.5,0.1,1-0.2,1.5
				c-0.1,0.2-0.3,0.3-0.5,0.4c-0.1,0-0.2,0.1-0.2,0.2c-0.2,0.4-0.6,0.5-1,0.4s-0.6-0.5-0.6-0.9c0.1-0.4,0.4-0.7,0.8-0.7
				C362.4,43.4,362.7,43.6,362.9,44z M362.1,44c-0.2,0-0.3,0.1-0.3,0.3s0.1,0.3,0.3,0.3c0.2,0,0.3-0.1,0.3-0.3S362.3,44,362.1,44z"
				/>
			<path class="st0" d="M357.6,39.4c0.1-0.2,0.2-0.3,0.2-0.5c0.8,0.2,1.6,1.1,1.7,2.1c0.1,1.2-0.6,2.1-1.4,2.5
				c-1.5,0.8-3.4-0.2-3.6-1.9c-0.2-1,0.2-1.8,1.1-2.5c0.1-0.1,0.1-0.1,0.2,0s0.2,0.2,0.3,0.3c-0.9,0.6-1.2,1.5-0.9,2.3
				c0.2,0.7,1,1.5,2.1,1.4c0.8-0.1,1.5-0.6,1.7-1.4C359.3,40.9,358.8,39.9,357.6,39.4z"/>
			<path class="st0" d="M359.6,33.5c-0.9,0.1-2-0.7-2-2c0-1.1,1-1.9,1.9-2c1.1,0,2,0.9,2.1,1.9C361.7,32.6,360.7,33.6,359.6,33.5z"
				/>
		</g>
	</g>
	<rect x="-6.5" y="44.9" class="st0" width="793" height="3.1"/>
</g>
</svg>
