<svg xmlns="http://www.w3.org/2000/svg" viewBox="0 0 152 35"><path fill="#0C81C3" d="M6.1 22c-2.4 0-4.9-1.5-4.9-5.9 0-3.6 2.3-5.7 4.9-5.7h3.1c.2 0 .2 0 .2.2l-.1 1.1c0 .2-.1.2-.3.2-.9-.3-1.5-.5-2.9-.5-1.9 0-3 1.7-3 4.8C3 19.8 4.7 21 6.7 21c.8 0 1.7-.5 2.3-1.1 0 0 .1-.1.2 0l.4.5c.1.1.1.1 0 .2-.8.8-2.1 1.4-3.5 1.4M14.5 22c-3.2 0-4.3-2.3-4.3-4.8 0-2.4 1.1-4.9 4.3-4.9 3.2 0 4.3 2.3 4.3 4.8.1 2.4-1.1 4.9-4.3 4.9m0-9c-2.2 0-2.6 2.2-2.6 3.9 0 1.7.2 4.3 2.7 4.3 2.2 0 2.6-2.2 2.6-3.9 0-1.6-.2-4.3-2.7-4.3zM30.9 17.1v4.4c0 .2-.1.2-.3.2h-.9c-.2 0-.3-.1-.3-.2v-6.4c0-.1-.1-.1-.2 0l-3.6 6.2c-.1.2-.3.2-.4 0L21.9 15h-.1l.2 6.4c0 .2-.1.2-.3.2H21c-.2 0-.3-.1-.3-.2l.2-6.3v-2.4c0-.2.1-.2.3-.2h1c.1 0 .2 0 .3.2l3.3 6.4c.1.1.2.1.2 0l3.4-6.3c.1-.1.2-.3.4-.3h.9c.2 0 .3.1.3.3l-.1 4.3M43.5 17.1v4.4c0 .2-.1.2-.3.2h-.9c-.2 0-.3-.1-.3-.2v-6.4c0-.1-.1-.1-.2 0l-3.6 6.2c-.1.2-.3.2-.4 0L34.6 15h-.1l.2 6.4c0 .2-.1.2-.3.2h-.8c-.2 0-.3-.1-.3-.2l.2-6.3v-2.4c0-.2.1-.2.3-.2h1c.1 0 .2 0 .3.2l3.3 6.4c.1.1.2.1.2 0l3.4-6.3c.1-.1.2-.3.4-.3h.9c.2 0 .3.1.3.3l-.1 4.3M53.1 13.9L53 19c-.1 2-1.3 3-3.4 3-2.4 0-3.8-1-3.9-3l-.1-5.2v-1c0-.2.1-.2.3-.2h1c.2 0 .3.1.3.2v6c0 1.4 1.1 2.2 2.5 2.2 1.2 0 2.2-.6 2.2-2l-.1-5c0-.5-.1-1.1-.1-1.1 0-.2 0-.3.2-.3h1c.2 0 .2.2.2.3.1 0 .1.6 0 1M63.2 19.3v2.4c0 .3-.4.3-.5.2l-5.9-7c-.1-.1-.1 0-.1 0l.2 6.5c0 .1 0 .3-.2.3h-.9c-.2 0-.2-.2-.2-.3l.2-6.4v-2.2c0-.2.1-.2.3-.2h.4c.1 0 .3.1.3.2L62 19c.1.1.2 0 .2 0l-.2-6c0-.1 0-.3.2-.3h.8c.2 0 .2.2.2.3v6.3M67 21.7h-1c-.2 0-.3-.1-.3-.2v-8.6c0-.2.1-.2.3-.2h1c.2 0 .3.1.3.2v8.6c0 .1-.1.2-.3.2M76.2 13.4c0 .2-.1.2-.3.2 0 0-1.8-.2-2.6-.2-.1 0-.2.1-.2.2v7.8c0 .2-.1.2-.3.2h-1c-.2 0-.3-.1-.3-.2v-7.8c0-.1-.1-.2-.2-.2-.8 0-2.6.2-2.6.2-.1 0-.3 0-.3-.2l-.1-.7c0-.2.2-.2.3-.2h7.1c.2 0 .3.1.3.2l.2.7"/><path fill="#0C81C3" d="M81.6 17.6c-.1.1-.1.2-.1.3v3.6c0 .2-.1.2-.3.2h-1c-.2 0-.3-.1-.3-.2v-3.3c0-.1 0-.2-.1-.3l-3.7-5c-.1-.2-.1-.3.1-.3h1.3c.2 0 .3.1.4.2l2.8 4.2h.3l2.6-4.2c.1-.1.2-.2.3-.2h.8c.2 0 .2.2.1.3l-3.2 4.7"/><path fill="#76BA43" d="M95.5 21.7h-6.2c-.2 0-.2-.1-.2-.2v-11c0-.2.1-.2.2-.2h1.1c.2 0 .2.1.2.2v9.8c0 .2.2.5.5.5h1.5c1 0 2.9-.4 2.9-.4.2 0 .3 0 .3.2v1c0 .1-.2.1-.3.1M98.3 21.7h-1c-.2 0-.3-.1-.3-.2v-8.6c0-.2.1-.2.3-.2h1c.2 0 .3.1.3.2v8.6c0 .1-.1.2-.3.2M105 21.6c0 .1-.4.2-.6.2-.2 0-.5-.1-.6-.2l-3.5-7.8-.5-1c-.1-.2 0-.3.2-.3h1.3c.2 0 .3.1.3.2l.4 1 2.4 6.2h.1l2.6-7.2c.1-.1.1-.2.3-.2h.9c.2 0 .2.2.2.3l-3.5 8.8M111 21.7h-1c-.2 0-.3-.1-.3-.2v-8.6c0-.2.1-.2.3-.2h1c.2 0 .3.1.3.2v8.6c0 .1-.1.2-.3.2M121.3 19.3v2.4c0 .3-.4.3-.5.2l-5.9-7c-.1-.1-.1 0-.1 0l.2 6.5c0 .1 0 .3-.2.3h-.8c-.2 0-.2-.2-.2-.3l.2-6.4v-2.2c0-.2.1-.2.3-.2h.4c.1 0 .3.1.3.2l5.2 6.2c.1.1.2 0 .2 0l-.2-6c0-.1 0-.3.2-.3h.8c.2 0 .2.2.2.3l-.1 6.3M131.3 21.8c-.2 0-.6-.4-.6-.4-.1-.1-.1-.1-.2 0-.6.3-1.6.6-2.5.6-2.2 0-4.4-1.2-4.4-4.7 0-2.9 2-4.6 4.3-4.6h2.7c.1 0 .3 0 .3.2l-.1.9c0 .2-.2.2-.3.2-.4-.1-.7-.2-1.1-.3-.4-.1-.8-.1-1.5-.1-1.7 0-2.6 1.3-2.6 3.7 0 2.9 1.4 3.9 3.2 3.9.8 0 1.7-.5 1.7-.9 0-.1-.2-2.5-.2-2.5v-.4c0-.2.1-.3.3-.3h1.1c.1 0 .2.1.2.2v4.4s-.1.1-.3.1"/><path fill="#0C81C3" d="M4.4 31C2.6 31 2 29.6 2 28c0-1.5.6-3 2.4-3 1.8 0 2.4 1.4 2.4 3 0 1.5-.6 3-2.4 3m0-5.6c-1.3 0-1.5 1.4-1.5 2.5s.1 2.7 1.6 2.7c1.3 0 1.5-1.4 1.5-2.5 0-1-.2-2.7-1.6-2.7zM11.3 30.8h-.4c-.1 0-.1 0-.1-.1v-2.6c0-.5-.3-.9-.9-.9-.4 0-1 .3-1 .7v2.7c0 .1 0 .1-.1.1h-.5c-.1 0-.1 0-.1-.1V27c0-.1 0-.1.1-.1h.2c.1 0 .1 0 .2.1l.1.3h.1c.3-.4.8-.5 1.2-.5.8 0 1.3.5 1.3 1.5v2.4c0 .1 0 .1-.1.1M15.2 27.3H14V30c0 .4.2.6.4.6h.2c.1 0 .1 0 .1.1v.1c0 .1 0 .1-.1.1h-.4c-.6 0-.9-.2-.9-1.1v-2.4h-.8l-.1-.1V27s0-.1.1-.1h.8v-1l.5-.2c.1 0 .2 0 .2.1v1.1h1.2s.1 0 .1.1l-.1.3c.1 0 0 0 0 0M18.9 30.8l-.2-.2c-.1-.1-.2-.1-.3 0-.3.2-.8.4-1.2.4-.7 0-1.2-.4-1.2-1 0-.4.2-.8.7-1 .4-.2.9-.2 1.3-.4.3-.1.5-.2.5-.5v-.2c0-.5-.3-.7-.6-.7-.4 0-.9.1-1.2.3-.1 0-.1 0-.1-.1V27c0-.1.1-.1.1-.1H18c.7 0 1.2.4 1.2 1.4v2.5c-.1.1-.3 0-.3 0m-.5-1.9c0-.1 0-.1 0 0-.1-.1-1.2.3-1.3.3-.3.1-.5.3-.5.5 0 .5.2.8.8.8.6 0 1.1-.3 1.1-.7v-.9zM23 27.4c0 .1-.1.1-.1.1-.2-.1-.3-.2-.7-.2-.4 0-.7.2-.8.6v2.8c0 .1 0 .1-.1.1h-.4c-.1 0-.1 0-.1-.1V27c0-.1 0-.1.1-.1h.1c.1 0 .1 0 .2.1l.1.3h.1c.4-.3.7-.5 1-.5h.4c.1 0 .1 0 .1.1l.1.5M24.4 25.8c-.2 0-.4-.2-.4-.4 0-.3.3-.5.5-.5s.4.2.4.4c0 .3-.2.5-.5.5m.8 5H25c-.6 0-.9-.2-.9-1.1V27c0-.1 0-.1.1-.1h.4c.1 0 .1 0 .1.1v3c0 .4.2.6.4.6.1 0 .1 0 .1.1v.1c.1 0 .1 0 0 0zM28.1 30.9c-1 0-1.8-.8-1.8-2.1s.8-2.1 1.8-2.1 1.8.8 1.8 2.1-.8 2.1-1.8 2.1m0-3.8c-.9 0-1.1.9-1.1 1.6s.2 1.9 1.1 1.9c.9 0 1.1-1 1.1-1.6 0-.8-.2-1.9-1.1-1.9zM151 16.8c.2 0 .3-.1.1-.3l-3.9-3.8c-.2-.2-.5-.2-.7-.2L135.8 16c-.2.1-.2.1 0 .1l15.2.7M135.2 1c-.2-.2-.4-.1-.5.1l-4.4 8.5c-.1.2-.2.4-.2.5 0 .1.1.1.3-.1l7.3-5.9c.2-.1.2-.4 0-.5L135.2 1M141.7 7.9c.2-.1.2-.3.1-.4l-3.1-3c-.2-.2-.4-.1-.5 0l-4.8 6.4c-.1.2-.1.3.1.2l8.2-3.2M146.2 12.2c.2 0 .3-.2.1-.3l-3.5-3.4c-.2-.2-.4-.2-.6-.1l-7.5 5c-.2.1-.2.2.1.2l11.4-1.4"/><path fill="#76BA43" d="M151 17.2c.2 0 .3.1.1.3l-3.9 3.8c-.2.2-.5.2-.7.2L135.8 18c-.2-.1-.2-.1 0-.1l15.2-.7M135.2 33c-.2.2-.4.1-.5-.1l-4.4-8.5c-.1-.2-.2-.4-.2-.5 0-.1.1-.1.3.1l7.3 5.9c.2.1.2.4 0 .5l-2.5 2.6M141.7 26.1c.2.1.2.3.1.4l-3.1 3c-.2.2-.4.1-.5 0l-4.8-6.4c-.1-.2-.1-.3.1-.2l8.2 3.2M146.2 21.9c.2 0 .3.2.1.3l-3.5 3.4c-.2.2-.4.2-.6.1l-7.5-5c-.2-.1-.2-.2.1-.2l11.4 1.4"/></svg>