<svg id="Layer_1" xmlns="http://www.w3.org/2000/svg" viewBox="-46 22 152 35"><style>.st0{fill:#0080C3;} .st1{fill:#75B943;}</style><path class="st0" d="M-44.2 31.4h-1.1c-.2 0-.3-.1-.3-.2v-8c0-.1.1-.2.3-.2h1.1c.2 0 .3.1.3.2v8c-.1.2-.2.2-.3.2m11.5-1.8v1.8c0 .2-.4.2-.5.1l-6-5.1h-.1l.2 4.7c0 .1 0 .2-.3.2h-.9c-.2 0-.2-.1-.2-.2l.2-4.6v-1.6c0-.1.1-.2.3-.2h.4c.1 0 .3 0 .3.1l5.3 4.5c.1.1.2 0 .2 0L-34 25c0-.1 0-.2.2-.2h.8c.2 0 .2.1.2.2l.1 4.6m10.3-4.2c0 .1-.1.1-.3.1 0 0-1.8-.1-2.7-.1-.1 0-.2.1-.2.2v5.7c0 .1-.1.2-.3.2h-1c-.2 0-.3-.1-.3-.2v-5.7c0-.1-.1-.2-.2-.2-.9 0-2.7.1-2.7.1-.1 0-.3 0-.3-.1l-.1-.5c0-.1.2-.2.3-.2h7.2c.2 0 .3 0 .3.2l.3.5m8.8 6h-6c-.2 0-.3-.1-.3-.2V25c0-.1.1-.2.3-.2h5.8c.2 0 .3 0 .3.2v.5c0 .1-.2.2-.3.1 0 0-1.8-.2-2.7-.2H-18c-.2 0-.3.1-.3.2v2h.1l3.2-.1c.1 0 .2 0 .2.1v.5c0 .1-.1.1-.2.1l-3.2-.1h-.1v2.2c0 .1.2.2.3.2h1.5c.9 0 2.9-.2 2.9-.2.1 0 .3 0 .3.1v.6c.1.4-.1.4-.3.4m0-8.8l-4.1 1.6h-.2l-.1-.1V24l3.8-2c.2-.1.5 0 .7.1.2.2.1.5-.1.5zm10.7 8.8c-.2 0-.6-.3-.7-.3h-.2c-.7.2-1.6.4-2.5.4-2.2 0-4.4-.9-4.4-3.4 0-2.1 2-3.3 4.4-3.3h2.7c.1 0 .3 0 .3.2l-.1.6c0 .1-.2.2-.3.2-.4-.1-.7-.2-1.1-.2-.4-.1-.8-.1-1.5-.1-1.7 0-2.7.9-2.7 2.7 0 2.1 1.5 2.8 3.2 2.8.8 0 1.7-.4 1.7-.7 0-.1-.2-1.8-.2-1.8v-.3c0-.1.1-.2.3-.2h1.2c.1 0 .2 0 .2.1v3.2c-.1.1-.2.1-.3.1m11.1 0H6.9c-.1 0-.2 0-.3-.1v-.1l-2.4-2.5c-.3-.3-.5-.4-.8-.4H2.3c-.2 0-.3.1-.3.1v2.8c0 .1-.1.2-.3.2h-1c-.2 0-.3-.1-.3-.2V25c0-.1 0-.2.2-.2h4.1c1.5 0 2.8.7 2.8 1.6 0 .9-1 1.6-2.5 1.8.1.1.3.2.7.5l2.2 2.1.5.4c.1.1 0 .2-.2.2m-4-6.1H2.4c-.2 0-.4.1-.4.2v2.2c0 .1.1.2.3.2h1.2c1.5 0 2.4-.4 2.4-1.4 0-.7-.7-1.2-1.7-1.2zm14.3 6.1h-1.3c-.2 0-.3-.1-.3-.2 0 0-.3-.5-.4-.7l-.5-.9s-.1-.1-.2-.1h-3.7c-.1 0-.1 0-.1.1l-.9 1.7c-.1.1-.2.2-.3.2h-.9c-.2 0-.3-.1-.2-.2l3.8-6.3c.1-.2.9-.2 1.1 0l3.6 5.6c.2.3.6.7.6.7s-.1.1-.3.1m-4.6-5.3L12.3 29v.1h3.2c.1 0 .1 0 0 0l-1.6-3zm12.3-.7c0 .1-.1.1-.3.1 0 0-1.8-.1-2.7-.1-.1 0-.2.1-.2.2v5.7c0 .1-.1.2-.3.2h-1c-.2 0-.3-.1-.3-.2v-5.7c0-.1-.1-.2-.2-.2-.9 0-2.7.1-2.7.1-.1 0-.3 0-.3-.1l-.1-.5c0-.1.2-.2.3-.2h7.2c.2 0 .3 0 .3.2l.3.5m3.5 6h-1c-.2 0-.3-.1-.3-.2V25c0-.1.1-.2.3-.2h1c.2 0 .3.1.3.2v6.2c0 .2-.1.2-.3.2m7.9.2c-3.3 0-4.3-1.7-4.3-3.5s1.2-3.5 4.4-3.5c3.3 0 4.3 1.7 4.3 3.5 0 1.7-1.2 3.5-4.4 3.5m-.1-6.5c-2.2 0-2.6 1.6-2.6 2.8 0 1.2.3 3.1 2.8 3.1 2.2 0 2.6-1.6 2.6-2.8 0-1.2-.3-3.1-2.8-3.1zm15.1 4.5v1.8c0 .2-.4.2-.5.1l-6-5.1H46l.2 4.7c0 .1 0 .2-.3.2H45c-.2 0-.2-.1-.2-.2l.2-4.6v-1.6c0-.1.1-.2.3-.2h.4c.1 0 .3 0 .3.1l5.3 4.5c.1.1.2 0 .2 0l-.1-4.3c0-.1 0-.2.2-.2h.8c.2 0 .2.1.2.2v4.6"/><path class="st1" d="M-41.6 40.3c-2.2 0-4.4-.9-4.4-3.4 0-2.1 2.1-3.3 4.4-3.3h2.8c.1 0 .3 0 .3.2l-.1.6c0 .1-.2.2-.3.2-.9-.2-1.5-.3-2.6-.3-1.7 0-2.6.9-2.6 2.7 0 2.1 1.4 2.8 3.2 2.8.7 0 1.5-.3 2.1-.6 0 0 .2-.1.3 0l.3.3c.1 0 .1.1 0 .2-1 .2-2.1.6-3.4.6m9.9 0c-3.3 0-4.3-1.7-4.3-3.5s1.2-3.5 4.4-3.5c3.3 0 4.3 1.7 4.3 3.5s-1.2 3.5-4.4 3.5m-.1-6.4c-2.2 0-2.6 1.6-2.6 2.8 0 1.2.3 3.1 2.8 3.1 2.2 0 2.6-1.6 2.6-2.8 0-1.3-.2-3.1-2.8-3.1zm17.7 2.9V40c0 .1-.1.2-.3.2h-.9c-.2 0-.3-.1-.3-.2v-4.7s-.1-.1-.2 0l-3.6 4.5c-.1.1-.3.1-.4 0l-3.4-4.5h-.1l.2 4.6c0 .1-.1.2-.3.2h-.8c-.2 0-.3-.1-.3-.2l.2-4.6v-1.7c0-.1.1-.2.3-.2h1c.1 0 .3 0 .3.1l3.3 4.6c.1.1.2.1.2 0l3.5-4.5c.1-.1.2-.2.4-.2h.9c.2 0 .3.1.3.2v3.2m14 0V40c0 .1-.1.2-.3.2h-.9c-.2 0-.3-.1-.3-.2v-4.7s-.1-.1-.2 0l-3.6 4.5c-.1.1-.3.1-.4 0l-3.4-4.5h-.1l.2 4.6c0 .1-.1.2-.3.2h-.8c-.2 0-.3-.1-.3-.2l.2-4.6v-1.7c0-.1.1-.2.3-.2h1c.1 0 .3 0 .3.1l3.3 4.6c.1.1.2.1.2 0l3.5-4.5c.1-.1.2-.2.4-.2h.9c.2 0 .3.1.3.2v3.2m10.8-2.3l-.1 3.6c-.1 1.4-1.3 2.2-3.5 2.2-2.4 0-3.9-.7-3.9-2.2l-.1-3.7v-.7c0-.1.1-.2.3-.2h1c.2 0 .3.1.3.2v4.4c0 1 1.1 1.6 2.5 1.6 1.2 0 2.3-.4 2.2-1.5l-.1-3.7c0-.3-.1-.8-.1-.8 0-.1 0-.2.2-.2h1c.2 0 .2.1.2.2.2 0 .2.5.1.8M22 38.4v1.8c0 .2-.4.2-.5.1l-6-5.1h-.1l.2 4.7c0 .1 0 .2-.3.2h-.9c-.2 0-.2-.1-.2-.2l.2-4.6v-1.6c0-.1.1-.2.3-.2h.4c.1 0 .3 0 .3.1l5.3 4.5c.1.1.2 0 .2 0l-.2-4.3c0-.1 0-.2.2-.2h.8c.2 0 .2.1.2.2l.1 4.6m10.8 1.7h-1.3c-.2 0-.3-.1-.3-.2 0 0-.3-.5-.4-.7l-.5-.9s-.1-.1-.2-.1h-3.7c-.1 0-.1 0-.1.1l-.9 1.7c-.1.1-.2.2-.3.2h-.8c-.3-.1-.3-.2-.3-.3l3.8-6.3c.1-.2.9-.2 1.1 0l3.6 5.6c.2.3.6.7.6.7 0 .2-.1.2-.3.2m-4.6-5.3l-1.6 2.9v.1h3.2c.1 0 .1 0 0 0l-1.6-3zm14.3-.3l-.1 3.6c-.1 1.4-1.3 2.2-3.5 2.2-2.4 0-3.9-.7-3.9-2.2l-.1-3.7v-.7c0-.1.1-.2.3-.2h1c.2 0 .3.1.3.2v4.4c0 1 1.1 1.6 2.5 1.6 1.2 0 2.3-.4 2.2-1.5l-.1-3.7c0-.3-.1-.8-.1-.8 0-.1 0-.2.2-.2h1c.2 0 .2.1.2.2.2 0 .1.5.1.8m10-.4c0 .1-.1.1-.3.1 0 0-1.8-.1-2.7-.1-.1 0-.2.1-.2.2V40c0 .1-.1.2-.3.2h-1c-.2 0-.3-.1-.3-.2v-5.7c0-.1-.1-.2-.2-.2-.9 0-2.7.1-2.7.1-.1 0-.3 0-.3-.1l-.1-.5c0-.1.2-.2.3-.2h7.2c.2 0 .3 0 .3.2l.3.5m8.4 6h-1.3c-.2 0-.3-.1-.3-.2 0 0-.3-.5-.4-.7l-.5-.9s-.1-.1-.2-.1h-3.7c-.1 0-.1 0-.1.1l-.9 1.7c-.1.1-.2.2-.3.2h-.8c-.2 0-.3-.1-.2-.2l3.8-6.3c.1-.2.9-.2 1.1 0l3.6 5.6c.2.3.6.7.6.7-.1.1-.2.1-.4.1m-4.6-5.3l-1.6 2.9v.1h3.2c.1 0 .1 0 0 0l-1.6-3zm8.3 5.3h-1c-.2 0-.3-.1-.3-.2v-6.2c0-.1.1-.2.3-.2h1c.2 0 .3.1.3.2v6.2c0 .2-.1.2-.3.2m11.7 0H75c-.1 0-.2 0-.3-.1v-.1l-2.4-2.5c-.3-.3-.5-.4-.8-.4h-1.1c-.2 0-.3.1-.3.1v2.8c0 .1-.1.2-.3.2h-1c-.2 0-.3-.1-.3-.2v-6.2c0-.1 0-.2.2-.2h4.1c1.5 0 2.8.7 2.8 1.6 0 .9-1 1.6-2.5 1.8.1.1.3.2.7.5l2.2 2.1.5.4c.1.1 0 .2-.2.2m-4-6.1h-1.8c-.2 0-.4.1-.4.2v2.2c0 .1.1.2.3.2h1.2c1.5 0 2.4-.4 2.4-1.4 0-.7-.7-1.2-1.7-1.2zm12.8 6.1h-6c-.2 0-.3-.1-.3-.2v-6.2c0-.1.1-.2.3-.2h5.8c.2 0 .3 0 .3.2v.5c0 .1-.2.2-.3.1 0 0-1.8-.2-2.7-.2h-1.5c-.2 0-.3.1-.3.2v2h.1l3.2-.1c.1 0 .2 0 .2.1v.5c0 .1-.1.1-.2.1l-3.3.1h-.1v2.2c0 .1.2.2.3.2h1.5c.9 0 2.9-.2 2.9-.2.1 0 .3 0 .3.1v.7c.2.1 0 .1-.2.1"/><path class="st0" d="M-42.8 46.3c-1.8 0-2.4-1-2.4-2.1s.6-2.2 2.4-2.2c1.8 0 2.4 1 2.4 2.1s-.6 2.2-2.4 2.2m0-4.1c-1.3 0-1.5 1-1.5 1.8s.1 2 1.6 2c1.3 0 1.5-1 1.5-1.8 0-.7-.2-2-1.6-2zm7 4h-.4c-.1 0-.1 0-.1-.1v-1.9c0-.4-.3-.6-.9-.6-.4 0-1 .2-1 .5v2c0 .1 0 .1-.1.1h-.4c-.1 0-.1 0-.1-.1v-2.7c0-.1 0-.1.1-.1h.2c.1 0 .1 0 .2.1l.1.2h.1c.3-.3.8-.4 1.2-.4.8 0 1.3.4 1.3 1.1v1.8c-.1 0-.1.1-.2.1m3.8-2.6h-1.2v1.9c0 .3.2.4.4.4h.3v.1s0 .1-.1.1h-.4c-.6 0-.9-.2-.9-.8v-1.7h-.8l-.1-.1v-.2s0-.1.1-.1h.8v-.6l.5-.2h.2v.8h1.3l-.1.4c.1 0 .1 0 0 0m3.8 2.5l-.2-.1c-.1-.1-.2-.1-.3 0-.3.2-.8.3-1.2.3-.7 0-1.2-.3-1.2-.7 0-.3.2-.5.7-.7.4-.1.9-.2 1.3-.3.3-.1.5-.1.5-.3v-.1c0-.4-.3-.5-.6-.5-.4 0-.9.1-1.3.2-.1 0-.1 0-.1-.1v-.3c0-.1.1-.1.1-.1h1.4c.7 0 1.2.3 1.2 1v1.8c-.1 0-.3 0-.3-.1m-.5-1.3c0-.1 0-.1 0 0-.1-.1-1.2.2-1.3.2-.3.1-.5.2-.5.4 0 .4.2.6.8.6.6 0 1.1-.2 1.1-.5v-.7zm4.6-1.1c0 .1-.1.1-.1.1-.2-.1-.3-.1-.7-.1-.4 0-.7.1-.9.4v2c0 .1 0 .1-.1.1h-.4c-.1 0-.1 0-.1-.1v-2.7c0-.1 0-.1.1-.1h.2c.1 0 .1 0 .2.1l.1.2h.1c.4-.2.7-.3 1-.3h.4c.1 0 .1 0 .1.1l.1.3m1.4-1.2c-.2 0-.4-.1-.4-.3 0-.2.3-.4.5-.4s.4.1.4.3c.1.3-.2.4-.5.4m.9 3.7h-.2c-.6 0-.9-.2-.9-.8v-2c0-.1 0-.1.1-.1h.4c.1 0 .1 0 .1.1v2.2c0 .3.2.4.4.4h.1v.2zm2.8.1c-1 0-1.8-.6-1.8-1.5s.8-1.5 1.8-1.5 1.8.6 1.8 1.5-.7 1.5-1.8 1.5m0-2.8c-.9 0-1.1.6-1.1 1.1 0 .5.2 1.4 1.1 1.4.9 0 1.1-.7 1.1-1.2s-.1-1.3-1.1-1.3zm124.8-6.8c.2 0 .3-.1.1-.2l-4-2.8c-.2-.1-.5-.2-.7-.1l-10.9 2.5c-.2 0-.2.1 0 .1l15.5.5M89.7 25.3c-.2-.1-.4-.1-.5.1l-4.4 6.2c-.1.1-.2.3-.2.4 0 .1.1 0 .3-.1l7.5-4.3c.2-.1.2-.3 0-.4l-2.7-1.9m6.7 5c.2-.1.3-.2.1-.3l-3.1-2.2c-.2-.1-.4-.1-.5 0L88 32.5c-.1.1-.1.2.1.1l8.3-2.3m4.5 3.1c.2 0 .3-.1.1-.2l-3.6-2.5c-.2-.1-.5-.1-.6 0l-7.6 3.6c-.2.1-.2.1.1.1l11.6-1"/><path class="st1" d="M105.8 37c.2 0 .3.1.1.2l-4 2.8c-.2.1-.5.2-.7.1l-10.9-2.5c-.2-.1-.2-.1 0-.1l15.5-.5M89.7 48.5c-.2.1-.4.1-.5-.1l-4.4-6.2c-.1-.1-.2-.3-.2-.4 0-.1.1 0 .3.1l7.5 4.3c.2.1.2.3 0 .4l-2.7 1.9m6.7-5c.2.1.3.2.1.3L93.3 46c-.2.1-.4.1-.5 0l-4.9-4.7c-.1-.1-.1-.2.1-.1l8.4 2.3m4.5-3.1c.2 0 .3.1.1.2l-3.6 2.5c-.2.1-.5.1-.6 0l-7.6-3.6c-.2-.1-.2-.1.1-.1l11.6 1M4.3 53.8l-.6 1.8c0 .1-.1.1-.1.1h-.5c-.1 0-.1 0-.1-.1l.6-1.8.5-1.8c0-.1.1-.1.1-.1h.5c.1 0 .1 0 .1.1l-.5 1.8m4.6 1.4c-.1.2 0 .4 0 .4 0 .1 0 .1-.1.1h-.5c-.1 0-.1 0-.1-.1 0 0 0-.3.1-.4.1-.3.3-.9.5-1.2.1-.4.1-.7-.1-.7-.8 0-1.8 1.3-2 1.9l-.2.6h-.1l-.5-.1c-.1 0-.1 0-.1-.1l.6-1.9c.1-.2.1-.4.1-.6 0-.1 0-.1.1-.1H7c.1 0 .1 0 .1.1s0 .3-.1.6l-.1.2c0 .1.1.1.1 0 .4-.5 1-.9 1.5-.9.6 0 .8.4.7.9.1.4-.2 1.1-.3 1.3m4.9-1.7c0 .1-.1.1-.2 0-.3-.2-.6-.3-1.1-.3-.3 0-.7.1-.8.3 0 .7 2.3.5 2 1.5-.2.6-1 .8-1.7.8s-1.1-.1-1.3-.2v-.1l.3-.3h.1c.2.3.6.4 1 .4s.9-.1 1-.5c.1-.3-.4-.5-.9-.6-.5-.1-1-.3-.9-.8.2-.5.7-.8 1.4-.8s1.1.1 1.4.1v.1l-.3.4m2.9 2.3c-.3 0-.5-.1-.7-.1h-.1l-.2.7c-.1.2-.1.4-.1.6 0 .1 0 .1-.1.1H15c-.1 0-.1 0-.1-.1s0-.3.1-.6l.9-2.7c.1-.2.1-.4.1-.6 0-.1 0-.1.1-.1h.4c.1 0 .1 0 .1.1s0 .2-.1.3h.1c.5-.4 1-.5 1.2-.5.7 0 1.4.3 1 1.3-.2 1-1.2 1.6-2.1 1.6m1-2.4c-.6 0-1.3.6-1.4 1.1l-.2.5c-.1.4.2.7.6.7.6 0 1.2-.5 1.5-1.2.2-.6.2-1.1-.5-1.1zm4.1.2l-.5 1.6c-.1.3.1.4.3.4h.1v.1s0 .1-.1.1h-.2c-.5 0-.8-.2-.6-.7l.5-1.4c.1-.2.1-.4.1-.4 0-.1.1-.1.1-.1h.4c.1 0 .1 0 .1.1-.1-.1-.2.1-.2.3m0-1.2c-.2 0-.3-.1-.3-.2.1-.2.4-.3.6-.3.2 0 .3.1.3.2-.1.1-.4.3-.6.3zm4.2 1.2l-.1.1s-.3-.1-.5-.1c-.4 0-1.1.7-1.4 1.6l-.2.6h-.1l-.5-.1c-.1 0-.1 0-.1-.1l.6-1.9c.1-.2.1-.4.1-.6 0-.1 0-.1.1-.1h.4c.1 0 .1 0 .1.1s0 .2-.1.4l-.1.1s.1.1.1 0l.2-.2c.3-.3.7-.5 1.2-.5.1 0 .2 0 .2.1v.1l.1.5m4 1.6v.4c0 .1 0 .1-.1.1h-.5c-.1 0-.1 0-.1-.1-.1-.2 0-.4.1-.5 0 0-.1-.1-.1 0-.3.4-.9.7-1.4.7-.7 0-1.3-.3-1-1.3.3-.8 1.3-1.4 2.2-1.4.8 0 1.3.4 1.1.9l-.2 1.2m-.8-1.9c-.6 0-1.2.5-1.5 1.2-.2.5-.2 1 .5 1 .6 0 1.2-.6 1.4-1.1l.1-.3c.4-.6 0-.8-.5-.8zm5.9 1.9c-.1.2 0 .4 0 .4 0 .1 0 .1-.1.1h-.4c-.1 0-.1 0-.1-.1 0 0 0-.3.1-.4.1-.3.3-.9.5-1.2.1-.4.1-.7-.1-.7-.8 0-1.8 1.3-2 1.9l-.2.6h-.1l-.5-.1c-.1 0-.1 0-.1-.1l.6-1.9c.1-.2.1-.4.1-.6 0-.1 0-.1.1-.1h.4c.1 0 .1 0 .1.1s0 .3-.1.6l-.1.2c0 .1.1.1.1 0 .4-.5 1-.9 1.5-.9.6 0 .8.4.7.9 0 .4-.3 1.1-.4 1.3m4.9-1.8l-.1.1h-1.1l-.6 1.8c-.1.3.1.4.3.4h.3v.1s0 .1-.1.1h-.4c-.5 0-.8-.2-.6-.7l.6-1.6h-.8l-.1-.1s0-.2.1-.2l.1-.1h.8l.2-.6.5-.1h.1l-.2.7h1.1l-.1.2m7.3-1l-.7 2-.3.9c-.1.2 0 .4 0 .4 0 .1-.1.1-.1.1h-.5c-.1 0-.1 0-.1-.1v-.3h-.1c-.5.4-1 .5-1.2.5-.7 0-1.4-.3-1-1.3.3-.8 1.3-1.4 2.2-1.4.3 0 .5.1.7.1h.1l.3-.8c.1-.2.1-.4.1-.6 0-.1 0-.1.1-.1h.4c.1 0 .1 0 .1.1.1.1.1.2 0 .5m-1.8.9c-.6 0-1.2.5-1.5 1.2-.2.5-.1 1 .5 1s1.3-.6 1.4-1.1l.2-.5c.2-.4-.1-.6-.6-.6zm3.6 1.7c0 .3.2.6.6.6.4 0 .8-.2 1.1-.4l.1-.1h.1l.2.1v.1c-.4.3-.9.6-1.5.6-.9 0-1.4-.5-1.1-1.4.2-.7 1.2-1.4 2.1-1.4.8 0 1.2.3 1 .8-.4.4-1.3.9-2.6 1.1m1.4-1.7c-.6 0-1.1.5-1.3 1.2 0 .1-.1.2-.1.3 1-.1 1.7-.5 1.9-1 .1-.3-.1-.5-.5-.5zm5.1.2c0 .1-.1.1-.2 0-.3-.2-.6-.3-1.1-.3-.3 0-.7.1-.8.3-.2.6 2.2.4 1.8 1.4-.2.6-1 .8-1.7.8s-1.1-.1-1.3-.2v-.1l.3-.3h.1c.2.3.6.4 1 .4s.9-.1 1-.5c.1-.3-.4-.5-.9-.6-.5-.1-1-.3-.9-.8.2-.5.7-.8 1.4-.8s1.1.1 1.4.1v.1l-.1.5m5.4 2.3c-.3 0-.5-.1-.7-.1h-.1l-.2.7c-.1.2-.1.4-.1.6 0 .1 0 .1-.1.1h-.4c-.1 0-.1 0-.1-.1s0-.3.1-.6l.9-2.7c.1-.2.1-.4.1-.6 0-.1 0-.1.1-.1h.4c.1 0 .1 0 .1.1s0 .2-.1.3h.1c.5-.4 1-.5 1.2-.5.7 0 1.4.3 1 1.3-.3 1-1.3 1.6-2.2 1.6m1-2.4c-.6 0-1.3.6-1.4 1.1l-.2.5c-.1.4.2.7.6.7.6 0 1.2-.5 1.5-1.2.2-.6.1-1.1-.5-1.1zm3.9 2.4c-.9 0-1.5-.6-1.2-1.4.3-.8 1.3-1.4 2.2-1.4.9 0 1.5.6 1.2 1.4-.3.9-1.2 1.4-2.2 1.4m.8-2.5c-.7 0-1.1.4-1.3 1.2-.2.7 0 1.2.6 1.2.7 0 1.1-.5 1.3-1.2.3-.8.1-1.2-.6-1.2zm5.7.2c0 .1-.1.1-.2 0-.3-.2-.6-.3-1.1-.3-.3 0-.7.1-.8.3-.2.6 2.2.4 1.8 1.4-.2.6-1 .8-1.7.8s-1.1-.1-1.3-.2v-.1l.3-.3h.1c.2.3.6.4 1 .4s.9-.1 1-.5c.1-.3-.4-.5-.9-.6-.5-.1-1-.3-.9-.8.2-.5.7-.8 1.4-.8s1.1.1 1.4.1v.1l-.1.5m4.4 0c0 .1-.1.1-.2 0-.3-.2-.6-.3-1.1-.3-.3 0-.7.1-.8.3-.1.7 2.3.5 1.9 1.5-.2.6-1 .8-1.7.8s-1.1-.1-1.3-.2v-.1l.3-.3h.1c.2.3.6.4 1 .4s.9-.1 1-.5c.1-.3-.4-.5-.9-.6-.5-.1-1-.3-.9-.8.2-.5.7-.8 1.4-.8s1.1.1 1.4.1v.1l-.2.4m2.9.1l-.5 1.6c-.1.3.1.4.3.4h.1v.1s0 .1-.1.1h-.2c-.5 0-.8-.2-.6-.7l.5-1.4c.1-.2.1-.4.1-.4 0-.1.1-.1.1-.1h.4c.1 0 .1 0 .1.1-.1-.1-.2.1-.2.3m0-1.2c-.2 0-.3-.1-.3-.2.1-.2.4-.3.6-.3.2 0 .3.1.3.2s-.3.3-.6.3zm2.8 3.4c-.3 0-.5-.1-.7-.2h-.1c-.2 0-.3.1-.4.2-.1 0-.2.1-.2-.1l1.1-3.3c.1-.2.1-.4.1-.6 0-.1 0-.1.1-.1h.4c.1 0 .1 0 .1.1s0 .3-.1.6l-.4 1.1s.1.1.1 0c.5-.4 1-.5 1.2-.5.7 0 1.4.3 1 1.3-.2.9-1.2 1.5-2.2 1.5m1.1-2.5c-.6 0-1.3.6-1.4 1.1l-.2.5c-.1.4.1.7.6.7.6 0 1.2-.5 1.5-1.2.2-.5.1-1.1-.5-1.1zm3.9.3l-.5 1.6c-.1.3.1.4.3.4h.1v.1s0 .1-.1.1H87c-.5 0-.8-.2-.6-.7l.5-1.4c.1-.2.1-.4.1-.4 0-.1.1-.1.1-.1h.4c.1 0 .1 0 .1.1.1-.1 0 .1-.1.3m0-1.2c-.2 0-.3-.1-.3-.2.1-.2.4-.3.6-.3.2 0 .3.1.3.2s-.3.3-.6.3zm3.2-.1l-1 2.9c-.1.3.1.4.3.4h.1v.1s0 .1-.1.1h-.2c-.5 0-.8-.2-.6-.7l.9-2.8v-.4c0-.1.1-.1.1-.1h.4c.1 0 .1 0 .1.1.1-.1.1.2 0 .4m2.6 1.3l-.5 1.6c-.1.3.1.4.3.4h.1v.1s0 .1-.1.1h-.2c-.5 0-.8-.2-.6-.7l.5-1.4c.1-.2.1-.4.1-.4 0-.1.1-.1.1-.1h.4c.1 0 .1 0 .1.1-.1-.1-.2.1-.2.3m0-1.2c-.2 0-.3-.1-.3-.2.1-.2.4-.3.6-.3.2 0 .3.1.3.2s-.4.3-.6.3zm4.3 1l-.1.1h-1.1l-.6 1.8c-.1.3.1.4.3.4h.3v.1s0 .1-.1.1h-.4c-.5 0-.8-.2-.6-.7l.6-1.6H95l-.1-.1s0-.2.1-.2l.1-.1h.8l.2-.6.5-.1h.1l-.2.7h1.2l-.1.2m1.7 1.6c0 .3.2.6.6.6.4 0 .8-.2 1.1-.4l.1-.1h.1l.2.1v.1c-.4.3-.9.6-1.5.6-.9 0-1.4-.5-1.1-1.4.2-.7 1.2-1.4 2.1-1.4.8 0 1.2.3 1 .8-.3.4-1.3.9-2.6 1.1m1.4-1.7c-.6 0-1.1.5-1.3 1.2 0 .1-.1.2-.1.3 1-.1 1.7-.5 1.9-1 .1-.3-.1-.5-.5-.5zm1.6-1.4l-2.1.8h-.1v-.2l2-.9c.1 0 .2 0 .3.1.1.1 0 .2-.1.2zm3.6 1.6c0 .1-.1.1-.2 0-.3-.2-.6-.3-1.1-.3-.3 0-.7.1-.8.3-.2.6 2.2.4 1.8 1.4-.2.6-1 .8-1.7.8s-1.1-.1-1.3-.2v-.1l.3-.3h.1c.2.3.6.4 1 .4s.9-.1 1-.5c.1-.3-.4-.5-.9-.6-.5-.1-1-.3-.9-.8.2-.5.7-.8 1.4-.8s1.1.1 1.4.1v.1l-.1.5"/></svg>