<svg xmlns="http://www.w3.org/2000/svg" viewBox="0 0 250 75"><path fill="#0081C4" d="M11.2 35c-3.9 0-7.9-2.5-7.9-9.6 0-5.8 3.7-9.3 7.9-9.3h5c.2 0 .4.1.3.3l-.2 1.8c0 .2-.2.4-.5.3-1.5-.5-2.4-.9-4.7-.9-3.1 0-4.9 2.7-4.9 7.8 0 6 2.6 8 5.9 8 1.2 0 2.7-.8 3.7-1.7.1-.1.2-.1.3 0l.6.7c.1.1.1.2 0 .3-1.2 1.4-3.2 2.3-5.5 2.3m13.6.1c-5.2 0-6.9-3.7-6.9-7.8 0-3.9 1.8-7.9 7-7.9s6.9 3.7 6.9 7.8c0 3.9-1.8 7.9-7 7.9m0-14.5c-3.5 0-4.2 3.5-4.2 6.4 0 2.7.4 6.9 4.4 6.9 3.5 0 4.2-3.5 4.2-6.3s-.4-7-4.4-7zm26.5 6.6v7.1c0 .2-.2.4-.4.4h-1.5c-.3 0-.5-.1-.5-.4V23.9c0-.1-.2-.2-.3 0L42.8 34c-.2.2-.5.2-.6 0l-5.4-10.1-.2.1.3 10.4c0 .2-.2.4-.4.4h-1.3c-.3 0-.4-.1-.4-.4l.3-10.4-.1-3.8c0-.2.2-.4.4-.4H37c.2 0 .4.1.5.2l5.3 10.3c.1.1.3.1.3 0l5.6-10.1c.1-.2.3-.4.6-.4h1.5c.3 0 .5.2.5.5v6.9m20.5 0v7.1c0 .2-.2.4-.4.4h-1.5c-.3 0-.5-.1-.5-.4V23.9c0-.1-.2-.2-.3 0L63.4 34c-.2.2-.5.2-.6 0l-5.4-10.1-.2.1.3 10.4c0 .2-.2.4-.4.4h-1.3c-.3 0-.4-.1-.4-.4l.2-10.4-.1-3.8c0-.2.2-.4.4-.4h1.6c.2 0 .4.1.5.2l5.3 10.3c.1.1.3.1.3 0l5.6-10.1c.1-.2.3-.4.6-.4h1.5c.3 0 .5.2.5.5v6.9M87.3 22l-.2 8.1C87 33.4 85 35 81.6 35c-3.8 0-6.2-1.6-6.3-4.8l-.1-8.4v-1.6c0-.2.2-.4.5-.4h1.7c.3 0 .5.1.5.4l-.1 1.6V30c0 2.3 1.8 3.5 4 3.5 1.9 0 3.6-1 3.6-3.3l-.1-8.2c0-.7-.1-1.8-.1-1.8 0-.2.1-.5.4-.5h1.6c.3 0 .4.2.4.5-.2.1-.2 1.1-.3 1.8m16.3 8.6v3.9c0 .5-.6.4-.8.3l-9.6-11.3c-.1-.1-.2 0-.2 0l.3 10.6c0 .2-.1.5-.4.5h-1.4c-.3 0-.4-.2-.4-.5l.3-10.4-.1-3.6c0-.2.2-.4.5-.4h.7c.2 0 .4.1.6.2l8.4 10c.2.2.3.1.3-.1l-.3-9.7c0-.2 0-.5.4-.5h1.3c.3 0 .4.2.4.5v10.5m6.3 4h-1.6c-.3 0-.4-.1-.4-.4v-14c0-.2.2-.4.4-.4h1.6c.3 0 .5.1.5.4v14c-.1.3-.2.4-.5.4m14.8-13.4c0 .3-.2.3-.4.3 0 0-2.9-.3-4.3-.3-.2 0-.3.2-.3.4v12.6c0 .2-.2.4-.4.4h-1.6c-.3 0-.4-.1-.4-.4V21.6c0-.2-.2-.3-.3-.3-1.4 0-4.3.3-4.3.3-.2 0-.4 0-.4-.3l-.1-1.1c0-.2.2-.3.5-.3h11.6c.3 0 .6.1.5.3l-.1 1"/><path fill="#0081C4" d="M133.5 27.9c-.1.1-.2.3-.2.5v5.9c0 .2-.2.4-.4.4h-1.6c-.3 0-.5-.1-.5-.4v-5.4c0-.2-.1-.3-.2-.5l-6-8.1c-.2-.2-.1-.4.2-.4h2.1c.3 0 .5.1.6.3l4.6 6.7h.2l4.2-6.8c.2-.2.3-.2.6-.2h1.4c.3 0 .3.2.2.5l-5.2 7.5"/><path fill="#75BA43" d="M155.9 34.6h-10.1c-.3 0-.4-.1-.4-.4V16.4c0-.2.1-.4.4-.4h1.8c.3 0 .4.1.4.4v15.8c0 .4.3.7.7.7h2.5c1.5 0 4.7-.6 4.7-.6.2 0 .5 0 .5.3v1.6c0 .4-.2.4-.5.4m4.6 0H159c-.3 0-.4-.1-.4-.4v-14c0-.2.2-.4.4-.4h1.6c.3 0 .5.1.5.4v14c-.1.3-.2.4-.6.4m10.9-.1c-.1.2-.6.3-.9.3-.3 0-.8-.1-.9-.3L164 21.9l-.8-1.6c-.1-.3 0-.4.3-.4h2.1c.3 0 .5.1.6.3l.7 1.6 3.9 10h.2l4.2-11.6c.1-.2.2-.3.5-.3h1.4c.3 0 .4.3.3.5l-6 14.1m9.6.1h-1.6c-.3 0-.4-.1-.4-.4v-14c0-.2.2-.4.4-.4h1.6c.3 0 .5.1.5.4v14c0 .3-.2.4-.5.4m16.8-4v3.9c0 .5-.6.4-.8.3l-9.6-11.3c-.1-.1-.2 0-.2 0l.3 10.6c0 .2-.1.5-.4.5h-1.4c-.3 0-.4-.2-.4-.5l.3-10.4-.1-3.6c0-.2.2-.4.5-.4h.7c.2 0 .4.1.6.2l8.4 10c.2.2.3.1.3-.1l-.3-9.7c0-.2 0-.5.4-.5h1.3c.3 0 .4.2.4.5v10.5m16.1 4.1c-.3 0-1-.6-1-.6-.2-.1-.2-.1-.4 0-1 .5-2.6.9-4 .9-3.5 0-7.1-2-7.1-7.7 0-4.7 3.3-7.4 7-7.4h4.4c.2 0 .5.1.4.3l-.2 1.4c0 .3-.2.4-.5.3-.6-.2-1.2-.4-1.8-.5-.6-.1-1.3-.2-2.4-.2-2.7 0-4.3 2-4.3 6 0 4.7 2.3 6.3 5.2 6.3 1.3 0 2.8-.8 2.8-1.5 0-.2-.3-4-.3-4s-.1-.5-.1-.6c0-.2.2-.4.5-.4h1.9c.2 0 .3.1.3.3v7.1c.1.1-.1.3-.4.3"/><path fill="#0081C4" d="M8.4 49.7c-2.9 0-3.9-2.3-3.9-4.8s1-4.9 3.9-4.9 3.9 2.3 3.9 4.8c0 2.4-1 4.9-3.9 4.9m0-9.1c-2.1 0-2.4 2.3-2.4 4 0 1.7.2 4.4 2.5 4.4 2.1 0 2.4-2.3 2.4-4 0-1.7-.2-4.4-2.5-4.4zm11.2 8.8h-.7c-.1 0-.2-.1-.2-.2V45c0-.9-.5-1.4-1.4-1.4-.6 0-1.7.4-1.7 1.2v4.4c0 .1-.1.2-.2.2h-.7c-.1 0-.2-.1-.2-.2v-6.1c0-.1.1-.2.2-.2h.4c.1 0 .2.1.2.2l.2.5h.2c.5-.7 1.3-.9 1.9-.9 1.3 0 2.2.9 2.2 2.4V49c0 .3-.1.4-.2.4m6.2-5.7h-1.9V48c0 .6.3.9.7.9h.4c.1 0 .1 0 .1.1v.2c0 .1 0 .1-.1.1h-.7c-.9 0-1.5-.4-1.5-1.8v-3.9h-1.4l-.2-.1V43c0-.1.1-.2.2-.2h1.4v-1.5l.8-.4c.2-.1.3-.1.3.1v1.8h1.9c.1 0 .2 0 .2.1v.5c0 .3-.1.3-.2.3m6 5.6l-.3-.3c-.1-.1-.4-.1-.5 0-.6.4-1.2.6-2 .6-1.1 0-1.9-.6-1.9-1.7 0-.6.3-1.2 1.1-1.6.6-.2 1.4-.4 2.2-.6.4-.1.8-.3.8-.8v-.3c0-.8-.4-1.1-.9-1.1-.6 0-1.4.2-2 .4-.1 0-.2 0-.2-.1l-.1-.7c0-.1.1-.2.2-.2h2.2c1.1 0 1.9.7 1.9 2.2v4.1c0 .3-.4.2-.5.1m-.6-3c0-.1 0-.1-.1-.1 0 0-1.9.6-2 .6-.5.2-.8.5-.8.9 0 .8.3 1.4 1.2 1.4 1 0 1.7-.5 1.7-1.2v-1.6zm7.3-2.5c0 .1-.1.2-.2.1-.3-.1-.5-.2-1.1-.2-.6 0-1.1.3-1.4.9v4.5c0 .1-.1.2-.2.2h-.7c-.1 0-.2-.1-.2-.2V43c0-.1.1-.2.2-.2h.4c.1 0 .2.1.2.2l.2.5h.2c.6-.6 1.1-.8 1.7-.8h.7c.1 0 .2 0 .2.2v.9m2.3-2.6c-.4 0-.6-.2-.6-.6 0-.5.4-.8.9-.8.4 0 .6.2.6.6 0 .4-.5.8-.9.8m1.3 8.2h-.3c-.9 0-1.5-.4-1.5-1.8v-4.5c0-.1.1-.2.2-.2h.7c.1 0 .2.1.2.2V48c0 .6.3.9.7.9.1 0 .1 0 .1.1v.2c.1.2.1.2-.1.2zm4.7.2c-1.7 0-3-1.4-3-3.4 0-2.1 1.3-3.4 3-3.4 1.6 0 3 1.3 3 3.4-.1 2-1.4 3.4-3 3.4m-.1-6.2c-1.4 0-1.7 1.4-1.7 2.5 0 1.2.3 3.1 1.8 3.1 1.4 0 1.7-1.6 1.7-2.7s-.3-2.9-1.8-2.9zm199.2-16.7c.4 0 .4-.2.2-.4l-6.3-6.2c-.3-.3-.8-.4-1.1-.3l-17.5 5.5c-.3.1-.3.2 0 .2l24.7 1.2M220.3 1.1c-.3-.3-.6-.2-.8.1L212.4 15c-.2.3-.3.7-.3.9 0 .2.2.1.5-.1l11.9-9.6c.3-.2.3-.6 0-.9l-4.2-4.2m10.5 11.2c.3-.1.4-.4.1-.7l-5-4.9c-.3-.3-.7-.2-.9.1l-7.8 10.4c-.2.3-.1.4.2.3l13.4-5.2m7.2 6.9c.4 0 .4-.3.2-.5l-5.7-5.6c-.3-.3-.7-.3-1-.1l-12.1 8c-.3.2-.3.3.1.3l18.5-2.1"/><path fill="#75BA43" d="M245.9 27.4c.4 0 .4.2.2.4l-6.3 6.2c-.3.3-.8.4-1.1.3l-17.5-5.5c-.3-.1-.3-.2 0-.2l24.7-1.2m-25.6 25.5c-.3.3-.6.2-.8-.1L212.4 39c-.2-.3-.3-.7-.3-.9 0-.2.2-.1.5.1l11.9 9.6c.3.2.3.6 0 .9l-4.2 4.2m10.5-11.1c.3.1.4.4.1.7l-5 4.9c-.3.3-.7.2-.9-.1l-7.8-10.4c-.2-.3-.1-.4.2-.3l13.4 5.2m7.2-6.9c.4 0 .4.3.2.5l-5.7 5.6c-.3.3-.7.3-1 .1l-12.1-8c-.3-.2-.3-.3.1-.3l18.5 2.1M105.1 65.4l-.9 4.1c0 .1-.1.2-.2.2h-.8c-.1 0-.2-.1-.1-.2l.9-4.1.9-4.1c0-.1.1-.2.2-.2h.8c.1 0 .2.1.1.2l-.9 4.1m7.4 3.1c-.1.4-.1 1-.1 1 0 .1-.1.2-.2.2h-.7c-.1 0-.2-.1-.1-.2 0 0 0-.6.1-1 .2-.7.5-2 .7-2.7.2-.9.1-1.7-.2-1.7-1.2 0-2.9 3-3.1 4.2l-.3 1.3-.1.1-.7-.2c-.1 0-.1 0-.1-.2l1-4.3c.1-.5.2-1 .1-1.2 0-.1.1-.2.2-.2h.7c.1 0 .2.1.2.2 0 .3-.1.7-.2 1.2l-.1.4c0 .1.1.2.2.1.7-1.2 1.6-1.9 2.5-1.9.9 0 1.3 1 1.1 2.1-.3.7-.7 2.1-.9 2.8m7.9-3.8c-.1.1-.2.1-.2.1-.4-.4-1-.6-1.7-.6-.5 0-1.1.2-1.2.8-.3 1.3 3.5.9 2.9 3.1-.3 1.3-1.6 1.8-2.8 1.8-1.2 0-1.8-.3-2.1-.4v-.2l.4-.8c.1-.1.2-.1.2 0 .4.6 1 .9 1.6.9.6 0 1.5-.3 1.7-1 .2-.8-.6-1-1.5-1.3-.8-.3-1.6-.7-1.4-1.7.3-1.1 1.2-1.7 2.3-1.7 1.2 0 1.8.2 2.2.3l.1.1-.5.6m4.6 5.1c-.4 0-.8-.1-1.1-.3h-.2l-.4 1.5c-.1.5-.2 1-.1 1.2 0 .1-.1.2-.2.2h-.7c-.1 0-.2-.1-.2-.2 0-.3.1-.7.2-1.2l1.4-6c.1-.5.2-1 .1-1.2 0-.1.1-.2.2-.2h.7c.1 0 .2.1.2.2 0 .2 0 .5-.1.8 0 .1.1.1.2 0 .7-.9 1.6-1 1.9-1 1.1 0 2.2.6 1.6 3-.4 1.9-2 3.2-3.5 3.2m1.7-5.5c-1 0-2 1.3-2.3 2.4l-.3 1.2c-.2.8.2 1.5 1 1.5 1 0 2-1.1 2.4-2.7.3-1.2.2-2.4-.8-2.4zm6.5.5l-.9 3.6c-.1.6.1.8.5.8.1 0 .1 0 .1.1l-.1.2c0 .1 0 .1-.1.1h-.3c-.9 0-1.3-.4-1-1.6l.8-3.2c.1-.4.2-1 .2-1 0-.1.1-.2.2-.2h.7c.1 0 .2.1.1.2 0 0-.2.6-.2 1m0-2.8c-.3 0-.5-.2-.5-.6.1-.4.6-.8 1-.8.3 0 .5.2.5.6-.1.5-.6.8-1 .8zm6.8 2.7l-.2.1c-.1 0-.5-.2-.8-.2-.6 0-1.7 1.5-2.2 3.6l-.3 1.3-.1.1-.7-.2c-.1 0-.1 0-.1-.2l1-4.3c.1-.5.2-1 .1-1.2 0-.1.1-.2.2-.2h.7c.1 0 .2.1.2.2 0 .3 0 .4-.1 1l-.1.3c0 .1.1.1.2.1.1-.2.3-.4.4-.5.5-.7 1.2-1.1 1.9-1.1.2 0 .3.1.4.2 0 .1.1.2 0 .2l-.5.8m3.9.1l-.9 3.6c-.1.6.1.8.5.8.1 0 .1 0 .1.1l-.1.2c0 .1 0 .1-.1.1h-.3c-.9 0-1.3-.4-1-1.6l.8-3.2c.1-.4.2-1 .2-1 0-.1.1-.2.2-.2h.7c.1 0 .2.1.1.2 0 0-.1.6-.2 1m0-2.8c-.3 0-.5-.2-.5-.6.1-.4.6-.8 1-.8.3 0 .5.2.5.6-.1.5-.6.8-1 .8zm7.5 6.5c-.1.4-.1 1-.1 1 0 .1-.1.2-.2.2h-.7c-.1 0-.2-.1-.1-.2 0 0 0-.6.1-1 .2-.7.5-2 .7-2.7.2-.9.1-1.7-.2-1.7-1.2 0-2.9 3-3.1 4.2l-.3 1.3-.1.1-.7-.2c-.1 0-.1 0-.1-.2l1-4.3c.1-.5.2-1 .1-1.2 0-.1.1-.2.2-.2h.7c.1 0 .2.1.2.2 0 .3-.1.7-.2 1.2l-.1.4c0 .1.1.2.2.1.7-1.2 1.6-1.9 2.5-1.9.9 0 1.3 1 1.1 2.1-.3.7-.7 2.1-.9 2.8m7.8 2.1c-.4 1.5-1.2 2.1-2.3 2.1h-1.3c-.1 0-.2 0-.2-.1l.3-.5c.1-.1.1-.2.2-.1 0 0 .6.3.9.3.5 0 1-.6 1.2-1.4l.6-2.6c0-.1-.1-.1-.1 0-.6.9-1.4 1.5-2.3 1.5-1.1 0-2.2-.6-1.5-3 .5-1.9 2.1-3.2 3.5-3.2 2.2 0 2 2.5 1.6 4.1l-.6 2.9m-.9-6.6c-1 0-2 1.1-2.4 2.7-.3 1.1-.2 2.3.8 2.3s2-1.3 2.3-2.4l.1-.6c.3-1.1 0-2-.8-2zm11.3 2h-.9c-.1 0-.3.1-.3.2l-.7 3.2c0 .1-.1.2-.2.2h-.8c-.1 0-.2-.1-.1-.2l.9-4.1.9-4.1c0-.1.1-.2.2-.2h2.8c1.4 0 2.7.6 2.4 2.4-.4 1.5-1.8 2.6-4.2 2.6m1-4.4h-.8c-.2 0-.4.1-.4.3l-.7 3.2c0 .1.1.3.2.3h.7c1.3 0 2.5-.4 2.9-2 .2-1.2-.3-1.8-1.9-1.8zm6.5 8.2c-1.5 0-2.4-1.3-1.9-3.2.5-1.9 1.9-3.2 3.4-3.2s2.4 1.2 1.9 3.2c-.4 1.9-1.9 3.2-3.4 3.2m1.3-5.7c-1.1 0-1.8 1-2.1 2.6-.3 1.6 0 2.6 1 2.6 1.1 0 1.8-1.1 2.1-2.7.4-1.6 0-2.6-1-2.5zm9 .6c-.1.1-.2.1-.2.1-.4-.4-1-.6-1.7-.6-.5 0-1.1.2-1.2.8-.3 1.3 3.5.9 2.9 3.1-.3 1.3-1.6 1.8-2.8 1.8-1.2 0-1.8-.3-2.1-.4v-.2l.4-.8c.1-.1.2-.1.2 0 .4.6 1 .9 1.6.9.6 0 1.5-.3 1.7-1 .2-.8-.6-1-1.5-1.3-.8-.3-1.6-.7-1.4-1.7.3-1.1 1.2-1.7 2.3-1.7 1.2 0 1.8.2 2.2.3l.1.1-.5.6m7.1 0c-.1.1-.2.1-.2.1-.4-.4-1-.6-1.7-.6-.5 0-1.1.2-1.2.8-.3 1.3 3.5.9 2.9 3.1-.3 1.3-1.6 1.8-2.8 1.8-1.2 0-1.8-.3-2.1-.4v-.2l.4-.8c.1-.1.2-.1.2 0 .4.6 1 .9 1.6.9.6 0 1.5-.3 1.7-1 .2-.8-.6-1-1.5-1.3-.8-.3-1.6-.7-1.4-1.7.3-1.1 1.2-1.7 2.3-1.7 1.2 0 1.8.2 2.2.3l.1.1-.5.6m4.7.1l-.9 3.6c-.1.6.1.8.5.8.1 0 .1 0 .1.1l-.1.2c0 .1 0 .1-.1.1h-.3c-.9 0-1.3-.4-1-1.6l.8-3.2c.1-.4.2-1 .2-1 0-.1.1-.2.2-.2h.7c.1 0 .2.1.1.2 0 0-.1.6-.2 1m0-2.8c-.3 0-.5-.2-.5-.6.1-.4.6-.8 1-.8.3 0 .5.2.5.6-.1.5-.6.8-1 .8zm4.6 7.7c-.5 0-.9-.2-1.2-.5l-.2-.1c-.2 0-.4.3-.7.4-.1.1-.4.1-.3-.1l1.8-7.4c.1-.5.2-1 .1-1.2 0-.1.1-.2.2-.2h.7c.1 0 .2.1.2.2 0 .3 0 .7-.2 1.2l-.6 2.4c0 .1.1.1.2 0 .7-.8 1.6-1 1.9-1 1.1 0 2.2.6 1.6 3-.4 2-2 3.3-3.5 3.3m1.6-5.5c-1 0-2 1.3-2.3 2.4l-.3 1.2c-.2.8.2 1.5 1 1.5 1 0 2-1.1 2.4-2.7.3-1.2.3-2.4-.8-2.4zm6.4.6l-.9 3.6c-.1.6.1.8.5.8.1 0 .1 0 .1.1l-.1.2c0 .1 0 .1-.1.1h-.3c-.9 0-1.3-.4-1-1.6l.8-3.2c.1-.4.2-1 .2-1 0-.1.1-.2.2-.2h.7c.1 0 .2.1.1.2 0 0-.2.6-.2 1m0-2.8c-.3 0-.5-.2-.5-.6.1-.4.6-.8 1-.8.3 0 .5.2.5.6-.1.5-.6.8-1 .8zm5.1-.2l-1.6 6.6c-.1.6.1.8.4.8.1 0 .1 0 .1.1l-.1.2c0 .1 0 .1-.1.1h-.3c-.9 0-1.3-.4-1-1.6l1.5-6.2c.1-.4.1-.9.1-.9 0-.1.1-.2.2-.2h.7c.1 0 .2.1.1.2.2-.1.1.5 0 .9m4.1 3l-.9 3.6c-.1.6.1.8.5.8.1 0 .1 0 .1.1l-.1.2c0 .1 0 .1-.1.1h-.3c-.9 0-1.3-.4-1-1.6l.8-3.2c.1-.4.2-1 .2-1 0-.1.1-.2.2-.2h.7c.1 0 .2.1.1.2.1 0-.1.6-.2 1m0-2.8c-.3 0-.5-.2-.5-.6.1-.4.6-.8 1-.8.3 0 .5.2.5.6-.1.5-.6.8-1 .8zm7.2 2.2c0 .1-.1.1-.2.1h-1.8l-1 4c-.1.6.1.8.4.8h.4c.1 0 .1 0 .1.1v.2c0 .1-.1.1-.1.1h-.6c-.9 0-1.3-.4-1-1.6l.9-3.7H224l-.1-.1c0-.1.1-.3.1-.4 0-.1.1-.1.2-.1h1.3l.3-1.3.1-.1.8-.3c.2-.1.3-.1.2.1l-.4 1.7h1.8c.1 0 .1 0 .1.1l-.2.4m3.6.6l-.9 3.6c-.1.6.1.8.5.8.1 0 .1 0 .1.1l-.1.2c0 .1 0 .1-.1.1h-.3c-.9 0-1.3-.4-1-1.6l.8-3.2c.1-.4.2-1 .2-1 0-.1.1-.2.2-.2h.7c.1 0 .2.1.1.2.1 0-.1.6-.2 1m0-2.8c-.3 0-.5-.2-.5-.6.1-.4.6-.8 1-.8.3 0 .5.2.5.6-.1.5-.5.8-1 .8zm3.7 5.9c0 .8.4 1.3 1 1.3s1.3-.4 1.8-.9l.1-.1.1-.1.3.3v.1c-.6.7-1.4 1.2-2.5 1.2-1.4 0-2.3-1.2-1.8-3.1.4-1.6 1.9-3.1 3.4-3.1 1.2 0 1.9.6 1.6 1.8-.3 1.1-1.9 2.3-4 2.6m2.3-3.9c-1 0-1.7 1-2.1 2.6-.1.3-.1.5-.1.8 1.5-.3 2.7-1.1 3-2.2.1-.7-.2-1.2-.8-1.2zm8.3.7c-.1.1-.2.1-.2.1-.4-.4-1-.6-1.7-.6-.5 0-1.1.2-1.2.8-.3 1.3 3.5.9 2.9 3.1-.3 1.3-1.6 1.8-2.8 1.8-1.2 0-1.8-.3-2.1-.4v-.2l.4-.8c.1-.1.2-.1.2 0 .4.6 1 .9 1.6.9.6 0 1.5-.3 1.7-1 .2-.8-.6-1-1.5-1.3-.8-.3-1.6-.7-1.4-1.7.3-1.1 1.2-1.7 2.3-1.7 1.2 0 1.8.2 2.2.3l.1.1-.5.6"/><path fill="#75BA43" d="M105.2 65.3l-.9 4.1c0 .1-.1.2-.2.2h-.8c-.1 0-.2-.1-.1-.2l.9-4.1.9-4.1c0-.1.1-.2.2-.2h.8c.1 0 .2.1.1.2l-.9 4.1m7.4 3.1c-.1.4-.1 1-.1 1 0 .1-.1.2-.2.2h-.7c-.1 0-.2-.1-.1-.2 0 0 0-.6.1-1 .2-.7.5-2 .7-2.7.2-.9.1-1.7-.2-1.7-1.2 0-2.9 3-3.1 4.2l-.3 1.3-.1.1-.7-.2c-.1 0-.1 0-.1-.2l1-4.3c.1-.5.2-1 .1-1.2 0-.1.1-.2.2-.2h.7c.1 0 .2.1.2.2 0 .3-.1.7-.2 1.2l-.1.4c0 .1.1.2.2.1.7-1.2 1.6-1.9 2.5-1.9.9 0 1.3 1 1.1 2.1-.3.7-.8 2.1-.9 2.8m7.9-3.8c-.1.1-.2.1-.2.1-.4-.4-1-.6-1.7-.6-.5 0-1.1.2-1.2.8-.3 1.3 3.5.9 2.9 3.1-.3 1.3-1.6 1.8-2.8 1.8-1.2 0-1.8-.3-2.1-.4v-.2l.4-.8c.1-.1.2-.1.2 0 .4.6 1 .9 1.6.9.6 0 1.5-.3 1.7-1 .2-.8-.6-1-1.5-1.3-.8-.3-1.6-.7-1.4-1.7.3-1.1 1.2-1.7 2.3-1.7 1.2 0 1.8.2 2.2.3l.1.1-.5.6m4.5 5.1c-.4 0-.8-.1-1.1-.3h-.2l-.4 1.5c-.1.5-.2 1-.1 1.2 0 .1-.1.2-.2.2h-.7c-.1 0-.2-.1-.2-.2 0-.3.1-.7.2-1.2l1.4-6c.1-.5.2-1 .1-1.2 0-.1.1-.2.2-.2h.7c.1 0 .2.1.2.2 0 .2 0 .5-.1.8 0 .1.1.1.2 0 .7-.9 1.6-1 1.9-1 1.1 0 2.2.6 1.6 3-.3 1.9-2 3.2-3.5 3.2m1.7-5.5c-1 0-2 1.3-2.3 2.4l-.3 1.2c-.2.8.2 1.5 1 1.5 1 0 2-1.1 2.4-2.7.3-1.2.2-2.4-.8-2.4zm6.5.5l-.9 3.6c-.1.6.1.8.5.8.1 0 .1 0 .1.1l-.1.2c0 .1 0 .1-.1.1h-.3c-.9 0-1.3-.4-1-1.6l.8-3.2c.1-.4.2-1 .2-1 0-.1.1-.2.2-.2h.7c.1 0 .2.1.1.2.1 0-.1.6-.2 1m0-2.7c-.3 0-.5-.2-.5-.6.1-.4.6-.8 1-.8.3 0 .5.2.5.6-.1.4-.6.8-1 .8zm6.9 2.6l-.2.1c-.1 0-.5-.2-.8-.2-.6 0-1.7 1.5-2.2 3.6l-.3 1.3-.1.1-.7-.2c-.1 0-.1 0-.1-.2l1-4.3c.1-.5.2-1 .1-1.2 0-.1.1-.2.2-.2h.7c.1 0 .2.1.2.2 0 .3 0 .4-.1 1l-.1.3c0 .1.1.1.2.1.1-.2.3-.4.4-.5.5-.7 1.2-1.1 1.9-1.1.2 0 .3.1.4.2 0 .1.1.2 0 .2l-.5.8m3.8.1l-.9 3.6c-.1.6.1.8.5.8.1 0 .1 0 .1.1l-.1.2c0 .1 0 .1-.1.1h-.3c-.9 0-1.3-.4-1-1.6l.8-3.2c.1-.4.2-1 .2-1 0-.1.1-.2.2-.2h.7c.1 0 .2.1.1.2.1 0-.1.6-.2 1m0-2.7c-.3 0-.5-.2-.5-.6.1-.4.6-.8 1-.8.3 0 .5.2.5.6-.1.4-.5.8-1 .8zm7.5 6.4c-.1.4-.1 1-.1 1 0 .1-.1.2-.2.2h-.7c-.1 0-.2-.1-.1-.2 0 0 0-.6.1-1 .2-.7.5-2 .7-2.7.2-.9.1-1.7-.2-1.7-1.2 0-2.9 3-3.1 4.2l-.3 1.3-.1.1-.7-.2c-.1 0-.1 0-.1-.2l1-4.3c.1-.5.2-1 .1-1.2 0-.1.1-.2.2-.2h.7c.1 0 .2.1.2.2 0 .3-.1.7-.2 1.2l-.1.4c0 .1.1.2.2.1.7-1.2 1.6-1.9 2.5-1.9.9 0 1.3 1 1.1 2.1-.3.7-.7 2.1-.9 2.8m7.8 2.1c-.4 1.5-1.2 2.1-2.3 2.1h-1.3c-.1 0-.2 0-.2-.1l.3-.5c.1-.1.1-.2.2-.1 0 0 .6.3.9.3.5 0 1-.6 1.2-1.4l.6-2.6c0-.1-.1-.1-.1 0-.6.9-1.4 1.5-2.3 1.5-1.1 0-2.2-.6-1.5-3 .5-1.9 2.1-3.2 3.5-3.2 2.2 0 2 2.5 1.6 4.1l-.6 2.9m-.9-6.6c-1 0-2 1.1-2.4 2.7-.3 1.1-.2 2.3.8 2.3s2-1.3 2.3-2.4l.1-.6c.3-1.1 0-2-.8-2zm11.3 2h-.9c-.1 0-.3.1-.3.2l-.7 3.2c0 .1-.1.2-.2.2h-.8c-.1 0-.2-.1-.1-.2l.9-4.1.9-4.1c0-.1.1-.2.2-.2h2.8c1.4 0 2.7.6 2.4 2.4-.4 1.5-1.8 2.6-4.2 2.6m1-4.3h-.8c-.2 0-.4.1-.4.3l-.7 3.2c0 .1.1.3.2.3h.7c1.3 0 2.5-.4 2.9-2 .2-1.3-.3-1.8-1.9-1.8zm6.5 8.1c-1.5 0-2.4-1.3-1.9-3.2.5-1.9 1.9-3.2 3.4-3.2s2.4 1.2 1.9 3.2c-.4 1.9-1.9 3.2-3.4 3.2m1.3-5.7c-1.1 0-1.8 1-2.1 2.6-.3 1.6 0 2.6 1 2.6 1.1 0 1.8-1.1 2.1-2.7.4-1.6 0-2.6-1-2.5zm9 .6c-.1.1-.2.1-.2.1-.4-.4-1-.6-1.7-.6-.5 0-1.1.2-1.2.8-.3 1.3 3.5.9 2.9 3.1-.3 1.3-1.6 1.8-2.8 1.8-1.2 0-1.8-.3-2.1-.4v-.2l.4-.8c.1-.1.2-.1.2 0 .4.6 1 .9 1.6.9.6 0 1.5-.3 1.7-1 .2-.8-.6-1-1.5-1.3-.8-.3-1.6-.7-1.4-1.7.3-1.1 1.2-1.7 2.3-1.7 1.2 0 1.8.2 2.2.3l.1.1-.5.6m7.1 0c-.1.1-.2.1-.2.1-.4-.4-1-.6-1.7-.6-.5 0-1.1.2-1.2.8-.3 1.3 3.5.9 2.9 3.1-.3 1.3-1.6 1.8-2.8 1.8-1.2 0-1.8-.3-2.1-.4v-.2l.4-.8c.1-.1.2-.1.2 0 .4.6 1 .9 1.6.9.6 0 1.5-.3 1.7-1 .2-.8-.6-1-1.5-1.3-.8-.3-1.6-.7-1.4-1.7.3-1.1 1.2-1.7 2.3-1.7 1.2 0 1.8.2 2.2.3l.1.1-.5.6m4.7.1l-.9 3.6c-.1.6.1.8.5.8.1 0 .1 0 .1.1l-.1.2c0 .1 0 .1-.1.1h-.3c-.9 0-1.3-.4-1-1.6l.8-3.2c.1-.4.2-1 .2-1 0-.1.1-.2.2-.2h.7c.1 0 .2.1.1.2 0 0-.1.6-.2 1m0-2.7c-.3 0-.5-.2-.5-.6.1-.4.6-.8 1-.8.3 0 .5.2.5.6-.1.4-.6.8-1 .8zm4.6 7.6c-.5 0-.9-.2-1.2-.5l-.2-.1c-.2 0-.4.3-.7.4-.1.1-.4.1-.3-.1l1.8-7.4c.1-.5.2-1 .1-1.2 0-.1.1-.2.2-.2h.7c.1 0 .2.1.2.2 0 .3 0 .7-.2 1.2l-.6 2.4c0 .1.1.1.2 0 .7-.8 1.6-1 1.9-1 1.1 0 2.2.6 1.6 3-.4 2-2 3.3-3.5 3.3m1.6-5.5c-1 0-2 1.3-2.3 2.4l-.3 1.2c-.2.8.2 1.5 1 1.5 1 0 2-1.1 2.4-2.7.3-1.2.2-2.4-.8-2.4zm6.3.6l-.9 3.6c-.1.6.1.8.5.8.1 0 .1 0 .1.1l-.1.2c0 .1 0 .1-.1.1h-.3c-.9 0-1.3-.4-1-1.6l.8-3.2c.1-.4.2-1 .2-1 0-.1.1-.2.2-.2h.7c.1 0 .2.1.1.2.1 0-.1.6-.2 1m.1-2.7c-.3 0-.5-.2-.5-.6.1-.4.6-.8 1-.8.3 0 .5.2.5.6-.1.4-.6.8-1 .8zm5.1-.3l-1.6 6.6c-.1.6.1.8.4.8.1 0 .1 0 .1.1l-.1.2c0 .1 0 .1-.1.1h-.3c-.9 0-1.3-.4-1-1.6l1.5-6.2c.1-.4.1-.9.1-.9 0-.1.1-.2.2-.2h.7c.1 0 .2.1.1.2.1-.1.1.5 0 .9m4.1 3l-.9 3.6c-.1.6.1.8.5.8.1 0 .1 0 .1.1l-.1.2c0 .1 0 .1-.1.1h-.3c-.9 0-1.3-.4-1-1.6l.8-3.2c.1-.4.2-1 .2-1 0-.1.1-.2.2-.2h.7c.1 0 .2.1.1.2 0 0-.1.6-.2 1m0-2.7c-.3 0-.5-.2-.5-.6.1-.4.6-.8 1-.8.3 0 .5.2.5.6-.1.4-.6.8-1 .8zm7.2 2.1c0 .1-.1.1-.2.1h-1.8l-1 4c-.1.6.1.8.4.8h.4c.1 0 .1 0 .1.1v.2c0 .1-.1.1-.1.1h-.6c-.9 0-1.3-.4-1-1.6l.9-3.6H224l-.1-.1c0-.1.1-.3.1-.4 0-.1.1-.1.2-.1h1.3l.3-1.3.1-.1.8-.3c.2-.1.3-.1.2.1l-.4 1.7h1.8c.1 0 .1 0 .1.1l-.2.3m3.6.6l-.9 3.6c-.1.6.1.8.5.8.1 0 .1 0 .1.1l-.1.2c0 .1 0 .1-.1.1h-.3c-.9 0-1.3-.4-1-1.6l.8-3.2c.1-.4.2-1 .2-1 0-.1.1-.2.2-.2h.7c.1 0 .2.1.1.2 0 0-.1.6-.2 1m0-2.7c-.3 0-.5-.2-.5-.6.1-.4.6-.8 1-.8.3 0 .5.2.5.6-.1.4-.6.8-1 .8zm3.7 5.8c0 .8.4 1.3 1 1.3s1.3-.4 1.8-.9l.1-.1.1-.1.3.3v.1c-.6.7-1.4 1.2-2.5 1.2-1.4 0-2.3-1.2-1.8-3.1.4-1.6 1.9-3.1 3.3-3.1 1.2 0 1.9.6 1.6 1.8-.3 1.1-1.8 2.3-3.9 2.6m2.2-3.9c-1 0-1.7 1-2.1 2.6-.1.3-.1.5-.1.8 1.5-.3 2.7-1.1 3-2.2.2-.7-.1-1.2-.8-1.2zm8.3.7c-.1.1-.2.1-.2.1-.4-.4-1-.6-1.7-.6-.5 0-1.1.2-1.2.8-.3 1.3 3.5.9 2.9 3.1-.3 1.3-1.6 1.8-2.8 1.8-1.2 0-1.8-.3-2.1-.4v-.2l.4-.8c.1-.1.2-.1.2 0 .4.6 1 .9 1.6.9.6 0 1.5-.3 1.7-1 .2-.8-.6-1-1.5-1.3-.8-.3-1.6-.7-1.4-1.7.3-1.1 1.2-1.7 2.3-1.7 1.2 0 1.8.2 2.2.3l.1.1-.5.6"/></svg>