<svg id="Layer_1" xmlns="http://www.w3.org/2000/svg" viewBox="-215 15 152 35"><style>.st0{fill:#0C81C3;} .st1{fill:#76BA43;} .st2{font-family:&amp;apos;MyriadPro-Regular&amp;apos;;} .st3{font-size:12px;}</style><path class="st0" d="M-208.9 37c-2.4 0-4.9-1.5-4.9-5.9 0-3.6 2.3-5.7 4.9-5.7h3.1c.2 0 .2 0 .2.2l-.1 1.1c0 .2-.1.2-.3.2-.9-.3-1.5-.5-2.9-.5-1.9 0-3 1.7-3 4.8-.1 3.6 1.6 4.8 3.6 4.8.8 0 1.7-.5 2.3-1.1 0 0 .1-.1.2 0l.4.5c.1.1.1.1 0 .2-.8.8-2.1 1.4-3.5 1.4M-200.5 37c-3.2 0-4.3-2.3-4.3-4.8 0-2.4 1.1-4.9 4.3-4.9s4.3 2.3 4.3 4.8c.1 2.4-1.1 4.9-4.3 4.9m0-9c-2.2 0-2.6 2.2-2.6 3.9s.2 4.3 2.7 4.3c2.2 0 2.6-2.2 2.6-3.9 0-1.6-.2-4.3-2.7-4.3zM-184.1 32.1v4.4c0 .2-.1.2-.3.2h-.9c-.2 0-.3-.1-.3-.2v-6.4c0-.1-.1-.1-.2 0l-3.6 6.2c-.1.2-.3.2-.4 0l-3.3-6.3h-.1l.2 6.4c0 .2-.1.2-.3.2h-.7c-.2 0-.3-.1-.3-.2l.2-6.3v-2.4c0-.2.1-.2.3-.2h1c.1 0 .2 0 .3.2l3.3 6.4c.1.1.2.1.2 0l3.4-6.3c.1-.1.2-.3.4-.3h.9c.2 0 .3.1.3.3l-.1 4.3M-171.5 32.1v4.4c0 .2-.1.2-.3.2h-.9c-.2 0-.3-.1-.3-.2v-6.4c0-.1-.1-.1-.2 0l-3.6 6.2c-.1.2-.3.2-.4 0l-3.2-6.3h-.1l.2 6.4c0 .2-.1.2-.3.2h-.8c-.2 0-.3-.1-.3-.2l.2-6.3v-2.4c0-.2.1-.2.3-.2h1c.1 0 .2 0 .3.2l3.3 6.4c.1.1.2.1.2 0l3.4-6.3c.1-.1.2-.3.4-.3h.9c.2 0 .3.1.3.3l-.1 4.3M-161.9 28.9l-.1 5.1c-.1 2-1.3 3-3.4 3-2.4 0-3.8-1-3.9-3l-.1-5.2v-1c0-.2.1-.2.3-.2h1c.2 0 .3.1.3.2v6c0 1.4 1.1 2.2 2.5 2.2 1.2 0 2.2-.6 2.2-2l-.1-5c0-.5-.1-1.1-.1-1.1 0-.2 0-.3.2-.3h1c.2 0 .2.2.2.3.1 0 .1.6 0 1M-151.8 34.3v2.4c0 .3-.4.3-.5.2l-5.9-7c-.1-.1-.1 0-.1 0l.2 6.5c0 .1 0 .3-.2.3h-.9c-.2 0-.2-.2-.2-.3l.2-6.4v-2.2c0-.2.1-.2.3-.2h.4c.1 0 .3.1.3.2l5.2 6.2c.1.1.2 0 .2 0l-.2-6c0-.1 0-.3.2-.3h.8c.2 0 .2.2.2.3v6.3M-148 36.7h-1c-.2 0-.3-.1-.3-.2v-8.6c0-.2.1-.2.3-.2h1c.2 0 .3.1.3.2v8.6c0 .1-.1.2-.3.2M-138.8 28.4c0 .2-.1.2-.3.2 0 0-1.8-.2-2.6-.2-.1 0-.2.1-.2.2v7.8c0 .2-.1.2-.3.2h-1c-.2 0-.3-.1-.3-.2v-7.8c0-.1-.1-.2-.2-.2-.8 0-2.6.2-2.6.2-.1 0-.3 0-.3-.2l-.1-.7c0-.2.2-.2.3-.2h7.1c.2 0 .3.1.3.2l.2.7"/><path class="st0" d="M-133.4 32.6c-.1.1-.1.2-.1.3v3.6c0 .2-.1.2-.3.2h-1c-.2 0-.3-.1-.3-.2v-3.3c0-.1 0-.2-.1-.3l-3.7-5c-.1-.2-.1-.3.1-.3h1.3c.2 0 .3.1.4.2l2.8 4.2h.3l2.6-4.2c.1-.1.2-.2.3-.2h.8c.2 0 .2.2.1.3l-3.2 4.7"/><path class="st1" d="M-119.5 36.7h-6.2c-.2 0-.2-.1-.2-.2v-11c0-.2.1-.2.2-.2h1.1c.2 0 .2.1.2.2v9.8c0 .2.2.5.5.5h1.5c1 0 2.9-.4 2.9-.4.2 0 .3 0 .3.2v1c0 .1-.2.1-.3.1M-116.7 36.7h-1c-.2 0-.3-.1-.3-.2v-8.6c0-.2.1-.2.3-.2h1c.2 0 .3.1.3.2v8.6c0 .1-.1.2-.3.2M-110 36.6c0 .1-.4.2-.6.2s-.5-.1-.6-.2l-3.5-7.8-.5-1c-.1-.2 0-.3.2-.3h1.3c.2 0 .3.1.3.2l.4 1 2.4 6.2h.1l2.6-7.2c.1-.1.1-.2.3-.2h.9c.2 0 .2.2.2.3l-3.5 8.8M-104 36.7h-1c-.2 0-.3-.1-.3-.2v-8.6c0-.2.1-.2.3-.2h1c.2 0 .3.1.3.2v8.6c0 .1-.1.2-.3.2M-93.7 34.3v2.4c0 .3-.4.3-.5.2l-5.9-7c-.1-.1-.1 0-.1 0l.2 6.5c0 .1 0 .3-.2.3h-.8c-.2 0-.2-.2-.2-.3l.2-6.4v-2.2c0-.2.1-.2.3-.2h.4c.1 0 .3.1.3.2l5.2 6.2c.1.1.2 0 .2 0l-.2-6c0-.1 0-.3.2-.3h.8c.2 0 .2.2.2.3l-.1 6.3M-83.7 36.8c-.2 0-.6-.4-.6-.4-.1-.1-.1-.1-.2 0-.6.3-1.6.6-2.5.6-2.2 0-4.4-1.2-4.4-4.7 0-2.9 2-4.6 4.3-4.6h2.7c.1 0 .3 0 .3.2l-.1.9c0 .2-.2.2-.3.2-.4-.1-.7-.2-1.1-.3-.4-.1-.8-.1-1.5-.1-1.7 0-2.6 1.3-2.6 3.7 0 2.9 1.4 3.9 3.2 3.9.8 0 1.7-.5 1.7-.9 0-.1-.2-2.5-.2-2.5v-.4c0-.2.1-.3.3-.3h1.1c.1 0 .2.1.2.2v4.4s-.1.1-.3.1"/><path class="st0" d="M-210.6 46c-1.8 0-2.4-1.4-2.4-3 0-1.5.6-3 2.4-3 1.8 0 2.4 1.4 2.4 3 0 1.5-.6 3-2.4 3m0-5.6c-1.3 0-1.5 1.4-1.5 2.5s.1 2.7 1.6 2.7c1.3 0 1.5-1.4 1.5-2.5 0-1-.2-2.7-1.6-2.7zM-203.7 45.8h-.4c-.1 0-.1 0-.1-.1v-2.6c0-.5-.3-.9-.9-.9-.4 0-1 .3-1 .7v2.7c0 .1 0 .1-.1.1h-.5c-.1 0-.1 0-.1-.1V42c0-.1 0-.1.1-.1h.2c.1 0 .1 0 .2.1l.1.3h.1c.3-.4.8-.5 1.2-.5.8 0 1.3.5 1.3 1.5v2.4c0 .1 0 .1-.1.1M-199.8 42.3h-1.2V45c0 .4.2.6.4.6h.2c.1 0 .1 0 .1.1v.1c0 .1 0 .1-.1.1h-.4c-.6 0-.9-.2-.9-1.1v-2.4h-.8l-.1-.1V42s0-.1.1-.1h.8v-1l.5-.2c.1 0 .2 0 .2.1v1.1h1.2s.1 0 .1.1l-.1.3c.1 0 0 0 0 0M-196.1 45.8l-.2-.2c-.1-.1-.2-.1-.3 0-.3.2-.8.4-1.2.4-.7 0-1.2-.4-1.2-1 0-.4.2-.8.7-1 .4-.2.9-.2 1.3-.4.3-.1.5-.2.5-.5v-.2c0-.5-.3-.7-.6-.7-.4 0-.9.1-1.2.3-.1 0-.1 0-.1-.1V42c0-.1.1-.1.1-.1h1.3c.7 0 1.2.4 1.2 1.4v2.5c-.1.1-.3 0-.3 0m-.5-1.9c0-.1 0-.1 0 0-.1-.1-1.2.3-1.3.3-.3.1-.5.3-.5.5 0 .5.2.8.8.8.6 0 1.1-.3 1.1-.7v-.9h-.1zM-192 42.4c0 .1-.1.1-.1.1-.2-.1-.3-.2-.7-.2-.4 0-.7.2-.8.6v2.8c0 .1 0 .1-.1.1h-.4c-.1 0-.1 0-.1-.1V42c0-.1 0-.1.1-.1h.1c.1 0 .1 0 .2.1l.1.3h.1c.4-.3.7-.5 1-.5h.4c.1 0 .1 0 .1.1l.1.5M-190.6 40.8c-.2 0-.4-.2-.4-.4 0-.3.3-.5.5-.5s.4.2.4.4c0 .3-.2.5-.5.5m.8 5h-.2c-.6 0-.9-.2-.9-1.1V42c0-.1 0-.1.1-.1h.4c.1 0 .1 0 .1.1v3c0 .4.2.6.4.6.1 0 .1 0 .1.2.1 0 .1 0 0 0zM-186.9 45.9c-1 0-1.8-.8-1.8-2.1s.8-2.1 1.8-2.1 1.8.8 1.8 2.1-.8 2.1-1.8 2.1m0-3.8c-.9 0-1.1.9-1.1 1.6s.2 1.9 1.1 1.9c.9 0 1.1-1 1.1-1.6 0-.8-.2-1.9-1.1-1.9zM-64 31.8c.2 0 .3-.1.1-.3l-3.9-3.8c-.2-.2-.5-.2-.7-.2L-79.2 31c-.2.1-.2.1 0 .1l15.2.7M-79.8 16c-.2-.2-.4-.1-.5.1l-4.4 8.5c-.1.2-.2.4-.2.5s.1.1.3-.1l7.3-5.9c.2-.1.2-.4 0-.5l-2.5-2.6M-73.3 22.9c.2-.1.2-.3.1-.4l-3.1-3c-.2-.2-.4-.1-.5 0l-4.8 6.4c-.1.2-.1.3.1.2l8.2-3.2M-68.8 27.2c.2 0 .3-.2.1-.3l-3.5-3.4c-.2-.2-.4-.2-.6-.1l-7.5 5c-.2.1-.2.2.1.2l11.4-1.4"/><path class="st1" d="M-64 32.2c.2 0 .3.1.1.3l-3.9 3.8c-.2.2-.5.2-.7.2L-79.2 33c-.2-.1-.2-.1 0-.1l15.2-.7M-79.8 48c-.2.2-.4.1-.5-.1l-4.4-8.5c-.1-.2-.2-.4-.2-.5s.1-.1.3.1l7.3 5.9c.2.1.2.4 0 .5l-2.5 2.6M-73.3 41.1c.2.1.2.3.1.4l-3.1 3c-.2.2-.4.1-.5 0l-4.8-6.4c-.1-.2-.1-.3.1-.2l8.2 3.2M-68.8 36.9c.2 0 .3.2.1.3l-3.5 3.4c-.2.2-.4.2-.6.1l-7.5-5c-.2-.1-.2-.2.1-.2l11.4 1.4"/><text transform="translate(-166 43.667)" class="st2 st3">CLO_LOGO_MED_FR</text></svg>