<svg id="Layer_1" xmlns="http://www.w3.org/2000/svg" viewBox="0 0 245 79"><style>.st0{fill:#0080C3;} .st1{fill:#75B943;}</style><path class="st0" d="M2.8 21.2H1c-.3 0-.4-.1-.4-.4V3c0-.2.1-.4.4-.4h1.8c.3 0 .4.1.4.4v17.8c0 .3-.1.4-.4.4M21.4 17.2v3.9c0 .5-.7.4-.8.3L11 10c-.1-.1-.2 0-.2 0l.3 10.7c0 .2-.1.5-.4.5H9.4c-.3 0-.4-.2-.4-.5l.3-10.4V6.6c0-.2.2-.4.5-.4h.7c.2 0 .4.1.6.2l8.5 10.1c.2.2.3.1.3-.1l-.3-9.8c0-.2 0-.5.4-.5h1.3c.3 0 .4.2.4.5l-.3 10.6M37.9 7.7c0 .3-.3.3-.5.3 0 0-2.9-.3-4.3-.3-.2 0-.3.2-.3.4v12.7c0 .2-.2.4-.4.4h-1.6c-.3 0-.4-.1-.4-.4V8c0-.2-.2-.3-.3-.3-1.4 0-4.3.3-4.3.3-.2 0-.4 0-.4-.3l-.1-1.1c0-.2.2-.3.5-.3h11.6c.3 0 .6.1.5.3v1.1M52.2 21.2h-9.7c-.3 0-.4-.1-.4-.4V6.6c0-.2.2-.4.4-.4h9.4c.3 0 .5.1.5.3v1.1c0 .2-.2.3-.5.3 0 0-2.9-.4-4.3-.4h-2.5c-.3 0-.6.2-.6.5v4.5l.1.1 5.2-.1c.2 0 .4 0 .4.2V14c0 .2-.2.3-.4.3l-5.2-.1-.1.1v5c0 .2.2.5.6.5h2.5c1.4 0 4.6-.5 4.6-.5.2 0 .5 0 .5.3v1.2c0 .3-.3.4-.5.4m-.1-19.7l-6.6 3.7c-.1.1-.3-.1-.3-.1l-.2-.3s0-.2.1-.3L51.3 0c.3-.2.8 0 1.1.3.1.4.1 1-.3 1.2zM69.2 21.2c-.3 0-1-.6-1.1-.7-.2-.1-.2-.1-.4 0-1.1.5-2.6.9-4 .9-3.5 0-7.1-2-7.1-7.7 0-4.7 3.3-7.5 7.1-7.5h4.4c.2 0 .5.1.4.3L68.3 8c0 .3-.2.4-.5.3-.6-.1-1.2-.3-1.8-.4-.6-.1-1.3-.2-2.4-.2-2.7 0-4.3 2.1-4.3 6.1 0 4.8 2.4 6.3 5.2 6.3 1.3 0 2.8-.8 2.8-1.5 0-.2-.3-4.1-.3-4.1s-.1-.5-.1-.6c0-.2.2-.4.5-.4h1.9c.2 0 .3.1.3.3v7.1c.1.2-.1.3-.4.3M87.2 21.2h-2.1c-.2 0-.3-.1-.4-.2l-.1-.1-3.9-5.6c-.4-.6-.8-.9-1.3-.9h-1.8c-.2 0-.4.2-.4.3v6.2c0 .2-.2.4-.5.4h-1.6c-.3 0-.4-.1-.4-.4V6.7c0-.2 0-.4.3-.4h6.6C84 6.3 86 7.8 86 9.9s-1.6 3.7-3.9 4.1c.2.2.5.5 1.1 1.2l3.6 4.6.8.9c.1.3-.1.5-.4.5M80.7 7.5h-2.9c-.3 0-.6.2-.6.5v4.9c0 .2.2.3.4.3h2c2.4 0 3.9-.8 3.9-3.1-.1-1.6-1.2-2.6-2.8-2.6zM103.7 21.2h-2.1c-.3 0-.5-.1-.6-.3 0 0-.4-1.1-.7-1.7l-.8-2.1c0-.1-.1-.2-.2-.2h-5.9c-.1 0-.2.1-.2.2l-1.4 3.8c-.1.2-.2.3-.5.3h-1.4c-.3 0-.4-.2-.3-.5l6.1-14.3c.2-.4 1.5-.4 1.7 0l5.7 12.7c.2.6.9 1.6.9 1.6.2.3 0 .5-.3.5M96.3 9.1l-2.6 6.5.1.1H99c.1 0 .1 0 .1-.1l-2.8-6.5zM116 7.7c0 .3-.2.3-.4.3 0 0-2.9-.3-4.3-.3-.2 0-.3.2-.3.4v12.7c0 .2-.2.4-.4.4H109c-.3 0-.4-.1-.4-.4V8c0-.2-.2-.3-.3-.3-1.4 0-4.3.3-4.3.3-.2 0-.4 0-.4-.3l-.1-1.1c0-.2.2-.3.5-.3h11.6c.3 0 .6.1.5.3l-.1 1.1M121.7 21.2h-1.6c-.3 0-.4-.1-.4-.4V6.6c0-.2.2-.4.4-.4h1.6c.3 0 .5.1.5.4v14.2c0 .3-.2.4-.5.4M134.3 21.7c-5.3 0-7-3.7-7-7.8 0-3.9 1.9-8 7.1-8 5.3 0 7 3.7 7 7.8 0 3.9-1.9 8-7.1 8m0-14.6c-3.6 0-4.2 3.5-4.2 6.4 0 2.7.4 7 4.4 7 3.6 0 4.2-3.5 4.2-6.4 0-2.8-.4-7-4.4-7zM158.5 17.2v3.9c0 .5-.7.4-.8.3L148.1 10c-.1-.1-.2 0-.2 0l.3 10.7c0 .2-.1.5-.4.5h-1.4c-.3 0-.4-.2-.4-.5l.3-10.4-.1-3.6c0-.2.2-.4.5-.4h.7c.2 0 .4.1.6.2l8.5 10.1c.2.2.3.1.3-.1l-.3-9.8c0-.2 0-.5.4-.5h1.3c.3 0 .4.2.4.5l-.1 10.5"/><path class="st1" d="M7.1 41.1c-3.5 0-7.1-2-7.1-7.7 0-4.7 3.3-7.5 7.1-7.5h4.4c.2 0 .4.1.4.3l-.2 1.4c0 .3-.2.4-.5.3-1.5-.5-2.4-.7-4.2-.7-2.7 0-4.2 2.1-4.2 6.1 0 4.8 2.3 6.3 5.2 6.3 1.1 0 2.5-.7 3.3-1.4.1-.1.3-.2.4 0l.5.6c.1.1.1.2 0 .3-1.2 1.3-3 2-5.1 2M23 41.3c-5.3 0-7-3.7-7-7.8 0-3.9 1.9-8 7.1-8 5.2 0 7 3.7 7 7.8-.1 4-2 8-7.1 8m-.1-14.6c-3.6 0-4.2 3.5-4.2 6.4 0 2.7.4 7 4.4 7 3.6 0 4.2-3.5 4.2-6.4 0-2.8-.4-7-4.4-7zM51.3 33.3v7.1c0 .2-.2.4-.4.4h-1.5c-.3 0-.5-.1-.5-.4V30c0-.1-.2-.2-.3 0l-5.8 10.2c-.2.2-.5.2-.6 0L36.7 30h-.1l.3 10.4c0 .2-.2.4-.4.4h-1.3c-.3 0-.4-.1-.4-.4l.2-10.3v-3.8c0-.2.2-.4.4-.4H37c.2 0 .4.1.5.2l5.3 10.4c.1.1.3.1.3 0l5.6-10.2c.1-.2.3-.4.6-.4h1.5c.3 0 .5.2.5.5v6.9M73.7 33.3v7.1c0 .2-.2.4-.4.4h-1.5c-.3 0-.5-.1-.5-.4V30c0-.1-.2-.2-.3 0l-5.8 10.2c-.2.2-.5.2-.6 0L59.2 30H59l.3 10.4c0 .2-.2.4-.4.4h-1.3c-.3 0-.4-.1-.4-.4l.3-10.3-.1-3.9c0-.2.2-.4.4-.4h1.6c.2 0 .4.1.5.2l5.3 10.4c.1.1.3.1.3 0l5.6-10.2c.1-.2.3-.4.6-.4h1.5c.3 0 .5.2.5.5v7M91.2 28.1l-.2 8.3c-.1 3.2-2.1 4.9-5.6 4.9-3.9 0-6.2-1.6-6.3-4.9l-.1-8.5v-1.6c0-.2.2-.4.5-.4h1.7c.3 0 .5.1.5.4l-.1 1.6v8.2c0 2.3 1.8 3.6 4 3.6 1.9 0 3.6-1 3.6-3.3l-.2-8.2c0-.7-.1-1.8-.1-1.8 0-.2.1-.5.4-.5h1.6c.3 0 .4.2.4.5 0 0-.1 1-.1 1.7M109.3 36.8v3.9c0 .5-.7.4-.8.3l-9.6-11.4c-.1-.1-.2 0-.2 0l.3 10.7c0 .2-.1.5-.4.5h-1.4c-.3 0-.4-.2-.4-.5l.3-10.4-.1-3.6c0-.2.2-.4.5-.4h.7c.2 0 .4.1.6.2l8.5 10.1c.2.2.3.1.3-.1l-.3-9.8c0-.2 0-.5.4-.5h1.3c.3 0 .4.2.4.5l-.1 10.5M126.7 40.8h-2.1c-.3 0-.5-.1-.6-.3 0 0-.4-1.1-.7-1.7l-.8-2.1c0-.1-.1-.2-.2-.2h-5.9c-.1 0-.2.1-.2.2l-1.4 3.8c-.1.2-.2.3-.5.3h-1.4c-.3 0-.4-.2-.3-.5l6.1-14.3c.2-.4 1.5-.4 1.7 0l5.7 12.7c.2.6.9 1.6.9 1.6.2.4 0 .5-.3.5m-7.5-12l-2.6 6.5.1.1h5.2c.1 0 .1 0 .1-.1l-2.8-6.5zM142.3 28.1l-.2 8.2c-.1 3.2-2.1 4.9-5.6 4.9-3.9 0-6.2-1.6-6.3-4.9l-.1-8.4v-1.6c0-.2.2-.4.5-.4h1.7c.3 0 .5.1.5.4l-.1 1.6v8.2c0 2.3 1.8 3.6 4 3.6 1.9 0 3.6-1 3.6-3.3l-.1-8.2c0-.7-.1-1.8-.1-1.8 0-.2.1-.5.4-.5h1.6c.3 0 .4.2.4.5-.1 0-.2 1-.2 1.7M158.3 27.3c0 .3-.2.3-.4.3 0 0-2.9-.3-4.3-.3-.2 0-.3.2-.3.4v12.7c0 .2-.2.4-.4.4h-1.6c-.3 0-.4-.1-.4-.4V27.7c0-.2-.2-.3-.3-.3-1.4 0-4.3.3-4.3.3-.2 0-.4 0-.4-.3l-.1-1.1c0-.2.2-.3.5-.3H158c.3 0 .6.1.5.3l-.2 1M171.9 40.8h-2.1c-.3 0-.5-.1-.6-.3 0 0-.4-1.1-.7-1.7l-.8-2.1c0-.1-.1-.2-.2-.2h-5.9c-.1 0-.2.1-.2.2l-1.4 3.8c-.1.2-.2.3-.5.3H158c-.3 0-.4-.2-.3-.5l6.1-14.3c.2-.4 1.5-.4 1.7 0l5.7 12.7c.3.6.9 1.6.9 1.6.2.4 0 .5-.2.5m-7.5-12l-2.6 6.5.1.1h5.2c.1 0 .1 0 .1-.1l-2.8-6.5zM177.9 40.8h-1.6c-.3 0-.4-.1-.4-.4V26.2c0-.2.2-.4.4-.4h1.6c.3 0 .5.1.5.4v14.2c-.1.3-.2.4-.5.4M196.6 40.8h-2.1c-.2 0-.3-.1-.4-.2l-.1-.1-3.9-5.6c-.4-.6-.8-.9-1.3-.9H187c-.2 0-.4.2-.4.3v6.2c0 .2-.2.4-.5.4h-1.6c-.3 0-.4-.1-.4-.4V26.3c0-.2 0-.4.3-.4h6.6c2.4 0 4.4 1.5 4.4 3.6s-1.6 3.7-3.9 4.1c.2.2.5.5 1.1 1.2l3.6 4.6.8.9c.1.3-.1.5-.4.5m-6.5-13.7h-2.9c-.3 0-.6.2-.6.5v4.9c0 .2.2.3.4.3h2c2.4 0 3.9-.8 3.9-3.1 0-1.5-1.1-2.6-2.8-2.6zM210.8 40.8h-9.7c-.3 0-.4-.1-.4-.4V26.2c0-.2.2-.4.4-.4h9.4c.3 0 .5.1.5.3v1.1c0 .2-.2.3-.5.3 0 0-2.9-.4-4.3-.4h-2.5c-.3 0-.6.2-.6.5v4.5l.1.1 5.2-.1c.2 0 .4 0 .4.2v1.1c0 .2-.2.3-.4.3l-5.2-.1-.1.1v5c0 .2.2.5.6.5h2.5c1.4 0 4.6-.5 4.6-.5.2 0 .5 0 .5.3v1.2c0 .5-.2.6-.5.6"/><path class="st0" d="M5.2 54.7c-2.9 0-3.9-2.3-3.9-4.8s1-4.9 3.9-4.9 3.9 2.3 3.9 4.8c0 2.4-1.1 4.9-3.9 4.9m-.1-9.1c-2.1 0-2.4 2.3-2.4 4 0 1.7.2 4.4 2.5 4.4 2.1 0 2.4-2.3 2.4-4 .1-1.7-.1-4.4-2.5-4.4zM16.3 54.4h-.7c-.1 0-.2-.1-.2-.2V50c0-.9-.5-1.4-1.4-1.4-.6 0-1.7.4-1.7 1.2v4.4c0 .1-.1.2-.2.2h-.7c-.1 0-.2-.1-.2-.2v-6.1c0-.1.1-.2.2-.2h.4c.1 0 .2.1.2.2l.2.5h.2c.5-.7 1.3-.9 1.9-.9 1.3 0 2.2.9 2.2 2.4V54c0 .3 0 .4-.2.4M22.6 48.7h-2V53c0 .6.3.9.7.9h.4c.1 0 .1 0 .1.1v.2c0 .1 0 .1-.1.1H21c-.9 0-1.5-.4-1.5-1.8v-3.9H18v-.5c0-.1.1-.2.2-.2h1.4v-1.5l.8-.4c.2-.1.3-.1.3.1v1.8h1.9c.1 0 .2 0 .2.1v.5c-.1.2-.2.2-.2.2M28.6 54.3l-.3-.3c-.1-.1-.4-.1-.5 0-.6.4-1.2.6-2 .6-1.1 0-1.9-.6-1.9-1.7 0-.6.3-1.2 1.1-1.6.6-.2 1.4-.4 2.2-.6.4-.1.8-.3.8-.8v-.3c0-.8-.4-1.1-.9-1.1-.6 0-1.4.2-2 .4-.1 0-.2 0-.2-.1l-.1-.7c0-.1.1-.2.2-.2h2.2c1.1 0 1.9.7 1.9 2.2v4.1c-.1.3-.4.2-.5.1m-.7-3c0-.1 0-.1-.1-.1 0 0-1.9.6-2 .6-.5.2-.8.5-.8.9 0 .8.3 1.4 1.2 1.4 1 0 1.7-.5 1.7-1.2v-1.6zM35.2 48.9c0 .1-.1.2-.2.1-.3-.1-.5-.2-1.1-.2-.6 0-1.1.3-1.4.9v4.5c0 .1-.1.2-.2.2h-.7c-.1 0-.2-.1-.2-.2v-6.1c0-.1.1-.2.2-.2h.4c.1 0 .2.1.2.2l.2.5h.2c.6-.6 1.1-.8 1.7-.8h.7c.1 0 .2 0 .2.2v.9M37.5 46.2c-.4 0-.6-.2-.6-.6 0-.5.4-.8.9-.8.4 0 .6.2.6.6 0 .5-.5.8-.9.8m1.4 8.2h-.3c-.9 0-1.5-.4-1.5-1.8v-4.5c0-.1.1-.2.2-.2h.7c.1 0 .2.1.2.2V53c0 .6.3.9.7.9.1 0 .1 0 .1.1v.2c0 .2 0 .2-.1.2zM43.5 54.6c-1.7 0-3-1.4-3-3.4s1.3-3.4 3-3.4c1.6 0 3 1.3 3 3.4s-1.4 3.4-3 3.4m-.1-6.2c-1.4 0-1.7 1.4-1.7 2.6 0 1.2.3 3.1 1.8 3.1 1.4 0 1.7-1.6 1.7-2.7 0-1.2-.2-3-1.8-3zM244 33.2c.4 0 .4-.2.2-.4l-6.4-6.2c-.3-.3-.8-.4-1.1-.3l-17.6 5.6c-.4.1-.3.2 0 .2l24.9 1.1M218.2 7.4c-.3-.3-.6-.2-.8.1l-7.1 13.9c-.2.3-.3.7-.3.9 0 .2.2.1.5-.1l12-9.6c.3-.2.3-.6 0-.9l-4.3-4.3M228.9 18.7c.3-.1.4-.5.1-.7l-5-5c-.3-.3-.7-.2-.9.1l-7.9 10.5c-.2.3-.1.4.2.3l13.5-5.2M236.1 25.6c.4 0 .4-.3.2-.5l-5.7-5.6c-.3-.3-.7-.3-1-.1l-12.2 8.1c-.3.2-.3.3.1.3l18.6-2.2"/><path class="st1" d="M244 33.9c.4 0 .4.2.2.4l-6.4 6.2c-.3.3-.8.4-1.1.3l-17.6-5.6c-.4-.1-.3-.2 0-.2l24.9-1.1M218.2 59.6c-.3.3-.6.2-.8-.1l-7.1-13.9c-.2-.3-.3-.7-.3-.9 0-.2.2-.1.5.1l12 9.6c.3.2.3.6 0 .9l-4.3 4.3M228.9 48.4c.3.1.4.4.1.7l-5 4.9c-.3.3-.7.2-.9-.1l-7.9-10.5c-.2-.3-.1-.4.2-.3l13.5 5.3M236.1 41.4c.4 0 .4.3.2.5l-5.7 5.6c-.3.3-.7.3-1 .1l-12.2-8.1c-.3-.2-.3-.3.1-.3l18.6 2.2M80.9 71.7l-.9 4.1c0 .1-.1.2-.2.2H79c-.1 0-.2-.1-.1-.2l.9-4.1.9-4.1c0-.1.1-.2.2-.2h.8c.1 0 .2.1.1.2l-.9 4.1M88.3 74.8c-.1.4-.1 1-.1 1 0 .1-.1.2-.2.2h-.7c-.1 0-.2-.1-.1-.2 0 0 0-.6.1-1 .2-.7.5-2 .7-2.7.2-.9.1-1.7-.2-1.7-1.2 0-2.9 3-3.1 4.2l-.4 1.4-.1.1-.7-.2c-.1 0-.1 0-.1-.2l1-4.3c.1-.5.2-1 .1-1.2 0-.1.1-.2.2-.2h.7c.1 0 .2.1.2.2 0 .3-.1.7-.2 1.2l-.1.4c0 .1.1.2.2.1.7-1.2 1.6-1.9 2.5-1.9.9 0 1.3 1 1.1 2.1-.2.7-.7 2.1-.8 2.7M96.2 71c-.1.1-.2.1-.2.1-.4-.4-1-.6-1.7-.6-.5 0-1.1.2-1.2.8-.3 1.3 3.5.9 2.9 3.1-.3 1.3-1.6 1.8-2.8 1.8-1.2 0-1.8-.3-2.1-.4v-.2l.4-.8c.1-.1.2-.1.2 0 .4.6 1 .9 1.6.9.6 0 1.5-.3 1.7-1 .2-.8-.6-1-1.5-1.3-.8-.3-1.6-.7-1.4-1.7.3-1.1 1.2-1.7 2.3-1.7 1.2 0 1.8.2 2.2.3l.1.1-.5.6M100.8 76.1c-.4 0-.8-.1-1.1-.3h-.2l-.4 1.5c-.1.5-.2 1-.1 1.2 0 .1-.1.2-.2.2h-.7c-.1 0-.2-.1-.2-.2 0-.3.1-.7.2-1.2l1.4-6c.1-.5.2-1 .1-1.2 0-.1.1-.2.2-.2h.7c.1 0 .2.1.2.2 0 .2 0 .5-.1.8 0 .1.1.1.2 0 .7-.9 1.6-1 1.9-1 1.1 0 2.2.6 1.6 3-.4 1.9-2 3.2-3.5 3.2m1.6-5.5c-1 0-2 1.3-2.3 2.4l-.3 1.2c-.2.8.2 1.5 1 1.5 1 0 2-1.1 2.4-2.7.3-1.1.3-2.4-.8-2.4zM108.9 71.1l-.9 3.6c-.1.6.1.8.5.8.1 0 .1 0 .1.1l-.1.2c0 .1 0 .1-.1.1h-.3c-.9 0-1.3-.4-1-1.6l.8-3.2c.1-.4.2-1 .2-1 0-.1.1-.2.2-.2h.7c.1 0 .2.1.1.2.1 0-.1.6-.2 1m.1-2.7c-.3 0-.5-.2-.5-.6.1-.4.6-.8 1-.8.3 0 .5.2.5.6-.1.4-.6.8-1 .8zM115.8 71.1l-.2.1c-.1 0-.5-.2-.8-.2-.6 0-1.7 1.5-2.2 3.6l-.3 1.3-.1.1-.7-.2c-.1 0-.1 0-.1-.2l1-4.3c.1-.5.2-1 .1-1.2 0-.1.1-.2.2-.2h.7c.1 0 .2.1.2.2 0 .3 0 .4-.1 1l-.1.3c0 .1.1.1.2.1.1-.2.3-.4.4-.5.5-.7 1.2-1.1 1.9-1.1.2 0 .3.1.4.2 0 .1.1.2 0 .2l-.5.8M122.2 74.8c-.1.3.1 1 .1 1 0 .1 0 .2-.2.2h-.7c-.1 0-.1-.1-.1-.2-.1-.5 0-.8.1-1.1 0-.1-.1-.1-.2 0-.6.9-1.4 1.5-2.2 1.5-1.1 0-2.2-.6-1.5-3 .5-1.9 2-3.2 3.6-3.2 1.3 0 2.1.8 1.8 2.1l-.7 2.7m-1.3-4.5c-1 0-2 1.1-2.4 2.7-.3 1.1-.3 2.3.8 2.3 1 0 1.9-1.4 2.3-2.4l.2-.6c.5-1.3-.1-2-.9-2zM130.4 74.8c-.1.4-.1 1-.1 1 0 .1-.1.2-.2.2h-.7c-.1 0-.2-.1-.1-.2 0 0 0-.6.1-1 .2-.7.5-2 .7-2.7.2-.9.1-1.7-.2-1.7-1.2 0-2.9 3-3.1 4.2l-.3 1.3-.1.1-.7-.2c-.1 0-.1 0-.1-.2l1-4.3c.1-.5.2-1 .1-1.2 0-.1.1-.2.2-.2h.7c.1 0 .2.1.2.2 0 .3-.1.7-.2 1.2l-.1.4c0 .1.1.2.2.1.7-1.2 1.6-1.9 2.5-1.9.9 0 1.3 1 1.1 2.1-.3.8-.8 2.2-.9 2.8M138.2 70.6c0 .1-.1.1-.2.1h-1.8l-1 4c-.1.6.1.8.4.8h.4c.1 0 .1 0 .1.1v.2c0 .1-.1.1-.1.1h-.6c-.9 0-1.3-.4-1-1.6l.9-3.7H134l-.1-.1c0-.1.1-.3.1-.4 0-.1.1-.1.2-.1h1.3l.3-1.3.1-.1.8-.3c.2-.1.3-.1.2.1l-.4 1.7h1.8c.1 0 .1 0 .1.1l-.2.4M150 68.4l-1.1 4.5-.4 1.9c-.1.3.1 1 .1 1 0 .1-.1.2-.2.2h-.7c-.1 0-.1-.1-.1-.2 0 0-.1-.4 0-.7 0-.1-.1-.1-.2 0-.7.8-1.6 1-1.9 1-1.1 0-2.2-.6-1.6-3 .5-1.9 2.1-3.2 3.6-3.2.4 0 .8.1 1.1.3h.2l.4-1.7c.1-.5.2-1 .1-1.2 0-.1.1-.2.2-.2h.7c.1 0 .2.1.2.2-.2.2-.3.5-.4 1.1m-2.8 1.9c-1 0-2 1.1-2.4 2.7-.3 1.1-.2 2.3.8 2.3s2-1.3 2.3-2.4l.3-1.2c.1-.7-.3-1.4-1-1.4zM152.8 74.3c0 .8.4 1.3 1 1.3s1.3-.4 1.8-.9l.1-.1.1-.1.3.3v.1c-.6.7-1.4 1.2-2.5 1.2-1.4 0-2.3-1.2-1.8-3.1.4-1.6 1.9-3.1 3.4-3.1 1.2 0 1.9.6 1.6 1.8-.3 1.1-1.9 2.2-4 2.6m2.3-3.9c-1 0-1.7 1-2.1 2.6-.1.3-.1.5-.1.8 1.5-.3 2.7-1.1 3-2.2.1-.8-.2-1.2-.8-1.2zM163.4 71c-.1.1-.2.1-.2.1-.4-.4-1-.6-1.7-.6-.5 0-1.1.2-1.2.8-.3 1.3 3.5.9 2.9 3.1-.3 1.3-1.6 1.8-2.8 1.8-1.2 0-1.8-.3-2.1-.4v-.2l.4-.8c.1-.1.2-.1.2 0 .4.6 1 .9 1.6.9.6 0 1.5-.3 1.7-1 .2-.8-.6-1-1.5-1.3-.8-.3-1.6-.7-1.4-1.7.3-1.1 1.2-1.7 2.3-1.7 1.2 0 1.8.2 2.2.3l.1.1-.5.6M172 76.1c-.4 0-.8-.1-1.1-.3h-.2l-.4 1.5c-.1.5-.2 1-.1 1.2 0 .1-.1.2-.2.2h-.7c-.1 0-.2-.1-.2-.2 0-.3.1-.7.2-1.2l1.4-6c.1-.5.2-1 .1-1.2 0-.1.1-.2.2-.2h.7c.1 0 .2.1.2.2 0 .2 0 .5-.1.8 0 .1.1.1.2 0 .7-.9 1.6-1 1.9-1 1.1 0 2.2.6 1.6 3-.4 1.9-2 3.2-3.5 3.2m1.6-5.5c-1 0-2 1.3-2.3 2.4l-.3 1.2c-.2.8.2 1.5 1 1.5 1 0 2-1.1 2.4-2.7.3-1.1.3-2.4-.8-2.4zM179.9 76.1c-1.5 0-2.4-1.3-1.9-3.2.5-1.9 1.9-3.2 3.4-3.2s2.4 1.2 1.9 3.2c-.4 2-1.9 3.2-3.4 3.2m1.3-5.7c-1.1 0-1.8 1-2.1 2.6-.3 1.6 0 2.6 1 2.6 1.1 0 1.8-1.1 2.1-2.7.4-1.6.1-2.5-1-2.5zM190.3 71c-.1.1-.2.1-.2.1-.4-.4-1-.6-1.7-.6-.5 0-1.1.2-1.2.8-.3 1.3 3.5.9 2.9 3.1-.3 1.3-1.6 1.8-2.8 1.8-1.2 0-1.8-.3-2.1-.4v-.2l.4-.8c.1-.1.2-.1.2 0 .4.6 1 .9 1.6.9.6 0 1.5-.3 1.7-1 .2-.8-.6-1-1.5-1.3-.8-.3-1.6-.7-1.4-1.7.3-1.1 1.2-1.7 2.3-1.7 1.2 0 1.8.2 2.2.3l.1.1-.5.6M197.4 71c-.1.1-.2.1-.2.1-.4-.4-1-.6-1.7-.6-.5 0-1.1.2-1.2.8-.3 1.3 3.5.9 2.9 3.1-.3 1.3-1.6 1.8-2.8 1.8-1.2 0-1.8-.3-2.1-.4v-.2l.4-.8c.1-.1.2-.1.2 0 .4.6 1 .9 1.6.9.6 0 1.5-.3 1.7-1 .2-.8-.6-1-1.5-1.3-.8-.3-1.6-.7-1.4-1.7.3-1.1 1.2-1.7 2.3-1.7 1.2 0 1.8.2 2.2.3l.1.1-.5.6M202.1 71.1l-.9 3.6c-.1.6.1.8.5.8.1 0 .1 0 .1.1l-.1.2c0 .1 0 .1-.1.1h-.3c-.9 0-1.3-.4-1-1.6l.8-3.2c.1-.4.2-1 .2-1 0-.1.1-.2.2-.2h.7c.1 0 .2.1.1.2 0 0-.2.6-.2 1m0-2.7c-.3 0-.5-.2-.5-.6.1-.4.6-.8 1-.8.3 0 .5.2.5.6-.1.4-.6.8-1 .8zM206.7 76.1c-.5 0-.9-.2-1.2-.5l-.2-.1c-.2 0-.4.3-.7.4-.1.1-.4.1-.3-.1l1.8-7.4c.1-.5.2-1 .1-1.2 0-.1.1-.2.2-.2h.7c.1 0 .2.1.2.2 0 .3 0 .7-.2 1.2l-.6 2.4c0 .1.1.1.2 0 .7-.8 1.6-1 1.9-1 1.1 0 2.2.6 1.6 3-.4 1.9-2 3.3-3.5 3.3m1.6-5.6c-1 0-2 1.3-2.3 2.4l-.3 1.2c-.2.8.2 1.5 1 1.5 1 0 2-1.1 2.4-2.7.3-1.1.2-2.4-.8-2.4zM214.6 71.1l-.9 3.6c-.1.6.1.8.5.8.1 0 .1 0 .1.1l-.1.2c0 .1 0 .1-.1.1h-.3c-.9 0-1.3-.4-1-1.6l.8-3.2c.1-.4.2-1 .2-1 0-.1.1-.2.2-.2h.7c.1 0 .2.1.1.2.1 0-.1.6-.2 1m.1-2.7c-.3 0-.5-.2-.5-.6.1-.4.6-.8 1-.8.3 0 .5.2.5.6-.1.4-.6.8-1 .8zM219.8 68.1l-1.6 6.6c-.1.6.1.8.4.8.1 0 .1 0 .1.1l-.1.2c0 .1 0 .1-.1.1h-.3c-.9 0-1.3-.4-1-1.6l1.5-6.2c.1-.4.1-.9.1-.9 0-.1.1-.2.2-.2h.7c.1 0 .2.1.1.2.1-.1.1.5 0 .9M223.9 71.1l-.9 3.6c-.1.6.1.8.5.8.1 0 .1 0 .1.1l-.1.2c0 .1 0 .1-.1.1h-.3c-.9 0-1.3-.4-1-1.6l.8-3.2c.1-.4.2-1 .2-1 0-.1.1-.2.2-.2h.7c.1 0 .2.1.1.2 0 0-.1.6-.2 1m0-2.7c-.3 0-.5-.2-.5-.6.1-.4.6-.8 1-.8.3 0 .5.2.5.6-.1.4-.6.8-1 .8zM230.9 70.6c0 .1-.1.1-.2.1h-1.8l-1 4c-.1.6.1.8.4.8h.4c.1 0 .1 0 .1.1v.2c0 .1-.1.1-.1.1h-.7c-.9 0-1.3-.4-1-1.6l.9-3.7h-1.3l-.1-.1c0-.1.1-.3.1-.4 0-.1.1-.1.2-.1h1.3l.3-1.3.1-.1.8-.3c.2-.1.3-.1.2.1l-.4 1.7h1.8c.1 0 .1 0 .1.1l-.1.4M233.6 74.3c0 .8.4 1.3 1 1.3s1.3-.4 1.8-.9l.1-.1.1-.1.3.3v.1c-.6.7-1.4 1.2-2.5 1.2-1.4 0-2.3-1.2-1.8-3.1.4-1.6 1.9-3.1 3.4-3.1 1.2 0 1.9.6 1.6 1.8-.4 1.1-2 2.2-4 2.6m2.2-3.9c-1 0-1.7 1-2.1 2.6-.1.3-.1.5-.1.8 1.5-.3 2.7-1.1 3-2.2.2-.8-.1-1.2-.8-1.2zm2.7-3.1L235 69h-.1v-.1l.1-.1 3.3-2.1c.2-.1.4 0 .4.1 0 .2-.1.4-.2.5zM244.1 71c-.1.1-.2.1-.2.1-.4-.4-1-.6-1.7-.6-.5 0-1.1.2-1.2.8-.3 1.3 3.5.9 2.9 3.1-.3 1.3-1.6 1.8-2.8 1.8-1.2 0-1.8-.3-2.1-.4v-.2l.4-.8c.1-.1.2-.1.2 0 .4.6 1 .9 1.6.9.6 0 1.5-.3 1.7-1 .2-.8-.6-1-1.5-1.3-.8-.3-1.6-.7-1.4-1.7.3-1.1 1.2-1.7 2.3-1.7 1.2 0 1.8.2 2.2.3l.1.1-.5.6"/></svg>