<svg xmlns="http://www.w3.org/2000/svg" viewBox="382 -10 783 41"><g fill="#82BC00"><path d="M787.5 22.4c0 .5-.1.9-.1 1.4 0 .2-.1.4-.1.6-.4 1-.8 2-1.1 2.9-.1.4-.4.6-.8.7-.7.1-1.3-.5-1-1.2.2-.5.4-1.1.6-1.6.5-1.1.7-2.2.7-3.4v-.5c0-.3 0-.6-.1-.9-.1-.2-.1-.6-.1-.8.2-.9.4-1.7.5-2.6 0 0-.1 0-.1-.1-.4.5-.9.9-1.3 1.4-.2.2-.3.4-.5.5-.3.3-.7.3-1 .1-.3-.2-.4-.7-.1-1 1.1-1.3 2.2-2.6 3.9-3.2 1.2-.5 1.9-.3 2.7.7.7.8 1.4 1.6 2.2 2.4.3.3.7.5 1 .8.3.2.5.5.4.9 0 .1.1.2.2.3 1.2 1.2 2.4 2.5 3.7 3.7l.1.1-.3.3c-.4-.4-.8-.7-1.1-1.1-.9-.9-1.8-1.8-2.7-2.8-.1-.1-.2-.2-.4-.1-.2 0-.5 0-.7-.2-.9-.6-1.7-1.2-2.3-2 0-.1-.1-.1-.1-.2 0 0-.1 0-.1.1-.2.9-.3 1.7-.6 2.6-.1.4 0 .8.2 1.1 1 1.3 1.6 2.8 1.9 4.4.1.4.2.7.3 1.1.1.6-.1 1-.6 1.2-.5.1-1-.1-1.2-.7-.3-.9-.5-1.7-.7-2.6-.1-.9-.8-1.6-1.3-2.3.1 0 .1 0 0 0z"/><path d="M798.1 26.3H796c.2.3.3.6.5.9.1.2.1.4-.1.5-.2.1-.4 0-.5-.2-.2-.3-.4-.7-.6-1.1-.2.4-.4.7-.5 1-.1.2-.3.4-.5.3-.3-.1-.2-.4-.1-.6 0-.1.1-.1.1-.2.5-.6.4-1.4.4-2.1 0-.1-.1-.2-.2-.3-.2-.1-.4-.3-.5-.4-.1-.1-.1-.3 0-.4 0-.1.3 0 .4-.1h.1c.4.5 1 .6 1.6.5 1-.2 1.7.4 2.5.9.1 0 .1.2.1.2v2.1c0 .2-.1.4-.3.4-.3 0-.4-.2-.3-.4v-1zm-8.9-15.4c1 0 1.9.8 1.9 1.9 0 1-.9 1.9-1.9 1.9s-1.9-.9-1.9-1.9c.1-1.1.9-1.9 1.9-1.9zm9.6 13.9c-.5-.3-1-.6-1.5-.8l.6-.9c.2-.3.3-.6.5-.9.1-.1.2-.2.3-.2.1 0 .3.2.3.3 0 .7.5 1 1 1.4.2.2.6.2.5.6-.1.3-.4.4-.8.4h-.1c-.4-.2-.6-.2-.8.1z"/></g><path fill="#82BC00" d="M947.6 17.4c-2.3-.3-2.3-.3-3.3-1.4C949.5 10.8 955 5.5 960.2.3c5.1 5.2 10.5 10.4 15.8 15.7-.5 1.1-1.6 1.5-3.1 1.2v11.1h-25c-.3-3.6-.3-7.2-.3-10.9zm13.5 11.2V17.9c0-.6.2-.9.8-.8h4.6c.5 0 .6.2.6.7v10.9h3.5V16.1c0-.3-.3-.7-.5-1-3.1-3.2-6.3-6.3-9.5-9.4l-.6-.6c-3.4 3.5-6.9 6.9-10.5 10.3-.2.2-.2.6-.3.9v12.4c4.1-.1 7.8-.1 11.9-.1zm10-18.5c-1.3-1.4-2.8-2.7-4-4.1-.4-.5-.2-1.4-.3-2.3h4.2c.1 0 .4.4.4.6V10c-.1.1-.2.1-.3.1z"/><path fill="#E3EEC5" d="M961.1 28.6h-11.8V16.2c0-.3.1-.7.3-.9 3.4-3.4 6.8-6.9 10.5-10.3.3.2.5.4.6.6 3.1 3.1 6.3 6.3 9.5 9.4.3.3.5.6.5 1v12.6h-3.5V17.7c0-.5-.2-.7-.6-.7H962c-.7 0-.8.2-.8.8v7.6c-.1.5-.1 2.8-.1 3.2zm-8.3-6.9h4.6v-4c0-.2-.4-.5-.6-.5-1.1-.1-2.3 0-3.4 0-.5 0-.6.2-.6.7v3.8z"/><path fill="#82BC00" d="M952.8 21.7v-3.9c0-.5.1-.7.6-.7h3.4c.2 0 .5.3.6.5v4c-1.5.1-3 .1-4.6.1zM891.6-1c2.3 2.3 4.5 4.6 6.8 7.1 0-.5.1-.9.1-1.3h4.7c0 1.3.1 2.6 0 3.9-.2 1.6.5 2.8 1.6 3.8 1.1.9 2.1 2 3.2 3-.7 1-1.4 1.7-2.6 1.5-.9-.2-1.1.2-1.1 1.1v10.6h-37.4V17.1c-2.6-.5-2.6-.5-3.5-1.6 3.3-3.1 6.7-6.2 10.2-9.3l.2-.2c1.1-1.6 2.7-2 4.6-1.9 2.4.1 4.8.1 7.1 0 .4 0 .8-.2 1-.4 1.9-1.4 3.4-3 5.1-4.7zm-11.4 29.9h12.3V19c0-.7.2-.9.9-.9 1.5 0 3.1.1 4.6 0 .7 0 .9.3.9.9v9.8h3.8V16c0-.5-.3-1-.6-1.3-3-3.1-6.1-6.1-9.1-9.1-.5-.5-.9-1-1.5-1.8-3.6 3.7-7.1 7.3-10.7 10.9-.3.3-.5.8-.5 1.1v6.9c-.1 1.5-.1 4.8-.1 6.2zm-2 0V17.3h-9.4v11.6h9.4z"/><path fill="#E3EEC5" d="M880.2 28.9V16c0-.4.2-.9.5-1.1 3.4-3.6 6.9-7.1 10.7-10.9.6.7 1 1.3 1.5 1.8l9.1 9.1c.3.3.6.9.6 1.3V29h-3.8v-9.8c0-.7-.2-1-.9-.9h-4.6c-.7 0-.9.2-.9.9v9.9c-3.9-.2-7.8-.2-12.2-.2zm8.5-4.2v-4.6h-4.6v4.6h4.6zm-10.5 4.2h-9.4V17.3h9.4v11.6zm-6.9-4.2h4.7v-4.6h-4.7v4.6z"/><path fill="#82BC00" d="M888.7 24.7h-4.6v-4.6h4.6v4.6zm-17.4 0v-4.6h4.7v4.6h-4.7zm38.4 3.5V4.7h-3.4c.2-.9.3-1.6.6-2.3l4.5-8.7c.3-.5.6-.7 1.2-.7h15.8c.5 0 1 0 1.5-.1V-10h4.5v4.6h.3c0-.3.1-.7.1-1 0-.5.2-.7.7-.6 1.8 0 3.5 0 5.3.1.3 0 .7.3.9.5 1.6 3 3.2 6.1 4.7 9.2.3.5.3 1.1.5 1.8h-3.4v23.5c-11.3.1-22.5.1-33.8.1zm31.5-23.4h-29.4v23.3h11.7V16.9h6.3v11.3h11.6c-.2-7.2-.2-16.3-.2-23.4z"/><path fill="#E3EEC5" d="M941.2 4.8v23.4h-11.6V16.9h-6.3v11.2h-11.7V4.8h29.6zm-8 16.8h4.8v-4.7h-4.8v4.7zM938 7h-4.3c-.2 0-.5.3-.5.4v4.3h4.8V7zm-13.8 4.8h4.8V7.7c0-.2-.4-.6-.7-.6-1.4-.1-2.7 0-4.1 0v4.7zm-4.6.1V7.2h-4.8v4.2c0 .2.4.5.6.5h4.2zm0 9.7v-4.9h-4.2c-.2 0-.5.4-.5.6-.1 1.2-.1 2.5 0 3.7 0 .2.4.6.6.6 1.3.1 2.7 0 4.1 0z"/><path fill="#82BC00" d="M933.2 21.6v-4.7h4.8v4.7h-4.8zM938 7v4.8h-4.8V7.5c0-.1.3-.4.5-.4 1.4-.1 2.8-.1 4.3-.1zm-13.8 4.8V7.1h4.1c.2 0 .6.4.7.6.1 1.3 0 2.7 0 4.1h-4.8zm-4.6.1h-4.2c-.2 0-.6-.3-.6-.5-.1-1.4 0-2.8 0-4.2h4.8v4.7zm0 9.7h-4.1c-.2 0-.6-.4-.6-.6-.1-1.2-.1-2.5 0-3.7 0-.2.4-.5.5-.6h4.2v4.9zm-76.5 3.7v-5.6c0-.1.1-.3.1-.4.2-.7.6-1.1 1.3-1.4.3-.1.4-.2.5-.5.4-1.2.9-2.4 1.4-3.5.4-1.1 1.1-1.6 2.4-1.7h8c1.2 0 1.9.5 2.4 1.7.4 1 .8 2 1.1 3 .2.5.3 1 1 1.2.1 0 .3.2.4.3.3.4.5.8.7 1.2v5.7h-1.5v.9c0 .4 0 .8-.1 1.2-.1.9-1.1 1.4-1.9 1-.7-.3-.9-.8-.9-1.5v-1.5h-10.6v1.9c0 .6-.4 1-1 1.2-.5.2-1 .1-1.4-.3-.4-.4-.5-.8-.5-1.4v-1.5h-1.4zm15.9-7.4c-.4-1.1-.8-2.2-1.2-3.2-.2-.6-.4-.8-1.1-.8h-7.8c-.7 0-.9.1-1.1.8-.4 1-.7 1.9-1.1 2.9 0 .1-.1.2-.1.3H859zm-12.9 4.3c.7 0 1.3-.6 1.3-1.3 0-.7-.6-1.4-1.3-1.4-.7 0-1.3.6-1.3 1.3 0 .7.6 1.4 1.3 1.4zm14.6-1.4c0-.7-.6-1.4-1.3-1.4-.7 0-1.3.6-1.3 1.4 0 .7.6 1.3 1.3 1.3.7.1 1.3-.6 1.3-1.3z"/><path fill="#E3EEC5" d="M859 17.9h-12.6c0-.1.1-.2.1-.3.4-1 .7-1.9 1.1-2.9.2-.6.4-.8 1.1-.8h7.8c.7 0 .9.1 1.1.8.6 1 1 2.1 1.4 3.2zm-12.9 4.3c-.7 0-1.3-.6-1.3-1.4 0-.7.6-1.3 1.3-1.3.7 0 1.3.6 1.3 1.4.1.7-.6 1.3-1.3 1.3zm14.6-1.4c0 .7-.6 1.4-1.3 1.4-.7 0-1.3-.6-1.3-1.3 0-.7.6-1.4 1.3-1.4.7-.1 1.3.6 1.3 1.3z"/><path fill="#82BC00" d="M1081 24c-.2.6-.7.9-1.3.8h-1.8c-.2-1.1-.7-2-1.7-2.6-.7-.4-1.4-.6-2.2-.6-1.4.1-3 1.1-3.3 3.1h-6.1c-.2-1.1-.7-1.9-1.6-2.5-.7-.4-1.4-.6-2.2-.6-1.4.1-3 1.1-3.3 3.1h-2.2c-.5 0-.7-.4-.9-.8v-2.6c.3-1.4 1.1-2.5 2.3-3.2.9-.5 1.9-.6 2.9-.6.5 0 .9-.2 1.3-.6 1-1.2 2-2.3 2.9-3.5.5-.7 1.2-1 2.1-1h7.2c.4.1.7.2.9.5.2.2.3.4.5.7.9 1.1 1.7 2.3 2.6 3.4.3.4.6.6 1.1.6h1.6c.6 0 1.1.2 1.3.8-.1 1.9-.1 3.8-.1 5.6zm-6.2-6.5c-.6-.9-1.3-1.7-1.9-2.6-.2-.2-.4-.4-.7-.4h-2.5v3.1h5.2s0-.1-.1-.1zm-7.3-2.7v-.2h-1.9c-.3 0-.5.2-.7.4-.7.9-1.4 1.7-2.1 2.6h4.7v-2.8z"/><path fill="#E3EEC5" d="M1074.9 17.6c0-.1-.1-.1-.1-.1-.6-.9-1.3-1.7-1.9-2.6-.2-.2-.4-.4-.7-.4h-2.5v3.1h5.2zm-7.4 0v-3h-1.9c-.3 0-.5.2-.7.4-.7.9-1.4 1.7-2.1 2.6h4.7z"/><path fill="#82BC00" d="M1060.8 27.7c1.3 0 2.4-1 2.4-2.4 0-1.3-1-2.4-2.4-2.4-1.3 0-2.4 1.1-2.4 2.4 0 1.3 1 2.4 2.4 2.4zm13.5 0c1.3 0 2.4-1 2.4-2.4 0-1.3-1.1-2.4-2.4-2.4s-2.4 1.1-2.4 2.4 1.1 2.4 2.4 2.4zm-61.3-4.6h-1.3c.6-1.9 1.2-3.8 1.7-5.7 0 0-.1 0-.1-.1-.1.1-.2.2-.2.3-.3.8-.5 1.6-.7 2.4 0 .1-.1.2-.1.3-.1.2-.4.3-.6.3-.2 0-.4-.3-.4-.5v-.3c.3-1 .6-2 .9-3.1.2-.5.4-1.1 1.1-1.1.9-.1 1.8-.1 2.7 0 .6 0 .9.6 1.1 1.1.2.8.5 1.5.7 2.3.1.3.2.5.2.8.1.4 0 .7-.4.8-.3.1-.6-.1-.7-.5-.3-.8-.5-1.7-.8-2.5 0-.1-.1-.2-.2-.3 0 0-.1 0-.1.1.6 1.9 1.1 3.8 1.7 5.7h-1s-.4.1-.4.4v3.6c0 .2-.1.4-.2.6-.1.3-.4.3-.7.3s-.5-.2-.6-.5c0-.2-.1-.3-.1-.5v-3.6c0-.1-.1-.2-.1-.3 0 .1-.1.2-.1.3v4c-.1.3-.3.5-.7.6-.3 0-.6-.2-.7-.5 0-.1-.1-.3-.1-.5.2-1.3.2-2.6.2-3.9zm-4.2 3.2c-.2-.2-.4-.5-.6-.7-.8.4-1.6.2-2.3-.2-.2-.1-.8.2-.8.5 0 .1.1.2.2.2.4.3.6.7.5 1.1-.1.4-.5.7-.9.7s-.8-.3-1-.7c-.1-.4 0-.8.5-1.1.1-.1.2-.2.2-.3 0-.2.1-.3.2-.5 1.3-1 2.5-2.1 3.8-3.1.3-.2.5-.5.8-.8.2-.2.4-.4.6-.5.4-.3.9-.1 1.2.3.2.4.1 1-.3 1.2h-.2s-.1-.2 0-.2c0-.1.2-.2.2-.3 0-.2 0-.4-.1-.5s-.4-.1-.5-.1c-.4.3-.7.7-1.1 1v.2c.1.8 0 1.6-.3 2.4v.3c.1.2.3.3.4.4.2.2.3.3.6.3.4 0 .7.3.8.8.1.4-.1.8-.5 1s-.8.2-1.1-.1-.4-.7-.2-1.1c-.2 0-.2-.1-.1-.2zm-.6-5.4c0 .8-.6 1.4-1.4 1.4s-1.4-.6-1.4-1.4.7-1.5 1.4-1.5c.8.1 1.4.7 1.4 1.5zm6.4-9.1c.9 0 1.7.8 1.7 1.7 0 .9-.8 1.8-1.8 1.7-.9 0-1.7-.8-1.7-1.7.1-.9.9-1.7 1.8-1.7zm-8.6 12.1c-.6.5-1.1.9-1.7 1.4-.3.2-.6.2-.8 0s-.1-.5.1-.7c.3-.3.6-.5.9-.8.6-.5 1-.4 1.5.1zm-203.3-5.1h-.8c-1.4 0-2.6-.5-3.5-1.5-1.1-1.1-1.6-2.4-1.6-3.9 0-.3-.1-.8-.3-.9-2.1-1.2-3.1-2.9-3-5.3.1-1.9 1-3.2 2.6-4.2.5-.3.8-.6.8-1.2-.1-2.2 1.5-4.4 3.5-5.1.2-.1.5-.3.5-.5.4-1.1 1-2.1 1.9-2.9 2.1-2 5.8-2.1 8-.5.4.3.6.3 1 .1 1.2-.8 2.4-1.1 3.9-1.2 3.6 0 6.4 3 6.3 6.6 0 .9.3 1.1.9 1.4 2.6 1.3 3.9 4.6 3.1 7.4-.6 2.1-2.1 3.5-4 4.3.8 3.9-2.6 9-8.9 7.1v10.4h-2V18.5c-.8.1-1.6.1-2.4.2v10.2h-2.1V18.7c0-.7-.4-.9-.8-1-.4-.1-.8.5-.8 1v10.2h-2c-.3-3.2-.3-6.6-.3-10.1zm-3.7-16c.3.9 0 1.5-.9 1.6-1.3.2-2.1 1.1-2.5 2.2-.6 1.6.5 3.8 2.3 4.2 1.2.3 1.4.6 1.1 1.8-.4 1.4.2 2.9 1.6 3.8 1.2.7 2.7.6 3.8-.5 1-1 1.3-1 2.3 0 .9.9 2.1 1.2 3.3.7 1.2-.5 2-1.3 2.2-2.6.1-.5 0-1-.1-1.6-.2-.9.1-1.4 1-1.6 1.5-.3 2.6-1.9 2.6-3.3 0-1.3-1.3-2.9-2.6-3.1-1-.2-1.2-.7-1-1.7.7-2.5-1.2-4.4-3.3-4.3-.8 0-1.6.4-2.2 1-.9.9-1.2.9-2.2 0-1.1-1-2.3-1.2-3.6-.7-1.2.5-2 1.7-2.1 3.1.1.4.2.7.3 1zm6.3-5.4c.2.1.5 0 .6-.1 2.5-1.6 5.9-1 7.6 1.6.6.9.9 1.9.8 2.9-.1.6.1.9.7 1.1 2.5 1.2 3.6 4.9 2 7.5-.6.9-1.3 1.5-2.2 2-.2.1-.4.5-.4.8-.2 1-.4 2.1-.5 3.3.9.7 2.5.6 3.9-.2 1.8-1 2.6-3.2 2-5.2-.3-.9-.1-1.3.8-1.6 2.1-.6 3.5-2.3 3.6-4.2 0-2.3-1.4-3.9-3.5-4.5-.9-.2-1.2-.6-.9-1.5.9-2.7-.8-5.2-3.4-5.8-1.5-.3-2.8.2-3.9 1.3-.7.7-1.3.8-2.1 0-1.9-1.9-4.3-1.9-6.2-.3-.1.1-.2.1-.2.2-.3.4-.6.9-.8 1.3.7.7 1.4 1.1 2.1 1.4z"/><path fill="#E3EEC5" d="M798.8 1.8c.1.3.1.7.2 1 .3.9 0 1.5-.9 1.6-1.3.2-2.1 1.1-2.5 2.2-.6 1.6.5 3.8 2.3 4.2 1.2.3 1.4.6 1.1 1.8-.4 1.4.2 2.9 1.6 3.8 1.2.7 2.7.6 3.8-.5 1-1 1.3-1 2.3 0 .9.9 2.1 1.2 3.3.7 1.2-.5 2-1.3 2.2-2.6.1-.5 0-1-.1-1.6-.2-.9.1-1.4 1-1.6 1.5-.3 2.6-1.9 2.6-3.3 0-1.3-1.3-2.9-2.6-3.1-1-.2-1.2-.7-1-1.7.7-2.5-1.2-4.4-3.3-4.3-.8 0-1.6.4-2.2 1-.9.9-1.2.9-2.2 0-1.1-1-2.3-1.2-3.6-.7-1.2.6-2 1.8-2 3.1z"/><path fill="#E3EEC5" d="M803-3.6c.8.4 1.5.8 2.3 1.1.2.1.5 0 .6-.1 2.5-1.6 5.9-1 7.6 1.6.6.9.9 1.9.8 2.9-.1.6.1.9.7 1.1 2.5 1.2 3.6 4.9 2 7.5-.6.9-1.3 1.5-2.2 2-.2.1-.4.5-.4.8-.2 1-.4 2.1-.5 3.3.9.7 2.5.6 3.9-.2 1.8-1 2.6-3.2 2-5.2-.3-.9-.1-1.3.8-1.6 2.1-.6 3.5-2.3 3.6-4.2 0-2.3-1.4-3.9-3.5-4.5-.9-.2-1.2-.6-.9-1.5.9-2.7-.8-5.2-3.4-5.8-1.5-.3-2.8.2-3.9 1.3-.7.7-1.3.8-2.1 0-1.9-1.9-4.3-1.9-6.2-.3-.1.1-.2.1-.2.2-.4.7-.6 1.1-1 1.6z"/><g fill="#82BC00"><path d="M765.9 23.6c-.1.3-.2.7-.2 1 0 .9.1 1.8.2 2.6v.3c.1.4-.2.8-.6.9-.4.1-.8-.2-.9-.6-.2-.9-.3-1.7-.4-2.6-.1-.8 0-1.5.3-2.2.1-.4.2-.7.3-1.1s.3-.8 0-1.2c-.1-.1-.1-.3-.1-.4 0-.7-.1-1.4-.1-2.1 0-.1.1-.2.1-.3.4-.6.7-1.3.8-2.1.1-.5-.2-.8-.6-.9s-.8.1-1 .5v.2c-.1-.6.6-1.2 1.3-1 .2.1.5.3.7.5 1 1.5 1.6 3.2 1.7 5 0 .4 0 .8-.3 1.1-.1.1-.1.2-.1.3l.3 1.5c.1.3.2.7.4 1 .5.9 1 1.8 1.4 2.7.3.5 0 1-.5 1.1-.3.1-.6-.1-.8-.4-.6-1.1-1.2-2.1-1.7-3.2 0-.1 0-.4-.2-.6.1 0 0 0 0 0zm-.7-10.8c0 1-.8 1.9-1.9 1.9-1.1 0-1.9-.9-1.9-1.9s.9-1.9 1.9-1.9c1 .1 1.9.9 1.9 1.9z"/><path d="M761.1 19.7c-.5 0-.8-.3-.9-.7 0-.4.2-.8.7-.8 1.5-.2 2.4-1 2.8-2.7.1-.4.3-.6.7-.6s.6.2.7.5v.3c-.1 1.6-1.5 3.3-3.1 3.8-.2.1-.5.2-.9.2z"/><path d="M760.2 19.3l.2.2.1.1c-.1.4-.2.7-.2 1l-1.5 7.5v.2c-.1.1-.2.1-.3.2-.1-.1-.2-.2-.2-.3.1-.6.2-1.1.3-1.6.4-2.2.8-4.4 1.3-6.5.1-.3.2-.5.3-.8zm1 .5c.1 0 .3 0 .5-.1 0 .2 0 .4-.1.6-.1.2-.3 0-.4-.2v-.3z"/></g><g fill="#82BC00"><path d="M975.7 28.4v-6.8l-.9-1.4-.8 1.4v6.8m4.8 0v-6.8l-.9-1.4-.9 1.4v6.8m4.8 0v-6.8l-1-1.4-.8 1.4v6.8m4.8 0v-6.8l-.9-1.4-.9 1.4v6.8"/><path d="M973.5 22.5h11.9v1h-11.9zm0 3.6h11.9v1h-11.9z"/></g><path fill="#82BC00" d="M378 27.8h791v3.1H378z"/></svg>