<svg id="Layer_1" xmlns="http://www.w3.org/2000/svg" viewBox="0 0 584 64"><style>.st0{fill:#82BC00;} .st1{fill:#E3EEC5;}</style><path class="st0" d="M275 62.5c.4-.7 1-.9 1.9-.8V39.9h14.2c1.2 0 2.3-.4 3.2-1.3 3.2-3.1 6.4-6.2 9.5-9.3.1-.1.3-.3.5-.4 1.1 1.1 2.2 2.1 3.3 3.2 2.2 2.2 4.5 4.3 6.7 6.5.9.9 2 1.4 3.3 1.4h14.1v21.7c1.8.3 1.9-.7 1.9 1.2 0 1.2-.4.6-1.6.6h-55.3c-.7 0-1.2.8-1.6.2-.1-.7-.1-.5-.1-1.2zm28.2-26.2c-2.2.2-3.9 2.5-3.7 5 .1 2.4 2.3 4.3 4.8 4.3 2.4 0 4.5-2 4.6-4.3.1-2.5-1.6-4.7-3.7-5V40.7c0 .7-.4 1.1-1.1 1.1h-1.9c-.6 0-.7-.2-.7-.9s.2-.9.7-.9h1.1c-.1-1.3-.1-2.5-.1-3.7zm3.8 24.4c0-2.3.1-4.7 0-7-.1-1.5-1.5-2.5-3.1-2.4-1.4.1-2.5 1.4-2.5 2.8V60.7h5.6zm-20.7-15h-3.7v3.7h3.7v-3.7zm9.4-.1H292v3.7h3.7v-3.7zm17 3.8h3.7v-3.7h-3.7v3.7zm13.2-3.7h-3.7v3.7h3.7v-3.7zm-43.4 11.2h3.7v-3.7h-3.7v3.7zm13.2 0v-3.7H292v3.7h3.7zm20.7 0v-3.7h-3.7v3.7h3.7zm9.5 0v-3.7h-3.7v3.7h3.7z"/><path class="st0" d="M275 36.9c2.4-3.1 4.8-6.3 7.2-9.4.4-.5 1-.8 1.6-.8h11.6c.3 0 .7-.1.9-.3 2.2-2.1 4.5-4.3 6.7-6.4.2-.2.3-.5.3-.8V11c0-1.1 1-1.8 1.9-1.1 1.4 1 2.9.9 4.4.3 1.4-.6 2.8-.6 4.2 0 .5.2.8.5.8 1.2-.1 1.8 0 3.5 0 5.3v.4c-.6-.2-1.3-.5-1.9-.7-1-.3-2.1-.1-3 .3-1 .4-2 .7-3 .4-.5-.1-.9-.4-1.4-.6v3c0 .1.2.3.3.4 2.2 2.2 4.5 4.3 6.7 6.4.2.2.5.3.8.3h11.6c.8 0 1.3.3 1.8.9 2.2 2.9 4.5 5.9 6.7 8.8.3.3.5.7.2 1.1-.2.5-.6.5-1.1.5h-14c-.8 0-1.4-.3-1.9-.8-3.8-3.8-7.7-7.5-11.6-11.3l-.5-.5c-1.2 1.1-2.3 2.2-3.4 3.3-2.9 2.9-5.9 5.7-8.8 8.6-.5.5-1 .7-1.7.7h-14c-.6 0-1-.1-1.3-.6-.1 0-.1-.2-.1-.4z"/><path class="st1" d="M303.2 36.3v3.6h-1.1c-.6 0-.7.2-.7.9s.2.9.7.9h1.9c.7 0 1.1-.4 1.1-1.1v-4.1-.3c2.2.2 3.9 2.5 3.7 5-.1 2.3-2.2 4.3-4.6 4.3-2.5 0-4.7-1.9-4.8-4.3 0-2.4 1.6-4.6 3.8-4.9zM307 60.7h-5.6v-.4-6.2c0-1.4 1.2-2.7 2.5-2.8 1.6-.1 3 1 3.1 2.4.1 2.3 0 4.6 0 7zM286.3 45.7v3.7h-3.7v-3.7h3.7zM295.7 45.6v3.7H292v-3.7h3.7zM312.7 49.4v-3.7h3.7v3.7h-3.7zM325.9 45.7v3.7h-3.7v-3.7h3.7zM282.5 56.9v-3.7h3.7v3.7h-3.7zM295.7 56.9H292v-3.7h3.7v3.7zM316.4 56.9h-3.7v-3.7h3.7v3.7zM325.9 56.9h-3.7v-3.7h3.7v3.7z"/><g><path class="st0" d="M268 46.5c1 0 2-.2 2.7.7.5.7.3 1.5.4 2.4h-1.5c-.4 0-.8 0-1.1.1-.5.1-.8.5-.7 1.2 0 .5.4.9.9.9h2.4v4.8c0 .8-.6 1.4-1.4 1.4h-.7c-.8-3-3-4-4.7-4.1-2.5-.2-4.9 1.4-5.5 4.1h-12.1c-.3 0-.4-.1-.5-.4-.6-2.2-2.6-3.7-4.9-3.7-2.3 0-4.4 1.6-5 3.8-.1.3-.2.3-.4.3-.9 0-1.7-.2-2.4-.7-.3-.2-.5-.5-.5-.9V41.3c0-1.5 1.4-2.9 2.9-2.9h29.3c1.4 0 2.8 1 2.9 2.9v4.9c-.1 0-.1.1-.1.3zm-9.3.7v-5c0-.6-.3-.9-.9-.9h-2.3c-.8 0-1 .2-1 1v10.5c0 .6.2.8.8.9.7 0 1.4 0 2.1-.1.7-.1 1.3-.9 1.3-1.6v-4.8zm2-3.3v1.8c0 .5.3.7.7.7h2.7c.5 0 .7-.2.7-.7v-3.6c0-.5-.4-.9-.9-.9h-2.4c-.5 0-.8.3-.8.8v1.9zm-22.6-2.5h-1.3c-.4 0-.7.3-.7.7v1.6c0 .5.2.8.7.8h2.6c.5 0 .7-.3.7-.8v-1.6c0-.6-.2-.8-.8-.8-.4.1-.8.1-1.2.1zm12.4 3.1h1.2c.6 0 .9-.3.9-.9v-1.5c0-.5-.3-.8-.8-.8h-2.6c-.5 0-.8.2-.8.7v1.6c0 .5.2.8.8.8.4.1.8.1 1.3.1zm-12.4 5.1h1.3c.5 0 .8-.3.8-.8v-1.6c0-.5-.3-.8-.8-.8h-2.6c-.5 0-.8.3-.8.8v1.5c0 .5.3.8.8.8.4.2.9.1 1.3.1zm12.3-3.1h-1.3c-.5 0-.7.2-.7.7v1.7c0 .4.3.7.7.7h2.7c.5 0 .7-.3.7-.8v-1.5c0-.5-.3-.8-.8-.8h-1.3zm-6.1-5.1H243c-.5 0-.8.3-.8.8v1.6c0 .5.2.8.7.8h2.7c.5 0 .7-.3.7-.8v-1.5c0-.5-.3-.8-.8-.8-.4-.1-.8-.1-1.2-.1zm0 5.1H243c-.5 0-.8.3-.8.8v1.6c0 .5.2.8.7.8h2.7c.5 0 .7-.3.7-.8v-1.6c0-.5-.3-.8-.8-.8h-1.2z"/><path class="st0" d="M263.8 55.7c1.9 0 3.3 1.5 3.2 3.3-.1 1.9-1.5 3.2-3.3 3.1-1.8 0-3.2-1.5-3.1-3.3.1-1.8 1.5-3.2 3.2-3.1zM241.2 55.7c1.7 0 3.2 1.4 3.2 3 .1 1.9-1.3 3.4-3.2 3.4-1.7 0-3.2-1.4-3.3-3.1 0-1.8 1.4-3.4 3.3-3.3z"/><path class="st1" d="M258.7 47.2V52c0 .7-.6 1.5-1.3 1.6-.7.1-1.4.1-2.1.1-.6 0-.8-.3-.8-.9v-5.6-4.9c0-.7.2-1 1-1h2.3c.6 0 .9.3.9.9v5zM260.7 43.9v-1.8c0-.5.3-.8.8-.8h2.4c.5 0 .9.3.9.9v3.6c0 .5-.3.7-.7.7h-2.7c-.5 0-.7-.3-.7-.7v-1.9zM238.1 41.4h1.2c.6 0 .8.2.8.8v1.6c0 .5-.2.7-.7.8h-2.6c-.5 0-.7-.3-.7-.8v-1.6c0-.4.3-.7.7-.7.4-.1.8-.1 1.3-.1zM250.5 44.5h-1.3c-.5 0-.8-.3-.8-.8v-1.6c0-.5.3-.7.8-.7h2.6c.5 0 .8.3.8.8v1.5c0 .6-.3.8-.9.9-.4-.1-.8-.1-1.2-.1zM238.1 49.6h-1.2c-.5 0-.8-.3-.8-.8v-1.5c0-.5.3-.8.8-.8h2.6c.5 0 .8.2.8.8v1.6c0 .5-.3.8-.8.8-.6-.1-1-.1-1.4-.1zM250.4 46.5h1.3c.5 0 .8.3.8.8v1.5c0 .5-.2.8-.7.8h-2.7c-.4 0-.7-.3-.7-.7v-1.7c0-.5.3-.7.7-.7h1.3zM244.3 41.4h1.3c.5 0 .8.3.8.8v1.5c0 .5-.2.8-.7.8H243c-.5 0-.7-.3-.7-.8v-1.6c0-.5.3-.8.8-.8.3.1.7.1 1.2.1zM244.3 46.5h1.3c.5 0 .8.3.8.8v1.6c0 .5-.2.7-.7.8H243c-.5 0-.7-.3-.7-.8v-1.6c0-.5.3-.8.8-.8h1.2z"/></g><g><path class="st0" d="M352.9 62.5c.4-.4.8-.7 1.1-1.1 1.3-1.9 2.5-3.9 3.8-5.8.5-.7.6-1.5.4-2.3-.3-1.2-.5-2.4-.8-3.5-.1-.4-.3-.9-.6-.9-.6-.2-1.3-.2-1.7.6-.3.6-.6 1.1-.8 1.7-.3 1.1-1.1 1.8-2.1 2.2-.4.2-1 .4-.7 1 .3.7.9.2 1.3 0 .8-.5 1.8-.7 2.4-1.8l.6 2.1c0 .2-.1.4-.2.6-1.1 1.8-2.2 3.6-3.2 5.3-.5.9-.4 1.3.4 1.8-.1.1 0 .1.1.1zM361 52.9c-.4-1.2-.8-2.4-1.2-3.7-.3-.8-.6-1-1.3-.6-.2.1-.5.5-.5.8.3 1.4.6 2.7.9 4.1.1.5.4.7.9.5.4-.1.8-.3 1.2-.5v-.6zM361 61.4c-.3-.4-.6-.8-.9-1.3-.7-1.1-1.3-2.3-1.9-3.4-.3.4-.6.8-1 1.4-.1.2-.1.5 0 .7.9 1.2 1.8 2.5 2.8 3.7h1v-1.1zM354.7 44.7c-.6.3-1.1.7-1.2 1.5-.1.8.4 1.6 1.2 1.9.8.3 1.7-.2 2.1-1 .3-.8 0-1.7-.7-2.1-.2-.1-.3-.2-.5-.3h-.9zM346.7 55.8c.4.7.3 1.3-.2 2.1-.7 1-1.3 2-1.9 3.1-.1.2-.3.4-.3.6 0 .2.1.6.3.7.2.1.5 0 .7-.1.2-.2.4-.4.6-.7.9-1.3 1.7-2.6 2.6-4 .4-.6.5-1.1.3-1.8s-.3-1.4-.5-2.1c-.1-.3-.3-.6-.5-.7-.4-.1-.9-.1-1.2.4-.2.4-.4.7-.6 1.1-.3.8-.8 1.3-1.6 1.7-.3.1-1 .2-.7.8.3.6.8.2 1.1 0 .6-.3 1.2-.7 1.9-1.1zM346.6 52.2c.8 0 1.4-.6 1.4-1.4 0-.7-.6-1.3-1.3-1.3-.8 0-1.4.6-1.4 1.3 0 .8.6 1.4 1.3 1.4zM348.4 52.8c.3 1.2.5 2.1.7 3.1.2.6.7.3 1.1.3.4-.1.5-.3.4-.7-.3-.9-.5-1.8-.8-2.7-.1-.2-.5-.4-.7-.4-.3 0-.5.3-.7.4zM348.6 58.2c.1-.1 0-.1 0 0-1 1.2-1 1.3-.1 2.5.4.5.7 1 1.1 1.4.2.2.5.1.8.2 0-.3.1-.5 0-.8-.1-.2-.3-.4-.4-.6-.4-1-.9-1.8-1.4-2.7z"/></g><g><path class="st0" d="M174.4 52.2c.2-.6.7-.9 1.3-.8h1.6c.5 0 .8-.2 1.1-.6.9-1.1 1.7-2.3 2.6-3.4.2-.2.3-.4.5-.7.2-.3.6-.4.9-.5h7.2c.9 0 1.5.3 2.1 1 .9 1.2 1.9 2.4 2.9 3.5.3.4.7.6 1.3.6 1 0 2 .1 2.9.6 1.3.7 2.1 1.7 2.3 3.2v2.6c-.1.4-.4.8-.9.8H198c-.3-2-1.9-3-3.3-3.1-.8 0-1.6.1-2.2.6-.9.6-1.4 1.5-1.6 2.5h-6.1c-.3-2-1.9-3-3.3-3.1-.8-.1-1.6.1-2.2.6-.9.6-1.5 1.5-1.7 2.6h-1.8c-.6 0-1.1-.2-1.3-.8-.1-1.9-.1-3.8-.1-5.6zm6-.9h5.2v-3.1h-2.5c-.3 0-.6.1-.7.4-.6.8-1.3 1.7-1.9 2.6l-.1.1zm7.3 0h4.7c-.7-.9-1.4-1.7-2.1-2.6-.2-.2-.4-.4-.7-.4h-1.9v3z"/><path class="st1" d="M180.4 51.3c0-.1.1-.1.1-.1.6-.9 1.3-1.7 1.9-2.6.2-.2.4-.4.7-.4h2.5v3.1h-5.2zM187.7 51.3v-2.8-.2h1.9c.3 0 .5.2.7.4.7.9 1.4 1.7 2.1 2.6h-4.7z"/><path class="st0" d="M194.4 61.4c-1.3 0-2.4-1-2.4-2.4 0-1.3 1-2.4 2.4-2.4 1.3 0 2.4 1.1 2.4 2.4 0 1.3-1.1 2.4-2.4 2.4zM181.1 61.4c-1.3 0-2.4-1-2.4-2.4 0-1.3 1.1-2.4 2.4-2.4 1.3 0 2.4 1.1 2.4 2.4-.1 1.3-1.1 2.4-2.4 2.4z"/></g><g><path class="st0" d="M393.4 62h-6v-7.5c-2.3-.7-4.3-1-6-1.9-2.9-1.5-4-4.1-4.1-7.3 0-1.2-.4-2.5-1.1-3.5-3.7-5.1-1.4-11.7 4.7-13.4.9-.2 1.8-.9 2.3-1.7 3.8-5.4 10.5-5.4 14.4-.1.6.8 1.6 1.5 2.6 1.8 5.9 1.7 8.1 8.4 4.4 13.3-.5.7-1.1 1.6-1.2 2.4-.5 7.1-2.2 8.9-9.8 9.9-.2 2.7-.2 5.3-.2 8zm-.3-10.9c5 1.1 8.7-2.1 7.9-6.3-.3-1.9.4-2.8 1.3-4.2 1-1.7 1.8-4.2 1.2-5.9-.6-1.7-2.7-3.4-4.6-4-1.6-.5-2.6-.9-3.3-2.4-1-2.2-2.9-3.2-5.3-3.2-2.5 0-4.6 1-5.5 3.3-.6 1.6-1.5 2-3.1 2.3-5.2 1-7.1 6.6-3.5 10.2 1.3 1.3 1.6 2.5 1.3 4.2-.6 3.3 2.1 6.5 5.5 6.8 1.7.2 2.5-.5 1.8-2.1-.8-1.8-1.9-3.4-3-5.4 2.7-2.9 3.2 1.5 5 1.8.5-1.5-.8-4.8 3.1-3.5.1 1.2.2 2.3.4 3.4 1.7-.6 2.2-4.6 4.7-1.8-1.6 2.3-2.7 4.5-3.9 6.8z"/><path class="st1" d="M393.1 51.1c1.2-2.3 2.4-4.5 3.7-7-2.5-2.8-3 1.2-4.7 1.8-.1-1.1-.2-2.2-.4-3.4-3.9-1.3-2.6 2-3.1 3.5-1.8-.3-2.3-4.7-5-1.8 1.1 2 2.2 3.6 3 5.4.7 1.6-.1 2.3-1.8 2.1-3.3-.3-6-3.5-5.5-6.8.3-1.8.1-2.9-1.3-4.2-3.6-3.6-1.6-9.2 3.5-10.2 1.5-.3 2.4-.7 3.1-2.3.9-2.3 3-3.3 5.5-3.3 2.4 0 4.3 1.1 5.3 3.2.7 1.6 1.7 1.9 3.3 2.4 1.8.6 4 2.3 4.6 4 .6 1.7-.2 4.3-1.2 5.9-.9 1.4-1.6 2.4-1.3 4.2 1 4.5-2.7 7.7-7.7 6.5z"/></g><g><path class="st0" d="M376.3 61.7h-4.4v-5.5c-1.7-.5-3.1-.7-4.4-1.4-2.1-1.1-2.9-3-3-5.3 0-.9-.3-1.8-.8-2.5-2.7-3.7-1-8.5 3.4-9.7.6-.2 1.3-.7 1.7-1.2 2.8-3.9 7.6-3.9 10.4 0 .4.6 1.2 1.1 1.9 1.3 4.2 1.2 5.9 6.1 3.2 9.6-.4.5-.8 1.1-.9 1.7-.4 5.1-1.6 6.5-7.1 7.2v5.8zm-.2-7.8c3.6.8 6.3-1.5 5.7-4.6-.2-1.3.3-2 .9-3 .8-1.2 1.3-3.1.9-4.3-.4-1.2-2-2.5-3.3-2.9-1.1-.4-1.9-.6-2.4-1.8-.7-1.6-2.1-2.3-3.8-2.3-1.8 0-3.3.7-4 2.4-.5 1.2-1.1 1.4-2.2 1.7-3.7.7-5.2 4.7-2.6 7.4 1 1 1.1 1.8.9 3.1-.4 2.4 1.5 4.7 4 4.9 1.2.1 1.8-.4 1.3-1.5-.6-1.3-1.4-2.5-2.2-3.9 1.9-2.1 2.3 1.1 3.6 1.3.4-1.1-.6-3.5 2.2-2.5.1.9.2 1.7.3 2.5 1.2-.4 1.6-3.3 3.4-1.3-1 1.5-1.9 3.1-2.7 4.8z"/><path class="st1" d="M376.1 53.9c.9-1.7 1.7-3.3 2.7-5.1-1.8-2-2.2.8-3.4 1.3-.1-.8-.2-1.6-.3-2.5-2.8-.9-1.9 1.4-2.2 2.5-1.3-.2-1.6-3.4-3.6-1.3.8 1.4 1.6 2.6 2.2 3.9.5 1.2 0 1.7-1.3 1.5-2.4-.2-4.4-2.5-4-4.9.2-1.3.1-2.1-.9-3.1-2.6-2.6-1.2-6.6 2.6-7.4 1.1-.2 1.8-.5 2.2-1.7.7-1.7 2.2-2.4 4-2.4 1.7 0 3.1.8 3.8 2.3.5 1.1 1.2 1.4 2.4 1.8 1.3.4 2.9 1.7 3.3 2.9.4 1.2-.1 3.1-.9 4.3-.6 1-1.2 1.7-.9 3 .6 3.4-2.1 5.7-5.7 4.9z"/></g><g><path class="st0" d="M212.6 60.3c.4-.2.3-.5.3-.8h-.8c-.4 0-.8-.1-1.1-.3-.1 0-.1-.2-.1-.2.2-.5.1-1.1.1-1.6 0-.4-.1-.9-.1-1.3v-.3h-.7c.6 1.3.7 2.5 0 3.8-.5.9-1.2 1.5-2.2 1.8-1.9.5-3.7-.3-4.5-2-.9-1.9-.1-4 1.6-4.9l.3.6c-.4.2-.7.6-1 .9-1 1.5-.5 3.6 1.1 4.4 1.8.9 4-.2 4.4-2.1.3-1.5-.5-3-1.9-3.5-.1 0-.2-.1-.3-.2-.3-.8-.7-1.6-1.1-2.4-.1.2-.2.4-.3.5v.2c.3.6.5 1.2.8 1.8.1.3.1.6-.1.7-.2.2-.5.2-.8 0-.1-.1-.2-.2-.2-.3-.3-.7-.7-1.5-1-2.2-.1-.2-.1-.4 0-.5.3-.5.5-1 .9-1.5.5-.7 1.2-1 2-.9.4 0 .9.5.9.9v3.3h2.7c.4 0 .7.3.7.7.1.7.2 1.4.2 2.1 0 .4.1.9.1 1.3v.6h.9c0 .5.1 1-.2 1.5-.1.2-.3.3-.5.4-.1 0-.2.1-.2.2-.2.4-.6.5-1 .4-.4-.1-.6-.5-.6-.9.1-.4.4-.7.8-.7.5-.1.7.1.9.5zm-.8 0c-.2 0-.3.1-.3.3 0 .2.1.3.3.3.2 0 .3-.1.3-.3 0-.2-.1-.3-.3-.3z"/><path class="st0" d="M207.5 55.7c.1-.2.2-.3.2-.5.8.2 1.6 1.1 1.7 2.1.1 1.2-.6 2.1-1.4 2.5-1.5.8-3.4-.2-3.6-1.9-.2-1 .2-1.8 1.1-2.5.1-.1.1-.1.2 0l.3.3c-.9.6-1.2 1.5-.9 2.3.2.7 1 1.5 2.1 1.4.8-.1 1.5-.6 1.7-1.4.1-.7-.3-1.8-1.4-2.3zM209.4 49.8c-.9.1-2-.7-2-2 0-1.1 1-1.9 1.9-2 1.1 0 2 .9 2.1 1.9 0 1.2-1 2.2-2 2.1z"/></g><g><path class="st0" d="M459 12.5v49.6h-3.3v-.4-39.1-9.1c0-1-.3-1.4-1.2-1.4h-20.3c-.9 0-1.1.3-1.1 1.1V24.5h.9c4.4 0 8.8.1 13.1 0 2.8-.1 4.6 2 4.6 4.6v33.1h-38.3v-.5-32.5c0-.5 0-1 .1-1.5.5-2 2.1-3.2 4.2-3.2h12v-.7-10.2c0-1.4.3-2.8 1.5-3.7.7-.5 1.5-.7 2.2-1.1h22.1c.7.4 1.5.7 2.2 1.2.7.5 1 1.5 1.3 2.5zm-10.7 49.1v-.8-27.3V29c0-.8-.4-1.2-1.1-1.2h-29.4c-.8 0-1.1.3-1.1 1.1v32.7h13.2V49.8h5v11.8h13.4z"/><path class="st1" d="M451.6 62.1V29c0-2.6-1.9-4.7-4.6-4.6-4.4.1-8.7 0-13.1 0h-.9v-.7-10.6c0-.9.3-1.1 1.1-1.1h20.3c.9 0 1.2.4 1.2 1.4V62c-1.3.1-2.6.1-4 .1zM446.3 16v5.1h5V16h-5zm-4.1 0h-4.9v5.1h4.9V16z"/><path class="st1" d="M448.3 61.6h-13.5V49.8h-5v11.8h-13.2v-.7-32c0-.8.3-1.1 1.1-1.1h29.4c.7 0 1.1.4 1.1 1.2v31.8c.1.2.1.5.1.8zm-22.6-24.7v-5.1h-5v5.1h5zm18.3-5h-5.1V37h5.1v-5.1zm-5.1 22.9h5.1v-5h-5.1v5zm-18.2-5v5h5.1v-4.6c0-.2-.3-.4-.4-.4h-4.7zm9.2-12.9h4.9v-5.1h-4.9v5.1zm-4.1 4h-5.1v4.9h5.1v-4.9zm18.1 4.9v-4.9h-5.1v4.9h5.1zm-9.1 0v-4.9h-4.9v4.9h4.9z"/><path class="st0" d="M446.3 16h5v5.1h-5V16zM442.2 16v5.1h-4.9V16h4.9zM425.7 36.9h-5v-5.1h5v5.1zM444 31.9V37h-5.1v-5.1h5.1zM438.9 54.8v-5h5.1v5h-5.1zM420.7 49.8h4.6c.2 0 .4.3.4.4v4.6h-5.1c.1-1.6.1-3.3.1-5zM429.9 36.9v-5.1h4.9v5.1h-4.9zM425.8 40.9v4.9h-5.1v-4.9h5.1zM443.9 45.8h-5.1v-4.9h5.1v4.9zM434.8 45.8h-4.9v-4.9h4.9v4.9z"/><g><path class="st0" d="M479.3 0h28.6v15.5h12.5v46.3h3.5v1.3h-64.4v-1.3h3.1V4.5h16.7V0zm12.4 15.4h12.8V2.9h-21.8v1.6h5.1v55.1h4.2v-8.7h4.2v8.7h3.9v-8.7h4.1v8.7h4v-8.7h4.1v8.7h4.9v-41h-25.4c-.1-1.1-.1-2-.1-3.2zm-25.3 8.2h17.4v-4.3h-17.4v4.3zm17.5 14.3h-17.4v4.3h17.4v-4.3zm0-23.4v-4.2h-17.4v4.2h17.4zm0 32.8h-17.4v4.3h17.4v-4.3zm-17.5-14.5h17.5v-4.3h-17.5v4.3zm6.5 22.5v5h5v-5h-5z"/><path class="st1" d="M491.7 15.4v3.2h25.4v43h-4.9V50.9h-4.1v10.7h-4V50.9H500v10.7h-3.9V50.9h-4.2v10.7h-4.2V4.5h-5.1V2.9h21.8v12.5h-12.7zM504 37.2v-4h-3.9v4h3.9zm8.1-4h-4v4h4v-4zm-20.1 0v4h4v-4h-4zm0 13.1h3.9v-4H492v4zm12 0v-4.1h-3.3c-.3 0-.7.4-.7.7-.1 1.1 0 2.2 0 3.4h4zm4.1-4.1v4.1h4v-3.4c0-.2-.4-.6-.7-.7h-3.3zm.1-17.6v4.1c1.1 0 2.2.1 3.2 0 .3 0 .8-.4.8-.7.1-1.1 0-2.2 0-3.4h-4zm-4.2 0h-4.1V28c0 .2.4.6.6.6 1.1.1 2.3 0 3.5 0v-4zm-12 4h3.9v-3.9H492v3.9zM466.4 23.6v-4.3h17.4v4.3h-17.4zM483.9 37.9v4.3h-17.4v-4.3h17.4z"/><path class="st1" d="M483.9 14.5h-17.4v-4.2h17.4v4.2zM483.9 47.3v4.3h-17.4v-4.3h17.4zM466.4 32.8v-4.3h17.5v4.3h-17.5zM472.9 55.3h5v7h-5v-7z"/><path class="st0" d="M504 37.2h-3.9v-4h3.9v4zM512.1 33.2v4h-4v-4h4zM492 33.2h4v4h-4v-4zM492 46.3v-4h3.9v4H492zM504 46.3h-4v-3.4c0-.2.4-.6.7-.7 1.1-.1 2.1 0 3.3 0v4.1zM508.1 42.2h3.3c.3 0 .7.4.7.7.1 1.1 0 2.2 0 3.4h-4v-4.1zM508.2 24.6h4c0 1.2.1 2.3 0 3.4 0 .3-.5.7-.8.7-1 .1-2 0-3.2 0v-4.1zM504 24.6v4h-3.5c-.2 0-.6-.4-.6-.6-.1-1.1 0-2.2 0-3.4h4.1zM492 28.6v-3.9h3.9v3.9H492z"/></g></g><g><path class="st0" d="M407.2 53.8h-.4V59.7c0 .7-.8 1.2-1.4.8-.4-.2-.5-.6-.5-1v-5.1c0-.2 0-.4-.2-.5-.2-.1-.3-.4-.4-.6-.3-.8-.6-1.6-.8-2.5-.2-1-.1-1.9.6-2.7.4-.4.8-.6 1.4-.6h3c.3 0 .6.1.8.3.6.3 1 .9 1.2 1.6.2.7-.1 1.4-.7 1.8-.5.3-1 .5-1.5.5h-1c-.3 0-.6-.4-.6-.7 0-.4.4-.6.8-.6.5 0 .9 0 1.4-.2.5-.1.5-.7.2-1.2v.7c0 .1-.1.2-.1.3-.3.1-.6.2-.9.2-.1-.4-.1-.8-.2-1.1 0-.2-.1-.2-.2-.2-.4.1-.8.1-1.2.2-.2 0-.4.1-.6.1.2 1.1.3 2.3.5 3.4.7-.1 1.3-.2 2-.3v-.6c.2 0 .5-.1.8-.1v7.9c0 .8-.6 1.3-1.3 1-.4-.1-.6-.4-.6-.9V54c-.1 0-.1-.1-.1-.2zm-2.3-4.7c-.3.7-.2 1.3 0 2v-2zM407.1 46.9c-1 .2-1.8-.9-1.7-1.7 0-.9.8-1.7 1.8-1.7s1.7.8 1.7 1.7c-.1 1-.8 1.7-1.8 1.7z"/></g><g><path class="st0" d="M532.1 51.2h-.8c-1.4 0-2.6-.5-3.5-1.5-1.1-1.1-1.6-2.4-1.6-3.9 0-.3-.1-.8-.3-.9-2.1-1.2-3.1-2.9-3-5.3.1-1.9 1-3.2 2.6-4.2.5-.3.8-.6.8-1.2-.1-2.2 1.5-4.4 3.5-5.1.2-.1.5-.3.5-.5.4-1.1 1-2.1 1.9-2.9 2.1-2 5.8-2.1 8-.5.4.3.6.3 1 .1 1.2-.8 2.4-1.1 3.9-1.2 3.6 0 6.4 3 6.3 6.6 0 .9.3 1.1.9 1.4 2.6 1.3 3.9 4.6 3.1 7.4-.6 2.1-2.1 3.5-4 4.3.8 3.9-2.6 9-8.9 7.1v10.4h-2V50.9c-.8.1-1.6.1-2.4.2v10.2H536v-.8-9.4c0-.7-.4-.9-.8-1-.4-.1-.8.5-.8 1V61.3h-2c-.3-3.2-.3-6.6-.3-10.1zm-3.7-16c.3.9 0 1.5-.9 1.6-1.3.2-2.1 1.1-2.5 2.2-.6 1.6.5 3.8 2.3 4.2 1.2.3 1.4.6 1.1 1.8-.4 1.4.2 2.9 1.6 3.8 1.2.7 2.7.6 3.8-.5 1-1 1.3-1 2.3 0 .9.9 2.1 1.2 3.3.7 1.2-.5 2-1.3 2.2-2.6.1-.5 0-1-.1-1.6-.2-.9.1-1.4 1-1.6 1.5-.3 2.6-1.9 2.6-3.3 0-1.3-1.3-2.9-2.6-3.1-1-.2-1.2-.7-1-1.7.7-2.5-1.2-4.4-3.3-4.3-.8 0-1.6.4-2.2 1-.9.9-1.2.9-2.2 0-1.1-1-2.3-1.2-3.6-.7-1.2.5-2 1.7-2.1 3.1.2.4.2.7.3 1zm6.3-5.4c.2.1.5 0 .6-.1 2.5-1.6 5.9-1 7.6 1.6.6.9.9 1.9.8 2.9-.1.6.1.9.7 1.1 2.5 1.2 3.6 4.9 2 7.5-.6.9-1.3 1.5-2.2 2-.2.1-.4.5-.4.8-.2 1-.4 2.1-.5 3.3.9.7 2.5.6 3.9-.2 1.8-1 2.6-3.2 2-5.2-.3-.9-.1-1.3.8-1.6 2.1-.6 3.5-2.3 3.6-4.2 0-2.3-1.4-3.9-3.5-4.5-.9-.2-1.2-.6-.9-1.5.9-2.7-.8-5.2-3.4-5.8-1.5-.3-2.8.2-3.9 1.3-.7.7-1.3.8-2.1 0-1.9-1.9-4.3-1.9-6.2-.3-.1.1-.2.1-.2.2-.3.4-.6.9-.8 1.3.7.7 1.4 1.1 2.1 1.4z"/><path class="st1" d="M528.2 34.2c.1.3.1.7.2 1 .3.9 0 1.5-.9 1.6-1.3.2-2.1 1.1-2.5 2.2-.6 1.6.5 3.8 2.3 4.2 1.2.3 1.4.6 1.1 1.8-.4 1.4.2 2.9 1.6 3.8 1.2.7 2.7.6 3.8-.5 1-1 1.3-1 2.3 0 .9.9 2.1 1.2 3.3.7 1.2-.5 2-1.3 2.2-2.6.1-.5 0-1-.1-1.6-.2-.9.1-1.4 1-1.6 1.5-.3 2.6-1.9 2.6-3.3 0-1.3-1.3-2.9-2.6-3.1-1-.2-1.2-.7-1-1.7.7-2.5-1.2-4.4-3.3-4.3-.8 0-1.6.4-2.2 1-.9.9-1.2.9-2.2 0-1.1-1-2.3-1.2-3.6-.7-1.1.6-1.9 1.8-2 3.1z"/><path class="st1" d="M532.5 28.8c.8.4 1.5.8 2.3 1.1.2.1.5 0 .6-.1 2.5-1.6 5.9-1 7.6 1.6.6.9.9 1.9.8 2.9-.1.6.1.9.7 1.1 2.5 1.2 3.6 4.9 2 7.5-.6.9-1.3 1.5-2.2 2-.2.1-.4.5-.4.8-.2 1-.4 2.1-.5 3.3.9.7 2.5.6 3.9-.2 1.8-1 2.6-3.2 2-5.2-.3-.9-.1-1.3.8-1.6 2.1-.6 3.5-2.3 3.6-4.2 0-2.3-1.4-3.9-3.5-4.5-.9-.2-1.2-.6-.9-1.5.9-2.7-.8-5.2-3.4-5.8-1.5-.3-2.8.2-3.9 1.3-.7.7-1.3.8-2.1 0-1.9-1.9-4.3-1.9-6.2-.3-.1.1-.2.1-.2.2-.5.7-.8 1.1-1 1.6z"/></g><g><path class="st0" d="M576 55.7h-1.3c.6-1.9 1.2-3.8 1.7-5.7 0 0-.1 0-.1-.1-.1.1-.2.2-.2.3-.3.8-.5 1.6-.7 2.4 0 .1-.1.2-.1.3-.1.2-.4.3-.6.3s-.4-.3-.4-.5v-.3c.3-1 .6-2 .9-3.1.2-.5.4-1.1 1.1-1.1.9-.1 1.8-.1 2.7 0 .6 0 .9.6 1.1 1.1.2.8.5 1.5.7 2.3.1.3.2.5.2.8.1.4 0 .7-.4.8-.3.1-.6-.1-.7-.5-.3-.8-.5-1.7-.8-2.5 0-.1-.1-.2-.2-.3 0 0-.1 0-.1.1.6 1.9 1.1 3.8 1.7 5.7h-1c-.3 0-.4.1-.4.4v3.6c0 .2-.1.4-.2.6-.1.3-.4.3-.7.3-.3 0-.5-.2-.6-.5 0-.2-.1-.3-.1-.5V56c0-.1-.1-.2-.1-.3 0 .1-.1.2-.1.3v4c-.1.3-.3.5-.7.6-.3 0-.6-.2-.7-.5 0-.1-.1-.3-.1-.5.2-1.3.2-2.5.2-3.9zM571.8 58.9c-.2-.2-.4-.5-.6-.7-.8.4-1.6.2-2.3-.2-.2-.1-.8.2-.8.5 0 .1.1.2.2.2.4.3.6.7.5 1.1-.1.4-.5.7-.9.7s-.8-.3-1-.7c-.1-.4 0-.8.5-1.1.1-.1.2-.2.2-.3 0-.2.1-.3.2-.5 1.3-1 2.5-2.1 3.8-3.1.3-.2.5-.5.8-.8.2-.2.4-.4.6-.5.4-.3.9-.1 1.2.3.2.4.1 1-.3 1.2h-.2s-.1-.2 0-.2c0-.1.2-.2.2-.3 0-.2 0-.4-.1-.5-.1-.1-.4-.1-.5-.1-.4.3-.7.7-1.1 1v.2c.1.8 0 1.6-.3 2.4v.3c.1.2.3.3.4.4.2.2.3.3.6.3.4 0 .7.3.8.8.1.4-.1.8-.5 1-.4.2-.8.2-1.1-.1-.3-.3-.4-.7-.2-1.1-.1 0-.1-.1-.1-.2zM571.3 53.6c0 .8-.6 1.4-1.4 1.4-.8 0-1.4-.6-1.4-1.4 0-.8.7-1.5 1.4-1.5.8 0 1.4.7 1.4 1.5zM577.6 44.4c.9 0 1.7.8 1.7 1.7 0 .9-.8 1.8-1.8 1.7-.9 0-1.7-.8-1.7-1.7.1-.9.9-1.7 1.8-1.7zM569.1 56.5c-.6.5-1.1.9-1.7 1.4-.3.2-.6.2-.8 0-.2-.2-.1-.5.1-.7.3-.3.6-.5.9-.8.6-.5 1-.4 1.5.1z"/></g><g><path class="st0" d="M9.9 55c0 .5-.1.9-.1 1.4 0 .2-.1.4-.1.6-.4 1-.8 2-1.1 2.9-.1.4-.4.6-.8.7-.7.1-1.3-.5-1-1.2.2-.5.4-1.1.6-1.6.5-1.1.7-2.2.7-3.4v-.5c0-.3 0-.6-.1-.9-.1-.2-.1-.6-.1-.8.2-.9.4-1.7.5-2.6 0 0-.1 0-.1-.1-.3.5-.8 1-1.2 1.4-.2.2-.3.4-.5.5-.3.3-.7.3-1 .1-.3-.2-.4-.7-.1-1 1.1-1.3 2.2-2.6 3.9-3.2 1.2-.5 1.9-.3 2.7.7.7.8 1.4 1.6 2.2 2.4.3.3.7.5 1 .8.3.2.5.5.4.9 0 .1.1.2.2.3 1.2 1.2 2.4 2.5 3.7 3.7l.1.1-.3.3c-.4-.4-.8-.7-1.1-1.1-.9-.9-1.8-1.8-2.7-2.8-.1-.1-.2-.2-.4-.1-.2 0-.5 0-.7-.2-.9-.6-1.7-1.2-2.3-2 0-.1-.1-.1-.1-.2 0 0-.1 0-.1.1-.2.9-.3 1.7-.6 2.6-.1.4 0 .8.2 1.1 1 1.3 1.6 2.8 1.9 4.4.1.4.2.7.3 1.1.1.6-.1 1-.6 1.2-.5.1-1-.1-1.2-.7-.3-.9-.5-1.7-.7-2.6-.3-.9-.9-1.5-1.4-2.3.1 0 0 0 0 0z"/><path class="st0" d="M20.3 58.9h-2.1c.2.3.3.6.5.9.1.2.1.4-.1.5-.2.1-.4 0-.5-.2-.2-.3-.4-.7-.6-1.1-.2.4-.4.7-.5 1-.1.2-.3.4-.5.3-.3-.1-.2-.4-.1-.6 0-.1.1-.1.1-.2.5-.6.4-1.4.4-2.1 0-.1-.1-.2-.2-.3-.2-.1-.4-.3-.5-.4-.1-.1-.1-.3 0-.4 0-.1.3 0 .4-.1h.1c.4.5 1 .6 1.6.5 1-.2 1.7.4 2.5.9.1 0 .1.2.1.2v2.1c0 .2-.1.4-.3.4-.3 0-.4-.2-.3-.4v-1zM11.6 43.5c1 0 1.9.8 1.9 1.9 0 1-.9 1.9-1.9 1.9-1 0-1.9-.9-1.9-1.9 0-1.1.9-1.9 1.9-1.9zM21.1 57.4c-.5-.3-1-.6-1.5-.8l.6-.9c.2-.3.3-.6.5-.9.1-.1.2-.2.3-.2.1 0 .3.2.3.3 0 .7.5 1 1 1.4.2.2.6.2.5.6-.1.3-.4.4-.8.4h-.1c-.4-.2-.6-.1-.8.1zM134.6 50c-2.3-.3-2.3-.3-3.3-1.4L147 32.9c5.1 5.2 10.3 10.4 15.6 15.7-.5 1.1-1.6 1.5-3.1 1.2v11.1h-24.8c-.1-3.6-.1-7.2-.1-10.9zM148 61.3v-3.1-7.6c0-.6.2-.9.8-.8h4.6c.5 0 .6.2.6.7v10.9h3.5V48.8c0-.3-.3-.7-.5-1-3.1-3.2-6.3-6.3-9.4-9.4l-.6-.6c-3.4 3.5-6.9 6.9-10.3 10.3-.2.2-.2.6-.3.9V61.4c3.9-.1 7.7-.1 11.6-.1zM157.9 42.8c-1.3-1.4-2.8-2.7-4-4.1-.4-.5-.2-1.4-.3-2.3h4.2c.1 0 .4.4.4.6v5.7c-.1 0-.2 0-.3.1z"/><path class="st1" d="M148 61.3h-11.6v-7.1-5.3c0-.3.1-.7.3-.9 3.4-3.4 6.8-6.9 10.3-10.3.3.2.5.4.6.6l9.4 9.4c.3.3.5.6.5 1v12.6H154v-3.7-7.2c0-.5-.2-.7-.6-.7h-4.6c-.7 0-.8.2-.8.8v10.8zm-8.2-7h4.6v-4c0-.2-.4-.5-.6-.5-1.1-.1-2.3 0-3.4 0-.5 0-.6.2-.6.7.1 1.2 0 2.4 0 3.8z"/><path class="st0" d="M139.8 54.3v-3.9c0-.5.1-.7.6-.7h3.4c.2 0 .5.3.6.5v4c-1.5.1-3 .1-4.6.1z"/><g><path class="st0" d="M97.1 60.8V37.3h-3.4c.2-.9.3-1.6.6-2.3l4.5-8.7c.3-.5.6-.7 1.2-.7h15.6c.5 0 1 0 1.5-.1v-2.9h4.5v4.6h.3c0-.3.1-.7.1-1 0-.5.2-.7.7-.6 1.8 0 3.5 0 5.3.1.3 0 .7.3.9.5 1.6 3 3.2 6.1 4.7 9.2.3.5.3 1.1.5 1.8h-3.4v23.5c-11.3.1-22.4.1-33.6.1zm31.2-23.4H99.2v23.3h11.5V49.5h6.3v11.3h11.4c-.1-7.2-.1-16.3-.1-23.4z"/><path class="st1" d="M128.3 37.4v23.4h-11.4V49.5h-6.3v11.2H99.1V37.4h29.2zm-7.9 16.8h4.8v-4.7h-4.8v4.7zm4.8-14.5h-4.3c-.2 0-.5.3-.5.4v4.3h4.8v-4.7zm-13.8 4.7h4.8v-4.1c0-.2-.4-.6-.7-.6-1.4-.1-2.7 0-4.1 0v4.7zm-4.3.1v-4.7h-4.8V44c0 .2.4.5.6.5h4.2zm-.1 9.7v-4.9h-4.2c-.2 0-.5.4-.5.6-.1 1.2-.1 2.5 0 3.7 0 .2.4.6.6.6 1.3.1 2.7 0 4.1 0z"/><path class="st0" d="M120.4 54.2v-4.7h4.8v4.7h-4.8zM125.2 39.7v4.8h-4.8v-4.3c0-.1.3-.4.5-.4 1.4-.1 2.8-.1 4.3-.1zM111.4 44.4v-4.7h4.1c.2 0 .6.4.7.6.1 1.3 0 2.7 0 4.1h-4.8zM107.1 44.5h-4.2c-.2 0-.6-.3-.6-.5-.1-1.4 0-2.8 0-4.2h4.8v4.7zM107 54.2h-4.1c-.2 0-.6-.4-.6-.6-.1-1.2-.1-2.5 0-3.7 0-.2.4-.5.5-.6h4.2v4.9z"/></g><g><path class="st0" d="M74.9 57.9v-5.6c0-.1.1-.3.1-.4.2-.7.6-1.1 1.3-1.4.3-.1.4-.2.5-.5.4-1.2.9-2.4 1.4-3.5.4-1.1 1.1-1.6 2.4-1.7h8c1.2 0 1.9.5 2.4 1.7.4 1 .8 2 1.1 3 .2.5.3 1 1 1.2.1 0 .3.2.4.3.3.4.5.8.7 1.2v5.7h-1.5v.9c0 .4 0 .8-.1 1.2-.1.9-1.1 1.4-1.9 1-.7-.3-.9-.8-.9-1.5V58H79.4v1.9c0 .6-.4 1-1 1.2-.5.2-1 .1-1.4-.3-.4-.4-.5-.8-.5-1.4v-1.5h-1.6zm15.8-7.4c-.4-1.1-.8-2.2-1.2-3.2-.2-.6-.4-.8-1.1-.8h-7.8c-.7 0-.9.1-1.1.8-.4 1-.7 1.9-1.1 2.9 0 .1-.1.2-.1.3h12.4zm-12.8 4.3c.7 0 1.3-.6 1.3-1.3 0-.7-.6-1.4-1.3-1.4-.7 0-1.3.6-1.3 1.3 0 .7.6 1.4 1.3 1.4zm14.5-1.4c0-.7-.6-1.4-1.3-1.4-.7 0-1.3.6-1.3 1.4 0 .7.6 1.3 1.3 1.3.7.1 1.3-.5 1.3-1.3z"/><path class="st1" d="M90.7 50.5H78.3c0-.1.1-.2.1-.3.4-1 .7-1.9 1.1-2.9.2-.6.4-.8 1.1-.8h7.8c.7 0 .9.1 1.1.8.4 1 .8 2.1 1.2 3.2zM77.9 54.8c-.7 0-1.3-.6-1.3-1.4 0-.7.6-1.3 1.3-1.3.7 0 1.3.6 1.3 1.4 0 .7-.6 1.3-1.3 1.3zM92.4 53.4c0 .7-.6 1.4-1.3 1.4-.7 0-1.3-.6-1.3-1.3 0-.7.6-1.4 1.3-1.4.7 0 1.3.6 1.3 1.3z"/></g><g><path class="st0" d="M24 51.5h-.8c-1.4 0-2.6-.5-3.5-1.5-1.1-1.1-1.6-2.4-1.6-3.9 0-.3-.1-.8-.3-.9-2.1-1.2-3.1-2.9-3-5.3.1-1.9 1-3.2 2.6-4.2.5-.3.8-.6.8-1.2-.1-2.2 1.5-4.4 3.5-5.1.2-.1.5-.3.5-.5.4-1.1 1-2.1 1.9-2.9 2.1-2 5.8-2.1 8-.5.4.3.6.3 1 .1 1.2-.8 2.4-1.1 3.9-1.2 3.6 0 6.4 3 6.3 6.6 0 .9.3 1.1.9 1.4 2.6 1.3 3.9 4.6 3.1 7.4-.6 2.1-2.1 3.5-4 4.3.8 3.9-2.6 9-8.9 7.1v10.4h-2V51.2c-.8.1-1.6.1-2.4.2v10.2h-2.1v-.8-9.4c0-.7-.4-.9-.8-1-.4-.1-.8.5-.8 1V61.6h-2c-.3-3.3-.3-6.7-.3-10.1zm-3.8-16c.3.9 0 1.5-.9 1.6-1.3.2-2.1 1.1-2.5 2.2-.6 1.6.5 3.8 2.3 4.2 1.2.3 1.4.6 1.1 1.8-.4 1.4.2 2.9 1.6 3.8 1.2.7 2.7.6 3.8-.5 1-1 1.3-1 2.3 0 .9.9 2.1 1.2 3.3.7 1.2-.5 2-1.3 2.2-2.6.1-.5 0-1-.1-1.6-.2-.9.1-1.4 1-1.6 1.5-.3 2.6-1.9 2.6-3.3 0-1.3-1.3-2.9-2.6-3.1-1-.2-1.2-.7-1-1.7.7-2.5-1.2-4.4-3.3-4.3-.8 0-1.6.4-2.2 1-.9.9-1.2.9-2.2 0-1.1-1-2.3-1.2-3.6-.7-1.2.5-2 1.7-2.1 3.1.2.3.2.6.3 1zm6.3-5.5c.2.1.5 0 .6-.1 2.5-1.6 5.9-1 7.6 1.6.6.9.9 1.9.8 2.9-.1.6.1.9.7 1.1 2.5 1.2 3.6 4.9 2 7.5-.6.9-1.3 1.5-2.2 2-.2.1-.4.5-.4.8-.2 1-.4 2.1-.5 3.3.9.7 2.5.6 3.9-.2 1.8-1 2.6-3.2 2-5.2-.3-.9-.1-1.3.8-1.6 2.1-.6 3.5-2.3 3.6-4.2 0-2.3-1.4-3.9-3.5-4.5-.9-.2-1.2-.6-.9-1.5.9-2.7-.8-5.2-3.4-5.8-1.5-.3-2.8.2-3.9 1.3-.7.7-1.3.8-2.1 0-1.9-1.9-4.3-1.9-6.2-.3-.1.1-.2.1-.2.2-.3.4-.6.9-.8 1.3.7.8 1.4 1.1 2.1 1.4z"/><path class="st1" d="M20 34.5c.1.3.1.7.2 1 .3.9 0 1.5-.9 1.6-1.3.2-2.1 1.1-2.5 2.2-.6 1.6.5 3.8 2.3 4.2 1.2.3 1.4.6 1.1 1.8-.4 1.4.2 2.9 1.6 3.8 1.2.7 2.7.6 3.8-.5 1-1 1.3-1 2.3 0 .9.9 2.1 1.2 3.3.7 1.2-.5 2-1.3 2.2-2.6.1-.5 0-1-.1-1.6-.2-.9.1-1.4 1-1.6 1.5-.3 2.6-1.9 2.6-3.3 0-1.3-1.3-2.9-2.6-3.1-1-.2-1.2-.7-1-1.7.7-2.5-1.2-4.4-3.3-4.3-.8 0-1.6.4-2.2 1-.9.9-1.2.9-2.2 0-1.1-1-2.3-1.2-3.6-.7-1.1.5-1.9 1.7-2 3.1z"/><path class="st1" d="M24.3 29c.8.4 1.5.8 2.3 1.1.2.1.5 0 .6-.1 2.5-1.6 5.9-1 7.6 1.6.6.9.9 1.9.8 2.9-.1.6.1.9.7 1.1 2.5 1.2 3.6 4.9 2 7.5-.6.9-1.3 1.5-2.2 2-.2.1-.4.5-.4.8-.2 1-.4 2.1-.5 3.3.9.7 2.5.6 3.9-.2 1.8-1 2.6-3.2 2-5.2-.3-.9-.1-1.3.8-1.6 2.1-.6 3.5-2.3 3.6-4.2 0-2.3-1.4-3.9-3.5-4.5-.9-.2-1.2-.6-.9-1.5.9-2.7-.8-5.2-3.4-5.8-1.5-.3-2.8.2-3.9 1.3-.7.7-1.3.8-2.1 0-1.9-1.9-4.3-1.9-6.2-.3-.1.1-.2.1-.2.2-.5.7-.8 1.2-1 1.6z"/></g><g><path class="st0" d="M66.8 56.2c-.1.3-.2.7-.2 1 0 .9.1 1.8.2 2.6v.3c.1.4-.2.8-.6.9-.4.1-.8-.2-.9-.6-.2-.9-.3-1.7-.4-2.6-.1-.8 0-1.5.3-2.2.1-.4.2-.7.3-1.1.1-.4.3-.8 0-1.2-.1-.1-.1-.3-.1-.4 0-.7-.1-1.4-.1-2.1 0-.1.1-.2.1-.3.4-.6.7-1.3.8-2.1.1-.5-.2-.8-.6-.9-.4-.1-.8.1-1 .5v.2c-.1-.6.6-1.2 1.3-1 .2.1.5.3.7.5 1 1.5 1.6 3.2 1.7 5 0 .4 0 .8-.3 1.1v.3l.3 1.5c.1.3.2.7.4 1 .5.9 1 1.8 1.4 2.7.3.5 0 1-.5 1.1-.3.1-.6-.1-.8-.4-.6-1.1-1.2-2.1-1.7-3.2-.1-.1-.1-.3-.3-.6.1 0 0 0 0 0z"/><path class="st0" d="M66.1 45.5c0 1-.8 1.9-1.9 1.9-1.1 0-1.9-.9-1.9-1.9 0-1 .9-1.9 1.9-1.9 1 0 1.9.8 1.9 1.9zM62.2 52.3c-.5 0-.8-.3-.9-.7 0-.4.2-.8.7-.8 1.5-.2 2.4-1 2.8-2.7.1-.4.3-.6.7-.6.4 0 .6.2.7.5v.3c-.1 1.6-1.5 3.3-3.1 3.8-.3.1-.6.2-.9.2zM61.2 51.9l.2.2.1.1c-.1.4-.2.7-.2 1l-1.5 7.5v.2c-.1.1-.2.1-.3.2-.1-.1-.2-.2-.2-.3.1-.6.2-1.1.3-1.6.4-2.2.8-4.4 1.3-6.5.1-.3.2-.5.3-.8zM62.2 52.4c.1 0 .3 0 .5-.1 0 .2 0 .4-.1.6-.1.2-.3 0-.4-.2v-.3z"/></g><g><path class="st0" d="M162.5 61v-6.8l-.9-1.4-.8 1.4V61zM165.5 61v-6.8l-.9-1.4-.9 1.4V61zM168.4 61v-6.8l-.8-1.4-.9 1.4V61zM171.4 61v-6.8l-.9-1.4-.9 1.4V61z"/><path class="st0" d="M160.3 55.1H172v1h-11.7zM160.3 58.7H172v1h-11.7z"/></g></g><path class="st0" d="M0 60.4h584.1v3.1H0z"/></svg>