<svg id="Layer_1" xmlns="http://www.w3.org/2000/svg" viewBox="0 0 783 73"><style>.st0{fill:#82BC00;} .st1{fill:#E3EEC5;} .st2{fill:#FFFFFF;}</style><path class="st0" d="M216.8 70.5h-5.3v-6.6c-2-.6-3.8-.9-5.3-1.6-2.5-1.3-3.5-3.6-3.6-6.4 0-1-.4-2.2-1-3-3.2-4.4-1.2-10.3 4.1-11.7.8-.2 1.6-.8 2-1.5 3.3-4.7 9.2-4.7 12.5-.1.5.7 1.4 1.3 2.2 1.6 5.1 1.5 7.1 7.3 3.9 11.6-.5.6-1 1.4-1.1 2.1-.5 6.2-2 7.8-8.6 8.7.2 2.2.2 4.5.2 6.9zm-.2-9.5c4.4 1 7.6-1.8 6.9-5.5-.3-1.6.3-2.4 1.1-3.7.9-1.4 1.6-3.7 1.1-5.2s-2.4-3-4-3.5c-1.4-.5-2.2-.8-2.9-2.1-.9-1.9-2.5-2.8-4.6-2.8-2.2 0-4 .9-4.8 2.9-.6 1.4-1.3 1.7-2.7 2-4.5.9-6.2 5.7-3.1 8.9 1.2 1.2 1.4 2.1 1.1 3.7-.5 2.9 1.9 5.6 4.8 5.9 1.5.1 2.2-.5 1.5-1.9-.7-1.6-1.7-3-2.7-4.7 2.4-2.5 2.8 1.3 4.3 1.6.4-1.3-.7-4.2 2.7-3l.3 3c1.5-.5 2-4 4.1-1.5-1.1 2-2.1 3.9-3.1 5.9z"/><path class="st1" d="M216.6 61c1.1-2 2.1-3.9 3.2-6.1-2.1-2.4-2.6 1-4.1 1.5l-.3-3c-3.4-1.1-2.2 1.7-2.7 3-1.6-.3-2-4.1-4.3-1.6 1 1.7 1.9 3.2 2.7 4.7.6 1.4-.1 2-1.5 1.9-2.9-.3-5.3-3-4.8-5.9.3-1.5.1-2.5-1.1-3.7-3.1-3.2-1.4-8 3.1-8.9 1.3-.3 2.1-.6 2.7-2 .8-2 2.6-2.9 4.8-2.9 2.1 0 3.8.9 4.6 2.8.6 1.4 1.5 1.7 2.9 2.1 1.6.5 3.5 2 4 3.5s-.2 3.7-1.1 5.2c-.8 1.2-1.4 2.1-1.1 3.7.5 3.9-2.7 6.7-7 5.7z"/><path class="st0" d="M198.9 70.5h-4.3v-5.4c-1.6-.5-3.1-.7-4.3-1.3-2-1.1-2.8-2.9-2.9-5.2 0-.8-.3-1.8-.8-2.5-2.6-3.6-1-8.3 3.3-9.5.6-.2 1.3-.7 1.7-1.2 2.7-3.8 7.5-3.9 10.2 0 .4.6 1.1 1.1 1.8 1.3 4.2 1.2 5.8 6 3.1 9.5-.4.5-.8 1.1-.9 1.7-.4 5.1-1.6 6.4-7 7.1.1 1.7.1 3.6.1 5.5zm-.2-7.7c3.6.8 6.2-1.5 5.6-4.5-.2-1.3.3-2 .9-3 .7-1.2 1.3-3 .9-4.2-.4-1.2-1.9-2.4-3.2-2.9-1.1-.4-1.8-.6-2.3-1.7-.7-1.5-2-2.3-3.8-2.3-1.8 0-3.3.7-3.9 2.3-.5 1.1-1.1 1.4-2.2 1.6-3.7.7-5.1 4.7-2.5 7.2 1 1 1.1 1.7.9 3-.4 2.4 1.5 4.6 3.9 4.8 1.2.1 1.8-.4 1.2-1.5-.6-1.3-1.4-2.4-2.2-3.9 1.9-2.1 2.3 1.1 3.5 1.3.4-1.1-.6-3.4 2.2-2.5.1.8.2 1.7.3 2.4 1.2-.4 1.6-3.3 3.3-1.3-1 2-1.8 3.5-2.6 5.2z"/><path class="st1" d="M198.7 62.8c.9-1.7 1.7-3.2 2.6-5-1.7-2-2.1.8-3.3 1.3l-.3-2.4c-2.8-.9-1.8 1.4-2.2 2.5-1.3-.2-1.6-3.3-3.5-1.3.8 1.4 1.6 2.6 2.2 3.9.5 1.1 0 1.6-1.2 1.5-2.4-.2-4.3-2.5-3.9-4.8.2-1.3.1-2-.9-3-2.5-2.6-1.2-6.5 2.5-7.2 1.1-.2 1.7-.5 2.2-1.6.7-1.6 2.1-2.3 3.9-2.3 1.7 0 3.1.7 3.8 2.3.5 1.1 1.2 1.4 2.3 1.7 1.3.4 2.8 1.7 3.2 2.9.4 1.2-.1 3-.9 4.2-.6 1-1.1 1.7-.9 3 .5 2.8-2.1 5.1-5.6 4.3z"/><path class="st0" d="M764.3 38.8c-.7.3-1.3.5-2.2.8 2.5-4 4.8-7.9 6.2-12.7 1.5 4.8 3.7 8.9 6.4 12.8-.9-.4-1.5-.7-2.2-1l-.2.2c1.4 3 2.9 6 4.4 9.2l-2.2-1.1 4.1 8.2c-.8-.3-1.4-.6-2.1-.8 0 .1-.1.1-.1.2 1.2 2.1 2.4 4.2 3.7 6.5-7.8 2.4-15.6 2.4-23.4 0 1.3-2.2 2.5-4.4 3.8-6.8-.9.3-1.5.6-2.4 1 1.4-2.7 2.6-5.3 3.9-7.9 0-.1-.1-.1-.1-.2-.6.3-1.2.5-1.9.9.8-1.7 1.6-3.3 2.3-4.9.6-1.3 1.2-2.5 1.8-3.8.1-.1.1-.4.2-.6h.1l-.1-.1v.1zM771.5 69.2h-6.6c.5-.8 1-1.5 1.3-2.3.3-.8.2-1.8.3-2.8h2.5c.1 0 .3.2.4.3.8 1.6 1.4 3.2 2.1 4.8zM381.3 48.2c-.5.2-.9.4-1.5.6 1.7-2.7 3.3-5.4 4.3-8.8 1 3.3 2.6 6.1 4.4 8.9-.6-.3-1.1-.5-1.5-.7l-.1.1c1 2.1 2 4.1 3 6.3-.5-.3-1-.5-1.5-.7 1 1.9 1.8 3.8 2.8 5.7-.5-.2-1-.4-1.4-.6l-.1.1c.8 1.5 1.6 2.9 2.5 4.5-5.4 1.6-10.7 1.7-16.1 0 .9-1.5 1.7-3 2.6-4.7-.6.2-1.1.4-1.6.7.9-1.9 1.8-3.7 2.7-5.4l-.1-.1c-.4.2-.8.4-1.3.6.6-1.2 1.1-2.3 1.6-3.4.4-.9.8-1.7 1.3-2.6-.1-.2-.1-.3 0-.5zM386.2 69.2h-4.5c.3-.5.7-1 .9-1.6.2-.6.2-1.3.2-1.9h1.7c.1 0 .2.1.2.2.6 1.1 1.1 2.2 1.5 3.3zM228 65.9v-5.6c0-.1.1-.3.1-.4.2-.7.6-1.1 1.3-1.4.3-.1.4-.2.5-.5.4-1.2.9-2.4 1.4-3.5.4-1.1 1.1-1.6 2.4-1.7h8c1.2 0 1.9.5 2.4 1.7.4 1 .8 2 1.1 3 .2.5.3 1 1 1.2.1 0 .3.2.4.3.3.4.5.8.7 1.2v5.7h-1.5v.9c0 .4 0 .8-.1 1.2-.1.9-1.1 1.4-1.9 1-.7-.3-.9-.8-.9-1.5V66h-10.4v1.9c0 .6-.4 1-1 1.2-.5.2-1 .1-1.4-.3-.4-.4-.5-.8-.5-1.4v-1.5H228zm15.9-7.4c-.4-1.1-.8-2.2-1.2-3.2-.2-.6-.4-.8-1.1-.8h-7.8c-.7 0-.9.1-1.1.8-.4 1-.7 1.9-1.1 2.9 0 .1-.1.2-.1.3h12.4zm-12.8 4.3c.7 0 1.3-.6 1.3-1.3 0-.7-.6-1.4-1.3-1.4-.7 0-1.3.6-1.3 1.3-.1.7.5 1.4 1.3 1.4zm14.5-1.4c0-.7-.6-1.4-1.3-1.4-.7 0-1.3.6-1.3 1.4 0 .7.6 1.3 1.3 1.3.7.1 1.3-.5 1.3-1.3z"/><path class="st1" d="M243.9 58.5h-12.4c0-.1.1-.2.1-.3.4-1 .7-1.9 1.1-2.9.2-.6.4-.8 1.1-.8h7.8c.7 0 .9.1 1.1.8.4 1 .8 2.1 1.2 3.2zM231.1 62.8c-.7 0-1.3-.6-1.3-1.4 0-.7.6-1.3 1.3-1.3.7 0 1.3.6 1.3 1.4 0 .7-.6 1.3-1.3 1.3zM245.6 61.4c0 .7-.6 1.4-1.3 1.4-.7 0-1.3-.6-1.3-1.3 0-.7.6-1.4 1.3-1.4.6 0 1.3.6 1.3 1.3z"/><path class="st0" d="M738.3 55h17.8v16.2h-17.8z"/><path class="st1" d="M740.8 57.9h3.2v3.2h-3.2zM745.6 57.9h3.2v3.2h-3.2zM750.4 57.9h3.2v3.2h-3.2zM740.8 63.2h3.2v6.3h-3.2zM745.6 63.2h3.2v6.3h-3.2zM750.4 63.2h3.2v6.3h-3.2z"/><path class="st0" d="M757.3 56H737l10.2-10.1zM645.4 31.1h11.4v9.2h-11.4z"/><path class="st0" d="M658.3 31.6h-14.5l7.3-6.3z"/><circle class="st1" cx="747.2" cy="52.9" r="1.9"/><circle class="st1" cx="651.1" cy="34.4" r="2.7"/><path class="st0" d="M714 25.8h22V70h-22z"/><path class="st1" d="M716.2 28.8h2.3v3.7h-2.3zM721.2 28.8h2.3v3.7h-2.3zM726.2 28.8h2.3v3.7h-2.3zM731.2 28.8h2.3v3.7h-2.3zM716.2 35h2.3v3.7h-2.3zM721.2 35h2.3v3.7h-2.3zM726.2 35h2.3v3.7h-2.3zM731.2 35h2.3v3.7h-2.3zM716.2 41.2h2.3v3.7h-2.3zM721.2 41.2h2.3v3.7h-2.3zM726.2 41.2h2.3v3.7h-2.3zM731.2 41.2h2.3v3.7h-2.3zM716.2 47.4h2.3v3.7h-2.3zM721.2 47.4h2.3v3.7h-2.3zM726.2 47.4h2.3v3.7h-2.3zM731.2 47.4h2.3v3.7h-2.3zM716.2 53.6h2.3v3.7h-2.3zM721.2 53.6h2.3v3.7h-2.3zM726.2 53.6h2.3v3.7h-2.3zM731.2 53.6h2.3v3.7h-2.3zM716.2 59.8h2.3v3.7h-2.3zM721.2 59.8h2.3v3.7h-2.3zM726.2 59.8h2.3v3.7h-2.3zM731.2 59.8h2.3v3.7h-2.3zM716.2 66h2.3v3.7h-2.3zM721.2 66h2.3v3.7h-2.3zM726.2 66h2.3v3.7h-2.3zM731.2 66h2.3v3.7h-2.3z"/><path class="st0" d="M694.1 45h21.2v26.2h-21.2z"/><path class="st1" d="M696.7 47.5h15.6v2.6h-15.6zM696.7 52.4h15.6V55h-15.6zM696.7 57.2h15.6v2.6h-15.6zM696.7 62.1h15.6v2.6h-15.6zM696.7 66.9h15.6v2.6h-15.6z"/><path class="st0" d="M665 33.5h4.9v37.8H665z"/><path class="st1" d="M670.5 70.8V34.2l10.5 3.6v33z"/><path class="st0" d="M671 34.9l9.5 3.3v32.1H671V34.9m-1-1.4v37.8h11.5V37.5l-11.5-4z"/><path class="st0" d="M672.4 37.8v2.7l6.7 2.4v-2.8zM672.4 42.9v3l6.7 1.6v-2.6zM674.2 48.4h4.9v21.9h-4.9z"/><path class="st1" d="M679.7 69.7V49.1l10.5 3.6v17z"/><path class="st0" d="M680.2 49.8l9.5 3.3v16.2h-9.5V49.8m-1-1.4v21.9h11.5v-18l-11.5-3.9z"/><path class="st0" d="M681.6 52.7v2.7l6.7 2.4V55zM681.6 57.8v3l6.7 1.6v-2.6zM369.7 25.9h5.9v45.4h-5.9z"/><path class="st1" d="M356.5 70.6V31.1l12.6-4.4v43.9z"/><path class="st0" d="M368.5 27.6V70h-11.4V31.5l11.4-3.9m1.2-1.7l-13.8 4.8v40.6h13.8V25.9z"/><path class="st0" d="M366.8 31.1v3.3l-8.1 2.8v-3.4zM366.8 37.2v3.6l-8.1 2v-3.2zM358.6 43.7h5.9V70h-5.9z"/><path class="st1" d="M345.4 69.4V49l12.6-4.4v24.8z"/><path class="st0" d="M357.4 45.4v23.4H346V49.4l11.4-4m1.2-1.7l-13.8 4.8V70h13.8V43.7z"/><path class="st0" d="M355.7 48.9v3.3l-8.1 2.8v-3.3zM355.7 55v3.6l-8.1 2v-3.1zM639.7 38.6h22.8v31.9h-22.8z"/><path class="st1" d="M643 42.9h4v4h-4zM649.1 42.9h4v4h-4zM655.2 42.9h4v4h-4zM643 49h4v4h-4zM649.1 49h4v4h-4zM655.2 49h4v4h-4zM643 55.1h4v4h-4zM649.1 55.1h4v4h-4zM655.2 55.1h4v4h-4zM643 61.2h4v4.1h-4zM649.1 61.2h4v8.3h-4zM655.2 61.2h4v4.1h-4z"/><g><path class="st1" d="M583 33.5h13.3v37.1H583zM610.2 21.3h12.5v50.9h-12.5z"/><path class="st0" d="M621.9 23.1c-3.5.5-6.9 1-10.3 1.5v47.2h-16.4V35.9c-1.2.2-2.3.3-3.5.5-2.1.3-4.2.7-6.2.9-.5.1-.6.3-.6.7v33.7h-8.5v-2.8h3c.6 0 .8-.2.8-.8V34.2v-1.1c1.7-.3 3.4-.5 5-.8 4.5-.7 9.1-1.3 13.6-2.1 1.2-.2 2.1.2 3.2.5.9.2 1.3.6 1.4 1.6.6 5.1 1.3 10.3 1.9 15.4.2 1.3.3 2.6.5 3.9.1.5.6.9.9 1.3.1 0 .1-.1.2-.1v-.6-31.3c0-.5.1-.7.7-.8 5.2-.7 10.3-1.5 15.5-2.3 1-.1 2-.3 2.9-.4.5-.1 1.1 0 1.6.1 2.4.8 4.7 1.6 7.1 2.4.4.1.6.3.6.8v48.1h2.9v2.8h-16.1c-.2-16.6-.2-31.5-.2-48.5z"/><path class="st0" d="M617.6 63v-3.6h2.2V63h-2.2zM619.8 29.7c-.7.1-1.5.2-2.2.3v-3.7c.7-.1 1.4-.2 2.2-.3v3.7zM617.6 36.5v-3.6c.7-.1 1.4-.2 2.3-.2v2.8c0 .9 0 .9-.9 1-.4 0-.8.1-1.2.1-.1 0-.1-.1-.2-.1zM617.6 52.7c.8 0 1.5-.1 2.2-.1v3.7h-2.2v-3.6zM619.8 39.3V43c-.7.1-1.5.1-2.2.2v-3.7c.7-.1 1.5-.1 2.2-.2zM617.6 46.1c.7 0 1.5-.1 2.2-.1v3.7h-2.2v-3.6zM590.8 62.3v-3.7c.7 0 1.4-.1 2.2-.1v3.7c-.7 0-1.5.1-2.2.1zM590.8 45.4c.7-.1 1.4-.1 2.2-.2v3.7c-.7.1-1.4.1-2.2.2v-3.7zM593 51.8v3.7c-.7 0-1.4.1-2.2.1v-3.4c0-.1.2-.2.3-.3.6 0 1.2 0 1.9-.1zM593 38.5v3.7c-.7.1-1.4.2-2.2.3v-3.4c0-.1.2-.3.3-.3.6-.2 1.2-.2 1.9-.3zM593 68.8h-2.2v-3.6h2.2v3.6zM613.4 59.4h2.2V63h-1.9c-.1 0-.3-.2-.3-.3v-3.3zM586.6 68.8v-3.6h2.1v3.6h-2.1zM586.6 49.4v-3.6c.7-.1 1.4-.1 2.2-.2V49c0 .1-.2.2-.3.3-.6 0-1.2.1-1.9.1zM613.4 50v-3.3c0-.1.2-.3.4-.4.6-.1 1.1-.1 1.8-.1v3.6c-.8.1-1.5.1-2.2.2zM588.8 52.1v3.7c-.7 0-1.4.1-2.1.1v-3.6c.6-.1 1.3-.1 2.1-.2zM613.4 43.5v-3.6c.7-.1 1.4-.1 2.2-.2v2.5c0 1.2 0 1.2-1.1 1.2-.4 0-.7 0-1.1.1zM586.6 39.3l2.1-.3v3.7c-.7.1-1.4.1-2.1.2v-3.6zM615.5 30.2c-.7.1-1.4.2-2.2.3v-3.4c0-.1.2-.3.3-.3.6-.1 1.2-.2 1.9-.2v3.6zM615.6 33.1v3.7c-.7.1-1.4.1-2.1.2v-3.6c.6-.1 1.3-.2 2.1-.3zM586.6 62.4v-3.7h2.1v3.6c-.6.1-1.3.1-2.1.1zM613.4 52.8h2.1v3.5h-2.1v-3.5z"/></g><g><path class="st1" d="M522.4 35.7h48.4v33.9h-48.4zM540.1 17.7h14.6v13.5h-14.6z"/><path class="st0" d="M554.8 61.1H569.4c.5 0 .7-.1.7-.6V37.6v-.4h-46v23.9h15.2v8.5h-17.5c-1 0-1.2-.2-1.2-1.2V37.9c0-.6-.1-.9-.8-.8-.3 0-.9-.1-.9-.2-.1-.5-.2-1.3.1-1.6 1.5-1.6 3.1-3.2 4.7-4.7.2-.2.7-.3 1-.3H537.5v-12c-.4 0-.8.1-1.1 0-.2 0-.5-.3-.5-.5-.1-.7 0-1.3.6-1.9 1.4-1.3 2.6-2.6 4-3.9.3-.3.8-.5 1.2-.5h10.5c.4 0 .9.2 1.2.5 1.5 1.4 2.9 2.8 4.3 4.3.3.3.5 1.4.3 1.8-.1.1-.4.2-.6.2h-1.1v12h12.9c.4 0 .9.2 1.2.5 1.4 1.4 2.8 2.8 4.3 4.2.3.3.5 1.4.3 1.8-.1.1-.3.2-.5.2h-1.1v31.2c0 1.1-.1 1.3-1.3 1.3h-16.7c-.6 0-.8-.2-.8-.8v-7.1c.1-.1.2-.2.2-.5zm-13.7-42.7v11.9H553V30 18.9c0-.5-.3-.5-.6-.5h-11.3z"/><path class="st0" d="M544.6 62.7V50.9h5v11.8h-5zM558.1 57.6h-4.7c-.1 0-.4-.3-.4-.4v-6c0-.1.2-.4.3-.4h4.7c.1 2.2.1 4.5.1 6.8zM561.6 50.9h5v6.7h-5v-6.7zM536.1 50.9h5v6.7h-5v-6.7zM532.5 50.9v6.7h-5v-6.7h5zM566.7 40.6v6.7h-5v-6.7h5zM553.1 47.3v-6.7h5v6.7h-5zM549.6 40.6v6.7h-5v-6.7h5zM536 47.3v-6.7h5v6.7h-5zM527.5 47.3v-6.7h5v6.7h-5zM541.1 66.1v-1.6h11.8v1.6h-11.8zM541.1 67.9h11.8v1.6h-11.8v-1.6zM544.6 28.6v-6.7h5v6.7h-5z"/></g><g><path class="st0" d="M478.2 70.8V40.4c-.6.4-1 .8-1.5 1.2-1-1.5-2-2.9-3.1-4.4 7.1-5.5 14.1-10.9 21.2-16.4 2.1 1.6 4.2 3.2 6.5 4.9v-4.9h5.8V29.7c0 .4.1.7.5 1 2.6 2 5.3 4.1 7.9 6.1.2.1.3.3.5.4-1 1.5-2 2.9-3.1 4.4-.5-.4-.9-.7-1.5-1.2v30.4h-33.2zM497.8 57h-5.6v11.2h5.6V57zm-9.2 0H483v5.2h5.6V57zm13 5.2h5.6V57h-5.6v5.2zm-13.1-22.8h-5.6v5.1h5.6v-5.1zm3.6 5.2h5.6v-5.2h-5.6v5.2zm9.5-5.2v5.2h5.6v-5.2h-5.6zm-18.8 8.7v5.2h5.6v-5.2h-5.6zm14.9 5.2v-5.2h-5.6v5.2h5.6zm3.9-5.2v5.2h5.6v-5.2h-5.6z"/><path class="st1" d="M497.8 57v11.2h-5.6V57h5.6zM488.6 57v5.2H483V57h5.6zM501.6 62.2V57h5.6v5.2h-5.6zM488.5 39.4v5.1h-5.6v-5.1h5.6zM492.1 44.6v-5.2h5.6v5.2h-5.6zM501.6 39.4h5.6v5.2h-5.6v-5.2zM482.8 48.1h5.6v5.2h-5.6v-5.2zM497.7 53.3h-5.6v-5.2h5.6v5.2zM501.6 48.1h5.6v5.2h-5.6v-5.2z"/></g><g><path class="st0" d="M479.2 70.5h-6V63c-2.3-.7-4.3-1-6-1.9-2.9-1.5-4-4.1-4.1-7.3 0-1.2-.4-2.5-1.1-3.5-3.7-5.1-1.4-11.7 4.7-13.4.9-.2 1.8-.9 2.3-1.7 3.8-5.4 10.5-5.4 14.4-.1.6.8 1.6 1.5 2.6 1.8 5.9 1.7 8.1 8.4 4.4 13.3-.5.7-1.1 1.6-1.2 2.4-.5 7.1-2.2 8.9-9.8 9.9-.2 2.6-.2 5.2-.2 8zm-.3-10.9c5 1.1 8.7-2.1 7.9-6.3-.3-1.9.4-2.8 1.3-4.2 1-1.7 1.8-4.2 1.2-5.9-.6-1.7-2.7-3.4-4.6-4-1.6-.5-2.6-.9-3.3-2.4-1-2.2-2.9-3.2-5.3-3.2-2.5 0-4.6 1-5.5 3.3-.6 1.6-1.5 2-3.1 2.3-5.2 1-7.1 6.6-3.5 10.2 1.3 1.3 1.6 2.5 1.3 4.2-.6 3.3 2.1 6.5 5.5 6.8 1.7.2 2.5-.5 1.8-2.1-.8-1.8-1.9-3.4-3-5.4 2.7-2.9 3.2 1.5 5 1.8.5-1.5-.8-4.8 3.1-3.5.1 1.2.2 2.3.4 3.4 1.7-.6 2.2-4.6 4.7-1.8-1.6 2.3-2.7 4.5-3.9 6.8z"/><path class="st1" d="M478.9 59.6c1.2-2.3 2.4-4.5 3.7-7-2.5-2.8-3 1.2-4.7 1.8-.1-1.1-.2-2.2-.4-3.4-3.9-1.3-2.6 2-3.1 3.5-1.8-.3-2.3-4.7-5-1.8 1.1 2 2.2 3.6 3 5.4.7 1.6-.1 2.3-1.8 2.1-3.3-.3-6-3.5-5.5-6.8.3-1.8.1-2.9-1.3-4.2-3.6-3.6-1.6-9.2 3.5-10.2 1.5-.3 2.4-.7 3.1-2.3.9-2.3 3-3.3 5.5-3.3 2.4 0 4.3 1.1 5.3 3.2.7 1.6 1.7 1.9 3.3 2.4 1.8.6 4 2.3 4.6 4 .6 1.7-.2 4.3-1.2 5.9-.9 1.4-1.6 2.4-1.3 4.2 1 4.4-2.7 7.7-7.7 6.5z"/></g><g><path class="st0" d="M384 71.2v-1.9h6.3V17.8c-1.4-.3-1.4-.3-1.4-1.8v-1.5h29.6c0 1 .1 1.9 0 2.9 0 .2-.6.3-1 .5v22.2c0 .7.1.9.8.9 1.4-.1 2.9 0 4.4 0v-1V7.3c0-.7.2-.9.8-1.1 7.5-2 15-4.1 22.5-6.2.2-.1.5-.1.8-.2v69.5h6.5v2c-23.1-.1-46.1-.1-69.3-.1zm25.6-49.9v41.9h2.5c1 0 1 0 1-1v-40-.9h-3.5zm-12.7 0h-3.5v4.9h3.1c.1 0 .3-.2.3-.4.1-1.5.1-3 .1-4.5zm36.1 0v4.6c0 .1.2.4.3.4h3.1v-5H433zm10.9 9.1h-3c-.2 0-.4.3-.4.4v4.1c0 .2.3.4.4.4h2.6c.2 0 .4-.2.4-.4v-4.5zm0 32.7v-4.9h-3.4v4.9h3.4zm-7.5-4.9h-3.5v4.6c0 .1.2.4.4.4h3.1v-5zm-10.7 0v4.9h3.4v-4.9h-3.4zm-32.3 0v5h3.1c.1 0 .4-.2.4-.3v-4.6c-1.2-.1-2.3-.1-3.5-.1zm50.5-18.5h-3c-.2 0-.4.3-.4.5-.1.7 0 1.4 0 2.1v2.3h3.5c-.1-1.6-.1-3.2-.1-4.9zm-7.5 0h-3.1c-.1 0-.3.2-.3.3v4.6h3.4v-4.9zm-7.4 5v-4.9h-3.4v4.9h3.4zm-32.1 0v-4.6c0-.1-.2-.4-.3-.4h-3.2v5h3.5zm36.1-9.3h3.4v-4.9H433v4.9zm-4 0v-5h-3.3v5h3.3zm-35.6.1h3c.2 0 .4-.3.4-.4V31c0-.2-.3-.4-.4-.4h-2.6c-.2 0-.4.2-.4.4v4.5zm47-14.2v4.6c0 .1.2.4.3.4h3.2v-5h-3.5zM429 26.2v-5h-3.4v4.6c0 .1.2.4.3.4 1.1.1 2.1 0 3.1 0zm-35.6 27.7h3c.2 0 .4-.3.4-.5V51v-2h-3.5c.1 1.6.1 3.2.1 4.9zm43 0V49H433v4.9h3.4zm4.1-4.9v4.9h3.4V49h-3.4zm-.1-36.9v4.5c0 .1.2.4.3.4h3.1v-4.9h-3.4zm-4 0H433V17h3.4v-4.9zm-7.3-.1h-3.4v4.9h3.4V12zm-3.4 41.9h3.4V49h-3.4v4.9z"/><path class="st1" d="M409.6 21.3h3.5v40.9c0 1 0 1-1 1h-2.5V21.3zM396.9 21.3v4.6c0 .1-.2.4-.3.4h-3.1v-4.9c1-.1 2.1-.1 3.4-.1zM433 21.3h3.4v5h-3.1c-.1 0-.3-.3-.3-.4-.1-1.6 0-3.1 0-4.6zM443.9 30.4v4.7c0 .1-.3.4-.4.4h-2.6c-.2 0-.4-.3-.4-.4V31c0-.2.3-.4.4-.4 1-.2 1.9-.2 3-.2zM443.9 63.1h-3.4v-4.9h3.4v4.9zM436.4 58.2v5h-3.1c-.1 0-.4-.2-.4-.4v-4.6h3.5zM425.7 58.2h3.4v4.9h-3.4v-4.9zM393.4 58.2h3.5v4.6c0 .1-.2.3-.4.3h-3.1v-4.9zM443.9 39.7v4.9h-3.5v-2.3-2.1c0-.2.3-.5.4-.5h3.1zM436.4 39.7v4.9H433V40c0-.1.2-.3.3-.3h3.1zM429 44.7h-3.4v-4.9h3.4v4.9zM396.9 44.7h-3.4v-5h3.2c.1 0 .3.2.3.4-.1 1.5-.1 3-.1 4.6zM433 35.4v-4.9h3.4v4.9H433zM429 35.4h-3.3v-5h3.3v5zM393.4 35.5v-4.7c0-.1.3-.4.4-.4h2.6c.2 0 .4.3.4.4v4.1c0 .2-.3.4-.4.4-1 .2-1.9.2-3 .2zM440.4 21.3h3.5v5h-3.2c-.1 0-.3-.2-.3-.4v-4.6zM429 26.2h-3c-.1 0-.3-.2-.3-.4v-4.6h3.4c-.1 1.7-.1 3.3-.1 5zM393.4 53.9V49h3.5v4.4c0 .2-.3.5-.4.5h-3.1zM436.4 53.9H433V49h3.4v4.9zM440.5 49h3.4v4.9h-3.4V49zM440.4 12.1h3.5V17h-3.1c-.1 0-.3-.2-.3-.4-.1-1.5-.1-3-.1-4.5zM436.4 12.1V17H433v-4.9h3.4zM429.1 12v4.9h-3.4V12h3.4zM425.7 53.9V49h3.4v4.9h-3.4z"/></g><g><path class="st1" d="M336.8 60.9h6.9V70h-6.9z"/><path class="st0" d="M345.7 69.8h-2.8v-8.1h-5.3v8.1h-25.1v-.4V51c0-.3.1-.4.3-.5 3-1.5 5.9-3 8.9-4.5.2-.1.4-.1.6 0 1.4.7 2.7 1.4 4.1 2.1.1.1.2.1.4.2V31.7h19.1c-.2 12.7-.2 25.4-.2 38.1zm-6.4-15.7v3.1h3.1v-3.1h-3.1zm-1.6 3.1v-3.1h-3.1v3.1h3.1zm-7.8-3.1v3.1h3.1v-3.1h-3.1zm12.5-4.7h-3.1v3.1h3.1v-3.1zm-7.8 0v3.1h3.1v-3.1h-3.1zm-4.7 3.1h3.1v-3.1h-3.1v3.1zm12.5-7.8h-3.1v3.1h3.1v-3.1zm-7.8 0v3.1h3.1v-3.1h-3.1zm-4.7 3.1h3.1v-3.1h-3.1v3.1zm12.5-7.8h-3.1v3.1h3.1V40zm-4.7 0h-3.1v3.1h3.1V40zm-7.8 3.1h3.1V40h-3.1v3.1zm9.4-7.8v3.1h3.1v-3.1h-3.1zm-1.6 0h-3.1v3.1h3.1v-3.1zm-7.8 3.1h3.1v-3.1h-3.1v3.1zm-6.8 20.2h-2.3v2.3h2.3v-2.3zm1.2-1.2h2.3v-2.3h-2.3v2.3zm-1.3 0v-2.3h-2.3v2.1c0 .1.2.2.2.2h2.1zm1.3 3.5h2.3v-1.6c0-.8.1-.7-.7-.7h-1.7c.1.8.1 1.6.1 2.3zm-3.5 1.2v2.3h2.3v-2.3h-2.3zm3.5 0v2.3h2.3v-2.3h-2.3zm-7.1-1.2h2.3v-2.3h-2.3v2.3zm0-3.5h2.3v-2.3h-2.3v2.3zm2.3 7.1v-2.3h-2.3v2.3h2.3z"/><path class="st1" d="M339.3 54.1h3.1v3.1h-3.1v-3.1zM337.7 57.2h-3.1v-3.1h3.1v3.1zM329.9 54.1h3.1v3.1h-3.1v-3.1zM342.4 49.4v3.1h-3.1v-3.1h3.1zM334.6 49.4h3.1v3.1h-3.1v-3.1zM329.9 52.5v-3.1h3.1v3.1h-3.1zM342.4 44.7v3.1h-3.1v-3.1h3.1zM334.6 44.7h3.1v3.1h-3.1v-3.1zM329.9 47.8v-3.1h3.1v3.1h-3.1zM342.4 40v3.1h-3.1V40h3.1zM337.7 40v3.1h-3.1V40h3.1zM329.9 43.1V40h3.1v3.1h-3.1zM339.3 35.3h3.1v3.1h-3.1v-3.1zM337.7 35.3v3.1h-3.1v-3.1h3.1zM329.9 38.4v-3.1h3.1v3.1h-3.1zM323.1 58.6v2.3h-2.3v-2.3h2.3zM324.3 57.4v-2.3h2.3v2.3h-2.3zM323 57.4h-2.1c-.1 0-.2-.1-.2-.2v-2.1h2.3v2.3zM324.3 60.9v-2.3h1.7c.8 0 .7-.1.7.7v1.6h-2.4zM320.8 62.1h2.3v2.3h-2.3v-2.3zM324.3 62.1h2.3v2.3h-2.3v-2.3zM317.2 60.9v-2.3h2.3v2.3h-2.3zM317.2 57.4v-2.3h2.3v2.3h-2.3zM319.5 64.5h-2.3v-2.3h2.3v2.3z"/></g><g><path class="st0" d="M293.2 70.4h-13c-.8 0-1.2-.4-1.2-1.2v-7.5-17.9c0-.2-.1-.4-.2-.5-.4-.5-.5-1.1-.3-1.7.2-.6.7-1 1.3-1.1 2.2-.4 4.4-.7 6.6-1 2.5-.4 5.1-.8 7.6-1.2.8-.1 1.6-.3 2.4-.4.6-.1 1.3.3 1.6.9.3.6.3 1.4-.2 1.9-.2.2-.3.5-.3.7v6c0 .3.1.4.4.4l2.7.6c2 .5 4.1 1 6.1 1.5.7.2 1.2.6 1.4 1.3.2.7-.1 1.3-.6 1.8-.1.1-.2.3-.2.4v15.7c0 .9-.4 1.3-1.3 1.3h-12.8zm2.2-29h-.3c-2.3.4-4.5.7-6.8 1.1-2.3.4-4.5.7-6.8 1-.4.1-.5.2-.5.6v24h5.5v-5.4h3.3v5.4h5.5c.1-8.8.1-17.7.1-26.7zm7 26.8h2.8v-.3-14.4c0-.3-.1-.4-.4-.4-1.8-.4-3.6-.8-5.3-1.2-.6-.1-1.3-.3-1.9-.4v16.8h2.8v-2.7h2v2.6z"/><path class="st1" d="M295.4 41.4v26.8h-5.5v-5.4h-3.3v5.4h-5.5v-.4-23.6c0-.4.1-.5.5-.6 2.3-.3 4.5-.7 6.8-1 2.3-.4 4.5-.7 6.8-1.1 0 0 .1 0 .2-.1zm-7.1 18.3h1.4c.2 0 .3-.1.3-.3v-2.7c0-.2-.1-.3-.3-.3h-2.8c-.2 0-.3.1-.3.3v2.7c0 .3.1.3.3.3h1.4zm-1.7-15.1v3.2h3.3v-3.2h-3.3zm0 5.9v3.2h3.1c.1 0 .2-.2.2-.2V52v-1.4c-1.1-.1-2.1-.1-3.3-.1zM302.4 68.2v-2.7h-2v2.7h-2.8V51.4c.7.1 1.3.3 1.9.4 1.8.4 3.6.8 5.3 1.2.3.1.4.1.4.4V68.1c-.9.1-1.8.1-2.8.1zm0-13.8h-1.9v1.9h1.9v-1.9zm-2 3.5v1.7c0 .1.2.2.2.2h1.5c.1 0 .2-.1.2-.2v-1.7h-1.9zm0 3.6v1.8h1.9v-1.8h-1.9z"/><path class="st0" d="M288.3 59.7H287c-.2 0-.3 0-.3-.3v-2.7c0-.2.1-.3.3-.3h2.8c.2 0 .3.1.3.3v2.7c0 .2-.1.3-.3.3h-1.5zM286.6 44.6h3.3v3.2h-3.3v-3.2zM286.6 50.5h3.3v2.9c0 .1-.1.2-.2.2h-3.1v-3.1zM302.4 54.4v1.9h-1.9v-1.9h1.9zM300.4 57.9h2v1.7c0 .1-.1.2-.2.2h-1.5c-.1 0-.2-.1-.2-.2-.1-.5-.1-1.1-.1-1.7zM300.4 61.5h1.9v1.8h-1.9v-1.8z"/></g><g><path class="st0" d="M269.8 69.2H268h-.1c-.6-.2-1-.7-1-1.3v-1.2-.2h-5.4v1.3c0 .6-.3 1.1-.9 1.3-.1 0-.2.1-.3.1h-1.8c-.1 0-.1 0-.2-.1-.6-.2-1-.7-1-1.3v-.9-.5c-.9-.1-1.3-.6-1.3-1.5V53.7c0-.6 0-1.2.1-1.7.4-1.9 2.1-3.1 4-3.1h5.8c.9 0 1.8 0 2.8.1 1.7.1 3.1 1.5 3.4 3.2.1.6.1 1.1.1 1.7V65c0 .3 0 .6-.2.8-.3.4-.6.6-1.1.6v1.3c0 .6-.4 1-.9 1.2 0 .3-.1.3-.2.3zm1.1-16.2h-13.5v8.1h13.5V53zm-9.4-1.3h5.4v-1.3h-5.4v1.3zm-2.7 10.8c-.7 0-1.3.6-1.3 1.4 0 .7.6 1.3 1.4 1.3.7 0 1.3-.6 1.3-1.4 0-.7-.7-1.3-1.4-1.3zm10.8 0c-.8 0-1.4.6-1.4 1.4 0 .7.6 1.3 1.3 1.3.7 0 1.4-.6 1.4-1.3.1-.8-.5-1.4-1.3-1.4z"/><path class="st2" d="M260.4 69.2c.1 0 .2-.1.3-.1.5-.2.9-.7.9-1.3v-1.3h5.4v1.4c0 .6.4 1.1 1 1.3h.1-7.7z"/><path class="st0" d="M253.4 54.9c.3-.6.8-.5 1.3-.5v4c-.5 0-1.1.1-1.3-.5v-3zM275 57.9c-.3.5-.4.6-1.3.5v-4c.8-.1 1-.1 1.3.5v3z"/><path class="st1" d="M270.9 53v8.1h-13.5V53h13.5zM261.5 51.7v-1.3h5.4v1.3h-5.4zM258.8 62.5c.7 0 1.4.6 1.4 1.3 0 .7-.6 1.4-1.3 1.4-.7 0-1.4-.6-1.4-1.3-.1-.8.5-1.4 1.3-1.4zM269.6 62.5c.7 0 1.3.6 1.3 1.4 0 .7-.6 1.3-1.4 1.3-.7 0-1.3-.6-1.3-1.3 0-.8.7-1.4 1.4-1.4z"/></g><path class="st0" d="M-.3 69h782.7v3.1H-.3z"/></svg>