<svg id="Layer_1" xmlns="http://www.w3.org/2000/svg" viewBox="0 -16 783 73"><style>.st0{fill:#0075C9;} .st1{fill:#C2DAF1;} .st2{fill:#FFFFFF;}</style><path class="st0" d="M214.5 54.7h-5.3v-6.6c-2-.6-3.8-.9-5.3-1.6-2.5-1.3-3.5-3.6-3.6-6.4 0-1-.4-2.2-1-3-3.3-4.4-1.2-10.2 4.1-11.7.8-.2 1.6-.8 2-1.5 3.4-4.7 9.3-4.7 12.6-.1.5.7 1.4 1.3 2.3 1.6 5.1 1.5 7.1 7.3 3.9 11.6-.5.6-1 1.4-1.1 2.1-.5 6.2-2 7.8-8.7 8.7.1 2.2.1 4.5.1 6.9zm-.3-9.5c4.4 1 7.7-1.8 7-5.5-.3-1.6.3-2.4 1.1-3.7.9-1.4 1.6-3.7 1.1-5.2s-2.4-3-4-3.5c-1.4-.5-2.3-.8-2.9-2.1-.9-1.9-2.5-2.8-4.7-2.8s-4.1.9-4.9 2.9c-.6 1.4-1.4 1.7-2.7 2-4.5.9-6.3 5.7-3.1 8.9 1.2 1.2 1.4 2.1 1.1 3.7-.5 2.9 1.9 5.6 4.8 5.9 1.5.1 2.2-.5 1.5-1.9-.7-1.6-1.7-3-2.7-4.7 2.4-2.5 2.8 1.3 4.4 1.6.4-1.3-.7-4.2 2.7-3l.3 3c1.5-.5 2-4 4.1-1.5-1 2-2 3.9-3.1 5.9z"/><path class="st1" d="M214.2 45.2c1.1-2 2.1-3.9 3.2-6.1-2.2-2.4-2.6 1-4.1 1.5l-.3-3c-3.4-1.1-2.3 1.7-2.7 3-1.6-.3-2-4.1-4.4-1.6 1 1.7 2 3.2 2.7 4.7.6 1.4-.1 2-1.5 1.9-2.9-.3-5.3-3-4.8-5.9.3-1.5.1-2.5-1.1-3.7-3.2-3.1-1.4-8 3.1-8.9 1.4-.3 2.1-.6 2.7-2 .8-2 2.7-2.9 4.9-2.9 2.1 0 3.8.9 4.7 2.8.6 1.4 1.5 1.7 2.9 2.1 1.6.5 3.5 2 4 3.5s-.2 3.7-1.1 5.2c-.8 1.2-1.4 2.1-1.1 3.7.6 3.9-2.7 6.7-7.1 5.7z"/><path class="st0" d="M196.4 54.7h-4.3v-5.4c-1.6-.5-3.1-.7-4.3-1.3-2-1.1-2.9-2.9-3-5.2 0-.8-.3-1.8-.8-2.5-2.7-3.6-1-8.3 3.3-9.5.6-.2 1.3-.7 1.7-1.2 2.7-3.8 7.5-3.9 10.3 0 .4.6 1.1 1.1 1.8 1.3 4.2 1.2 5.8 6 3.2 9.4-.4.5-.8 1.1-.9 1.7-.4 5-1.6 6.3-7 7.1v5.6zm-.2-7.7c3.6.8 6.2-1.5 5.7-4.5-.2-1.3.3-2 .9-3 .7-1.2 1.3-3 .9-4.2-.4-1.2-2-2.4-3.3-2.9-1.1-.4-1.8-.6-2.3-1.7-.7-1.5-2.1-2.3-3.8-2.3-1.8 0-3.3.7-4 2.3-.5 1.1-1.1 1.4-2.2 1.6-3.7.7-5.1 4.7-2.5 7.2 1 1 1.1 1.7.9 3-.4 2.4 1.5 4.6 3.9 4.8 1.2.1 1.8-.4 1.3-1.5-.6-1.3-1.4-2.4-2.2-3.8 1.9-2.1 2.3 1.1 3.6 1.3.4-1.1-.6-3.4 2.2-2.5.1.8.2 1.7.3 2.4 1.2-.4 1.6-3.2 3.4-1.3-1.1 1.9-2 3.4-2.8 5.1z"/><path class="st1" d="M196.2 47c.9-1.7 1.7-3.2 2.6-5-1.8-2-2.1.8-3.4 1.3l-.3-2.4c-2.8-.9-1.8 1.4-2.2 2.5-1.3-.2-1.6-3.3-3.6-1.3.8 1.4 1.6 2.6 2.2 3.8.5 1.1 0 1.6-1.3 1.5-2.4-.2-4.3-2.4-3.9-4.8.2-1.3.1-2-.9-3-2.6-2.6-1.2-6.5 2.5-7.2 1.1-.2 1.7-.5 2.2-1.6.7-1.6 2.2-2.3 4-2.3 1.7 0 3.1.7 3.8 2.3.5 1.1 1.2 1.4 2.3 1.7 1.3.4 2.9 1.7 3.3 2.9.4 1.2-.1 3-.9 4.2-.6 1-1.2 1.7-.9 3 .7 2.9-2 5.2-5.5 4.4z"/><path class="st0" d="M766.3 23c-.7.3-1.3.5-2.2.8 2.5-4 4.8-7.9 6.3-12.7 1.5 4.8 3.8 8.8 6.5 12.8-.9-.4-1.6-.7-2.3-1l-.2.2c1.5 3 2.9 6 4.5 9.1l-2.2-1.1 4.1 8.2c-.8-.3-1.4-.6-2.1-.8 0 .1-.1.1-.1.2 1.2 2.1 2.4 4.2 3.7 6.5-7.9 2.4-15.7 2.4-23.6 0 1.3-2.2 2.5-4.4 3.8-6.8-.9.3-1.6.6-2.4 1 1.4-2.7 2.6-5.3 3.9-7.9 0-.1-.1-.1-.1-.2-.6.3-1.2.5-1.9.9.8-1.7 1.6-3.3 2.3-4.9.6-1.3 1.2-2.5 1.9-3.8 0 0 .1-.2.1-.5h.1l-.1-.1v.1zM773.6 53.4H767c.5-.8 1.1-1.5 1.3-2.3.3-.8.2-1.8.4-2.8h2.5c.1 0 .3.2.4.3.6 1.6 1.3 3.2 2 4.8zM380.2 32.4c-.5.2-.9.4-1.5.6 1.7-2.7 3.3-5.4 4.3-8.7 1.1 3.3 2.6 6.1 4.4 8.8-.6-.3-1.1-.5-1.5-.7l-.1.1c1 2.1 2 4.1 3.1 6.3-.6-.3-1-.5-1.5-.7 1 1.9 1.9 3.7 2.8 5.7l-1.5-.6-.1.1c.8 1.5 1.7 2.9 2.5 4.5-5.4 1.6-10.8 1.7-16.2 0 .9-1.5 1.7-3 2.6-4.7-.6.2-1.1.4-1.7.7.9-1.9 1.8-3.7 2.7-5.4l-.1-.1c-.4.2-.8.4-1.3.6.6-1.2 1.1-2.3 1.6-3.4.4-.9.9-1.7 1.3-2.6.2-.1.2-.3.2-.5.1 0 .1 0 0 0 .1 0 .1 0 0 0zM385.2 53.4h-4.5c.3-.5.7-1 .9-1.6.2-.6.2-1.3.2-1.9h1.8c.1 0 .2.1.3.2.4 1.1.8 2.2 1.3 3.3zM225.8 50.1v-5.6c0-.1.1-.3.1-.4.2-.7.7-1.1 1.3-1.4.3-.1.4-.2.5-.5.4-1.2.9-2.4 1.4-3.5.4-1.1 1.1-1.6 2.4-1.7h8.1c1.2 0 1.9.5 2.4 1.7.4 1 .8 2 1.1 3 .2.5.3 1 1 1.2.1 0 .3.2.4.3.3.4.5.8.7 1.2v5.7h-1.5v.9c0 .4 0 .8-.1 1.2-.1.9-1.1 1.4-2 1-.7-.3-.9-.8-.9-1.5v-1.5h-10.5v1.9c0 .6-.4 1-1 1.2-.5.2-1 .1-1.4-.3-.4-.4-.5-.8-.5-1.4v-1.5h-1.5zm16-7.4c-.4-1.1-.8-2.2-1.2-3.2-.2-.6-.4-.8-1.1-.8h-7.9c-.7 0-.9.1-1.1.8-.4 1-.7 1.9-1.1 2.9 0 .1-.1.2-.1.3h12.5zm-13 4.3c.7 0 1.3-.6 1.3-1.3 0-.7-.6-1.4-1.3-1.4-.7 0-1.3.6-1.3 1.3 0 .7.6 1.4 1.3 1.4zm14.6-1.4c0-.7-.6-1.4-1.3-1.3-.7 0-1.3.6-1.3 1.4 0 .7.6 1.3 1.3 1.3.7 0 1.3-.6 1.3-1.4z"/><path class="st1" d="M241.8 42.7h-12.5c0-.1.1-.2.1-.3.4-1 .7-1.9 1.1-2.9.2-.6.4-.8 1.1-.8h7.9c.7 0 .9.1 1.1.8.4 1 .7 2.1 1.2 3.2zM228.8 47c-.7 0-1.3-.6-1.3-1.4 0-.7.6-1.3 1.3-1.3.7 0 1.3.6 1.3 1.4.1.7-.6 1.3-1.3 1.3zM243.4 45.6c0 .7-.6 1.4-1.3 1.4-.7 0-1.3-.6-1.3-1.3 0-.7.6-1.3 1.3-1.4.7 0 1.3.6 1.3 1.3z"/><path class="st0" d="M740.1 39.2h18v16.2h-18z"/><path class="st1" d="M742.6 42.1h3.2v3.2h-3.2zM747.5 42.1h3.2v3.2h-3.2zM752.3 42.1h3.2v3.2h-3.2zM742.6 47.4h3.2v6.3h-3.2zM747.5 47.4h3.2v6.3h-3.2zM752.3 47.4h3.2v6.3h-3.2z"/><path class="st0" d="M759.3 40.2h-20.4l10.2-10.1zM646.4 15.4h11.5v9.2h-11.5z"/><path class="st0" d="M659.5 15.8h-14.6l7.3-6.2z"/><ellipse class="st1" cx="749.1" cy="37.2" rx="1.9" ry="1.9"/><ellipse class="st1" cx="652.2" cy="18.7" rx="2.8" ry="2.7"/><path class="st0" d="M715.6 10.1h22.2v44.2h-22.2z"/><path class="st1" d="M717.9 13h2.3v3.7h-2.3zM722.9 13h2.3v3.7h-2.3zM728 13h2.3v3.7H728zM733 13h2.3v3.7H733zM717.9 19.2h2.3v3.7h-2.3zM722.9 19.2h2.3v3.7h-2.3zM728 19.2h2.3v3.7H728zM733 19.2h2.3v3.7H733zM717.9 25.4h2.3v3.7h-2.3zM722.9 25.4h2.3v3.7h-2.3zM728 25.4h2.3v3.7H728zM733 25.4h2.3v3.7H733zM717.9 31.6h2.3v3.7h-2.3zM722.9 31.6h2.3v3.7h-2.3zM728 31.6h2.3v3.7H728zM733 31.6h2.3v3.7H733zM717.9 37.8h2.3v3.7h-2.3zM722.9 37.8h2.3v3.7h-2.3zM728 37.8h2.3v3.7H728zM733 37.8h2.3v3.7H733zM717.9 44h2.3v3.7h-2.3zM722.9 44h2.3v3.7h-2.3zM728 44h2.3v3.7H728zM733 44h2.3v3.7H733zM717.9 50.2h2.3v3.7h-2.3zM722.9 50.2h2.3v3.7h-2.3zM728 50.2h2.3v3.7H728zM733 50.2h2.3v3.7H733z"/><path class="st0" d="M695.5 29.3h21.3v26.2h-21.3z"/><path class="st1" d="M698.2 31.8h15.7v2.6h-15.7zM698.2 36.6h15.7v2.6h-15.7zM698.2 41.5h15.7v2.6h-15.7zM698.2 46.3h15.7v2.6h-15.7zM698.2 51.1h15.7v2.6h-15.7z"/><path class="st0" d="M666.3 17.7h5v37.7h-5z"/><path class="st1" d="M671.8 55V18.4l10.5 3.7V55z"/><path class="st0" d="M672.3 19.1l9.6 3.3v32h-9.6V19.1m-1-1.4v37.7h11.6V21.7l-11.6-4z"/><path class="st0" d="M673.7 22v2.8l6.8 2.3v-2.8zM673.7 27.1v3l6.8 1.7v-2.7zM675.6 32.6h5v21.9h-5z"/><path class="st1" d="M681 53.9V33.3l10.6 3.6v17z"/><path class="st0" d="M681.5 34l9.6 3.3v16.2h-9.6V34m-1-1.4v21.9h11.6V36.6l-11.6-4z"/><path class="st0" d="M682.9 36.9v2.7l6.8 2.4v-2.8zM682.9 42v3l6.8 1.6V44zM368.5 10.1h6v45.3h-6z"/><path class="st1" d="M355.2 54.8V15.3l12.7-4.3v43.8z"/><path class="st0" d="M367.3 11.8v42.4h-11.5V15.8l11.5-4m1.2-1.7l-13.9 4.8v40.6h13.9V10.1z"/><path class="st0" d="M365.6 15.3v3.3l-8.1 2.8V18zM365.6 21.4V25l-8.1 2v-3.2zM357.4 28h6v26.3h-6z"/><path class="st1" d="M344.1 53.6V33.2l12.7-4.4v24.8z"/><path class="st0" d="M356.2 29.7V53h-11.5V33.6l11.5-3.9m1.2-1.7l-13.9 4.8v21.5h13.9V28z"/><path class="st0" d="M354.5 33.1v3.3l-8.2 2.8v-3.3zM354.5 39.2v3.6l-8.2 2v-3.1zM640.7 22.9h23v31.9h-23z"/><path class="st1" d="M644 27.1h4v4h-4zM650.2 27.1h4v4h-4zM656.3 27.1h4v4h-4zM644 33.2h4v4h-4zM650.2 33.2h4v4h-4zM656.3 33.2h4v4h-4zM644 39.3h4v4h-4zM650.2 39.3h4v4h-4zM656.3 39.3h4v4h-4zM644 45.5h4v4.1h-4zM650.2 45.5h4v8.3h-4zM656.3 45.5h4v4.1h-4z"/><g><path class="st1" d="M583.6 17.7H597v37h-13.4zM611 5.6h12.6v50.8H611z"/><path class="st0" d="M622.8 7.4c-3.5.5-6.9 1-10.4 1.5v47.2h-16.6V20.2c-1.2.2-2.4.3-3.5.5-2.1.3-4.2.7-6.3.9-.5.1-.6.3-.6.7V56h-8.6v-2.8h3c.6 0 .8-.2.8-.8V18.6v-1.1c1.7-.3 3.4-.5 5.1-.8 4.6-.7 9.2-1.3 13.7-2.1 1.2-.2 2.1.2 3.2.5.9.2 1.3.6 1.4 1.6.6 5.1 1.3 10.3 1.9 15.4.2 1.3.3 2.6.5 3.9.1.5.6.9.9 1.3.1 0 .1-.1.2-.1v-.6V5.4c0-.5.1-.7.7-.8 5.2-.7 10.4-1.5 15.6-2.3 1-.1 2-.3 3-.4.5-.1 1.1 0 1.6.1 2.4.8 4.8 1.6 7.1 2.4.4.1.6.3.6.8v48.1h3v2.8h-16.3V7.4z"/><path class="st0" d="M618.4 47.2v-3.6h2.3v3.6h-2.3zM620.7 14c-.7.1-1.5.2-2.2.3v-3.7c.7-.1 1.5-.2 2.2-.3V14zM618.4 20.8v-3.6c.7-.1 1.5-.2 2.3-.2v2.8c0 .9 0 .9-.9 1-.4 0-.8.1-1.2.1 0-.1-.1-.1-.2-.1zM618.5 36.9c.8 0 1.5-.1 2.2-.1v3.7h-2.2v-3.6zM620.7 23.5v3.7c-.7.1-1.5.1-2.2.2v-3.7c.7 0 1.4-.1 2.2-.2zM618.4 30.3c.7 0 1.5-.1 2.2-.1v3.7h-2.2v-3.6zM591.4 46.5v-3.7c.7 0 1.5-.1 2.2-.1v3.7c-.7 0-1.4.1-2.2.1zM591.5 29.6c.7-.1 1.4-.1 2.2-.2v3.7c-.7.1-1.4.1-2.2.2v-3.7zM593.7 36.1v3.7c-.7 0-1.4.1-2.2.1v-3.4c0-.1.2-.2.3-.3.5-.1 1.2-.1 1.9-.1zM593.7 22.7v3.7c-.7.1-1.5.2-2.2.3v-3.4c0-.1.2-.3.3-.3.5-.1 1.2-.2 1.9-.3zM593.6 53.1h-2.2v-3.6h2.2v3.6zM614.2 43.6h2.2v3.6h-1.9c-.1 0-.3-.2-.3-.3v-3.3zM587.2 53v-3.6h2.1V53h-2.1zM587.2 33.6V30c.7-.1 1.4-.1 2.2-.2v3.4c0 .1-.2.2-.3.3-.6.1-1.2.1-1.9.1zM614.2 34.2v-3.3c0-.1.2-.3.4-.4.6-.1 1.2-.1 1.8-.1V34c-.7.1-1.4.1-2.2.2zM589.4 36.4v3.7c-.7 0-1.4.1-2.1.1v-3.6c.6-.1 1.3-.2 2.1-.2zM614.2 27.7v-3.6c.7-.1 1.4-.1 2.2-.2v2.5c0 1.2 0 1.2-1.2 1.2-.3 0-.6.1-1 .1zM587.2 23.5l2.1-.3v3.7c-.7.1-1.4.1-2.1.2v-3.6zM616.4 14.5c-.7.1-1.4.2-2.2.3v-3.4c0-.1.2-.3.3-.3.6-.1 1.2-.2 1.9-.2v3.6zM616.4 17.4v3.7c-.7.1-1.4.1-2.2.2v-3.6c.7-.2 1.4-.3 2.2-.3zM587.2 46.6v-3.7h2.1v3.5c-.6.2-1.3.2-2.1.2zM614.2 37h2.2v3.5h-2.2V37z"/></g><g><path class="st1" d="M522.4 20h48.8v33.8h-48.8zM540.3 1.9H555v13.4h-14.7z"/><path class="st0" d="M555.1 45.3h14.8c.5 0 .7-.1.7-.6V21.8v-.4h-46.4v23.8h15.4v8.5H522c-1 0-1.2-.2-1.2-1.2V22.1c0-.6-.1-.9-.8-.8-.3 0-.9-.1-.9-.2-.1-.5-.2-1.3.1-1.6 1.5-1.6 3.1-3.2 4.7-4.7.2-.2.7-.3 1-.3H537.8v-12c-.4 0-.8.1-1.1 0-.2 0-.5-.3-.5-.5-.1-.7 0-1.3.6-1.9 1.4-1.3 2.7-2.6 4-3.9.3-.3.8-.5 1.2-.5h10.6c.4 0 .9.2 1.2.5 1.5 1.4 2.9 2.8 4.3 4.3.3.3.5 1.4.3 1.8-.1.1-.4.2-.6.2h-1.1v12h13c.4 0 .9.2 1.2.5 1.5 1.4 2.9 2.8 4.3 4.2.3.3.5 1.4.3 1.8-.1.1-.3.2-.5.2h-1.1v31.2c0 1.1-.1 1.3-1.3 1.3h-16.9c-.6 0-.8-.2-.8-.8v-7.1c.2 0 .2-.2.2-.5zM541.4 2.6v11.9h12v-.3V3.1c0-.5-.3-.5-.6-.5h-11.4z"/><path class="st0" d="M544.8 46.9V35.1h5.1v11.8h-5.1zM558.5 41.8h-4.7c-.1 0-.4-.3-.4-.4v-6c0-.1.2-.4.3-.4h4.8v6.8zM562 35.1h5.1v6.7H562v-6.7zM536.3 35.1h5v6.7h-5v-6.7zM532.7 35.1v6.7h-5.1v-6.7h5.1zM567.1 24.8v6.7H562v-6.7h5.1zM553.4 31.5v-6.7h5.1v6.7h-5.1zM549.9 24.8v6.7h-5.1v-6.7h5.1zM536.2 31.6v-6.7h5.1v6.7h-5.1zM527.6 31.5v-6.7h5.1v6.7h-5.1zM541.4 50.3v-1.6h11.9v1.6h-11.9zM541.4 52.1h11.9v1.6h-11.9v-1.6zM544.8 12.8V6.1h5.1v6.7h-5.1z"/></g><g><path class="st0" d="M477.9 55V24.6c-.6.4-1 .8-1.5 1.2-1-1.5-2.1-2.9-3.1-4.4 7.1-5.5 14.2-10.9 21.4-16.3 2.1 1.6 4.3 3.2 6.5 4.9V5.1h5.8V14c0 .4.1.7.5 1 2.7 2 5.3 4.1 8 6.1.2.1.3.3.5.4-1 1.5-2 2.9-3.1 4.4-.5-.4-.9-.7-1.5-1.2V55h-33.5zm19.8-13.8h-5.6v11.2h5.6V41.2zm-9.3 0h-5.7v5.2h5.7v-5.2zm13.1 5.2h5.7v-5.2h-5.7v5.2zm-13.2-22.7h-5.7v5.1h5.7v-5.1zm3.7 5.1h5.7v-5.2H492v5.2zm9.5-5.2v5.2h5.6v-5.2h-5.6zm-18.9 8.7v5.2h5.6v-5.2h-5.6zm15 5.2v-5.2H492v5.2h5.6zm3.9-5.2v5.2h5.6v-5.2h-5.6z"/><path class="st1" d="M497.7 41.2v11.2h-5.6V41.2h5.6zM488.4 41.2v5.2h-5.7v-5.2h5.7zM501.5 46.4v-5.2h5.7v5.2h-5.7zM488.3 23.7v5.1h-5.7v-5.1h5.7zM492 28.8v-5.2h5.7v5.2H492zM501.5 23.6h5.6v5.2h-5.6v-5.2zM482.6 32.3h5.6v5.2h-5.6v-5.2zM497.6 37.5H492v-5.2h5.6v5.2zM501.5 32.3h5.6v5.2h-5.6v-5.2z"/></g><g><path class="st0" d="M478.9 54.7h-6.1v-7.5c-2.3-.7-4.4-1-6.1-1.9-2.9-1.5-4-4.1-4.2-7.3 0-1.2-.4-2.5-1.1-3.5-3.8-5-1.4-11.7 4.7-13.4.9-.2 1.8-.9 2.3-1.7 3.9-5.4 10.6-5.4 14.5-.1.6.8 1.6 1.5 2.6 1.8 5.9 1.7 8.2 8.4 4.5 13.3-.5.7-1.1 1.6-1.2 2.4-.5 7.1-2.3 8.9-9.9 9.9v8zm-.3-10.9c5 1.1 8.8-2.1 8-6.3-.3-1.9.4-2.8 1.3-4.2 1-1.7 1.8-4.2 1.2-5.9-.6-1.7-2.8-3.4-4.6-4-1.6-.5-2.6-.9-3.3-2.4-1-2.2-2.9-3.2-5.3-3.2-2.5 0-4.6 1-5.6 3.3-.7 1.6-1.5 2-3.1 2.3-5.2 1-7.2 6.6-3.6 10.2 1.4 1.3 1.6 2.5 1.3 4.2-.6 3.3 2.2 6.5 5.5 6.8 1.7.2 2.5-.5 1.8-2.1-.8-1.8-1.9-3.4-3.1-5.4 2.7-2.9 3.2 1.5 5 1.8.5-1.5-.8-4.8 3.1-3.5.1 1.2.3 2.3.4 3.4 1.7-.6 2.3-4.6 4.7-1.8-1.3 2.3-2.4 4.5-3.7 6.8z"/><path class="st1" d="M478.6 43.8c1.2-2.3 2.4-4.5 3.7-7-2.5-2.8-3 1.2-4.7 1.8-.1-1.1-.2-2.2-.4-3.4-3.9-1.3-2.6 1.9-3.1 3.5-1.8-.3-2.3-4.7-5-1.8 1.1 2 2.2 3.6 3.1 5.4.7 1.6-.1 2.3-1.8 2.1-3.3-.3-6.1-3.4-5.5-6.8.3-1.8.1-2.9-1.3-4.2-3.6-3.6-1.6-9.2 3.6-10.2 1.6-.3 2.4-.7 3.1-2.3.9-2.3 3-3.3 5.6-3.3 2.4 0 4.3 1.1 5.3 3.2.7 1.6 1.7 1.9 3.3 2.4 1.8.6 4 2.3 4.6 4 .6 1.7-.2 4.3-1.2 5.9-.9 1.4-1.6 2.3-1.3 4.2.8 4.5-2.9 7.7-8 6.5z"/></g><g><path class="st0" d="M383 55.4v-1.9h6.3V2.1c-1.4-.3-1.4-.3-1.4-1.8v-1.5h29.9c0 1 .1 1.9 0 2.9 0 .2-.6.3-1 .5v22.2c0 .7.1.9.8.9 1.4-.1 2.9 0 4.4 0v-1-32.7c0-.7.2-.9.8-1.1 7.6-2 15.1-4.1 22.7-6.2.2-.1.5-.1.8-.2v69.4h6.5v2c-23.2-.1-46.5-.1-69.8-.1zm25.8-49.9v41.9h2.5c1 0 1 0 1-1V6.5v-.9c-1.2-.1-2.3-.1-3.5-.1zm-12.9 0h-3.5v4.9h3.1c.1 0 .4-.2.4-.4.1-1.4 0-2.9 0-4.5zm36.4 0v4.6c0 .1.2.4.3.4h3.1v-5h-3.4zm11.1 9.2h-3.1c-.2 0-.4.3-.4.4v4.1c0 .2.3.4.4.4h2.6c.2 0 .4-.2.4-.4.1-1.4.1-2.9.1-4.5zm0 32.6v-4.9H440v4.9h3.4zm-7.6-4.9h-3.5V47c0 .1.2.4.4.4h3.1v-5zm-10.8 0v4.9h3.4v-4.9H425zm-32.5 0v5h3.1c.1 0 .4-.2.4-.3v-4.6c-1.3-.1-2.4-.1-3.5-.1zm50.9-18.5h-3.1c-.2 0-.4.3-.4.5-.1.7 0 1.4 0 2.1v2.3h3.5v-4.9zm-7.6 0h-3.1c-.1 0-.3.2-.3.3v4.6h3.5c-.1-1.6-.1-3.2-.1-4.9zm-7.4 5V24H425v4.9h3.4zm-32.5 0v-4.6c0-.1-.2-.4-.3-.4h-3.2v5h3.5zm36.5-9.2h3.4v-4.9h-3.4v4.9zm-4 0v-4.9H425v4.9h3.4zm-36 0h3.1c.2 0 .4-.3.4-.4v-4.1c0-.2-.3-.4-.4-.4h-2.6c-.2 0-.4.2-.4.4-.1 1.4-.1 2.9-.1 4.5zm47.5-14.2v4.6c0 .1.2.4.3.4h3.2v-5h-3.5zm-11.5 5v-5H425v4.6c0 .1.2.4.4.4h3zm-36 27.6h3.1c.2 0 .4-.3.4-.5v-2.4-2h-3.5v4.9zm43.4 0v-4.9h-3.4v4.9h3.4zm4.1-4.9v4.9h3.4v-4.9h-3.4zm0-36.9V.8c0 .1.2.4.3.4h3.1v-4.9h-3.4zm-4.1 0h-3.4v4.9h3.4v-4.9zm-7.4 0H425v4.9h3.4v-4.9zM425 38.1h3.4v-4.9H425v4.9z"/><path class="st1" d="M408.8 5.5h3.5v40.8c0 1 0 1-1 1h-2.5V5.5zM395.9 5.5V10c0 .1-.2.4-.4.4h-3.1V5.5h3.5zM432.3 5.5h3.5v5h-3.1c-.1 0-.3-.3-.3-.4-.1-1.5-.1-3-.1-4.6zM443.4 14.7v4.7c0 .1-.3.4-.4.4h-2.6c-.2 0-.4-.3-.4-.4v-4.1c0-.2.3-.4.4-.4.9-.2 1.9-.2 3-.2zM443.4 47.3H440v-4.9h3.4v4.9zM435.8 42.4v5h-3.1c-.1 0-.4-.2-.4-.4v-4.6h3.5zM425 42.4h3.4v4.9H425v-4.9zM392.5 42.4h3.5V47c0 .1-.2.3-.4.3h-3.1v-4.9zM443.4 23.9v4.9h-3.5v-2.3-2.1c0-.2.3-.5.4-.5h3.1zM435.8 23.9v4.9h-3.5v-4.6c0-.1.2-.3.3-.3h3.2zM428.4 28.9H425V24h3.4v4.9zM395.9 28.9h-3.5v-5h3.2c.1 0 .3.2.3.4.1 1.5 0 3 0 4.6zM432.4 19.7v-4.9h3.4v4.9h-3.4zM428.4 19.7H425v-4.9h3.4v4.9zM392.4 19.7V15c0-.1.3-.4.4-.4h2.6c.2 0 .4.3.4.4v4.1c0 .2-.3.4-.4.4-.9.2-1.9.2-3 .2zM439.9 5.5h3.5v5h-3.2c-.1 0-.3-.2-.3-.4V5.5zM428.4 10.5h-3.1c-.1 0-.3-.2-.4-.4V5.5h3.4c.1 1.7.1 3.3.1 5zM392.4 38.1v-4.9h3.5v4.4c0 .2-.3.5-.4.5-1 .1-2 0-3.1 0zM435.8 38.1h-3.4v-4.9h3.4v4.9zM439.9 33.2h3.4v4.9h-3.4v-4.9zM439.9-3.7h3.5v4.9h-3.1c-.1 0-.3-.2-.3-.4-.1-1.4-.1-2.9-.1-4.5zM435.8-3.7v4.9h-3.4v-4.9h3.4zM428.4-3.7v4.9H425v-4.9h3.4zM425 38.1v-4.9h3.4v4.9H425z"/></g><g><path class="st1" d="M335.4 45.1h6.9v9.1h-6.9z"/><path class="st0" d="M344.3 54h-2.9v-8.1H336V54h-25.3v-.4-18.3c0-.3.1-.4.3-.5l9-4.5c.2-.1.4-.1.6 0 1.4.7 2.7 1.4 4.1 2.1.1.1.2.1.4.2V16h19.2v38zm-6.4-15.7v3.1h3.1v-3.1h-3.1zm-1.6 3.1v-3.1h-3.1v3.1h3.1zm-7.9-3.1v3.1h3.1v-3.1h-3.1zm12.7-4.7H338v3.1h3.1v-3.1zm-7.9 0v3.1h3.1v-3.1h-3.1zm-4.8 3.1h3.1v-3.1h-3.1v3.1zm12.7-7.8H338V32h3.1v-3.1zm-7.9 0V32h3.1v-3.1h-3.1zm-4.8 3.1h3.1v-3.1h-3.1V32zm12.7-7.8H338v3.1h3.1v-3.1zm-4.8 0h-3.1v3.1h3.1v-3.1zm-7.9 3.1h3.1v-3.1h-3.1v3.1zm9.5-7.8v3.1h3.1v-3.1h-3.1zm-1.6.1h-3.1v3.1h3.1v-3.1zm-7.9 3h3.1v-3.1h-3.1v3.1zm-6.9 20.2h-2.3v2.3h2.3v-2.3zm1.3-1.2h2.3v-2.3h-2.3v2.3zm-1.3.1v-2.3h-2.3v2.1c0 .1.2.2.2.2h2.1zm1.3 3.4h2.4v-1.6c0-.8.1-.7-.7-.7h-1.7v2.3zm-3.6 1.3v2.3h2.3v-2.3h-2.3zm3.6 0v2.3h2.3v-2.3h-2.3zm-7.2-1.3h2.3v-2.3h-2.3v2.3zm0-3.5h2.3v-2.3h-2.3v2.3zm2.3 7.1v-2.3h-2.3v2.3h2.3z"/><path class="st1" d="M337.9 38.3h3.1v3.1h-3.1v-3.1zM336.3 41.4h-3.1v-3.1h3.1v3.1zM328.4 38.3h3.1v3.1h-3.1v-3.1zM341.1 33.6v3.1H338v-3.1h3.1zM333.2 33.6h3.1v3.1h-3.1v-3.1zM328.4 36.7v-3.1h3.1v3.1h-3.1zM341.1 28.9V32H338v-3.1h3.1zM333.2 28.9h3.1V32h-3.1v-3.1zM328.4 32v-3.1h3.1V32h-3.1zM341.1 24.2v3.1H338v-3.1h3.1zM336.3 24.2v3.1h-3.1v-3.1h3.1zM328.4 27.3v-3.1h3.1v3.1h-3.1zM337.9 19.5h3.1v3.1h-3.1v-3.1zM336.3 19.6v3.1h-3.1v-3.1h3.1zM328.4 22.6v-3.1h3.1v3.1h-3.1zM321.5 42.8v2.3h-2.3v-2.3h2.3zM322.8 41.6v-2.3h2.3v2.3h-2.3zM321.5 41.7h-2.1c-.1 0-.2-.1-.2-.2v-2.1h2.3v2.3zM322.8 45.1v-2.3h1.7c.8 0 .7-.1.7.7v1.6h-2.4zM319.2 46.4h2.3v2.3h-2.3v-2.3zM322.8 46.4h2.3v2.3h-2.3v-2.3zM315.6 45.1v-2.3h2.3v2.3h-2.3zM315.6 41.6v-2.3h2.3v2.3h-2.3zM317.9 48.7h-2.3v-2.3h2.3v2.3z"/></g><g><path class="st0" d="M291.4 54.6h-13.1c-.8 0-1.2-.4-1.2-1.2v-7.5V28c0-.2-.1-.4-.2-.5-.4-.5-.5-1.1-.3-1.7.2-.6.7-1 1.3-1.1 2.2-.4 4.4-.7 6.6-1 2.6-.4 5.1-.8 7.7-1.2.8-.1 1.6-.3 2.4-.4.6-.1 1.3.3 1.7.9.3.6.3 1.4-.2 1.9-.2.2-.3.5-.3.7v6c0 .3.1.4.4.4l2.7.6c2 .5 4.1 1 6.1 1.5.7.2 1.2.6 1.4 1.3.2.7-.1 1.3-.6 1.8-.1.1-.2.3-.2.4v15.7c0 .9-.4 1.3-1.3 1.3h-12.9zm2.3-28.9h-.3c-2.3.3-4.5.7-6.8 1.1-2.3.4-4.5.7-6.8 1-.4.1-.5.2-.5.6v24h5.5V47h3.4v5.4h5.5V25.7zm7 26.7h2.8v-.3-14.4c0-.3-.1-.4-.4-.4l-5.4-1.2c-.6-.1-1.3-.3-1.9-.4v16.8h2.8v-2.7h2c.1.8.1 1.7.1 2.6z"/><path class="st1" d="M293.7 25.7v26.8h-5.5v-5.4h-3.4v5.4h-5.5v-.4-23.6c0-.4.1-.5.5-.6 2.3-.3 4.5-.7 6.8-1 2.3-.4 4.5-.7 6.8-1.1.1-.1.2-.1.3-.1zm-7.2 18.2h1.4c.2 0 .3-.1.3-.3v-2.7c0-.2-.1-.3-.3-.3h-2.8c-.2 0-.3.1-.3.3v2.7c0 .3.1.3.3.3h1.4zm-1.6-15.1V32h3.3v-3.2h-3.3zm0 5.9v3.2h3.2c.1 0 .2-.2.2-.2v-1.5-1.4c-1.2-.1-2.3-.1-3.4-.1zM300.7 52.4v-2.7h-2v2.7h-2.8V35.6c.7.1 1.3.3 1.9.4l5.4 1.2c.3.1.4.1.4.4V52.3c-1 .1-1.9.1-2.9.1zm0-13.8h-1.9v1.9h1.9v-1.9zm-2 3.6v1.7c0 .1.2.2.2.2h1.5c.1 0 .2-.1.2-.2v-1.7h-1.9zm.1 3.5v1.8h1.9v-1.8h-1.9z"/><path class="st0" d="M286.5 43.9h-1.3c-.2 0-.3 0-.3-.3v-2.7c0-.2.1-.3.3-.3h2.8c.2 0 .3.1.3.3v2.7c0 .2-.1.3-.3.3h-1.5zM284.9 28.8h3.3V32h-3.3v-3.2zM284.9 34.7h3.3v2.9c0 .1-.1.2-.2.2h-3.2c.1-.9.1-2 .1-3.1zM300.7 38.6v1.9h-1.9v-1.9h1.9zM298.7 42.2h2v1.7c0 .1-.1.2-.2.2H299c-.1 0-.2-.1-.2-.2-.1-.6-.1-1.2-.1-1.7zM298.8 45.7h1.9v1.8h-1.9v-1.8z"/></g><g><path class="st0" d="M267.9 53.4h-1.8-.1c-.6-.2-1-.7-1-1.3v-1.2-.2h-5.4V52c0 .6-.3 1.1-.9 1.3-.1 0-.2.1-.3.1h-1.8c-.1 0-.1 0-.2-.1-.6-.2-1-.7-1-1.3v-.9-.5c-.9-.1-1.4-.6-1.4-1.5V37.9c0-.6 0-1.2.1-1.7.4-1.9 2.1-3.1 4.1-3.1h5.8c.9 0 1.9 0 2.8.1 1.7.1 3.2 1.5 3.4 3.2.1.6.1 1.1.1 1.7v11.1c0 .3 0 .6-.2.8-.3.4-.7.6-1.1.6v1.3c0 .6-.4 1-.9 1.2 0 .3-.1.3-.2.3zm1.1-16.1h-13.6v8.1H269v-8.1zm-9.5-1.4h5.4v-1.3h-5.4v1.3zm-2.7 10.8c-.8 0-1.4.6-1.4 1.4 0 .7.6 1.3 1.4 1.3.7 0 1.4-.6 1.4-1.4-.1-.7-.7-1.3-1.4-1.3zm10.9 0c-.8 0-1.4.6-1.4 1.4 0 .7.6 1.3 1.3 1.3.8 0 1.4-.6 1.4-1.3 0-.8-.6-1.4-1.3-1.4z"/><path class="st2" d="M258.4 53.4c.1 0 .2-.1.3-.1.5-.2.9-.7.9-1.3v-1.3h5.4v1.4c0 .6.4 1.1 1 1.3h.1-7.7z"/><path class="st0" d="M251.3 39.1c.3-.6.8-.5 1.3-.5v4c-.5 0-1.1.1-1.3-.5v-3zM273.1 42.1c-.3.5-.4.6-1.3.5v-4c.9-.1 1-.1 1.3.5v3z"/><path class="st1" d="M269 37.3v8.1h-13.6v-8.1H269zM259.5 35.9v-1.3h5.4v1.3h-5.4zM256.8 46.7c.8 0 1.4.6 1.4 1.3 0 .7-.6 1.4-1.4 1.4-.8 0-1.4-.6-1.4-1.3 0-.8.6-1.4 1.4-1.4zM267.7 46.7c.7 0 1.4.6 1.3 1.4 0 .7-.6 1.3-1.4 1.3-.7 0-1.3-.6-1.3-1.3 0-.8.6-1.4 1.4-1.4z"/></g><path class="st0" d="M-4.4 53.2h789v3.1h-789z"/></svg>