<svg id="Layer_1" xmlns="http://www.w3.org/2000/svg" viewBox="0 -16 783 73"><style>.st0{fill:#FFFFFF;} .st1{fill:#82BC00;} .st2{fill:#E3EEC5;}</style><path class="st0" d="M-4.4-4.7h786.6v58.1H-4.4z"/><path class="st1" d="M214.4 55.7h-5.3v-6.6c-2-.6-3.8-.9-5.3-1.6-2.5-1.3-3.5-3.6-3.6-6.4 0-1-.4-2.2-1-3-3.2-4.4-1.2-10.3 4.1-11.7.8-.2 1.6-.8 2-1.5 3.3-4.7 9.3-4.7 12.6-.1.5.7 1.4 1.3 2.2 1.6 5.1 1.5 7.2 7.3 3.9 11.6-.5.6-1 1.4-1.1 2.1-.5 6.2-2 7.8-8.7 8.7.2 2.2.2 4.5.2 6.9zm-.2-9.5c4.4 1 7.7-1.8 7-5.5-.3-1.6.3-2.4 1.1-3.7.9-1.4 1.6-3.7 1.1-5.2s-2.4-3-4-3.5c-1.4-.5-2.2-.8-2.9-2.1-.9-1.9-2.5-2.8-4.6-2.8-2.2 0-4 .9-4.8 2.9-.6 1.4-1.3 1.7-2.7 2-4.5.9-6.2 5.7-3.1 8.9 1.2 1.2 1.4 2.1 1.1 3.7-.5 2.9 1.9 5.6 4.8 5.9 1.5.1 2.2-.5 1.5-1.9-.7-1.6-1.7-3-2.7-4.7 2.4-2.5 2.8 1.3 4.3 1.6.4-1.3-.7-4.2 2.7-3l.3 3c1.5-.5 2-4 4.1-1.5-1.2 2-2.2 3.9-3.2 5.9z"/><path class="st2" d="M214.2 46.2c1.1-2 2.1-3.9 3.2-6.1-2.1-2.4-2.6 1-4.1 1.5l-.3-3c-3.4-1.1-2.2 1.7-2.7 3-1.6-.3-2-4.1-4.3-1.6 1 1.7 1.9 3.2 2.7 4.7.6 1.4-.1 2-1.5 1.9-2.9-.3-5.3-3-4.8-5.9.3-1.5.1-2.5-1.1-3.7-3.1-3.2-1.4-8 3.1-8.9 1.3-.3 2.1-.6 2.7-2 .8-2 2.6-2.9 4.8-2.9 2.1 0 3.8.9 4.6 2.8.6 1.4 1.5 1.7 2.9 2.1 1.6.5 3.5 2 4 3.5s-.2 3.7-1.1 5.2c-.8 1.2-1.4 2.1-1.1 3.7.6 3.9-2.7 6.7-7 5.7z"/><path class="st1" d="M196.4 55.7h-4.3v-5.4c-1.6-.5-3.1-.7-4.3-1.3-2-1.1-2.8-2.9-2.9-5.2 0-.8-.3-1.8-.8-2.5-2.6-3.6-1-8.3 3.3-9.5.6-.2 1.3-.7 1.7-1.2 2.7-3.8 7.6-3.9 10.3 0 .4.6 1.1 1.1 1.8 1.3 4.2 1.2 5.8 6 3.1 9.5-.4.5-.8 1.1-.9 1.7-.4 5.1-1.6 6.4-7.1 7.1.1 1.7.1 3.6.1 5.5zm-.2-7.7c3.6.8 6.2-1.5 5.6-4.5-.2-1.3.3-2 .9-3 .7-1.2 1.3-3 .9-4.2-.4-1.2-1.9-2.4-3.2-2.9-1.1-.4-1.8-.6-2.3-1.7-.7-1.5-2-2.3-3.8-2.3s-3.3.7-3.9 2.3c-.5 1.1-1.1 1.4-2.2 1.6-3.7.7-5.1 4.7-2.5 7.2 1 1 1.1 1.7.9 3-.4 2.4 1.5 4.6 3.9 4.8 1.2.1 1.8-.4 1.2-1.5-.6-1.3-1.4-2.4-2.2-3.9 1.9-2.1 2.3 1.1 3.5 1.3.4-1.1-.6-3.4 2.2-2.5.1.8.2 1.7.3 2.4 1.2-.4 1.6-3.3 3.3-1.3-1 2-1.8 3.5-2.6 5.2z"/><path class="st2" d="M196.2 48c.9-1.7 1.7-3.2 2.6-5-1.7-2-2.1.8-3.3 1.3l-.3-2.4c-2.8-.9-1.8 1.4-2.2 2.5-1.3-.2-1.6-3.3-3.5-1.3.8 1.4 1.6 2.6 2.2 3.9.5 1.1 0 1.6-1.2 1.5-2.4-.2-4.3-2.5-3.9-4.8.2-1.3.1-2-.9-3-2.5-2.6-1.2-6.5 2.5-7.2 1.1-.2 1.7-.5 2.2-1.6.7-1.6 2.1-2.3 3.9-2.3 1.7 0 3.1.7 3.8 2.3.5 1.1 1.2 1.4 2.3 1.7 1.3.4 2.8 1.7 3.2 2.9.4 1.2-.1 3-.9 4.2-.6 1-1.1 1.7-.9 3 .5 2.8-2.1 5.1-5.6 4.3z"/><path class="st1" d="M766.3 24c-.7.3-1.3.5-2.2.8 2.5-4 4.8-7.9 6.2-12.7 1.5 4.8 3.7 8.9 6.5 12.8-.9-.4-1.5-.7-2.2-1l-.2.2c1.4 3 2.9 6 4.4 9.2l-2.2-1.1 4.1 8.2c-.8-.3-1.4-.6-2.1-.8 0 .1-.1.1-.1.2 1.2 2.1 2.4 4.2 3.7 6.5-7.9 2.4-15.7 2.4-23.6 0 1.3-2.2 2.5-4.4 3.8-6.8-.9.3-1.5.6-2.4 1 1.4-2.7 2.6-5.3 3.9-7.9 0-.1-.1-.1-.1-.2-.6.3-1.2.5-1.9.9.8-1.7 1.6-3.3 2.3-4.9.6-1.3 1.2-2.5 1.8-3.8.2-.1.2-.4.3-.6.1 0 .1 0 0 0 .1 0 .1 0 0 0zM773.6 54.4h-6.7c.5-.8 1-1.5 1.3-2.3.3-.8.2-1.8.3-2.8h2.5c.1 0 .3.2.4.3.9 1.6 1.5 3.2 2.2 4.8zM380.2 33.4c-.5.2-.9.4-1.5.6 1.7-2.7 3.3-5.4 4.3-8.8 1 3.3 2.6 6.1 4.4 8.9-.6-.3-1.1-.5-1.5-.7l-.1.1c1 2.1 2 4.1 3 6.3-.5-.3-1-.5-1.5-.7 1 1.9 1.8 3.8 2.8 5.7-.5-.2-1-.4-1.4-.6l-.1.1c.8 1.5 1.6 2.9 2.5 4.5-5.4 1.6-10.8 1.7-16.2 0 .9-1.5 1.7-3 2.6-4.7-.6.2-1.1.4-1.6.7.9-1.9 1.8-3.7 2.7-5.4l-.1-.1c-.4.2-.8.4-1.3.6.6-1.2 1.1-2.3 1.6-3.4.4-.9.8-1.7 1.3-2.6 0-.2 0-.3.1-.5zM385.2 54.4h-4.5c.3-.5.7-1 .9-1.6.2-.6.2-1.3.2-1.9h1.7c.1 0 .2.1.2.2.6 1.1 1.1 2.2 1.5 3.3zM225.7 51.1v-5.6c0-.1.1-.3.1-.4.2-.7.6-1.1 1.3-1.4.3-.1.4-.2.5-.5.4-1.2.9-2.4 1.4-3.5.4-1.1 1.1-1.6 2.4-1.7h8.1c1.2 0 1.9.5 2.4 1.7.4 1 .8 2 1.1 3 .2.5.3 1 1 1.2.1 0 .3.2.4.3.3.4.5.8.7 1.2v5.7h-1.5v.9c0 .4 0 .8-.1 1.2-.1.9-1.1 1.4-1.9 1-.7-.3-.9-.8-.9-1.5v-1.5h-10.5v1.9c0 .6-.4 1-1 1.2-.5.2-1 .1-1.4-.3-.4-.4-.5-.8-.5-1.4v-1.5h-1.6zm16-7.4c-.4-1.1-.8-2.2-1.2-3.2-.2-.6-.4-.8-1.1-.8h-7.9c-.7 0-.9.1-1.1.8-.4 1-.7 1.9-1.1 2.9 0 .1-.1.2-.1.3h12.5zM228.8 48c.7 0 1.3-.6 1.3-1.3 0-.7-.6-1.4-1.3-1.4s-1.3.6-1.3 1.3c-.1.7.5 1.4 1.3 1.4zm14.6-1.4c0-.7-.6-1.4-1.3-1.4s-1.3.6-1.3 1.4c0 .7.6 1.3 1.3 1.3.7.1 1.3-.5 1.3-1.3z"/><path class="st2" d="M241.7 43.7h-12.5c0-.1.1-.2.1-.3.4-1 .7-1.9 1.1-2.9.2-.6.4-.8 1.1-.8h7.9c.7 0 .9.1 1.1.8.4 1 .8 2.1 1.2 3.2zM228.8 48c-.7 0-1.3-.6-1.3-1.4 0-.7.6-1.3 1.3-1.3s1.3.6 1.3 1.4c0 .7-.6 1.3-1.3 1.3zM243.4 46.6c0 .7-.6 1.4-1.3 1.4s-1.3-.6-1.3-1.3c0-.7.6-1.4 1.3-1.4.6 0 1.3.6 1.3 1.3z"/><path class="st1" d="M740.1 40.2H758v16.2h-17.9z"/><path class="st2" d="M742.6 43.1h3.2v3.2h-3.2zM747.5 43.1h3.2v3.2h-3.2zM752.3 43.1h3.2v3.2h-3.2zM742.6 48.4h3.2v6.3h-3.2zM747.5 48.4h3.2v6.3h-3.2zM752.3 48.4h3.2v6.3h-3.2z"/><path class="st1" d="M759.2 41.2h-20.4l10.3-10.1zM646.4 16.3h11.5v9.2h-11.5z"/><path class="st1" d="M659.5 16.8h-14.7l7.4-6.3z"/><ellipse class="st2" cx="749.1" cy="38.1" rx="1.9" ry="1.9"/><ellipse class="st2" cx="652.2" cy="19.6" rx="2.7" ry="2.7"/><path class="st1" d="M715.6 11h22.2v44.2h-22.2z"/><path class="st2" d="M717.8 14h2.3v3.7h-2.3zM722.9 14h2.3v3.7h-2.3zM727.9 14h2.3v3.7h-2.3zM732.9 14h2.3v3.7h-2.3zM717.8 20.2h2.3v3.7h-2.3zM722.9 20.2h2.3v3.7h-2.3zM727.9 20.2h2.3v3.7h-2.3zM732.9 20.2h2.3v3.7h-2.3zM717.8 26.4h2.3v3.7h-2.3zM722.9 26.4h2.3v3.7h-2.3zM727.9 26.4h2.3v3.7h-2.3zM732.9 26.4h2.3v3.7h-2.3zM717.8 32.6h2.3v3.7h-2.3zM722.9 32.6h2.3v3.7h-2.3zM727.9 32.6h2.3v3.7h-2.3zM732.9 32.6h2.3v3.7h-2.3zM717.8 38.8h2.3v3.7h-2.3zM722.9 38.8h2.3v3.7h-2.3zM727.9 38.8h2.3v3.7h-2.3zM732.9 38.8h2.3v3.7h-2.3zM717.8 45h2.3v3.7h-2.3zM722.9 45h2.3v3.7h-2.3zM727.9 45h2.3v3.7h-2.3zM732.9 45h2.3v3.7h-2.3zM717.8 51.2h2.3v3.7h-2.3zM722.9 51.2h2.3v3.7h-2.3zM727.9 51.2h2.3v3.7h-2.3zM732.9 51.2h2.3v3.7h-2.3z"/><path class="st1" d="M695.5 30.2h21.4v26.2h-21.4z"/><path class="st2" d="M698.2 32.7h15.7v2.6h-15.7zM698.2 37.6h15.7v2.6h-15.7zM698.2 42.4h15.7V45h-15.7zM698.2 47.3h15.7v2.6h-15.7zM698.2 52.1h15.7v2.6h-15.7z"/><path class="st1" d="M666.2 18.7h4.9v37.8h-4.9z"/><path class="st2" d="M671.7 56V19.4l10.6 3.6v33z"/><path class="st1" d="M672.3 20.1l9.6 3.3v32.1h-9.6V20.1m-1.1-1.4v37.8h11.6V22.7l-11.6-4z"/><path class="st1" d="M673.7 23v2.7l6.7 2.4v-2.8zM673.7 28.1v3l6.7 1.6v-2.6zM675.5 33.6h4.9v21.9h-4.9z"/><path class="st2" d="M681 54.9V34.3l10.6 3.6v17z"/><path class="st1" d="M681.5 35l9.6 3.3v16.2h-9.6V35m-1-1.4v21.9h11.6v-18l-11.6-3.9z"/><path class="st1" d="M682.9 37.9v2.7l6.8 2.4v-2.8zM682.9 43v3l6.8 1.6V45zM368.5 11.1h5.9v45.4h-5.9z"/><path class="st2" d="M355.2 55.8V16.3l12.7-4.4v43.9z"/><path class="st1" d="M367.3 12.8v42.4h-11.5V16.7l11.5-3.9m1.2-1.7l-13.9 4.8v40.6h13.9V11.1z"/><path class="st1" d="M365.6 16.3v3.3l-8.2 2.8V19zM365.6 22.4V26l-8.2 2v-3.2zM357.3 28.9h5.9v26.3h-5.9z"/><path class="st2" d="M344 54.6V34.2l12.7-4.4v24.8z"/><path class="st1" d="M356.1 30.6V54h-11.5V34.6l11.5-4m1.2-1.7l-13.9 4.8v21.5h13.9V28.9z"/><path class="st1" d="M354.4 34.1v3.3l-8.1 2.8v-3.3zM354.4 40.2v3.6l-8.1 2v-3.1zM640.7 23.8h23v31.9h-23z"/><path class="st2" d="M644 28.1h4v4h-4zM650.2 28.1h4v4h-4zM656.3 28.1h4v4h-4zM644 34.2h4v4h-4zM650.2 34.2h4v4h-4zM656.3 34.2h4v4h-4zM644 40.3h4v4h-4zM650.2 40.3h4v4h-4zM656.3 40.3h4v4h-4zM644 46.4h4v4.1h-4zM650.2 46.4h4v8.3h-4zM656.3 46.4h4v4.1h-4z"/><g><path class="st2" d="M583.5 18.7h13.4v37.1h-13.4zM611 6.5h12.6v50.9H611z"/><path class="st1" d="M622.8 8.3c-3.5.5-7 1-10.4 1.5V57h-16.5V21.1c-1.2.2-2.3.3-3.5.5-2.1.3-4.2.7-6.2.9-.5.1-.6.3-.6.7v33.7H577v-2.8h3c.6 0 .8-.2.8-.8V19.4v-1.1c1.7-.3 3.4-.5 5-.8 4.5-.7 9.2-1.3 13.7-2.1 1.2-.2 2.1.2 3.2.5.9.2 1.3.6 1.4 1.6.6 5.1 1.3 10.3 1.9 15.4.2 1.3.3 2.6.5 3.9.1.5.6.9.9 1.3.1 0 .1-.1.2-.1v-.6V6.1c0-.5.1-.7.7-.8 5.2-.7 10.4-1.5 15.6-2.3 1-.1 2-.3 2.9-.4.5-.1 1.1 0 1.6.1 2.4.8 4.7 1.6 7.2 2.4.4.1.6.3.6.8V54h2.9v2.8h-16.2c-.1-16.6-.1-31.5-.1-48.5z"/><path class="st1" d="M618.4 48.2v-3.6h2.2v3.6h-2.2zM620.6 14.9c-.7.1-1.5.2-2.2.3v-3.7c.7-.1 1.4-.2 2.2-.3v3.7zM618.4 21.7v-3.6c.7-.1 1.4-.2 2.3-.2v2.8s0 .9-.9 1c-.4 0-.8.1-1.2.1-.1 0-.1-.1-.2-.1zM618.4 37.9c.8 0 1.5-.1 2.2-.1v3.7h-2.2v-3.6zM620.6 24.5v3.7c-.7.1-1.5.1-2.2.2v-3.7c.7-.1 1.5-.1 2.2-.2zM618.4 31.3c.7 0 1.5-.1 2.2-.1v3.7h-2.2v-3.6zM591.4 47.5v-3.7c.7 0 1.4-.1 2.2-.1v3.7c-.7 0-1.5.1-2.2.1zM591.4 30.6c.7-.1 1.4-.1 2.2-.2v3.7c-.7.1-1.4.1-2.2.2v-3.7zM593.6 37v3.7c-.7 0-1.4.1-2.2.1v-3.4c0-.1.2-.2.3-.3.6 0 1.2 0 1.9-.1zM593.6 23.7v3.7c-.7.1-1.4.2-2.2.3v-3.4c0-.1.2-.3.3-.3.6-.2 1.2-.2 1.9-.3zM593.6 54h-2.2v-3.6h2.2V54zM614.2 44.6h2.2v3.6h-1.9c-.1 0-.3-.2-.3-.3v-3.3zM587.2 54v-3.6h2.1V54h-2.1zM587.2 34.6V31c.7-.1 1.4-.1 2.2-.2v3.4c0 .1-.2.2-.3.3-.6 0-1.2.1-1.9.1zM614.2 35.2v-3.3c0-.1.2-.3.4-.4.6-.1 1.1-.1 1.8-.1V35c-.8.1-1.5.1-2.2.2zM589.4 37.3V41c-.7 0-1.4.1-2.1.1v-3.6c.6-.1 1.3-.1 2.1-.2zM614.2 28.7v-3.6c.7-.1 1.4-.1 2.2-.2v2.5c0 1.2 0 1.2-1.1 1.2-.4 0-.7 0-1.1.1zM587.2 24.5l2.1-.3v3.7c-.7.1-1.4.1-2.1.2v-3.6zM616.3 15.4c-.7.1-1.4.2-2.2.3v-3.4c0-.1.2-.3.3-.3.6-.1 1.2-.2 1.9-.2v3.6zM616.4 18.3V22c-.7.1-1.4.1-2.1.2v-3.6c.6-.1 1.3-.2 2.1-.3zM587.2 47.6v-3.7h2.1v3.6c-.6.1-1.3.1-2.1.1zM614.2 38h2.1v3.5h-2.1V38z"/></g><g><path class="st2" d="M522.5 20.9h48.8v33.9h-48.8zM540.3 2.9H555v13.5h-14.7z"/><path class="st1" d="M555.1 46.3h14.7c.5 0 .7-.1.7-.6V22.8v-.4h-46.4v23.9h15.3v8.5H521.8c-1 0-1.2-.2-1.2-1.2V23.1c0-.6-.1-.9-.8-.8-.3 0-.9-.1-.9-.2-.1-.5-.2-1.3.1-1.6 1.5-1.6 3.1-3.2 4.7-4.7.2-.2.7-.3 1-.3H537.6v-12c-.4 0-.8.1-1.1 0-.2 0-.5-.3-.5-.5-.1-.7 0-1.3.6-1.9 1.4-1.3 2.6-2.6 4-3.9.3-.3.8-.5 1.2-.5h10.6c.4 0 .9.2 1.2.5 1.5 1.4 2.9 2.8 4.3 4.3.3.3.5 1.4.3 1.8-.1.1-.4.2-.6.2h-1.1v12h13c.4 0 .9.2 1.2.5 1.4 1.4 2.8 2.8 4.3 4.2.3.3.5 1.4.3 1.8-.1.1-.3.2-.5.2h-1.1v31.2c0 1.1-.1 1.3-1.3 1.3h-16.8c-.6 0-.8-.2-.8-.8v-7.1c.2-.1.3-.2.3-.5zM541.3 3.6v11.9h12v-.3V4.1c0-.5-.3-.5-.6-.5H541.3z"/><path class="st1" d="M544.8 47.9V36.1h5v11.8h-5zM558.4 42.8h-4.7c-.1 0-.4-.3-.4-.4v-6c0-.1.2-.4.3-.4h4.7c.1 2.2.1 4.5.1 6.8zM562 36.1h5v6.7h-5v-6.7zM536.3 36.1h5v6.7h-5v-6.7zM532.6 36.1v6.7h-5v-6.7h5zM567.1 25.8v6.7h-5v-6.7h5zM553.4 32.5v-6.7h5v6.7h-5zM549.9 25.8v6.7h-5v-6.7h5zM536.2 32.5v-6.7h5v6.7h-5zM527.6 32.5v-6.7h5v6.7h-5zM541.3 51.3v-1.6h11.9v1.6h-11.9zM541.3 53.1h11.9v1.6h-11.9v-1.6zM544.8 13.8V7.1h5v6.7h-5z"/></g><g><path class="st1" d="M477.9 56V25.6c-.6.4-1 .8-1.5 1.2-1-1.5-2-2.9-3.1-4.4 7.2-5.5 14.2-10.9 21.4-16.4 2.1 1.6 4.2 3.2 6.6 4.9V6h5.8V14.9c0 .4.1.7.5 1 2.6 2 5.3 4.1 8 6.1.2.1.3.3.5.4-1 1.5-2 2.9-3.1 4.4-.5-.4-.9-.7-1.5-1.2V56h-33.6zm19.8-13.8h-5.6v11.2h5.6V42.2zm-9.3 0h-5.6v5.2h5.6v-5.2zm13.1 5.2h5.6v-5.2h-5.6v5.2zm-13.2-22.8h-5.6v5.1h5.6v-5.1zm3.6 5.2h5.6v-5.2h-5.6v5.2zm9.6-5.2v5.2h5.6v-5.2h-5.6zm-19 8.7v5.2h5.6v-5.2h-5.6zm15.1 5.2v-5.2H492v5.2h5.6zm3.9-5.2v5.2h5.6v-5.2h-5.6z"/><path class="st2" d="M497.7 42.2v11.2h-5.6V42.2h5.6zM488.4 42.2v5.2h-5.6v-5.2h5.6zM501.5 47.4v-5.2h5.6v5.2h-5.6zM488.3 24.6v5.1h-5.6v-5.1h5.6zM491.9 29.8v-5.2h5.6v5.2h-5.6zM501.5 24.6h5.6v5.2h-5.6v-5.2zM482.5 33.3h5.6v5.2h-5.6v-5.2zM497.6 38.5H492v-5.2h5.6v5.2zM501.5 33.3h5.6v5.2h-5.6v-5.2z"/></g><g><path class="st1" d="M478.9 55.7h-6v-7.5c-2.3-.7-4.3-1-6-1.9-2.9-1.5-4-4.1-4.1-7.3 0-1.2-.4-2.5-1.1-3.5-3.7-5.1-1.4-11.7 4.7-13.4.9-.2 1.8-.9 2.3-1.7 3.8-5.4 10.6-5.4 14.5-.1.6.8 1.6 1.5 2.6 1.8 5.9 1.7 8.2 8.4 4.4 13.3-.5.7-1.1 1.6-1.2 2.4-.5 7.1-2.2 8.9-9.9 9.9-.2 2.6-.2 5.2-.2 8zm-.3-10.9c5 1.1 8.8-2.1 8-6.3-.3-1.9.4-2.8 1.3-4.2 1-1.7 1.8-4.2 1.2-5.9s-2.7-3.4-4.6-4c-1.6-.5-2.6-.9-3.3-2.4-1-2.2-2.9-3.2-5.3-3.2-2.5 0-4.6 1-5.5 3.3-.6 1.6-1.5 2-3.1 2.3-5.2 1-7.2 6.6-3.5 10.2 1.3 1.3 1.6 2.5 1.3 4.2-.6 3.3 2.1 6.5 5.5 6.8 1.7.2 2.5-.5 1.8-2.1-.8-1.8-1.9-3.4-3-5.4 2.7-2.9 3.2 1.5 5 1.8.5-1.5-.8-4.8 3.1-3.5.1 1.2.2 2.3.4 3.4 1.7-.6 2.2-4.6 4.7-1.8-1.7 2.3-2.8 4.5-4 6.8z"/><path class="st2" d="M478.6 44.8c1.2-2.3 2.4-4.5 3.7-7-2.5-2.8-3 1.2-4.7 1.8-.1-1.1-.2-2.2-.4-3.4-3.9-1.3-2.6 2-3.1 3.5-1.8-.3-2.3-4.7-5-1.8 1.1 2 2.2 3.6 3 5.4.7 1.6-.1 2.3-1.8 2.1-3.3-.3-6-3.5-5.5-6.8.3-1.8.1-2.9-1.3-4.2-3.6-3.6-1.6-9.2 3.5-10.2 1.5-.3 2.4-.7 3.1-2.3.9-2.3 3-3.3 5.5-3.3 2.4 0 4.3 1.1 5.3 3.2.7 1.6 1.7 1.9 3.3 2.4 1.8.6 4 2.3 4.6 4s-.2 4.3-1.2 5.9c-.9 1.4-1.6 2.4-1.3 4.2 1.1 4.4-2.7 7.7-7.7 6.5z"/></g><g><path class="st1" d="M382.9 56.4v-1.9h6.4V3c-1.4-.3-1.4-.3-1.4-1.8V-.3h29.8c0 1 .1 1.9 0 2.9 0 .2-.6.3-1 .5v22.2c0 .7.1.9.8.9 1.4-.1 2.9 0 4.4 0v-1-32.7c0-.7.2-.9.8-1.1 7.6-2 15.1-4.1 22.7-6.2.2-.1.5-.1.8-.2v69.5h6.6v2c-23.3-.1-46.5-.1-69.9-.1zm25.8-49.9v41.9h2.5c1 0 1 0 1-1v-40-.9h-3.5zm-12.8 0h-3.5v4.9h3.1c.1 0 .3-.2.3-.4.1-1.5.1-3 .1-4.5zm36.4 0v4.6c0 .1.2.4.3.4h3.1v-5h-3.4zm11 9.1h-3c-.2 0-.4.3-.4.4v4.1c0 .2.3.4.4.4h2.6c.2 0 .4-.2.4-.4v-4.5zm0 32.7v-4.9h-3.4v4.9h3.4zm-7.5-4.9h-3.5V48c0 .1.2.4.4.4h3.1v-5zm-10.8 0v4.9h3.4v-4.9H425zm-32.6 0v5h3.1c.1 0 .4-.2.4-.3v-4.6c-1.2-.1-2.3-.1-3.5-.1zm50.9-18.5h-3c-.2 0-.4.3-.4.5-.1.7 0 1.4 0 2.1v2.3h3.5c-.1-1.6-.1-3.2-.1-4.9zm-7.5 0h-3.1c-.1 0-.3.2-.3.3v4.6h3.4v-4.9zm-7.5 5V25h-3.4v4.9h3.4zm-32.4 0v-4.6c0-.1-.2-.4-.3-.4h-3.2v5h3.5zm36.4-9.3h3.4v-4.9h-3.4v4.9zm-4 0v-5H425v5h3.3zm-35.9.1h3c.2 0 .4-.3.4-.4v-4.1c0-.2-.3-.4-.4-.4h-2.6c-.2 0-.4.2-.4.4v4.5zm47.4-14.2v4.6c0 .1.2.4.3.4h3.2v-5h-3.5zm-11.5 4.9v-5h-3.4V11c0 .1.2.4.3.4 1.1.1 2.1 0 3.1 0zm-35.9 27.7h3c.2 0 .4-.3.4-.5v-2.4-2h-3.5c.1 1.6.1 3.2.1 4.9zm43.4 0v-4.9h-3.4v4.9h3.4zm4.1-4.9v4.9h3.4v-4.9h-3.4zm-.1-36.9v4.5c0 .1.2.4.3.4h3.1v-4.9h-3.4zm-4 0h-3.4v4.9h3.4v-4.9zm-7.4-.1H425v4.9h3.4v-4.9zM425 39.1h3.4v-4.9H425v4.9z"/><path class="st2" d="M408.7 6.5h3.5v40.9c0 1 0 1-1 1h-2.5V6.5zM395.9 6.5v4.6c0 .1-.2.4-.3.4h-3.1V6.6c1-.1 2.1-.1 3.4-.1zM432.3 6.5h3.4v5h-3.1c-.1 0-.3-.3-.3-.4-.1-1.6 0-3.1 0-4.6zM443.3 15.6v4.7c0 .1-.3.4-.4.4h-2.6c-.2 0-.4-.3-.4-.4v-4.1c0-.2.3-.4.4-.4 1-.2 1.9-.2 3-.2zM443.3 48.3h-3.4v-4.9h3.4v4.9zM435.8 43.4v5h-3.1c-.1 0-.4-.2-.4-.4v-4.6h3.5zM425 43.4h3.4v4.9H425v-4.9zM392.4 43.4h3.5V48c0 .1-.2.3-.4.3h-3.1v-4.9zM443.3 24.9v4.9h-3.5v-2.3-2.1c0-.2.3-.5.4-.5h3.1zM435.8 24.9v4.9h-3.4v-4.6c0-.1.2-.3.3-.3h3.1zM428.3 29.9h-3.4V25h3.4v4.9zM395.9 29.9h-3.4v-5h3.2c.1 0 .3.2.3.4-.1 1.5-.1 3-.1 4.6zM432.3 20.6v-4.9h3.4v4.9h-3.4zM428.3 20.6H425v-5h3.3v5zM392.4 20.7V16c0-.1.3-.4.4-.4h2.6c.2 0 .4.3.4.4v4.1c0 .2-.3.4-.4.4-1 .2-1.9.2-3 .2zM439.8 6.5h3.5v5h-3.2c-.1 0-.3-.2-.3-.4V6.5zM428.3 11.4h-3c-.1 0-.3-.2-.3-.4V6.4h3.4c-.1 1.7-.1 3.3-.1 5zM392.4 39.1v-4.9h3.5v4.4c0 .2-.3.5-.4.5h-3.1zM435.8 39.1h-3.4v-4.9h3.4v4.9zM439.9 34.2h3.4v4.9h-3.4v-4.9zM439.8-2.7h3.5v4.9h-3.1c-.1 0-.3-.2-.3-.4-.1-1.5-.1-3-.1-4.5zM435.8-2.7v4.9h-3.4v-4.9h3.4zM428.4-2.8v4.9H425v-4.9h3.4zM425 39.1v-4.9h3.4v4.9H425z"/></g><g><path class="st2" d="M335.4 46.1h7v9.1h-7z"/><path class="st1" d="M344.3 55h-2.8v-8.1h-5.3V55h-25.3v-.4-18.4c0-.3.1-.4.3-.5 3-1.5 5.9-3 9-4.5.2-.1.4-.1.6 0 1.4.7 2.7 1.4 4.1 2.1.1.1.2.1.4.2V16.9h19.3c-.3 12.7-.3 25.4-.3 38.1zm-6.4-15.7v3.1h3.1v-3.1h-3.1zm-1.6 3.1v-3.1h-3.1v3.1h3.1zm-7.9-3.1v3.1h3.1v-3.1h-3.1zm12.6-4.7h-3.1v3.1h3.1v-3.1zm-7.9 0v3.1h3.1v-3.1h-3.1zm-4.7 3.1h3.1v-3.1h-3.1v3.1zm12.6-7.8h-3.1V33h3.1v-3.1zm-7.9 0V33h3.1v-3.1h-3.1zm-4.7 3.1h3.1v-3.1h-3.1V33zm12.6-7.8h-3.1v3.1h3.1v-3.1zm-4.7 0h-3.1v3.1h3.1v-3.1zm-7.9 3.1h3.1v-3.1h-3.1v3.1zm9.5-7.8v3.1h3.1v-3.1h-3.1zm-1.6 0h-3.1v3.1h3.1v-3.1zm-7.9 3.1h3.1v-3.1h-3.1v3.1zm-6.8 20.2h-2.3v2.3h2.3v-2.3zm1.2-1.2h2.3v-2.3h-2.3v2.3zm-1.3 0v-2.3h-2.3v2.1c0 .1.2.2.2.2h2.1zm1.3 3.5h2.3v-1.6c0-.8.1-.7-.7-.7h-1.7c.1.8.1 1.6.1 2.3zm-3.6 1.2v2.3h2.3v-2.3h-2.3zm3.6 0v2.3h2.3v-2.3h-2.3zm-7.2-1.2h2.3v-2.3h-2.3v2.3zm0-3.5h2.3v-2.3h-2.3v2.3zm2.3 7.1v-2.3h-2.3v2.3h2.3z"/><path class="st2" d="M337.9 39.3h3.1v3.1h-3.1v-3.1zM336.3 42.4h-3.1v-3.1h3.1v3.1zM328.4 39.3h3.1v3.1h-3.1v-3.1zM341 34.6v3.1h-3.1v-3.1h3.1zM333.1 34.6h3.1v3.1h-3.1v-3.1zM328.4 37.7v-3.1h3.1v3.1h-3.1zM341 29.9V33h-3.1v-3.1h3.1zM333.1 29.9h3.1V33h-3.1v-3.1zM328.4 33v-3.1h3.1V33h-3.1zM341 25.2v3.1h-3.1v-3.1h3.1zM336.3 25.2v3.1h-3.1v-3.1h3.1zM328.4 28.3v-3.1h3.1v3.1h-3.1zM337.9 20.5h3.1v3.1h-3.1v-3.1zM336.3 20.5v3.1h-3.1v-3.1h3.1zM328.4 23.6v-3.1h3.1v3.1h-3.1zM321.6 43.8v2.3h-2.3v-2.3h2.3zM322.8 42.6v-2.3h2.3v2.3h-2.3zM321.5 42.6h-2.1c-.1 0-.2-.1-.2-.2v-2.1h2.3v2.3zM322.8 46.1v-2.3h1.7c.8 0 .7-.1.7.7v1.6h-2.4zM319.2 47.3h2.3v2.3h-2.3v-2.3zM322.8 47.3h2.3v2.3h-2.3v-2.3zM315.6 46.1v-2.3h2.3v2.3h-2.3zM315.6 42.6v-2.3h2.3v2.3h-2.3zM317.9 49.7h-2.3v-2.3h2.3v2.3z"/></g><g><path class="st1" d="M291.4 55.6h-13.1c-.8 0-1.2-.4-1.2-1.2v-7.5V29c0-.2-.1-.4-.2-.5-.4-.5-.5-1.1-.3-1.7s.7-1 1.3-1.1c2.2-.4 4.4-.7 6.7-1 2.5-.4 5.1-.8 7.7-1.2.8-.1 1.6-.3 2.4-.4.6-.1 1.3.3 1.6.9.3.6.3 1.4-.2 1.9-.2.2-.3.5-.3.7v6c0 .3.1.4.4.4l2.7.6c2 .5 4.1 1 6.1 1.5.7.2 1.2.6 1.4 1.3.2.7-.1 1.3-.6 1.8-.1.1-.2.3-.2.4v15.7c0 .9-.4 1.3-1.3 1.3h-12.9zm2.2-29h-.3c-2.3.4-4.5.7-6.9 1.1-2.3.4-4.5.7-6.9 1-.4.1-.5.2-.5.6v24h5.5v-5.4h3.3v5.4h5.5c.3-8.8.3-17.7.3-26.7zm7.1 26.8h2.8v-.3-14.4c0-.3-.1-.4-.4-.4-1.8-.4-3.6-.8-5.3-1.2-.6-.1-1.3-.3-1.9-.4v16.8h2.8v-2.7h2v2.6z"/><path class="st2" d="M293.6 26.6v26.8h-5.5V48h-3.3v5.4h-5.5V53 29.4c0-.4.1-.5.5-.6 2.3-.3 4.5-.7 6.9-1 2.3-.4 4.5-.7 6.9-1.2-.2.1-.1.1 0 0zm-7.1 18.3h1.4c.2 0 .3-.1.3-.3v-2.7c0-.2-.1-.3-.3-.3h-2.8c-.2 0-.3.1-.3.3v2.7c0 .3.1.3.3.3h1.4zm-1.7-15.1V33h3.3v-3.2h-3.3zm0 5.9v3.2h3.1c.1 0 .2-.2.2-.2v-1.5-1.4c-1.1-.1-2.1-.1-3.3-.1zM300.7 53.4v-2.7h-2v2.7h-2.8V36.6c.7.1 1.3.3 1.9.4 1.8.4 3.6.8 5.3 1.2.3.1.4.1.4.4V53.3c-.9.1-1.8.1-2.8.1zm0-13.8h-1.9v1.9h1.9v-1.9zm-2 3.5v1.7c0 .1.2.2.2.2h1.5c.1 0 .2-.1.2-.2v-1.7h-1.9zm0 3.6v1.8h1.9v-1.8h-1.9z"/><path class="st1" d="M286.5 44.9h-1.3c-.2 0-.3 0-.3-.3v-2.7c0-.2.1-.3.3-.3h2.8c.2 0 .3.1.3.3v2.7c0 .2-.1.3-.3.3h-1.5zM284.8 29.8h3.3V33h-3.3v-3.2zM284.8 35.7h3.3v2.9c0 .1-.1.2-.2.2h-3.1v-3.1zM300.7 39.6v1.9h-1.9v-1.9h1.9zM298.7 43.1h2v1.7c0 .1-.1.2-.2.2H299c-.1 0-.2-.1-.2-.2-.1-.5-.1-1.1-.1-1.7zM298.7 46.7h1.9v1.8h-1.9v-1.8z"/></g><g><path class="st1" d="M267.8 54.4H265.9c-.6-.2-1-.7-1-1.3v-1.2-.2h-5.4V53c0 .6-.3 1.1-.9 1.3-.1 0-.2.1-.3.1h-1.8c-.1 0-.1 0-.2-.1-.6-.2-1-.7-1-1.3v-.9-.5c-.9-.1-1.3-.6-1.3-1.5V38.9c0-.6 0-1.2.1-1.7.4-1.9 2.1-3.1 4-3.1h5.8c.9 0 1.8 0 2.8.1 1.7.1 3.1 1.5 3.4 3.2.1.6.1 1.1.1 1.7v11.1c0 .3 0 .6-.2.8-.3.4-.6.6-1.1.6v1.3c0 .6-.4 1-.9 1.2 0 .3-.1.3-.2.3zm1.1-16.2h-13.6v8.1h13.6v-8.1zm-9.4-1.3h5.4v-1.3h-5.4v1.3zm-2.8 10.8c-.7 0-1.3.6-1.3 1.4 0 .7.6 1.3 1.4 1.3.7 0 1.3-.6 1.3-1.4 0-.7-.7-1.3-1.4-1.3zm10.9 0c-.8 0-1.4.6-1.4 1.4 0 .7.6 1.3 1.3 1.3.7 0 1.4-.6 1.4-1.3.1-.8-.5-1.4-1.3-1.4z"/><path class="st0" d="M258.3 54.4c.1 0 .2-.1.3-.1.5-.2.9-.7.9-1.3v-1.3h5.4v1.4c0 .6.4 1.1 1 1.3h.1-7.7z"/><path class="st1" d="M251.3 40.1c.3-.6.8-.5 1.3-.5v4c-.5 0-1.1.1-1.3-.5v-3zM273.1 43.1c-.3.5-.4.6-1.3.5v-4c.8-.1 1-.1 1.3.5v3z"/><path class="st2" d="M268.9 38.2v8.1h-13.6v-8.1h13.6zM259.5 36.9v-1.3h5.4v1.3h-5.4zM256.7 47.7c.7 0 1.4.6 1.4 1.3 0 .7-.6 1.4-1.3 1.4s-1.4-.6-1.4-1.3c-.1-.8.5-1.4 1.3-1.4zM267.6 47.7c.7 0 1.3.6 1.3 1.4 0 .7-.6 1.3-1.4 1.3-.7 0-1.3-.6-1.3-1.3 0-.8.7-1.4 1.4-1.4z"/></g><path class="st1" d="M-4.4 54.2h789v3.1h-789z"/></svg>