<svg id="Layer_1" xmlns="http://www.w3.org/2000/svg" viewBox="0 0 783 55"><style>.st0{fill:#82BC00;} .st1{fill:#E3EEC5;}</style><path class="st0" d="M426.9 53.2c.4-.7 1-.9 1.9-.8V30.6H443c1.2 0 2.3-.4 3.2-1.3 3.2-3.1 6.4-6.2 9.5-9.3.1-.1.3-.3.5-.4 1.1 1.1 2.2 2.1 3.3 3.2 2.2 2.2 4.5 4.3 6.7 6.5.9.9 2 1.4 3.3 1.4h14.1v21.7c1.8.3 1.9-.7 1.9 1.2 0 1.2-.4.6-1.6.6h-55.3c-.7 0-1.2.8-1.6.2-.1-.8-.1-.5-.1-1.2zM455.2 27c-2.2.2-3.9 2.5-3.7 5 .1 2.4 2.3 4.3 4.8 4.3 2.4 0 4.5-2 4.6-4.3.1-2.5-1.6-4.7-3.7-5V31.4c0 .7-.4 1.1-1.1 1.1h-1.9c-.6 0-.7-.2-.7-.9s.2-.9.7-.9h1.1c-.1-1.3-.1-2.5-.1-3.7zm3.8 24.4c0-2.3.1-4.7 0-7-.1-1.5-1.5-2.5-3.1-2.4-1.4.1-2.5 1.4-2.5 2.8V51.4h5.6zm-20.8-15.1h-3.7V40h3.7v-3.7zm9.5 0H444V40h3.7v-3.7zm17 3.7h3.7v-3.7h-3.7V40zm13.2-3.7h-3.7V40h3.7v-3.7zm-43.4 11.3h3.7v-3.7h-3.7v3.7zm13.1 0v-3.7h-3.7v3.7h3.7zm20.8 0v-3.7h-3.7v3.7h3.7zm9.4 0v-3.7h-3.7v3.7h3.7z"/><path class="st0" d="M426.9 27.6c2.4-3.1 4.8-6.3 7.2-9.4.4-.5 1-.8 1.6-.8h11.6c.3 0 .7-.1.9-.3 2.2-2.1 4.5-4.3 6.7-6.4.2-.2.3-.5.3-.8V1.7c0-1.1 1-1.8 1.9-1.1 1.4 1 2.9.9 4.4.3 1.4-.6 2.8-.6 4.2 0 .5.2.8.5.8 1.2-.1 1.8 0 3.5 0 5.3v.4c-.6-.2-1.3-.5-1.9-.7-1-.3-2.1-.1-3 .3-1 .4-2 .7-3 .4-.5-.1-.9-.4-1.4-.6v3c0 .1.2.3.3.4 2.2 2.2 4.5 4.3 6.7 6.4.2.2.5.3.8.3h11.6c.8 0 1.3.3 1.8.9 2.2 2.9 4.5 5.9 6.7 8.8.3.3.5.7.2 1.1-.2.5-.6.5-1.1.5h-14c-.8 0-1.4-.3-1.9-.8-3.8-3.8-7.7-7.5-11.6-11.3l-.5-.5c-1.2 1.1-2.3 2.2-3.4 3.3-2.9 2.9-5.9 5.7-8.8 8.6-.5.5-1 .7-1.7.7h-14c-.6 0-1-.1-1.3-.6-.1 0-.1-.2-.1-.4z"/><path class="st1" d="M455.2 27v3.6h-1.1c-.6 0-.7.2-.7.9s.2.9.7.9h1.9c.7 0 1.1-.4 1.1-1.1v-4.1-.3c2.2.2 3.9 2.5 3.7 5-.1 2.3-2.2 4.3-4.6 4.3-2.5 0-4.7-1.9-4.8-4.3-.1-2.4 1.6-4.6 3.8-4.9zM459 51.4h-5.6V51v-6.2c0-1.4 1.2-2.7 2.5-2.8 1.6-.1 3 1 3.1 2.4.1 2.3 0 4.6 0 7zM438.2 36.3V40h-3.7v-3.7h3.7zM447.7 36.3V40H444v-3.7h3.7zM464.7 40v-3.7h3.7V40h-3.7zM477.9 36.3V40h-3.7v-3.7h3.7zM434.5 47.6v-3.7h3.7v3.7h-3.7zM447.6 47.6h-3.7v-3.7h3.7v3.7zM468.4 47.6h-3.7v-3.7h3.7v3.7zM477.8 47.6h-3.7v-3.7h3.7v3.7z"/><g><path class="st0" d="M419.9 37.2c1 0 2-.2 2.7.7.5.7.3 1.5.4 2.4h-1.5c-.4 0-.8 0-1.1.1-.5.1-.8.5-.7 1.2 0 .5.4.9.9.9h2.4v4.8c0 .8-.6 1.4-1.4 1.4h-.7c-.8-3-3-4-4.7-4.1-2.5-.2-4.9 1.4-5.5 4.1h-12.1c-.3 0-.4-.1-.5-.4-.6-2.2-2.6-3.7-4.9-3.7-2.3 0-4.4 1.6-5 3.8-.1.3-.2.3-.4.3-.9 0-1.7-.2-2.4-.7-.3-.2-.5-.5-.5-.9V32c0-1.5 1.4-2.9 2.9-2.9h29.3c1.4 0 2.8 1 2.9 2.9v4.9c-.1 0-.1.1-.1.3zm-9.2.7v-5c0-.6-.3-.9-.9-.9h-2.3c-.8 0-1 .2-1 1v10.5c0 .6.2.8.8.9.7 0 1.4 0 2.1-.1.7-.1 1.3-.9 1.3-1.6v-4.8zm2-3.3v1.8c0 .5.3.7.7.7h2.7c.5 0 .7-.2.7-.7v-3.6c0-.5-.4-.9-.9-.9h-2.4c-.5 0-.8.3-.8.8v1.9zM390 32.1h-1.3c-.4 0-.7.3-.7.7v1.6c0 .5.2.8.7.8h2.6c.5 0 .7-.3.7-.8v-1.6c0-.6-.2-.8-.8-.8-.3.1-.8.1-1.2.1zm12.4 3.1h1.2c.6 0 .9-.3.9-.9v-1.5c0-.5-.3-.8-.8-.8h-2.6c-.5 0-.8.2-.8.7v1.6c0 .5.2.8.8.8.5.1.9.1 1.3.1zM390 40.3h1.3c.5 0 .8-.3.8-.8v-1.6c0-.5-.3-.8-.8-.8h-2.6c-.5 0-.8.3-.8.8v1.5c0 .5.3.8.8.8.5.1.9.1 1.3.1zm12.4-3.1h-1.3c-.5 0-.7.2-.7.7v1.7c0 .4.3.7.7.7h2.7c.5 0 .7-.3.7-.8V38c0-.5-.3-.8-.8-.8h-1.3zm-6.2-5.1h-1.3c-.5 0-.8.3-.8.8v1.6c0 .5.2.8.7.8h2.7c.5 0 .7-.3.7-.8V33c0-.5-.3-.8-.8-.8-.3-.1-.7-.1-1.2-.1zm0 5.1h-1.3c-.5 0-.8.3-.8.8v1.6c0 .5.2.8.7.8h2.7c.5 0 .7-.3.7-.8V38c0-.5-.3-.8-.8-.8h-1.2z"/><path class="st0" d="M415.8 46.4c1.9 0 3.3 1.5 3.2 3.3-.1 1.9-1.5 3.2-3.3 3.1-1.8 0-3.2-1.5-3.1-3.3 0-1.8 1.5-3.2 3.2-3.1zM393.1 46.4c1.7 0 3.2 1.4 3.2 3 .1 1.9-1.3 3.4-3.2 3.4-1.7 0-3.2-1.4-3.3-3.1.1-1.8 1.5-3.4 3.3-3.3z"/><path class="st1" d="M410.7 37.9v4.8c0 .7-.6 1.5-1.3 1.6-.7.1-1.4.1-2.1.1-.6 0-.8-.3-.8-.9v-5.6V33c0-.7.2-1 1-1h2.3c.6 0 .9.3.9.9v5zM412.7 34.6v-1.8c0-.5.3-.8.8-.8h2.4c.5 0 .9.3.9.9v3.6c0 .5-.3.7-.7.7h-2.7c-.5 0-.7-.3-.7-.7v-1.9zM390 32.1h1.2c.6 0 .8.2.8.8v1.6c0 .5-.2.7-.7.8h-2.6c-.5 0-.7-.3-.7-.8v-1.6c0-.4.3-.7.7-.7.5-.1.9-.1 1.3-.1zM402.4 35.2h-1.3c-.5 0-.8-.3-.8-.8v-1.6c0-.5.3-.7.8-.7h2.6c.5 0 .8.3.8.8v1.5c0 .6-.3.8-.9.9-.4-.1-.8-.1-1.2-.1zM390 40.3h-1.2c-.5 0-.8-.3-.8-.8V38c0-.5.3-.8.8-.8h2.6c.5 0 .8.2.8.8v1.6c0 .5-.3.8-.8.8-.5-.1-.9-.1-1.4-.1zM402.4 37.2h1.3c.5 0 .8.3.8.8v1.5c0 .5-.2.8-.7.8h-2.7c-.4 0-.7-.3-.7-.7v-1.7c0-.5.3-.7.7-.7h1.3zM396.2 32.1h1.3c.5 0 .8.3.8.8v1.5c0 .5-.2.8-.7.8h-2.7c-.5 0-.7-.3-.7-.8v-1.6c0-.5.3-.8.8-.8.4.1.8.1 1.2.1zM396.2 37.2h1.3c.5 0 .8.3.8.8v1.6c0 .5-.2.7-.7.8h-2.7c-.5 0-.7-.3-.7-.8V38c0-.5.3-.8.8-.8h1.2z"/></g><g><path class="st0" d="M504.9 53.2c.4-.4.8-.7 1.1-1.1 1.3-1.9 2.5-3.9 3.8-5.8.5-.7.6-1.5.4-2.3-.3-1.2-.5-2.4-.8-3.5-.1-.4-.3-.9-.6-.9-.6-.2-1.3-.2-1.7.6-.3.6-.6 1.1-.8 1.7-.3 1.1-1.1 1.8-2.1 2.2-.4.2-1 .4-.7 1 .3.7.9.2 1.3 0 .8-.5 1.8-.7 2.4-1.8l.6 2.1c0 .2-.1.4-.2.6-1.1 1.8-2.2 3.6-3.2 5.3-.5.9-.4 1.3.4 1.8-.1.1 0 .1.1.1zM513 43.6c-.4-1.2-.8-2.4-1.2-3.7-.3-.8-.6-1-1.3-.6-.2.1-.5.5-.5.8.3 1.4.6 2.7.9 4.1.1.5.4.7.9.5.4-.1.8-.3 1.2-.5v-.6zM513 52c-.3-.4-.6-.8-.9-1.3-.7-1.1-1.3-2.3-1.9-3.4-.3.4-.6.8-1 1.4-.1.2-.1.5 0 .7.9 1.2 1.8 2.5 2.8 3.7h1V52zM506.7 35.3c-.6.3-1.1.7-1.2 1.5-.1.8.4 1.6 1.2 1.9.8.3 1.7-.2 2.1-1 .3-.8 0-1.7-.7-2.1-.2-.1-.3-.2-.5-.3h-.9zM498.6 46.5c.4.7.3 1.3-.2 2.1-.7 1-1.3 2-1.9 3.1-.1.2-.3.4-.3.6 0 .2.1.6.3.7.2.1.5 0 .7-.1.2-.2.4-.4.6-.7.9-1.3 1.7-2.6 2.6-4 .4-.6.5-1.1.3-1.8s-.3-1.4-.5-2.1c-.1-.3-.3-.6-.5-.7-.4-.1-.9-.1-1.2.4-.2.4-.4.7-.6 1.1-.3.8-.8 1.3-1.6 1.7-.3.1-1 .2-.7.8.3.6.8.2 1.1 0 .7-.3 1.3-.7 1.9-1.1zM498.6 42.9c.8 0 1.4-.6 1.4-1.4 0-.7-.6-1.3-1.3-1.3-.8 0-1.4.6-1.4 1.3-.1.8.5 1.4 1.3 1.4zM500.4 43.5c.3 1.2.5 2.1.7 3.1.2.6.7.3 1.1.3.4-.1.5-.3.4-.7-.3-.9-.5-1.8-.8-2.7-.1-.2-.5-.4-.7-.4-.3 0-.5.2-.7.4zM500.6 48.8c-1 1.2-1 1.3-.1 2.5.4.5.7 1 1.1 1.4.2.2.5.1.8.2 0-.3.1-.5 0-.8-.1-.2-.3-.4-.4-.6-.4-.9-.9-1.7-1.4-2.7z"/></g><g><path class="st0" d="M326.3 42.9c.2-.6.7-.9 1.3-.8h1.6c.5 0 .8-.2 1.1-.6.9-1.1 1.7-2.3 2.6-3.4.2-.2.3-.4.5-.7.2-.3.6-.4.9-.5h7.2c.9 0 1.5.3 2.1 1 .9 1.2 1.9 2.4 2.9 3.5.3.4.7.6 1.3.6 1 0 2 .1 2.9.6 1.3.7 2.1 1.7 2.3 3.2v2.6c-.1.4-.4.8-.9.8h-2.2c-.3-2-1.9-3-3.3-3.1-.8 0-1.6.1-2.2.6-.9.6-1.4 1.5-1.6 2.5h-6.1c-.3-2-1.9-3-3.3-3.1-.8-.1-1.6.1-2.2.6-.9.6-1.5 1.5-1.7 2.6h-1.8c-.6 0-1.1-.2-1.3-.8-.1-1.9-.1-3.8-.1-5.6zm6.1-.9h5.2v-3.1h-2.5c-.3 0-.6.1-.7.4-.6.8-1.3 1.7-1.9 2.6-.1 0-.1.1-.1.1zm7.3 0h4.7c-.7-.9-1.4-1.7-2.1-2.6-.2-.2-.4-.4-.7-.4h-1.9v3z"/><path class="st1" d="M332.4 42c0-.1.1-.1.1-.1.6-.9 1.3-1.7 1.9-2.6.2-.2.4-.4.7-.4h2.5V42h-5.2zM339.7 42v-2.8-.2h1.9c.3 0 .5.2.7.4.7.9 1.4 1.7 2.1 2.6h-4.7z"/><path class="st0" d="M346.4 52.1c-1.3 0-2.4-1-2.4-2.4 0-1.3 1-2.4 2.4-2.4 1.3 0 2.4 1.1 2.4 2.4-.1 1.3-1.1 2.4-2.4 2.4zM333 52.1c-1.3 0-2.4-1-2.4-2.4 0-1.3 1.1-2.4 2.4-2.4 1.3 0 2.4 1.1 2.4 2.4 0 1.3-1.1 2.4-2.4 2.4z"/></g><g><path class="st0" d="M545.4 52.7h-6v-7.5c-2.3-.7-4.3-1-6-1.9-2.9-1.5-4-4.1-4.1-7.3 0-1.2-.4-2.5-1.1-3.5-3.7-5.1-1.4-11.7 4.7-13.4.9-.2 1.8-.9 2.3-1.7 3.8-5.4 10.5-5.4 14.4-.1.6.8 1.6 1.5 2.6 1.8 5.9 1.7 8.1 8.4 4.4 13.3-.5.7-1.1 1.6-1.2 2.4-.5 7.1-2.2 8.9-9.8 9.9-.2 2.6-.2 5.3-.2 8zm-.4-10.9c5 1.1 8.7-2.1 7.9-6.3-.3-1.9.4-2.8 1.3-4.2 1-1.7 1.8-4.2 1.2-5.9-.6-1.7-2.7-3.4-4.6-4-1.6-.5-2.6-.9-3.3-2.4-1-2.2-2.9-3.2-5.3-3.2-2.5 0-4.6 1-5.5 3.3-.6 1.6-1.5 2-3.1 2.3-5.2 1-7.1 6.6-3.5 10.2 1.3 1.3 1.6 2.5 1.3 4.2-.6 3.3 2.1 6.5 5.5 6.8 1.7.2 2.5-.5 1.8-2.1-.8-1.8-1.9-3.4-3-5.4 2.7-2.9 3.2 1.5 5 1.8.5-1.5-.8-4.8 3.1-3.5.1 1.2.2 2.3.4 3.4 1.7-.6 2.2-4.6 4.7-1.8-1.5 2.3-2.6 4.5-3.9 6.8z"/><path class="st1" d="M545 41.8c1.2-2.3 2.4-4.5 3.7-7-2.5-2.8-3 1.2-4.7 1.8-.1-1.1-.2-2.2-.4-3.4-3.9-1.3-2.6 2-3.1 3.5-1.8-.3-2.3-4.7-5-1.8 1.1 2 2.2 3.6 3 5.4.7 1.6-.1 2.3-1.8 2.1-3.3-.3-6-3.5-5.5-6.8.3-1.8.1-2.9-1.3-4.2-3.6-3.6-1.6-9.2 3.5-10.2 1.5-.3 2.4-.7 3.1-2.3.9-2.3 3-3.3 5.5-3.3 2.4 0 4.3 1.1 5.3 3.2.7 1.6 1.7 1.9 3.3 2.4 1.8.6 4 2.3 4.6 4 .6 1.7-.2 4.3-1.2 5.9-.9 1.4-1.6 2.4-1.3 4.2 1 4.5-2.7 7.7-7.7 6.5z"/></g><g><path class="st0" d="M528.3 52.4h-4.4v-5.5c-1.7-.5-3.1-.7-4.4-1.4-2.1-1.1-2.9-3-3-5.3 0-.9-.3-1.8-.8-2.5-2.7-3.7-1-8.5 3.4-9.7.6-.2 1.3-.7 1.7-1.2 2.8-3.9 7.6-3.9 10.4 0 .4.6 1.2 1.1 1.9 1.3 4.2 1.2 5.9 6.1 3.2 9.6-.4.5-.8 1.1-.9 1.7-.4 5.1-1.6 6.5-7.1 7.2v5.8zm-.3-7.8c3.6.8 6.3-1.5 5.7-4.6-.2-1.3.3-2 .9-3 .8-1.2 1.3-3.1.9-4.3-.4-1.2-2-2.5-3.3-2.9-1.1-.4-1.9-.6-2.4-1.8-.7-1.6-2.1-2.3-3.8-2.3-1.8 0-3.3.7-4 2.4-.5 1.2-1.1 1.4-2.2 1.7-3.7.7-5.2 4.7-2.6 7.4 1 1 1.1 1.8.9 3.1-.4 2.4 1.5 4.7 4 4.9 1.2.1 1.8-.4 1.3-1.5-.6-1.3-1.4-2.5-2.2-3.9 1.9-2.1 2.3 1.1 3.6 1.3.4-1.1-.6-3.5 2.2-2.5.1.9.2 1.7.3 2.5 1.2-.4 1.6-3.3 3.4-1.3-1 1.5-1.8 3.1-2.7 4.8z"/><path class="st1" d="M528 44.6c.9-1.7 1.7-3.3 2.7-5.1-1.8-2-2.2.8-3.4 1.3-.1-.8-.2-1.6-.3-2.5-2.8-.9-1.9 1.4-2.2 2.5-1.3-.2-1.6-3.4-3.6-1.3.8 1.4 1.6 2.6 2.2 3.9.5 1.2 0 1.7-1.3 1.5-2.4-.2-4.4-2.5-4-4.9.2-1.3.1-2.1-.9-3.1-2.6-2.6-1.2-6.6 2.6-7.4 1.1-.2 1.8-.5 2.2-1.7.7-1.7 2.2-2.4 4-2.4 1.7 0 3.1.8 3.8 2.3.5 1.1 1.2 1.4 2.4 1.8 1.3.4 2.9 1.7 3.3 2.9.4 1.2-.1 3.1-.9 4.3-.6 1-1.2 1.7-.9 3 .6 3.3-2.1 5.7-5.7 4.9z"/></g><g><path class="st0" d="M364.6 51c.4-.2.3-.5.3-.8h-.8c-.4 0-.8-.1-1.1-.3-.1 0-.1-.2-.1-.2.2-.5.1-1.1.1-1.6 0-.4-.1-.9-.1-1.3v-.3h-.7c.6 1.3.7 2.5 0 3.8-.5.9-1.2 1.5-2.2 1.8-1.9.5-3.7-.3-4.5-2-.9-1.9-.1-4 1.6-4.9l.3.6c-.4.2-.7.6-1 .9-1 1.5-.5 3.6 1.1 4.4 1.8.9 4-.2 4.4-2.1.3-1.5-.5-3-1.9-3.5-.1 0-.2-.1-.3-.2-.3-.8-.7-1.6-1.1-2.4-.1.2-.2.4-.3.5v.2c.3.6.5 1.2.8 1.8.1.3.1.6-.1.7-.2.2-.5.2-.8 0-.1-.1-.2-.2-.2-.3-.3-.7-.7-1.5-1-2.2-.1-.2-.1-.4 0-.5.3-.5.5-1 .9-1.5.5-.7 1.2-1 2-.9.4 0 .9.5.9.9v3.3h2.7c.4 0 .7.3.7.7.1.7.2 1.4.2 2.1 0 .4.1.9.1 1.3v.6h.9c0 .5.1 1-.2 1.5-.1.2-.3.3-.5.4-.1 0-.2.1-.2.2-.2.4-.6.5-1 .4-.4-.1-.6-.5-.6-.9.1-.4.4-.7.8-.7.4-.1.7.1.9.5zm-.8 0c-.2 0-.3.1-.3.3 0 .2.1.3.3.3.2 0 .3-.1.3-.3 0-.2-.1-.3-.3-.3z"/><path class="st0" d="M359.4 46.4c.1-.2.2-.3.2-.5.8.2 1.6 1.1 1.7 2.1.1 1.2-.6 2.1-1.4 2.5-1.5.8-3.4-.2-3.6-1.9-.2-1 .2-1.8 1.1-2.5.1-.1.1-.1.2 0l.3.3c-.9.6-1.2 1.5-.9 2.3.2.7 1 1.5 2.1 1.4.8-.1 1.5-.6 1.7-1.4.2-.8-.2-1.8-1.4-2.3zM361.3 40.5c-.9.1-2-.7-2-2 0-1.1 1-1.9 1.9-2 1.1 0 2 .9 2.1 1.9.1 1.2-.9 2.2-2 2.1z"/></g><path class="st0" d="M0 51.9h782.7V55H0z"/></svg>