<svg id="Layer_1" xmlns="http://www.w3.org/2000/svg" viewBox="0 0 783 41"><style>.st0{fill:#82BC00;} .st1{fill:#E3EEC5;}</style><path class="st0" d="M405.9 32.4c0 .5-.1.9-.1 1.4 0 .2-.1.4-.1.6-.4 1-.8 2-1.1 2.9-.1.4-.4.6-.8.7-.7.1-1.3-.5-1-1.2.2-.5.4-1.1.6-1.6.5-1.1.7-2.2.7-3.4v-.5c0-.3 0-.6-.1-.9-.1-.2-.1-.6-.1-.8.2-.9.4-1.7.5-2.6 0 0-.1 0-.1-.1-.4.5-.9.9-1.3 1.4-.2.2-.3.4-.5.5-.3.3-.7.3-1 .1-.3-.2-.4-.7-.1-1 1.1-1.3 2.2-2.6 3.9-3.2 1.2-.5 1.9-.3 2.7.7.7.8 1.4 1.6 2.2 2.4.3.3.7.5 1 .8.3.2.5.5.4.9 0 .1.1.2.2.3 1.2 1.2 2.4 2.5 3.7 3.7l.1.1-.3.3c-.4-.4-.8-.7-1.1-1.1-.9-.9-1.8-1.8-2.7-2.8-.1-.1-.2-.2-.4-.1-.2 0-.5 0-.7-.2-.9-.6-1.7-1.2-2.3-2 0-.1-.1-.1-.1-.2 0 0-.1 0-.1.1-.2.9-.3 1.7-.6 2.6-.1.4 0 .8.2 1.1 1 1.3 1.6 2.8 1.9 4.4.1.4.2.7.3 1.1.1.6-.1 1-.6 1.2-.5.1-1-.1-1.2-.7-.3-.9-.5-1.7-.7-2.6-.1-.9-.8-1.6-1.3-2.3.1 0 .1 0 0 0z"/><path class="st0" d="M416.5 36.3h-2.1c.2.3.3.6.5.9.1.2.1.4-.1.5s-.4 0-.5-.2c-.2-.3-.4-.7-.6-1.1-.2.4-.4.7-.5 1-.1.2-.3.4-.5.3-.3-.1-.2-.4-.1-.6 0-.1.1-.1.1-.2.5-.6.4-1.4.4-2.1 0-.1-.1-.2-.2-.3-.2-.1-.4-.3-.5-.4-.1-.1-.1-.3 0-.4 0-.1.3 0 .4-.1h.1c.4.5 1 .6 1.6.5 1-.2 1.7.4 2.5.9.1 0 .1.2.1.2v2.1c0 .2-.1.4-.3.4-.3 0-.4-.2-.3-.4v-1zM407.6 20.9c1 0 1.9.8 1.9 1.9 0 1-.9 1.9-1.9 1.9s-1.9-.9-1.9-1.9c.1-1.1.9-1.9 1.9-1.9zM417.2 34.8c-.5-.3-1-.6-1.5-.8l.6-.9c.2-.3.3-.6.5-.9.1-.1.2-.2.3-.2.1 0 .3.2.3.3 0 .7.5 1 1 1.4.2.2.6.2.5.6-.1.3-.4.4-.8.4h-.1c-.4-.2-.6-.2-.8.1zM564.2 27.4c-2.3-.3-2.3-.3-3.3-1.4 5.2-5.2 10.6-10.5 15.8-15.7 5.1 5.2 10.4 10.4 15.7 15.7-.5 1.1-1.6 1.5-3.1 1.2v11.1h-24.9c-.2-3.6-.2-7.2-.2-10.9zm13.5 11.2v-3.1-7.6c0-.6.2-.9.8-.8h4.6c.5 0 .6.2.6.7v10.9h3.5V26.1c0-.3-.3-.7-.5-1-3.1-3.2-6.3-6.3-9.5-9.4l-.6-.6c-3.4 3.5-6.9 6.9-10.4 10.3-.2.2-.2.6-.3.9V38.7c4-.1 7.7-.1 11.8-.1zM587.6 20.1c-1.3-1.4-2.8-2.7-4-4.1-.4-.5-.2-1.4-.3-2.3h4.2c.1 0 .4.4.4.6V20c-.1.1-.2.1-.3.1z"/><path class="st1" d="M577.7 38.6H566v-7.1-5.3c0-.3.1-.7.3-.9 3.4-3.4 6.8-6.9 10.4-10.3.3.2.5.4.6.6 3.1 3.1 6.3 6.3 9.5 9.4.3.3.5.6.5 1v12.6h-3.5v-3.7-7.2c0-.5-.2-.7-.6-.7h-4.6c-.7 0-.8.2-.8.8v7.6c-.1.5-.1 2.8-.1 3.2zm-8.3-6.9h4.6v-4c0-.2-.4-.5-.6-.5-1.1-.1-2.3 0-3.4 0-.5 0-.6.2-.6.7v3.8z"/><path class="st0" d="M569.4 31.7v-3.9c0-.5.1-.7.6-.7h3.4c.2 0 .5.3.6.5v4c-1.5.1-3 .1-4.6.1zM508.5 9c2.3 2.3 4.5 4.6 6.8 7.1 0-.5.1-.9.1-1.3h4.7c0 1.3.1 2.6 0 3.9-.2 1.6.5 2.8 1.6 3.8 1.1.9 2.1 2 3.2 3-.7 1-1.4 1.7-2.6 1.5-.9-.2-1.1.2-1.1 1.1v10.6H484V27.1c-2.6-.5-2.6-.5-3.5-1.6 3.3-3.1 6.7-6.2 10.1-9.3l.2-.2c1.1-1.6 2.7-2 4.6-1.9 2.4.1 4.8.1 7.1 0 .4 0 .8-.2 1-.4 1.8-1.4 3.3-3 5-4.7zm-11.3 29.9h12.2V29c0-.7.2-.9.9-.9 1.5 0 3.1.1 4.6 0 .7 0 .9.3.9.9v9.8h3.8v-2.9V26c0-.5-.3-1-.6-1.3-3-3.1-6.1-6.1-9.1-9.1-.5-.5-.9-1-1.5-1.8-3.6 3.7-7.1 7.3-10.6 10.9-.3.3-.5.8-.5 1.1v6.9c-.1 1.5-.1 4.8-.1 6.2zm-2 0V27.3h-9.4v11.6h9.4z"/><path class="st1" d="M497.2 38.9v-6V26c0-.4.2-.9.5-1.1 3.4-3.6 6.9-7.1 10.6-10.9.6.7 1 1.3 1.5 1.8l9.1 9.1c.3.3.6.9.6 1.3V39h-3.8v-3.3-6.5c0-.7-.2-1-.9-.9h-4.6c-.7 0-.9.2-.9.9v9.9c-3.9-.2-7.8-.2-12.1-.2zm8.4-4.2v-4.6H501v4.6h4.6zM495.2 38.9h-9.4V27.3h9.4v11.6zm-6.9-4.2h4.7v-4.6h-4.7v4.6z"/><path class="st0" d="M505.6 34.7H501v-4.6h4.6v4.6zM488.3 34.7v-4.6h4.7v4.6h-4.7z"/><g><path class="st0" d="M526.5 38.2V14.7h-3.4c.2-.9.3-1.6.6-2.3l4.5-8.7c.3-.5.6-.7 1.2-.7h15.7c.5 0 1 0 1.5-.1V0h4.5v4.6h.3c0-.3.1-.7.1-1 0-.5.2-.7.7-.6 1.8 0 3.5 0 5.3.1.3 0 .7.3.9.5 1.6 3 3.2 6.1 4.7 9.2.3.5.3 1.1.5 1.8h-3.4v23.5c-11.3.1-22.4.1-33.7.1zm31.4-23.4h-29.3v23.3h11.6V26.9h6.3v11.3H558c-.1-7.2-.1-16.3-.1-23.4z"/><path class="st1" d="M557.9 14.8v23.4h-11.5V26.9h-6.3v11.2h-11.6V14.8h29.4zm-8 16.8h4.8v-4.7h-4.8v4.7zm4.8-14.6h-4.3c-.2 0-.5.3-.5.4v4.3h4.8V17zm-13.8 4.8h4.8v-4.1c0-.2-.4-.6-.7-.6-1.4-.1-2.7 0-4.1 0v4.7zm-4.5.1v-4.7h-4.8v4.2c0 .2.4.5.6.5h4.2zm0 9.7v-4.9h-4.2c-.2 0-.5.4-.5.6-.1 1.2-.1 2.5 0 3.7 0 .2.4.6.6.6 1.3.1 2.7 0 4.1 0z"/><path class="st0" d="M549.9 31.6v-4.7h4.8v4.7h-4.8zM554.7 17v4.8h-4.8v-4.3c0-.1.3-.4.5-.4 1.4-.1 2.8-.1 4.3-.1zM540.9 21.8v-4.7h4.1c.2 0 .6.4.7.6.1 1.3 0 2.7 0 4.1h-4.8zM536.4 21.9h-4.2c-.2 0-.6-.3-.6-.5-.1-1.4 0-2.8 0-4.2h4.8v4.7zM536.4 31.6h-4.1c-.2 0-.6-.4-.6-.6-.1-1.2-.1-2.5 0-3.7 0-.2.4-.5.5-.6h4.2v4.9z"/></g><g><path class="st0" d="M460.2 35.3v-5.6c0-.1.1-.3.1-.4.2-.7.6-1.1 1.3-1.4.3-.1.4-.2.5-.5.4-1.2.9-2.4 1.4-3.5.4-1.1 1.1-1.6 2.4-1.7h8c1.2 0 1.9.5 2.4 1.7.4 1 .8 2 1.1 3 .2.5.3 1 1 1.2.1 0 .3.2.4.3.3.4.5.8.7 1.2v5.7H478v.9c0 .4 0 .8-.1 1.2-.1.9-1.1 1.4-1.9 1-.7-.3-.9-.8-.9-1.5v-1.5h-10.5v1.9c0 .6-.4 1-1 1.2-.5.2-1 .1-1.4-.3-.4-.4-.5-.8-.5-1.4v-1.5h-1.5zm15.9-7.4c-.4-1.1-.8-2.2-1.2-3.2-.2-.6-.4-.8-1.1-.8H466c-.7 0-.9.1-1.1.8-.4 1-.7 1.9-1.1 2.9 0 .1-.1.2-.1.3h12.4zm-12.9 4.3c.7 0 1.3-.6 1.3-1.3 0-.7-.6-1.4-1.3-1.4-.7 0-1.3.6-1.3 1.3 0 .7.6 1.4 1.3 1.4zm14.6-1.4c0-.7-.6-1.4-1.3-1.4-.7 0-1.3.6-1.3 1.4 0 .7.6 1.3 1.3 1.3.7.1 1.3-.6 1.3-1.3z"/><path class="st1" d="M476.1 27.9h-12.5c0-.1.1-.2.1-.3.4-1 .7-1.9 1.1-2.9.2-.6.4-.8 1.1-.8h7.8c.7 0 .9.1 1.1.8.5 1 .9 2.1 1.3 3.2zM463.2 32.2c-.7 0-1.3-.6-1.3-1.4 0-.7.6-1.3 1.3-1.3.7 0 1.3.6 1.3 1.4.1.7-.6 1.3-1.3 1.3zM477.8 30.8c0 .7-.6 1.4-1.3 1.4-.7 0-1.3-.6-1.3-1.3 0-.7.6-1.4 1.3-1.4.7-.1 1.3.6 1.3 1.3z"/></g><g><path class="st0" d="M696.9 34c-.2.6-.7.9-1.3.8h-1.8c-.2-1.1-.7-2-1.7-2.6-.7-.4-1.4-.6-2.2-.6-1.4.1-3 1.1-3.3 3.1h-6.1c-.2-1.1-.7-1.9-1.6-2.5-.7-.4-1.4-.6-2.2-.6-1.4.1-3 1.1-3.3 3.1h-2.2c-.5 0-.7-.4-.9-.8v-2.5-.1c.3-1.4 1.1-2.5 2.3-3.2.9-.5 1.9-.6 2.9-.6.5 0 .9-.2 1.3-.6 1-1.2 2-2.3 2.9-3.5.5-.7 1.2-1 2.1-1h7.2c.4.1.7.2.9.5.2.2.3.4.5.7.9 1.1 1.7 2.3 2.6 3.4.3.4.6.6 1.1.6h1.6s1.1.2 1.3.8c-.1 1.9-.1 3.8-.1 5.6zm-6.1-6.5c-.6-.9-1.3-1.7-1.9-2.6-.2-.2-.4-.4-.7-.4h-2.5v3.1h5.2s0-.1-.1-.1zm-7.3-2.7v-.2h-1.9c-.3 0-.5.2-.7.4-.7.9-1.4 1.7-2.1 2.6h4.7v-2.8z"/><path class="st1" d="M690.9 27.6c0-.1-.1-.1-.1-.1-.6-.9-1.3-1.7-1.9-2.6-.2-.2-.4-.4-.7-.4h-2.5v3.1h5.2zM683.5 27.6v-2.8-.2h-1.9c-.3 0-.5.2-.7.4-.7.9-1.4 1.7-2.1 2.6h4.7z"/><path class="st0" d="M676.8 37.7c1.3 0 2.4-1 2.4-2.4 0-1.3-1-2.4-2.4-2.4-1.3 0-2.4 1.1-2.4 2.4.1 1.3 1.1 2.4 2.4 2.4zM690.3 37.7c1.3 0 2.4-1 2.4-2.4 0-1.3-1.1-2.4-2.4-2.4-1.3 0-2.4 1.1-2.4 2.4s1.1 2.4 2.4 2.4z"/></g><g><path class="st0" d="M629.3 33.1H628c.6-1.9 1.2-3.8 1.7-5.7 0 0-.1 0-.1-.1-.1.1-.2.2-.2.3-.3.8-.5 1.6-.7 2.4 0 .1-.1.2-.1.3-.1.2-.4.3-.6.3s-.4-.3-.4-.5v-.3c.3-1 .6-2 .9-3.1.2-.5.4-1.1 1.1-1.1.9-.1 1.8-.1 2.7 0 .6 0 .9.6 1.1 1.1.2.8.5 1.5.7 2.3.1.3.2.5.2.8.1.4 0 .7-.4.8-.3.1-.6-.1-.7-.5-.3-.8-.5-1.7-.8-2.5 0-.1-.1-.2-.2-.3 0 0-.1 0-.1.1.6 1.9 1.1 3.8 1.7 5.7h-1s-.4.1-.4.4v3.6c0 .2-.1.4-.2.6-.1.3-.4.3-.7.3s-.5-.2-.6-.5c0-.2-.1-.3-.1-.5v-3.6c0-.1-.1-.2-.1-.3 0 .1-.1.2-.1.3v4c-.1.3-.3.5-.7.6-.3 0-.6-.2-.7-.5 0-.1-.1-.3-.1-.5.2-1.3.2-2.6.2-3.9zM625.1 36.3c-.2-.2-.4-.5-.6-.7-.8.4-1.6.2-2.3-.2-.2-.1-.8.2-.8.5 0 .1.1.2.2.2.4.3.6.7.5 1.1-.1.4-.5.7-.9.7s-.8-.3-1-.7c-.1-.4 0-.8.5-1.1.1-.1.2-.2.2-.3 0-.2.1-.3.2-.5 1.3-1 2.5-2.1 3.8-3.1.3-.2.5-.5.8-.8.2-.2.4-.4.6-.5.4-.3.9-.1 1.2.3.2.4.1 1-.3 1.2h-.2s-.1-.2 0-.2c0-.1.2-.2.2-.3 0-.2 0-.4-.1-.5s-.4-.1-.5-.1c-.4.3-.7.7-1.1 1v.2c.1.8 0 1.6-.3 2.4v.3c.1.2.3.3.4.4.2.2.3.3.6.3.4 0 .7.3.8.8.1.4-.1.8-.5 1s-.8.2-1.1-.1-.4-.7-.2-1.1c-.2 0-.2-.1-.1-.2zM624.5 30.9c0 .8-.6 1.4-1.4 1.4-.8 0-1.4-.6-1.4-1.4s.7-1.5 1.4-1.5c.8.1 1.4.7 1.4 1.5zM630.9 21.8c.9 0 1.7.8 1.7 1.7 0 .9-.8 1.8-1.8 1.7-.9 0-1.7-.8-1.7-1.7.1-.9.9-1.7 1.8-1.7zM622.3 33.9c-.6.5-1.1.9-1.7 1.4-.3.2-.6.2-.8 0s-.1-.5.1-.7c.3-.3.6-.5.9-.8.6-.5 1-.4 1.5.1z"/></g><g><path class="st0" d="M420.1 28.8h-.8c-1.4 0-2.6-.5-3.5-1.5-1.1-1.1-1.6-2.4-1.6-3.9 0-.3-.1-.8-.3-.9-2.1-1.2-3.1-2.9-3-5.3.1-1.9 1-3.2 2.6-4.2.5-.3.8-.6.8-1.2-.1-2.2 1.5-4.4 3.5-5.1.2-.1.5-.3.5-.5.4-1.1 1-2.1 1.9-2.9 2.1-2 5.8-2.1 8-.5.4.3.6.3 1 .1 1.2-.8 2.4-1.1 3.9-1.2 3.6 0 6.4 3 6.3 6.6 0 .9.3 1.1.9 1.4 2.6 1.3 3.9 4.6 3.1 7.4-.6 2.1-2.1 3.5-4 4.3.8 3.9-2.6 9-8.9 7.1v10.4h-2V28.5c-.8.1-1.6.1-2.4.2v10.2H424v-.8-9.4c0-.7-.4-.9-.8-1s-.8.5-.8 1V38.9h-2c-.3-3.2-.3-6.6-.3-10.1zm-3.7-16c.3.9 0 1.5-.9 1.6-1.3.2-2.1 1.1-2.5 2.2-.6 1.6.5 3.8 2.3 4.2 1.2.3 1.4.6 1.1 1.8-.4 1.4.2 2.9 1.6 3.8 1.2.7 2.7.6 3.8-.5 1-1 1.3-1 2.3 0 .9.9 2.1 1.2 3.3.7 1.2-.5 2-1.3 2.2-2.6.1-.5 0-1-.1-1.6-.2-.9.1-1.4 1-1.6 1.5-.3 2.6-1.9 2.6-3.3 0-1.3-1.3-2.9-2.6-3.1-1-.2-1.2-.7-1-1.7.7-2.5-1.2-4.4-3.3-4.3-.8 0-1.6.4-2.2 1-.9.9-1.2.9-2.2 0-1.1-1-2.3-1.2-3.6-.7-1.2.5-2 1.7-2.1 3.1.1.4.2.7.3 1zm6.2-5.4c.2.1.5 0 .6-.1 2.5-1.6 5.9-1 7.6 1.6.6.9.9 1.9.8 2.9-.1.6.1.9.7 1.1 2.5 1.2 3.6 4.9 2 7.5-.6.9-1.3 1.5-2.2 2-.2.1-.4.5-.4.8-.2 1-.4 2.1-.5 3.3.9.7 2.5.6 3.9-.2 1.8-1 2.6-3.2 2-5.2-.3-.9-.1-1.3.8-1.6 2.1-.6 3.5-2.3 3.6-4.2 0-2.3-1.4-3.9-3.5-4.5-.9-.2-1.2-.6-.9-1.5.9-2.7-.8-5.2-3.4-5.8-1.5-.3-2.8.2-3.9 1.3-.7.7-1.3.8-2.1 0-1.9-1.9-4.3-1.9-6.2-.3-.1.1-.2.1-.2.2-.3.4-.6.9-.8 1.3.7.7 1.4 1.1 2.1 1.4z"/><path class="st1" d="M416.2 11.8c.1.3.1.7.2 1 .3.9 0 1.5-.9 1.6-1.3.2-2.1 1.1-2.5 2.2-.6 1.6.5 3.8 2.3 4.2 1.2.3 1.4.6 1.1 1.8-.4 1.4.2 2.9 1.6 3.8 1.2.7 2.7.6 3.8-.5 1-1 1.3-1 2.3 0 .9.9 2.1 1.2 3.3.7 1.2-.5 2-1.3 2.2-2.6.1-.5 0-1-.1-1.6-.2-.9.1-1.4 1-1.6 1.5-.3 2.6-1.9 2.6-3.3 0-1.3-1.3-2.9-2.6-3.1-1-.2-1.2-.7-1-1.7.7-2.5-1.2-4.4-3.3-4.3-.8 0-1.6.4-2.2 1-.9.9-1.2.9-2.2 0-1.1-1-2.3-1.2-3.6-.7-1.2.6-2 1.8-2 3.1z"/><path class="st1" d="M420.4 6.4c.8.4 1.5.8 2.3 1.1.2.1.5 0 .6-.1 2.5-1.6 5.9-1 7.6 1.6.6.9.9 1.9.8 2.9-.1.6.1.9.7 1.1 2.5 1.2 3.6 4.9 2 7.5-.6.9-1.3 1.5-2.2 2-.2.1-.4.5-.4.8-.2 1-.4 2.1-.5 3.3.9.7 2.5.6 3.9-.2 1.8-1 2.6-3.2 2-5.2-.3-.9-.1-1.3.8-1.6 2.1-.6 3.5-2.3 3.6-4.2 0-2.3-1.4-3.9-3.5-4.5-.9-.2-1.2-.6-.9-1.5.9-2.7-.8-5.2-3.4-5.8-1.5-.3-2.8.2-3.9 1.3-.7.7-1.3.8-2.1 0-1.9-1.9-4.3-1.9-6.2-.3-.1.1-.2.1-.2.2-.5.7-.7 1.1-1 1.6z"/></g><g><path class="st0" d="M383.4 33.6c-.1.3-.2.7-.2 1 0 .9.1 1.8.2 2.6v.3c.1.4-.2.8-.6.9-.4.1-.8-.2-.9-.6-.2-.9-.3-1.7-.4-2.6-.1-.8 0-1.5.3-2.2.1-.4.2-.7.3-1.1.1-.4.3-.8 0-1.2-.1-.1-.1-.3-.1-.4 0-.7-.1-1.4-.1-2.1 0-.1.1-.2.1-.3.4-.6.7-1.3.8-2.1.1-.5-.2-.8-.6-.9s-.8.1-1 .5v.2c-.1-.6.6-1.2 1.3-1 .2.1.5.3.7.5 1 1.5 1.6 3.2 1.7 5 0 .4 0 .8-.3 1.1-.1.1-.1.2-.1.3l.3 1.5c.1.3.2.7.4 1 .5.9 1 1.8 1.4 2.7.3.5 0 1-.5 1.1-.3.1-.6-.1-.8-.4-.6-1.1-1.2-2.1-1.7-3.2 0-.1 0-.4-.2-.6.1 0 0 0 0 0zM382.7 22.8c0 1-.8 1.9-1.9 1.9s-1.9-.9-1.9-1.9.9-1.9 1.9-1.9c1 .1 1.9.9 1.9 1.9z"/><path class="st0" d="M378.7 29.7c-.5 0-.8-.3-.9-.7 0-.4.2-.8.7-.8 1.5-.2 2.4-1 2.8-2.7.1-.4.3-.6.7-.6.4 0 .6.2.7.5v.3c-.1 1.6-1.5 3.3-3.1 3.8-.2.1-.5.2-.9.2z"/><path class="st0" d="M377.8 29.3l.2.2.1.1c-.1.4-.2.7-.2 1l-1.5 7.5v.2c-.1.1-.2.1-.3.2-.1-.1-.2-.2-.2-.3.1-.6.2-1.1.3-1.6.4-2.2.8-4.4 1.3-6.5.1-.3.2-.5.3-.8zM378.8 29.8c.1 0 .3 0 .5-.1 0 .2 0 .4-.1.6s-.3 0-.4-.2v-.3z"/></g><g><path class="st0" d="M592.2 38.4v-6.8l-.9-1.4-.8 1.4v6.8zM595.3 38.4v-6.8l-.9-1.4-.9 1.4v6.8zM598.2 38.4v-6.8l-.9-1.4-.8 1.4v6.8zM601.2 38.4v-6.8l-.9-1.4-.9 1.4v6.8z"/><path class="st0" d="M590 32.5h11.8v1H590zM590 36.1h11.8v1H590z"/></g><path class="st0" d="M-2.5 37.8h787v3.1h-787z"/></svg>