<svg id="Layer_1" xmlns="http://www.w3.org/2000/svg" viewBox="0 0 783 41"><style>.st0{fill:#82BC00;} .st1{fill:#E3EEC5;}</style><path class="st0" d="M406.2 32.3c0 .5-.1.9-.1 1.4 0 .2-.1.4-.1.6-.4 1-.8 2-1.1 2.9-.1.4-.4.6-.8.7-.7.1-1.3-.5-1-1.2.2-.5.4-1.1.6-1.6.5-1.1.7-2.2.7-3.4v-.5c0-.3 0-.6-.1-.9-.1-.2-.1-.6-.1-.8.2-.9.4-1.7.5-2.6 0 0-.1 0-.1-.1-.4.5-.9.9-1.3 1.4-.2.2-.3.4-.5.5-.3.3-.7.3-1 .1-.3-.2-.4-.7-.1-1 1.1-1.3 2.2-2.6 3.9-3.2 1.2-.5 1.9-.3 2.7.7.7.8 1.4 1.6 2.2 2.4.3.3.7.5 1 .8.3.2.5.5.4.9 0 .1.1.2.2.3 1.2 1.2 2.4 2.5 3.7 3.7l.1.1-.3.3c-.4-.4-.8-.7-1.1-1.1-.9-.9-1.8-1.8-2.7-2.8-.1-.1-.2-.2-.4-.1-.2 0-.5 0-.7-.2-.9-.6-1.7-1.2-2.3-2 0-.1-.1-.1-.1-.2 0 0-.1 0-.1.1-.2.9-.3 1.7-.6 2.6-.1.4 0 .8.2 1.1 1 1.3 1.6 2.8 1.9 4.4.1.4.2.7.3 1.1.1.6-.1 1-.6 1.2-.5.1-1-.1-1.2-.7-.3-.9-.5-1.7-.7-2.6-.1-.9-.8-1.6-1.3-2.3.1 0 .1 0 0 0z"/><path class="st0" d="M416.7 36.2h-2.1c.2.3.3.6.5.9.1.2.1.4-.1.5-.2.1-.4 0-.5-.2-.2-.3-.4-.7-.6-1.1-.2.4-.4.7-.5 1-.1.2-.3.4-.5.3-.3-.1-.2-.4-.1-.6 0-.1.1-.1.1-.2.5-.6.4-1.4.4-2.1 0-.1-.1-.2-.2-.3-.2-.1-.4-.3-.5-.4-.1-.1-.1-.3 0-.4 0-.1.3 0 .4-.1h.1c.4.5 1 .6 1.6.5 1-.2 1.7.4 2.5.9.1 0 .1.2.1.2v2.1c0 .2-.1.4-.3.4-.3 0-.4-.2-.3-.4v-1zM407.9 20.8c1 0 1.9.8 1.9 1.9 0 1-.9 1.9-1.9 1.9-1 0-1.9-.9-1.9-1.9.1-1.1.9-1.9 1.9-1.9zM417.4 34.7c-.5-.3-1-.6-1.5-.8l.6-.9c.2-.3.3-.6.5-.9.1-.1.2-.2.3-.2.1 0 .3.2.3.3 0 .7.5 1 1 1.4.2.2.6.2.5.6-.1.3-.4.4-.8.4h-.1c-.4-.2-.6-.2-.8.1zM563.6 27.3c-2.3-.3-2.3-.3-3.3-1.4L576 10.2c5.1 5.2 10.3 10.4 15.6 15.7-.5 1.1-1.6 1.5-3.1 1.2v11.1h-24.8c-.1-3.6-.1-7.2-.1-10.9zM577 38.5v-3.1-7.6c0-.6.2-.9.8-.8h4.6c.5 0 .6.2.6.7v10.9h3.5V26c0-.3-.3-.7-.5-1-3.1-3.2-6.3-6.3-9.4-9.4l-.6-.6c-3.4 3.5-6.9 6.9-10.3 10.3-.2.2-.2.6-.3.9V38.6c3.9-.1 7.6-.1 11.6-.1zM586.9 20c-1.3-1.4-2.8-2.7-4-4.1-.4-.5-.2-1.4-.3-2.3h4.2c.1 0 .4.4.4.6v5.7c-.1.1-.2.1-.3.1z"/><path class="st1" d="M577 38.5h-11.6v-7.1-5.3c0-.3.1-.7.3-.9 3.4-3.4 6.8-6.9 10.3-10.3.3.2.5.4.6.6l9.4 9.4c.3.3.5.6.5 1v12.6H583v-3.7-7.2c0-.5-.2-.7-.6-.7h-4.6c-.7 0-.8.2-.8.8v10.8zm-8.2-6.9h4.6v-4c0-.2-.4-.5-.6-.5-1.1-.1-2.3 0-3.4 0-.5 0-.6.2-.6.7v3.8z"/><path class="st0" d="M568.8 31.6v-3.9c0-.5.1-.7.6-.7h3.4c.2 0 .5.3.6.5v4c-1.5.1-3 .1-4.6.1zM508.2 8.9c2.3 2.3 4.5 4.6 6.8 7.1 0-.5.1-.9.1-1.3h4.7c0 1.3.1 2.6 0 3.9-.2 1.6.5 2.8 1.6 3.8 1.1.9 2.1 2 3.2 3-.7 1-1.4 1.7-2.6 1.5-.9-.2-1.1.2-1.1 1.1v10.6h-37V27c-2.6-.5-2.6-.5-3.5-1.6 3.3-3.1 6.7-6.2 10-9.3l.2-.2c1.1-1.6 2.7-2 4.6-1.9 2.4.1 4.8.1 7.1 0 .4 0 .8-.2 1-.4 1.7-1.4 3.2-3 4.9-4.7zM497 38.8h12.1v-9.9c0-.7.2-.9.9-.9 1.5 0 3.1.1 4.6 0 .7 0 .9.3.9.9v9.8h3.8v-2.9-9.9c0-.5-.3-1-.6-1.3-3-3.1-6.1-6.1-9.1-9.1-.5-.5-.9-1-1.5-1.8-3.6 3.7-7.1 7.3-10.5 10.9-.3.3-.5.8-.5 1.1v6.9c-.1 1.5-.1 4.8-.1 6.2zm-2 0V27.2h-9.3v11.6h9.3z"/><path class="st1" d="M497 38.8v-6-6.9c0-.4.2-.9.5-1.1 3.4-3.6 6.9-7.1 10.5-10.9.6.7 1 1.3 1.5 1.8l9.1 9.1c.3.3.6.9.6 1.3v12.8h-3.8v-3.3-6.5c0-.7-.2-1-.9-.9h-4.6c-.7 0-.9.2-.9.9V39c-3.9-.2-7.8-.2-12-.2zm8.3-4.2V30h-4.6v4.6h4.6zM495 38.8h-9.3V27.2h9.3v11.6zm-6.9-4.2h4.7V30h-4.7v4.6z"/><path class="st0" d="M505.3 34.6h-4.6V30h4.6v4.6zM488.1 34.6V30h4.7v4.6h-4.7z"/><g><path class="st0" d="M526.1 38.1V14.6h-3.4c.2-.9.3-1.6.6-2.3l4.5-8.7c.3-.5.6-.7 1.2-.7h15.6c.5 0 1 0 1.5-.1V-.1h4.5v4.6h.3c0-.3.1-.7.1-1 0-.5.2-.7.7-.6 1.8 0 3.5 0 5.3.1.3 0 .7.3.9.5 1.6 3 3.2 6.1 4.7 9.2.3.5.3 1.1.5 1.8h-3.4V38c-11.3.1-22.4.1-33.6.1zm31.2-23.4h-29.1V38h11.5V26.8h6.3v11.3h11.4c-.1-7.2-.1-16.3-.1-23.4z"/><path class="st1" d="M557.3 14.7v23.4h-11.4V26.8h-6.3V38h-11.5V14.7h29.2zm-7.9 16.8h4.8v-4.7h-4.8v4.7zm4.8-14.6h-4.3c-.2 0-.5.3-.5.4v4.3h4.8v-4.7zm-13.8 4.8h4.8v-4.1c0-.2-.4-.6-.7-.6-1.4-.1-2.7 0-4.1 0v4.7zm-4.4.1v-4.7h-4.8v4.2c0 .2.4.5.6.5h4.2zm0 9.7v-4.9h-4.2c-.2 0-.5.4-.5.6-.1 1.2-.1 2.5 0 3.7 0 .2.4.6.6.6 1.3.1 2.7 0 4.1 0z"/><path class="st0" d="M549.4 31.5v-4.7h4.8v4.7h-4.8zM554.2 16.9v4.8h-4.8v-4.3c0-.1.3-.4.5-.4 1.4-.1 2.8-.1 4.3-.1zM540.4 21.7V17h4.1c.2 0 .6.4.7.6.1 1.3 0 2.7 0 4.1h-4.8zM536 21.8h-4.2c-.2 0-.6-.3-.6-.5-.1-1.4 0-2.8 0-4.2h4.8v4.7zM536 31.5h-4.1c-.2 0-.6-.4-.6-.6-.1-1.2-.1-2.5 0-3.7 0-.2.4-.5.5-.6h4.2v4.9z"/></g><g><path class="st0" d="M460.2 35.2v-5.6c0-.1.1-.3.1-.4.2-.7.6-1.1 1.3-1.4.3-.1.4-.2.5-.5.4-1.2.9-2.4 1.4-3.5.4-1.1 1.1-1.6 2.4-1.7h8c1.2 0 1.9.5 2.4 1.7.4 1 .8 2 1.1 3 .2.5.3 1 1 1.2.1 0 .3.2.4.3.3.4.5.8.7 1.2v5.7H478v.9c0 .4 0 .8-.1 1.2-.1.9-1.1 1.4-1.9 1-.7-.3-.9-.8-.9-1.5v-1.5h-10.4v1.9c0 .6-.4 1-1 1.2-.5.2-1 .1-1.4-.3-.4-.4-.5-.8-.5-1.4v-1.5h-1.6zm15.8-7.4c-.4-1.1-.8-2.2-1.2-3.2-.2-.6-.4-.8-1.1-.8h-7.8c-.7 0-.9.1-1.1.8-.4 1-.7 1.9-1.1 2.9 0 .1-.1.2-.1.3H476zm-12.8 4.3c.7 0 1.3-.6 1.3-1.3 0-.7-.6-1.4-1.3-1.4-.7 0-1.3.6-1.3 1.3 0 .7.6 1.4 1.3 1.4zm14.5-1.4c0-.7-.6-1.4-1.3-1.4-.7 0-1.3.6-1.3 1.4 0 .7.6 1.3 1.3 1.3.7.1 1.3-.6 1.3-1.3z"/><path class="st1" d="M476 27.8h-12.4c0-.1.1-.2.1-.3.4-1 .7-1.9 1.1-2.9.2-.6.4-.8 1.1-.8h7.8c.7 0 .9.1 1.1.8.4 1 .8 2.1 1.2 3.2zM463.2 32.1c-.7 0-1.3-.6-1.3-1.4 0-.7.6-1.3 1.3-1.3.7 0 1.3.6 1.3 1.4 0 .7-.6 1.3-1.3 1.3zM477.7 30.7c0 .7-.6 1.4-1.3 1.4-.7 0-1.3-.6-1.3-1.3 0-.7.6-1.4 1.3-1.4.7-.1 1.3.6 1.3 1.3z"/></g><g><path class="st0" d="M695.6 33.9c-.2.6-.7.9-1.3.8h-1.8c-.2-1.1-.7-2-1.7-2.6-.7-.4-1.4-.6-2.2-.6-1.4.1-3 1.1-3.3 3.1h-6.1c-.2-1.1-.7-1.9-1.6-2.5-.7-.4-1.4-.6-2.2-.6-1.4.1-3 1.1-3.3 3.1h-2.2c-.5 0-.7-.4-.9-.8v-2.5-.1c.3-1.4 1.1-2.5 2.3-3.2.9-.5 1.9-.6 2.9-.6.5 0 .9-.2 1.3-.6 1-1.2 2-2.3 2.9-3.5.5-.7 1.2-1 2.1-1h7.2c.4.1.7.2.9.5.2.2.3.4.5.7.9 1.1 1.7 2.3 2.6 3.4.3.4.6.6 1.1.6h1.6c.6 0 1.1.2 1.3.8-.1 1.9-.1 3.8-.1 5.6zm-6.1-6.5c-.6-.9-1.3-1.7-1.9-2.6-.2-.2-.4-.4-.7-.4h-2.5v3.1h5.2s0-.1-.1-.1zm-7.2-2.7v-.2h-1.9c-.3 0-.5.2-.7.4-.7.9-1.4 1.7-2.1 2.6h4.7v-2.8z"/><path class="st1" d="M689.6 27.5c0-.1-.1-.1-.1-.1-.6-.9-1.3-1.7-1.9-2.6-.2-.2-.4-.4-.7-.4h-2.5v3.1h5.2zM682.3 27.5v-2.8-.2h-1.9c-.3 0-.5.2-.7.4-.7.9-1.4 1.7-2.1 2.6h4.7z"/><path class="st0" d="M675.6 37.6c1.3 0 2.4-1 2.4-2.4 0-1.3-1-2.4-2.4-2.4-1.3 0-2.4 1.1-2.4 2.4.1 1.3 1.1 2.4 2.4 2.4zM689 37.6c1.3 0 2.4-1 2.4-2.4 0-1.3-1.1-2.4-2.4-2.4-1.3 0-2.4 1.1-2.4 2.4 0 1.3 1.1 2.4 2.4 2.4z"/></g><g><path class="st0" d="M628.3 33H627c.6-1.9 1.2-3.8 1.7-5.7 0 0-.1 0-.1-.1-.1.1-.2.2-.2.3-.3.8-.5 1.6-.7 2.4 0 .1-.1.2-.1.3-.1.2-.4.3-.6.3s-.4-.3-.4-.5v-.3c.3-1 .6-2 .9-3.1.2-.5.4-1.1 1.1-1.1.9-.1 1.8-.1 2.7 0 .6 0 .9.6 1.1 1.1.2.8.5 1.5.7 2.3.1.3.2.5.2.8.1.4 0 .7-.4.8-.3.1-.6-.1-.7-.5-.3-.8-.5-1.7-.8-2.5 0-.1-.1-.2-.2-.3 0 0-.1 0-.1.1.6 1.9 1.1 3.8 1.7 5.7h-1c-.3 0-.4.1-.4.4V37c0 .2-.1.4-.2.6-.1.3-.4.3-.7.3-.3 0-.5-.2-.6-.5 0-.2-.1-.3-.1-.5v-3.6c0-.1-.1-.2-.1-.3 0 .1-.1.2-.1.3v4c-.1.3-.3.5-.7.6-.3 0-.6-.2-.7-.5 0-.1-.1-.3-.1-.5.2-1.3.2-2.6.2-3.9zM624.2 36.2c-.2-.2-.4-.5-.6-.7-.8.4-1.6.2-2.3-.2-.2-.1-.8.2-.8.5 0 .1.1.2.2.2.4.3.6.7.5 1.1-.1.4-.5.7-.9.7s-.8-.3-1-.7c-.1-.4 0-.8.5-1.1.1-.1.2-.2.2-.3 0-.2.1-.3.2-.5 1.3-1 2.5-2.1 3.8-3.1.3-.2.5-.5.8-.8.2-.2.4-.4.6-.5.4-.3.9-.1 1.2.3.2.4.1 1-.3 1.2h-.2s-.1-.2 0-.2c0-.1.2-.2.2-.3 0-.2 0-.4-.1-.5-.1-.1-.4-.1-.5-.1-.4.3-.7.7-1.1 1v.2c.1.8 0 1.6-.3 2.4v.3c.1.2.3.3.4.4.2.2.3.3.6.3.4 0 .7.3.8.8.1.4-.1.8-.5 1-.4.2-.8.2-1.1-.1-.3-.3-.4-.7-.2-1.1-.2 0-.2-.1-.1-.2zM623.6 30.8c0 .8-.6 1.4-1.4 1.4-.8 0-1.4-.6-1.4-1.4 0-.8.7-1.5 1.4-1.5.8.1 1.4.7 1.4 1.5zM629.9 21.7c.9 0 1.7.8 1.7 1.7 0 .9-.8 1.8-1.8 1.7-.9 0-1.7-.8-1.7-1.7.1-.9.9-1.7 1.8-1.7zM621.4 33.8c-.6.5-1.1.9-1.7 1.4-.3.2-.6.2-.8 0-.2-.2-.1-.5.1-.7.3-.3.6-.5.9-.8.6-.5 1-.4 1.5.1z"/></g><g><path class="st0" d="M420.3 28.7h-.8c-1.4 0-2.6-.5-3.5-1.5-1.1-1.1-1.6-2.4-1.6-3.9 0-.3-.1-.8-.3-.9-2.1-1.2-3.1-2.9-3-5.3.1-1.9 1-3.2 2.6-4.2.5-.3.8-.6.8-1.2-.1-2.2 1.5-4.4 3.5-5.1.2-.1.5-.3.5-.5.4-1.1 1-2.1 1.9-2.9 2.1-2 5.8-2.1 8-.5.4.3.6.3 1 .1 1.2-.8 2.4-1.1 3.9-1.2 3.6 0 6.4 3 6.3 6.6 0 .9.3 1.1.9 1.4 2.6 1.3 3.9 4.6 3.1 7.4-.6 2.1-2.1 3.5-4 4.3.8 3.9-2.6 9-8.9 7.1v10.4h-2V28.4c-.8.1-1.6.1-2.4.2v10.2h-2.1V38v-9.4c0-.7-.4-.9-.8-1-.4-.1-.8.5-.8 1V38.8h-2c-.3-3.2-.3-6.6-.3-10.1zm-3.7-16c.3.9 0 1.5-.9 1.6-1.3.2-2.1 1.1-2.5 2.2-.6 1.6.5 3.8 2.3 4.2 1.2.3 1.4.6 1.1 1.8-.4 1.4.2 2.9 1.6 3.8 1.2.7 2.7.6 3.8-.5 1-1 1.3-1 2.3 0 .9.9 2.1 1.2 3.3.7 1.2-.5 2-1.3 2.2-2.6.1-.5 0-1-.1-1.6-.2-.9.1-1.4 1-1.6 1.5-.3 2.6-1.9 2.6-3.3 0-1.3-1.3-2.9-2.6-3.1-1-.2-1.2-.7-1-1.7.7-2.5-1.2-4.4-3.3-4.3-.8 0-1.6.4-2.2 1-.9.9-1.2.9-2.2 0-1.1-1-2.3-1.2-3.6-.7-1.2.5-2 1.7-2.1 3.1.1.4.2.7.3 1zm6.2-5.4c.2.1.5 0 .6-.1 2.5-1.6 5.9-1 7.6 1.6.6.9.9 1.9.8 2.9-.1.6.1.9.7 1.1 2.5 1.2 3.6 4.9 2 7.5-.6.9-1.3 1.5-2.2 2-.2.1-.4.5-.4.8-.2 1-.4 2.1-.5 3.3.9.7 2.5.6 3.9-.2 1.8-1 2.6-3.2 2-5.2-.3-.9-.1-1.3.8-1.6 2.1-.6 3.5-2.3 3.6-4.2 0-2.3-1.4-3.9-3.5-4.5-.9-.2-1.2-.6-.9-1.5.9-2.7-.8-5.2-3.4-5.8-1.5-.3-2.8.2-3.9 1.3-.7.7-1.3.8-2.1 0-1.9-1.9-4.3-1.9-6.2-.3-.1.1-.2.1-.2.2-.3.4-.6.9-.8 1.3.7.7 1.4 1.1 2.1 1.4z"/><path class="st1" d="M416.4 11.7c.1.3.1.7.2 1 .3.9 0 1.5-.9 1.6-1.3.2-2.1 1.1-2.5 2.2-.6 1.6.5 3.8 2.3 4.2 1.2.3 1.4.6 1.1 1.8-.4 1.4.2 2.9 1.6 3.8 1.2.7 2.7.6 3.8-.5 1-1 1.3-1 2.3 0 .9.9 2.1 1.2 3.3.7 1.2-.5 2-1.3 2.2-2.6.1-.5 0-1-.1-1.6-.2-.9.1-1.4 1-1.6 1.5-.3 2.6-1.9 2.6-3.3 0-1.3-1.3-2.9-2.6-3.1-1-.2-1.2-.7-1-1.7.7-2.5-1.2-4.4-3.3-4.3-.8 0-1.6.4-2.2 1-.9.9-1.2.9-2.2 0-1.1-1-2.3-1.2-3.6-.7-1.2.6-2 1.8-2 3.1z"/><path class="st1" d="M420.6 6.3c.8.4 1.5.8 2.3 1.1.2.1.5 0 .6-.1 2.5-1.6 5.9-1 7.6 1.6.6.9.9 1.9.8 2.9-.1.6.1.9.7 1.1 2.5 1.2 3.6 4.9 2 7.5-.6.9-1.3 1.5-2.2 2-.2.1-.4.5-.4.8-.2 1-.4 2.1-.5 3.3.9.7 2.5.6 3.9-.2 1.8-1 2.6-3.2 2-5.2-.3-.9-.1-1.3.8-1.6 2.1-.6 3.5-2.3 3.6-4.2 0-2.3-1.4-3.9-3.5-4.5-.9-.2-1.2-.6-.9-1.5.9-2.7-.8-5.2-3.4-5.8-1.5-.3-2.8.2-3.9 1.3-.7.7-1.3.8-2.1 0-1.9-1.9-4.3-1.9-6.2-.3-.1.1-.2.1-.2.2-.5.7-.7 1.1-1 1.6z"/></g><g><path class="st0" d="M383.8 33.5c-.1.3-.2.7-.2 1 0 .9.1 1.8.2 2.6v.3c.1.4-.2.8-.6.9-.4.1-.8-.2-.9-.6-.2-.9-.3-1.7-.4-2.6-.1-.8 0-1.5.3-2.2.1-.4.2-.7.3-1.1.1-.4.3-.8 0-1.2-.1-.1-.1-.3-.1-.4 0-.7-.1-1.4-.1-2.1 0-.1.1-.2.1-.3.4-.6.7-1.3.8-2.1.1-.5-.2-.8-.6-.9-.4-.1-.8.1-1 .5v.2c-.1-.6.6-1.2 1.3-1 .2.1.5.3.7.5 1 1.5 1.6 3.2 1.7 5 0 .4 0 .8-.3 1.1-.1.1-.1.2-.1.3l.3 1.5c.1.3.2.7.4 1 .5.9 1 1.8 1.4 2.7.3.5 0 1-.5 1.1-.3.1-.6-.1-.8-.4-.6-1.1-1.2-2.1-1.7-3.2 0-.1 0-.4-.2-.6.1 0 0 0 0 0zM383.1 22.7c0 1-.8 1.9-1.9 1.9-1.1 0-1.9-.9-1.9-1.9 0-1 .9-1.9 1.9-1.9 1 .1 1.9.9 1.9 1.9z"/><path class="st0" d="M379.1 29.6c-.5 0-.8-.3-.9-.7 0-.4.2-.8.7-.8 1.5-.2 2.4-1 2.8-2.7.1-.4.3-.6.7-.6.4 0 .6.2.7.5v.3c-.1 1.6-1.5 3.3-3.1 3.8-.2.1-.5.2-.9.2zM378.2 29.2l.2.2.1.1c-.1.4-.2.7-.2 1l-1.5 7.5v.2c-.1.1-.2.1-.3.2-.1-.1-.2-.2-.2-.3.1-.6.2-1.1.3-1.6.4-2.2.8-4.4 1.3-6.5.1-.3.2-.5.3-.8zM379.2 29.7c.1 0 .3 0 .5-.1 0 .2 0 .4-.1.6-.1.2-.3 0-.4-.2v-.3z"/></g><g><path class="st0" d="M591.5 38.3v-6.8l-.9-1.4-.8 1.4v6.8zM594.5 38.3v-6.8l-.9-1.4-.9 1.4v6.8zM597.4 38.3v-6.8l-.9-1.4-.8 1.4v6.8zM600.4 38.3v-6.8l-.9-1.4-.9 1.4v6.8z"/><path class="st0" d="M589.3 32.4H601v1h-11.7zM589.3 36H601v1h-11.7z"/></g><path class="st0" d="M0 37.7h782.7v3.1H0z"/></svg>