<svg id="Layer_1" xmlns="http://www.w3.org/2000/svg" viewBox="0 -4 783 49"><style>.st0{fill:#0075C9;} .st1{fill:#C2DAF1;}</style><path class="st0" d="M40.1 19.2c-.5.2-1 .4-1.6.6 1.9-3 3.5-5.9 4.6-9.4 1.1 3.6 2.8 6.6 4.8 9.5-.6-.3-1.2-.5-1.7-.8 0 .1-.1.1-.1.2 1.1 2.2 2.1 4.4 3.3 6.8-.6-.3-1.1-.5-1.7-.8 1 2.1 2 4 3 6.1-.6-.2-1.1-.4-1.6-.6l-.1.1 2.7 4.8c-5.8 1.8-11.6 1.8-17.4 0 .9-1.7 1.8-3.3 2.8-5-.6.3-1.2.5-1.8.7 1-2 1.9-4 2.9-5.9l-.1-.1c-.4.2-.9.4-1.4.6.6-1.3 1.2-2.4 1.7-3.6.5-.9.9-1.9 1.4-2.8.2-.1.2-.3.3-.4 0-.1 0-.1 0 0 0-.1 0-.1 0 0zM45.4 41.8h-4.9c.3-.6.8-1.1 1-1.7s.2-1.4.3-2.1h1.9c.1 0 .2.1.3.3.5 1.1.9 2.3 1.4 3.5z"/><path class="st0" d="M31.6 25.5c-.4.1-.9.3-1.4.5 1.6-2.1 3.1-4.2 4-6.8 1 2.6 2.4 4.7 4.2 6.9-.6-.2-1-.4-1.5-.5l-.1.1c.9 1.6 1.9 3.2 2.9 4.9-.5-.2-.9-.4-1.5-.6.9 1.5 1.8 2.9 2.6 4.4-.5-.2-.9-.3-1.4-.4l-.1.1c.8 1.1 1.6 2.3 2.4 3.5-5.1 1.3-10.1 1.3-15.2 0 .8-1.2 1.6-2.4 2.5-3.6-.6.2-1 .3-1.6.5.9-1.5 1.7-2.8 2.5-4.2l-.1-.1c-.4.1-.8.3-1.2.5.5-.9 1-1.8 1.5-2.6.4-.7.8-1.4 1.2-2 .2-.4.3-.5.3-.6 0 0 0-.1 0 0zM36.3 41.8H32c.3-.4.7-.8.9-1.3.2-.4.2-1 .2-1.5h1.6c.1 0 .2.1.2.2.5.8.9 1.7 1.4 2.6zM187.1 42.6h-2.4v-1-11.7c0-.7-.6-1.5-1.1-1.3-.6.2-1 .5-1 1.3.1 3.9 0 7.8 0 11.7v1H180V29.9c-1.1-.1-2-.2-3-.3v6.1h-2.5v-6.2c-7.9 2.3-12-4.1-11-8.9-2.4-1.1-4.2-2.7-5-5.4-1-3.5.6-7.6 3.8-9.2.8-.4 1.2-.7 1.1-1.7-.2-4.4 3.3-8.2 7.8-8.2 1.8 0 3.4.4 4.8 1.4.4.3.7.3 1.2-.1 2.7-2 7.3-1.9 9.9.6 1.1 1 1.8 2.2 2.4 3.6.1.3.4.6.7.7 2.5.8 4.5 3.5 4.4 6.3 0 .8.3 1.1.9 1.5 1.9 1.2 3 2.8 3.2 5.2.2 3-1.2 5.1-3.7 6.6-.3.2-.4.7-.4 1.1-.1 1.9-.6 3.5-2 4.8-1.2 1.2-2.7 1.9-4.4 1.8h-1c-.1 4.5-.1 8.7-.1 13zm4.8-33.8c-.1-1.7-1.1-3.2-2.6-3.8-1.7-.7-3.1-.3-4.4.9-1.2 1.1-1.5 1.2-2.7 0-.7-.7-1.6-1.2-2.7-1.2-2.6 0-4.9 2.2-4.1 5.3.3 1.2 0 1.8-1.2 2.1-1.6.3-3.1 2.2-3.2 3.9-.1 1.8 1.4 3.7 3.2 4.1 1.2.3 1.5.8 1.2 2-.1.6-.2 1.3-.1 1.9.2 1.7 1.2 2.7 2.7 3.3 1.5.6 2.9.1 4.1-.9 1.3-1.2 1.7-1.2 2.9 0 1.3 1.3 3.2 1.5 4.7.6 1.8-1.1 2.6-2.9 2-4.7-.4-1.4-.2-1.8 1.3-2.2 2.2-.6 3.6-3.2 2.8-5.2-.6-1.4-1.5-2.5-3.1-2.8-1.1-.2-1.5-.9-1.1-2 .2-.5.3-.9.3-1.3zM186.8 2c-.3-.5-.7-1-1-1.6l-.3-.3c-2.4-2-5.4-2-7.7.3-.9.9-1.7.8-2.6-.1-1.3-1.4-2.9-2-4.8-1.6-3.2.7-5.3 3.8-4.2 7.2.3 1 0 1.6-1.1 1.8-2.6.7-4.4 2.7-4.4 5.5 0 2.4 1.8 4.5 4.4 5.2 1.2.3 1.4.8 1 1.9-.8 2.5.2 5.1 2.5 6.4 1.7 1 3.7 1.1 4.8.2-.2-1.4-.4-2.7-.7-4-.1-.4-.3-.8-.5-1-1.1-.6-2-1.4-2.7-2.5-2-3.2-.7-7.7 2.4-9.3.7-.3.9-.7.8-1.4-.1-1.3.3-2.5 1-3.6 2.1-3.2 6.3-4 9.4-2 .2.1.6.2.8.1.9-.3 1.9-.8 2.9-1.2z"/><path class="st0" d="M175.6 39.3v3.3H173v-2.7c0-.5-.1-.7-.7-.8-2.6-.4-5.1-1.4-7-3.2-3.2-2.9-6.2-6-9.3-9l-.8-.8v16.5h-2.4v-7.9h-10v7.9h-2.6v-1V14c0-1.9.4-2.2 2.3-2.2h10.8c1.7 0 2 .3 2 2v8c0 .4.2.8.5 1.1 3.1 3.1 6.2 6.3 9.4 9.4 2.2 2.1 4.6 3.8 7.7 4.3 1.6.2 3.2.2 4.8.3 1.1.1 1.7 1 1.1 1.9-.2.3-.6.5-.9.5-.8.1-1.6 0-2.3 0zm-32.8-14.6v7.5h9.9v-7.5h-9.9zm8-2.5c0-1.3.1-2.5 0-3.7-.1-1.4-1.4-2.5-2.7-2.6-1.7-.2-3 1.2-3.1 2.3-.2 1.3 0 2.7 0 4.1h1.1c1.3-.1 3-.1 4.7-.1zM125.3 34.6V19.2h-7v15.5c.9 0 1.3.4 1.4 1.1.1.7-.3 1.1-.9 1.4-3.2 1.4-6.3 1.4-9.5-.1-.4-.2-.8-.9-.8-1.4 0-.4.6-.8 1-1.2.1.1.2.1.3.2V19.2h-2.5v23.5h-2.5v-.9-23.7c0-1.2.3-1.5 1.5-1.5H137c1.2 0 1.7.5 1.7 1.7v24.5h-2.6V19.3h-2.5v15.5c.1-.1.2-.1.3-.2.3.4.8.7 1 1.2.3.8-.2 1.3-.9 1.6-2.9 1.2-5.8 1.2-8.8.2-.5-.2-1.1-.6-1.4-1.1-.2-1 .3-1.7 1.5-1.9zM111 19.1c0 .5.2 1 .1 1.4-.3.7 0 1.4 0 2.2 0 .8-.2 1.7 0 2.5.1.5-.3 1.1-.3 1.6 0 .9.1 1.8.2 2.7 0 .5.1 1.1.1 1.6 0 .6-.1 1.2-.1 1.9v2.1c1.7.8 4.7.8 6.1-.1V19.1H111zm21.6 0h-6.2V35c2 .8 4.2.8 6.2 0V19.1zM147.8 10.9h-5.9c-.5 0-1.2-.3-1.4-.7-.3-.6-.2-1.2.4-1.8 1.9-1.8 3.7-3.7 5.6-5.6.9-.9 1.7-.9 2.6 0l5.5 5.5c.6.6.9 1.3.5 1.9-.2.4-1 .6-1.5.7-2 .1-3.8 0-5.8 0zm0-5.5L145 8.2h5.6c-1-.9-1.8-1.9-2.8-2.8z"/><path class="st1" d="M191.9 8.8c-.1.4-.1.8-.3 1.2-.4 1.1.1 1.8 1.1 2 1.6.3 2.6 1.3 3.1 2.8.8 2-.7 4.7-2.8 5.2-1.5.4-1.8.8-1.3 2.2.5 1.7-.3 3.6-2 4.7-1.5.9-3.4.7-4.7-.6-1.2-1.2-1.6-1.2-2.9 0-1.2 1.1-2.6 1.5-4.1.9s-2.5-1.6-2.7-3.3c-.1-.6 0-1.3.1-1.9.2-1.2-.1-1.7-1.2-2-1.8-.4-3.3-2.3-3.2-4.1 0-1.6 1.6-3.6 3.2-3.9 1.2-.2 1.5-.8 1.2-2.1-.8-3.1 1.5-5.4 4.1-5.3 1 0 1.9.5 2.7 1.2 1.2 1.2 1.5 1.1 2.7 0 1.3-1.2 2.8-1.6 4.4-.9s2.6 2.2 2.6 3.9z"/><path class="st1" d="M186.8 2c-1 .5-1.9.9-2.8 1.3-.2.1-.6 0-.8-.1-3.1-2-7.4-1.2-9.4 2-.7 1.1-1.1 2.3-1 3.6.1.7-.2 1.1-.8 1.4-3.1 1.5-4.5 6-2.4 9.3.7 1.1 1.6 1.9 2.7 2.5.3.2.5.6.5 1 .3 1.3.4 2.6.7 4-1.1.9-3.1.8-4.8-.2-2.2-1.3-3.2-3.9-2.5-6.4.4-1.2.1-1.6-1-1.9-2.6-.7-4.4-2.8-4.4-5.2 0-2.9 1.7-4.8 4.4-5.5 1.1-.3 1.5-.8 1.1-1.8-1.1-3.4.9-6.5 4.2-7.2 1.9-.4 3.5.3 4.8 1.6.9.9 1.7 1 2.6.1 2.3-2.3 5.3-2.3 7.7-.3l.3.3c.2.4.5 1 .9 1.5zM150.8 22.2h-5.9c0-1.4-.1-2.7 0-4.1.1-1 1.4-2.4 3.1-2.3 1.4.1 2.6 1.3 2.7 2.6.1 1.3.1 2.5.1 3.8zM147.8 5.4c.8.9 1.8 1.8 2.7 2.8h-5.6c1-.8 1.9-1.8 2.9-2.8z"/><g><path class="st0" d="M272.2 42.1c-.5-.1-.9-.2-1.3-.4-1.1-.6-1.8-1.5-1.9-2.7v-1c0-.1 0-.1-.1-.2-.3-.2-.7-.5-1.1-.7v.9c0 .7.1 1.5.1 2.2 0 .2-.1.3-.2.3-.2 0-.3-.1-.3-.2-.1-.3-.1-.6-.2-1-.2-1.2-.4-2.3-.6-3.5 0 0 0-.1-.1-.1-.5-.6-.8-1.2-1.1-1.9-.3.6-.5 1.2-.8 1.8.2.2.4.4.6.7 1.7 2.2.4 5.3-2.3 5.7-2 .3-3.8-1.1-4.1-3 0-.1 0-.3-.1-.4V38.3c0-.9.4-1.6 1-2.2 1-1 2.1-1.3 3.5-1 .2 0 .4.1.7.2.2-.5.5-1.1.7-1.7.2-.4.3-.9.4-1.3.1-.2.2-.3.4-.4.8-.1 1.5-.3 2.3-.4.2 0 .3-.1.4-.2.6-.6 1.1-1.2 1.7-1.9.3-.3.7-.5 1.2-.3.4.1.6.5.6 1v3.3c0 .4-.2.7-.5.9-1 .6-2.1 1.3-3.1 1.9 0 0-.1 0-.1.1.4.3.9.7 1.3 1 .1-.1.1-.3.2-.4.7-1.1 1.7-1.8 3-1.8.8 0 1.5.2 2.2.6 1.2.9 1.7 2 1.5 3.5-.2 1.3-.9 2.3-2.2 2.8-.3.1-.7.2-1 .3-.3-.2-.5-.2-.7-.2zm-9.3-3.6l-.3.3c-.2.2-.4.2-.6.1-.2-.1-.2-.4 0-.6.5-.7 1-1.4 1.4-2.1 0 0 0-.1.1-.1-1.3-.6-2.9 0-3.6 1.2-.7 1.3-.2 2.9 1.1 3.7 1.2.7 2.9.3 3.7-.9.8-1.2.5-2.8-.5-3.6-.4.6-.9 1.3-1.3 2zm9 2.8c1.5.3 2.9-.6 3.3-2.1.3-1.4-.6-2.9-1.9-3.3-1.5-.4-2.9.5-3.4 1.7.3.1.5.2.8.3.6.2 1.2.3 1.8.4.3 0 .5.2.4.4 0 .2-.2.4-.5.4-.9-.1-1.8-.3-2.6-.6h-.1c-.1 1.1.7 2.5 2.2 2.8zm-3.8-8.9c-.1 0-.1.1-.2.1h-2.1c.2 1 .6 1.9 1.1 2.7.4-.3.7-.6 1.1-.9.5-.4.9-.8 1.4-1.2 0 0 .1-.1.1-.2v-1.4-.1c-.5.4-.9.7-1.4 1zM269.4 25.6c-.4.1-.8.3-1 .7-.4.6-.4 1.4 0 2 .5.6 1.3.8 2 .4.6-.3 1-1 .9-1.6-.1-.7-.6-1.3-1.3-1.4h-.1c-.2-.1-.3-.1-.5-.1z"/><path class="st0" d="M262.5 32h-1.1s-.5.2-.4.6c.1.5.2 1.1.3 1.6 0 .2.2.4.4.4h1.5c.2 0 .4-.1.4-.3.2-.6.3-1.2.4-1.7.1-.3-.1-.5-.4-.5-.4-.1-.7-.1-1.1-.1z"/></g><g><path class="st0" d="M96.5 30.8c0-.1 0-.1 0 0 .1-.5.3-.9.7-1.2.3-.2.6-.3 1-.3h2.9c.6 0 1.1.3 1.5.8.2.3.2.5.2.8v4c0 .3-.2.5-.5.6s-.6-.1-.7-.4v-.2-3.5-.1h-.3v10c0 .3-.1.5-.3.6-.1.1-.2.1-.3.1h-.2c-.1 0-.3-.1-.4-.2-.2-.2-.2-.3-.2-.6v-4.9-.9-.1h-.3V41.2c0 .3-.3.6-.6.6H98.7c-.2 0-.3-.1-.4-.2s-.2-.3-.2-.5v-9.9-.1h-.3V34.9c-.1.2-.3.4-.5.4-.3 0-.5-.2-.6-.4-.2-1.3-.2-2.7-.2-4.1zM99.8 25.7h.2c.6.2 1.1.5 1.3 1.2.2.7-.1 1.4-.7 1.8-.8.5-1.8.3-2.3-.5-.5-.7-.2-1.7.5-2.2.2-.1.5-.2.7-.3H99.8zM86.6 30.8c0-.1 0-.1 0 0 .1-.5.3-.9.7-1.2.3-.2.6-.3 1-.3h2.9c.6 0 1.1.3 1.5.8.2.3.2.5.2.8v4c0 .3-.2.5-.5.6s-.6-.1-.7-.4v-.2-3.5-.1h-.3v10c0 .3-.1.5-.3.6-.1.1-.2.1-.3.1h-.2c-.1 0-.3-.1-.4-.2-.2-.2-.2-.3-.2-.6v-4.9-.9-.1h-.3V41.2c0 .3-.3.6-.6.6H88.8c-.2 0-.3-.1-.4-.2s-.2-.3-.2-.5v-9.9-.1h-.3V34.9c-.1.2-.3.4-.5.4-.3 0-.5-.2-.6-.4-.2-1.3-.2-2.7-.2-4.1zM89.9 25.7h.2c.6.2 1.1.5 1.3 1.2.2.7-.1 1.4-.7 1.8-.8.5-1.8.3-2.3-.5-.5-.7-.2-1.7.5-2.2.2-.1.5-.2.7-.3H89.9z"/><g><path class="st0" d="M93.6 42c-.2-.2-.2-.4-.2-.6V40v-1.3-.1h-.3c-.4-.1-.7-.4-.7-.8v-2.7c0-.5.4-.9.9-.9H96c.5 0 .9.4.9.8v2.7c0 .4-.3.8-.8.8h-.2v3c0 .2-.1.3-.2.4H95c-.1-.1-.2-.3-.2-.5v-3h-.3v3c0 .2-.1.4-.2.5-.2.1-.4.1-.7.1zM93.3 32.3c0-.8.7-1.5 1.5-1.5s1.5.7 1.4 1.5c0 .8-.7 1.4-1.5 1.4-.8.1-1.4-.6-1.4-1.4z"/></g></g><g><path class="st0" d="M198.3 41.8s-.1 0 0 0c-.3-.1-.5-.2-.6-.5v-.2-2-2.3-.1H196l1.8-6h-.2v.1c-.3.9-.6 1.8-.8 2.8-.1.2-.1.4-.2.6-.1.3-.3.4-.6.4-.1 0-.3-.1-.4-.1-.2-.1-.2-.3-.2-.5s.1-.3.1-.5c.3-1 .6-2.1.9-3.1.1-.3.2-.6.4-.8.3-.3.6-.5 1-.6h2.2c.6 0 1.1.3 1.5.8.1.2.2.4.2.6.3 1.2.7 2.3 1 3.5V34.2c0 .1-.1.2-.2.3-.1.1-.3.2-.5.1-.2 0-.4-.2-.4-.4-.3-1.1-.7-2.2-1-3.4v-.1h-.3l1.8 6h-1.6V41.3c-.1.2-.2.4-.5.4h-.2c-.3 0-.6-.3-.6-.7v-2.3-1.9-.1h-.3v4.5c-.1.3-.3.4-.6.6.1 0 0 0 0 0zM199.2 25.6h.2c.5.1 1 .4 1.2.9.3.6.2 1.3-.3 1.8-.4.4-.9.6-1.4.5-.5 0-.9-.3-1.2-.7-.2-.3-.3-.6-.3-1 0-.6.3-1 .8-1.3.2-.1.5-.2.7-.2H199.2z"/><path class="st0" d="M193.6 41.8c-.2-.2-.2-.4-.2-.6v-1.4-1.3-.1h-.3c-.4-.1-.7-.4-.7-.8v-2.7c0-.5.4-.9.9-.9h2.7c.5 0 .8.4.8.8v2.7c0 .4-.3.8-.8.8h-.2v3c0 .2-.1.3-.2.4h-.7c-.1-.1-.2-.3-.2-.5v-2.9h-.3V41.2c0 .2-.1.4-.2.5-.3.1-.4.1-.6.1zM193.1 32.2c0-.8.6-1.4 1.4-1.4.8 0 1.4.7 1.4 1.5s-.6 1.4-1.5 1.4c-.6-.1-1.3-.7-1.3-1.5z"/></g><g><path class="st0" d="M5.2 30.6c0-.1 0-.1 0 0 .1-.5.3-.9.7-1.2.3-.2.6-.3 1-.3h2.9c.6 0 1.1.3 1.5.8.2.3.2.5.2.8v4c0 .3-.2.5-.5.6s-.6-.1-.7-.4v-.2-3.5-.1H10V41c0 .3-.1.5-.3.6-.1.1-.2.1-.3.1h-.2c-.1 0-.3-.1-.4-.2-.2-.2-.2-.3-.2-.6v-4.8-.8-.1h-.3V41.1c0 .3-.3.6-.6.6H7.4c-.2 0-.3-.1-.4-.2s-.2-.3-.2-.5v-9.8-.1h-.3V34.9c-.2.1-.4.3-.7.3-.3 0-.5-.2-.6-.4v-4.2zM8.5 25.6h.2c.6.2 1.1.5 1.2 1.2.2.7-.1 1.4-.7 1.8-.8.5-1.8.3-2.3-.5-.4-.9-.2-1.8.5-2.3.2-.1.5-.2.7-.3h.1c.1.1.2.1.3.1zM17.8 41.7c-.1 0-.1 0 0 0-.3-.1-.5-.2-.6-.5V41v-2-2.3-.1h-1.7l1.8-6h-.2v.1c-.3.9-.6 1.8-.8 2.8-.1.2-.1.4-.2.6-.1.3-.3.4-.6.4-.1 0-.3-.1-.4-.1-.2-.1-.2-.3-.2-.5s.1-.3.1-.5c.3-1 .6-2.1.9-3.1.1-.3.2-.6.4-.8.3-.3.6-.5 1-.6h2.2c.6 0 1.1.3 1.5.8.1.2.2.4.2.6.3 1.2.7 2.3 1 3.5V34.1c0 .1-.1.2-.2.3s-.3.2-.5.1c-.2 0-.4-.2-.4-.4-.3-1.1-.7-2.2-1-3.4v-.1h-.3l1.8 6H20V41.2c-.1.2-.2.4-.5.4h-.2c-.3 0-.6-.3-.6-.7v-2.3-1.9-.1h-.3v4.6c-.1.3-.3.4-.5.5h-.1zM18.7 25.4h.2c.6.1 1 .4 1.2.9.3.6.2 1.3-.3 1.8-.4.4-.9.6-1.4.5-.5 0-.9-.3-1.2-.7-.2-.3-.3-.6-.3-1 0-.6.3-1 .8-1.3.2-.1.5-.2.7-.2H18.7z"/><g><path class="st0" d="M12.3 41.8c-.2-.2-.2-.4-.2-.6v-1.4-1.3-.1h-.3c-.4-.1-.7-.4-.7-.8v-2.7c0-.5.4-.9.9-.9h2.7c.5 0 .8.4.8.8v2.7c0 .4-.3.8-.8.8h-.2v3c0 .2-.1.3-.2.4h-.7c-.1-.1-.2-.3-.2-.5v-3h-.3V41.1c0 .2-.1.4-.2.5-.1.2-.4.2-.6.2zM12 32.1c0-.8.6-1.4 1.5-1.4.8 0 1.4.7 1.4 1.5s-.6 1.4-1.5 1.4c-.8 0-1.4-.7-1.4-1.5z"/></g></g><g><path class="st0" d="M216.8 41.7c-.3-.1-.5-.2-.6-.5V41v-2-2.3-.1h-1.7c.6-2 1.2-4 1.8-5.9h-.2v.1c-.3.9-.5 1.8-.8 2.8-.1.2-.1.4-.2.6-.1.3-.3.4-.6.4-.1 0-.3-.1-.4-.1-.2-.1-.2-.3-.2-.5s.1-.3.1-.5c.3-1 .6-2 .9-3.1.1-.3.2-.6.4-.8.3-.3.6-.5 1-.6h2.2c.6 0 1.1.3 1.5.8.1.2.2.4.2.6.3 1.2.7 2.3 1 3.5V34.2c0 .1-.1.2-.2.3-.1.1-.3.2-.5.1-.2 0-.3-.2-.4-.4-.3-1.1-.7-2.2-1-3.3v-.1h-.3c.6 2 1.2 4 1.8 5.9H219V41.3c-.1.2-.2.4-.5.4h-.2c-.3 0-.6-.3-.6-.7v-2.3-1.9-.1h-.3v4.5c-.1.3-.3.4-.6.5.1 0 .1 0 0 0zM217.8 25.6h.2c.5.1 1 .4 1.2.8.3.6.2 1.3-.3 1.8-.4.4-.9.6-1.4.5-.5 0-.9-.3-1.2-.7-.2-.3-.3-.6-.3-1 0-.6.3-1 .8-1.3.2-.1.5-.2.7-.2h.1l.2.1z"/><path class="st0" d="M211.6 41.7c-.2-.2-.2-.4-.2-.6v-1.4-1.3-.1h-.3c-.4-.1-.7-.4-.7-.8v-2.7c0-.5.4-.9.9-.9h2.7c.5 0 .8.4.8.8v2.7c0 .4-.3.8-.8.8h-.2v3c0 .2-.1.3-.2.4h-.7c-.1-.1-.2-.3-.2-.5v-2.9h-.3V41.1c0 .2-.1.4-.2.5-.1.1-.4.1-.6.1zM211.2 32.1c0-.8.6-1.4 1.4-1.4.8 0 1.4.6 1.4 1.4 0 .8-.6 1.4-1.5 1.4-.6.1-1.3-.6-1.3-1.4z"/><g><path class="st0" d="M222.2 41.7c-.3-.2-.4-.4-.4-.7v-1.9-.8h-1.1c-.4 0-.7-.4-.6-.9.4-1 .8-2.1 1.2-3.1.1-.3.3-.4.6-.4h1.4c.3 0 .5.1.6.4.4 1 .8 2.1 1.2 3.1.1.4-.1.8-.5.9H223.3v2.6c0 .3-.1.6-.4.8h-.7zM222.6 33.6c-.8 0-1.4-.6-1.4-1.4 0-.8.6-1.4 1.4-1.4.8 0 1.4.6 1.4 1.4.1.7-.6 1.4-1.4 1.4z"/></g></g><path class="st0" d="M-.6 41.7h782.7v3.1H-.6z"/></svg>