<svg id="Layer_1" xmlns="http://www.w3.org/2000/svg" viewBox="0 -12 783 64"><style>.st0{fill:#82bc00}.st1{fill:#e3eec5}</style><path class="st0" d="M655.9.3v50h-3.3v-49c0-1-.3-1.4-1.2-1.4h-20.5c-.9 0-1.1.3-1.1 1.1v11.4h.9c4.4 0 8.9.1 13.2 0 2.8-.1 4.6 2 4.6 4.6v33.4h-38.6V17.1c0-.5 0-1 .1-1.5.5-2 2.1-3.2 4.2-3.2h12.1v-11c0-1.4.3-2.8 1.5-3.7.7-.5 1.5-.7 2.2-1.1h22.3c.7.4 1.5.7 2.2 1.2.9.5 1.1 1.5 1.4 2.5zm-10.8 49.5V17c0-.8-.4-1.2-1.1-1.2h-29.6c-.8 0-1.1.3-1.1 1.1v33h13.3V38h5v11.9c4.5-.1 8.9-.1 13.5-.1z"/><path class="st1" d="M648.5 50.3V16.9c0-2.6-1.9-4.7-4.6-4.6-4.4.1-8.8 0-13.2 0h-.9V.9c0-.9.3-1.1 1.1-1.1h20.5c.9 0 1.2.4 1.2 1.4v49c-1.5.1-2.8.1-4.1.1zm-5.4-46.4V9h5V3.9h-5zm-4.2 0H634V9h4.9V3.9z"/><path class="st1" d="M645.1 49.8h-13.6V37.9h-5v11.9h-13.3v-33c0-.8.3-1.1 1.1-1.1h29.6c.7 0 1.1.4 1.1 1.2v32c.1.3.1.6.1.9zm-22.7-24.9v-5.1h-5v5.1h5zm18.3-5h-5.1V25h5.1v-5.1zM635.6 43h5.1v-5h-5.1v5zm-18.3-5.1v5h5.1v-4.6c0-.2-.3-.4-.4-.4h-4.7zm9.2-13h4.9v-5.1h-4.9v5.1zm-4.1 4.1h-5.1v4.9h5.1V29zm18.3 4.9V29h-5.1v4.9h5.1zm-9.2 0V29h-4.9v4.9h4.9z"/><path class="st0" d="M643.1 3.9h5V9h-5V3.9zm-4.2 0V9H634V3.9h4.9zm-16.5 21h-5v-5.1h5v5.1zm18.3-5V25h-5.1v-5.1h5.1zM635.6 43v-5h5.1v5h-5.1zm-18.3-5.1h4.6c.2 0 .4.3.4.4v4.6h-5.1c.1-1.5.1-3.2.1-5zm9.2-13v-5.1h4.9v5.1h-4.9zm-4.1 4.1v4.9h-5.1V29h5.1zm18.3 4.9h-5.1V29h5.1v4.9zm-9.2 0h-4.9V29h4.9v4.9zm44.8-46.1h28.8V3.4h12.6v46.7h3.5v1.3h-64.9v-1.3h3.1V-7.7h16.8c.1-2.6.1-2.1.1-4.5zm12.5 15.5h12.9V-9.3h-22v1.6h5.1v55.5h4.2V39h4.2v8.8h3.9V39h4.1v8.8h4V39h4.1v8.8h4.9V6.5h-25.6c.2-1.1.2-2 .2-3.2zm-25.5 8.2h17.5V7.2h-17.5v4.3zM681 25.9h-17.5v4.3H681v-4.3zm0-23.5v-4.2h-17.5v4.2H681zm0 33h-17.5v4.3H681v-4.3zm-17.7-14.6h17.6v-4.3h-17.6v4.3zm6.6 22.7v5h5v-5h-5z"/><path class="st1" d="M688.8 3.3v3.2h25.6v43.3h-4.9V39h-4.1v10.8h-4V39h-4.1v10.8h-3.9V39h-4.2v10.8H685V-7.7h-5.1v-1.6h22V3.3h-13.1zm12.4 21.9v-4h-3.9v4h3.9zm8.3-4h-4v4h4v-4zm-20.3 0v4h4v-4h-4zm-.1 13.2h3.9v-4h-3.9v4zm12.1 0v-4.1h-3.3c-.3 0-.7.4-.7.7-.1 1.1 0 2.2 0 3.4h4zm4.3-4.1v4.1h4V31c0-.2-.4-.6-.7-.7h-3.3zm0-17.8v4.1c1.1 0 2.2.1 3.2 0 .3 0 .8-.4.8-.7.1-1.1 0-2.2 0-3.4h-4zm-4.2 0h-4.1v3.4c0 .2.4.6.6.6 1.1.1 2.3 0 3.5 0v-4zm-12.2 4.1h3.9v-3.9h-3.9v3.9zm-25.8-5.1V7.2h17.5v4.3h-17.5zM681 25.9v4.3h-17.5v-4.3H681z"/><path class="st1" d="M681 2.4h-17.5v-4.2H681v4.2zm0 33v4.3h-17.5v-4.3H681zm-17.7-14.6v-4.3h17.6v4.3h-17.6zm6.6 22.7h5v7.1h-5v-7.1z"/><path class="st0" d="M701.2 25.2h-3.9v-4h3.9v4zm8.3-4v4h-4v-4h4zm-20.3 0h4v4h-4v-4zm-.1 13.2v-4h3.9v4h-3.9zm12.1 0h-4V31c0-.2.4-.6.7-.7 1.1-.1 2.1 0 3.3 0v4.1zm4.3-4.1h3.3c.3 0 .7.4.7.7.1 1.1 0 2.2 0 3.4h-4v-4.1zm0-17.8h4c0 1.2.1 2.3 0 3.4 0 .3-.5.7-.8.7-1 .1-2 0-3.2 0v-4.1zm-4.2 0v4h-3.5c-.2 0-.6-.4-.6-.6-.1-1.1 0-2.2 0-3.4h4.1zm-12.2 4.1v-3.9h3.9v3.9h-3.9zm71.2 24.2c.1.2.1.4-.2.5-.6.3-1.2.6-1.7.8-.2.1-.4 0-.5-.2l-1.5-3c-.1-.2 0-.3.2-.4s.3-.2.5-.2l1.2-.6c.2-.1.4 0 .5.2l.3.6c.5-.3.9 0 1.4 0 .2 0 .3.1.5.1.4.1.8 0 1.1-.2.5-.4.9-.9 1.1-1.6.1-.5.4-.9 1-.9.8 0 1.5 0 2.2.3.8.4 1.4.9 1.6 1.7.3.9.3 1.9.2 2.8-.1.4-.2.6-.7.6-.3 0-.5-.2-.5-.7v-1.7c0-.6-.4-1.2-1-1.5v.1c.3 1 .4 2 .4 3 0 .5 0 1-.3 1.4v.1c0 .4 0 .9.1 1.3.2 1 .6 1.9 1.4 2.5.3.3.6.5 1 .7.3.2.6.4.7.7.1.4 0 .7-.3 1-.3.2-.6.3-.9.1-1-.4-1.8-1.1-2.5-2-.3-.5-.6-1-.8-1.5-.2-.4-.3-.9-.5-1.3l-.6 1.2c-.3.9-.2 1.9.2 2.8.2.4 0 .9-.4 1.1-.7.3-1.2.1-1.4-.6-.4-1.2-.5-2.3-.2-3.5.3-1.1.9-2 1.8-2.8.1-.1.1-.2.1-.3v-1.2c0-.5-.1-.9-.2-1.4-.9 1-1.9 1.3-3 1l-.5.5c0 .1.1.3.2.5zm-.1-1.1c-.5-.3-.5-.5-.3-1.1-.2 0-.4 0-.6.1.2.5.4.8.7 1.3 0-.2.1-.2.2-.3zm4.6-5.7c-.1-.9-.6-1.7-1.7-1.7s-1.7.8-1.7 1.7c0 1 .7 1.7 1.7 1.7s1.7-.7 1.7-1.7zm-161.1 8h-.4v5.9c0 .7-.8 1.2-1.4.8-.4-.2-.5-.6-.5-1v-5.1c0-.2 0-.4-.2-.5-.2-.1-.3-.4-.4-.6-.3-.8-.6-1.6-.8-2.5-.2-1-.1-1.9.6-2.7.4-.4.8-.6 1.4-.6h3c.3 0 .6.1.8.3.6.3 1 .9 1.2 1.6.2.7-.1 1.4-.7 1.8-.5.3-1 .5-1.5.5h-1c-.3 0-.6-.4-.6-.7 0-.4.4-.6.8-.6.5 0 .9 0 1.4-.2.5-.1.5-.7.2-1.2v.7c0 .1-.1.2-.1.3-.3.1-.6.2-.9.2-.1-.4-.1-.8-.2-1.1 0-.2-.1-.2-.2-.2-.4.1-.8.1-1.2.2-.2 0-.4.1-.6.1.2 1.1.3 2.3.5 3.4.7-.1 1.3-.2 2-.3v-.6c.2 0 .5-.1.8-.1v8c0 .8-.6 1.3-1.3 1-.4-.1-.6-.4-.6-.9v-5.6c-.1-.1-.1-.2-.1-.3zm-2.3-4.8c-.3.7-.2 1.3 0 2v-2zm2.3-2.2c-1 .2-1.8-.9-1.7-1.7 0-.9.8-1.7 1.8-1.7s1.7.8 1.7 1.7c-.1 1-.8 1.7-1.8 1.7zm126 4.4h-.8c-1.4 0-2.6-.5-3.5-1.5-1.1-1.1-1.6-2.4-1.6-3.9 0-.3-.1-.8-.3-.9-2.1-1.2-3.1-2.9-3-5.3.1-1.9 1-3.2 2.6-4.2.5-.3.8-.6.8-1.2-.1-2.2 1.5-4.4 3.5-5.1.2-.1.5-.3.5-.5.4-1.1 1-2.1 1.9-2.9 2.1-2 5.8-2.1 8.1-.5.4.3.6.3 1 .1 1.2-.8 2.4-1.1 3.9-1.2 3.6 0 6.5 3 6.4 6.7 0 .9.3 1.1.9 1.4 2.6 1.3 3.9 4.6 3.1 7.5-.6 2.1-2.1 3.5-4 4.3.8 3.9-2.6 9.1-9 7.2v10.5h-2V39.4c-.8.1-1.6.1-2.4.2v10.3h-2.1V39.6c0-.7-.4-.9-.8-1-.4-.1-.8.5-.8 1v10.3h-2c-.4-3.6-.4-7-.4-10.5zm-3.8-16.2c.3.9 0 1.5-.9 1.6-1.3.2-2.1 1.1-2.5 2.2-.6 1.6.5 3.8 2.3 4.2 1.2.3 1.4.6 1.1 1.8-.4 1.4.2 2.9 1.6 3.8 1.2.7 2.7.6 3.8-.5 1-1 1.3-1 2.3 0 .9.9 2.1 1.2 3.3.7 1.2-.5 2-1.3 2.2-2.6.1-.5 0-1-.1-1.6-.2-.9.1-1.4 1-1.6 1.5-.3 2.6-1.9 2.6-3.3 0-1.3-1.3-2.9-2.6-3.1-1-.2-1.2-.7-1-1.7.7-2.5-1.2-4.4-3.3-4.3-.8 0-1.6.4-2.2 1-.9.9-1.2.9-2.2 0-1.1-1-2.3-1.2-3.6-.7-1.2.5-2 1.7-2.1 3.1.1.4.2.7.3 1zm6.3-5.4c.2.1.5 0 .6-.1 2.5-1.6 5.9-1 7.7 1.6.6.9.9 1.9.8 2.9-.1.6.1.9.7 1.1 2.5 1.2 3.6 4.9 2 7.6-.6.9-1.3 1.5-2.2 2-.2.1-.4.5-.4.8-.2 1-.4 2.1-.5 3.3.9.7 2.5.6 3.9-.2 1.8-1 2.6-3.2 2-5.2-.3-.9-.1-1.3.8-1.6 2.1-.6 3.5-2.3 3.6-4.2 0-2.3-1.4-3.9-3.5-4.5-.9-.2-1.2-.6-.9-1.5.9-2.7-.8-5.2-3.4-5.8-1.5-.3-2.8.2-3.9 1.3-.7.7-1.3.8-2.1 0-1.9-1.9-4.3-1.9-6.2-.3-.1.1-.2.1-.2.2-.3.4-.6.9-.8 1.3.6.6 1.3 1 2 1.3z"/><path class="st1" d="M725.7 22.2c.1.3.1.7.2 1 .3.9 0 1.5-.9 1.6-1.3.2-2.1 1.1-2.5 2.2-.6 1.6.5 3.8 2.3 4.2 1.2.3 1.4.6 1.1 1.8-.4 1.4.2 2.9 1.6 3.8 1.2.7 2.7.6 3.8-.5 1-1 1.3-1 2.3 0 .9.9 2.1 1.2 3.3.7 1.2-.5 2-1.3 2.2-2.6.1-.5 0-1-.1-1.6-.2-.9.1-1.4 1-1.6 1.5-.3 2.6-1.9 2.6-3.3 0-1.3-1.3-2.9-2.6-3.1-1-.2-1.2-.7-1-1.7.7-2.5-1.2-4.4-3.3-4.3-.8 0-1.6.4-2.2 1-.9.9-1.2.9-2.2 0-1.1-1-2.3-1.2-3.6-.7-1.2.6-2 1.8-2 3.1z"/><path class="st1" d="M730 16.8c.8.4 1.5.8 2.3 1.1.2.1.5 0 .6-.1 2.5-1.6 5.9-1 7.7 1.6.6.9.9 1.9.8 2.9-.1.6.1.9.7 1.1 2.5 1.2 3.6 4.9 2 7.6-.6.9-1.3 1.5-2.2 2-.2.1-.4.5-.4.8-.2 1-.4 2.1-.5 3.3.9.7 2.5.6 3.9-.2 1.8-1 2.6-3.2 2-5.2-.3-.9-.1-1.3.8-1.6 2.1-.6 3.5-2.3 3.6-4.2 0-2.3-1.4-3.9-3.5-4.5-.9-.2-1.2-.6-.9-1.5.9-2.7-.8-5.2-3.4-5.8-1.5-.3-2.8.2-3.9 1.3-.7.7-1.3.8-2.1 0-1.9-1.9-4.3-1.9-6.2-.3-.1.1-.2.1-.2.2-.6.6-.8 1-1.1 1.5z"/><path class="st0" d="M-4 48.6h789v3.1H-4z"/></svg>