<svg id="Layer_1" xmlns="http://www.w3.org/2000/svg" viewBox="0 0 783 64"><style>.st0{fill:#82BC00;} .st1{fill:#E3EEC5;}</style><path class="st0" d="M654.6 12.5v49.6h-3.3v-.4-39.1-9.1c0-1-.3-1.4-1.2-1.4h-20.3c-.9 0-1.1.3-1.1 1.1V24.5h.9c4.4 0 8.8.1 13.1 0 2.8-.1 4.6 2 4.6 4.6v33.1H609v-.5-32.5c0-.5 0-1 .1-1.5.5-2 2.1-3.2 4.2-3.2h12v-.7-10.2c0-1.4.3-2.8 1.5-3.7.7-.5 1.5-.7 2.2-1.1h22.1c.7.4 1.5.7 2.2 1.2.8.5 1 1.5 1.3 2.5zm-10.7 49.1v-.8-27.3V29c0-.8-.4-1.2-1.1-1.2h-29.4c-.8 0-1.1.3-1.1 1.1v32.7h13.2V49.8h5v11.8h13.4z"/><path class="st1" d="M647.3 62.1V29c0-2.6-1.9-4.7-4.6-4.6-4.4.1-8.7 0-13.1 0h-.9v-.7-10.6c0-.9.3-1.1 1.1-1.1h20.3c.9 0 1.2.4 1.2 1.4V62c-1.4.1-2.7.1-4 .1zM641.9 16v5.1h5V16h-5zm-4.1 0h-4.9v5.1h4.9V16z"/><path class="st1" d="M643.9 61.6h-13.5V49.8h-5v11.8h-13.2v-.7-32c0-.8.3-1.1 1.1-1.1h29.4c.7 0 1.1.4 1.1 1.2v31.8c.1.2.1.5.1.8zm-22.5-24.7v-5.1h-5v5.1h5zm18.2-5h-5.1V37h5.1v-5.1zm-5.1 22.9h5.1v-5h-5.1v5zm-18.2-5v5h5.1v-4.6c0-.2-.3-.4-.4-.4h-4.7zm9.2-12.9h4.9v-5.1h-4.9v5.1zm-4.1 4h-5.1v4.9h5.1v-4.9zm18.2 4.9v-4.9h-5.1v4.9h5.1zm-9.2 0v-4.9h-4.9v4.9h4.9z"/><path class="st0" d="M641.9 16h5v5.1h-5V16zM637.8 16v5.1h-4.9V16h4.9zM621.4 36.9h-5v-5.1h5v5.1zM639.6 31.9V37h-5.1v-5.1h5.1zM634.5 54.8v-5h5.1v5h-5.1zM616.3 49.8h4.6c.2 0 .4.3.4.4v4.6h-5.1c.1-1.6.1-3.3.1-5zM625.5 36.9v-5.1h4.9v5.1h-4.9zM621.4 40.9v4.9h-5.1v-4.9h5.1zM639.6 45.8h-5.1v-4.9h5.1v4.9zM630.4 45.8h-4.9v-4.9h4.9v4.9z"/><g><path class="st0" d="M674.9 0h28.6v15.5H716v46.3h3.5v1.3h-64.4v-1.3h3.1V4.5h16.7V0zm12.4 15.4h12.8V2.9h-21.8v1.6h5.1v55.1h4.2v-8.7h4.2v8.7h3.9v-8.7h4.1v8.7h4v-8.7h4.1v8.7h4.9v-41h-25.4c-.1-1.1-.1-2-.1-3.2zM662 23.6h17.4v-4.3H662v4.3zm17.5 14.3h-17.4v4.3h17.4v-4.3zm0-23.4v-4.2h-17.4v4.2h17.4zm0 32.8h-17.4v4.3h17.4v-4.3zM662 32.8h17.5v-4.3H662v4.3zm6.5 22.5v5h5v-5h-5z"/><path class="st1" d="M687.3 15.4v3.2h25.4v43h-4.9V50.9h-4.1v10.7h-4V50.9h-4.1v10.7h-3.9V50.9h-4.2v10.7h-4.2V4.5h-5.1V2.9H700v12.5h-12.7zm12.3 21.8v-4h-3.9v4h3.9zm8.2-4h-4v4h4v-4zm-20.1 0v4h4v-4h-4zm-.1 13.1h3.9v-4h-3.9v4zm12 0v-4.1h-3.3c-.3 0-.7.4-.7.7-.1 1.1 0 2.2 0 3.4h4zm4.2-4.1v4.1h4v-3.4c0-.2-.4-.6-.7-.7h-3.3zm0-17.6v4.1c1.1 0 2.2.1 3.2 0 .3 0 .8-.4.8-.7.1-1.1 0-2.2 0-3.4h-4zm-4.1 0h-4.1V28c0 .2.4.6.6.6 1.1.1 2.3 0 3.5 0v-4zm-12.1 4h3.9v-3.9h-3.9v3.9zM662 23.6v-4.3h17.4v4.3H662zM679.5 37.9v4.3h-17.4v-4.3h17.4z"/><path class="st1" d="M679.5 14.5h-17.4v-4.2h17.4v4.2zM679.5 47.3v4.3h-17.4v-4.3h17.4zM662 32.8v-4.3h17.5v4.3H662zM668.5 55.3h5v7h-5v-7z"/><path class="st0" d="M699.6 37.2h-3.9v-4h3.9v4zM707.8 33.2v4h-4v-4h4zM687.7 33.2h4v4h-4v-4zM687.6 46.3v-4h3.9v4h-3.9zM699.6 46.3h-4v-3.4c0-.2.4-.6.7-.7 1.1-.1 2.1 0 3.3 0v4.1zM703.8 42.2h3.3c.3 0 .7.4.7.7.1 1.1 0 2.2 0 3.4h-4v-4.1zM703.8 24.6h4c0 1.2.1 2.3 0 3.4 0 .3-.5.7-.8.7-1 .1-2 0-3.2 0v-4.1zM699.7 24.6v4h-3.5c-.2 0-.6-.4-.6-.6-.1-1.1 0-2.2 0-3.4h4.1zM687.6 28.6v-3.9h3.9v3.9h-3.9z"/></g><g><path class="st0" d="M758.2 52.6c.1.2.1.4-.2.5-.6.3-1.2.6-1.7.8-.2.1-.4 0-.5-.2l-1.5-3c-.1-.2 0-.3.2-.4.2-.1.3-.2.5-.2l1.2-.6c.2-.1.4 0 .5.2l.3.6c.5-.3.9 0 1.4 0 .2 0 .3.1.5.1.4.1.8 0 1.1-.2.5-.4.9-.9 1.1-1.6.1-.5.4-.9 1-.9.8 0 1.5 0 2.2.3.8.4 1.4.9 1.6 1.7.3.9.3 1.9.2 2.8-.1.4-.2.6-.7.6-.3 0-.5-.2-.5-.7v-1.7c0-.6-.4-1.2-1-1.5v.1c.3 1 .4 2 .4 3 0 .5 0 1-.3 1.4v.1c0 .4 0 .9.1 1.3.2 1 .6 1.9 1.4 2.5.3.3.6.5 1 .7.3.2.6.4.7.7.1.4 0 .7-.3 1-.3.2-.6.3-.9.1-1-.4-1.8-1.1-2.5-2-.3-.5-.6-1-.8-1.5-.2-.4-.3-.9-.5-1.3l-.6 1.2c-.3.9-.2 1.9.2 2.8.2.4 0 .9-.4 1.1-.7.3-1.2.1-1.4-.6-.4-1.2-.5-2.3-.2-3.5.3-1.1.9-2 1.8-2.8.1-.1.1-.2.1-.3V52c0-.5-.1-.9-.2-1.4-.9 1-1.9 1.3-3 1l-.5.5c0 .1.1.3.2.5zm-.1-1.1c-.5-.3-.5-.5-.3-1.1-.2 0-.4 0-.6.1.2.5.4.8.7 1.3 0-.2.1-.2.2-.3zM762.7 45.9c-.1-.9-.6-1.7-1.7-1.7s-1.7.8-1.7 1.7c0 1 .7 1.7 1.7 1.7s1.7-.7 1.7-1.7z"/></g><g><path class="st0" d="M602.8 53.8h-.4V59.7c0 .7-.8 1.2-1.4.8-.4-.2-.5-.6-.5-1v-5.1c0-.2 0-.4-.2-.5-.2-.1-.3-.4-.4-.6-.3-.8-.6-1.6-.8-2.5-.2-1-.1-1.9.6-2.7.4-.4.8-.6 1.4-.6h3c.3 0 .6.1.8.3.6.3 1 .9 1.2 1.6.2.7-.1 1.4-.7 1.8-.5.3-1 .5-1.5.5h-1c-.3 0-.6-.4-.6-.7 0-.4.4-.6.8-.6.5 0 .9 0 1.4-.2.5-.1.5-.7.2-1.2v.7c0 .1-.1.2-.1.3-.3.1-.6.2-.9.2-.1-.4-.1-.8-.2-1.1 0-.2-.1-.2-.2-.2-.4.1-.8.1-1.2.2-.2 0-.4.1-.6.1.2 1.1.3 2.3.5 3.4.7-.1 1.3-.2 2-.3v-.6c.2 0 .5-.1.8-.1v7.9c0 .8-.6 1.3-1.3 1-.4-.1-.6-.4-.6-.9V54c-.1 0-.1-.1-.1-.2zm-2.2-4.7c-.3.7-.2 1.3 0 2v-2zM602.8 46.9c-1 .2-1.8-.9-1.7-1.7 0-.9.8-1.7 1.8-1.7s1.7.8 1.7 1.7c-.1 1-.8 1.7-1.8 1.7z"/></g><g><path class="st0" d="M727.8 51.2h-.8c-1.4 0-2.6-.5-3.5-1.5-1.1-1.1-1.6-2.4-1.6-3.9 0-.3-.1-.8-.3-.9-2.1-1.2-3.1-2.9-3-5.3.1-1.9 1-3.2 2.6-4.2.5-.3.8-.6.8-1.2-.1-2.2 1.5-4.4 3.5-5.1.2-.1.5-.3.5-.5.4-1.1 1-2.1 1.9-2.9 2.1-2 5.8-2.1 8-.5.4.3.6.3 1 .1 1.2-.8 2.4-1.1 3.9-1.2 3.6 0 6.4 3 6.3 6.6 0 .9.3 1.1.9 1.4 2.6 1.3 3.9 4.6 3.1 7.4-.6 2.1-2.1 3.5-4 4.3.8 3.9-2.6 9-8.9 7.1v10.4h-2V50.9c-.8.1-1.6.1-2.4.2v10.2h-2.1v-.8-9.4c0-.7-.4-.9-.8-1-.4-.1-.8.5-.8 1V61.3h-2c-.3-3.2-.3-6.6-.3-10.1zm-3.7-16c.3.9 0 1.5-.9 1.6-1.3.2-2.1 1.1-2.5 2.2-.6 1.6.5 3.8 2.3 4.2 1.2.3 1.4.6 1.1 1.8-.4 1.4.2 2.9 1.6 3.8 1.2.7 2.7.6 3.8-.5 1-1 1.3-1 2.3 0 .9.9 2.1 1.2 3.3.7 1.2-.5 2-1.3 2.2-2.6.1-.5 0-1-.1-1.6-.2-.9.1-1.4 1-1.6 1.5-.3 2.6-1.9 2.6-3.3 0-1.3-1.3-2.9-2.6-3.1-1-.2-1.2-.7-1-1.7.7-2.5-1.2-4.4-3.3-4.3-.8 0-1.6.4-2.2 1-.9.9-1.2.9-2.2 0-1.1-1-2.3-1.2-3.6-.7-1.2.5-2 1.7-2.1 3.1.1.4.2.7.3 1zm6.2-5.4c.2.1.5 0 .6-.1 2.5-1.6 5.9-1 7.6 1.6.6.9.9 1.9.8 2.9-.1.6.1.9.7 1.1 2.5 1.2 3.6 4.9 2 7.5-.6.9-1.3 1.5-2.2 2-.2.1-.4.5-.4.8-.2 1-.4 2.1-.5 3.3.9.7 2.5.6 3.9-.2 1.8-1 2.6-3.2 2-5.2-.3-.9-.1-1.3.8-1.6 2.1-.6 3.5-2.3 3.6-4.2 0-2.3-1.4-3.9-3.5-4.5-.9-.2-1.2-.6-.9-1.5.9-2.7-.8-5.2-3.4-5.8-1.5-.3-2.8.2-3.9 1.3-.7.7-1.3.8-2.1 0-1.9-1.9-4.3-1.9-6.2-.3-.1.1-.2.1-.2.2-.3.4-.6.9-.8 1.3.7.7 1.4 1.1 2.1 1.4z"/><path class="st1" d="M723.9 34.2c.1.3.1.7.2 1 .3.9 0 1.5-.9 1.6-1.3.2-2.1 1.1-2.5 2.2-.6 1.6.5 3.8 2.3 4.2 1.2.3 1.4.6 1.1 1.8-.4 1.4.2 2.9 1.6 3.8 1.2.7 2.7.6 3.8-.5 1-1 1.3-1 2.3 0 .9.9 2.1 1.2 3.3.7 1.2-.5 2-1.3 2.2-2.6.1-.5 0-1-.1-1.6-.2-.9.1-1.4 1-1.6 1.5-.3 2.6-1.9 2.6-3.3 0-1.3-1.3-2.9-2.6-3.1-1-.2-1.2-.7-1-1.7.7-2.5-1.2-4.4-3.3-4.3-.8 0-1.6.4-2.2 1-.9.9-1.2.9-2.2 0-1.1-1-2.3-1.2-3.6-.7-1.2.6-2 1.8-2 3.1z"/><path class="st1" d="M728.1 28.8c.8.4 1.5.8 2.3 1.1.2.1.5 0 .6-.1 2.5-1.6 5.9-1 7.6 1.6.6.9.9 1.9.8 2.9-.1.6.1.9.7 1.1 2.5 1.2 3.6 4.9 2 7.5-.6.9-1.3 1.5-2.2 2-.2.1-.4.5-.4.8-.2 1-.4 2.1-.5 3.3.9.7 2.5.6 3.9-.2 1.8-1 2.6-3.2 2-5.2-.3-.9-.1-1.3.8-1.6 2.1-.6 3.5-2.3 3.6-4.2 0-2.3-1.4-3.9-3.5-4.5-.9-.2-1.2-.6-.9-1.5.9-2.7-.8-5.2-3.4-5.8-1.5-.3-2.8.2-3.9 1.3-.7.7-1.3.8-2.1 0-1.9-1.9-4.3-1.9-6.2-.3-.1.1-.2.1-.2.2-.5.7-.7 1.1-1 1.6z"/></g><path class="st0" d="M0 60.4h782.7v3.1H0z"/></svg>