<?xml version="1.0" encoding="utf-8"?>
<!-- Generator: Adobe Illustrator 19.1.0, SVG Export Plug-In . SVG Version: 6.00 Build 0)  -->
<svg version="1.1" id="Layer_1" xmlns="http://www.w3.org/2000/svg" xmlns:xlink="http://www.w3.org/1999/xlink" x="0px" y="0px"
	 viewBox="-166 -5 250 75" style="enable-background:new -166 -5 250 75;" xml:space="preserve">
<metadata><?xpacket begin="﻿" id="W5M0MpCehiHzreSzNTczkc9d"?>
<x:xmpmeta xmlns:x="adobe:ns:meta/" x:xmptk="Adobe XMP Core 5.6-c067 79.157747, 2015/03/30-23:40:42        ">
   <rdf:RDF xmlns:rdf="http://www.w3.org/1999/02/22-rdf-syntax-ns#">
      <rdf:Description rdf:about=""/>
   </rdf:RDF>
</x:xmpmeta>
                                                                                                    
                                                                                                    
                                                                                                    
                                                                                                    
                                                                                                    
                                                                                                    
                                                                                                    
                                                                                                    
                                                                                                    
                                                                                                    
                                                                                                    
                                                                                                    
                                                                                                    
                                                                                                    
                                                                                                    
                                                                                                    
                                                                                                    
                                                                                                    
                                                                                                    
                                                                                                    
                           
<?xpacket end="w"?></metadata>
<style type="text/css">
	.st0{fill:#0081C4;}
	.st1{fill:#75BA43;}
	.st2{font-family:'MyriadPro-Regular';}
	.st3{font-size:12px;}
</style>
<g>
	<path class="st0" d="M-154.8,30c-3.9,0-7.9-2.5-7.9-9.6c0-5.8,3.7-9.3,7.9-9.3h5c0.2,0,0.4,0.1,0.3,0.3l-0.2,1.8
		c0,0.2-0.2,0.4-0.5,0.3c-1.5-0.5-2.4-0.9-4.7-0.9c-3.1,0-4.9,2.7-4.9,7.8c0,6,2.6,8,5.9,8c1.2,0,2.7-0.8,3.7-1.7
		c0.1-0.1,0.2-0.1,0.3,0l0.6,0.7c0.1,0.1,0.1,0.2,0,0.3C-150.5,29.1-152.5,30-154.8,30"/>
	<path class="st0" d="M-141.2,30.1c-5.2,0-6.9-3.7-6.9-7.8c0-3.9,1.8-7.9,7-7.9c5.2,0,6.9,3.7,6.9,7.8
		C-134.2,26.1-136,30.1-141.2,30.1 M-141.2,15.6c-3.5,0-4.2,3.5-4.2,6.4c0,2.7,0.4,6.9,4.4,6.9c3.5,0,4.2-3.5,4.2-6.3
		C-136.8,19.8-137.2,15.6-141.2,15.6z"/>
	<path class="st0" d="M-114.7,22.2v7.1c0,0.2-0.2,0.4-0.4,0.4h-1.5c-0.3,0-0.5-0.1-0.5-0.4v-7.1v-3.3c0-0.1-0.2-0.2-0.3,0l-5.8,10.1
		c-0.2,0.2-0.5,0.2-0.6,0l-5.4-10.1l-0.2,0.1l0.3,10.4c0,0.2-0.2,0.4-0.4,0.4h-1.3c-0.3,0-0.4-0.1-0.4-0.4l0.3-10.4l-0.1-3.8
		c0-0.2,0.2-0.4,0.4-0.4h1.6c0.2,0,0.4,0.1,0.5,0.2l5.3,10.3c0.1,0.1,0.3,0.1,0.3,0l5.6-10.1c0.1-0.2,0.3-0.4,0.6-0.4h1.5
		c0.3,0,0.5,0.2,0.5,0.5L-114.7,22.2"/>
	<path class="st0" d="M-94.2,22.2v7.1c0,0.2-0.2,0.4-0.4,0.4h-1.5c-0.3,0-0.5-0.1-0.5-0.4v-7.1v-3.3c0-0.1-0.2-0.2-0.3,0l-5.7,10.1
		c-0.2,0.2-0.5,0.2-0.6,0l-5.4-10.1l-0.2,0.1l0.3,10.4c0,0.2-0.2,0.4-0.4,0.4h-1.3c-0.3,0-0.4-0.1-0.4-0.4l0.2-10.4l-0.1-3.8
		c0-0.2,0.2-0.4,0.4-0.4h1.6c0.2,0,0.4,0.1,0.5,0.2l5.3,10.3c0.1,0.1,0.3,0.1,0.3,0l5.6-10.1c0.1-0.2,0.3-0.4,0.6-0.4h1.5
		c0.3,0,0.5,0.2,0.5,0.5L-94.2,22.2"/>
	<path class="st0" d="M-78.7,17l-0.2,8.1C-79,28.4-81,30-84.4,30c-3.8,0-6.2-1.6-6.3-4.8l-0.1-8.4v-1.6c0-0.2,0.2-0.4,0.5-0.4h1.7
		c0.3,0,0.5,0.1,0.5,0.4l-0.1,1.6V25c0,2.3,1.8,3.5,4,3.5c1.9,0,3.6-1,3.6-3.3l-0.1-8.2c0-0.7-0.1-1.8-0.1-1.8
		c0-0.2,0.1-0.5,0.4-0.5h1.6c0.3,0,0.4,0.2,0.4,0.5C-78.6,15.3-78.6,16.3-78.7,17"/>
	<path class="st0" d="M-62.4,25.6v3.9c0,0.5-0.6,0.4-0.8,0.3l-9.6-11.3c-0.1-0.1-0.2,0-0.2,0l0.3,10.6c0,0.2-0.1,0.5-0.4,0.5h-1.4
		c-0.3,0-0.4-0.2-0.4-0.5l0.3-10.4l-0.1-3.6c0-0.2,0.2-0.4,0.5-0.4h0.7c0.2,0,0.4,0.1,0.6,0.2l8.4,10c0.2,0.2,0.3,0.1,0.3-0.1
		l-0.3-9.7c0-0.2,0-0.5,0.4-0.5h1.3c0.3,0,0.4,0.2,0.4,0.5L-62.4,25.6"/>
	<path class="st0" d="M-56.1,29.6h-1.6c-0.3,0-0.4-0.1-0.4-0.4v-7v-7c0-0.2,0.2-0.4,0.4-0.4h1.6c0.3,0,0.5,0.1,0.5,0.4v7v7
		C-55.7,29.5-55.8,29.6-56.1,29.6"/>
	<path class="st0" d="M-41.3,16.2c0,0.3-0.2,0.3-0.4,0.3c0,0-2.9-0.3-4.3-0.3c-0.2,0-0.3,0.2-0.3,0.4v12.6c0,0.2-0.2,0.4-0.4,0.4
		h-1.6c-0.3,0-0.4-0.1-0.4-0.4V16.6c0-0.2-0.2-0.3-0.3-0.3c-1.4,0-4.3,0.3-4.3,0.3c-0.2,0-0.4,0-0.4-0.3l-0.1-1.1
		c0-0.2,0.2-0.3,0.5-0.3h11.6c0.3,0,0.6,0.1,0.5,0.3L-41.3,16.2"/>
	<path class="st0" d="M-32.5,22.9c-0.1,0.1-0.2,0.3-0.2,0.5v5.9c0,0.2-0.2,0.4-0.4,0.4h-1.6c-0.3,0-0.5-0.1-0.5-0.4v-5.4
		c0-0.2-0.1-0.3-0.2-0.5l-6-8.1c-0.2-0.2-0.1-0.4,0.2-0.4h2.1c0.3,0,0.5,0.1,0.6,0.3l4.6,6.7h0.2l4.2-6.8c0.2-0.2,0.3-0.2,0.6-0.2
		h1.4c0.3,0,0.3,0.2,0.2,0.5L-32.5,22.9"/>
	<path class="st1" d="M-10.1,29.6h-10.1c-0.3,0-0.4-0.1-0.4-0.4v-8.9v-8.9c0-0.2,0.1-0.4,0.4-0.4h1.8c0.3,0,0.4,0.1,0.4,0.4v8.9v6.9
		c0,0.4,0.3,0.7,0.7,0.7h2.5c1.5,0,4.7-0.6,4.7-0.6c0.2,0,0.5,0,0.5,0.3v1.6C-9.6,29.6-9.8,29.6-10.1,29.6"/>
	<path class="st1" d="M-5.5,29.6H-7c-0.3,0-0.4-0.1-0.4-0.4v-7v-7c0-0.2,0.2-0.4,0.4-0.4h1.6c0.3,0,0.5,0.1,0.5,0.4v7v7
		C-5,29.5-5.1,29.6-5.5,29.6"/>
	<path class="st1" d="M5.4,29.5c-0.1,0.2-0.6,0.3-0.9,0.3c-0.3,0-0.8-0.1-0.9-0.3L-2,16.9l-0.8-1.6c-0.1-0.3,0-0.4,0.3-0.4h2.1
		c0.3,0,0.5,0.1,0.6,0.3l0.7,1.6l3.9,10H5l4.2-11.6c0.1-0.2,0.2-0.3,0.5-0.3h1.4c0.3,0,0.4,0.3,0.3,0.5L5.4,29.5"/>
	<path class="st1" d="M15,29.6h-1.6c-0.3,0-0.4-0.1-0.4-0.4v-7v-7c0-0.2,0.2-0.4,0.4-0.4H15c0.3,0,0.5,0.1,0.5,0.4v7v7
		C15.5,29.5,15.3,29.6,15,29.6"/>
	<path class="st1" d="M31.8,25.6v3.9c0,0.5-0.6,0.4-0.8,0.3l-9.6-11.3c-0.1-0.1-0.2,0-0.2,0l0.3,10.6c0,0.2-0.1,0.5-0.4,0.5h-1.4
		c-0.3,0-0.4-0.2-0.4-0.5l0.3-10.4l-0.1-3.6c0-0.2,0.2-0.4,0.5-0.4h0.7c0.2,0,0.4,0.1,0.6,0.2l8.4,10c0.2,0.2,0.3,0.1,0.3-0.1
		l-0.3-9.7c0-0.2,0-0.5,0.4-0.5h1.3c0.3,0,0.4,0.2,0.4,0.5V25.6"/>
	<path class="st1" d="M47.9,29.7c-0.3,0-1-0.6-1-0.6c-0.2-0.1-0.2-0.1-0.4,0c-1,0.5-2.6,0.9-4,0.9c-3.5,0-7.1-2-7.1-7.7
		c0-4.7,3.3-7.4,7-7.4h4.4c0.2,0,0.5,0.1,0.4,0.3L47,16.6c0,0.3-0.2,0.4-0.5,0.3c-0.6-0.2-1.2-0.4-1.8-0.5s-1.3-0.2-2.4-0.2
		c-2.7,0-4.3,2-4.3,6c0,4.7,2.3,6.3,5.2,6.3c1.3,0,2.8-0.8,2.8-1.5c0-0.2-0.3-4-0.3-4s-0.1-0.5-0.1-0.6c0-0.2,0.2-0.4,0.5-0.4H48
		c0.2,0,0.3,0.1,0.3,0.3v7.1C48.4,29.5,48.2,29.7,47.9,29.7"/>
	<path class="st0" d="M-157.6,44.7c-2.9,0-3.9-2.3-3.9-4.8s1-4.9,3.9-4.9c2.9,0,3.9,2.3,3.9,4.8C-153.7,42.2-154.7,44.7-157.6,44.7
		 M-157.6,35.6c-2.1,0-2.4,2.3-2.4,4s0.2,4.4,2.5,4.4c2.1,0,2.4-2.3,2.4-4S-155.3,35.6-157.6,35.6z"/>
	<path class="st0" d="M-146.4,44.4h-0.7c-0.1,0-0.2-0.1-0.2-0.2V40c0-0.9-0.5-1.4-1.4-1.4c-0.6,0-1.7,0.4-1.7,1.2v4.4
		c0,0.1-0.1,0.2-0.2,0.2h-0.7c-0.1,0-0.2-0.1-0.2-0.2v-6.1c0-0.1,0.1-0.2,0.2-0.2h0.4c0.1,0,0.2,0.1,0.2,0.2l0.2,0.5h0.2
		c0.5-0.7,1.3-0.9,1.9-0.9c1.3,0,2.2,0.9,2.2,2.4V44C-146.2,44.3-146.3,44.4-146.4,44.4"/>
	<path class="st0" d="M-140.2,38.7h-1.9V43c0,0.6,0.3,0.9,0.7,0.9h0.4c0.1,0,0.1,0,0.1,0.1v0.2c0,0.1,0,0.1-0.1,0.1h-0.7
		c-0.9,0-1.5-0.4-1.5-1.8v-3.9h-1.4l-0.2-0.1c0-0.1,0-0.4,0-0.5s0.1-0.2,0.2-0.2h1.4v-1.4v-0.1l0.8-0.4c0.2-0.1,0.3-0.1,0.3,0.1v1.8
		h1.9c0.1,0,0.2,0,0.2,0.1v0.5C-140,38.7-140.1,38.7-140.2,38.7"/>
	<path class="st0" d="M-134.2,44.3l-0.3-0.3c-0.1-0.1-0.4-0.1-0.5,0c-0.6,0.4-1.2,0.6-2,0.6c-1.1,0-1.9-0.6-1.9-1.7
		c0-0.6,0.3-1.2,1.1-1.6c0.6-0.2,1.4-0.4,2.2-0.6c0.4-0.1,0.8-0.3,0.8-0.8v-0.3c0-0.8-0.4-1.1-0.9-1.1c-0.6,0-1.4,0.2-2,0.4
		c-0.1,0-0.2,0-0.2-0.1l-0.1-0.7c0-0.1,0.1-0.2,0.2-0.2h2.2c1.1,0,1.9,0.7,1.9,2.2v4.1C-133.7,44.5-134.1,44.4-134.2,44.3
		 M-134.8,41.3C-134.8,41.2-134.8,41.2-134.8,41.3c-0.1-0.1-2,0.5-2.1,0.5c-0.5,0.2-0.8,0.5-0.8,0.9c0,0.8,0.3,1.4,1.2,1.4
		c1,0,1.7-0.5,1.7-1.2C-134.8,42.9-134.8,41.3-134.8,41.3z"/>
	<path class="st0" d="M-127.5,38.8c0,0.1-0.1,0.2-0.2,0.1c-0.3-0.1-0.5-0.2-1.1-0.2c-0.6,0-1.1,0.3-1.4,0.9v4.5
		c0,0.1-0.1,0.2-0.2,0.2h-0.7c-0.1,0-0.2-0.1-0.2-0.2V38c0-0.1,0.1-0.2,0.2-0.2h0.4c0.1,0,0.2,0.1,0.2,0.2l0.2,0.5h0.2
		c0.6-0.6,1.1-0.8,1.7-0.8h0.7c0.1,0,0.2,0,0.2,0.2V38.8"/>
	<path class="st0" d="M-125.2,36.2c-0.4,0-0.6-0.2-0.6-0.6c0-0.5,0.4-0.8,0.9-0.8c0.4,0,0.6,0.2,0.6,0.6S-124.8,36.2-125.2,36.2
		 M-123.9,44.4h-0.3c-0.9,0-1.5-0.4-1.5-1.8v-4.5c0-0.1,0.1-0.2,0.2-0.2h0.7c0.1,0,0.2,0.1,0.2,0.2V43c0,0.6,0.3,0.9,0.7,0.9
		c0.1,0,0.1,0,0.1,0.1v0.2C-123.7,44.4-123.7,44.4-123.9,44.4z"/>
	<path class="st0" d="M-119.2,44.6c-1.7,0-3-1.4-3-3.4c0-2.1,1.3-3.4,3-3.4c1.6,0,3,1.3,3,3.4C-116.3,43.2-117.6,44.6-119.2,44.6
		 M-119.3,38.4c-1.4,0-1.7,1.4-1.7,2.5c0,1.2,0.3,3.1,1.8,3.1c1.4,0,1.7-1.6,1.7-2.7C-117.5,40.2-117.8,38.4-119.3,38.4z"/>
	<path class="st0" d="M79.9,21.7c0.4,0,0.4-0.2,0.2-0.4l-6.3-6.2c-0.3-0.3-0.8-0.4-1.1-0.3l-17.5,5.5c-0.3,0.1-0.3,0.2,0,0.2
		L79.9,21.7"/>
	<path class="st0" d="M54.3-3.9c-0.3-0.3-0.6-0.2-0.8,0.1L46.4,10c-0.2,0.3-0.3,0.7-0.3,0.9c0,0.2,0.2,0.1,0.5-0.1l11.9-9.6
		c0.3-0.2,0.3-0.6,0-0.9L54.3-3.9"/>
	<path class="st0" d="M64.8,7.3c0.3-0.1,0.4-0.4,0.1-0.7l-5-4.9c-0.3-0.3-0.7-0.2-0.9,0.1l-7.8,10.4c-0.2,0.3-0.1,0.4,0.2,0.3
		L64.8,7.3"/>
	<path class="st0" d="M72,14.2c0.4,0,0.4-0.3,0.2-0.5l-5.7-5.6c-0.3-0.3-0.7-0.3-1-0.1l-12.1,8c-0.3,0.2-0.3,0.3,0.1,0.3L72,14.2"/>
	<path class="st1" d="M79.9,22.4c0.4,0,0.4,0.2,0.2,0.4L73.8,29c-0.3,0.3-0.8,0.4-1.1,0.3l-17.5-5.5c-0.3-0.1-0.3-0.2,0-0.2
		L79.9,22.4"/>
	<path class="st1" d="M54.3,47.9c-0.3,0.3-0.6,0.2-0.8-0.1L46.4,34c-0.2-0.3-0.3-0.7-0.3-0.9s0.2-0.1,0.5,0.1l11.9,9.6
		c0.3,0.2,0.3,0.6,0,0.9L54.3,47.9"/>
	<path class="st1" d="M64.8,36.8c0.3,0.1,0.4,0.4,0.1,0.7l-5,4.9c-0.3,0.3-0.7,0.2-0.9-0.1l-7.8-10.4c-0.2-0.3-0.1-0.4,0.2-0.3
		L64.8,36.8"/>
	<path class="st1" d="M72,29.9c0.4,0,0.4,0.3,0.2,0.5L66.5,36c-0.3,0.3-0.7,0.3-1,0.1l-12.1-8c-0.3-0.2-0.3-0.3,0.1-0.3L72,29.9"/>
	<path class="st1" d="M-60.9,60.4l-0.9,4.1c0,0.1-0.1,0.2-0.2,0.2h-0.8c-0.1,0-0.2-0.1-0.1-0.2l0.9-4.1l0.9-4.1
		c0-0.1,0.1-0.2,0.2-0.2h0.8c0.1,0,0.2,0.1,0.1,0.2L-60.9,60.4"/>
	<path class="st1" d="M-53.5,63.5c-0.1,0.4-0.1,1-0.1,1c0,0.1-0.1,0.2-0.2,0.2h-0.7c-0.1,0-0.2-0.1-0.1-0.2c0,0,0-0.6,0.1-1
		c0.2-0.7,0.5-2,0.7-2.7c0.2-0.9,0.1-1.7-0.2-1.7c-1.2,0-2.9,3-3.1,4.2l-0.3,1.3l-0.1,0.1l-0.7-0.2c-0.1,0-0.1,0-0.1-0.2l1-4.3
		c0.1-0.5,0.2-1,0.1-1.2c0-0.1,0.1-0.2,0.2-0.2h0.7c0.1,0,0.2,0.1,0.2,0.2c0,0.3-0.1,0.7-0.2,1.2l-0.1,0.4c0,0.1,0.1,0.2,0.2,0.1
		c0.7-1.2,1.6-1.9,2.5-1.9s1.3,1,1.1,2.1C-52.9,61.4-53.3,62.8-53.5,63.5"/>
	<path class="st1" d="M-45.6,59.7c-0.1,0.1-0.2,0.1-0.2,0.1c-0.4-0.4-1-0.6-1.7-0.6c-0.5,0-1.1,0.2-1.2,0.8
		c-0.3,1.3,3.5,0.9,2.9,3.1c-0.3,1.3-1.6,1.8-2.8,1.8c-1.2,0-1.8-0.3-2.1-0.4v-0.2l0.4-0.8c0.1-0.1,0.2-0.1,0.2,0
		c0.4,0.6,1,0.9,1.6,0.9s1.5-0.3,1.7-1c0.2-0.8-0.6-1-1.5-1.3c-0.8-0.3-1.6-0.7-1.4-1.7c0.3-1.1,1.2-1.7,2.3-1.7
		c1.2,0,1.8,0.2,2.2,0.3l0.1,0.1L-45.6,59.7"/>
	<path class="st1" d="M-41,64.8c-0.4,0-0.8-0.1-1.1-0.3h-0.2l-0.4,1.5c-0.1,0.5-0.2,1-0.1,1.2c0,0.1-0.1,0.2-0.2,0.2h-0.7
		c-0.1,0-0.2-0.1-0.2-0.2c0-0.3,0.1-0.7,0.2-1.2l1.4-6c0.1-0.5,0.2-1,0.1-1.2c0-0.1,0.1-0.2,0.2-0.2h0.7c0.1,0,0.2,0.1,0.2,0.2
		c0,0.2,0,0.5-0.1,0.8c0,0.1,0.1,0.1,0.2,0c0.7-0.9,1.6-1,1.9-1c1.1,0,2.2,0.6,1.6,3C-37.9,63.5-39.5,64.8-41,64.8 M-39.3,59.3
		c-1,0-2,1.3-2.3,2.4l-0.3,1.2c-0.2,0.8,0.2,1.5,1,1.5c1,0,2-1.1,2.4-2.7C-38.2,60.5-38.3,59.3-39.3,59.3z"/>
	<path class="st1" d="M-32.8,59.8l-0.9,3.6c-0.1,0.6,0.1,0.8,0.5,0.8c0.1,0,0.1,0,0.1,0.1l-0.1,0.2c0,0.1,0,0.1-0.1,0.1h-0.3
		c-0.9,0-1.3-0.4-1-1.6l0.8-3.2c0.1-0.4,0.2-1,0.2-1c0-0.1,0.1-0.2,0.2-0.2h0.7c0.1,0,0.2,0.1,0.1,0.2
		C-32.6,58.8-32.8,59.4-32.8,59.8 M-32.8,57c-0.3,0-0.5-0.2-0.5-0.6c0.1-0.4,0.6-0.8,1-0.8c0.3,0,0.5,0.2,0.5,0.6
		C-31.9,56.7-32.4,57-32.8,57z"/>
	<path class="st1" d="M-26,59.7l-0.2,0.1c-0.1,0-0.5-0.2-0.8-0.2c-0.6,0-1.7,1.5-2.2,3.6l-0.3,1.3l-0.1,0.1l-0.7-0.2
		c-0.1,0-0.1,0-0.1-0.2l1-4.3c0.1-0.5,0.2-1,0.1-1.2c0-0.1,0.1-0.2,0.2-0.2h0.7c0.1,0,0.2,0.1,0.2,0.2c0,0.3,0,0.4-0.1,1l-0.1,0.3
		c0,0.1,0.1,0.1,0.2,0.1c0.1-0.2,0.3-0.4,0.4-0.5c0.5-0.7,1.2-1.1,1.9-1.1c0.2,0,0.3,0.1,0.4,0.2c0,0.1,0.1,0.2,0,0.2L-26,59.7"/>
	<path class="st1" d="M-22.1,59.8l-0.9,3.6c-0.1,0.6,0.1,0.8,0.5,0.8c0.1,0,0.1,0,0.1,0.1l-0.1,0.2c0,0.1,0,0.1-0.1,0.1h-0.3
		c-0.9,0-1.3-0.4-1-1.6l0.8-3.2c0.1-0.4,0.2-1,0.2-1c0-0.1,0.1-0.2,0.2-0.2h0.7c0.1,0,0.2,0.1,0.1,0.2C-21.9,58.8-22,59.4-22.1,59.8
		 M-22.1,57c-0.3,0-0.5-0.2-0.5-0.6c0.1-0.4,0.6-0.8,1-0.8c0.3,0,0.5,0.2,0.5,0.6C-21.2,56.7-21.7,57-22.1,57z"/>
	<path class="st1" d="M-14.6,63.5c-0.1,0.4-0.1,1-0.1,1c0,0.1-0.1,0.2-0.2,0.2h-0.7c-0.1,0-0.2-0.1-0.1-0.2c0,0,0-0.6,0.1-1
		c0.2-0.7,0.5-2,0.7-2.7c0.2-0.9,0.1-1.7-0.2-1.7c-1.2,0-2.9,3-3.1,4.2l-0.3,1.3l-0.1,0.1l-0.7-0.2c-0.1,0-0.1,0-0.1-0.2l1-4.3
		c0.1-0.5,0.2-1,0.1-1.2c0-0.1,0.1-0.2,0.2-0.2h0.7c0.1,0,0.2,0.1,0.2,0.2c0,0.3-0.1,0.7-0.2,1.2l-0.1,0.4c0,0.1,0.1,0.2,0.2,0.1
		c0.7-1.2,1.6-1.9,2.5-1.9s1.3,1,1.1,2.1C-14,61.4-14.4,62.8-14.6,63.5"/>
	<path class="st1" d="M-6.8,65.6c-0.4,1.5-1.2,2.1-2.3,2.1h-1.3c-0.1,0-0.2,0-0.2-0.1l0.3-0.5c0.1-0.1,0.1-0.2,0.2-0.1
		c0,0,0.6,0.3,0.9,0.3c0.5,0,1-0.6,1.2-1.4l0.6-2.6c0-0.1-0.1-0.1-0.1,0c-0.6,0.9-1.4,1.5-2.3,1.5c-1.1,0-2.2-0.6-1.5-3
		c0.5-1.9,2.1-3.2,3.5-3.2c2.2,0,2,2.5,1.6,4.1L-6.8,65.6 M-7.7,59c-1,0-2,1.1-2.4,2.7c-0.3,1.1-0.2,2.3,0.8,2.3s2-1.3,2.3-2.4
		l0.1-0.6C-6.6,59.9-6.9,59-7.7,59z"/>
	<path class="st1" d="M3.6,61H2.7c-0.1,0-0.3,0.1-0.3,0.2l-0.7,3.2c0,0.1-0.1,0.2-0.2,0.2H0.7c-0.1,0-0.2-0.1-0.1-0.2l0.9-4.1
		l0.9-4.1c0-0.1,0.1-0.2,0.2-0.2h2.8c1.4,0,2.7,0.6,2.4,2.4C7.4,59.9,6,61,3.6,61 M4.6,56.6H3.8c-0.2,0-0.4,0.1-0.4,0.3l-0.7,3.2
		c0,0.1,0.1,0.3,0.2,0.3h0.7c1.3,0,2.5-0.4,2.9-2C6.7,57.2,6.2,56.6,4.6,56.6z"/>
	<path class="st1" d="M11.1,64.8c-1.5,0-2.4-1.3-1.9-3.2c0.5-1.9,1.9-3.2,3.4-3.2s2.4,1.2,1.9,3.2C14.1,63.5,12.6,64.8,11.1,64.8
		 M12.4,59.1c-1.1,0-1.8,1-2.1,2.6s0,2.6,1,2.6c1.1,0,1.8-1.1,2.1-2.7C13.8,60,13.4,59,12.4,59.1z"/>
	<path class="st1" d="M21.4,59.7c-0.1,0.1-0.2,0.1-0.2,0.1c-0.4-0.4-1-0.6-1.7-0.6c-0.5,0-1.1,0.2-1.2,0.8c-0.3,1.3,3.5,0.9,2.9,3.1
		c-0.3,1.3-1.6,1.8-2.8,1.8s-1.8-0.3-2.1-0.4v-0.2l0.4-0.8c0.1-0.1,0.2-0.1,0.2,0c0.4,0.6,1,0.9,1.6,0.9s1.5-0.3,1.7-1
		c0.2-0.8-0.6-1-1.5-1.3c-0.8-0.3-1.6-0.7-1.4-1.7c0.3-1.1,1.2-1.7,2.3-1.7c1.2,0,1.8,0.2,2.2,0.3l0.1,0.1L21.4,59.7"/>
	<path class="st1" d="M28.5,59.7c-0.1,0.1-0.2,0.1-0.2,0.1c-0.4-0.4-1-0.6-1.7-0.6c-0.5,0-1.1,0.2-1.2,0.8c-0.3,1.3,3.5,0.9,2.9,3.1
		c-0.3,1.3-1.6,1.8-2.8,1.8s-1.8-0.3-2.1-0.4v-0.2l0.4-0.8c0.1-0.1,0.2-0.1,0.2,0c0.4,0.6,1,0.9,1.6,0.9s1.5-0.3,1.7-1
		c0.2-0.8-0.6-1-1.5-1.3c-0.8-0.3-1.6-0.7-1.4-1.7c0.3-1.1,1.2-1.7,2.3-1.7c1.2,0,1.8,0.2,2.2,0.3l0.1,0.1L28.5,59.7"/>
	<path class="st1" d="M33.2,59.8l-0.9,3.6c-0.1,0.6,0.1,0.8,0.5,0.8c0.1,0,0.1,0,0.1,0.1l-0.1,0.2c0,0.1,0,0.1-0.1,0.1h-0.3
		c-0.9,0-1.3-0.4-1-1.6l0.8-3.2c0.1-0.4,0.2-1,0.2-1c0-0.1,0.1-0.2,0.2-0.2h0.7c0.1,0,0.2,0.1,0.1,0.2
		C33.4,58.8,33.3,59.4,33.2,59.8 M33.2,57c-0.3,0-0.5-0.2-0.5-0.6c0.1-0.4,0.6-0.8,1-0.8c0.3,0,0.5,0.2,0.5,0.6
		C34.1,56.7,33.6,57,33.2,57z"/>
	<path class="st1" d="M37.8,64.7c-0.5,0-0.9-0.2-1.2-0.5l-0.2-0.1c-0.2,0-0.4,0.3-0.7,0.4c-0.1,0.1-0.4,0.1-0.3-0.1l1.8-7.4
		c0.1-0.5,0.2-1,0.1-1.2c0-0.1,0.1-0.2,0.2-0.2h0.7c0.1,0,0.2,0.1,0.2,0.2c0,0.3,0,0.7-0.2,1.2l-0.6,2.4c0,0.1,0.1,0.1,0.2,0
		c0.7-0.8,1.6-1,1.9-1c1.1,0,2.2,0.6,1.6,3C40.9,63.4,39.3,64.7,37.8,64.7 M39.4,59.2c-1,0-2,1.3-2.3,2.4l-0.3,1.2
		c-0.2,0.8,0.2,1.5,1,1.5c1,0,2-1.1,2.4-2.7C40.5,60.4,40.5,59.2,39.4,59.2z"/>
	<path class="st1" d="M45.8,59.8l-0.9,3.6c-0.1,0.6,0.1,0.8,0.5,0.8c0.1,0,0.1,0,0.1,0.1l-0.1,0.2c0,0.1,0,0.1-0.1,0.1H45
		c-0.9,0-1.3-0.4-1-1.6l0.8-3.2c0.1-0.4,0.2-1,0.2-1c0-0.1,0.1-0.2,0.2-0.2h0.7c0.1,0,0.2,0.1,0.1,0.2C46,58.8,45.8,59.4,45.8,59.8
		 M45.8,57c-0.3,0-0.5-0.2-0.5-0.6c0.1-0.4,0.6-0.8,1-0.8c0.3,0,0.5,0.2,0.5,0.6C46.7,56.7,46.2,57,45.8,57z"/>
	<path class="st1" d="M50.9,56.8l-1.6,6.6c-0.1,0.6,0.1,0.8,0.4,0.8c0.1,0,0.1,0,0.1,0.1l-0.1,0.2c0,0.1,0,0.1-0.1,0.1h-0.3
		c-0.9,0-1.3-0.4-1-1.6l1.5-6.2c0.1-0.4,0.1-0.9,0.1-0.9c0-0.1,0.1-0.2,0.2-0.2h0.7c0.1,0,0.2,0.1,0.1,0.2
		C51.1,55.8,51,56.4,50.9,56.8"/>
	<path class="st1" d="M55,59.8l-0.9,3.6c-0.1,0.6,0.1,0.8,0.5,0.8c0.1,0,0.1,0,0.1,0.1l-0.1,0.2c0,0.1,0,0.1-0.1,0.1h-0.3
		c-0.9,0-1.3-0.4-1-1.6l0.8-3.2c0.1-0.4,0.2-1,0.2-1c0-0.1,0.1-0.2,0.2-0.2h0.7c0.1,0,0.2,0.1,0.1,0.2C55.3,58.8,55.1,59.4,55,59.8
		 M55,57c-0.3,0-0.5-0.2-0.5-0.6c0.1-0.4,0.6-0.8,1-0.8c0.3,0,0.5,0.2,0.5,0.6C55.9,56.7,55.4,57,55,57z"/>
	<path class="st1" d="M62.2,59.2c0,0.1-0.1,0.1-0.2,0.1h-1.8l-1,4c-0.1,0.6,0.1,0.8,0.4,0.8H60c0.1,0,0.1,0,0.1,0.1v0.2
		c0,0.1-0.1,0.1-0.1,0.1h-0.6c-0.9,0-1.3-0.4-1-1.6l0.9-3.7H58l-0.1-0.1c0-0.1,0.1-0.3,0.1-0.4c0-0.1,0.1-0.1,0.2-0.1h1.3l0.3-1.3
		l0.1-0.1l0.8-0.3c0.2-0.1,0.3-0.1,0.2,0.1l-0.4,1.7h1.8c0.1,0,0.1,0,0.1,0.1L62.2,59.2"/>
	<path class="st1" d="M65.8,59.8l-0.9,3.6c-0.1,0.6,0.1,0.8,0.5,0.8c0.1,0,0.1,0,0.1,0.1l-0.1,0.2c0,0.1,0,0.1-0.1,0.1H65
		c-0.9,0-1.3-0.4-1-1.6l0.8-3.2c0.1-0.4,0.2-1,0.2-1c0-0.1,0.1-0.2,0.2-0.2h0.7c0.1,0,0.2,0.1,0.1,0.2
		C66.1,58.8,65.9,59.4,65.8,59.8 M65.8,57c-0.3,0-0.5-0.2-0.5-0.6c0.1-0.4,0.6-0.8,1-0.8c0.3,0,0.5,0.2,0.5,0.6
		C66.7,56.7,66.3,57,65.8,57z"/>
	<path class="st1" d="M69.5,62.9c0,0.8,0.4,1.3,1,1.3s1.3-0.4,1.8-0.9l0.1-0.1l0.1-0.1l0.3,0.3v0.1c-0.6,0.7-1.4,1.2-2.5,1.2
		c-1.4,0-2.3-1.2-1.8-3.1c0.4-1.6,1.9-3.1,3.4-3.1c1.2,0,1.9,0.6,1.6,1.8C73.2,61.4,71.6,62.6,69.5,62.9 M71.8,59
		c-1,0-1.7,1-2.1,2.6c-0.1,0.3-0.1,0.5-0.1,0.8c1.5-0.3,2.7-1.1,3-2.2C72.7,59.5,72.4,59,71.8,59z"/>
	<path class="st1" d="M80.1,59.7c-0.1,0.1-0.2,0.1-0.2,0.1c-0.4-0.4-1-0.6-1.7-0.6c-0.5,0-1.1,0.2-1.2,0.8c-0.3,1.3,3.5,0.9,2.9,3.1
		c-0.3,1.3-1.6,1.8-2.8,1.8s-1.8-0.3-2.1-0.4v-0.2l0.4-0.8c0.1-0.1,0.2-0.1,0.2,0c0.4,0.6,1,0.9,1.6,0.9s1.5-0.3,1.7-1
		c0.2-0.8-0.6-1-1.5-1.3c-0.8-0.3-1.6-0.7-1.4-1.7c0.3-1.1,1.2-1.7,2.3-1.7c1.2,0,1.8,0.2,2.2,0.3l0.1,0.1L80.1,59.7"/>
	<path class="st1" d="M-60.8,60.3l-0.9,4.1c0,0.1-0.1,0.2-0.2,0.2h-0.8c-0.1,0-0.2-0.1-0.1-0.2l0.9-4.1l0.9-4.1
		c0-0.1,0.1-0.2,0.2-0.2h0.8c0.1,0,0.2,0.1,0.1,0.2L-60.8,60.3"/>
	<path class="st1" d="M-53.4,63.4c-0.1,0.4-0.1,1-0.1,1c0,0.1-0.1,0.2-0.2,0.2h-0.7c-0.1,0-0.2-0.1-0.1-0.2c0,0,0-0.6,0.1-1
		c0.2-0.7,0.5-2,0.7-2.7c0.2-0.9,0.1-1.7-0.2-1.7c-1.2,0-2.9,3-3.1,4.2l-0.3,1.3l-0.1,0.1l-0.7-0.2c-0.1,0-0.1,0-0.1-0.2l1-4.3
		c0.1-0.5,0.2-1,0.1-1.2c0-0.1,0.1-0.2,0.2-0.2h0.7c0.1,0,0.2,0.1,0.2,0.2c0,0.3-0.1,0.7-0.2,1.2l-0.1,0.4c0,0.1,0.1,0.2,0.2,0.1
		c0.7-1.2,1.6-1.9,2.5-1.9s1.3,1,1.1,2.1C-52.8,61.3-53.3,62.7-53.4,63.4"/>
	<path class="st1" d="M-45.5,59.6c-0.1,0.1-0.2,0.1-0.2,0.1c-0.4-0.4-1-0.6-1.7-0.6c-0.5,0-1.1,0.2-1.2,0.8
		c-0.3,1.3,3.5,0.9,2.9,3.1c-0.3,1.3-1.6,1.8-2.8,1.8c-1.2,0-1.8-0.3-2.1-0.4v-0.2l0.4-0.8c0.1-0.1,0.2-0.1,0.2,0
		c0.4,0.6,1,0.9,1.6,0.9s1.5-0.3,1.7-1c0.2-0.8-0.6-1-1.5-1.3c-0.8-0.3-1.6-0.7-1.4-1.7c0.3-1.1,1.2-1.7,2.3-1.7
		c1.2,0,1.8,0.2,2.2,0.3L-45,59L-45.5,59.6"/>
	<path class="st1" d="M-41,64.7c-0.4,0-0.8-0.1-1.1-0.3h-0.2l-0.4,1.5c-0.1,0.5-0.2,1-0.1,1.2c0,0.1-0.1,0.2-0.2,0.2h-0.7
		c-0.1,0-0.2-0.1-0.2-0.2c0-0.3,0.1-0.7,0.2-1.2l1.4-6c0.1-0.5,0.2-1,0.1-1.2c0-0.1,0.1-0.2,0.2-0.2h0.7c0.1,0,0.2,0.1,0.2,0.2
		c0,0.2,0,0.5-0.1,0.8c0,0.1,0.1,0.1,0.2,0c0.7-0.9,1.6-1,1.9-1c1.1,0,2.2,0.6,1.6,3C-37.8,63.4-39.5,64.7-41,64.7 M-39.3,59.2
		c-1,0-2,1.3-2.3,2.4l-0.3,1.2c-0.2,0.8,0.2,1.5,1,1.5c1,0,2-1.1,2.4-2.7C-38.2,60.4-38.3,59.2-39.3,59.2z"/>
	<path class="st1" d="M-32.8,59.7l-0.9,3.6c-0.1,0.6,0.1,0.8,0.5,0.8c0.1,0,0.1,0,0.1,0.1l-0.1,0.2c0,0.1,0,0.1-0.1,0.1h-0.3
		c-0.9,0-1.3-0.4-1-1.6l0.8-3.2c0.1-0.4,0.2-1,0.2-1c0-0.1,0.1-0.2,0.2-0.2h0.7c0.1,0,0.2,0.1,0.1,0.2
		C-32.5,58.7-32.7,59.3-32.8,59.7 M-32.8,57c-0.3,0-0.5-0.2-0.5-0.6c0.1-0.4,0.6-0.8,1-0.8c0.3,0,0.5,0.2,0.5,0.6
		C-31.9,56.6-32.4,57-32.8,57z"/>
	<path class="st1" d="M-25.9,59.6l-0.2,0.1c-0.1,0-0.5-0.2-0.8-0.2c-0.6,0-1.7,1.5-2.2,3.6l-0.3,1.3l-0.1,0.1l-0.7-0.2
		c-0.1,0-0.1,0-0.1-0.2l1-4.3c0.1-0.5,0.2-1,0.1-1.2c0-0.1,0.1-0.2,0.2-0.2h0.7c0.1,0,0.2,0.1,0.2,0.2c0,0.3,0,0.4-0.1,1l-0.1,0.3
		c0,0.1,0.1,0.1,0.2,0.1c0.1-0.2,0.3-0.4,0.4-0.5c0.5-0.7,1.2-1.1,1.9-1.1c0.2,0,0.3,0.1,0.4,0.2c0,0.1,0.1,0.2,0,0.2L-25.9,59.6"/>
	<path class="st1" d="M-22.1,59.7l-0.9,3.6c-0.1,0.6,0.1,0.8,0.5,0.8c0.1,0,0.1,0,0.1,0.1l-0.1,0.2c0,0.1,0,0.1-0.1,0.1h-0.3
		c-0.9,0-1.3-0.4-1-1.6l0.8-3.2c0.1-0.4,0.2-1,0.2-1c0-0.1,0.1-0.2,0.2-0.2h0.7c0.1,0,0.2,0.1,0.1,0.2C-21.8,58.7-22,59.3-22.1,59.7
		 M-22.1,57c-0.3,0-0.5-0.2-0.5-0.6c0.1-0.4,0.6-0.8,1-0.8c0.3,0,0.5,0.2,0.5,0.6C-21.2,56.6-21.6,57-22.1,57z"/>
	<path class="st1" d="M-14.6,63.4c-0.1,0.4-0.1,1-0.1,1c0,0.1-0.1,0.2-0.2,0.2h-0.7c-0.1,0-0.2-0.1-0.1-0.2c0,0,0-0.6,0.1-1
		c0.2-0.7,0.5-2,0.7-2.7c0.2-0.9,0.1-1.7-0.2-1.7c-1.2,0-2.9,3-3.1,4.2l-0.3,1.3l-0.1,0.1l-0.7-0.2c-0.1,0-0.1,0-0.1-0.2l1-4.3
		c0.1-0.5,0.2-1,0.1-1.2c0-0.1,0.1-0.2,0.2-0.2h0.7c0.1,0,0.2,0.1,0.2,0.2c0,0.3-0.1,0.7-0.2,1.2l-0.1,0.4c0,0.1,0.1,0.2,0.2,0.1
		c0.7-1.2,1.6-1.9,2.5-1.9s1.3,1,1.1,2.1C-14,61.3-14.4,62.7-14.6,63.4"/>
	<path class="st1" d="M-6.8,65.5C-7.2,67-8,67.6-9.1,67.6h-1.3c-0.1,0-0.2,0-0.2-0.1l0.3-0.5c0.1-0.1,0.1-0.2,0.2-0.1
		c0,0,0.6,0.3,0.9,0.3c0.5,0,1-0.6,1.2-1.4l0.6-2.6c0-0.1-0.1-0.1-0.1,0c-0.6,0.9-1.4,1.5-2.3,1.5c-1.1,0-2.2-0.6-1.5-3
		c0.5-1.9,2.1-3.2,3.5-3.2c2.2,0,2,2.5,1.6,4.1L-6.8,65.5 M-7.7,58.9c-1,0-2,1.1-2.4,2.7c-0.3,1.1-0.2,2.3,0.8,2.3s2-1.3,2.3-2.4
		l0.1-0.6C-6.6,59.8-6.9,58.9-7.7,58.9z"/>
	<path class="st1" d="M3.6,60.9H2.7c-0.1,0-0.3,0.1-0.3,0.2l-0.7,3.2c0,0.1-0.1,0.2-0.2,0.2H0.7c-0.1,0-0.2-0.1-0.1-0.2l0.9-4.1
		l0.9-4.1c0-0.1,0.1-0.2,0.2-0.2h2.8c1.4,0,2.7,0.6,2.4,2.4C7.4,59.8,6,60.9,3.6,60.9 M4.6,56.6H3.8c-0.2,0-0.4,0.1-0.4,0.3
		l-0.7,3.2c0,0.1,0.1,0.3,0.2,0.3h0.7c1.3,0,2.5-0.4,2.9-2C6.7,57.1,6.2,56.6,4.6,56.6z"/>
	<path class="st1" d="M11.1,64.7c-1.5,0-2.4-1.3-1.9-3.2c0.5-1.9,1.9-3.2,3.4-3.2s2.4,1.2,1.9,3.2C14.1,63.4,12.6,64.7,11.1,64.7
		 M12.4,59c-1.1,0-1.8,1-2.1,2.6s0,2.6,1,2.6c1.1,0,1.8-1.1,2.1-2.7C13.8,59.9,13.4,58.9,12.4,59z"/>
	<path class="st1" d="M21.4,59.6c-0.1,0.1-0.2,0.1-0.2,0.1c-0.4-0.4-1-0.6-1.7-0.6c-0.5,0-1.1,0.2-1.2,0.8c-0.3,1.3,3.5,0.9,2.9,3.1
		c-0.3,1.3-1.6,1.8-2.8,1.8s-1.8-0.3-2.1-0.4v-0.2l0.4-0.8c0.1-0.1,0.2-0.1,0.2,0c0.4,0.6,1,0.9,1.6,0.9s1.5-0.3,1.7-1
		c0.2-0.8-0.6-1-1.5-1.3c-0.8-0.3-1.6-0.7-1.4-1.7c0.3-1.1,1.2-1.7,2.3-1.7c1.2,0,1.8,0.2,2.2,0.3l0.1,0.1L21.4,59.6"/>
	<path class="st1" d="M28.5,59.6c-0.1,0.1-0.2,0.1-0.2,0.1c-0.4-0.4-1-0.6-1.7-0.6c-0.5,0-1.1,0.2-1.2,0.8c-0.3,1.3,3.5,0.9,2.9,3.1
		c-0.3,1.3-1.6,1.8-2.8,1.8s-1.8-0.3-2.1-0.4v-0.2l0.4-0.8c0.1-0.1,0.2-0.1,0.2,0c0.4,0.6,1,0.9,1.6,0.9s1.5-0.3,1.7-1
		c0.2-0.8-0.6-1-1.5-1.3c-0.8-0.3-1.6-0.7-1.4-1.7c0.3-1.1,1.2-1.7,2.3-1.7c1.2,0,1.8,0.2,2.2,0.3L29,59L28.5,59.6"/>
	<path class="st1" d="M33.2,59.7l-0.9,3.6c-0.1,0.6,0.1,0.8,0.5,0.8c0.1,0,0.1,0,0.1,0.1l-0.1,0.2c0,0.1,0,0.1-0.1,0.1h-0.3
		c-0.9,0-1.3-0.4-1-1.6l0.8-3.2c0.1-0.4,0.2-1,0.2-1c0-0.1,0.1-0.2,0.2-0.2h0.7c0.1,0,0.2,0.1,0.1,0.2
		C33.4,58.7,33.3,59.3,33.2,59.7 M33.2,57c-0.3,0-0.5-0.2-0.5-0.6c0.1-0.4,0.6-0.8,1-0.8c0.3,0,0.5,0.2,0.5,0.6
		C34.1,56.6,33.6,57,33.2,57z"/>
	<path class="st1" d="M37.8,64.6c-0.5,0-0.9-0.2-1.2-0.5L36.4,64c-0.2,0-0.4,0.3-0.7,0.4c-0.1,0.1-0.4,0.1-0.3-0.1l1.8-7.4
		c0.1-0.5,0.2-1,0.1-1.2c0-0.1,0.1-0.2,0.2-0.2h0.7c0.1,0,0.2,0.1,0.2,0.2c0,0.3,0,0.7-0.2,1.2l-0.6,2.4c0,0.1,0.1,0.1,0.2,0
		c0.7-0.8,1.6-1,1.9-1c1.1,0,2.2,0.6,1.6,3C40.9,63.3,39.3,64.6,37.8,64.6 M39.4,59.1c-1,0-2,1.3-2.3,2.4l-0.3,1.2
		c-0.2,0.8,0.2,1.5,1,1.5c1,0,2-1.1,2.4-2.7C40.5,60.3,40.4,59.1,39.4,59.1z"/>
	<path class="st1" d="M45.7,59.7l-0.9,3.6c-0.1,0.6,0.1,0.8,0.5,0.8c0.1,0,0.1,0,0.1,0.1l-0.1,0.2c0,0.1,0,0.1-0.1,0.1h-0.3
		c-0.9,0-1.3-0.4-1-1.6l0.8-3.2c0.1-0.4,0.2-1,0.2-1c0-0.1,0.1-0.2,0.2-0.2h0.7c0.1,0,0.2,0.1,0.1,0.2C46,58.7,45.8,59.3,45.7,59.7
		 M45.8,57c-0.3,0-0.5-0.2-0.5-0.6c0.1-0.4,0.6-0.8,1-0.8c0.3,0,0.5,0.2,0.5,0.6C46.7,56.6,46.2,57,45.8,57z"/>
	<path class="st1" d="M50.9,56.7l-1.6,6.6c-0.1,0.6,0.1,0.8,0.4,0.8c0.1,0,0.1,0,0.1,0.1l-0.1,0.2c0,0.1,0,0.1-0.1,0.1h-0.3
		c-0.9,0-1.3-0.4-1-1.6l1.5-6.2c0.1-0.4,0.1-0.9,0.1-0.9c0-0.1,0.1-0.2,0.2-0.2h0.7c0.1,0,0.2,0.1,0.1,0.2
		C51,55.7,51,56.3,50.9,56.7"/>
	<path class="st1" d="M55,59.7l-0.9,3.6c-0.1,0.6,0.1,0.8,0.5,0.8c0.1,0,0.1,0,0.1,0.1l-0.1,0.2c0,0.1,0,0.1-0.1,0.1h-0.3
		c-0.9,0-1.3-0.4-1-1.6l0.8-3.2c0.1-0.4,0.2-1,0.2-1c0-0.1,0.1-0.2,0.2-0.2h0.7c0.1,0,0.2,0.1,0.1,0.2C55.2,58.7,55.1,59.3,55,59.7
		 M55,57c-0.3,0-0.5-0.2-0.5-0.6c0.1-0.4,0.6-0.8,1-0.8c0.3,0,0.5,0.2,0.5,0.6C55.9,56.6,55.4,57,55,57z"/>
	<path class="st1" d="M62.2,59.1c0,0.1-0.1,0.1-0.2,0.1h-1.8l-1,4c-0.1,0.6,0.1,0.8,0.4,0.8H60c0.1,0,0.1,0,0.1,0.1v0.2
		c0,0.1-0.1,0.1-0.1,0.1h-0.6c-0.9,0-1.3-0.4-1-1.6l0.9-3.6H58l-0.1-0.1c0-0.1,0.1-0.3,0.1-0.4c0-0.1,0.1-0.1,0.2-0.1h1.3l0.3-1.3
		l0.1-0.1l0.8-0.3c0.2-0.1,0.3-0.1,0.2,0.1l-0.4,1.7h1.8c0.1,0,0.1,0,0.1,0.1L62.2,59.1"/>
	<path class="st1" d="M65.8,59.7l-0.9,3.6c-0.1,0.6,0.1,0.8,0.5,0.8c0.1,0,0.1,0,0.1,0.1l-0.1,0.2c0,0.1,0,0.1-0.1,0.1H65
		c-0.9,0-1.3-0.4-1-1.6l0.8-3.2c0.1-0.4,0.2-1,0.2-1c0-0.1,0.1-0.2,0.2-0.2h0.7c0.1,0,0.2,0.1,0.1,0.2C66,58.7,65.9,59.3,65.8,59.7
		 M65.8,57c-0.3,0-0.5-0.2-0.5-0.6c0.1-0.4,0.6-0.8,1-0.8c0.3,0,0.5,0.2,0.5,0.6C66.7,56.6,66.2,57,65.8,57z"/>
	<path class="st1" d="M69.5,62.8c0,0.8,0.4,1.3,1,1.3s1.3-0.4,1.8-0.9l0.1-0.1l0.1-0.1l0.3,0.3v0.1c-0.6,0.7-1.4,1.2-2.5,1.2
		c-1.4,0-2.3-1.2-1.8-3.1c0.4-1.6,1.9-3.1,3.3-3.1c1.2,0,1.9,0.6,1.6,1.8C73.1,61.3,71.6,62.5,69.5,62.8 M71.7,58.9
		c-1,0-1.7,1-2.1,2.6c-0.1,0.3-0.1,0.5-0.1,0.8c1.5-0.3,2.7-1.1,3-2.2C72.7,59.4,72.4,58.9,71.7,58.9z"/>
	<path class="st1" d="M80,59.6c-0.1,0.1-0.2,0.1-0.2,0.1c-0.4-0.4-1-0.6-1.7-0.6c-0.5,0-1.1,0.2-1.2,0.8c-0.3,1.3,3.5,0.9,2.9,3.1
		c-0.3,1.3-1.6,1.8-2.8,1.8s-1.8-0.3-2.1-0.4v-0.2l0.4-0.8c0.1-0.1,0.2-0.1,0.2,0c0.4,0.6,1,0.9,1.6,0.9s1.5-0.3,1.7-1
		c0.2-0.8-0.6-1-1.5-1.3c-0.8-0.3-1.6-0.7-1.4-1.7c0.3-1.1,1.2-1.7,2.3-1.7c1.2,0,1.8,0.2,2.2,0.3l0.1,0.1L80,59.6"/>
</g>
<text transform="matrix(1 0 0 1 -119.75 55.75)" class="st2 st3">CLO_LOGO_FRENCH</text>
</svg>
