<?xml version="1.0" encoding="utf-8"?>
<!-- Generator: Adobe Illustrator 19.1.0, SVG Export Plug-In . SVG Version: 6.00 Build 0)  -->
<svg version="1.1" id="Layer_1" xmlns="http://www.w3.org/2000/svg" xmlns:xlink="http://www.w3.org/1999/xlink" x="0px" y="0px"
	 viewBox="-215 15 152 35" style="enable-background:new -215 15 152 35;" xml:space="preserve">
<metadata><?xpacket begin="﻿" id="W5M0MpCehiHzreSzNTczkc9d"?>
<x:xmpmeta xmlns:x="adobe:ns:meta/" x:xmptk="Adobe XMP Core 5.6-c067 79.157747, 2015/03/30-23:40:42        ">
   <rdf:RDF xmlns:rdf="http://www.w3.org/1999/02/22-rdf-syntax-ns#">
      <rdf:Description rdf:about=""/>
   </rdf:RDF>
</x:xmpmeta>
                                                                                                    
                                                                                                    
                                                                                                    
                                                                                                    
                                                                                                    
                                                                                                    
                                                                                                    
                                                                                                    
                                                                                                    
                                                                                                    
                                                                                                    
                                                                                                    
                                                                                                    
                                                                                                    
                                                                                                    
                                                                                                    
                                                                                                    
                                                                                                    
                                                                                                    
                                                                                                    
                           
<?xpacket end="w"?></metadata>
<style type="text/css">
	.st0{fill:#0C81C3;}
	.st1{fill:#76BA43;}
	.st2{font-family:'MyriadPro-Regular';}
	.st3{font-size:12px;}
</style>
<g>
	<path class="st0" d="M-208.9,37c-2.4,0-4.9-1.5-4.9-5.9c0-3.6,2.3-5.7,4.9-5.7h3.1c0.2,0,0.2,0,0.2,0.2l-0.1,1.1
		c0,0.2-0.1,0.2-0.3,0.2c-0.9-0.3-1.5-0.5-2.9-0.5c-1.9,0-3,1.7-3,4.8c-0.1,3.6,1.6,4.8,3.6,4.8c0.8,0,1.7-0.5,2.3-1.1
		c0,0,0.1-0.1,0.2,0l0.4,0.5c0.1,0.1,0.1,0.1,0,0.2C-206.2,36.4-207.5,37-208.9,37"/>
	<path class="st0" d="M-200.5,37c-3.2,0-4.3-2.3-4.3-4.8c0-2.4,1.1-4.9,4.3-4.9s4.3,2.3,4.3,4.8C-196.1,34.5-197.3,37-200.5,37
		 M-200.5,28c-2.2,0-2.6,2.2-2.6,3.9s0.2,4.3,2.7,4.3c2.2,0,2.6-2.2,2.6-3.9C-197.8,30.7-198,28-200.5,28z"/>
	<path class="st0" d="M-184.1,32.1v4.4c0,0.2-0.1,0.2-0.3,0.2h-0.9c-0.2,0-0.3-0.1-0.3-0.2v-4.4v-2c0-0.1-0.1-0.1-0.2,0l-3.6,6.2
		c-0.1,0.2-0.3,0.2-0.4,0l-3.3-6.3h-0.1l0.2,6.4c0,0.2-0.1,0.2-0.3,0.2h-0.7c-0.2,0-0.3-0.1-0.3-0.2l0.2-6.3v-2.4
		c0-0.2,0.1-0.2,0.3-0.2h1c0.1,0,0.2,0,0.3,0.2l3.3,6.4c0.1,0.1,0.2,0.1,0.2,0l3.4-6.3c0.1-0.1,0.2-0.3,0.4-0.3h0.9
		c0.2,0,0.3,0.1,0.3,0.3L-184.1,32.1"/>
	<path class="st0" d="M-171.5,32.1v4.4c0,0.2-0.1,0.2-0.3,0.2h-0.9c-0.2,0-0.3-0.1-0.3-0.2v-4.4v-2c0-0.1-0.1-0.1-0.2,0l-3.6,6.2
		c-0.1,0.2-0.3,0.2-0.4,0l-3.2-6.3h-0.1l0.2,6.4c0,0.2-0.1,0.2-0.3,0.2h-0.8c-0.2,0-0.3-0.1-0.3-0.2l0.2-6.3v-2.4
		c0-0.2,0.1-0.2,0.3-0.2h1c0.1,0,0.2,0,0.3,0.2l3.3,6.4c0.1,0.1,0.2,0.1,0.2,0l3.4-6.3c0.1-0.1,0.2-0.3,0.4-0.3h0.9
		c0.2,0,0.3,0.1,0.3,0.3L-171.5,32.1"/>
	<path class="st0" d="M-161.9,28.9L-162,34c-0.1,2-1.3,3-3.4,3c-2.4,0-3.8-1-3.9-3l-0.1-5.2v-1c0-0.2,0.1-0.2,0.3-0.2h1
		c0.2,0,0.3,0.1,0.3,0.2v1v5c0,1.4,1.1,2.2,2.5,2.2c1.2,0,2.2-0.6,2.2-2l-0.1-5c0-0.5-0.1-1.1-0.1-1.1c0-0.2,0-0.3,0.2-0.3h1
		c0.2,0,0.2,0.2,0.2,0.3C-161.8,27.9-161.8,28.5-161.9,28.9"/>
	<path class="st0" d="M-151.8,34.3v2.4c0,0.3-0.4,0.3-0.5,0.2l-5.9-7c-0.1-0.1-0.1,0-0.1,0l0.2,6.5c0,0.1,0,0.3-0.2,0.3h-0.9
		c-0.2,0-0.2-0.2-0.2-0.3l0.2-6.4v-2.2c0-0.2,0.1-0.2,0.3-0.2h0.4c0.1,0,0.3,0.1,0.3,0.2l5.2,6.2c0.1,0.1,0.2,0,0.2,0l-0.2-6
		c0-0.1,0-0.3,0.2-0.3h0.8c0.2,0,0.2,0.2,0.2,0.3V34.3"/>
	<path class="st0" d="M-148,36.7h-1c-0.2,0-0.3-0.1-0.3-0.2v-4.3v-4.3c0-0.2,0.1-0.2,0.3-0.2h1c0.2,0,0.3,0.1,0.3,0.2v4.3v4.3
		C-147.7,36.6-147.8,36.7-148,36.7"/>
	<path class="st0" d="M-138.8,28.4c0,0.2-0.1,0.2-0.3,0.2c0,0-1.8-0.2-2.6-0.2c-0.1,0-0.2,0.1-0.2,0.2v7.8c0,0.2-0.1,0.2-0.3,0.2h-1
		c-0.2,0-0.3-0.1-0.3-0.2v-7.8c0-0.1-0.1-0.2-0.2-0.2c-0.8,0-2.6,0.2-2.6,0.2c-0.1,0-0.3,0-0.3-0.2l-0.1-0.7c0-0.2,0.2-0.2,0.3-0.2
		h7.1c0.2,0,0.3,0.1,0.3,0.2L-138.8,28.4"/>
	<path class="st0" d="M-133.4,32.6c-0.1,0.1-0.1,0.2-0.1,0.3v3.6c0,0.2-0.1,0.2-0.3,0.2h-1c-0.2,0-0.3-0.1-0.3-0.2v-3.3
		c0-0.1,0-0.2-0.1-0.3l-3.7-5c-0.1-0.2-0.1-0.3,0.1-0.3h1.3c0.2,0,0.3,0.1,0.4,0.2l2.8,4.2h0.3l2.6-4.2c0.1-0.1,0.2-0.2,0.3-0.2h0.8
		c0.2,0,0.2,0.2,0.1,0.3L-133.4,32.6"/>
	<path class="st1" d="M-119.5,36.7h-6.2c-0.2,0-0.2-0.1-0.2-0.2V31v-5.5c0-0.2,0.1-0.2,0.2-0.2h1.1c0.2,0,0.2,0.1,0.2,0.2V31v4.3
		c0,0.2,0.2,0.5,0.5,0.5h1.5c1,0,2.9-0.4,2.9-0.4c0.2,0,0.3,0,0.3,0.2v1C-119.2,36.7-119.4,36.7-119.5,36.7"/>
	<path class="st1" d="M-116.7,36.7h-1c-0.2,0-0.3-0.1-0.3-0.2v-4.3v-4.3c0-0.2,0.1-0.2,0.3-0.2h1c0.2,0,0.3,0.1,0.3,0.2v4.3v4.3
		C-116.4,36.6-116.5,36.7-116.7,36.7"/>
	<path class="st1" d="M-110,36.6c0,0.1-0.4,0.2-0.6,0.2s-0.5-0.1-0.6-0.2l-3.5-7.8l-0.5-1c-0.1-0.2,0-0.3,0.2-0.3h1.3
		c0.2,0,0.3,0.1,0.3,0.2l0.4,1l2.4,6.2h0.1l2.6-7.2c0.1-0.1,0.1-0.2,0.3-0.2h0.9c0.2,0,0.2,0.2,0.2,0.3L-110,36.6"/>
	<path class="st1" d="M-104,36.7h-1c-0.2,0-0.3-0.1-0.3-0.2v-4.3v-4.3c0-0.2,0.1-0.2,0.3-0.2h1c0.2,0,0.3,0.1,0.3,0.2v4.3v4.3
		C-103.7,36.6-103.8,36.7-104,36.7"/>
	<path class="st1" d="M-93.7,34.3v2.4c0,0.3-0.4,0.3-0.5,0.2l-5.9-7c-0.1-0.1-0.1,0-0.1,0l0.2,6.5c0,0.1,0,0.3-0.2,0.3h-0.8
		c-0.2,0-0.2-0.2-0.2-0.3l0.2-6.4v-2.2c0-0.2,0.1-0.2,0.3-0.2h0.4c0.1,0,0.3,0.1,0.3,0.2l5.2,6.2c0.1,0.1,0.2,0,0.2,0l-0.2-6
		c0-0.1,0-0.3,0.2-0.3h0.8c0.2,0,0.2,0.2,0.2,0.3L-93.7,34.3"/>
	<path class="st1" d="M-83.7,36.8c-0.2,0-0.6-0.4-0.6-0.4c-0.1-0.1-0.1-0.1-0.2,0c-0.6,0.3-1.6,0.6-2.5,0.6c-2.2,0-4.4-1.2-4.4-4.7
		c0-2.9,2-4.6,4.3-4.6h2.7c0.1,0,0.3,0,0.3,0.2l-0.1,0.9c0,0.2-0.2,0.2-0.3,0.2c-0.4-0.1-0.7-0.2-1.1-0.3c-0.4-0.1-0.8-0.1-1.5-0.1
		c-1.7,0-2.6,1.3-2.6,3.7c0,2.9,1.4,3.9,3.2,3.9c0.8,0,1.7-0.5,1.7-0.9c0-0.1-0.2-2.5-0.2-2.5s0-0.3,0-0.4c0-0.2,0.1-0.3,0.3-0.3
		h1.1c0.1,0,0.2,0.1,0.2,0.2v4.4C-83.4,36.7-83.5,36.8-83.7,36.8"/>
	<path class="st0" d="M-210.6,46c-1.8,0-2.4-1.4-2.4-3c0-1.5,0.6-3,2.4-3c1.8,0,2.4,1.4,2.4,3C-208.2,44.5-208.8,46-210.6,46
		 M-210.6,40.4c-1.3,0-1.5,1.4-1.5,2.5c0,1.1,0.1,2.7,1.6,2.7c1.3,0,1.5-1.4,1.5-2.5C-209,42.1-209.2,40.4-210.6,40.4z"/>
	<path class="st0" d="M-203.7,45.8h-0.4c-0.1,0-0.1,0-0.1-0.1v-2.6c0-0.5-0.3-0.9-0.9-0.9c-0.4,0-1,0.3-1,0.7v2.7
		c0,0.1,0,0.1-0.1,0.1h-0.5c-0.1,0-0.1,0-0.1-0.1V42c0-0.1,0-0.1,0.1-0.1h0.2c0.1,0,0.1,0,0.2,0.1l0.1,0.3h0.1
		c0.3-0.4,0.8-0.5,1.2-0.5c0.8,0,1.3,0.5,1.3,1.5v2.4C-203.6,45.8-203.6,45.8-203.7,45.8"/>
	<path class="st0" d="M-199.8,42.3h-1.2V45c0,0.4,0.2,0.6,0.4,0.6h0.2c0.1,0,0.1,0,0.1,0.1v0.1c0,0.1,0,0.1-0.1,0.1h-0.4
		c-0.6,0-0.9-0.2-0.9-1.1v-2.4h-0.8l-0.1-0.1c0,0,0-0.2,0-0.3c0,0,0-0.1,0.1-0.1h0.8V41v-0.1l0.5-0.2c0.1,0,0.2,0,0.2,0.1v1.1h1.2
		c0,0,0.1,0,0.1,0.1L-199.8,42.3C-199.7,42.3-199.8,42.3-199.8,42.3"/>
	<path class="st0" d="M-196.1,45.8l-0.2-0.2c-0.1-0.1-0.2-0.1-0.3,0c-0.3,0.2-0.8,0.4-1.2,0.4c-0.7,0-1.2-0.4-1.2-1
		c0-0.4,0.2-0.8,0.7-1c0.4-0.2,0.9-0.2,1.3-0.4c0.3-0.1,0.5-0.2,0.5-0.5v-0.2c0-0.5-0.3-0.7-0.6-0.7c-0.4,0-0.9,0.1-1.2,0.3
		c-0.1,0-0.1,0-0.1-0.1V42c0-0.1,0.1-0.1,0.1-0.1h1.3c0.7,0,1.2,0.4,1.2,1.4v2.5C-195.9,45.9-196.1,45.8-196.1,45.8 M-196.6,43.9
		C-196.6,43.8-196.6,43.8-196.6,43.9c-0.1-0.1-1.2,0.3-1.3,0.3c-0.3,0.1-0.5,0.3-0.5,0.5c0,0.5,0.2,0.8,0.8,0.8
		c0.6,0,1.1-0.3,1.1-0.7v-0.9H-196.6z"/>
	<path class="st0" d="M-192,42.4c0,0.1-0.1,0.1-0.1,0.1c-0.2-0.1-0.3-0.2-0.7-0.2c-0.4,0-0.7,0.2-0.8,0.6v2.8c0,0.1,0,0.1-0.1,0.1
		h-0.4c-0.1,0-0.1,0-0.1-0.1V42c0-0.1,0-0.1,0.1-0.1h0.1c0.1,0,0.1,0,0.2,0.1l0.1,0.3h0.1c0.4-0.3,0.7-0.5,1-0.5h0.4
		c0.1,0,0.1,0,0.1,0.1L-192,42.4"/>
	<path class="st0" d="M-190.6,40.8c-0.2,0-0.4-0.2-0.4-0.4c0-0.3,0.3-0.5,0.5-0.5s0.4,0.2,0.4,0.4
		C-190.1,40.6-190.3,40.8-190.6,40.8 M-189.8,45.8h-0.2c-0.6,0-0.9-0.2-0.9-1.1V42c0-0.1,0-0.1,0.1-0.1h0.4c0.1,0,0.1,0,0.1,0.1v3
		c0,0.4,0.2,0.6,0.4,0.6C-189.8,45.6-189.8,45.6-189.8,45.8L-189.8,45.8C-189.7,45.8-189.7,45.8-189.8,45.8z"/>
	<path class="st0" d="M-186.9,45.9c-1,0-1.8-0.8-1.8-2.1s0.8-2.1,1.8-2.1s1.8,0.8,1.8,2.1S-185.9,45.9-186.9,45.9 M-186.9,42.1
		c-0.9,0-1.1,0.9-1.1,1.6s0.2,1.9,1.1,1.9c0.9,0,1.1-1,1.1-1.6C-185.8,43.2-186,42.1-186.9,42.1z"/>
	<path class="st0" d="M-64,31.8c0.2,0,0.3-0.1,0.1-0.3l-3.9-3.8c-0.2-0.2-0.5-0.2-0.7-0.2L-79.2,31c-0.2,0.1-0.2,0.1,0,0.1L-64,31.8
		"/>
	<path class="st0" d="M-79.8,16c-0.2-0.2-0.4-0.1-0.5,0.1l-4.4,8.5c-0.1,0.2-0.2,0.4-0.2,0.5s0.1,0.1,0.3-0.1l7.3-5.9
		c0.2-0.1,0.2-0.4,0-0.5L-79.8,16"/>
	<path class="st0" d="M-73.3,22.9c0.2-0.1,0.2-0.3,0.1-0.4l-3.1-3c-0.2-0.2-0.4-0.1-0.5,0l-4.8,6.4c-0.1,0.2-0.1,0.3,0.1,0.2
		L-73.3,22.9"/>
	<path class="st0" d="M-68.8,27.2c0.2,0,0.3-0.2,0.1-0.3l-3.5-3.4c-0.2-0.2-0.4-0.2-0.6-0.1l-7.5,5c-0.2,0.1-0.2,0.2,0.1,0.2
		L-68.8,27.2"/>
	<path class="st1" d="M-64,32.2c0.2,0,0.3,0.1,0.1,0.3l-3.9,3.8c-0.2,0.2-0.5,0.2-0.7,0.2L-79.2,33c-0.2-0.1-0.2-0.1,0-0.1L-64,32.2
		"/>
	<path class="st1" d="M-79.8,48c-0.2,0.2-0.4,0.1-0.5-0.1l-4.4-8.5c-0.1-0.2-0.2-0.4-0.2-0.5s0.1-0.1,0.3,0.1l7.3,5.9
		c0.2,0.1,0.2,0.4,0,0.5L-79.8,48"/>
	<path class="st1" d="M-73.3,41.1c0.2,0.1,0.2,0.3,0.1,0.4l-3.1,3c-0.2,0.2-0.4,0.1-0.5,0l-4.8-6.4c-0.1-0.2-0.1-0.3,0.1-0.2
		L-73.3,41.1"/>
	<path class="st1" d="M-68.8,36.9c0.2,0,0.3,0.2,0.1,0.3l-3.5,3.4c-0.2,0.2-0.4,0.2-0.6,0.1l-7.5-5c-0.2-0.1-0.2-0.2,0.1-0.2
		L-68.8,36.9"/>
</g>
<text transform="matrix(1 0 0 1 -166 43.667)" class="st2 st3">CLO_LOGO_MED_FR</text>
</svg>
