<?xml version="1.0" encoding="utf-8"?>
<!-- Generator: Adobe Illustrator 19.1.0, SVG Export Plug-In . SVG Version: 6.00 Build 0)  -->
<svg version="1.1" id="Layer_1" xmlns="http://www.w3.org/2000/svg" xmlns:xlink="http://www.w3.org/1999/xlink" x="0px" y="0px"
	 viewBox="0 -4 783 49" style="enable-background:new 0 -4 783 49;" xml:space="preserve">
<style type="text/css">
	.st0{fill:#82BC00;}
	.st1{fill:#E3EEC5;}
</style>
<g>
	<g>
		<g>
			<path class="st0" d="M37.2,19.2c-0.5,0.2-1,0.4-1.6,0.6c1.9-3,3.5-5.9,4.6-9.4C41.3,14,43,17,45,19.9c-0.6-0.3-1.2-0.5-1.7-0.8
				c0,0.1-0.1,0.1-0.1,0.2c1.1,2.2,2.1,4.4,3.3,6.8c-0.6-0.3-1.1-0.5-1.7-0.8c1,2.1,2,4,3,6.1c-0.6-0.2-1.1-0.4-1.6-0.6l-0.1,0.1
				c0.9,1.6,1.8,3.2,2.7,4.8c-5.9,1.8-11.7,1.8-17.6,0c0.9-1.7,1.8-3.3,2.8-5c-0.6,0.3-1.2,0.5-1.8,0.7c1-2,1.9-4,2.9-5.9l-0.1-0.1
				c-0.4,0.2-0.9,0.4-1.4,0.6c0.6-1.3,1.2-2.4,1.7-3.6c0.5-0.9,0.9-1.9,1.4-2.8C37.1,19.5,37.1,19.3,37.2,19.2L37.2,19.2
				C37.2,19.1,37.2,19.1,37.2,19.2C37.2,19.1,37.2,19.1,37.2,19.2z"/>
			<path class="st0" d="M42.5,41.8c-1.6,0-3.2,0-4.9,0c0.3-0.6,0.8-1.1,1-1.7c0.2-0.6,0.2-1.4,0.3-2.1c0.6,0,1.2,0,1.9,0
				c0.1,0,0.2,0.1,0.3,0.3C41.5,39.4,42,40.6,42.5,41.8z"/>
		</g>
		<g>
			<path class="st0" d="M28.6,25.5c-0.4,0.1-0.9,0.3-1.4,0.5c1.6-2.1,3.1-4.2,4-6.8c1,2.6,2.4,4.7,4.2,6.9c-0.6-0.2-1-0.4-1.5-0.5
				l-0.1,0.1c0.9,1.5,1.9,3.1,2.9,4.8c-0.5-0.2-0.9-0.4-1.5-0.6c0.9,1.5,1.8,2.9,2.6,4.4c-0.5-0.2-0.9-0.3-1.4-0.4L36.4,34
				c0.8,1.1,1.6,2.3,2.4,3.5c-5.1,1.3-10.2,1.3-15.3,0c0.8-1.2,1.6-2.4,2.5-3.6c-0.6,0.2-1,0.3-1.6,0.5c0.9-1.5,1.7-2.8,2.5-4.2
				l-0.1-0.1c-0.4,0.1-0.8,0.3-1.2,0.5c0.5-0.9,1-1.8,1.5-2.6c0.4-0.7,0.8-1.4,1.2-2C28.5,25.7,28.5,25.6,28.6,25.5L28.6,25.5
				C28.6,25.5,28.6,25.4,28.6,25.5L28.6,25.5z"/>
			<path class="st0" d="M33.3,41.8c-1.4,0-2.8,0-4.3,0c0.3-0.4,0.7-0.8,0.9-1.3c0.2-0.4,0.2-1,0.2-1.5c0.5,0,1.1,0,1.6,0
				c0.1,0,0.2,0.1,0.2,0.2C32.4,40,32.8,40.9,33.3,41.8z"/>
		</g>
		<g>
			<g>
				<path class="st0" d="M185.8,42.6c-0.9,0-1.6,0-2.4,0c0-0.4,0-0.7,0-1c0-3.9,0-7.8,0-11.7c0-0.7-0.6-1.5-1.1-1.3
					c-0.6,0.2-1,0.5-1,1.3c0.1,3.9,0,7.8,0,11.7c0,0.3,0,0.7,0,1c-0.9,0-1.7,0-2.6,0c0-4.2,0-8.4,0-12.7c-1.1-0.1-2-0.2-3-0.3
					c0,2,0,4,0,6.1c-0.8,0-1.6,0-2.5,0c0-2,0-4.1,0-6.2c-8,2.3-12.1-4.1-11.1-8.9c-2.4-1.1-4.2-2.7-5-5.4c-1-3.5,0.6-7.6,3.8-9.2
					c0.8-0.4,1.2-0.7,1.1-1.7c-0.2-4.4,3.3-8.2,7.9-8.2c1.8,0,3.4,0.4,4.8,1.4c0.4,0.3,0.7,0.3,1.2-0.1c2.7-2,7.4-1.9,10,0.6
					c1.1,1,1.8,2.2,2.4,3.6c0.1,0.3,0.4,0.6,0.7,0.7c2.5,0.8,4.5,3.5,4.4,6.3c0,0.8,0.3,1.1,0.9,1.5c1.9,1.2,3,2.8,3.2,5.2
					c0.2,3-1.2,5.1-3.7,6.6c-0.3,0.2-0.4,0.7-0.4,1.1c-0.1,1.9-0.6,3.5-2,4.8c-1.2,1.2-2.7,1.9-4.4,1.8c-0.3,0-0.6,0-1,0
					C185.8,34.1,185.8,38.3,185.8,42.6z M190.6,8.8c-0.1-1.7-1.1-3.2-2.6-3.8c-1.7-0.7-3.1-0.3-4.4,0.9c-1.2,1.1-1.5,1.2-2.7,0
					c-0.7-0.7-1.6-1.2-2.7-1.2c-2.6,0-4.9,2.2-4.1,5.3c0.3,1.2,0,1.8-1.2,2.1c-1.6,0.3-3.1,2.2-3.2,3.9c-0.1,1.8,1.4,3.7,3.2,4.1
					c1.2,0.3,1.5,0.8,1.2,2c-0.1,0.6-0.2,1.3-0.1,1.9c0.2,1.7,1.2,2.7,2.7,3.3c1.5,0.6,2.9,0.1,4.1-0.9c1.3-1.2,1.7-1.2,2.9,0
					c1.3,1.3,3.2,1.5,4.7,0.6c1.8-1.1,2.6-2.9,2-4.7c-0.4-1.4-0.2-1.8,1.3-2.2c2.2-0.6,3.6-3.2,2.8-5.2c-0.6-1.4-1.5-2.5-3.1-2.8
					c-1.1-0.2-1.5-0.9-1.1-2C190.5,9.6,190.5,9.2,190.6,8.8z M185.4,2c-0.3-0.5-0.7-1-1-1.6c-0.1-0.1-0.2-0.2-0.3-0.3
					c-2.4-2-5.4-2-7.8,0.3c-0.9,0.9-1.7,0.8-2.6-0.1c-1.3-1.4-2.9-2-4.8-1.6c-3.2,0.7-5.3,3.8-4.2,7.2c0.3,1,0,1.6-1.1,1.8
					c-2.6,0.7-4.4,2.7-4.4,5.5c0,2.4,1.8,4.5,4.4,5.2c1.2,0.3,1.4,0.8,1,1.9c-0.8,2.5,0.2,5.1,2.5,6.4c1.7,1,3.7,1.1,4.8,0.2
					c-0.2-1.4-0.4-2.7-0.7-4c-0.1-0.4-0.3-0.8-0.5-1c-1.1-0.6-2-1.4-2.7-2.5c-2-3.2-0.7-7.7,2.4-9.3c0.7-0.3,0.9-0.7,0.8-1.4
					c-0.1-1.3,0.3-2.5,1-3.6c2.1-3.2,6.4-4,9.5-2c0.2,0.1,0.6,0.2,0.8,0.1C183.4,2.9,184.3,2.4,185.4,2z"/>
				<path class="st0" d="M174,39.3c0,1.2,0,2.2,0,3.3c-0.9,0-1.7,0-2.6,0c0-0.9,0-1.8,0-2.7c0-0.5-0.1-0.7-0.7-0.8
					c-2.6-0.4-5.1-1.4-7.1-3.2c-3.2-2.9-6.3-6-9.4-9c-0.2-0.2-0.5-0.5-0.8-0.8c0,5.6,0,11,0,16.5c-0.8,0-1.6,0-2.4,0
					c0-2.6,0-5.2,0-7.9c-3.4,0-6.7,0-10.1,0c0,2.6,0,5.2,0,7.9c-0.9,0-1.7,0-2.6,0c0-0.3,0-0.6,0-1c0-9.2,0-18.4,0-27.6
					c0-1.9,0.4-2.2,2.3-2.2c3.6,0,7.3,0,10.9,0c1.7,0,2,0.3,2,2c0,2.7,0,5.3,0,8c0,0.4,0.2,0.8,0.5,1.1c3.1,3.1,6.3,6.3,9.5,9.4
					c2.2,2.1,4.6,3.8,7.8,4.3c1.6,0.2,3.2,0.2,4.8,0.3c1.1,0.1,1.7,1,1.1,1.9c-0.2,0.3-0.6,0.5-0.9,0.5
					C175.4,39.4,174.8,39.3,174,39.3z M140.9,24.7c0,2.6,0,5.1,0,7.5c3.4,0,6.7,0,10,0c0-2.5,0-5,0-7.5c-0.2,0-0.3,0-0.5,0
					C147.2,24.7,144.1,24.7,140.9,24.7z M148.9,22.2c0-1.3,0.1-2.5,0-3.7c-0.1-1.4-1.4-2.5-2.7-2.6c-1.7-0.2-3,1.2-3.1,2.3
					c-0.2,1.3,0,2.7,0,4.1c0.5,0,0.8,0,1.1,0C145.6,22.2,147.2,22.2,148.9,22.2z"/>
				<path class="st0" d="M123.3,34.6c0-5.1,0-10.3,0-15.4c-2.3,0-4.5,0-7.1,0c0,5.1,0,10.3,0,15.5c0.9,0,1.3,0.4,1.4,1.1
					c0.1,0.7-0.3,1.1-0.9,1.4c-3.2,1.4-6.4,1.4-9.6-0.1c-0.4-0.2-0.8-0.9-0.8-1.4c0-0.4,0.6-0.8,1-1.2c0.1,0.1,0.2,0.1,0.3,0.2
					c0-5.2,0-10.3,0-15.5c-0.9,0-1.6,0-2.5,0c0,7.8,0,15.6,0,23.5c-0.9,0-1.6,0-2.5,0c0-0.3,0-0.6,0-0.9c0-7.9,0-15.8,0-23.7
					c0-1.2,0.3-1.5,1.5-1.5c10.3,0,20.7,0,31.1,0c1.2,0,1.7,0.5,1.7,1.7c0,7.8,0,15.7,0,23.5c0,0.3,0,0.6,0,1c-0.9,0-1.7,0-2.6,0
					c0-7.8,0-15.6,0-23.5c-0.9,0-1.6,0-2.5,0c0,5.2,0,10.3,0,15.5c0.1-0.1,0.2-0.1,0.3-0.2c0.3,0.4,0.8,0.7,1,1.2
					c0.3,0.8-0.2,1.3-0.9,1.6c-2.9,1.2-5.9,1.2-8.9,0.2c-0.5-0.2-1.1-0.6-1.4-1.1C121.6,35.5,122.1,34.8,123.3,34.6z M108.8,19.1
					c0,0.5,0.2,1,0.1,1.4c-0.3,0.7,0,1.4,0,2.2c0,0.8-0.2,1.7,0,2.5c0.1,0.5-0.3,1.1-0.3,1.6c0,0.9,0.1,1.8,0.2,2.7
					c0,0.5,0.1,1.1,0.1,1.6c0,0.6-0.1,1.2-0.1,1.9c0,0.7,0,1.3,0,2.1c1.7,0.8,4.7,0.8,6.2-0.1c0-5.3,0-10.6,0-15.9
					C112.8,19.1,111,19.1,108.8,19.1z M130.7,19.1c-2.1,0-4.1,0-6.3,0c0,5.3,0,10.6,0,15.9c2,0.8,4.2,0.8,6.3,0
					C130.7,29.7,130.7,24.4,130.7,19.1z"/>
				<path class="st0" d="M145.9,10.9c-2,0-4,0-6,0c-0.5,0-1.2-0.3-1.4-0.7c-0.3-0.6-0.2-1.2,0.4-1.8c1.9-1.8,3.7-3.7,5.6-5.6
					c0.9-0.9,1.7-0.9,2.6,0c1.8,1.8,3.7,3.7,5.5,5.5c0.6,0.6,0.9,1.3,0.5,1.9c-0.2,0.4-1,0.6-1.5,0.7
					C149.8,11,147.8,10.9,145.9,10.9z M146,5.4c-1,1-1.9,1.9-2.8,2.8c1.8,0,3.7,0,5.6,0C147.8,7.3,146.9,6.3,146,5.4z"/>
				<path class="st1" d="M190.6,8.8c-0.1,0.4-0.1,0.8-0.3,1.2c-0.4,1.1,0.1,1.8,1.1,2c1.6,0.3,2.6,1.3,3.1,2.8
					c0.8,2-0.7,4.7-2.8,5.2c-1.5,0.4-1.8,0.8-1.3,2.2c0.5,1.7-0.3,3.6-2,4.7c-1.5,0.9-3.4,0.7-4.7-0.6c-1.2-1.2-1.6-1.2-2.9,0
					c-1.2,1.1-2.6,1.5-4.1,0.9s-2.5-1.6-2.7-3.3c-0.1-0.6,0-1.3,0.1-1.9c0.2-1.2-0.1-1.7-1.2-2c-1.8-0.4-3.3-2.3-3.2-4.1
					c0-1.6,1.6-3.6,3.2-3.9c1.2-0.2,1.5-0.8,1.2-2.1c-0.8-3.1,1.5-5.4,4.1-5.3c1,0,1.9,0.5,2.7,1.2c1.2,1.2,1.5,1.1,2.7,0
					c1.3-1.2,2.8-1.6,4.4-0.9C189.6,5.6,190.6,7.1,190.6,8.8z"/>
				<path class="st1" d="M185.4,2c-1,0.5-1.9,0.9-2.8,1.3c-0.2,0.1-0.6,0-0.8-0.1c-3.1-2-7.5-1.2-9.5,2c-0.7,1.1-1.1,2.3-1,3.6
					c0.1,0.7-0.2,1.1-0.8,1.4c-3.1,1.5-4.5,6-2.4,9.3c0.7,1.1,1.6,1.9,2.7,2.5c0.3,0.2,0.5,0.6,0.5,1c0.3,1.3,0.4,2.6,0.7,4
					c-1.1,0.9-3.1,0.8-4.8-0.2c-2.2-1.3-3.2-3.9-2.5-6.4c0.4-1.2,0.1-1.6-1-1.9c-2.6-0.7-4.4-2.8-4.4-5.2c0-2.9,1.7-4.8,4.4-5.5
					c1.1-0.3,1.5-0.8,1.1-1.8c-1.1-3.4,0.9-6.5,4.2-7.2c1.9-0.4,3.5,0.3,4.8,1.6c0.9,0.9,1.7,1,2.6,0.1c2.3-2.3,5.3-2.3,7.8-0.3
					c0.1,0.1,0.2,0.2,0.3,0.3C184.6,0.9,185,1.5,185.4,2z"/>
				<path class="st1" d="M148.9,22.2c-1.7,0-3.2,0-4.8,0c-0.3,0-0.7,0-1.1,0c0-1.4-0.1-2.7,0-4.1c0.1-1,1.4-2.4,3.1-2.3
					c1.4,0.1,2.6,1.3,2.7,2.6C148.9,19.7,148.9,20.9,148.9,22.2z"/>
				<path class="st1" d="M146,5.4c0.8,0.9,1.8,1.8,2.7,2.8c-1.9,0-3.8,0-5.6,0C144.1,7.4,145,6.4,146,5.4z"/>
			</g>
		</g>
		<g>
			<path class="st0" d="M271.7,42.1c-0.5-0.1-0.9-0.2-1.3-0.4c-1.1-0.6-1.8-1.5-1.9-2.7c0-0.3,0-0.6,0-1c0-0.1,0-0.1-0.1-0.2
				c-0.3-0.2-0.7-0.5-1.1-0.7l0,0c0,0.3,0,0.6,0,0.9c0,0.7,0.1,1.5,0.1,2.2c0,0.2-0.1,0.3-0.2,0.3c-0.2,0-0.3-0.1-0.3-0.2
				c-0.1-0.3-0.1-0.6-0.2-1c-0.2-1.2-0.4-2.3-0.6-3.5c0,0,0-0.1-0.1-0.1c-0.5-0.6-0.8-1.2-1.1-1.9c-0.3,0.6-0.5,1.2-0.8,1.8
				c0.2,0.2,0.4,0.4,0.6,0.7c1.7,2.2,0.4,5.3-2.3,5.7c-2,0.3-3.8-1.1-4.1-3c0-0.1,0-0.3-0.1-0.4c0-0.1,0-0.1,0-0.2v-0.1
				c0-0.9,0.4-1.6,1-2.2c1-1,2.1-1.3,3.5-1c0.2,0,0.4,0.1,0.7,0.2c0.2-0.5,0.5-1.1,0.7-1.7c0.2-0.4,0.3-0.9,0.4-1.3
				c0.1-0.2,0.2-0.3,0.4-0.4c0.8-0.1,1.5-0.3,2.3-0.4c0.2,0,0.3-0.1,0.4-0.2c0.6-0.6,1.1-1.2,1.7-1.9c0.3-0.3,0.7-0.5,1.2-0.3
				c0.4,0.1,0.6,0.5,0.6,1c0,1.1,0,2.2,0,3.3c0,0.4-0.2,0.7-0.5,0.9c-1,0.6-2.1,1.3-3.1,1.9c0,0-0.1,0-0.1,0.1
				c0.4,0.3,0.9,0.7,1.3,1c0.1-0.1,0.1-0.3,0.2-0.4c0.7-1.1,1.7-1.8,3-1.8c0.8,0,1.5,0.2,2.2,0.6c1.2,0.9,1.7,2,1.5,3.5
				c-0.2,1.3-0.9,2.3-2.2,2.8c-0.3,0.1-0.7,0.2-1,0.3C272.1,42.1,271.9,42.1,271.7,42.1z M262.3,38.5c-0.1,0.1-0.2,0.2-0.3,0.3
				c-0.2,0.2-0.4,0.2-0.6,0.1c-0.2-0.1-0.2-0.4,0-0.6c0.5-0.7,1-1.4,1.4-2.1c0,0,0-0.1,0.1-0.1c-1.3-0.6-2.9,0-3.6,1.2
				c-0.7,1.3-0.2,2.9,1.1,3.7c1.2,0.7,2.9,0.3,3.7-0.9c0.8-1.2,0.5-2.8-0.5-3.6C263.2,37.1,262.7,37.8,262.3,38.5z M271.4,41.3
				c1.5,0.3,2.9-0.6,3.3-2.1c0.3-1.4-0.6-2.9-1.9-3.3c-1.5-0.4-2.9,0.5-3.4,1.7c0.3,0.1,0.5,0.2,0.8,0.3c0.6,0.2,1.2,0.3,1.8,0.4
				c0.3,0,0.5,0.2,0.4,0.4c0,0.2-0.2,0.4-0.5,0.4c-0.9-0.1-1.8-0.3-2.6-0.6h-0.1C269.1,39.6,269.9,41,271.4,41.3z M267.6,32.4
				c-0.1,0-0.1,0.1-0.2,0.1c-0.6,0-1.3,0-1.9,0c-0.1,0-0.1,0-0.2,0c0.2,1,0.6,1.9,1.1,2.7c0.4-0.3,0.7-0.6,1.1-0.9
				c0.5-0.4,0.9-0.8,1.4-1.2c0,0,0.1-0.1,0.1-0.2c0-0.5,0-0.9,0-1.4c0,0,0,0,0-0.1C268.5,31.8,268.1,32.1,267.6,32.4z"/>
			<path class="st0" d="M268.9,25.6c-0.4,0.1-0.8,0.3-1,0.7c-0.4,0.6-0.4,1.4,0,2c0.5,0.6,1.3,0.8,2,0.4c0.6-0.3,1-1,0.9-1.6
				c-0.1-0.7-0.6-1.3-1.3-1.4c0,0,0,0-0.1,0C269.2,25.6,269,25.6,268.9,25.6z"/>
			<path class="st0" d="M261.9,32c-0.4,0-0.7,0-1.1,0c-0.4,0-0.5,0.2-0.4,0.6c0.1,0.5,0.2,1.1,0.3,1.6c0,0.2,0.2,0.4,0.4,0.4
				c0.5,0,1,0,1.5,0c0.2,0,0.4-0.1,0.4-0.3c0.2-0.6,0.3-1.2,0.4-1.7c0.1-0.3-0.1-0.5-0.4-0.5C262.6,32,262.2,32,261.9,32L261.9,32z"
				/>
		</g>
		<g>
			<g>
				<path class="st0" d="M94.2,30.8C94.2,30.7,94.2,30.7,94.2,30.8c0.1-0.5,0.3-0.9,0.7-1.2c0.3-0.2,0.6-0.3,1-0.3c1,0,2,0,2.9,0
					c0.6,0,1.1,0.3,1.5,0.8c0.2,0.3,0.2,0.5,0.2,0.8c0,1.2,0,2.3,0,3.5c0,0.2,0,0.3,0,0.5c0,0.3-0.2,0.5-0.5,0.6s-0.6-0.1-0.7-0.4
					c0-0.1,0-0.1,0-0.2c0-1.2,0-2.3,0-3.5c0,0,0,0,0-0.1c0,0-0.2,0-0.3,0l0,0c0,0,0,0,0,0.1c0,3.3,0,6.6,0,9.9
					c0,0.3-0.1,0.5-0.3,0.6C98.6,42,98.5,42,98.4,42l0,0c-0.1,0-0.2,0-0.2,0l0,0c-0.1,0-0.3-0.1-0.4-0.2c-0.2-0.2-0.2-0.3-0.2-0.6
					c0-1.6,0-3.2,0-4.9c0-0.3,0-0.6,0-0.9c0,0,0,0,0-0.1c-0.1,0-0.2,0-0.3,0v0.1c0,1.9,0,3.8,0,5.7v0.1c0,0.3-0.3,0.6-0.6,0.6h-0.1
					c-0.1,0-0.1,0-0.2,0l0,0c-0.2,0-0.3-0.1-0.4-0.2c-0.1-0.1-0.2-0.3-0.2-0.5c0-3.3,0-6.6,0-9.9c0,0,0,0,0-0.1l0,0
					c-0.1,0-0.3,0-0.3,0s0,0,0,0.1c0,0.7,0,1.3,0,2c0,0.5,0,1,0,1.5c0,0.1,0,0.1,0,0.2c-0.1,0.2-0.3,0.4-0.5,0.4
					c-0.3,0-0.5-0.2-0.6-0.4l0,0C94.2,33.6,94.2,32.2,94.2,30.8z"/>
				<path class="st0" d="M97.5,25.7c0.1,0,0.1,0,0.2,0c0.6,0.2,1.1,0.5,1.3,1.2s-0.1,1.4-0.7,1.8c-0.8,0.5-1.8,0.3-2.3-0.5
					c-0.5-0.7-0.2-1.7,0.5-2.2c0.2-0.1,0.5-0.2,0.7-0.3c0,0,0,0,0.1,0C97.3,25.7,97.4,25.7,97.5,25.7z"/>
			</g>
			<g>
				<path class="st0" d="M84.2,30.8C84.2,30.7,84.2,30.7,84.2,30.8c0.1-0.5,0.3-0.9,0.7-1.2c0.3-0.2,0.6-0.3,1-0.3c1,0,2,0,2.9,0
					c0.6,0,1.1,0.3,1.5,0.8c0.2,0.3,0.2,0.5,0.2,0.8c0,1.2,0,2.3,0,3.5c0,0.2,0,0.3,0,0.5c0,0.3-0.2,0.5-0.5,0.6
					c-0.3,0.1-0.6-0.1-0.7-0.4c0-0.1,0-0.1,0-0.2c0-1.2,0-2.3,0-3.5c0,0,0,0,0-0.1c0,0-0.2,0-0.3,0l0,0c0,0,0,0,0,0.1
					c0,3.3,0,6.6,0,9.9c0,0.3-0.1,0.5-0.3,0.6C88.6,42,88.5,42,88.4,42l0,0c-0.1,0-0.2,0-0.2,0l0,0c-0.1,0-0.3-0.1-0.4-0.2
					c-0.2-0.2-0.2-0.3-0.2-0.6c0-1.6,0-3.2,0-4.9c0-0.3,0-0.6,0-0.9c0,0,0,0,0-0.1c-0.1,0-0.2,0-0.3,0v0.1c0,1.9,0,3.8,0,5.7v0.1
					c0,0.3-0.3,0.6-0.6,0.6h-0.1c-0.1,0-0.1,0-0.2,0l0,0c-0.2,0-0.3-0.1-0.4-0.2c-0.1-0.1-0.2-0.3-0.2-0.5c0-3.3,0-6.6,0-9.9
					c0,0,0,0,0-0.1l0,0c-0.1,0-0.3,0-0.3,0s0,0,0,0.1c0,0.7,0,1.3,0,2c0,0.5,0,1,0,1.5c0,0.1,0,0.1,0,0.2c-0.1,0.2-0.3,0.4-0.5,0.4
					c-0.3,0-0.5-0.2-0.6-0.4l0,0C84.2,33.6,84.2,32.2,84.2,30.8z"/>
				<path class="st0" d="M87.5,25.7c0.1,0,0.1,0,0.2,0c0.6,0.2,1.1,0.5,1.3,1.2c0.2,0.7-0.1,1.4-0.7,1.8c-0.8,0.5-1.8,0.3-2.3-0.5
					c-0.5-0.7-0.2-1.7,0.5-2.2c0.2-0.1,0.5-0.2,0.7-0.3c0,0,0,0,0.1,0C87.3,25.7,87.4,25.7,87.5,25.7z"/>
			</g>
			<g>
				<path class="st0" d="M91.2,42C91,41.8,91,41.6,91,41.4c0-0.5,0-1,0-1.4s0-0.9,0-1.3c0,0,0,0,0-0.1c-0.1,0-0.2,0-0.3,0
					c-0.4-0.1-0.7-0.4-0.7-0.8c0-0.9,0-1.8,0-2.7c0-0.5,0.4-0.9,0.9-0.9c0.9,0,1.8,0,2.7,0c0.5,0,0.9,0.4,0.9,0.8c0,0.9,0,1.8,0,2.7
					c0,0.4-0.3,0.8-0.8,0.8c-0.1,0-0.1,0-0.2,0c0,0.2,0,0.3,0,0.5c0,0.8,0,1.7,0,2.5c0,0.2-0.1,0.3-0.2,0.4c-0.2,0-0.5,0-0.7,0
					c-0.1-0.1-0.2-0.3-0.2-0.5c0-1,0-1.9,0-2.9v-0.1c-0.1,0-0.2,0-0.3,0c0,0.1,0,0.1,0,0.2c0,0.9,0,1.8,0,2.8c0,0.2-0.1,0.4-0.2,0.5
					C91.7,42,91.4,42,91.2,42z"/>
				<path class="st0" d="M90.9,32.3c0-0.8,0.7-1.5,1.5-1.5s1.5,0.7,1.4,1.5c0,0.8-0.7,1.4-1.5,1.4C91.5,33.8,90.9,33.1,90.9,32.3z"
					/>
			</g>
		</g>
		<g>
			<path class="st0" d="M197.1,41.8C197,41.8,197,41.8,197.1,41.8c-0.3-0.1-0.5-0.2-0.6-0.5c0-0.1,0-0.1,0-0.2c0-0.7,0-1.3,0-2
				c0-0.8,0-1.5,0-2.3c0,0,0,0,0-0.1c-0.6,0-1.1,0-1.7,0c0.6-2,1.2-4,1.8-6c-0.1,0-0.1,0-0.1,0h-0.1c0,0,0,0,0,0.1
				c-0.3,0.9-0.6,1.8-0.8,2.8c-0.1,0.2-0.1,0.4-0.2,0.6c-0.1,0.3-0.3,0.4-0.6,0.4c-0.1,0-0.3-0.1-0.4-0.1c-0.2-0.1-0.2-0.3-0.2-0.5
				c0-0.2,0.1-0.3,0.1-0.5c0.3-1,0.6-2.1,0.9-3.1c0.1-0.3,0.2-0.6,0.4-0.8c0.3-0.3,0.6-0.5,1-0.6c0.1,0,0.1,0,0.2,0c0.7,0,1.3,0,2,0
				c0.6,0,1.1,0.3,1.5,0.8c0.1,0.2,0.2,0.4,0.2,0.6c0.3,1.2,0.7,2.3,1,3.5V34c0,0.1,0,0.2,0,0.2l0,0c0,0.1-0.1,0.2-0.2,0.3
				c-0.1,0.1-0.3,0.2-0.5,0.1c-0.2,0-0.4-0.2-0.4-0.4c-0.3-1.1-0.7-2.2-1-3.4c0,0,0,0,0-0.1c-0.1,0-0.2,0-0.3,0c0.6,2,1.2,4,1.8,6
				c-0.1,0-0.3,0-0.4,0c-0.1,0-0.3,0-0.4,0c-0.1,0-0.3,0-0.4,0s-0.3,0-0.4,0v0.1c0,1,0,2,0,3c0,0.4,0,0.9,0,1.3c0,0.1,0,0.1,0,0.2
				c-0.1,0.2-0.2,0.4-0.5,0.4h-0.1h-0.1l0,0c-0.3,0-0.6-0.3-0.6-0.7c0-0.8,0-1.6,0-2.3c0-0.6,0-1.3,0-1.9c0,0,0,0,0-0.1
				c-0.1,0-0.2,0-0.3,0c0,0,0,0,0,0.1c0,1.4,0,2.8,0,4.2c0,0.1,0,0.1,0,0.2c-0.1,0.3-0.3,0.4-0.5,0.5l0,0
				C197.2,41.8,197.1,41.8,197.1,41.8z"/>
			<path class="st0" d="M198,25.6c0.1,0,0.1,0,0.2,0c0.5,0.1,1,0.4,1.2,0.9c0.3,0.6,0.2,1.3-0.3,1.8c-0.4,0.4-0.9,0.6-1.4,0.5
				c-0.5,0-0.9-0.3-1.2-0.7c-0.2-0.3-0.3-0.6-0.3-1c0-0.6,0.3-1,0.8-1.3c0.2-0.1,0.5-0.2,0.7-0.2c0,0,0,0,0.1,0
				C197.9,25.6,198,25.6,198,25.6z"/>
			<g>
				<path class="st0" d="M192.2,41.8c-0.2-0.2-0.2-0.4-0.2-0.6c0-0.5,0-1,0-1.4s0-0.9,0-1.3c0,0,0,0,0-0.1c-0.1,0-0.2,0-0.3,0
					c-0.4-0.1-0.7-0.4-0.7-0.8c0-0.9,0-1.8,0-2.7c0-0.5,0.4-0.9,0.9-0.9c0.9,0,1.8,0,2.7,0c0.5,0,0.8,0.4,0.8,0.8c0,0.9,0,1.8,0,2.7
					c0,0.4-0.3,0.8-0.8,0.8c-0.1,0-0.1,0-0.2,0c0,0.2,0,0.3,0,0.5c0,0.8,0,1.7,0,2.5c0,0.2-0.1,0.3-0.2,0.4c-0.2,0-0.4,0-0.7,0
					c-0.1-0.1-0.2-0.3-0.2-0.5c0-0.9,0-1.9,0-2.8v-0.1c-0.1,0-0.2,0-0.3,0c0,0.1,0,0.1,0,0.2c0,0.9,0,1.8,0,2.7
					c0,0.2-0.1,0.4-0.2,0.5C192.6,41.8,192.4,41.8,192.2,41.8z"/>
				<path class="st0" d="M191.8,32.2c0-0.8,0.6-1.4,1.4-1.4c0.8,0,1.4,0.7,1.4,1.5s-0.6,1.4-1.5,1.4C192.5,33.6,191.8,33,191.8,32.2
					z"/>
			</g>
		</g>
		<g>
			<g>
				<path class="st0" d="M2,30.6C2,30.5,2,30.5,2,30.6c0.1-0.5,0.3-0.9,0.7-1.2c0.3-0.2,0.6-0.3,1-0.3c1,0,2,0,2.9,0
					c0.6,0,1.1,0.3,1.5,0.8c0.2,0.3,0.2,0.5,0.2,0.8c0,1.2,0,2.3,0,3.5c0,0.2,0,0.3,0,0.5c0,0.3-0.2,0.5-0.5,0.6s-0.6-0.1-0.7-0.4
					c0-0.1,0-0.1,0-0.2c0-1.2,0-2.3,0-3.5c0,0,0,0,0-0.1c0,0-0.2,0-0.3,0l0,0c0,0,0,0,0,0.1c0,3.3,0,6.6,0,9.8
					c0,0.3-0.1,0.5-0.3,0.6c-0.1,0.1-0.2,0.1-0.3,0.1l0,0c-0.1,0-0.2,0-0.2,0l0,0c-0.1,0-0.3-0.1-0.4-0.2c-0.2-0.2-0.2-0.3-0.2-0.6
					c0-1.6,0-3.2,0-4.8c0-0.3,0-0.6,0-0.8c0,0,0,0,0-0.1c-0.1,0-0.2,0-0.3,0v0.1c0,1.9,0,3.8,0,5.7v0.1c0,0.3-0.3,0.6-0.6,0.6
					c0,0,0,0-0.1,0c-0.1,0-0.1,0-0.2,0l0,0c-0.2,0-0.3-0.1-0.4-0.2c-0.3-0.1-0.4-0.3-0.4-0.5c0-3.3,0-6.6,0-9.8c0,0,0,0,0-0.1l0,0
					c-0.1,0-0.3,0-0.3,0s0,0,0,0.1c0,0.7,0,1.3,0,2c0,0.5,0,1,0,1.5c0,0.1,0,0.1,0,0.2C3,35,2.8,35.2,2.6,35.2
					c-0.3,0-0.5-0.2-0.6-0.4l0,0C2,33.3,2,31.9,2,30.6z"/>
				<path class="st0" d="M5.3,25.6c0.1,0,0.1,0,0.2,0c0.6,0.2,1.1,0.5,1.2,1.2c0.2,0.7-0.1,1.4-0.7,1.8c-0.8,0.5-1.8,0.3-2.3-0.5
					c-0.4-0.9-0.2-1.8,0.5-2.3c0.2-0.1,0.5-0.2,0.7-0.3c0,0,0,0,0.1,0C5.1,25.6,5.2,25.6,5.3,25.6z"/>
			</g>
			<path class="st0" d="M14.7,41.7C14.6,41.7,14.6,41.7,14.7,41.7c-0.3-0.1-0.5-0.2-0.6-0.5c0-0.1,0-0.1,0-0.2c0-0.7,0-1.3,0-2
				c0-0.8,0-1.5,0-2.3c0,0,0,0,0-0.1c-0.6,0-1.1,0-1.7,0c0.6-2,1.2-4,1.8-6c-0.1,0-0.1,0-0.1,0H14c0,0,0,0,0,0.1
				c-0.3,0.9-0.6,1.8-0.8,2.8c-0.1,0.2-0.1,0.4-0.2,0.6c-0.1,0.3-0.3,0.4-0.6,0.4c-0.1,0-0.3-0.1-0.4-0.1c-0.2-0.1-0.2-0.3-0.2-0.5
				c0-0.2,0.1-0.3,0.1-0.5c0.3-1,0.6-2.1,0.9-3.1c0.1-0.3,0.2-0.6,0.4-0.8c0.3-0.3,0.6-0.5,1-0.6c0.1,0,0.1,0,0.2,0c0.7,0,1.3,0,2,0
				c0.6,0,1.1,0.3,1.5,0.8c0.1,0.2,0.2,0.4,0.2,0.6c0.3,1.2,0.7,2.3,1,3.5v0.1c0,0.1,0,0.2,0,0.2l0,0c0,0.1-0.1,0.2-0.2,0.3
				c-0.1,0.1-0.3,0.2-0.5,0.1c-0.2,0-0.4-0.2-0.4-0.4c-0.3-1.1-0.7-2.2-1-3.4c0,0,0,0,0-0.1c-0.1,0-0.2,0-0.3,0c0.6,2,1.2,4,1.8,6
				c-0.1,0-0.3,0-0.4,0c-0.1,0-0.3,0-0.4,0c-0.1,0-0.3,0-0.4,0s-0.3,0-0.4,0v0.1c0,1,0,2,0,3c0,0.4,0,0.9,0,1.3c0,0.1,0,0.1,0,0.2
				c-0.1,0.2-0.2,0.4-0.5,0.4h-0.1h-0.1l0,0c-0.3,0-0.6-0.3-0.6-0.7c0-0.8,0-1.6,0-2.3c0-0.6,0-1.3,0-1.9c0,0,0,0,0-0.1
				c-0.1,0-0.2,0-0.3,0c0,0,0,0,0,0.1c0,1.4,0,2.8,0,4.3c0,0.1,0,0.1,0,0.2c-0.1,0.3-0.3,0.4-0.5,0.5l0,0
				C14.7,41.7,14.7,41.7,14.7,41.7z"/>
			<path class="st0" d="M15.6,25.4c0.1,0,0.1,0,0.2,0c0.6,0.1,1,0.4,1.2,0.9c0.3,0.6,0.2,1.3-0.3,1.8c-0.4,0.4-0.9,0.6-1.4,0.5
				c-0.5,0-0.9-0.3-1.2-0.7c-0.2-0.3-0.3-0.6-0.3-1c0-0.6,0.3-1,0.8-1.3c0.2-0.1,0.5-0.2,0.7-0.2c0,0,0,0,0.1,0
				C15.5,25.4,15.5,25.4,15.6,25.4z"/>
			<g>
				<path class="st0" d="M9.1,41.8c-0.2-0.2-0.2-0.4-0.2-0.6c0-0.5,0-1,0-1.4s0-0.9,0-1.3c0,0,0,0,0-0.1c-0.1,0-0.2,0-0.3,0
					c-0.4-0.1-0.7-0.4-0.7-0.8c0-0.9,0-1.8,0-2.7c0-0.5,0.4-0.9,0.9-0.9c0.9,0,1.8,0,2.7,0c0.5,0,0.8,0.4,0.8,0.8c0,0.9,0,1.8,0,2.7
					c0,0.4-0.3,0.8-0.8,0.8c-0.1,0-0.1,0-0.2,0c0,0.2,0,0.3,0,0.5c0,0.8,0,1.7,0,2.5c0,0.2-0.1,0.3-0.2,0.4c-0.2,0-0.4,0-0.7,0
					c-0.1-0.1-0.2-0.3-0.2-0.5c0-1,0-1.9,0-2.9v-0.1c-0.1,0-0.2,0-0.3,0c0,0.1,0,0.1,0,0.2c0,0.9,0,1.8,0,2.7c0,0.2-0.1,0.4-0.2,0.5
					C9.6,41.8,9.3,41.8,9.1,41.8z"/>
				<path class="st0" d="M8.8,32.1c0-0.8,0.6-1.4,1.5-1.4c0.8,0,1.4,0.7,1.4,1.5c0,0.8-0.6,1.4-1.5,1.4C9.4,33.6,8.8,32.9,8.8,32.1z
					"/>
			</g>
		</g>
		<g>
			<path class="st0" d="M215.7,41.7L215.7,41.7c-0.3-0.1-0.5-0.2-0.6-0.5c0-0.1,0-0.1,0-0.2c0-0.7,0-1.3,0-2c0-0.8,0-1.5,0-2.3
				c0,0,0,0,0-0.1c-0.6,0-1.1,0-1.7,0c0.6-2,1.2-4,1.8-5.9c-0.1,0-0.1,0-0.1,0H215c0,0,0,0,0,0.1c-0.3,0.9-0.5,1.8-0.8,2.8
				c-0.1,0.2-0.1,0.4-0.2,0.6c-0.1,0.3-0.3,0.4-0.6,0.4c-0.1,0-0.3-0.1-0.4-0.1c-0.2-0.1-0.2-0.3-0.2-0.5c0-0.2,0.1-0.3,0.1-0.5
				c0.3-1,0.6-2,0.9-3.1c0.1-0.3,0.2-0.6,0.4-0.8c0.3-0.3,0.6-0.5,1-0.6c0.1,0,0.1,0,0.2,0c0.7,0,1.3,0,2,0c0.6,0,1.1,0.3,1.5,0.8
				c0.1,0.2,0.2,0.4,0.2,0.6c0.3,1.2,0.7,2.3,1,3.5V34c0,0.1,0,0.2,0,0.2l0,0c0,0.1-0.1,0.2-0.2,0.3c-0.1,0.1-0.3,0.2-0.5,0.1
				c-0.2,0-0.3-0.2-0.4-0.4c-0.3-1.1-0.7-2.2-1-3.3c0,0,0,0,0-0.1c-0.1,0-0.2,0-0.3,0c0.6,2,1.2,4,1.8,5.9c-0.1,0-0.3,0-0.4,0
				s-0.3,0-0.4,0c-0.1,0-0.3,0-0.4,0c-0.1,0-0.3,0-0.4,0v0.1c0,1,0,2,0,3c0,0.4,0,0.9,0,1.3c0,0.1,0,0.1,0,0.2
				c-0.1,0.2-0.2,0.4-0.5,0.4h-0.1h-0.1l0,0c-0.3,0-0.6-0.3-0.6-0.7c0-0.8,0-1.6,0-2.3c0-0.6,0-1.3,0-1.9c0,0,0,0,0-0.1
				c-0.1,0-0.2,0-0.3,0c0,0,0,0,0,0.1c0,1.4,0,2.8,0,4.2c0,0.1,0,0.1,0,0.2c-0.1,0.3-0.3,0.4-0.5,0.5l0,0
				C215.8,41.7,215.8,41.7,215.7,41.7z"/>
			<path class="st0" d="M216.7,25.6c0.1,0,0.1,0,0.2,0c0.5,0.1,1,0.4,1.2,0.8c0.3,0.6,0.2,1.3-0.3,1.8c-0.4,0.4-0.9,0.6-1.4,0.5
				c-0.5,0-0.9-0.3-1.2-0.7c-0.2-0.3-0.3-0.6-0.3-1c0-0.6,0.3-1,0.8-1.3c0.2-0.1,0.5-0.2,0.7-0.2c0,0,0,0,0.1,0
				C216.6,25.6,216.6,25.6,216.7,25.6z"/>
			<g>
				<path class="st0" d="M210.5,41.7c-0.2-0.2-0.2-0.4-0.2-0.6c0-0.5,0-1,0-1.4s0-0.9,0-1.3c0,0,0,0,0-0.1c-0.1,0-0.2,0-0.3,0
					c-0.4-0.1-0.7-0.4-0.7-0.8c0-0.9,0-1.8,0-2.7c0-0.5,0.4-0.9,0.9-0.9c0.9,0,1.8,0,2.7,0c0.5,0,0.8,0.4,0.8,0.8c0,0.9,0,1.8,0,2.7
					c0,0.4-0.3,0.8-0.8,0.8c-0.1,0-0.1,0-0.2,0c0,0.2,0,0.3,0,0.5c0,0.8,0,1.7,0,2.5c0,0.2-0.1,0.3-0.2,0.4c-0.2,0-0.4,0-0.7,0
					c-0.1-0.1-0.2-0.3-0.2-0.5c0-0.9,0-1.9,0-2.8v-0.1c-0.1,0-0.2,0-0.3,0c0,0.1,0,0.1,0,0.2c0,0.9,0,1.8,0,2.7
					c0,0.2-0.1,0.4-0.2,0.5C210.9,41.7,210.7,41.7,210.5,41.7z"/>
				<path class="st0" d="M210.1,32.1c0-0.8,0.6-1.4,1.4-1.4s1.4,0.6,1.4,1.4c0,0.8-0.6,1.4-1.5,1.4
					C210.8,33.6,210.1,32.9,210.1,32.1z"/>
			</g>
			<g>
				<path class="st0" d="M221.2,41.7L221.2,41.7c-0.3-0.2-0.4-0.4-0.4-0.7c0-0.6,0-1.3,0-1.9c0-0.3,0-0.5,0-0.8c-0.2,0-0.3,0-0.5,0
					c-0.2,0-0.4,0-0.6,0c-0.4,0-0.7-0.4-0.6-0.9c0.4-1,0.8-2.1,1.2-3.1c0.1-0.3,0.3-0.4,0.6-0.4c0.5,0,0.9,0,1.4,0
					c0.3,0,0.5,0.1,0.6,0.4c0.4,1,0.8,2.1,1.2,3.1c0.1,0.4-0.1,0.8-0.5,0.9c-0.2,0-0.4,0-0.6,0s-0.4,0-0.7,0v0.1c0,0.8,0,1.7,0,2.5
					c0,0.3-0.1,0.6-0.4,0.8C221.8,41.7,221.5,41.7,221.2,41.7z"/>
				<path class="st0" d="M221.6,33.6c-0.8,0-1.4-0.6-1.4-1.4c0-0.8,0.6-1.4,1.4-1.4s1.4,0.6,1.4,1.4
					C223.1,32.9,222.4,33.6,221.6,33.6z"/>
			</g>
		</g>
	</g>
	<rect x="-3.9" y="41.7" class="st0" width="790.9" height="3.1"/>
</g>
</svg>
