<?xml version="1.0" encoding="utf-8"?>
<!-- Generator: Adobe Illustrator 19.1.0, SVG Export Plug-In . SVG Version: 6.00 Build 0)  -->
<svg version="1.1" id="Layer_1" xmlns="http://www.w3.org/2000/svg" xmlns:xlink="http://www.w3.org/1999/xlink" x="0px" y="0px"
	 viewBox="0 0 783 41" style="enable-background:new 0 0 783 41;" xml:space="preserve">
<style type="text/css">
	.st0{fill:#82BC00;}
	.st1{fill:#E3EEC5;}
</style>
<g>
	<g>
		<g>
			<path class="st0" d="M406.5,32.4c0,0.5-0.1,0.9-0.1,1.4c0,0.2-0.1,0.4-0.1,0.6c-0.4,1-0.8,2-1.1,2.9c-0.1,0.4-0.4,0.6-0.8,0.7
				c-0.7,0.1-1.3-0.5-1-1.2c0.2-0.5,0.4-1.1,0.6-1.6c0.5-1.1,0.7-2.2,0.7-3.4c0-0.2,0-0.3,0-0.5c0-0.3,0-0.6-0.1-0.9
				c-0.1-0.2-0.1-0.6-0.1-0.8c0.2-0.9,0.4-1.7,0.5-2.6c0,0-0.1,0-0.1-0.1c-0.4,0.5-0.9,0.9-1.3,1.4c-0.2,0.2-0.3,0.4-0.5,0.5
				c-0.3,0.3-0.7,0.3-1,0.1c-0.3-0.2-0.4-0.7-0.1-1c1.1-1.3,2.2-2.6,3.9-3.2c1.2-0.5,1.9-0.3,2.7,0.7c0.7,0.8,1.4,1.6,2.2,2.4
				c0.3,0.3,0.7,0.5,1,0.8c0.3,0.2,0.5,0.5,0.4,0.9c0,0.1,0.1,0.2,0.2,0.3c1.2,1.2,2.4,2.5,3.7,3.7l0.1,0.1
				c-0.1,0.1-0.2,0.2-0.3,0.3c-0.4-0.4-0.8-0.7-1.1-1.1c-0.9-0.9-1.8-1.8-2.7-2.8c-0.1-0.1-0.2-0.2-0.4-0.1c-0.2,0-0.5,0-0.7-0.2
				c-0.9-0.6-1.7-1.2-2.3-2c0-0.1-0.1-0.1-0.1-0.2c0,0-0.1,0-0.1,0.1c-0.2,0.9-0.3,1.7-0.6,2.6c-0.1,0.4,0,0.8,0.2,1.1
				c1,1.3,1.6,2.8,1.9,4.4c0.1,0.4,0.2,0.7,0.3,1.1c0.1,0.6-0.1,1-0.6,1.2c-0.5,0.1-1-0.1-1.2-0.7c-0.3-0.9-0.5-1.7-0.7-2.6
				C407.7,33.8,407,33.1,406.5,32.4C406.6,32.4,406.6,32.4,406.5,32.4z"/>
			<path class="st0" d="M417.1,36.3c-0.7,0-1.4,0-2.1,0c0.2,0.3,0.3,0.6,0.5,0.9c0.1,0.2,0.1,0.4-0.1,0.5c-0.2,0.1-0.4,0-0.5-0.2
				c-0.2-0.3-0.4-0.7-0.6-1.1c-0.2,0.4-0.4,0.7-0.5,1c-0.1,0.2-0.3,0.4-0.5,0.3c-0.3-0.1-0.2-0.4-0.1-0.6c0-0.1,0.1-0.1,0.1-0.2
				c0.5-0.6,0.4-1.4,0.4-2.1c0-0.1-0.1-0.2-0.2-0.3c-0.2-0.1-0.4-0.3-0.5-0.4c-0.1-0.1-0.1-0.3,0-0.4c0-0.1,0.3,0,0.4-0.1
				c0,0,0,0,0.1,0c0.4,0.5,1,0.6,1.6,0.5c1-0.2,1.7,0.4,2.5,0.9c0.1,0,0.1,0.2,0.1,0.2c0,0.7,0,1.4,0,2.1c0,0.2-0.1,0.4-0.3,0.4
				c-0.3,0-0.4-0.2-0.3-0.4C417.1,37,417.1,36.7,417.1,36.3z"/>
			<path class="st0" d="M408.2,20.9c1,0,1.9,0.8,1.9,1.9c0,1-0.9,1.9-1.9,1.9c-1,0-1.9-0.9-1.9-1.9
				C406.4,21.7,407.2,20.9,408.2,20.9z"/>
			<path class="st0" d="M417.8,34.8c-0.5-0.3-1-0.6-1.5-0.8c0.2-0.3,0.4-0.6,0.6-0.9c0.2-0.3,0.3-0.6,0.5-0.9
				c0.1-0.1,0.2-0.2,0.3-0.2c0.1,0,0.3,0.2,0.3,0.3c0,0.7,0.5,1,1,1.4c0.2,0.2,0.6,0.2,0.5,0.6c-0.1,0.3-0.4,0.4-0.8,0.4h-0.1
				C418.2,34.5,418,34.5,417.8,34.8z"/>
		</g>
		<g>
			<path class="st0" d="M565.6,27.4c-2.3-0.3-2.3-0.3-3.3-1.4c5.2-5.2,10.7-10.5,15.9-15.7c5.1,5.2,10.5,10.4,15.8,15.7
				c-0.5,1.1-1.6,1.5-3.1,1.2c0,3.8,0,7.4,0,11.1c-8.3,0-16.7,0-25,0C565.6,34.7,565.6,31.1,565.6,27.4z M579.1,38.6
				c0-0.4,0-2.7,0-3.1c0-2.5,0-5.1,0-7.6c0-0.6,0.2-0.9,0.8-0.8c1.5,0,3,0,4.6,0c0.5,0,0.6,0.2,0.6,0.7c0,2.4,0,4.8,0,7.2
				c0,0.6,0,3.1,0,3.7c1.3,0,2.4,0,3.5,0c0-3.6,0-9.1,0-12.6c0-0.3-0.3-0.7-0.5-1c-3.1-3.2-6.3-6.3-9.5-9.4
				c-0.2-0.2-0.4-0.4-0.6-0.6c-3.4,3.5-6.9,6.9-10.5,10.3c-0.2,0.2-0.2,0.6-0.3,0.9c0,1.8,0,3.6,0,5.3s0,5.4,0,7.1
				C571.3,38.6,575,38.6,579.1,38.6z"/>
			<path class="st0" d="M589.1,20.1c-1.3-1.4-2.8-2.7-4-4.1c-0.4-0.5-0.2-1.4-0.3-2.3c1.5,0,2.9,0,4.2,0c0.1,0,0.4,0.4,0.4,0.6
				c0,1.9,0,3.8,0,5.7C589.3,20.1,589.2,20.1,589.1,20.1z"/>
			<path class="st1" d="M579.1,38.6c-3.9,0-7.7,0-11.8,0c0-1.7,0-5.4,0-7.1c0-1.8,0-3.6,0-5.3c0-0.3,0.1-0.7,0.3-0.9
				c3.4-3.4,6.8-6.9,10.5-10.3c0.3,0.2,0.5,0.4,0.6,0.6c3.1,3.1,6.3,6.3,9.5,9.4c0.3,0.3,0.5,0.6,0.5,1c0,3.5,0,9,0,12.6
				c-1.2,0-2.3,0-3.5,0c0-0.5,0-3.1,0-3.7c0-2.4,0-4.8,0-7.2c0-0.5-0.2-0.7-0.6-0.7c-1.5,0-3.1,0-4.6,0c-0.7,0-0.8,0.2-0.8,0.8
				c0,2.5,0,5.1,0,7.6C579.1,35.9,579.1,38.2,579.1,38.6z M570.8,31.7c1.6,0,3.1,0,4.6,0c0-1.4,0-2.7,0-4c0-0.2-0.4-0.5-0.6-0.5
				c-1.1-0.1-2.3,0-3.4,0c-0.5,0-0.6,0.2-0.6,0.7C570.8,29,570.8,30.3,570.8,31.7z"/>
			<path class="st0" d="M570.8,31.7c0-1.3,0-2.6,0-3.9c0-0.5,0.1-0.7,0.6-0.7c1.1,0,2.3,0,3.4,0c0.2,0,0.5,0.3,0.6,0.5
				c0,1.3,0,2.6,0,4C573.9,31.7,572.4,31.7,570.8,31.7z"/>
		</g>
		<g>
			<path class="st0" d="M509.6,9c2.3,2.3,4.5,4.6,6.8,7.1c0-0.5,0.1-0.9,0.1-1.3c1.5,0,3,0,4.7,0c0,1.3,0.1,2.6,0,3.9
				c-0.2,1.6,0.5,2.8,1.6,3.8c1.1,0.9,2.1,2,3.2,3c-0.7,1-1.4,1.7-2.6,1.5c-0.9-0.2-1.1,0.2-1.1,1.1c0,3.4,0,6.8,0,10.2
				c0,0.1,0,0.2,0,0.4c-12.5,0-24.8,0-37.4,0c0-3.9,0-7.7,0-11.6c-2.6-0.5-2.6-0.5-3.5-1.6c3.3-3.1,6.7-6.2,10.2-9.3
				c0.1-0.1,0.1-0.1,0.2-0.2c1.1-1.6,2.7-2,4.6-1.9c2.4,0.1,4.8,0.1,7.1,0c0.4,0,0.8-0.2,1-0.4C506.4,12.3,507.9,10.7,509.6,9z
				 M498.2,38.9c4.1,0,8.1,0,12.3,0c0-2.7,0-7.3,0-9.9c0-0.7,0.2-0.9,0.9-0.9c1.5,0,3.1,0.1,4.6,0c0.7,0,0.9,0.3,0.9,0.9
				c0,2.2,0,4.3,0,6.5c0,0.4,0,2.9,0,3.3c1.3,0,2.5,0,3.8,0c0-0.3,0-2.6,0-2.9c0-3.3,0-6.6,0-9.9c0-0.5-0.3-1-0.6-1.3
				c-3-3.1-6.1-6.1-9.1-9.1c-0.5-0.5-0.9-1-1.5-1.8c-3.6,3.7-7.1,7.3-10.7,10.9c-0.3,0.3-0.5,0.8-0.5,1.1c0,2.3,0,4.6,0,6.9
				C498.2,34.2,498.2,37.5,498.2,38.9z M496.2,38.9c0-3.2,0-8.4,0-11.6c-3.1,0-6.2,0-9.4,0c0,3.2,0,8.4,0,11.6
				C490,38.9,493.1,38.9,496.2,38.9z"/>
			<path class="st1" d="M498.2,38.9c0-1.4,0-4.7,0-6c0-2.3,0-4.6,0-6.9c0-0.4,0.2-0.9,0.5-1.1c3.4-3.6,6.9-7.1,10.7-10.9
				c0.6,0.7,1,1.3,1.5,1.8c3,3,6.1,6.1,9.1,9.1c0.3,0.3,0.6,0.9,0.6,1.3c0,3.3,0,6.6,0,9.9c0,0.3,0,2.5,0,2.9c-1.3,0-2.5,0-3.8,0
				c0-0.5,0-2.9,0-3.3c0-2.2,0-4.3,0-6.5c0-0.7-0.2-1-0.9-0.9c-1.5,0-3.1,0-4.6,0c-0.7,0-0.9,0.2-0.9,0.9c0,2.6,0,7.2,0,9.9
				C506.5,38.9,502.6,38.9,498.2,38.9z M506.7,34.7c0-1.6,0-3.1,0-4.6c-1.6,0-3.1,0-4.6,0c0,1.6,0,3.1,0,4.6
				C503.7,34.7,505.2,34.7,506.7,34.7z"/>
			<path class="st1" d="M496.2,38.9c-3.1,0-6.2,0-9.4,0c0-3.2,0-8.4,0-11.6c3.1,0,6.2,0,9.4,0C496.2,30.6,496.2,35.7,496.2,38.9z
				 M489.3,34.7c1.6,0,3.1,0,4.7,0c0-1.6,0-3.1,0-4.6c-1.6,0-3.1,0-4.7,0C489.3,31.6,489.3,33.1,489.3,34.7z"/>
			<path class="st0" d="M506.7,34.7c-1.5,0-3,0-4.6,0c0-1.5,0-3,0-4.6c1.5,0,3,0,4.6,0C506.7,31.6,506.7,33.1,506.7,34.7z"/>
			<path class="st0" d="M489.3,34.7c0-1.6,0-3,0-4.6c1.6,0,3.1,0,4.7,0c0,1.5,0,3,0,4.6C492.4,34.7,490.8,34.7,489.3,34.7z"/>
		</g>
		<g>
			<path class="st0" d="M527.7,38.2c0-7.8,0-15.6,0-23.5c-1.1,0-2.1,0-3.4,0c0.2-0.9,0.3-1.6,0.6-2.3c1.5-2.9,3-5.8,4.5-8.7
				c0.3-0.5,0.6-0.7,1.2-0.7c5.2,0,10.6,0,15.8,0c0.5,0,1,0,1.5-0.1c0-1,0-1.9,0-2.9c1.5,0,2.9,0,4.5,0c0,1.5,0,3.1,0,4.6
				c0.1,0,0.2,0,0.3,0c0-0.3,0.1-0.7,0.1-1c0-0.5,0.2-0.7,0.7-0.6c1.8,0,3.5,0,5.3,0.1c0.3,0,0.7,0.3,0.9,0.5c1.6,3,3.2,6.1,4.7,9.2
				c0.3,0.5,0.3,1.1,0.5,1.8c-1.2,0-2.3,0-3.4,0c0,7.9,0,15.7,0,23.5C550.2,38.2,539,38.2,527.7,38.2z M559.2,14.8
				c-10,0-19.6,0-29.4,0c0,7.1,0,16.2,0,23.3c3.8,0,7.6,0,11.7,0c0-3.1,0-8.2,0-11.2c2.1,0,4.2,0,6.3,0c0,3.1,0,8.2,0,11.3
				c3.8,0,7.6,0,11.6,0C559.2,31,559.2,21.9,559.2,14.8z"/>
			<path class="st1" d="M559.2,14.8c0,7.1,0,16.2,0,23.4c-3.8,0-7.6,0-11.6,0c0-3.1,0-8.2,0-11.3c-2.1,0-4.1,0-6.3,0
				c0,3,0,8.1,0,11.2c-3.9,0-7.7,0-11.7,0c0-7.1,0-16.2,0-23.3C539.5,14.8,549.3,14.8,559.2,14.8z M551.2,31.6c1.6,0,3.2,0,4.8,0
				c0-1.6,0-3.2,0-4.7c-1.6,0-3.2,0-4.8,0C551.2,28.4,551.2,29.9,551.2,31.6z M556,17c-1.5,0-2.9,0-4.3,0c-0.2,0-0.5,0.3-0.5,0.4
				c0,1.4,0,2.9,0,4.3c1.7,0,3.3,0,4.8,0C556,20.2,556,18.7,556,17z M542.2,21.8c1.6,0,3.2,0,4.8,0c0-1.4,0-2.7,0-4.1
				c0-0.2-0.4-0.6-0.7-0.6c-1.4-0.1-2.7,0-4.1,0C542.2,18.7,542.2,20.2,542.2,21.8z M537.6,21.9c0-1.6,0-3.1,0-4.7
				c-1.6,0-3.2,0-4.8,0c0,1.5,0,2.8,0,4.2c0,0.2,0.4,0.5,0.6,0.5C534.8,21.9,536.2,21.9,537.6,21.9z M537.6,31.6c0-1.7,0-3.3,0-4.9
				c-1.5,0-2.8,0-4.2,0c-0.2,0-0.5,0.4-0.5,0.6c-0.1,1.2-0.1,2.5,0,3.7c0,0.2,0.4,0.6,0.6,0.6C534.8,31.7,536.2,31.6,537.6,31.6z"/>
			<path class="st0" d="M551.2,31.6c0-1.6,0-3.1,0-4.7c1.6,0,3.1,0,4.8,0c0,1.5,0,3.1,0,4.7C554.4,31.6,552.8,31.6,551.2,31.6z"/>
			<path class="st0" d="M556,17c0,1.6,0,3.2,0,4.8c-1.6,0-3.1,0-4.8,0c0-1.4,0-2.9,0-4.3c0-0.1,0.3-0.4,0.5-0.4
				C553.1,17,554.5,17,556,17z"/>
			<path class="st0" d="M542.2,21.8c0-1.6,0-3.1,0-4.7c1.4,0,2.8,0,4.1,0c0.2,0,0.6,0.4,0.7,0.6c0.1,1.3,0,2.7,0,4.1
				C545.4,21.8,543.9,21.8,542.2,21.8z"/>
			<path class="st0" d="M537.6,21.9c-1.5,0-2.8,0-4.2,0c-0.2,0-0.6-0.3-0.6-0.5c-0.1-1.4,0-2.8,0-4.2c1.7,0,3.2,0,4.8,0
				C537.6,18.7,537.6,20.2,537.6,21.9z"/>
			<path class="st0" d="M537.6,31.6c-1.4,0-2.8,0-4.1,0c-0.2,0-0.6-0.4-0.6-0.6c-0.1-1.2-0.1-2.5,0-3.7c0-0.2,0.4-0.5,0.5-0.6
				c1.4,0,2.8,0,4.2,0C537.6,28.4,537.6,29.9,537.6,31.6z"/>
		</g>
		<g>
			<path class="st0" d="M461.1,35.3c0-1.9,0-3.7,0-5.6c0-0.1,0.1-0.3,0.1-0.4c0.2-0.7,0.6-1.1,1.3-1.4c0.3-0.1,0.4-0.2,0.5-0.5
				c0.4-1.2,0.9-2.4,1.4-3.5c0.4-1.1,1.1-1.6,2.4-1.7c2.7,0,5.4,0,8,0c1.2,0,1.9,0.5,2.4,1.7c0.4,1,0.8,2,1.1,3c0.2,0.5,0.3,1,1,1.2
				c0.1,0,0.3,0.2,0.4,0.3c0.3,0.4,0.5,0.8,0.7,1.2c0,1.9,0,3.8,0,5.7c-0.5,0-1,0-1.5,0c0,0.4,0,0.6,0,0.9c0,0.4,0,0.8-0.1,1.2
				c-0.1,0.9-1.1,1.4-1.9,1c-0.7-0.3-0.9-0.8-0.9-1.5c0-0.5,0-1,0-1.5c-3.5,0-6.9,0-10.6,0c0,0.6,0,1.3,0,1.9c0,0.6-0.4,1-1,1.2
				c-0.5,0.2-1,0.1-1.4-0.3c-0.4-0.4-0.5-0.8-0.5-1.4c0-0.5,0-1,0-1.5C462.1,35.3,461.6,35.3,461.1,35.3z M477,27.9
				c-0.4-1.1-0.8-2.2-1.2-3.2c-0.2-0.6-0.4-0.8-1.1-0.8c-2.6,0-5.2,0-7.8,0c-0.7,0-0.9,0.1-1.1,0.8c-0.4,1-0.7,1.9-1.1,2.9
				c0,0.1-0.1,0.2-0.1,0.3C468.8,27.9,472.9,27.9,477,27.9z M464.1,32.2c0.7,0,1.3-0.6,1.3-1.3c0-0.7-0.6-1.4-1.3-1.4
				c-0.7,0-1.3,0.6-1.3,1.3C462.8,31.5,463.4,32.2,464.1,32.2z M478.7,30.8c0-0.7-0.6-1.4-1.3-1.4c-0.7,0-1.3,0.6-1.3,1.4
				c0,0.7,0.6,1.3,1.3,1.3C478.1,32.2,478.7,31.5,478.7,30.8z"/>
			<path class="st1" d="M477,27.9c-4.2,0-8.3,0-12.6,0c0-0.1,0.1-0.2,0.1-0.3c0.4-1,0.7-1.9,1.1-2.9c0.2-0.6,0.4-0.8,1.1-0.8
				c2.6,0,5.2,0,7.8,0c0.7,0,0.9,0.1,1.1,0.8C476.2,25.7,476.6,26.8,477,27.9z"/>
			<path class="st1" d="M464.1,32.2c-0.7,0-1.3-0.6-1.3-1.4c0-0.7,0.6-1.3,1.3-1.3s1.3,0.6,1.3,1.4
				C465.5,31.6,464.8,32.2,464.1,32.2z"/>
			<path class="st1" d="M478.7,30.8c0,0.7-0.6,1.4-1.3,1.4c-0.7,0-1.3-0.6-1.3-1.3c0-0.7,0.6-1.4,1.3-1.4
				C478.1,29.4,478.7,30.1,478.7,30.8z"/>
		</g>
		<g>
			<path class="st0" d="M699,34c-0.2,0.6-0.7,0.9-1.3,0.8c-0.6,0-1.2,0-1.8,0c-0.2-1.1-0.7-2-1.7-2.6c-0.7-0.4-1.4-0.6-2.2-0.6
				c-1.4,0.1-3,1.1-3.3,3.1c-2,0-4.1,0-6.1,0c-0.2-1.1-0.7-1.9-1.6-2.5c-0.7-0.4-1.4-0.6-2.2-0.6c-1.4,0.1-3,1.1-3.3,3.1
				c-0.7,0-1.5,0-2.2,0c-0.5,0-0.7-0.4-0.9-0.8c0-0.8,0-1.7,0-2.5c0,0,0,0,0-0.1c0.3-1.4,1.1-2.5,2.3-3.2c0.9-0.5,1.9-0.6,2.9-0.6
				c0.5,0,0.9-0.2,1.3-0.6c1-1.2,2-2.3,2.9-3.5c0.5-0.7,1.2-1,2.1-1c2.2,0,4.5,0,6.7,0c0.2,0,0.3,0,0.5,0c0.4,0.1,0.7,0.2,0.9,0.5
				c0.2,0.2,0.3,0.4,0.5,0.7c0.9,1.1,1.7,2.3,2.6,3.4c0.3,0.4,0.6,0.6,1.1,0.6s1,0,1.6,0s1.1,0.2,1.3,0.8C699,30.3,699,32.2,699,34z
				 M692.8,27.5c-0.6-0.9-1.3-1.7-1.9-2.6c-0.2-0.2-0.4-0.4-0.7-0.4c-0.8,0-1.6,0-2.5,0c0,1,0,2,0,3.1c1.7,0,3.5,0,5.2,0
				C692.9,27.6,692.9,27.5,692.8,27.5z M685.5,24.8c0-0.1,0-0.2,0-0.2c-0.6,0-1.3,0-1.9,0c-0.3,0-0.5,0.2-0.7,0.4
				c-0.7,0.9-1.4,1.7-2.1,2.6c1.6,0,3.1,0,4.7,0C685.5,26.7,685.5,25.8,685.5,24.8z"/>
			<path class="st1" d="M692.9,27.6c0-0.1-0.1-0.1-0.1-0.1c-0.6-0.9-1.3-1.7-1.9-2.6c-0.2-0.2-0.4-0.4-0.7-0.4c-0.8,0-1.6,0-2.5,0
				c0,1,0,2,0,3.1C689.4,27.6,691.1,27.6,692.9,27.6z"/>
			<path class="st1" d="M685.5,27.6c0-0.9,0-1.9,0-2.8c0-0.1,0-0.2,0-0.2c-0.6,0-1.3,0-1.9,0c-0.3,0-0.5,0.2-0.7,0.4
				c-0.7,0.9-1.4,1.7-2.1,2.6C682.4,27.6,683.9,27.6,685.5,27.6z"/>
			<path class="st0" d="M678.8,37.7c1.3,0,2.4-1,2.4-2.4c0-1.3-1-2.4-2.4-2.4c-1.3,0-2.4,1.1-2.4,2.4
				C676.4,36.6,677.4,37.7,678.8,37.7z"/>
			<path class="st0" d="M692.3,37.7c1.3,0,2.4-1,2.4-2.4c0-1.3-1.1-2.4-2.4-2.4s-2.4,1.1-2.4,2.4S691,37.7,692.3,37.7z"/>
		</g>
		<g>
			<path class="st0" d="M631,33.1c-0.4,0-0.8,0-1.3,0c0.6-1.9,1.2-3.8,1.7-5.7c0,0-0.1,0-0.1-0.1c-0.1,0.1-0.2,0.2-0.2,0.3
				c-0.3,0.8-0.5,1.6-0.7,2.4c0,0.1-0.1,0.2-0.1,0.3c-0.1,0.2-0.4,0.3-0.6,0.3c-0.2,0-0.4-0.3-0.4-0.5c0-0.1,0-0.2,0-0.3
				c0.3-1,0.6-2,0.9-3.1c0.2-0.5,0.4-1.1,1.1-1.1c0.9-0.1,1.8-0.1,2.7,0c0.6,0,0.9,0.6,1.1,1.1c0.2,0.8,0.5,1.5,0.7,2.3
				c0.1,0.3,0.2,0.5,0.2,0.8c0.1,0.4,0,0.7-0.4,0.8c-0.3,0.1-0.6-0.1-0.7-0.5c-0.3-0.8-0.5-1.7-0.8-2.5c0-0.1-0.1-0.2-0.2-0.3
				c0,0-0.1,0-0.1,0.1c0.6,1.9,1.1,3.8,1.7,5.7c-0.4,0-0.7,0-1,0s-0.4,0.1-0.4,0.4c0,1.2,0,2.4,0,3.6c0,0.2-0.1,0.4-0.2,0.6
				c-0.1,0.3-0.4,0.3-0.7,0.3s-0.5-0.2-0.6-0.5c0-0.2-0.1-0.3-0.1-0.5c0-1.2,0-2.4,0-3.6c0-0.1-0.1-0.2-0.1-0.3
				c0,0.1-0.1,0.2-0.1,0.3c0,1.2,0,2.4,0,3.6c0,0.1,0,0.3,0,0.4c-0.1,0.3-0.3,0.5-0.7,0.6c-0.3,0-0.6-0.2-0.7-0.5
				c0-0.1-0.1-0.3-0.1-0.5C631,35.7,631,34.4,631,33.1z"/>
			<path class="st0" d="M626.8,36.3c-0.2-0.2-0.4-0.5-0.6-0.7c-0.8,0.4-1.6,0.2-2.3-0.2c-0.2-0.1-0.8,0.2-0.8,0.5
				c0,0.1,0.1,0.2,0.2,0.2c0.4,0.3,0.6,0.7,0.5,1.1c-0.1,0.4-0.5,0.7-0.9,0.7c-0.4,0-0.8-0.3-1-0.7c-0.1-0.4,0-0.8,0.5-1.1
				c0.1-0.1,0.2-0.2,0.2-0.3c0-0.2,0.1-0.3,0.2-0.5c1.3-1,2.5-2.1,3.8-3.1c0.3-0.2,0.5-0.5,0.8-0.8c0.2-0.2,0.4-0.4,0.6-0.5
				c0.4-0.3,0.9-0.1,1.2,0.3c0.2,0.4,0.1,1-0.3,1.2c-0.1,0-0.2,0-0.2,0s-0.1-0.2,0-0.2c0-0.1,0.2-0.2,0.2-0.3c0-0.2,0-0.4-0.1-0.5
				c-0.1-0.1-0.4-0.1-0.5-0.1c-0.4,0.3-0.7,0.7-1.1,1v0.2c0.1,0.8,0,1.6-0.3,2.4c0,0.1,0,0.2,0,0.3c0.1,0.2,0.3,0.3,0.4,0.4
				c0.2,0.2,0.3,0.3,0.6,0.3c0.4,0,0.7,0.3,0.8,0.8c0.1,0.4-0.1,0.8-0.5,1s-0.8,0.2-1.1-0.1s-0.4-0.7-0.2-1.1
				C626.7,36.5,626.7,36.4,626.8,36.3z"/>
			<path class="st0" d="M626.2,30.9c0,0.8-0.6,1.4-1.4,1.4s-1.4-0.6-1.4-1.4s0.7-1.5,1.4-1.5C625.6,29.5,626.2,30.1,626.2,30.9z"/>
			<path class="st0" d="M632.6,21.8c0.9,0,1.7,0.8,1.7,1.7c0,0.9-0.8,1.8-1.8,1.7c-0.9,0-1.7-0.8-1.7-1.7
				C630.9,22.6,631.7,21.8,632.6,21.8z"/>
			<path class="st0" d="M624,33.9c-0.6,0.5-1.1,0.9-1.7,1.4c-0.3,0.2-0.6,0.2-0.8,0s-0.1-0.5,0.1-0.7c0.3-0.3,0.6-0.5,0.9-0.8
				C623.1,33.3,623.5,33.4,624,33.9z"/>
		</g>
		<g>
			<path class="st0" d="M420.7,28.8c-0.3,0-0.6,0-0.8,0c-1.4,0-2.6-0.5-3.5-1.5c-1.1-1.1-1.6-2.4-1.6-3.9c0-0.3-0.1-0.8-0.3-0.9
				c-2.1-1.2-3.1-2.9-3-5.3c0.1-1.9,1-3.2,2.6-4.2c0.5-0.3,0.8-0.6,0.8-1.2c-0.1-2.2,1.5-4.4,3.5-5.1c0.2-0.1,0.5-0.3,0.5-0.5
				c0.4-1.1,1-2.1,1.9-2.9c2.1-2,5.8-2.1,8-0.5c0.4,0.3,0.6,0.3,1,0.1c1.2-0.8,2.4-1.1,3.9-1.2c3.6,0,6.4,3,6.3,6.6
				c0,0.9,0.3,1.1,0.9,1.4c2.6,1.3,3.9,4.6,3.1,7.4c-0.6,2.1-2.1,3.5-4,4.3c0.8,3.9-2.6,9-8.9,7.1c0,1.7,0,8.8,0,10.4
				c-0.7,0-1.4,0-2,0c0-1.7,0-8.8,0-10.4c-0.8,0.1-1.6,0.1-2.4,0.2c0,3.4,0,6.8,0,10.2c-0.7,0-1.4,0-2.1,0c0-0.3,0-0.6,0-0.8
				c0-3.1,0-6.3,0-9.4c0-0.7-0.4-0.9-0.8-1c-0.4-0.1-0.8,0.5-0.8,1c0,3.1,0,6.3,0,9.4c0,0.3,0,0.5,0,0.8c-0.7,0-1.2,0-2,0
				C420.7,35.7,420.7,32.3,420.7,28.8z M417,12.8c0.3,0.9,0,1.5-0.9,1.6c-1.3,0.2-2.1,1.1-2.5,2.2c-0.6,1.6,0.5,3.8,2.3,4.2
				c1.2,0.3,1.4,0.6,1.1,1.8c-0.4,1.4,0.2,2.9,1.6,3.8c1.2,0.7,2.7,0.6,3.8-0.5c1-1,1.3-1,2.3,0c0.9,0.9,2.1,1.2,3.3,0.7
				c1.2-0.5,2-1.3,2.2-2.6c0.1-0.5,0-1-0.1-1.6c-0.2-0.9,0.1-1.4,1-1.6c1.5-0.3,2.6-1.9,2.6-3.3c0-1.3-1.3-2.9-2.6-3.1
				c-1-0.2-1.2-0.7-1-1.7c0.7-2.5-1.2-4.4-3.3-4.3c-0.8,0-1.6,0.4-2.2,1c-0.9,0.9-1.2,0.9-2.2,0c-1.1-1-2.3-1.2-3.6-0.7
				c-1.2,0.5-2,1.7-2.1,3.1C416.8,12.2,416.9,12.5,417,12.8z M423.3,7.4c0.2,0.1,0.5,0,0.6-0.1c2.5-1.6,5.9-1,7.6,1.6
				c0.6,0.9,0.9,1.9,0.8,2.9c-0.1,0.6,0.1,0.9,0.7,1.1c2.5,1.2,3.6,4.9,2,7.5c-0.6,0.9-1.3,1.5-2.2,2c-0.2,0.1-0.4,0.5-0.4,0.8
				c-0.2,1-0.4,2.1-0.5,3.3c0.9,0.7,2.5,0.6,3.9-0.2c1.8-1,2.6-3.2,2-5.2c-0.3-0.9-0.1-1.3,0.8-1.6c2.1-0.6,3.5-2.3,3.6-4.2
				c0-2.3-1.4-3.9-3.5-4.5c-0.9-0.2-1.2-0.6-0.9-1.5c0.9-2.7-0.8-5.2-3.4-5.8c-1.5-0.3-2.8,0.2-3.9,1.3c-0.7,0.7-1.3,0.8-2.1,0
				c-1.9-1.9-4.3-1.9-6.2-0.3c-0.1,0.1-0.2,0.1-0.2,0.2c-0.3,0.4-0.6,0.9-0.8,1.3C421.9,6.7,422.6,7.1,423.3,7.4z"/>
			<path class="st1" d="M416.8,11.8c0.1,0.3,0.1,0.7,0.2,1c0.3,0.9,0,1.5-0.9,1.6c-1.3,0.2-2.1,1.1-2.5,2.2
				c-0.6,1.6,0.5,3.8,2.3,4.2c1.2,0.3,1.4,0.6,1.1,1.8c-0.4,1.4,0.2,2.9,1.6,3.8c1.2,0.7,2.7,0.6,3.8-0.5c1-1,1.3-1,2.3,0
				c0.9,0.9,2.1,1.2,3.3,0.7c1.2-0.5,2-1.3,2.2-2.6c0.1-0.5,0-1-0.1-1.6c-0.2-0.9,0.1-1.4,1-1.6c1.5-0.3,2.6-1.9,2.6-3.3
				c0-1.3-1.3-2.9-2.6-3.1c-1-0.2-1.2-0.7-1-1.7c0.7-2.5-1.2-4.4-3.3-4.3c-0.8,0-1.6,0.4-2.2,1c-0.9,0.9-1.2,0.9-2.2,0
				c-1.1-1-2.3-1.2-3.6-0.7C417.6,9.3,416.8,10.5,416.8,11.8z"/>
			<path class="st1" d="M421,6.4c0.8,0.4,1.5,0.8,2.3,1.1c0.2,0.1,0.5,0,0.6-0.1c2.5-1.6,5.9-1,7.6,1.6c0.6,0.9,0.9,1.9,0.8,2.9
				c-0.1,0.6,0.1,0.9,0.7,1.1c2.5,1.2,3.6,4.9,2,7.5c-0.6,0.9-1.3,1.5-2.2,2c-0.2,0.1-0.4,0.5-0.4,0.8c-0.2,1-0.4,2.1-0.5,3.3
				c0.9,0.7,2.5,0.6,3.9-0.2c1.8-1,2.6-3.2,2-5.2c-0.3-0.9-0.1-1.3,0.8-1.6c2.1-0.6,3.5-2.3,3.6-4.2c0-2.3-1.4-3.9-3.5-4.5
				c-0.9-0.2-1.2-0.6-0.9-1.5c0.9-2.7-0.8-5.2-3.4-5.8c-1.5-0.3-2.8,0.2-3.9,1.3c-0.7,0.7-1.3,0.8-2.1,0c-1.9-1.9-4.3-1.9-6.2-0.3
				c-0.1,0.1-0.2,0.1-0.2,0.2C421.6,5.5,421.4,5.9,421,6.4z"/>
		</g>
		<g>
			<path class="st0" d="M383.9,33.6c-0.1,0.3-0.2,0.7-0.2,1c0,0.9,0.1,1.8,0.2,2.6c0,0.1,0,0.2,0,0.3c0.1,0.4-0.2,0.8-0.6,0.9
				c-0.4,0.1-0.8-0.2-0.9-0.6c-0.2-0.9-0.3-1.7-0.4-2.6c-0.1-0.8,0-1.5,0.3-2.2c0.1-0.4,0.2-0.7,0.3-1.1s0.3-0.8,0-1.2
				c-0.1-0.1-0.1-0.3-0.1-0.4c0-0.7-0.1-1.4-0.1-2.1c0-0.1,0.1-0.2,0.1-0.3c0.4-0.6,0.7-1.3,0.8-2.1c0.1-0.5-0.2-0.8-0.6-0.9
				c-0.4-0.1-0.8,0.1-1,0.5c0,0,0,0.1,0,0.2c-0.1-0.6,0.6-1.2,1.3-1c0.2,0.1,0.5,0.3,0.7,0.5c1,1.5,1.6,3.2,1.7,5
				c0,0.4,0,0.8-0.3,1.1c-0.1,0.1-0.1,0.2-0.1,0.3c0.1,0.5,0.2,1,0.3,1.5c0.1,0.3,0.2,0.7,0.4,1c0.5,0.9,1,1.8,1.4,2.7
				c0.3,0.5,0,1-0.5,1.1c-0.3,0.1-0.6-0.1-0.8-0.4c-0.6-1.1-1.2-2.1-1.7-3.2C384.1,34.1,384.1,33.8,383.9,33.6
				C384,33.6,383.9,33.6,383.9,33.6z"/>
			<path class="st0" d="M383.2,22.8c0,1-0.8,1.9-1.9,1.9s-1.9-0.9-1.9-1.9s0.9-1.9,1.9-1.9C382.3,21,383.2,21.8,383.2,22.8z"/>
			<path class="st0" d="M379.1,29.7c-0.5,0-0.8-0.3-0.9-0.7c0-0.4,0.2-0.8,0.7-0.8c1.5-0.2,2.4-1,2.8-2.7c0.1-0.4,0.3-0.6,0.7-0.6
				c0.4,0,0.6,0.2,0.7,0.5c0,0.1,0,0.2,0,0.3c-0.1,1.6-1.5,3.3-3.1,3.8C379.8,29.6,379.5,29.7,379.1,29.7z"/>
			<path class="st0" d="M378.2,29.3c0.1,0.1,0.2,0.2,0.2,0.2l0.1,0.1c-0.1,0.4-0.2,0.7-0.2,1c-0.5,2.5-1,5-1.5,7.5
				c0,0.1,0,0.1,0,0.2c-0.1,0.1-0.2,0.1-0.3,0.2c-0.1-0.1-0.2-0.2-0.2-0.3c0.1-0.6,0.2-1.1,0.3-1.6c0.4-2.2,0.8-4.4,1.3-6.5
				C378,29.8,378.1,29.6,378.2,29.3z"/>
			<path class="st0" d="M379.2,29.8c0.1,0,0.3,0,0.5-0.1c0,0.2,0,0.4-0.1,0.6c-0.1,0.2-0.3,0-0.4-0.2
				C379.2,30,379.2,29.9,379.2,29.8z"/>
		</g>
		<g>
			<polygon class="st0" points="593.7,38.4 593.7,31.6 592.8,30.2 592,31.6 592,38.4 			"/>
			<polygon class="st0" points="596.8,38.4 596.8,31.6 595.9,30.2 595,31.6 595,38.4 			"/>
			<polygon class="st0" points="599.8,38.4 599.8,31.6 598.8,30.2 598,31.6 598,38.4 			"/>
			<polygon class="st0" points="602.8,38.4 602.8,31.6 601.9,30.2 601,31.6 601,38.4 			"/>
			<rect x="591.5" y="32.5" class="st0" width="11.9" height="1"/>
			<rect x="591.5" y="36.1" class="st0" width="11.9" height="1"/>
		</g>
	</g>
	<rect x="-4" y="37.8" class="st0" width="791" height="3.1"/>
</g>
</svg>
