<?xml version="1.0" encoding="utf-8"?>
<!-- Generator: Adobe Illustrator 19.1.0, SVG Export Plug-In . SVG Version: 6.00 Build 0)  -->
<svg version="1.1" id="Layer_1" xmlns="http://www.w3.org/2000/svg" xmlns:xlink="http://www.w3.org/1999/xlink" x="0px" y="0px"
	 viewBox="0 0 783 73" style="enable-background:new 0 0 783 73;" xml:space="preserve">
<style type="text/css">
	.st0{fill:#82BC00;}
	.st1{fill:#E3EEC5;}
	.st2{fill:#FFFFFF;}
</style>
<g>
	<g>
		<g>
			<path class="st0" d="M216.8,70.5c-1.9,0-3.4,0-5.3,0c0-2.3,0-4.6,0-6.6c-2-0.6-3.8-0.9-5.3-1.6c-2.5-1.3-3.5-3.6-3.6-6.4
				c0-1-0.4-2.2-1-3c-3.2-4.4-1.2-10.3,4.1-11.7c0.8-0.2,1.6-0.8,2-1.5c3.3-4.7,9.2-4.7,12.5-0.1c0.5,0.7,1.4,1.3,2.2,1.6
				c5.1,1.5,7.1,7.3,3.9,11.6c-0.5,0.6-1,1.4-1.1,2.1c-0.5,6.2-2,7.8-8.6,8.7C216.8,65.8,216.8,68.1,216.8,70.5z M216.6,61
				c4.4,1,7.6-1.8,6.9-5.5c-0.3-1.6,0.3-2.4,1.1-3.7c0.9-1.4,1.6-3.7,1.1-5.2c-0.5-1.5-2.4-3-4-3.5c-1.4-0.5-2.2-0.8-2.9-2.1
				c-0.9-1.9-2.5-2.8-4.6-2.8c-2.2,0-4,0.9-4.8,2.9c-0.6,1.4-1.3,1.7-2.7,2c-4.5,0.9-6.2,5.7-3.1,8.9c1.2,1.2,1.4,2.1,1.1,3.7
				c-0.5,2.9,1.9,5.6,4.8,5.9c1.5,0.1,2.2-0.5,1.5-1.9c-0.7-1.6-1.7-3-2.7-4.7c2.4-2.5,2.8,1.3,4.3,1.6c0.4-1.3-0.7-4.2,2.7-3
				c0.1,1,0.2,2,0.3,3c1.5-0.5,2-4,4.1-1.5C218.6,57.1,217.6,59,216.6,61z"/>
			<path class="st1" d="M216.6,61c1.1-2,2.1-3.9,3.2-6.1c-2.1-2.4-2.6,1-4.1,1.5c-0.1-1-0.2-2-0.3-3c-3.4-1.1-2.2,1.7-2.7,3
				c-1.6-0.3-2-4.1-4.3-1.6c1,1.7,1.9,3.2,2.7,4.7c0.6,1.4-0.1,2-1.5,1.9c-2.9-0.3-5.3-3-4.8-5.9c0.3-1.5,0.1-2.5-1.1-3.7
				c-3.1-3.2-1.4-8,3.1-8.9c1.3-0.3,2.1-0.6,2.7-2c0.8-2,2.6-2.9,4.8-2.9c2.1,0,3.8,0.9,4.6,2.8c0.6,1.4,1.5,1.7,2.9,2.1
				c1.6,0.5,3.5,2,4,3.5c0.5,1.5-0.2,3.7-1.1,5.2c-0.8,1.2-1.4,2.1-1.1,3.7C224.1,59.2,220.9,62,216.6,61z"/>
		</g>
		<g>
			<path class="st0" d="M198.9,70.5c-1.5,0-2.8,0-4.3,0c0-1.9,0-3.7,0-5.4c-1.6-0.5-3.1-0.7-4.3-1.3c-2-1.1-2.8-2.9-2.9-5.2
				c0-0.8-0.3-1.8-0.8-2.5c-2.6-3.6-1-8.3,3.3-9.5c0.6-0.2,1.3-0.7,1.7-1.2c2.7-3.8,7.5-3.9,10.2,0c0.4,0.6,1.1,1.1,1.8,1.3
				c4.2,1.2,5.8,6,3.1,9.5c-0.4,0.5-0.8,1.1-0.9,1.7c-0.4,5.1-1.6,6.4-7,7.1C198.9,66.7,198.9,68.6,198.9,70.5z M198.7,62.8
				c3.6,0.8,6.2-1.5,5.6-4.5c-0.2-1.3,0.3-2,0.9-3c0.7-1.2,1.3-3,0.9-4.2c-0.4-1.2-1.9-2.4-3.2-2.9c-1.1-0.4-1.8-0.6-2.3-1.7
				c-0.7-1.5-2-2.3-3.8-2.3c-1.8,0-3.3,0.7-3.9,2.3c-0.5,1.1-1.1,1.4-2.2,1.6c-3.7,0.7-5.1,4.7-2.5,7.2c1,1,1.1,1.7,0.9,3
				c-0.4,2.4,1.5,4.6,3.9,4.8c1.2,0.1,1.8-0.4,1.2-1.5c-0.6-1.3-1.4-2.4-2.2-3.9c1.9-2.1,2.3,1.1,3.5,1.3c0.4-1.1-0.6-3.4,2.2-2.5
				c0.1,0.8,0.2,1.7,0.3,2.4c1.2-0.4,1.6-3.3,3.3-1.3C200.3,59.6,199.5,61.1,198.7,62.8z"/>
			<path class="st1" d="M198.7,62.8c0.9-1.7,1.7-3.2,2.6-5c-1.7-2-2.1,0.8-3.3,1.3c-0.1-0.8-0.2-1.6-0.3-2.4
				c-2.8-0.9-1.8,1.4-2.2,2.5c-1.3-0.2-1.6-3.3-3.5-1.3c0.8,1.4,1.6,2.6,2.2,3.9c0.5,1.1,0,1.6-1.2,1.5c-2.4-0.2-4.3-2.5-3.9-4.8
				c0.2-1.3,0.1-2-0.9-3c-2.5-2.6-1.2-6.5,2.5-7.2c1.1-0.2,1.7-0.5,2.2-1.6c0.7-1.6,2.1-2.3,3.9-2.3c1.7,0,3.1,0.7,3.8,2.3
				c0.5,1.1,1.2,1.4,2.3,1.7c1.3,0.4,2.8,1.7,3.2,2.9c0.4,1.2-0.1,3-0.9,4.2c-0.6,1-1.1,1.7-0.9,3C204.8,61.3,202.2,63.6,198.7,62.8
				z"/>
		</g>
		<g>
			<path class="st0" d="M764.3,38.8c-0.7,0.3-1.3,0.5-2.2,0.8c2.5-4,4.8-7.9,6.2-12.7c1.5,4.8,3.7,8.9,6.4,12.8
				c-0.9-0.4-1.5-0.7-2.2-1c-0.1,0.1-0.1,0.1-0.2,0.2c1.4,3,2.9,6,4.4,9.2c-0.8-0.4-1.4-0.7-2.2-1.1c1.4,2.8,2.7,5.4,4.1,8.2
				c-0.8-0.3-1.4-0.6-2.1-0.8c0,0.1-0.1,0.1-0.1,0.2c1.2,2.1,2.4,4.2,3.7,6.5c-7.8,2.4-15.6,2.4-23.4,0c1.3-2.2,2.5-4.4,3.8-6.8
				c-0.9,0.3-1.5,0.6-2.4,1c1.4-2.7,2.6-5.3,3.9-7.9c0-0.1-0.1-0.1-0.1-0.2c-0.6,0.3-1.2,0.5-1.9,0.9c0.8-1.7,1.6-3.3,2.3-4.9
				c0.6-1.3,1.2-2.5,1.8-3.8C764.2,39.3,764.2,39,764.3,38.8c0.1,0,0.1,0,0.1,0c0,0,0,0-0.1-0.1C764.3,38.7,764.3,38.8,764.3,38.8z"
				/>
			<path class="st0" d="M771.5,69.2c-2.1,0-4.4,0-6.6,0c0.5-0.8,1-1.5,1.3-2.3c0.3-0.8,0.2-1.8,0.3-2.8c0.8,0,1.6,0,2.5,0
				c0.1,0,0.3,0.2,0.4,0.3C770.2,66,770.8,67.6,771.5,69.2z"/>
		</g>
		<g>
			<path class="st0" d="M381.3,48.2c-0.5,0.2-0.9,0.4-1.5,0.6c1.7-2.7,3.3-5.4,4.3-8.8c1,3.3,2.6,6.1,4.4,8.9
				c-0.6-0.3-1.1-0.5-1.5-0.7c0,0-0.1,0.1-0.1,0.1c1,2.1,2,4.1,3,6.3c-0.5-0.3-1-0.5-1.5-0.7c1,1.9,1.8,3.8,2.8,5.7
				c-0.5-0.2-1-0.4-1.4-0.6c0,0-0.1,0.1-0.1,0.1c0.8,1.5,1.6,2.9,2.5,4.5c-5.4,1.6-10.7,1.7-16.1,0c0.9-1.5,1.7-3,2.6-4.7
				c-0.6,0.2-1.1,0.4-1.6,0.7c0.9-1.9,1.8-3.7,2.7-5.4c0,0-0.1-0.1-0.1-0.1c-0.4,0.2-0.8,0.4-1.3,0.6c0.6-1.2,1.1-2.3,1.6-3.4
				c0.4-0.9,0.8-1.7,1.3-2.6C381.2,48.5,381.2,48.4,381.3,48.2C381.3,48.2,381.3,48.2,381.3,48.2C381.3,48.2,381.3,48.2,381.3,48.2
				C381.3,48.2,381.3,48.2,381.3,48.2z"/>
			<path class="st0" d="M386.2,69.2c-1.5,0-3,0-4.5,0c0.3-0.5,0.7-1,0.9-1.6c0.2-0.6,0.2-1.3,0.2-1.9c0.5,0,1.1,0,1.7,0
				c0.1,0,0.2,0.1,0.2,0.2C385.3,67,385.8,68.1,386.2,69.2z"/>
		</g>
		<g>
			<path class="st0" d="M228,65.9c0-1.9,0-3.7,0-5.6c0-0.1,0.1-0.3,0.1-0.4c0.2-0.7,0.6-1.1,1.3-1.4c0.3-0.1,0.4-0.2,0.5-0.5
				c0.4-1.2,0.9-2.4,1.4-3.5c0.4-1.1,1.1-1.6,2.4-1.7c2.7,0,5.4,0,8,0c1.2,0,1.9,0.5,2.4,1.7c0.4,1,0.8,2,1.1,3c0.2,0.5,0.3,1,1,1.2
				c0.1,0,0.3,0.2,0.4,0.3c0.3,0.4,0.5,0.8,0.7,1.2c0,1.9,0,3.8,0,5.7c-0.5,0-1,0-1.5,0c0,0.4,0,0.6,0,0.9c0,0.4,0,0.8-0.1,1.2
				c-0.1,0.9-1.1,1.4-1.9,1c-0.7-0.3-0.9-0.8-0.9-1.5c0-0.5,0-1,0-1.5c-3.5,0-6.9,0-10.4,0c0,0.6,0,1.3,0,1.9c0,0.6-0.4,1-1,1.2
				c-0.5,0.2-1,0.1-1.4-0.3c-0.4-0.4-0.5-0.8-0.5-1.4c0-0.5,0-1,0-1.5C229,65.9,228.5,65.9,228,65.9z M243.9,58.5
				c-0.4-1.1-0.8-2.2-1.2-3.2c-0.2-0.6-0.4-0.8-1.1-0.8c-2.6,0-5.2,0-7.8,0c-0.7,0-0.9,0.1-1.1,0.8c-0.4,1-0.7,1.9-1.1,2.9
				c0,0.1-0.1,0.2-0.1,0.3C235.6,58.5,239.7,58.5,243.9,58.5z M231.1,62.8c0.7,0,1.3-0.6,1.3-1.3c0-0.7-0.6-1.4-1.3-1.4
				c-0.7,0-1.3,0.6-1.3,1.3C229.7,62.1,230.3,62.8,231.1,62.8z M245.6,61.4c0-0.7-0.6-1.4-1.3-1.4c-0.7,0-1.3,0.6-1.3,1.4
				c0,0.7,0.6,1.3,1.3,1.3C245,62.8,245.6,62.2,245.6,61.4z"/>
			<path class="st1" d="M243.9,58.5c-4.2,0-8.3,0-12.4,0c0-0.1,0.1-0.2,0.1-0.3c0.4-1,0.7-1.9,1.1-2.9c0.2-0.6,0.4-0.8,1.1-0.8
				c2.6,0,5.2,0,7.8,0c0.7,0,0.9,0.1,1.1,0.8C243.1,56.3,243.5,57.4,243.9,58.5z"/>
			<path class="st1" d="M231.1,62.8c-0.7,0-1.3-0.6-1.3-1.4c0-0.7,0.6-1.3,1.3-1.3c0.7,0,1.3,0.6,1.3,1.4
				C232.4,62.2,231.8,62.8,231.1,62.8z"/>
			<path class="st1" d="M245.6,61.4c0,0.7-0.6,1.4-1.3,1.4c-0.7,0-1.3-0.6-1.3-1.3c0-0.7,0.6-1.4,1.3-1.4
				C244.9,60.1,245.6,60.7,245.6,61.4z"/>
		</g>
		<rect x="738.3" y="55" class="st0" width="17.8" height="16.2"/>
		<rect x="740.8" y="57.9" class="st1" width="3.2" height="3.2"/>
		<rect x="745.6" y="57.9" class="st1" width="3.2" height="3.2"/>
		<rect x="750.4" y="57.9" class="st1" width="3.2" height="3.2"/>
		<rect x="740.8" y="63.2" class="st1" width="3.2" height="6.3"/>
		<rect x="745.6" y="63.2" class="st1" width="3.2" height="6.3"/>
		<rect x="750.4" y="63.2" class="st1" width="3.2" height="6.3"/>
		<polygon class="st0" points="757.3,56 737,56 747.2,45.9 		"/>
		<rect x="645.4" y="31.1" class="st0" width="11.4" height="9.2"/>
		<polygon class="st0" points="658.3,31.6 643.8,31.6 651.1,25.3 		"/>
		<circle class="st1" cx="747.2" cy="52.9" r="1.9"/>
		<circle class="st1" cx="651.1" cy="34.4" r="2.7"/>
		<rect x="714" y="25.8" class="st0" width="22" height="44.2"/>
		<rect x="716.2" y="28.8" class="st1" width="2.3" height="3.7"/>
		<rect x="721.2" y="28.8" class="st1" width="2.3" height="3.7"/>
		<rect x="726.2" y="28.8" class="st1" width="2.3" height="3.7"/>
		<rect x="731.2" y="28.8" class="st1" width="2.3" height="3.7"/>
		<rect x="716.2" y="35" class="st1" width="2.3" height="3.7"/>
		<rect x="721.2" y="35" class="st1" width="2.3" height="3.7"/>
		<rect x="726.2" y="35" class="st1" width="2.3" height="3.7"/>
		<rect x="731.2" y="35" class="st1" width="2.3" height="3.7"/>
		<rect x="716.2" y="41.2" class="st1" width="2.3" height="3.7"/>
		<rect x="721.2" y="41.2" class="st1" width="2.3" height="3.7"/>
		<rect x="726.2" y="41.2" class="st1" width="2.3" height="3.7"/>
		<rect x="731.2" y="41.2" class="st1" width="2.3" height="3.7"/>
		<rect x="716.2" y="47.4" class="st1" width="2.3" height="3.7"/>
		<rect x="721.2" y="47.4" class="st1" width="2.3" height="3.7"/>
		<rect x="726.2" y="47.4" class="st1" width="2.3" height="3.7"/>
		<rect x="731.2" y="47.4" class="st1" width="2.3" height="3.7"/>
		<rect x="716.2" y="53.6" class="st1" width="2.3" height="3.7"/>
		<rect x="721.2" y="53.6" class="st1" width="2.3" height="3.7"/>
		<rect x="726.2" y="53.6" class="st1" width="2.3" height="3.7"/>
		<rect x="731.2" y="53.6" class="st1" width="2.3" height="3.7"/>
		<rect x="716.2" y="59.8" class="st1" width="2.3" height="3.7"/>
		<rect x="721.2" y="59.8" class="st1" width="2.3" height="3.7"/>
		<rect x="726.2" y="59.8" class="st1" width="2.3" height="3.7"/>
		<rect x="731.2" y="59.8" class="st1" width="2.3" height="3.7"/>
		<rect x="716.2" y="66" class="st1" width="2.3" height="3.7"/>
		<rect x="721.2" y="66" class="st1" width="2.3" height="3.7"/>
		<rect x="726.2" y="66" class="st1" width="2.3" height="3.7"/>
		<rect x="731.2" y="66" class="st1" width="2.3" height="3.7"/>
		<rect x="694.1" y="45" class="st0" width="21.2" height="26.2"/>
		<rect x="696.7" y="47.5" class="st1" width="15.6" height="2.6"/>
		<rect x="696.7" y="52.4" class="st1" width="15.6" height="2.6"/>
		<rect x="696.7" y="57.2" class="st1" width="15.6" height="2.6"/>
		<rect x="696.7" y="62.1" class="st1" width="15.6" height="2.6"/>
		<rect x="696.7" y="66.9" class="st1" width="15.6" height="2.6"/>
		<g>
			<g>
				<rect x="665" y="33.5" class="st0" width="4.9" height="37.8"/>
				<g>
					<polygon class="st1" points="670.5,70.8 670.5,34.2 681,37.8 681,70.8 					"/>
					<path class="st0" d="M671,34.9l9.5,3.3v32.1H671V34.9 M670,33.5v37.8h11.5V37.5L670,33.5L670,33.5z"/>
				</g>
			</g>
			<polygon class="st0" points="672.4,37.8 672.4,40.5 679.1,42.9 679.1,40.1 			"/>
			<polygon class="st0" points="672.4,42.9 672.4,45.9 679.1,47.5 679.1,44.9 			"/>
		</g>
		<g>
			<g>
				<rect x="674.2" y="48.4" class="st0" width="4.9" height="21.9"/>
				<g>
					<polygon class="st1" points="679.7,69.7 679.7,49.1 690.2,52.7 690.2,69.7 					"/>
					<path class="st0" d="M680.2,49.8l9.5,3.3v16.2h-9.5V49.8 M679.2,48.4v21.9h11.5V52.3L679.2,48.4L679.2,48.4z"/>
				</g>
			</g>
			<polygon class="st0" points="681.6,52.7 681.6,55.4 688.3,57.8 688.3,55 			"/>
			<polygon class="st0" points="681.6,57.8 681.6,60.8 688.3,62.4 688.3,59.8 			"/>
		</g>
		<g>
			<g>
				<rect x="369.7" y="25.9" class="st0" width="5.9" height="45.4"/>
				<g>
					<polygon class="st1" points="356.5,70.6 356.5,31.1 369.1,26.7 369.1,70.6 					"/>
					<path class="st0" d="M368.5,27.6V70h-11.4V31.5L368.5,27.6 M369.7,25.9l-13.8,4.8v40.6h13.8V25.9L369.7,25.9z"/>
				</g>
			</g>
			<polygon class="st0" points="366.8,31.1 366.8,34.4 358.7,37.2 358.7,33.8 			"/>
			<polygon class="st0" points="366.8,37.2 366.8,40.8 358.7,42.8 358.7,39.6 			"/>
		</g>
		<g>
			<g>
				<rect x="358.6" y="43.7" class="st0" width="5.9" height="26.3"/>
				<g>
					<polygon class="st1" points="345.4,69.4 345.4,49 358,44.6 358,69.4 					"/>
					<path class="st0" d="M357.4,45.4v23.4H346V49.4L357.4,45.4 M358.6,43.7l-13.8,4.8V70h13.8V43.7L358.6,43.7z"/>
				</g>
			</g>
			<polygon class="st0" points="355.7,48.9 355.7,52.2 347.6,55 347.6,51.7 			"/>
			<polygon class="st0" points="355.7,55 355.7,58.6 347.6,60.6 347.6,57.5 			"/>
		</g>
		<rect x="639.7" y="38.6" class="st0" width="22.8" height="31.9"/>
		<rect x="643" y="42.9" class="st1" width="4" height="4"/>
		<rect x="649.1" y="42.9" class="st1" width="4" height="4"/>
		<rect x="655.2" y="42.9" class="st1" width="4" height="4"/>
		<rect x="643" y="49" class="st1" width="4" height="4"/>
		<rect x="649.1" y="49" class="st1" width="4" height="4"/>
		<rect x="655.2" y="49" class="st1" width="4" height="4"/>
		<rect x="643" y="55.1" class="st1" width="4" height="4"/>
		<rect x="649.1" y="55.1" class="st1" width="4" height="4"/>
		<rect x="655.2" y="55.1" class="st1" width="4" height="4"/>
		<rect x="643" y="61.2" class="st1" width="4" height="4.1"/>
		<rect x="649.1" y="61.2" class="st1" width="4" height="8.3"/>
		<rect x="655.2" y="61.2" class="st1" width="4" height="4.1"/>
		<g>
			<rect x="583" y="33.5" class="st1" width="13.3" height="37.1"/>
			<rect x="610.2" y="21.3" class="st1" width="12.5" height="50.9"/>
			<g>
				<path class="st0" d="M621.9,23.1c-3.5,0.5-6.9,1-10.3,1.5c0,16.4,0,30.8,0,47.2c-5.5,0-10.9,0-16.4,0c0-12.6,0-23.2,0-35.9
					c-1.2,0.2-2.3,0.3-3.5,0.5c-2.1,0.3-4.2,0.7-6.2,0.9c-0.5,0.1-0.6,0.3-0.6,0.7c0,9.3,0,18.7,0,28c0,2.4,0,2.7,0,5.1
					c0,0.2,0,0.4,0,0.6c-2.9,0-5.7,0-8.5,0c0-1.6,0-1.1,0-2.8c1,0,2,0,3,0c0.6,0,0.8-0.2,0.8-0.8c0-11.3,0-22.6,0-33.9
					c0-0.3,0-0.7,0-1.1c1.7-0.3,3.4-0.5,5-0.8c4.5-0.7,9.1-1.3,13.6-2.1c1.2-0.2,2.1,0.2,3.2,0.5c0.9,0.2,1.3,0.6,1.4,1.6
					c0.6,5.1,1.3,10.3,1.9,15.4c0.2,1.3,0.3,2.6,0.5,3.9c0.1,0.5,0.6,0.9,0.9,1.3c0.1,0,0.1-0.1,0.2-0.1c0-0.2,0-0.4,0-0.6
					c0-10.4,0-20.8,0-31.3c0-0.5,0.1-0.7,0.7-0.8c5.2-0.7,10.3-1.5,15.5-2.3c1-0.1,2-0.3,2.9-0.4c0.5-0.1,1.1,0,1.6,0.1
					c2.4,0.8,4.7,1.6,7.1,2.4c0.4,0.1,0.6,0.3,0.6,0.8c0,9.2,0,18.5,0,27.7c0,6.6,0,13.2,0,19.8c0,0.2,0,0.3,0,0.6c1,0,1.9,0,2.9,0
					c0,1.6,0,1.2,0,2.8c-5.3,0-10.7,0-16.1,0C621.9,55,621.9,40.1,621.9,23.1z"/>
				<path class="st0" d="M617.6,63c0-1.2,0-2.4,0-3.6c0.7,0,1.5,0,2.2,0c0,1.2,0,2.4,0,3.6C619.1,63,618.4,63,617.6,63z"/>
				<path class="st0" d="M619.8,29.7c-0.7,0.1-1.5,0.2-2.2,0.3c0-1.2,0-2.4,0-3.7c0.7-0.1,1.4-0.2,2.2-0.3
					C619.8,27.3,619.8,28.5,619.8,29.7z"/>
				<path class="st0" d="M617.6,36.5c0-1.2,0-2.4,0-3.6c0.7-0.1,1.4-0.2,2.3-0.2c0,1,0,1.9,0,2.8c0,0.9,0,0.9-0.9,1
					c-0.4,0-0.8,0.1-1.2,0.1C617.7,36.6,617.7,36.5,617.6,36.5z"/>
				<path class="st0" d="M617.6,52.7c0.8,0,1.5-0.1,2.2-0.1c0,1.2,0,2.4,0,3.7c-0.7,0-1.5,0-2.2,0C617.6,55.1,617.6,53.9,617.6,52.7
					z"/>
				<path class="st0" d="M619.8,39.3c0,1.3,0,2.4,0,3.7c-0.7,0.1-1.5,0.1-2.2,0.2c0-1.3,0-2.4,0-3.7
					C618.3,39.4,619.1,39.4,619.8,39.3z"/>
				<path class="st0" d="M617.6,46.1c0.7,0,1.5-0.1,2.2-0.1c0,1.3,0,2.4,0,3.7c-0.7,0-1.5,0-2.2,0C617.6,48.5,617.6,47.3,617.6,46.1
					z"/>
				<path class="st0" d="M590.8,62.3c0-1.3,0-2.5,0-3.7c0.7,0,1.4-0.1,2.2-0.1c0,1.3,0,2.4,0,3.7C592.3,62.2,591.5,62.3,590.8,62.3z
					"/>
				<path class="st0" d="M590.8,45.4c0.7-0.1,1.4-0.1,2.2-0.2c0,1.2,0,2.4,0,3.7c-0.7,0.1-1.4,0.1-2.2,0.2
					C590.8,47.8,590.8,46.7,590.8,45.4z"/>
				<path class="st0" d="M593,51.8c0,1.3,0,2.5,0,3.7c-0.7,0-1.4,0.1-2.2,0.1c0-1.2,0-2.3,0-3.4c0-0.1,0.2-0.2,0.3-0.3
					C591.7,51.9,592.3,51.9,593,51.8z"/>
				<path class="st0" d="M593,38.5c0,1.3,0,2.5,0,3.7c-0.7,0.1-1.4,0.2-2.2,0.3c0-1.2,0-2.3,0-3.4c0-0.1,0.2-0.3,0.3-0.3
					C591.7,38.6,592.3,38.6,593,38.5z"/>
				<path class="st0" d="M593,68.8c-0.7,0-1.4,0-2.2,0c0-1.2,0-2.4,0-3.6c0.7,0,1.4,0,2.2,0C593,66.4,593,67.6,593,68.8z"/>
				<path class="st0" d="M613.4,59.4c0.8,0,1.4,0,2.2,0c0,1.2,0,2.4,0,3.6c-0.6,0-1.3,0-1.9,0c-0.1,0-0.3-0.2-0.3-0.3
					C613.4,61.6,613.4,60.5,613.4,59.4z"/>
				<path class="st0" d="M586.6,68.8c0-1.2,0-2.3,0-3.6c0.7,0,1.4,0,2.1,0c0,1.1,0,2.3,0,3.6C588.1,68.8,587.4,68.8,586.6,68.8z"/>
				<path class="st0" d="M586.6,49.4c0-1.2,0-2.4,0-3.6c0.7-0.1,1.4-0.1,2.2-0.2c0,1.2,0,2.3,0,3.4c0,0.1-0.2,0.2-0.3,0.3
					C587.9,49.3,587.3,49.4,586.6,49.4z"/>
				<path class="st0" d="M613.4,50c0-1.2,0-2.2,0-3.3c0-0.1,0.2-0.3,0.4-0.4c0.6-0.1,1.1-0.1,1.8-0.1c0,1.2,0,2.4,0,3.6
					C614.8,49.9,614.1,49.9,613.4,50z"/>
				<path class="st0" d="M588.8,52.1c0,1.3,0,2.4,0,3.7c-0.7,0-1.4,0.1-2.1,0.1c0-1.2,0-2.4,0-3.6C587.3,52.2,588,52.2,588.8,52.1z"
					/>
				<path class="st0" d="M613.4,43.5c0-1.3,0-2.4,0-3.6c0.7-0.1,1.4-0.1,2.2-0.2c0,0.9,0,1.7,0,2.5c0,1.2,0,1.2-1.1,1.2
					C614.1,43.4,613.8,43.4,613.4,43.5z"/>
				<path class="st0" d="M586.6,39.3c0.7-0.1,1.4-0.2,2.1-0.3c0,1.2,0,2.4,0,3.7c-0.7,0.1-1.4,0.1-2.1,0.2
					C586.6,41.7,586.6,40.5,586.6,39.3z"/>
				<path class="st0" d="M615.5,30.2c-0.7,0.1-1.4,0.2-2.2,0.3c0-1.2,0-2.3,0-3.4c0-0.1,0.2-0.3,0.3-0.3c0.6-0.1,1.2-0.2,1.9-0.2
					C615.5,27.8,615.5,29,615.5,30.2z"/>
				<path class="st0" d="M615.6,33.1c0,1.3,0,2.4,0,3.7c-0.7,0.1-1.4,0.1-2.1,0.2c0-1.2,0-2.4,0-3.6
					C614.1,33.3,614.8,33.2,615.6,33.1z"/>
				<path class="st0" d="M586.6,62.4c0-1.3,0-2.4,0-3.7c0.7,0,1.4,0,2.1,0c0,1.1,0,2.3,0,3.6C588.1,62.4,587.4,62.4,586.6,62.4z"/>
				<path class="st0" d="M613.4,52.8c0.7,0,1.4,0,2.1,0c0,1.1,0,2.3,0,3.5c-0.7,0-1.4,0-2.1,0C613.4,55.2,613.4,54,613.4,52.8z"/>
			</g>
		</g>
		<g>
			<rect x="522.4" y="35.7" class="st1" width="48.4" height="33.9"/>
			<rect x="540.1" y="17.7" class="st1" width="14.6" height="13.5"/>
			<g>
				<path class="st0" d="M554.8,61.1c1.1,0,2.2,0,3.3,0c3.8,0,7.6,0,11.3,0c0.5,0,0.7-0.1,0.7-0.6c0-7.6,0-15.3,0-22.9
					c0-0.1,0-0.2,0-0.4c-15.3,0-30.6,0-46,0c0,7.9,0,15.9,0,23.9c5.1,0,10.1,0,15.2,0c0,2.8,0,5.6,0,8.5c-0.2,0-0.5,0-0.7,0
					c-5.6,0-11.2,0-16.8,0c-1,0-1.2-0.2-1.2-1.2c0-10.2,0-20.3,0-30.5c0-0.6-0.1-0.9-0.8-0.8c-0.3,0-0.9-0.1-0.9-0.2
					c-0.1-0.5-0.2-1.3,0.1-1.6c1.5-1.6,3.1-3.2,4.7-4.7c0.2-0.2,0.7-0.3,1-0.3c4,0,8.1,0,12.1,0c0.2,0,0.4,0,0.7,0c0-4,0-7.9,0-12
					c-0.4,0-0.8,0.1-1.1,0c-0.2,0-0.5-0.3-0.5-0.5c-0.1-0.7,0-1.3,0.6-1.9c1.4-1.3,2.6-2.6,4-3.9c0.3-0.3,0.8-0.5,1.2-0.5
					c3.5,0,7,0,10.5,0c0.4,0,0.9,0.2,1.2,0.5c1.5,1.4,2.9,2.8,4.3,4.3c0.3,0.3,0.5,1.4,0.3,1.8c-0.1,0.1-0.4,0.2-0.6,0.2
					c-0.3,0-0.7,0-1.1,0c0,4,0,7.9,0,12c0.3,0,0.6,0,0.9,0c4,0,8,0,12,0c0.4,0,0.9,0.2,1.2,0.5c1.4,1.4,2.8,2.8,4.3,4.2
					c0.3,0.3,0.5,1.4,0.3,1.8c-0.1,0.1-0.3,0.2-0.5,0.2c-0.3,0-0.7,0-1.1,0c0,0.4,0,0.7,0,1c0,10.1,0,20.1,0,30.2
					c0,1.1-0.1,1.3-1.3,1.3c-5.6,0-11.2,0-16.7,0c-0.6,0-0.8-0.2-0.8-0.8c0-2.4,0-4.7,0-7.1C554.7,61.5,554.8,61.4,554.8,61.1z
					 M541.1,18.4c0,4,0,8,0,11.9c4,0,7.9,0,11.9,0c0-0.1,0-0.2,0-0.3c0-3.7,0-7.4,0-11.1c0-0.5-0.3-0.5-0.6-0.5c-2.5,0-5,0-7.5,0
					C543.7,18.4,542.5,18.4,541.1,18.4z"/>
				<path class="st0" d="M544.6,62.7c0-4,0-7.8,0-11.8c1.7,0,3.3,0,5,0c0,3.9,0,7.8,0,11.8C547.9,62.7,546.3,62.7,544.6,62.7z"/>
				<path class="st0" d="M558.1,57.6c-1.6,0-3.2,0-4.7,0c-0.1,0-0.4-0.3-0.4-0.4c0-2,0-4,0-6c0-0.1,0.2-0.4,0.3-0.4
					c1.6,0,3.1,0,4.7,0C558.1,53,558.1,55.3,558.1,57.6z"/>
				<path class="st0" d="M561.6,50.9c1.7,0,3.3,0,5,0c0,2.2,0,4.5,0,6.7c-1.7,0-3.3,0-5,0C561.6,55.3,561.6,53.1,561.6,50.9z"/>
				<path class="st0" d="M536.1,50.9c1.7,0,3.3,0,5,0c0,2.3,0,4.5,0,6.7c-1.7,0-3.3,0-5,0C536.1,55.4,536.1,53.1,536.1,50.9z"/>
				<path class="st0" d="M532.5,50.9c0,2.3,0,4.5,0,6.7c-1.7,0-3.3,0-5,0c0-2.2,0-4.4,0-6.7C529.2,50.9,530.8,50.9,532.5,50.9z"/>
				<path class="st0" d="M566.7,40.6c0,2.3,0,4.5,0,6.7c-1.7,0-3.3,0-5,0c0-2.2,0-4.5,0-6.7C563.3,40.6,564.9,40.6,566.7,40.6z"/>
				<path class="st0" d="M553.1,47.3c0-2.3,0-4.4,0-6.7c1.7,0,3.3,0,5,0c0,2.2,0,4.4,0,6.7C556.4,47.3,554.8,47.3,553.1,47.3z"/>
				<path class="st0" d="M549.6,40.6c0,2.3,0,4.5,0,6.7c-1.7,0-3.3,0-5,0c0-2.2,0-4.4,0-6.7C546.2,40.6,547.9,40.6,549.6,40.6z"/>
				<path class="st0" d="M536,47.3c0-2.3,0-4.5,0-6.7c1.7,0,3.3,0,5,0c0,2.2,0,4.5,0,6.7C539.4,47.3,537.7,47.3,536,47.3z"/>
				<path class="st0" d="M527.5,47.3c0-2.2,0-4.5,0-6.7c1.7,0,3.3,0,5,0c0,2.2,0,4.4,0,6.7C530.9,47.3,529.2,47.3,527.5,47.3z"/>
				<path class="st0" d="M541.1,66.1c0-0.6,0-1.1,0-1.6c3.9,0,7.9,0,11.8,0c0,0.5,0,1.1,0,1.6C549,66.1,545.1,66.1,541.1,66.1z"/>
				<path class="st0" d="M541.1,67.9c4,0,7.9,0,11.8,0c0,0.6,0,1.1,0,1.6c-4,0-7.9,0-11.8,0C541.1,69,541.1,68.5,541.1,67.9z"/>
				<path class="st0" d="M544.6,28.6c0-2.3,0-4.5,0-6.7c1.7,0,3.3,0,5,0c0,2.2,0,4.5,0,6.7C547.9,28.6,546.3,28.6,544.6,28.6z"/>
			</g>
		</g>
		<g>
			<path class="st0" d="M478.2,70.8c0-10.1,0-20.2,0-30.4c-0.6,0.4-1,0.8-1.5,1.2c-1-1.5-2-2.9-3.1-4.4c7.1-5.5,14.1-10.9,21.2-16.4
				c2.1,1.6,4.2,3.2,6.5,4.9c0-1.7,0-3.3,0-4.9c1.9,0,3.8,0,5.8,0c0,0.2,0,0.5,0,0.7c0,2.7,0,5.4,0,8.2c0,0.4,0.1,0.7,0.5,1
				c2.6,2,5.3,4.1,7.9,6.1c0.2,0.1,0.3,0.3,0.5,0.4c-1,1.5-2,2.9-3.1,4.4c-0.5-0.4-0.9-0.7-1.5-1.2c0,10.2,0,20.3,0,30.4
				C500.3,70.8,489.3,70.8,478.2,70.8z M497.8,57c-1.9,0-3.7,0-5.6,0c0,3.8,0,7.5,0,11.2c1.9,0,3.7,0,5.6,0
				C497.8,64.4,497.8,60.7,497.8,57z M488.6,57c-1.9,0-3.8,0-5.6,0c0,1.8,0,3.5,0,5.2c1.9,0,3.7,0,5.6,0
				C488.6,60.5,488.6,58.8,488.6,57z M501.6,62.2c1.9,0,3.8,0,5.6,0c0-1.8,0-3.5,0-5.2c-1.9,0-3.8,0-5.6,0
				C501.6,58.8,501.6,60.5,501.6,62.2z M488.5,39.4c-1.9,0-3.8,0-5.6,0c0,1.7,0,3.4,0,5.1c1.9,0,3.7,0,5.6,0
				C488.5,42.8,488.5,41.2,488.5,39.4z M492.1,44.6c1.9,0,3.7,0,5.6,0c0-1.7,0-3.4,0-5.2c-1.9,0-3.8,0-5.6,0
				C492.1,41.2,492.1,42.8,492.1,44.6z M501.6,39.4c0,1.8,0,3.5,0,5.2c1.9,0,3.7,0,5.6,0c0-1.7,0-3.4,0-5.2
				C505.3,39.4,503.5,39.4,501.6,39.4z M482.8,48.1c0,1.8,0,3.5,0,5.2c1.9,0,3.7,0,5.6,0c0-1.7,0-3.5,0-5.2
				C486.6,48.1,484.7,48.1,482.8,48.1z M497.7,53.3c0-1.8,0-3.5,0-5.2c-1.9,0-3.7,0-5.6,0c0,1.7,0,3.4,0,5.2
				C494,53.3,495.9,53.3,497.7,53.3z M501.6,48.1c0,1.8,0,3.5,0,5.2c1.9,0,3.8,0,5.6,0c0-1.8,0-3.5,0-5.2
				C505.3,48.1,503.5,48.1,501.6,48.1z"/>
			<path class="st1" d="M497.8,57c0,3.7,0,7.4,0,11.2c-1.9,0-3.7,0-5.6,0c0-3.7,0-7.4,0-11.2C494,57,495.9,57,497.8,57z"/>
			<path class="st1" d="M488.6,57c0,1.8,0,3.4,0,5.2c-1.9,0-3.7,0-5.6,0c0-1.7,0-3.4,0-5.2C484.8,57,486.7,57,488.6,57z"/>
			<path class="st1" d="M501.6,62.2c0-1.7,0-3.4,0-5.2c1.9,0,3.7,0,5.6,0c0,1.7,0,3.4,0,5.2C505.3,62.2,503.5,62.2,501.6,62.2z"/>
			<path class="st1" d="M488.5,39.4c0,1.7,0,3.4,0,5.1c-1.9,0-3.7,0-5.6,0c0-1.7,0-3.4,0-5.1C484.7,39.4,486.5,39.4,488.5,39.4z"/>
			<path class="st1" d="M492.1,44.6c0-1.7,0-3.4,0-5.2c1.9,0,3.7,0,5.6,0c0,1.7,0,3.4,0,5.2C495.9,44.6,494,44.6,492.1,44.6z"/>
			<path class="st1" d="M501.6,39.4c1.9,0,3.7,0,5.6,0c0,1.7,0,3.4,0,5.2c-1.9,0-3.7,0-5.6,0C501.6,42.9,501.6,41.2,501.6,39.4z"/>
			<path class="st1" d="M482.8,48.1c1.9,0,3.7,0,5.6,0c0,1.7,0,3.5,0,5.2c-1.9,0-3.7,0-5.6,0C482.8,51.6,482.8,49.9,482.8,48.1z"/>
			<path class="st1" d="M497.7,53.3c-1.9,0-3.7,0-5.6,0c0-1.7,0-3.4,0-5.2c1.9,0,3.7,0,5.6,0C497.7,49.8,497.7,51.5,497.7,53.3z"/>
			<path class="st1" d="M501.6,48.1c1.9,0,3.7,0,5.6,0c0,1.7,0,3.4,0,5.2c-1.8,0-3.7,0-5.6,0C501.6,51.6,501.6,49.9,501.6,48.1z"/>
		</g>
		<g>
			<path class="st0" d="M479.2,70.5c-2.1,0-3.9,0-6,0c0-2.6,0-5.2,0-7.5c-2.3-0.7-4.3-1-6-1.9c-2.9-1.5-4-4.1-4.1-7.3
				c0-1.2-0.4-2.5-1.1-3.5c-3.7-5.1-1.4-11.7,4.7-13.4c0.9-0.2,1.8-0.9,2.3-1.7c3.8-5.4,10.5-5.4,14.4-0.1c0.6,0.8,1.6,1.5,2.6,1.8
				c5.9,1.7,8.1,8.4,4.4,13.3c-0.5,0.7-1.1,1.6-1.2,2.4c-0.5,7.1-2.2,8.9-9.8,9.9C479.2,65.1,479.2,67.7,479.2,70.5z M478.9,59.6
				c5,1.1,8.7-2.1,7.9-6.3c-0.3-1.9,0.4-2.8,1.3-4.2c1-1.7,1.8-4.2,1.2-5.9c-0.6-1.7-2.7-3.4-4.6-4c-1.6-0.5-2.6-0.9-3.3-2.4
				c-1-2.2-2.9-3.2-5.3-3.2c-2.5,0-4.6,1-5.5,3.3c-0.6,1.6-1.5,2-3.1,2.3c-5.2,1-7.1,6.6-3.5,10.2c1.3,1.3,1.6,2.5,1.3,4.2
				c-0.6,3.3,2.1,6.5,5.5,6.8c1.7,0.2,2.5-0.5,1.8-2.1c-0.8-1.8-1.9-3.4-3-5.4c2.7-2.9,3.2,1.5,5,1.8c0.5-1.5-0.8-4.8,3.1-3.5
				c0.1,1.2,0.2,2.3,0.4,3.4c1.7-0.6,2.2-4.6,4.7-1.8C481.2,55.1,480.1,57.3,478.9,59.6z"/>
			<path class="st1" d="M478.9,59.6c1.2-2.3,2.4-4.5,3.7-7c-2.5-2.8-3,1.2-4.7,1.8c-0.1-1.1-0.2-2.2-0.4-3.4c-3.9-1.3-2.6,2-3.1,3.5
				c-1.8-0.3-2.3-4.7-5-1.8c1.1,2,2.2,3.6,3,5.4c0.7,1.6-0.1,2.3-1.8,2.1c-3.3-0.3-6-3.5-5.5-6.8c0.3-1.8,0.1-2.9-1.3-4.2
				c-3.6-3.6-1.6-9.2,3.5-10.2c1.5-0.3,2.4-0.7,3.1-2.3c0.9-2.3,3-3.3,5.5-3.3c2.4,0,4.3,1.1,5.3,3.2c0.7,1.6,1.7,1.9,3.3,2.4
				c1.8,0.6,4,2.3,4.6,4c0.6,1.7-0.2,4.3-1.2,5.9c-0.9,1.4-1.6,2.4-1.3,4.2C487.6,57.5,483.9,60.8,478.9,59.6z"/>
		</g>
		<g>
			<path class="st0" d="M384,71.2c0-2.3,0,0.4,0-1.9c2.1,0,4.1,0,6.3,0c0-17.2,0-34.4,0-51.5c-1.4-0.3-1.4-0.3-1.4-1.8
				c0-0.5,0-1,0-1.5c9.9,0,19.7,0,29.6,0c0,1,0.1,1.9,0,2.9c0,0.2-0.6,0.3-1,0.5c0,0.1,0,0.2,0,0.4c0,7.3,0,14.6,0,21.8
				c0,0.7,0.1,0.9,0.8,0.9c1.4-0.1,2.9,0,4.4,0c0-0.4,0-0.7,0-1c0-10.9,0-21.8,0-32.7c0-0.7,0.2-0.9,0.8-1.1c7.5-2,15-4.1,22.5-6.2
				c0.2-0.1,0.5-0.1,0.8-0.2c0,23.2,0,46.3,0,69.5c2.2,0,4.3,0,6.5,0c0,2.4,0-0.3,0,2C430.2,71.2,407.2,71.2,384,71.2z M409.6,21.3
				c0,14,0,27.9,0,41.9c0.8,0,1.7,0,2.5,0c1,0,1,0,1-1c0-13.3,0-26.7,0-40c0-0.3,0-0.6,0-0.9C411.9,21.3,410.8,21.3,409.6,21.3z
				 M396.9,21.3c-1.2,0-2.3,0-3.5,0c0,1.7,0,3.3,0,4.9c1.1,0,2.1,0,3.1,0c0.1,0,0.3-0.2,0.3-0.4C396.9,24.3,396.9,22.8,396.9,21.3z
				 M433,21.3c0,1.6,0,3.1,0,4.6c0,0.1,0.2,0.4,0.3,0.4c1,0,2.1,0,3.1,0c0-1.7,0-3.3,0-5C435.3,21.3,434.2,21.3,433,21.3z
				 M443.9,30.4c-1.1,0-2.1,0-3,0c-0.2,0-0.4,0.3-0.4,0.4c0,1.4,0,2.8,0,4.1c0,0.2,0.3,0.4,0.4,0.4c0.9,0,1.7,0,2.6,0
				c0.2,0,0.4-0.2,0.4-0.4C443.9,33.6,443.9,32.1,443.9,30.4z M443.9,63.1c0-1.7,0-3.3,0-4.9c-1.2,0-2.3,0-3.4,0c0,1.6,0,3.2,0,4.9
				C441.6,63.1,442.7,63.1,443.9,63.1z M436.4,58.2c-1.2,0-2.3,0-3.5,0c0,1.6,0,3.1,0,4.6c0,0.1,0.2,0.4,0.4,0.4c1,0,2,0,3.1,0
				C436.4,61.5,436.4,59.9,436.4,58.2z M425.7,58.2c0,1.6,0,3.3,0,4.9c1.2,0,2.3,0,3.4,0c0-1.7,0-3.3,0-4.9
				C427.9,58.2,426.8,58.2,425.7,58.2z M393.4,58.2c0,1.7,0,3.3,0,5c1,0,2.1,0,3.1,0c0.1,0,0.4-0.2,0.4-0.3c0-1.5,0-3,0-4.6
				C395.7,58.2,394.6,58.2,393.4,58.2z M443.9,39.7c-1.1,0-2.1,0-3,0c-0.2,0-0.4,0.3-0.4,0.5c-0.1,0.7,0,1.4,0,2.1
				c0,0.8,0,1.6,0,2.3c1.3,0,2.4,0,3.5,0C443.9,43,443.9,41.4,443.9,39.7z M436.4,39.7c-1.1,0-2.1,0-3.1,0c-0.1,0-0.3,0.2-0.3,0.3
				c0,1.5,0,3.1,0,4.6c1.2,0,2.3,0,3.4,0C436.4,43,436.4,41.4,436.4,39.7z M429,44.7c0-1.7,0-3.3,0-4.9c-1.2,0-2.3,0-3.4,0
				c0,1.7,0,3.3,0,4.9C426.8,44.7,427.9,44.7,429,44.7z M396.9,44.7c0-1.6,0-3.1,0-4.6c0-0.1-0.2-0.4-0.3-0.4c-1.1,0-2.1,0-3.2,0
				c0,1.7,0,3.3,0,5C394.6,44.7,395.6,44.7,396.9,44.7z M433,35.4c1.2,0,2.3,0,3.4,0c0-1.7,0-3.3,0-4.9c-1.1,0-2.2,0-3.4,0
				C433,32.1,433,33.7,433,35.4z M429,35.4c0-1.7,0-3.3,0-5c-1.1,0-2.2,0-3.3,0c0,1.7,0,3.3,0,5C426.8,35.4,427.9,35.4,429,35.4z
				 M393.4,35.5c1.1,0,2.1,0,3,0c0.2,0,0.4-0.3,0.4-0.4c0-1.4,0-2.7,0-4.1c0-0.2-0.3-0.4-0.4-0.4c-0.9,0-1.7,0-2.6,0
				c-0.2,0-0.4,0.2-0.4,0.4C393.4,32.3,393.4,33.9,393.4,35.5z M440.4,21.3c0,1.6,0,3.1,0,4.6c0,0.1,0.2,0.4,0.3,0.4
				c1.1,0,2.1,0,3.2,0c0-1.7,0-3.3,0-5C442.8,21.3,441.7,21.3,440.4,21.3z M429,26.2c0-1.7,0-3.3,0-5c-1.1,0-2.2,0-3.4,0
				c0,1.6,0,3.1,0,4.6c0,0.1,0.2,0.4,0.3,0.4C427,26.3,428,26.2,429,26.2z M393.4,53.9c1.1,0,2.1,0,3,0c0.2,0,0.4-0.3,0.4-0.5
				c0-0.8,0-1.6,0-2.4c0-0.7,0-1.3,0-2c-1.3,0-2.4,0-3.5,0C393.4,50.6,393.4,52.2,393.4,53.9z M436.4,53.9c0-1.7,0-3.3,0-4.9
				c-1.2,0-2.3,0-3.4,0c0,1.7,0,3.3,0,4.9C434.2,53.9,435.3,53.9,436.4,53.9z M440.5,49c0,1.7,0,3.3,0,4.9c1.2,0,2.3,0,3.4,0
				c0-1.7,0-3.3,0-4.9C442.7,49,441.6,49,440.5,49z M440.4,12.1c0,1.5,0,3,0,4.5c0,0.1,0.2,0.4,0.3,0.4c1,0,2.1,0,3.1,0
				c0-1.7,0-3.3,0-4.9C442.7,12.1,441.6,12.1,440.4,12.1z M436.4,12.1c-1.2,0-2.3,0-3.4,0c0,1.7,0,3.2,0,4.9c1.2,0,2.3,0,3.4,0
				C436.4,15.3,436.4,13.7,436.4,12.1z M429.1,12c-1.2,0-2.3,0-3.4,0c0,1.7,0,3.3,0,4.9c1.2,0,2.2,0,3.4,0
				C429.1,15.3,429.1,13.7,429.1,12z M425.7,53.9c1.2,0,2.3,0,3.4,0c0-1.7,0-3.3,0-4.9c-1.1,0-2.2,0-3.4,0
				C425.7,50.6,425.7,52.2,425.7,53.9z"/>
			<path class="st1" d="M409.6,21.3c1.2,0,2.3,0,3.5,0c0,0.3,0,0.6,0,0.9c0,13.3,0,26.7,0,40c0,1,0,1-1,1c-0.8,0-1.6,0-2.5,0
				C409.6,49.1,409.6,35.2,409.6,21.3z"/>
			<path class="st1" d="M396.9,21.3c0,1.6,0,3.1,0,4.6c0,0.1-0.2,0.4-0.3,0.4c-1,0-2,0-3.1,0c0-1.7,0-3.3,0-4.9
				C394.5,21.3,395.6,21.3,396.9,21.3z"/>
			<path class="st1" d="M433,21.3c1.2,0,2.3,0,3.4,0c0,1.6,0,3.2,0,5c-1,0-2.1,0-3.1,0c-0.1,0-0.3-0.3-0.3-0.4
				C432.9,24.3,433,22.8,433,21.3z"/>
			<path class="st1" d="M443.9,30.4c0,1.6,0,3.1,0,4.7c0,0.1-0.3,0.4-0.4,0.4c-0.9,0-1.7,0-2.6,0c-0.2,0-0.4-0.3-0.4-0.4
				c0-1.4,0-2.8,0-4.1c0-0.2,0.3-0.4,0.4-0.4C441.9,30.4,442.8,30.4,443.9,30.4z"/>
			<path class="st1" d="M443.9,63.1c-1.2,0-2.3,0-3.4,0c0-1.7,0-3.2,0-4.9c1.1,0,2.3,0,3.4,0C443.9,59.8,443.9,61.4,443.9,63.1z"/>
			<path class="st1" d="M436.4,58.2c0,1.7,0,3.3,0,5c-1,0-2.1,0-3.1,0c-0.1,0-0.4-0.2-0.4-0.4c0-1.5,0-3,0-4.6
				C434.2,58.2,435.2,58.2,436.4,58.2z"/>
			<path class="st1" d="M425.7,58.2c1.1,0,2.2,0,3.4,0c0,1.6,0,3.3,0,4.9c-1.1,0-2.2,0-3.4,0C425.7,61.4,425.7,59.8,425.7,58.2z"/>
			<path class="st1" d="M393.4,58.2c1.2,0,2.3,0,3.5,0c0,1.6,0,3.1,0,4.6c0,0.1-0.2,0.3-0.4,0.3c-1,0-2,0-3.1,0
				C393.4,61.5,393.4,59.9,393.4,58.2z"/>
			<path class="st1" d="M443.9,39.7c0,1.7,0,3.3,0,4.9c-1.1,0-2.2,0-3.5,0c0-0.8,0-1.5,0-2.3c0-0.7,0-1.4,0-2.1
				c0-0.2,0.3-0.5,0.4-0.5C441.9,39.7,442.9,39.7,443.9,39.7z"/>
			<path class="st1" d="M436.4,39.7c0,1.7,0,3.3,0,4.9c-1.1,0-2.2,0-3.4,0c0-1.5,0-3.1,0-4.6c0-0.1,0.2-0.3,0.3-0.3
				C434.3,39.7,435.3,39.7,436.4,39.7z"/>
			<path class="st1" d="M429,44.7c-1.2,0-2.2,0-3.4,0c0-1.6,0-3.2,0-4.9c1.1,0,2.2,0,3.4,0C429,41.4,429,43,429,44.7z"/>
			<path class="st1" d="M396.9,44.7c-1.2,0-2.3,0-3.4,0c0-1.6,0-3.2,0-5c1,0,2.1,0,3.2,0c0.1,0,0.3,0.2,0.3,0.4
				C396.9,41.6,396.9,43.1,396.9,44.7z"/>
			<path class="st1" d="M433,35.4c0-1.7,0-3.3,0-4.9c1.1,0,2.2,0,3.4,0c0,1.7,0,3.3,0,4.9C435.3,35.4,434.2,35.4,433,35.4z"/>
			<path class="st1" d="M429,35.4c-1.1,0-2.2,0-3.3,0c0-1.6,0-3.3,0-5c1.1,0,2.2,0,3.3,0C429,32.1,429,33.8,429,35.4z"/>
			<path class="st1" d="M393.4,35.5c0-1.6,0-3.1,0-4.7c0-0.1,0.3-0.4,0.4-0.4c0.9,0,1.7,0,2.6,0c0.2,0,0.4,0.3,0.4,0.4
				c0,1.4,0,2.7,0,4.1c0,0.2-0.3,0.4-0.4,0.4C395.4,35.5,394.5,35.5,393.4,35.5z"/>
			<path class="st1" d="M440.4,21.3c1.2,0,2.3,0,3.5,0c0,1.6,0,3.2,0,5c-1.1,0-2.1,0-3.2,0c-0.1,0-0.3-0.2-0.3-0.4
				C440.4,24.3,440.4,22.8,440.4,21.3z"/>
			<path class="st1" d="M429,26.2c-1,0-2,0-3,0c-0.1,0-0.3-0.2-0.3-0.4c0-1.5,0-3,0-4.6c1.2,0,2.3,0,3.4,0
				C429,22.9,429,24.5,429,26.2z"/>
			<path class="st1" d="M393.4,53.9c0-1.7,0-3.3,0-4.9c1.1,0,2.2,0,3.5,0c0,0.7,0,1.3,0,2c0,0.8,0,1.6,0,2.4c0,0.2-0.3,0.5-0.4,0.5
				C395.4,53.9,394.5,53.9,393.4,53.9z"/>
			<path class="st1" d="M436.4,53.9c-1.1,0-2.2,0-3.4,0c0-1.6,0-3.2,0-4.9c1.1,0,2.2,0,3.4,0C436.4,50.6,436.4,52.2,436.4,53.9z"/>
			<path class="st1" d="M440.5,49c1.2,0,2.2,0,3.4,0c0,1.6,0,3.2,0,4.9c-1.1,0-2.2,0-3.4,0C440.5,52.2,440.5,50.7,440.5,49z"/>
			<path class="st1" d="M440.4,12.1c1.2,0,2.3,0,3.5,0c0,1.6,0,3.2,0,4.9c-1,0-2.1,0-3.1,0c-0.1,0-0.3-0.2-0.3-0.4
				C440.4,15.1,440.4,13.6,440.4,12.1z"/>
			<path class="st1" d="M436.4,12.1c0,1.7,0,3.2,0,4.9c-1.1,0-2.3,0-3.4,0c0-1.6,0-3.2,0-4.9C434.1,12.1,435.2,12.1,436.4,12.1z"/>
			<path class="st1" d="M429.1,12c0,1.7,0,3.3,0,4.9c-1.1,0-2.2,0-3.4,0c0-1.6,0-3.2,0-4.9C426.8,12,427.9,12,429.1,12z"/>
			<path class="st1" d="M425.7,53.9c0-1.6,0-3.2,0-4.9c1.1,0,2.2,0,3.4,0c0,1.6,0,3.2,0,4.9C427.9,53.9,426.8,53.9,425.7,53.9z"/>
		</g>
		<g>
			<rect x="336.8" y="60.9" class="st1" width="6.9" height="9.1"/>
			<g>
				<path class="st0" d="M345.7,69.8c-0.9,0-1.9,0-2.8,0c0-2.7,0-5.4,0-8.1c-1.8,0-3.5,0-5.3,0c0,2.7,0,5.4,0,8.1
					c-8.4,0-16.8,0-25.1,0c0-0.1,0-0.3,0-0.4c0-6.1,0-12.2,0-18.4c0-0.3,0.1-0.4,0.3-0.5c3-1.5,5.9-3,8.9-4.5c0.2-0.1,0.4-0.1,0.6,0
					c1.4,0.7,2.7,1.4,4.1,2.1c0.1,0.1,0.2,0.1,0.4,0.2c0-5.6,0-11.1,0-16.6c6.4,0,12.7,0,19.1,0C345.7,44.4,345.7,57.1,345.7,69.8z
					 M339.3,54.1c0,1,0,2.1,0,3.1c1,0,2.1,0,3.1,0c0-1,0-2,0-3.1C341.4,54.1,340.4,54.1,339.3,54.1z M337.7,57.2c0-1.1,0-2.1,0-3.1
					c-1,0-2,0-3.1,0c0,1,0,2.1,0,3.1C335.7,57.2,336.7,57.2,337.7,57.2z M329.9,54.1c0,1,0,2.1,0,3.1c1,0,2.1,0,3.1,0
					c0-1,0-2.1,0-3.1C331.9,54.1,330.9,54.1,329.9,54.1z M342.4,49.4c-1,0-2.1,0-3.1,0c0,1,0,2.1,0,3.1c1,0,2.1,0,3.1,0
					C342.4,51.4,342.4,50.4,342.4,49.4z M334.6,49.4c0,1.1,0,2.1,0,3.1c1,0,2,0,3.1,0c0-1,0-2.1,0-3.1
					C336.7,49.4,335.7,49.4,334.6,49.4z M329.9,52.5c1.1,0,2.1,0,3.1,0c0-1,0-2.1,0-3.1c-1,0-2.1,0-3.1,0
					C329.9,50.4,329.9,51.4,329.9,52.5z M342.4,44.7c-1.1,0-2.1,0-3.1,0c0,1,0,2.1,0,3.1c1,0,2.1,0,3.1,0
					C342.4,46.7,342.4,45.7,342.4,44.7z M334.6,44.7c0,1,0,2.1,0,3.1c1,0,2.1,0,3.1,0c0-1,0-2.1,0-3.1
					C336.7,44.7,335.7,44.7,334.6,44.7z M329.9,47.8c1,0,2.1,0,3.1,0c0-1,0-2.1,0-3.1c-1,0-2.1,0-3.1,0
					C329.9,45.7,329.9,46.7,329.9,47.8z M342.4,40c-1,0-2.1,0-3.1,0c0,1,0,2.1,0,3.1c1,0,2.1,0,3.1,0C342.4,42,342.4,41,342.4,40z
					 M337.7,40c-1,0-2.1,0-3.1,0c0,1,0,2.1,0,3.1c1,0,2.1,0,3.1,0C337.7,42,337.7,41,337.7,40z M329.9,43.1c1.1,0,2.1,0,3.1,0
					c0-1,0-2.1,0-3.1c-1,0-2.1,0-3.1,0C329.9,41,329.9,42,329.9,43.1z M339.3,35.3c0,1.1,0,2.1,0,3.1c1,0,2,0,3.1,0c0-1,0-2.1,0-3.1
					C341.4,35.3,340.4,35.3,339.3,35.3z M337.7,35.3c-1,0-2.1,0-3.1,0c0,1,0,2.1,0,3.1c1,0,2.1,0,3.1,0
					C337.7,37.4,337.7,36.3,337.7,35.3z M329.9,38.4c1.1,0,2.1,0,3.1,0c0-1,0-2.1,0-3.1c-1,0-2.1,0-3.1,0
					C329.9,36.4,329.9,37.4,329.9,38.4z M323.1,58.6c-0.8,0-1.5,0-2.3,0c0,0.8,0,1.5,0,2.3c0.8,0,1.5,0,2.3,0
					C323.1,60.2,323.1,59.4,323.1,58.6z M324.3,57.4c0.8,0,1.5,0,2.3,0c0-0.8,0-1.5,0-2.3c-0.8,0-1.5,0-2.3,0
					C324.3,55.9,324.3,56.6,324.3,57.4z M323,57.4c0-0.8,0-1.6,0-2.3c-0.8,0-1.5,0-2.3,0c0,0.7,0,1.4,0,2.1c0,0.1,0.2,0.2,0.2,0.2
					C321.6,57.4,322.3,57.4,323,57.4z M324.3,60.9c0.8,0,1.6,0,2.3,0c0-0.6,0-1.1,0-1.6c0-0.8,0.1-0.7-0.7-0.7c-0.6,0-1.1,0-1.7,0
					C324.3,59.4,324.3,60.2,324.3,60.9z M320.8,62.1c0,0.8,0,1.5,0,2.3c0.8,0,1.5,0,2.3,0c0-0.8,0-1.5,0-2.3
					C322.3,62.1,321.5,62.1,320.8,62.1z M324.3,62.1c0,0.8,0,1.5,0,2.3c0.8,0,1.5,0,2.3,0c0-0.8,0-1.5,0-2.3
					C325.8,62.1,325,62.1,324.3,62.1z M317.2,60.9c0.8,0,1.5,0,2.3,0c0-0.8,0-1.5,0-2.3c-0.8,0-1.5,0-2.3,0
					C317.2,59.4,317.2,60.2,317.2,60.9z M317.2,57.4c0.8,0,1.5,0,2.3,0c0-0.8,0-1.5,0-2.3c-0.8,0-1.5,0-2.3,0
					C317.2,55.9,317.2,56.6,317.2,57.4z M319.5,64.5c0-0.8,0-1.6,0-2.3c-0.8,0-1.5,0-2.3,0c0,0.8,0,1.5,0,2.3
					C318,64.5,318.7,64.5,319.5,64.5z"/>
				<path class="st1" d="M339.3,54.1c1,0,2.1,0,3.1,0c0,1,0,2,0,3.1c-1,0-2,0-3.1,0C339.3,56.1,339.3,55.1,339.3,54.1z"/>
				<path class="st1" d="M337.7,57.2c-1,0-2,0-3.1,0c0-1,0-2.1,0-3.1c1,0,2,0,3.1,0C337.7,55.1,337.7,56.1,337.7,57.2z"/>
				<path class="st1" d="M329.9,54.1c1,0,2,0,3.1,0c0,1,0,2,0,3.1c-1,0-2,0-3.1,0C329.9,56.1,329.9,55.1,329.9,54.1z"/>
				<path class="st1" d="M342.4,49.4c0,1,0,2,0,3.1c-1,0-2,0-3.1,0c0-1,0-2,0-3.1C340.3,49.4,341.4,49.4,342.4,49.4z"/>
				<path class="st1" d="M334.6,49.4c1,0,2,0,3.1,0c0,1,0,2.1,0,3.1c-1,0-2,0-3.1,0C334.6,51.4,334.6,50.4,334.6,49.4z"/>
				<path class="st1" d="M329.9,52.5c0-1,0-2,0-3.1c1,0,2,0,3.1,0c0,1,0,2,0,3.1C331.9,52.5,330.9,52.5,329.9,52.5z"/>
				<path class="st1" d="M342.4,44.7c0,1,0,2,0,3.1c-1,0-2,0-3.1,0c0-1,0-2,0-3.1C340.3,44.7,341.4,44.7,342.4,44.7z"/>
				<path class="st1" d="M334.6,44.7c1,0,2.1,0,3.1,0c0,1,0,2,0,3.1c-1,0-2,0-3.1,0C334.6,46.8,334.6,45.7,334.6,44.7z"/>
				<path class="st1" d="M329.9,47.8c0-1,0-2.1,0-3.1c1,0,2,0,3.1,0c0,1,0,2,0,3.1C332,47.8,330.9,47.8,329.9,47.8z"/>
				<path class="st1" d="M342.4,40c0,1,0,2,0,3.1c-1,0-2,0-3.1,0c0-1,0-2,0-3.1C340.3,40,341.4,40,342.4,40z"/>
				<path class="st1" d="M337.7,40c0,1,0,2,0,3.1c-1,0-2,0-3.1,0c0-1,0-2,0-3.1C335.7,40,336.7,40,337.7,40z"/>
				<path class="st1" d="M329.9,43.1c0-1,0-2,0-3.1c1,0,2,0,3.1,0c0,1,0,2,0,3.1C331.9,43.1,330.9,43.1,329.9,43.1z"/>
				<path class="st1" d="M339.3,35.3c1,0,2,0,3.1,0c0,1,0,2.1,0,3.1c-1,0-2,0-3.1,0C339.3,37.4,339.3,36.4,339.3,35.3z"/>
				<path class="st1" d="M337.7,35.3c0,1,0,2,0,3.1c-1,0-2,0-3.1,0c0-1,0-2,0-3.1C335.7,35.3,336.7,35.3,337.7,35.3z"/>
				<path class="st1" d="M329.9,38.4c0-1,0-2,0-3.1c1,0,2,0,3.1,0c0,1,0,2,0,3.1C331.9,38.4,330.9,38.4,329.9,38.4z"/>
				<path class="st1" d="M323.1,58.6c0,0.8,0,1.5,0,2.3c-0.8,0-1.5,0-2.3,0c0-0.8,0-1.5,0-2.3C321.5,58.6,322.3,58.6,323.1,58.6z"/>
				<path class="st1" d="M324.3,57.4c0-0.8,0-1.5,0-2.3c0.8,0,1.5,0,2.3,0c0,0.8,0,1.5,0,2.3C325.8,57.4,325.1,57.4,324.3,57.4z"/>
				<path class="st1" d="M323,57.4c-0.7,0-1.4,0-2.1,0c-0.1,0-0.2-0.1-0.2-0.2c0-0.7,0-1.4,0-2.1c0.8,0,1.5,0,2.3,0
					C323,55.9,323,56.6,323,57.4z"/>
				<path class="st1" d="M324.3,60.9c0-0.8,0-1.5,0-2.3c0.6,0,1.1,0,1.7,0c0.8,0,0.7-0.1,0.7,0.7c0,0.5,0,1.1,0,1.6
					C325.8,60.9,325,60.9,324.3,60.9z"/>
				<path class="st1" d="M320.8,62.1c0.8,0,1.5,0,2.3,0c0,0.8,0,1.5,0,2.3c-0.8,0-1.5,0-2.3,0C320.8,63.7,320.8,62.9,320.8,62.1z"/>
				<path class="st1" d="M324.3,62.1c0.8,0,1.5,0,2.3,0c0,0.8,0,1.5,0,2.3c-0.8,0-1.5,0-2.3,0C324.3,63.7,324.3,62.9,324.3,62.1z"/>
				<path class="st1" d="M317.2,60.9c0-0.8,0-1.5,0-2.3c0.8,0,1.5,0,2.3,0c0,0.8,0,1.5,0,2.3C318.7,60.9,318,60.9,317.2,60.9z"/>
				<path class="st1" d="M317.2,57.4c0-0.8,0-1.5,0-2.3c0.8,0,1.5,0,2.3,0c0,0.8,0,1.5,0,2.3C318.7,57.4,318,57.4,317.2,57.4z"/>
				<path class="st1" d="M319.5,64.5c-0.8,0-1.5,0-2.3,0c0-0.8,0-1.5,0-2.3c0.8,0,1.5,0,2.3,0C319.5,62.9,319.5,63.7,319.5,64.5z"/>
			</g>
		</g>
		<g>
			<path class="st0" d="M293.2,70.4c-4.2,0-8.4,0-12.6,0c-0.1,0-0.2,0-0.4,0c-0.8,0-1.2-0.4-1.2-1.2c0-2.5,0-5,0-7.5
				c0-6,0-11.9,0-17.9c0-0.2-0.1-0.4-0.2-0.5c-0.4-0.5-0.5-1.1-0.3-1.7c0.2-0.6,0.7-1,1.3-1.1c2.2-0.4,4.4-0.7,6.6-1
				c2.5-0.4,5.1-0.8,7.6-1.2c0.8-0.1,1.6-0.3,2.4-0.4c0.6-0.1,1.3,0.3,1.6,0.9c0.3,0.6,0.3,1.4-0.2,1.9c-0.2,0.2-0.3,0.5-0.3,0.7
				c0,2,0,4,0,6c0,0.3,0.1,0.4,0.4,0.4c0.9,0.2,1.8,0.4,2.7,0.6c2,0.5,4.1,1,6.1,1.5c0.7,0.2,1.2,0.6,1.4,1.3
				c0.2,0.7-0.1,1.3-0.6,1.8c-0.1,0.1-0.2,0.3-0.2,0.4c0,3.4,0,6.8,0,10.1c0,1.9,0,3.7,0,5.6c0,0.9-0.4,1.3-1.3,1.3
				C301.8,70.4,297.5,70.4,293.2,70.4C293.2,70.4,293.2,70.4,293.2,70.4z M295.4,41.4c-0.1,0-0.2,0-0.3,0c-2.3,0.4-4.5,0.7-6.8,1.1
				c-2.3,0.4-4.5,0.7-6.8,1c-0.4,0.1-0.5,0.2-0.5,0.6c0,7.9,0,15.8,0,23.6c0,0.1,0,0.3,0,0.4c1.8,0,3.6,0,5.5,0c0-1.8,0-3.6,0-5.4
				c1.1,0,2.2,0,3.3,0c0,1.8,0,3.6,0,5.4c1.8,0,3.6,0,5.5,0C295.4,59.3,295.4,50.4,295.4,41.4z M302.4,68.2c1,0,1.9,0,2.8,0
				c0-0.1,0-0.2,0-0.3c0-4.8,0-9.6,0-14.4c0-0.3-0.1-0.4-0.4-0.4c-1.8-0.4-3.6-0.8-5.3-1.2c-0.6-0.1-1.3-0.3-1.9-0.4
				c0,5.6,0,11.2,0,16.8c0.9,0,1.9,0,2.8,0c0-0.9,0-1.8,0-2.7c0.7,0,1.3,0,2,0C302.4,66.4,302.4,67.3,302.4,68.2z"/>
			<path class="st1" d="M295.4,41.4c0,9,0,17.9,0,26.8c-1.8,0-3.6,0-5.5,0c0-1.8,0-3.6,0-5.4c-1.1,0-2.2,0-3.3,0c0,1.8,0,3.6,0,5.4
				c-1.8,0-3.6,0-5.5,0c0-0.1,0-0.3,0-0.4c0-7.9,0-15.8,0-23.6c0-0.4,0.1-0.5,0.5-0.6c2.3-0.3,4.5-0.7,6.8-1
				c2.3-0.4,4.5-0.7,6.8-1.1C295.2,41.5,295.3,41.5,295.4,41.4z M288.3,59.7L288.3,59.7c0.5,0,0.9,0,1.4,0c0.2,0,0.3-0.1,0.3-0.3
				c0-0.9,0-1.8,0-2.7c0-0.2-0.1-0.3-0.3-0.3c-0.9,0-1.8,0-2.8,0c-0.2,0-0.3,0.1-0.3,0.3c0,0.9,0,1.8,0,2.7c0,0.3,0.1,0.3,0.3,0.3
				C287.4,59.7,287.8,59.7,288.3,59.7z M286.6,44.6c0,1.1,0,2.1,0,3.2c1.1,0,2.2,0,3.3,0c0-1.1,0-2.1,0-3.2
				C288.8,44.6,287.7,44.6,286.6,44.6z M286.6,50.5c0,1.1,0,2.1,0,3.2c1.1,0,2.1,0,3.1,0c0.1,0,0.2-0.2,0.2-0.2c0-0.5,0-1,0-1.5
				c0-0.5,0-0.9,0-1.4C288.8,50.5,287.8,50.5,286.6,50.5z"/>
			<path class="st1" d="M302.4,68.2c0-0.9,0-1.8,0-2.7c-0.7,0-1.3,0-2,0c0,0.9,0,1.8,0,2.7c-1,0-1.9,0-2.8,0c0-5.6,0-11.2,0-16.8
				c0.7,0.1,1.3,0.3,1.9,0.4c1.8,0.4,3.6,0.8,5.3,1.2c0.3,0.1,0.4,0.1,0.4,0.4c0,4.8,0,9.6,0,14.4c0,0.1,0,0.2,0,0.3
				C304.3,68.2,303.4,68.2,302.4,68.2z M302.4,54.4c-0.7,0-1.3,0-1.9,0c0,0.6,0,1.3,0,1.9c0.7,0,1.3,0,1.9,0
				C302.4,55.7,302.4,55,302.4,54.4z M300.4,57.9c0,0.6,0,1.1,0,1.7c0,0.1,0.2,0.2,0.2,0.2c0.5,0,1,0,1.5,0c0.1,0,0.2-0.1,0.2-0.2
				c0-0.6,0-1.1,0-1.7C301.7,57.9,301.1,57.9,300.4,57.9z M300.4,61.5c0,0.6,0,1.2,0,1.8c0.7,0,1.3,0,1.9,0c0-0.6,0-1.2,0-1.8
				C301.7,61.5,301.1,61.5,300.4,61.5z"/>
			<path class="st0" d="M288.3,59.7c-0.4,0-0.9,0-1.3,0c-0.2,0-0.3,0-0.3-0.3c0-0.9,0-1.8,0-2.7c0-0.2,0.1-0.3,0.3-0.3
				c0.9,0,1.8,0,2.8,0c0.2,0,0.3,0.1,0.3,0.3c0,0.9,0,1.8,0,2.7c0,0.2-0.1,0.3-0.3,0.3C289.2,59.7,288.7,59.7,288.3,59.7L288.3,59.7
				z"/>
			<path class="st0" d="M286.6,44.6c1.1,0,2.2,0,3.3,0c0,1.1,0,2.1,0,3.2c-1.1,0-2.2,0-3.3,0C286.6,46.7,286.6,45.7,286.6,44.6z"/>
			<path class="st0" d="M286.6,50.5c1.1,0,2.2,0,3.3,0c0,0.5,0,0.9,0,1.4c0,0.5,0,1,0,1.5c0,0.1-0.1,0.2-0.2,0.2c-1,0-2.1,0-3.1,0
				C286.6,52.6,286.6,51.6,286.6,50.5z"/>
			<path class="st0" d="M302.4,54.4c0,0.6,0,1.2,0,1.9c-0.6,0-1.3,0-1.9,0c0-0.6,0-1.2,0-1.9C301.1,54.4,301.7,54.4,302.4,54.4z"/>
			<path class="st0" d="M300.4,57.9c0.7,0,1.3,0,2,0c0,0.6,0,1.1,0,1.7c0,0.1-0.1,0.2-0.2,0.2c-0.5,0-1,0-1.5,0
				c-0.1,0-0.2-0.1-0.2-0.2C300.4,59.1,300.4,58.5,300.4,57.9z"/>
			<path class="st0" d="M300.4,61.5c0.6,0,1.3,0,1.9,0c0,0.6,0,1.2,0,1.8c-0.6,0-1.3,0-1.9,0C300.4,62.7,300.4,62.1,300.4,61.5z"/>
		</g>
		<g>
			<path class="st0" d="M269.8,69.2c-0.6,0-1.2,0-1.8,0c0,0-0.1,0-0.1,0c-0.6-0.2-1-0.7-1-1.3c0-0.4,0-0.8,0-1.2c0-0.1,0-0.1,0-0.2
				c-1.8,0-3.6,0-5.4,0c0,0,0,0,0,0c0,0.4,0,0.8,0,1.3c0,0.6-0.3,1.1-0.9,1.3c-0.1,0-0.2,0.1-0.3,0.1c-0.6,0-1.2,0-1.8,0
				c-0.1,0-0.1,0-0.2-0.1c-0.6-0.2-1-0.7-1-1.3c0-0.3,0-0.6,0-0.9c0-0.2,0-0.3,0-0.5c-0.9-0.1-1.3-0.6-1.3-1.5c0-3.7,0-7.5,0-11.2
				c0-0.6,0-1.2,0.1-1.7c0.4-1.9,2.1-3.1,4-3.1c1.9,0,3.9,0,5.8,0c0.9,0,1.8,0,2.8,0.1c1.7,0.1,3.1,1.5,3.4,3.2
				c0.1,0.6,0.1,1.1,0.1,1.7c0,3.7,0,7.4,0,11.1c0,0.3,0,0.6-0.2,0.8c-0.3,0.4-0.6,0.6-1.1,0.6c0,0,0,0,0,0c0,0.4,0,0.9,0,1.3
				c0,0.6-0.4,1-0.9,1.2C270,69.2,269.9,69.2,269.8,69.2z M270.9,53c-4.5,0-9,0-13.5,0c0,2.7,0,5.4,0,8.1c4.5,0,9,0,13.5,0
				C270.9,58.4,270.9,55.7,270.9,53z M261.5,51.7c1.8,0,3.6,0,5.4,0c0-0.5,0-0.9,0-1.3c-1.8,0-3.6,0-5.4,0
				C261.5,50.8,261.5,51.2,261.5,51.7z M258.8,62.5c-0.7,0-1.3,0.6-1.3,1.4c0,0.7,0.6,1.3,1.4,1.3c0.7,0,1.3-0.6,1.3-1.4
				C260.2,63.1,259.5,62.5,258.8,62.5z M269.6,62.5c-0.8,0-1.4,0.6-1.4,1.4c0,0.7,0.6,1.3,1.3,1.3c0.7,0,1.4-0.6,1.4-1.3
				C271,63.1,270.4,62.5,269.6,62.5z"/>
			<path class="st2" d="M260.4,69.2c0.1,0,0.2-0.1,0.3-0.1c0.5-0.2,0.9-0.7,0.9-1.3c0-0.4,0-0.8,0-1.3c0,0,0,0,0,0
				c1.8,0,3.6,0,5.4,0c0,0.1,0,0.1,0,0.2c0,0.4,0,0.8,0,1.2c0,0.6,0.4,1.1,1,1.3c0,0,0.1,0,0.1,0C265.5,69.2,262.9,69.2,260.4,69.2z
				"/>
			<path class="st0" d="M253.4,54.9c0.3-0.6,0.8-0.5,1.3-0.5c0,1.3,0,2.7,0,4c-0.5,0-1.1,0.1-1.3-0.5
				C253.4,56.9,253.4,55.9,253.4,54.9z"/>
			<path class="st0" d="M275,57.9c-0.3,0.5-0.4,0.6-1.3,0.5c0-1.3,0-2.7,0-4c0.8-0.1,1-0.1,1.3,0.5C275,55.9,275,56.9,275,57.9z"/>
			<path class="st1" d="M270.9,53c0,2.7,0,5.4,0,8.1c-4.5,0-9,0-13.5,0c0-2.7,0-5.4,0-8.1C261.9,53,266.4,53,270.9,53z"/>
			<path class="st1" d="M261.5,51.7c0-0.4,0-0.9,0-1.3c1.8,0,3.6,0,5.4,0c0,0.4,0,0.9,0,1.3C265.1,51.7,263.3,51.7,261.5,51.7z"/>
			<path class="st1" d="M258.8,62.5c0.7,0,1.4,0.6,1.4,1.3c0,0.7-0.6,1.4-1.3,1.4c-0.7,0-1.4-0.6-1.4-1.3
				C257.4,63.1,258,62.5,258.8,62.5z"/>
			<path class="st1" d="M269.6,62.5c0.7,0,1.3,0.6,1.3,1.4c0,0.7-0.6,1.3-1.4,1.3c-0.7,0-1.3-0.6-1.3-1.3
				C268.2,63.1,268.9,62.5,269.6,62.5z"/>
		</g>
	</g>
	<rect x="-0.3" y="69" class="st0" width="782.7" height="3.1"/>
</g>
</svg>
