<?xml version="1.0" encoding="utf-8"?>
<!-- Generator: Adobe Illustrator 19.1.0, SVG Export Plug-In . SVG Version: 6.00 Build 0)  -->
<svg version="1.1" id="Layer_1" xmlns="http://www.w3.org/2000/svg" xmlns:xlink="http://www.w3.org/1999/xlink" x="0px" y="0px"
	 viewBox="0 -16 783 73" style="enable-background:new 0 -16 783 73;" xml:space="preserve">
<metadata><?xpacket begin="﻿" id="W5M0MpCehiHzreSzNTczkc9d"?>
<x:xmpmeta xmlns:x="adobe:ns:meta/" x:xmptk="Adobe XMP Core 5.6-c067 79.157747, 2015/03/30-23:40:42        ">
   <rdf:RDF xmlns:rdf="http://www.w3.org/1999/02/22-rdf-syntax-ns#">
      <rdf:Description rdf:about=""/>
   </rdf:RDF>
</x:xmpmeta>
                                                                                                    
                                                                                                    
                                                                                                    
                                                                                                    
                                                                                                    
                                                                                                    
                                                                                                    
                                                                                                    
                                                                                                    
                                                                                                    
                                                                                                    
                                                                                                    
                                                                                                    
                                                                                                    
                                                                                                    
                                                                                                    
                                                                                                    
                                                                                                    
                                                                                                    
                                                                                                    
                           
<?xpacket end="w"?></metadata>
<style type="text/css">
	.st0{fill:#FFFFFF;}
	.st1{fill:#82BC00;}
	.st2{fill:#E3EEC5;}
</style>
<rect x="-4.4" y="-5.7" class="st0" width="786.6" height="58.1"/>
<g>
	<g>
		<g>
			<path class="st1" d="M214.4,55.7c-1.9,0-3.4,0-5.3,0c0-2.3,0-4.6,0-6.6c-2-0.6-3.8-0.9-5.3-1.6c-2.5-1.3-3.5-3.6-3.6-6.4
				c0-1-0.4-2.2-1-3c-3.2-4.4-1.2-10.3,4.1-11.7c0.8-0.2,1.6-0.8,2-1.5c3.3-4.7,9.3-4.7,12.6-0.1c0.5,0.7,1.4,1.3,2.2,1.6
				c5.1,1.5,7.2,7.3,3.9,11.6c-0.5,0.6-1,1.4-1.1,2.1c-0.5,6.2-2,7.8-8.7,8.7C214.4,51,214.4,53.3,214.4,55.7z M214.2,46.2
				c4.4,1,7.7-1.8,7-5.5c-0.3-1.6,0.3-2.4,1.1-3.7c0.9-1.4,1.6-3.7,1.1-5.2c-0.5-1.5-2.4-3-4-3.5c-1.4-0.5-2.2-0.8-2.9-2.1
				c-0.9-1.9-2.5-2.8-4.6-2.8c-2.2,0-4,0.9-4.8,2.9c-0.6,1.4-1.3,1.7-2.7,2c-4.5,0.9-6.2,5.7-3.1,8.9c1.2,1.2,1.4,2.1,1.1,3.7
				c-0.5,2.9,1.9,5.6,4.8,5.9c1.5,0.1,2.2-0.5,1.5-1.9c-0.7-1.6-1.7-3-2.7-4.7c2.4-2.5,2.8,1.3,4.3,1.6c0.4-1.3-0.7-4.2,2.7-3
				c0.1,1,0.2,2,0.3,3c1.5-0.5,2-4,4.1-1.5C216.2,42.3,215.2,44.2,214.2,46.2z"/>
			<path class="st2" d="M214.2,46.2c1.1-2,2.1-3.9,3.2-6.1c-2.1-2.4-2.6,1-4.1,1.5c-0.1-1-0.2-2-0.3-3c-3.4-1.1-2.2,1.7-2.7,3
				c-1.6-0.3-2-4.1-4.3-1.6c1,1.7,1.9,3.2,2.7,4.7c0.6,1.4-0.1,2-1.5,1.9c-2.9-0.3-5.3-3-4.8-5.9c0.3-1.5,0.1-2.5-1.1-3.7
				c-3.1-3.2-1.4-8,3.1-8.9c1.3-0.3,2.1-0.6,2.7-2c0.8-2,2.6-2.9,4.8-2.9c2.1,0,3.8,0.9,4.6,2.8c0.6,1.4,1.5,1.7,2.9,2.1
				c1.6,0.5,3.5,2,4,3.5c0.5,1.5-0.2,3.7-1.1,5.2c-0.8,1.2-1.4,2.1-1.1,3.7C221.8,44.4,218.5,47.2,214.2,46.2z"/>
		</g>
		<g>
			<path class="st1" d="M196.4,55.7c-1.5,0-2.8,0-4.3,0c0-1.9,0-3.7,0-5.4c-1.6-0.5-3.1-0.7-4.3-1.3c-2-1.1-2.8-2.9-2.9-5.2
				c0-0.8-0.3-1.8-0.8-2.5c-2.6-3.6-1-8.3,3.3-9.5c0.6-0.2,1.3-0.7,1.7-1.2c2.7-3.8,7.6-3.9,10.3,0c0.4,0.6,1.1,1.1,1.8,1.3
				c4.2,1.2,5.8,6,3.1,9.5c-0.4,0.5-0.8,1.1-0.9,1.7c-0.4,5.1-1.6,6.4-7.1,7.1C196.4,51.9,196.4,53.8,196.4,55.7z M196.2,48
				c3.6,0.8,6.2-1.5,5.6-4.5c-0.2-1.3,0.3-2,0.9-3c0.7-1.2,1.3-3,0.9-4.2c-0.4-1.2-1.9-2.4-3.2-2.9c-1.1-0.4-1.8-0.6-2.3-1.7
				c-0.7-1.5-2-2.3-3.8-2.3s-3.3,0.7-3.9,2.3c-0.5,1.1-1.1,1.4-2.2,1.6c-3.7,0.7-5.1,4.7-2.5,7.2c1,1,1.1,1.7,0.9,3
				c-0.4,2.4,1.5,4.6,3.9,4.8c1.2,0.1,1.8-0.4,1.2-1.5c-0.6-1.3-1.4-2.4-2.2-3.9c1.9-2.1,2.3,1.1,3.5,1.3c0.4-1.1-0.6-3.4,2.2-2.5
				c0.1,0.8,0.2,1.7,0.3,2.4c1.2-0.4,1.6-3.3,3.3-1.3C197.8,44.8,197,46.3,196.2,48z"/>
			<path class="st2" d="M196.2,48c0.9-1.7,1.7-3.2,2.6-5c-1.7-2-2.1,0.8-3.3,1.3c-0.1-0.8-0.2-1.6-0.3-2.4c-2.8-0.9-1.8,1.4-2.2,2.5
				c-1.3-0.2-1.6-3.3-3.5-1.3c0.8,1.4,1.6,2.6,2.2,3.9c0.5,1.1,0,1.6-1.2,1.5c-2.4-0.2-4.3-2.5-3.9-4.8c0.2-1.3,0.1-2-0.9-3
				c-2.5-2.6-1.2-6.5,2.5-7.2c1.1-0.2,1.7-0.5,2.2-1.6c0.7-1.6,2.1-2.3,3.9-2.3c1.7,0,3.1,0.7,3.8,2.3c0.5,1.1,1.2,1.4,2.3,1.7
				c1.3,0.4,2.8,1.7,3.2,2.9c0.4,1.2-0.1,3-0.9,4.2c-0.6,1-1.1,1.7-0.9,3C202.3,46.5,199.7,48.8,196.2,48z"/>
		</g>
		<g>
			<path class="st1" d="M766.3,24c-0.7,0.3-1.3,0.5-2.2,0.8c2.5-4,4.8-7.9,6.2-12.7c1.5,4.8,3.7,8.9,6.5,12.8
				c-0.9-0.4-1.5-0.7-2.2-1c-0.1,0.1-0.1,0.1-0.2,0.2c1.4,3,2.9,6,4.4,9.2c-0.8-0.4-1.4-0.7-2.2-1.1c1.4,2.8,2.7,5.4,4.1,8.2
				c-0.8-0.3-1.4-0.6-2.1-0.8c0,0.1-0.1,0.1-0.1,0.2c1.2,2.1,2.4,4.2,3.7,6.5c-7.9,2.4-15.7,2.4-23.6,0c1.3-2.2,2.5-4.4,3.8-6.8
				c-0.9,0.3-1.5,0.6-2.4,1c1.4-2.7,2.6-5.3,3.9-7.9c0-0.1-0.1-0.1-0.1-0.2c-0.6,0.3-1.2,0.5-1.9,0.9c0.8-1.7,1.6-3.3,2.3-4.9
				c0.6-1.3,1.2-2.5,1.8-3.8C766.2,24.5,766.2,24.2,766.3,24C766.4,24,766.4,24,766.3,24C766.4,24,766.4,24,766.3,24L766.3,24z"/>
			<path class="st1" d="M773.6,54.4c-2.1,0-4.4,0-6.7,0c0.5-0.8,1-1.5,1.3-2.3c0.3-0.8,0.2-1.8,0.3-2.8c0.8,0,1.6,0,2.5,0
				c0.1,0,0.3,0.2,0.4,0.3C772.3,51.2,772.9,52.8,773.6,54.4z"/>
		</g>
		<g>
			<path class="st1" d="M380.2,33.4c-0.5,0.2-0.9,0.4-1.5,0.6c1.7-2.7,3.3-5.4,4.3-8.8c1,3.3,2.6,6.1,4.4,8.9
				c-0.6-0.3-1.1-0.5-1.5-0.7l-0.1,0.1c1,2.1,2,4.1,3,6.3c-0.5-0.3-1-0.5-1.5-0.7c1,1.9,1.8,3.8,2.8,5.7c-0.5-0.2-1-0.4-1.4-0.6
				l-0.1,0.1c0.8,1.5,1.6,2.9,2.5,4.5c-5.4,1.6-10.8,1.7-16.2,0c0.9-1.5,1.7-3,2.6-4.7c-0.6,0.2-1.1,0.4-1.6,0.7
				c0.9-1.9,1.8-3.7,2.7-5.4l-0.1-0.1c-0.4,0.2-0.8,0.4-1.3,0.6c0.6-1.2,1.1-2.3,1.6-3.4c0.4-0.9,0.8-1.7,1.3-2.6
				C380.1,33.7,380.1,33.6,380.2,33.4L380.2,33.4L380.2,33.4L380.2,33.4z"/>
			<path class="st1" d="M385.2,54.4c-1.5,0-3,0-4.5,0c0.3-0.5,0.7-1,0.9-1.6c0.2-0.6,0.2-1.3,0.2-1.9c0.5,0,1.1,0,1.7,0
				c0.1,0,0.2,0.1,0.2,0.2C384.3,52.2,384.8,53.3,385.2,54.4z"/>
		</g>
		<g>
			<path class="st1" d="M225.7,51.1c0-1.9,0-3.7,0-5.6c0-0.1,0.1-0.3,0.1-0.4c0.2-0.7,0.6-1.1,1.3-1.4c0.3-0.1,0.4-0.2,0.5-0.5
				c0.4-1.2,0.9-2.4,1.4-3.5c0.4-1.1,1.1-1.6,2.4-1.7c2.7,0,5.4,0,8.1,0c1.2,0,1.9,0.5,2.4,1.7c0.4,1,0.8,2,1.1,3
				c0.2,0.5,0.3,1,1,1.2c0.1,0,0.3,0.2,0.4,0.3c0.3,0.4,0.5,0.8,0.7,1.2c0,1.9,0,3.8,0,5.7c-0.5,0-1,0-1.5,0c0,0.4,0,0.6,0,0.9
				c0,0.4,0,0.8-0.1,1.2c-0.1,0.9-1.1,1.4-1.9,1c-0.7-0.3-0.9-0.8-0.9-1.5c0-0.5,0-1,0-1.5c-3.5,0-7,0-10.5,0c0,0.6,0,1.3,0,1.9
				c0,0.6-0.4,1-1,1.2c-0.5,0.2-1,0.1-1.4-0.3c-0.4-0.4-0.5-0.8-0.5-1.4c0-0.5,0-1,0-1.5C226.7,51.1,226.2,51.1,225.7,51.1z
				 M241.7,43.7c-0.4-1.1-0.8-2.2-1.2-3.2c-0.2-0.6-0.4-0.8-1.1-0.8c-2.6,0-5.2,0-7.9,0c-0.7,0-0.9,0.1-1.1,0.8
				c-0.4,1-0.7,1.9-1.1,2.9c0,0.1-0.1,0.2-0.1,0.3C233.3,43.7,237.5,43.7,241.7,43.7z M228.8,48c0.7,0,1.3-0.6,1.3-1.3
				c0-0.7-0.6-1.4-1.3-1.4s-1.3,0.6-1.3,1.3C227.4,47.3,228,48,228.8,48z M243.4,46.6c0-0.7-0.6-1.4-1.3-1.4s-1.3,0.6-1.3,1.4
				c0,0.7,0.6,1.3,1.3,1.3C242.8,48,243.4,47.4,243.4,46.6z"/>
			<path class="st2" d="M241.7,43.7c-4.2,0-8.4,0-12.5,0c0-0.1,0.1-0.2,0.1-0.3c0.4-1,0.7-1.9,1.1-2.9c0.2-0.6,0.4-0.8,1.1-0.8
				c2.6,0,5.2,0,7.9,0c0.7,0,0.9,0.1,1.1,0.8C240.9,41.5,241.3,42.6,241.7,43.7z"/>
			<path class="st2" d="M228.8,48c-0.7,0-1.3-0.6-1.3-1.4c0-0.7,0.6-1.3,1.3-1.3s1.3,0.6,1.3,1.4C230.1,47.4,229.5,48,228.8,48z"/>
			<path class="st2" d="M243.4,46.6c0,0.7-0.6,1.4-1.3,1.4s-1.3-0.6-1.3-1.3c0-0.7,0.6-1.4,1.3-1.4
				C242.7,45.3,243.4,45.9,243.4,46.6z"/>
		</g>
		<rect x="740.1" y="40.2" class="st1" width="17.9" height="16.2"/>
		<rect x="742.6" y="43.1" class="st2" width="3.2" height="3.2"/>
		<rect x="747.5" y="43.1" class="st2" width="3.2" height="3.2"/>
		<rect x="752.3" y="43.1" class="st2" width="3.2" height="3.2"/>
		<rect x="742.6" y="48.4" class="st2" width="3.2" height="6.3"/>
		<rect x="747.5" y="48.4" class="st2" width="3.2" height="6.3"/>
		<rect x="752.3" y="48.4" class="st2" width="3.2" height="6.3"/>
		<polygon class="st1" points="759.2,41.2 738.8,41.2 749.1,31.1 		"/>
		<rect x="646.4" y="16.3" class="st1" width="11.5" height="9.2"/>
		<polygon class="st1" points="659.5,16.8 644.8,16.8 652.2,10.5 		"/>
		<ellipse class="st2" cx="749.1" cy="38.1" rx="1.9" ry="1.9"/>
		<ellipse class="st2" cx="652.2" cy="19.6" rx="2.7" ry="2.7"/>
		<rect x="715.6" y="11" class="st1" width="22.2" height="44.2"/>
		<rect x="717.8" y="14" class="st2" width="2.3" height="3.7"/>
		<rect x="722.9" y="14" class="st2" width="2.3" height="3.7"/>
		<rect x="727.9" y="14" class="st2" width="2.3" height="3.7"/>
		<rect x="732.9" y="14" class="st2" width="2.3" height="3.7"/>
		<rect x="717.8" y="20.2" class="st2" width="2.3" height="3.7"/>
		<rect x="722.9" y="20.2" class="st2" width="2.3" height="3.7"/>
		<rect x="727.9" y="20.2" class="st2" width="2.3" height="3.7"/>
		<rect x="732.9" y="20.2" class="st2" width="2.3" height="3.7"/>
		<rect x="717.8" y="26.4" class="st2" width="2.3" height="3.7"/>
		<rect x="722.9" y="26.4" class="st2" width="2.3" height="3.7"/>
		<rect x="727.9" y="26.4" class="st2" width="2.3" height="3.7"/>
		<rect x="732.9" y="26.4" class="st2" width="2.3" height="3.7"/>
		<rect x="717.8" y="32.6" class="st2" width="2.3" height="3.7"/>
		<rect x="722.9" y="32.6" class="st2" width="2.3" height="3.7"/>
		<rect x="727.9" y="32.6" class="st2" width="2.3" height="3.7"/>
		<rect x="732.9" y="32.6" class="st2" width="2.3" height="3.7"/>
		<rect x="717.8" y="38.8" class="st2" width="2.3" height="3.7"/>
		<rect x="722.9" y="38.8" class="st2" width="2.3" height="3.7"/>
		<rect x="727.9" y="38.8" class="st2" width="2.3" height="3.7"/>
		<rect x="732.9" y="38.8" class="st2" width="2.3" height="3.7"/>
		<rect x="717.8" y="45" class="st2" width="2.3" height="3.7"/>
		<rect x="722.9" y="45" class="st2" width="2.3" height="3.7"/>
		<rect x="727.9" y="45" class="st2" width="2.3" height="3.7"/>
		<rect x="732.9" y="45" class="st2" width="2.3" height="3.7"/>
		<rect x="717.8" y="51.2" class="st2" width="2.3" height="3.7"/>
		<rect x="722.9" y="51.2" class="st2" width="2.3" height="3.7"/>
		<rect x="727.9" y="51.2" class="st2" width="2.3" height="3.7"/>
		<rect x="732.9" y="51.2" class="st2" width="2.3" height="3.7"/>
		<rect x="695.5" y="30.2" class="st1" width="21.4" height="26.2"/>
		<rect x="698.2" y="32.7" class="st2" width="15.7" height="2.6"/>
		<rect x="698.2" y="37.6" class="st2" width="15.7" height="2.6"/>
		<rect x="698.2" y="42.4" class="st2" width="15.7" height="2.6"/>
		<rect x="698.2" y="47.3" class="st2" width="15.7" height="2.6"/>
		<rect x="698.2" y="52.1" class="st2" width="15.7" height="2.6"/>
		<g>
			<g>
				<rect x="666.2" y="18.7" class="st1" width="4.9" height="37.8"/>
				<g>
					<polygon class="st2" points="671.7,56 671.7,19.4 682.3,23 682.3,56 					"/>
					<path class="st1" d="M672.3,20.1l9.6,3.3v32.1h-9.6V20.1 M671.2,18.7v37.8h11.6V22.7L671.2,18.7L671.2,18.7z"/>
				</g>
			</g>
			<polygon class="st1" points="673.7,23 673.7,25.7 680.4,28.1 680.4,25.3 			"/>
			<polygon class="st1" points="673.7,28.1 673.7,31.1 680.4,32.7 680.4,30.1 			"/>
		</g>
		<g>
			<g>
				<rect x="675.5" y="33.6" class="st1" width="4.9" height="21.9"/>
				<g>
					<polygon class="st2" points="681,54.9 681,34.3 691.6,37.9 691.6,54.9 					"/>
					<path class="st1" d="M681.5,35l9.6,3.3v16.2h-9.6V35 M680.5,33.6v21.9h11.6v-18L680.5,33.6L680.5,33.6z"/>
				</g>
			</g>
			<polygon class="st1" points="682.9,37.9 682.9,40.6 689.7,43 689.7,40.2 			"/>
			<polygon class="st1" points="682.9,43 682.9,46 689.7,47.6 689.7,45 			"/>
		</g>
		<g>
			<g>
				<rect x="368.5" y="11.1" class="st1" width="5.9" height="45.4"/>
				<g>
					<polygon class="st2" points="355.2,55.8 355.2,16.3 367.9,11.9 367.9,55.8 					"/>
					<path class="st1" d="M367.3,12.8v42.4h-11.5V16.7L367.3,12.8 M368.5,11.1l-13.9,4.8v40.6h13.9V11.1L368.5,11.1z"/>
				</g>
			</g>
			<polygon class="st1" points="365.6,16.3 365.6,19.6 357.4,22.4 357.4,19 			"/>
			<polygon class="st1" points="365.6,22.4 365.6,26 357.4,28 357.4,24.8 			"/>
		</g>
		<g>
			<g>
				<rect x="357.3" y="28.9" class="st1" width="5.9" height="26.3"/>
				<g>
					<polygon class="st2" points="344,54.6 344,34.2 356.7,29.8 356.7,54.6 					"/>
					<path class="st1" d="M356.1,30.6V54h-11.5V34.6L356.1,30.6 M357.3,28.9l-13.9,4.8v21.5h13.9V28.9L357.3,28.9z"/>
				</g>
			</g>
			<polygon class="st1" points="354.4,34.1 354.4,37.4 346.3,40.2 346.3,36.9 			"/>
			<polygon class="st1" points="354.4,40.2 354.4,43.8 346.3,45.8 346.3,42.7 			"/>
		</g>
		<rect x="640.7" y="23.8" class="st1" width="23" height="31.9"/>
		<rect x="644" y="28.1" class="st2" width="4" height="4"/>
		<rect x="650.2" y="28.1" class="st2" width="4" height="4"/>
		<rect x="656.3" y="28.1" class="st2" width="4" height="4"/>
		<rect x="644" y="34.2" class="st2" width="4" height="4"/>
		<rect x="650.2" y="34.2" class="st2" width="4" height="4"/>
		<rect x="656.3" y="34.2" class="st2" width="4" height="4"/>
		<rect x="644" y="40.3" class="st2" width="4" height="4"/>
		<rect x="650.2" y="40.3" class="st2" width="4" height="4"/>
		<rect x="656.3" y="40.3" class="st2" width="4" height="4"/>
		<rect x="644" y="46.4" class="st2" width="4" height="4.1"/>
		<rect x="650.2" y="46.4" class="st2" width="4" height="8.3"/>
		<rect x="656.3" y="46.4" class="st2" width="4" height="4.1"/>
		<g>
			<rect x="583.5" y="18.7" class="st2" width="13.4" height="37.1"/>
			<rect x="611" y="6.5" class="st2" width="12.6" height="50.9"/>
			<g>
				<path class="st1" d="M622.8,8.3c-3.5,0.5-7,1-10.4,1.5c0,16.4,0,30.8,0,47.2c-5.5,0-11,0-16.5,0c0-12.6,0-23.2,0-35.9
					c-1.2,0.2-2.3,0.3-3.5,0.5c-2.1,0.3-4.2,0.7-6.2,0.9c-0.5,0.1-0.6,0.3-0.6,0.7c0,9.3,0,18.7,0,28c0,2.4,0,2.7,0,5.1
					c0,0.2,0,0.4,0,0.6c-2.9,0-5.7,0-8.6,0c0-1.6,0-1.1,0-2.8c1,0,2,0,3,0c0.6,0,0.8-0.2,0.8-0.8c0-11.3,0-22.6,0-33.9
					c0-0.3,0-0.7,0-1.1c1.7-0.3,3.4-0.5,5-0.8c4.5-0.7,9.2-1.3,13.7-2.1c1.2-0.2,2.1,0.2,3.2,0.5c0.9,0.2,1.3,0.6,1.4,1.6
					c0.6,5.1,1.3,10.3,1.9,15.4c0.2,1.3,0.3,2.6,0.5,3.9c0.1,0.5,0.6,0.9,0.9,1.3c0.1,0,0.1-0.1,0.2-0.1c0-0.2,0-0.4,0-0.6
					c0-10.4,0-20.8,0-31.3c0-0.5,0.1-0.7,0.7-0.8c5.2-0.7,10.4-1.5,15.6-2.3c1-0.1,2-0.3,2.9-0.4c0.5-0.1,1.1,0,1.6,0.1
					c2.4,0.8,4.7,1.6,7.2,2.4c0.4,0.1,0.6,0.3,0.6,0.8c0,9.2,0,18.5,0,27.7c0,6.6,0,13.2,0,19.8c0,0.2,0,0.3,0,0.6c1,0,1.9,0,2.9,0
					c0,1.6,0,1.2,0,2.8c-5.3,0-10.8,0-16.2,0C622.8,40.2,622.8,25.3,622.8,8.3z"/>
				<path class="st1" d="M618.4,48.2c0-1.2,0-2.4,0-3.6c0.7,0,1.5,0,2.2,0c0,1.2,0,2.4,0,3.6C619.9,48.2,619.2,48.2,618.4,48.2z"/>
				<path class="st1" d="M620.6,14.9c-0.7,0.1-1.5,0.2-2.2,0.3c0-1.2,0-2.4,0-3.7c0.7-0.1,1.4-0.2,2.2-0.3
					C620.6,12.5,620.6,13.7,620.6,14.9z"/>
				<path class="st1" d="M618.4,21.7c0-1.2,0-2.4,0-3.6c0.7-0.1,1.4-0.2,2.3-0.2c0,1,0,1.9,0,2.8s0,0.9-0.9,1
					c-0.4,0-0.8,0.1-1.2,0.1C618.5,21.8,618.5,21.7,618.4,21.7z"/>
				<path class="st1" d="M618.4,37.9c0.8,0,1.5-0.1,2.2-0.1c0,1.2,0,2.4,0,3.7c-0.7,0-1.5,0-2.2,0C618.4,40.3,618.4,39.1,618.4,37.9
					z"/>
				<path class="st1" d="M620.6,24.5c0,1.3,0,2.4,0,3.7c-0.7,0.1-1.5,0.1-2.2,0.2c0-1.3,0-2.4,0-3.7
					C619.1,24.6,619.9,24.6,620.6,24.5z"/>
				<path class="st1" d="M618.4,31.3c0.7,0,1.5-0.1,2.2-0.1c0,1.3,0,2.4,0,3.7c-0.7,0-1.5,0-2.2,0C618.4,33.7,618.4,32.5,618.4,31.3
					z"/>
				<path class="st1" d="M591.4,47.5c0-1.3,0-2.5,0-3.7c0.7,0,1.4-0.1,2.2-0.1c0,1.3,0,2.4,0,3.7C592.9,47.4,592.1,47.5,591.4,47.5z
					"/>
				<path class="st1" d="M591.4,30.6c0.7-0.1,1.4-0.1,2.2-0.2c0,1.2,0,2.4,0,3.7c-0.7,0.1-1.4,0.1-2.2,0.2
					C591.4,33,591.4,31.9,591.4,30.6z"/>
				<path class="st1" d="M593.6,37c0,1.3,0,2.5,0,3.7c-0.7,0-1.4,0.1-2.2,0.1c0-1.2,0-2.3,0-3.4c0-0.1,0.2-0.2,0.3-0.3
					C592.3,37.1,592.9,37.1,593.6,37z"/>
				<path class="st1" d="M593.6,23.7c0,1.3,0,2.5,0,3.7c-0.7,0.1-1.4,0.2-2.2,0.3c0-1.2,0-2.3,0-3.4c0-0.1,0.2-0.3,0.3-0.3
					C592.3,23.8,592.9,23.8,593.6,23.7z"/>
				<path class="st1" d="M593.6,54c-0.7,0-1.4,0-2.2,0c0-1.2,0-2.4,0-3.6c0.7,0,1.4,0,2.2,0C593.6,51.6,593.6,52.8,593.6,54z"/>
				<path class="st1" d="M614.2,44.6c0.8,0,1.4,0,2.2,0c0,1.2,0,2.4,0,3.6c-0.6,0-1.3,0-1.9,0c-0.1,0-0.3-0.2-0.3-0.3
					C614.2,46.8,614.2,45.7,614.2,44.6z"/>
				<path class="st1" d="M587.2,54c0-1.2,0-2.3,0-3.6c0.7,0,1.4,0,2.1,0c0,1.1,0,2.3,0,3.6C588.7,54,588,54,587.2,54z"/>
				<path class="st1" d="M587.2,34.6c0-1.2,0-2.4,0-3.6c0.7-0.1,1.4-0.1,2.2-0.2c0,1.2,0,2.3,0,3.4c0,0.1-0.2,0.2-0.3,0.3
					C588.5,34.5,587.9,34.6,587.2,34.6z"/>
				<path class="st1" d="M614.2,35.2c0-1.2,0-2.2,0-3.3c0-0.1,0.2-0.3,0.4-0.4c0.6-0.1,1.1-0.1,1.8-0.1c0,1.2,0,2.4,0,3.6
					C615.6,35.1,614.9,35.1,614.2,35.2z"/>
				<path class="st1" d="M589.4,37.3c0,1.3,0,2.4,0,3.7c-0.7,0-1.4,0.1-2.1,0.1c0-1.2,0-2.4,0-3.6C587.9,37.4,588.6,37.4,589.4,37.3
					z"/>
				<path class="st1" d="M614.2,28.7c0-1.3,0-2.4,0-3.6c0.7-0.1,1.4-0.1,2.2-0.2c0,0.9,0,1.7,0,2.5c0,1.2,0,1.2-1.1,1.2
					C614.9,28.6,614.6,28.6,614.2,28.7z"/>
				<path class="st1" d="M587.2,24.5c0.7-0.1,1.4-0.2,2.1-0.3c0,1.2,0,2.4,0,3.7c-0.7,0.1-1.4,0.1-2.1,0.2
					C587.2,26.9,587.2,25.7,587.2,24.5z"/>
				<path class="st1" d="M616.3,15.4c-0.7,0.1-1.4,0.2-2.2,0.3c0-1.2,0-2.3,0-3.4c0-0.1,0.2-0.3,0.3-0.3c0.6-0.1,1.2-0.2,1.9-0.2
					C616.3,13,616.3,14.2,616.3,15.4z"/>
				<path class="st1" d="M616.4,18.3c0,1.3,0,2.4,0,3.7c-0.7,0.1-1.4,0.1-2.1,0.2c0-1.2,0-2.4,0-3.6
					C614.9,18.5,615.6,18.4,616.4,18.3z"/>
				<path class="st1" d="M587.2,47.6c0-1.3,0-2.4,0-3.7c0.7,0,1.4,0,2.1,0c0,1.1,0,2.3,0,3.6C588.7,47.6,588,47.6,587.2,47.6z"/>
				<path class="st1" d="M614.2,38c0.7,0,1.4,0,2.1,0c0,1.1,0,2.3,0,3.5c-0.7,0-1.4,0-2.1,0C614.2,40.4,614.2,39.2,614.2,38z"/>
			</g>
		</g>
		<g>
			<rect x="522.5" y="20.9" class="st2" width="48.8" height="33.9"/>
			<rect x="540.3" y="2.9" class="st2" width="14.7" height="13.5"/>
			<g>
				<path class="st1" d="M555.1,46.3c1.1,0,2.2,0,3.3,0c3.8,0,7.7,0,11.4,0c0.5,0,0.7-0.1,0.7-0.6c0-7.6,0-15.3,0-22.9
					c0-0.1,0-0.2,0-0.4c-15.4,0-30.8,0-46.4,0c0,7.9,0,15.9,0,23.9c5.1,0,10.2,0,15.3,0c0,2.8,0,5.6,0,8.5c-0.2,0-0.5,0-0.7,0
					c-5.6,0-11.3,0-16.9,0c-1,0-1.2-0.2-1.2-1.2c0-10.2,0-20.3,0-30.5c0-0.6-0.1-0.9-0.8-0.8c-0.3,0-0.9-0.1-0.9-0.2
					c-0.1-0.5-0.2-1.3,0.1-1.6c1.5-1.6,3.1-3.2,4.7-4.7c0.2-0.2,0.7-0.3,1-0.3c4,0,8.2,0,12.2,0c0.2,0,0.4,0,0.7,0c0-4,0-7.9,0-12
					c-0.4,0-0.8,0.1-1.1,0c-0.2,0-0.5-0.3-0.5-0.5c-0.1-0.7,0-1.3,0.6-1.9c1.4-1.3,2.6-2.6,4-3.9c0.3-0.3,0.8-0.5,1.2-0.5
					c3.5,0,7.1,0,10.6,0c0.4,0,0.9,0.2,1.2,0.5c1.5,1.4,2.9,2.8,4.3,4.3c0.3,0.3,0.5,1.4,0.3,1.8c-0.1,0.1-0.4,0.2-0.6,0.2
					c-0.3,0-0.7,0-1.1,0c0,4,0,7.9,0,12c0.3,0,0.6,0,0.9,0c4,0,8.1,0,12.1,0c0.4,0,0.9,0.2,1.2,0.5c1.4,1.4,2.8,2.8,4.3,4.2
					c0.3,0.3,0.5,1.4,0.3,1.8c-0.1,0.1-0.3,0.2-0.5,0.2c-0.3,0-0.7,0-1.1,0c0,0.4,0,0.7,0,1c0,10.1,0,20.1,0,30.2
					c0,1.1-0.1,1.3-1.3,1.3c-5.6,0-11.3,0-16.8,0c-0.6,0-0.8-0.2-0.8-0.8c0-2.4,0-4.7,0-7.1C555,46.7,555.1,46.6,555.1,46.3z
					 M541.3,3.6c0,4,0,8,0,11.9c4,0,8,0,12,0c0-0.1,0-0.2,0-0.3c0-3.7,0-7.4,0-11.1c0-0.5-0.3-0.5-0.6-0.5c-2.5,0-5,0-7.6,0
					C543.9,3.6,542.7,3.6,541.3,3.6z"/>
				<path class="st1" d="M544.8,47.9c0-4,0-7.8,0-11.8c1.7,0,3.3,0,5,0c0,3.9,0,7.8,0,11.8C548.2,47.9,546.5,47.9,544.8,47.9z"/>
				<path class="st1" d="M558.4,42.8c-1.6,0-3.2,0-4.7,0c-0.1,0-0.4-0.3-0.4-0.4c0-2,0-4,0-6c0-0.1,0.2-0.4,0.3-0.4
					c1.6,0,3.1,0,4.7,0C558.4,38.2,558.4,40.5,558.4,42.8z"/>
				<path class="st1" d="M562,36.1c1.7,0,3.3,0,5,0c0,2.2,0,4.5,0,6.7c-1.7,0-3.3,0-5,0C562,40.5,562,38.3,562,36.1z"/>
				<path class="st1" d="M536.3,36.1c1.7,0,3.3,0,5,0c0,2.3,0,4.5,0,6.7c-1.7,0-3.3,0-5,0C536.3,40.6,536.3,38.3,536.3,36.1z"/>
				<path class="st1" d="M532.6,36.1c0,2.3,0,4.5,0,6.7c-1.7,0-3.3,0-5,0c0-2.2,0-4.4,0-6.7C529.3,36.1,530.9,36.1,532.6,36.1z"/>
				<path class="st1" d="M567.1,25.8c0,2.3,0,4.5,0,6.7c-1.7,0-3.3,0-5,0c0-2.2,0-4.5,0-6.7C563.7,25.8,565.3,25.8,567.1,25.8z"/>
				<path class="st1" d="M553.4,32.5c0-2.3,0-4.4,0-6.7c1.7,0,3.3,0,5,0c0,2.2,0,4.4,0,6.7C556.7,32.5,555.1,32.5,553.4,32.5z"/>
				<path class="st1" d="M549.9,25.8c0,2.3,0,4.5,0,6.7c-1.7,0-3.3,0-5,0c0-2.2,0-4.4,0-6.7C546.4,25.8,548.2,25.8,549.9,25.8z"/>
				<path class="st1" d="M536.2,32.5c0-2.3,0-4.5,0-6.7c1.7,0,3.3,0,5,0c0,2.2,0,4.5,0,6.7C539.6,32.5,537.9,32.5,536.2,32.5z"/>
				<path class="st1" d="M527.6,32.5c0-2.2,0-4.5,0-6.7c1.7,0,3.3,0,5,0c0,2.2,0,4.4,0,6.7C531,32.5,529.3,32.5,527.6,32.5z"/>
				<path class="st1" d="M541.3,51.3c0-0.6,0-1.1,0-1.6c3.9,0,8,0,11.9,0c0,0.5,0,1.1,0,1.6C549.3,51.3,545.3,51.3,541.3,51.3z"/>
				<path class="st1" d="M541.3,53.1c4,0,8,0,11.9,0c0,0.6,0,1.1,0,1.6c-4,0-8,0-11.9,0C541.3,54.2,541.3,53.7,541.3,53.1z"/>
				<path class="st1" d="M544.8,13.8c0-2.3,0-4.5,0-6.7c1.7,0,3.3,0,5,0c0,2.2,0,4.5,0,6.7C548.2,13.8,546.5,13.8,544.8,13.8z"/>
			</g>
		</g>
		<g>
			<path class="st1" d="M477.9,56c0-10.1,0-20.2,0-30.4c-0.6,0.4-1,0.8-1.5,1.2c-1-1.5-2-2.9-3.1-4.4c7.2-5.5,14.2-10.9,21.4-16.4
				c2.1,1.6,4.2,3.2,6.6,4.9c0-1.7,0-3.3,0-4.9c1.9,0,3.8,0,5.8,0c0,0.2,0,0.5,0,0.7c0,2.7,0,5.4,0,8.2c0,0.4,0.1,0.7,0.5,1
				c2.6,2,5.3,4.1,8,6.1c0.2,0.1,0.3,0.3,0.5,0.4c-1,1.5-2,2.9-3.1,4.4c-0.5-0.4-0.9-0.7-1.5-1.2c0,10.2,0,20.3,0,30.4
				C500.2,56,489.1,56,477.9,56z M497.7,42.2c-1.9,0-3.7,0-5.6,0c0,3.8,0,7.5,0,11.2c1.9,0,3.7,0,5.6,0
				C497.7,49.6,497.7,45.9,497.7,42.2z M488.4,42.2c-1.9,0-3.8,0-5.6,0c0,1.8,0,3.5,0,5.2c1.9,0,3.7,0,5.6,0
				C488.4,45.7,488.4,44,488.4,42.2z M501.5,47.4c1.9,0,3.8,0,5.6,0c0-1.8,0-3.5,0-5.2c-1.9,0-3.8,0-5.6,0
				C501.5,44,501.5,45.7,501.5,47.4z M488.3,24.6c-1.9,0-3.8,0-5.6,0c0,1.7,0,3.4,0,5.1c1.9,0,3.7,0,5.6,0
				C488.3,28,488.3,26.4,488.3,24.6z M491.9,29.8c1.9,0,3.7,0,5.6,0c0-1.7,0-3.4,0-5.2c-1.9,0-3.8,0-5.6,0
				C491.9,26.4,491.9,28,491.9,29.8z M501.5,24.6c0,1.8,0,3.5,0,5.2c1.9,0,3.7,0,5.6,0c0-1.7,0-3.4,0-5.2
				C505.2,24.6,503.4,24.6,501.5,24.6z M482.5,33.3c0,1.8,0,3.5,0,5.2c1.9,0,3.7,0,5.6,0c0-1.7,0-3.5,0-5.2
				C486.4,33.3,484.5,33.3,482.5,33.3z M497.6,38.5c0-1.8,0-3.5,0-5.2c-1.9,0-3.7,0-5.6,0c0,1.7,0,3.4,0,5.2
				C493.8,38.5,495.7,38.5,497.6,38.5z M501.5,33.3c0,1.8,0,3.5,0,5.2c1.9,0,3.8,0,5.6,0c0-1.8,0-3.5,0-5.2
				C505.2,33.3,503.4,33.3,501.5,33.3z"/>
			<path class="st2" d="M497.7,42.2c0,3.7,0,7.4,0,11.2c-1.9,0-3.7,0-5.6,0c0-3.7,0-7.4,0-11.2C493.8,42.2,495.7,42.2,497.7,42.2z"
				/>
			<path class="st2" d="M488.4,42.2c0,1.8,0,3.4,0,5.2c-1.9,0-3.7,0-5.6,0c0-1.7,0-3.4,0-5.2C484.6,42.2,486.5,42.2,488.4,42.2z"/>
			<path class="st2" d="M501.5,47.4c0-1.7,0-3.4,0-5.2c1.9,0,3.7,0,5.6,0c0,1.7,0,3.4,0,5.2C505.2,47.4,503.4,47.4,501.5,47.4z"/>
			<path class="st2" d="M488.3,24.6c0,1.7,0,3.4,0,5.1c-1.9,0-3.7,0-5.6,0c0-1.7,0-3.4,0-5.1C484.5,24.6,486.3,24.6,488.3,24.6z"/>
			<path class="st2" d="M491.9,29.8c0-1.7,0-3.4,0-5.2c1.9,0,3.7,0,5.6,0c0,1.7,0,3.4,0,5.2C495.7,29.8,493.8,29.8,491.9,29.8z"/>
			<path class="st2" d="M501.5,24.6c1.9,0,3.7,0,5.6,0c0,1.7,0,3.4,0,5.2c-1.9,0-3.7,0-5.6,0C501.5,28.1,501.5,26.4,501.5,24.6z"/>
			<path class="st2" d="M482.5,33.3c1.9,0,3.7,0,5.6,0c0,1.7,0,3.5,0,5.2c-1.9,0-3.7,0-5.6,0C482.5,36.8,482.5,35.1,482.5,33.3z"/>
			<path class="st2" d="M497.6,38.5c-1.9,0-3.7,0-5.6,0c0-1.7,0-3.4,0-5.2c1.9,0,3.7,0,5.6,0C497.6,35,497.6,36.7,497.6,38.5z"/>
			<path class="st2" d="M501.5,33.3c1.9,0,3.7,0,5.6,0c0,1.7,0,3.4,0,5.2c-1.8,0-3.7,0-5.6,0C501.5,36.8,501.5,35.1,501.5,33.3z"/>
		</g>
		<g>
			<path class="st1" d="M478.9,55.7c-2.1,0-3.9,0-6,0c0-2.6,0-5.2,0-7.5c-2.3-0.7-4.3-1-6-1.9c-2.9-1.5-4-4.1-4.1-7.3
				c0-1.2-0.4-2.5-1.1-3.5c-3.7-5.1-1.4-11.7,4.7-13.4c0.9-0.2,1.8-0.9,2.3-1.7c3.8-5.4,10.6-5.4,14.5-0.1c0.6,0.8,1.6,1.5,2.6,1.8
				c5.9,1.7,8.2,8.4,4.4,13.3c-0.5,0.7-1.1,1.6-1.2,2.4c-0.5,7.1-2.2,8.9-9.9,9.9C478.9,50.3,478.9,52.9,478.9,55.7z M478.6,44.8
				c5,1.1,8.8-2.1,8-6.3c-0.3-1.9,0.4-2.8,1.3-4.2c1-1.7,1.8-4.2,1.2-5.9s-2.7-3.4-4.6-4c-1.6-0.5-2.6-0.9-3.3-2.4
				c-1-2.2-2.9-3.2-5.3-3.2c-2.5,0-4.6,1-5.5,3.3c-0.6,1.6-1.5,2-3.1,2.3c-5.2,1-7.2,6.6-3.5,10.2c1.3,1.3,1.6,2.5,1.3,4.2
				c-0.6,3.3,2.1,6.5,5.5,6.8c1.7,0.2,2.5-0.5,1.8-2.1c-0.8-1.8-1.9-3.4-3-5.4c2.7-2.9,3.2,1.5,5,1.8c0.5-1.5-0.8-4.8,3.1-3.5
				c0.1,1.2,0.2,2.3,0.4,3.4c1.7-0.6,2.2-4.6,4.7-1.8C480.9,40.3,479.8,42.5,478.6,44.8z"/>
			<path class="st2" d="M478.6,44.8c1.2-2.3,2.4-4.5,3.7-7c-2.5-2.8-3,1.2-4.7,1.8c-0.1-1.1-0.2-2.2-0.4-3.4c-3.9-1.3-2.6,2-3.1,3.5
				c-1.8-0.3-2.3-4.7-5-1.8c1.1,2,2.2,3.6,3,5.4c0.7,1.6-0.1,2.3-1.8,2.1c-3.3-0.3-6-3.5-5.5-6.8c0.3-1.8,0.1-2.9-1.3-4.2
				c-3.6-3.6-1.6-9.2,3.5-10.2c1.5-0.3,2.4-0.7,3.1-2.3c0.9-2.3,3-3.3,5.5-3.3c2.4,0,4.3,1.1,5.3,3.2c0.7,1.6,1.7,1.9,3.3,2.4
				c1.8,0.6,4,2.3,4.6,4s-0.2,4.3-1.2,5.9c-0.9,1.4-1.6,2.4-1.3,4.2C487.4,42.7,483.6,46,478.6,44.8z"/>
		</g>
		<g>
			<path class="st1" d="M382.9,56.4c0-2.3,0,0.4,0-1.9c2.1,0,4.1,0,6.4,0c0-17.2,0-34.4,0-51.5c-1.4-0.3-1.4-0.3-1.4-1.8
				c0-0.5,0-1,0-1.5c10,0,19.9,0,29.8,0c0,1,0.1,1.9,0,2.9c0,0.2-0.6,0.3-1,0.5c0,0.1,0,0.2,0,0.4c0,7.3,0,14.6,0,21.8
				c0,0.7,0.1,0.9,0.8,0.9c1.4-0.1,2.9,0,4.4,0c0-0.4,0-0.7,0-1c0-10.9,0-21.8,0-32.7c0-0.7,0.2-0.9,0.8-1.1
				c7.6-2,15.1-4.1,22.7-6.2c0.2-0.1,0.5-0.1,0.8-0.2c0,23.2,0,46.3,0,69.5c2.2,0,4.3,0,6.6,0c0,2.4,0-0.3,0,2
				C429.5,56.4,406.3,56.4,382.9,56.4z M408.7,6.5c0,14,0,27.9,0,41.9c0.8,0,1.7,0,2.5,0c1,0,1,0,1-1c0-13.3,0-26.7,0-40
				c0-0.3,0-0.6,0-0.9C411.1,6.5,410,6.5,408.7,6.5z M395.9,6.5c-1.2,0-2.3,0-3.5,0c0,1.7,0,3.3,0,4.9c1.1,0,2.1,0,3.1,0
				c0.1,0,0.3-0.2,0.3-0.4C395.9,9.5,395.9,8,395.9,6.5z M432.3,6.5c0,1.6,0,3.1,0,4.6c0,0.1,0.2,0.4,0.3,0.4c1,0,2.1,0,3.1,0
				c0-1.7,0-3.3,0-5C434.7,6.5,433.5,6.5,432.3,6.5z M443.3,15.6c-1.1,0-2.1,0-3,0c-0.2,0-0.4,0.3-0.4,0.4c0,1.4,0,2.8,0,4.1
				c0,0.2,0.3,0.4,0.4,0.4c0.9,0,1.7,0,2.6,0c0.2,0,0.4-0.2,0.4-0.4C443.3,18.8,443.3,17.3,443.3,15.6z M443.3,48.3
				c0-1.7,0-3.3,0-4.9c-1.2,0-2.3,0-3.4,0c0,1.6,0,3.2,0,4.9C441,48.3,442.1,48.3,443.3,48.3z M435.8,43.4c-1.2,0-2.3,0-3.5,0
				c0,1.6,0,3.1,0,4.6c0,0.1,0.2,0.4,0.4,0.4c1,0,2,0,3.1,0C435.8,46.7,435.8,45.1,435.8,43.4z M425,43.4c0,1.6,0,3.3,0,4.9
				c1.2,0,2.3,0,3.4,0c0-1.7,0-3.3,0-4.9C427.2,43.4,426.1,43.4,425,43.4z M392.4,43.4c0,1.7,0,3.3,0,5c1,0,2.1,0,3.1,0
				c0.1,0,0.4-0.2,0.4-0.3c0-1.5,0-3,0-4.6C394.7,43.4,393.6,43.4,392.4,43.4z M443.3,24.9c-1.1,0-2.1,0-3,0c-0.2,0-0.4,0.3-0.4,0.5
				c-0.1,0.7,0,1.4,0,2.1c0,0.8,0,1.6,0,2.3c1.3,0,2.4,0,3.5,0C443.3,28.2,443.3,26.6,443.3,24.9z M435.8,24.9c-1.1,0-2.1,0-3.1,0
				c-0.1,0-0.3,0.2-0.3,0.3c0,1.5,0,3.1,0,4.6c1.2,0,2.3,0,3.4,0C435.8,28.2,435.8,26.6,435.8,24.9z M428.3,29.9c0-1.7,0-3.3,0-4.9
				c-1.2,0-2.3,0-3.4,0c0,1.7,0,3.3,0,4.9C426.1,29.9,427.2,29.9,428.3,29.9z M395.9,29.9c0-1.6,0-3.1,0-4.6c0-0.1-0.2-0.4-0.3-0.4
				c-1.1,0-2.1,0-3.2,0c0,1.7,0,3.3,0,5C393.6,29.9,394.6,29.9,395.9,29.9z M432.3,20.6c1.2,0,2.3,0,3.4,0c0-1.7,0-3.3,0-4.9
				c-1.1,0-2.2,0-3.4,0C432.3,17.3,432.3,18.9,432.3,20.6z M428.3,20.6c0-1.7,0-3.3,0-5c-1.1,0-2.2,0-3.3,0c0,1.7,0,3.3,0,5
				C426.1,20.6,427.2,20.6,428.3,20.6z M392.4,20.7c1.1,0,2.1,0,3,0c0.2,0,0.4-0.3,0.4-0.4c0-1.4,0-2.7,0-4.1c0-0.2-0.3-0.4-0.4-0.4
				c-0.9,0-1.7,0-2.6,0c-0.2,0-0.4,0.2-0.4,0.4C392.4,17.5,392.4,19.1,392.4,20.7z M439.8,6.5c0,1.6,0,3.1,0,4.6
				c0,0.1,0.2,0.4,0.3,0.4c1.1,0,2.1,0,3.2,0c0-1.7,0-3.3,0-5C442.2,6.5,441.1,6.5,439.8,6.5z M428.3,11.4c0-1.7,0-3.3,0-5
				c-1.1,0-2.2,0-3.4,0c0,1.6,0,3.1,0,4.6c0,0.1,0.2,0.4,0.3,0.4C426.3,11.5,427.3,11.4,428.3,11.4z M392.4,39.1c1.1,0,2.1,0,3,0
				c0.2,0,0.4-0.3,0.4-0.5c0-0.8,0-1.6,0-2.4c0-0.7,0-1.3,0-2c-1.3,0-2.4,0-3.5,0C392.4,35.8,392.4,37.4,392.4,39.1z M435.8,39.1
				c0-1.7,0-3.3,0-4.9c-1.2,0-2.3,0-3.4,0c0,1.7,0,3.3,0,4.9C433.5,39.1,434.7,39.1,435.8,39.1z M439.9,34.2c0,1.7,0,3.3,0,4.9
				c1.2,0,2.3,0,3.4,0c0-1.7,0-3.3,0-4.9C442.1,34.2,441,34.2,439.9,34.2z M439.8-2.7c0,1.5,0,3,0,4.5c0,0.1,0.2,0.4,0.3,0.4
				c1,0,2.1,0,3.1,0c0-1.7,0-3.3,0-4.9C442.1-2.7,441-2.7,439.8-2.7z M435.8-2.7c-1.2,0-2.3,0-3.4,0c0,1.7,0,3.2,0,4.9
				c1.2,0,2.3,0,3.4,0C435.8,0.5,435.8-1.1,435.8-2.7z M428.4-2.8c-1.2,0-2.3,0-3.4,0c0,1.7,0,3.3,0,4.9c1.2,0,2.2,0,3.4,0
				C428.4,0.5,428.4-1.1,428.4-2.8z M425,39.1c1.2,0,2.3,0,3.4,0c0-1.7,0-3.3,0-4.9c-1.1,0-2.2,0-3.4,0C425,35.8,425,37.4,425,39.1z
				"/>
			<path class="st2" d="M408.7,6.5c1.2,0,2.3,0,3.5,0c0,0.3,0,0.6,0,0.9c0,13.3,0,26.7,0,40c0,1,0,1-1,1c-0.8,0-1.6,0-2.5,0
				C408.7,34.3,408.7,20.4,408.7,6.5z"/>
			<path class="st2" d="M395.9,6.5c0,1.6,0,3.1,0,4.6c0,0.1-0.2,0.4-0.3,0.4c-1,0-2,0-3.1,0c0-1.7,0-3.3,0-4.9
				C393.5,6.5,394.6,6.5,395.9,6.5z"/>
			<path class="st2" d="M432.3,6.5c1.2,0,2.3,0,3.4,0c0,1.6,0,3.2,0,5c-1,0-2.1,0-3.1,0c-0.1,0-0.3-0.3-0.3-0.4
				C432.2,9.5,432.3,8,432.3,6.5z"/>
			<path class="st2" d="M443.3,15.6c0,1.6,0,3.1,0,4.7c0,0.1-0.3,0.4-0.4,0.4c-0.9,0-1.7,0-2.6,0c-0.2,0-0.4-0.3-0.4-0.4
				c0-1.4,0-2.8,0-4.1c0-0.2,0.3-0.4,0.4-0.4C441.3,15.6,442.2,15.6,443.3,15.6z"/>
			<path class="st2" d="M443.3,48.3c-1.2,0-2.3,0-3.4,0c0-1.7,0-3.2,0-4.9c1.1,0,2.3,0,3.4,0C443.3,45,443.3,46.6,443.3,48.3z"/>
			<path class="st2" d="M435.8,43.4c0,1.7,0,3.3,0,5c-1,0-2.1,0-3.1,0c-0.1,0-0.4-0.2-0.4-0.4c0-1.5,0-3,0-4.6
				C433.5,43.4,434.6,43.4,435.8,43.4z"/>
			<path class="st2" d="M425,43.4c1.1,0,2.2,0,3.4,0c0,1.6,0,3.3,0,4.9c-1.1,0-2.2,0-3.4,0C425,46.6,425,45,425,43.4z"/>
			<path class="st2" d="M392.4,43.4c1.2,0,2.3,0,3.5,0c0,1.6,0,3.1,0,4.6c0,0.1-0.2,0.3-0.4,0.3c-1,0-2,0-3.1,0
				C392.4,46.7,392.4,45.1,392.4,43.4z"/>
			<path class="st2" d="M443.3,24.9c0,1.7,0,3.3,0,4.9c-1.1,0-2.2,0-3.5,0c0-0.8,0-1.5,0-2.3c0-0.7,0-1.4,0-2.1
				c0-0.2,0.3-0.5,0.4-0.5C441.3,24.9,442.3,24.9,443.3,24.9z"/>
			<path class="st2" d="M435.8,24.9c0,1.7,0,3.3,0,4.9c-1.1,0-2.2,0-3.4,0c0-1.5,0-3.1,0-4.6c0-0.1,0.2-0.3,0.3-0.3
				C433.6,24.9,434.7,24.9,435.8,24.9z"/>
			<path class="st2" d="M428.3,29.9c-1.2,0-2.2,0-3.4,0c0-1.6,0-3.2,0-4.9c1.1,0,2.2,0,3.4,0C428.3,26.6,428.3,28.2,428.3,29.9z"/>
			<path class="st2" d="M395.9,29.9c-1.2,0-2.3,0-3.4,0c0-1.6,0-3.2,0-5c1,0,2.1,0,3.2,0c0.1,0,0.3,0.2,0.3,0.4
				C395.9,26.8,395.9,28.3,395.9,29.9z"/>
			<path class="st2" d="M432.3,20.6c0-1.7,0-3.3,0-4.9c1.1,0,2.2,0,3.4,0c0,1.7,0,3.3,0,4.9C434.7,20.6,433.5,20.6,432.3,20.6z"/>
			<path class="st2" d="M428.3,20.6c-1.1,0-2.2,0-3.3,0c0-1.6,0-3.3,0-5c1.1,0,2.2,0,3.3,0C428.3,17.3,428.3,19,428.3,20.6z"/>
			<path class="st2" d="M392.4,20.7c0-1.6,0-3.1,0-4.7c0-0.1,0.3-0.4,0.4-0.4c0.9,0,1.7,0,2.6,0c0.2,0,0.4,0.3,0.4,0.4
				c0,1.4,0,2.7,0,4.1c0,0.2-0.3,0.4-0.4,0.4C394.4,20.7,393.5,20.7,392.4,20.7z"/>
			<path class="st2" d="M439.8,6.5c1.2,0,2.3,0,3.5,0c0,1.6,0,3.2,0,5c-1.1,0-2.1,0-3.2,0c-0.1,0-0.3-0.2-0.3-0.4
				C439.8,9.5,439.8,8,439.8,6.5z"/>
			<path class="st2" d="M428.3,11.4c-1,0-2,0-3,0c-0.1,0-0.3-0.2-0.3-0.4c0-1.5,0-3,0-4.6c1.2,0,2.3,0,3.4,0
				C428.3,8.1,428.3,9.7,428.3,11.4z"/>
			<path class="st2" d="M392.4,39.1c0-1.7,0-3.3,0-4.9c1.1,0,2.2,0,3.5,0c0,0.7,0,1.3,0,2c0,0.8,0,1.6,0,2.4c0,0.2-0.3,0.5-0.4,0.5
				C394.4,39.1,393.5,39.1,392.4,39.1z"/>
			<path class="st2" d="M435.8,39.1c-1.1,0-2.2,0-3.4,0c0-1.6,0-3.2,0-4.9c1.1,0,2.2,0,3.4,0C435.8,35.8,435.8,37.4,435.8,39.1z"/>
			<path class="st2" d="M439.9,34.2c1.2,0,2.2,0,3.4,0c0,1.6,0,3.2,0,4.9c-1.1,0-2.2,0-3.4,0C439.9,37.4,439.9,35.9,439.9,34.2z"/>
			<path class="st2" d="M439.8-2.7c1.2,0,2.3,0,3.5,0c0,1.6,0,3.2,0,4.9c-1,0-2.1,0-3.1,0c-0.1,0-0.3-0.2-0.3-0.4
				C439.8,0.3,439.8-1.2,439.8-2.7z"/>
			<path class="st2" d="M435.8-2.7c0,1.7,0,3.2,0,4.9c-1.1,0-2.3,0-3.4,0c0-1.6,0-3.2,0-4.9C433.4-2.7,434.6-2.7,435.8-2.7z"/>
			<path class="st2" d="M428.4-2.8c0,1.7,0,3.3,0,4.9c-1.1,0-2.2,0-3.4,0c0-1.6,0-3.2,0-4.9C426.1-2.8,427.2-2.8,428.4-2.8z"/>
			<path class="st2" d="M425,39.1c0-1.6,0-3.2,0-4.9c1.1,0,2.2,0,3.4,0c0,1.6,0,3.2,0,4.9C427.2,39.1,426.1,39.1,425,39.1z"/>
		</g>
		<g>
			<rect x="335.4" y="46.1" class="st2" width="7" height="9.1"/>
			<g>
				<path class="st1" d="M344.3,55c-0.9,0-1.9,0-2.8,0c0-2.7,0-5.4,0-8.1c-1.8,0-3.5,0-5.3,0c0,2.7,0,5.4,0,8.1
					c-8.5,0-16.9,0-25.3,0c0-0.1,0-0.3,0-0.4c0-6.1,0-12.2,0-18.4c0-0.3,0.1-0.4,0.3-0.5c3-1.5,5.9-3,9-4.5c0.2-0.1,0.4-0.1,0.6,0
					c1.4,0.7,2.7,1.4,4.1,2.1c0.1,0.1,0.2,0.1,0.4,0.2c0-5.6,0-11.1,0-16.6c6.5,0,12.8,0,19.3,0C344.3,29.6,344.3,42.3,344.3,55z
					 M337.9,39.3c0,1,0,2.1,0,3.1c1,0,2.1,0,3.1,0c0-1,0-2,0-3.1C340,39.3,339,39.3,337.9,39.3z M336.3,42.4c0-1.1,0-2.1,0-3.1
					c-1,0-2,0-3.1,0c0,1,0,2.1,0,3.1C334.3,42.4,335.3,42.4,336.3,42.4z M328.4,39.3c0,1,0,2.1,0,3.1c1,0,2.1,0,3.1,0
					c0-1,0-2.1,0-3.1C330.4,39.3,329.4,39.3,328.4,39.3z M341,34.6c-1,0-2.1,0-3.1,0c0,1,0,2.1,0,3.1c1,0,2.1,0,3.1,0
					C341,36.6,341,35.6,341,34.6z M333.1,34.6c0,1.1,0,2.1,0,3.1c1,0,2,0,3.1,0c0-1,0-2.1,0-3.1C335.3,34.6,334.3,34.6,333.1,34.6z
					 M328.4,37.7c1.1,0,2.1,0,3.1,0c0-1,0-2.1,0-3.1c-1,0-2.1,0-3.1,0C328.4,35.6,328.4,36.6,328.4,37.7z M341,29.9
					c-1.1,0-2.1,0-3.1,0c0,1,0,2.1,0,3.1c1,0,2.1,0,3.1,0C341,31.9,341,30.9,341,29.9z M333.1,29.9c0,1,0,2.1,0,3.1c1,0,2.1,0,3.1,0
					c0-1,0-2.1,0-3.1C335.3,29.9,334.3,29.9,333.1,29.9z M328.4,33c1,0,2.1,0,3.1,0c0-1,0-2.1,0-3.1c-1,0-2.1,0-3.1,0
					C328.4,30.9,328.4,31.9,328.4,33z M341,25.2c-1,0-2.1,0-3.1,0c0,1,0,2.1,0,3.1c1,0,2.1,0,3.1,0C341,27.2,341,26.2,341,25.2z
					 M336.3,25.2c-1,0-2.1,0-3.1,0c0,1,0,2.1,0,3.1c1,0,2.1,0,3.1,0C336.3,27.2,336.3,26.2,336.3,25.2z M328.4,28.3
					c1.1,0,2.1,0,3.1,0c0-1,0-2.1,0-3.1c-1,0-2.1,0-3.1,0C328.4,26.2,328.4,27.2,328.4,28.3z M337.9,20.5c0,1.1,0,2.1,0,3.1
					c1,0,2,0,3.1,0c0-1,0-2.1,0-3.1C340,20.5,339,20.5,337.9,20.5z M336.3,20.5c-1,0-2.1,0-3.1,0c0,1,0,2.1,0,3.1c1,0,2.1,0,3.1,0
					C336.3,22.6,336.3,21.5,336.3,20.5z M328.4,23.6c1.1,0,2.1,0,3.1,0c0-1,0-2.1,0-3.1c-1,0-2.1,0-3.1,0
					C328.4,21.6,328.4,22.6,328.4,23.6z M321.6,43.8c-0.8,0-1.5,0-2.3,0c0,0.8,0,1.5,0,2.3c0.8,0,1.5,0,2.3,0
					C321.6,45.4,321.6,44.6,321.6,43.8z M322.8,42.6c0.8,0,1.5,0,2.3,0c0-0.8,0-1.5,0-2.3c-0.8,0-1.5,0-2.3,0
					C322.8,41.1,322.8,41.8,322.8,42.6z M321.5,42.6c0-0.8,0-1.6,0-2.3c-0.8,0-1.5,0-2.3,0c0,0.7,0,1.4,0,2.1c0,0.1,0.2,0.2,0.2,0.2
					C320,42.6,320.7,42.6,321.5,42.6z M322.8,46.1c0.8,0,1.6,0,2.3,0c0-0.6,0-1.1,0-1.6c0-0.8,0.1-0.7-0.7-0.7c-0.6,0-1.1,0-1.7,0
					C322.8,44.6,322.8,45.4,322.8,46.1z M319.2,47.3c0,0.8,0,1.5,0,2.3c0.8,0,1.5,0,2.3,0c0-0.8,0-1.5,0-2.3
					C320.7,47.3,319.9,47.3,319.2,47.3z M322.8,47.3c0,0.8,0,1.5,0,2.3c0.8,0,1.5,0,2.3,0c0-0.8,0-1.5,0-2.3
					C324.3,47.3,323.5,47.3,322.8,47.3z M315.6,46.1c0.8,0,1.5,0,2.3,0c0-0.8,0-1.5,0-2.3c-0.8,0-1.5,0-2.3,0
					C315.6,44.6,315.6,45.4,315.6,46.1z M315.6,42.6c0.8,0,1.5,0,2.3,0c0-0.8,0-1.5,0-2.3c-0.8,0-1.5,0-2.3,0
					C315.6,41.1,315.6,41.8,315.6,42.6z M317.9,49.7c0-0.8,0-1.6,0-2.3c-0.8,0-1.5,0-2.3,0c0,0.8,0,1.5,0,2.3
					C316.4,49.7,317.1,49.7,317.9,49.7z"/>
				<path class="st2" d="M337.9,39.3c1,0,2.1,0,3.1,0c0,1,0,2,0,3.1c-1,0-2,0-3.1,0C337.9,41.3,337.9,40.3,337.9,39.3z"/>
				<path class="st2" d="M336.3,42.4c-1,0-2,0-3.1,0c0-1,0-2.1,0-3.1c1,0,2,0,3.1,0C336.3,40.3,336.3,41.3,336.3,42.4z"/>
				<path class="st2" d="M328.4,39.3c1,0,2,0,3.1,0c0,1,0,2,0,3.1c-1,0-2,0-3.1,0C328.4,41.3,328.4,40.3,328.4,39.3z"/>
				<path class="st2" d="M341,34.6c0,1,0,2,0,3.1c-1,0-2,0-3.1,0c0-1,0-2,0-3.1C338.9,34.6,340,34.6,341,34.6z"/>
				<path class="st2" d="M333.1,34.6c1,0,2,0,3.1,0c0,1,0,2.1,0,3.1c-1,0-2,0-3.1,0C333.1,36.6,333.1,35.6,333.1,34.6z"/>
				<path class="st2" d="M328.4,37.7c0-1,0-2,0-3.1c1,0,2,0,3.1,0c0,1,0,2,0,3.1C330.4,37.7,329.4,37.7,328.4,37.7z"/>
				<path class="st2" d="M341,29.9c0,1,0,2,0,3.1c-1,0-2,0-3.1,0c0-1,0-2,0-3.1C338.9,29.9,340,29.9,341,29.9z"/>
				<path class="st2" d="M333.1,29.9c1,0,2.1,0,3.1,0c0,1,0,2,0,3.1c-1,0-2,0-3.1,0C333.1,32,333.1,30.9,333.1,29.9z"/>
				<path class="st2" d="M328.4,33c0-1,0-2.1,0-3.1c1,0,2,0,3.1,0c0,1,0,2,0,3.1C330.5,33,329.4,33,328.4,33z"/>
				<path class="st2" d="M341,25.2c0,1,0,2,0,3.1c-1,0-2,0-3.1,0c0-1,0-2,0-3.1C338.9,25.2,340,25.2,341,25.2z"/>
				<path class="st2" d="M336.3,25.2c0,1,0,2,0,3.1c-1,0-2,0-3.1,0c0-1,0-2,0-3.1C334.3,25.2,335.3,25.2,336.3,25.2z"/>
				<path class="st2" d="M328.4,28.3c0-1,0-2,0-3.1c1,0,2,0,3.1,0c0,1,0,2,0,3.1C330.4,28.3,329.4,28.3,328.4,28.3z"/>
				<path class="st2" d="M337.9,20.5c1,0,2,0,3.1,0c0,1,0,2.1,0,3.1c-1,0-2,0-3.1,0C337.9,22.6,337.9,21.6,337.9,20.5z"/>
				<path class="st2" d="M336.3,20.5c0,1,0,2,0,3.1c-1,0-2,0-3.1,0c0-1,0-2,0-3.1C334.3,20.5,335.3,20.5,336.3,20.5z"/>
				<path class="st2" d="M328.4,23.6c0-1,0-2,0-3.1c1,0,2,0,3.1,0c0,1,0,2,0,3.1C330.4,23.6,329.4,23.6,328.4,23.6z"/>
				<path class="st2" d="M321.6,43.8c0,0.8,0,1.5,0,2.3c-0.8,0-1.5,0-2.3,0c0-0.8,0-1.5,0-2.3C319.9,43.8,320.7,43.8,321.6,43.8z"/>
				<path class="st2" d="M322.8,42.6c0-0.8,0-1.5,0-2.3c0.8,0,1.5,0,2.3,0c0,0.8,0,1.5,0,2.3C324.3,42.6,323.6,42.6,322.8,42.6z"/>
				<path class="st2" d="M321.5,42.6c-0.7,0-1.4,0-2.1,0c-0.1,0-0.2-0.1-0.2-0.2c0-0.7,0-1.4,0-2.1c0.8,0,1.5,0,2.3,0
					C321.5,41.1,321.5,41.8,321.5,42.6z"/>
				<path class="st2" d="M322.8,46.1c0-0.8,0-1.5,0-2.3c0.6,0,1.1,0,1.7,0c0.8,0,0.7-0.1,0.7,0.7c0,0.5,0,1.1,0,1.6
					C324.3,46.1,323.5,46.1,322.8,46.1z"/>
				<path class="st2" d="M319.2,47.3c0.8,0,1.5,0,2.3,0c0,0.8,0,1.5,0,2.3c-0.8,0-1.5,0-2.3,0C319.2,48.9,319.2,48.1,319.2,47.3z"/>
				<path class="st2" d="M322.8,47.3c0.8,0,1.5,0,2.3,0c0,0.8,0,1.5,0,2.3c-0.8,0-1.5,0-2.3,0C322.8,48.9,322.8,48.1,322.8,47.3z"/>
				<path class="st2" d="M315.6,46.1c0-0.8,0-1.5,0-2.3c0.8,0,1.5,0,2.3,0c0,0.8,0,1.5,0,2.3C317.1,46.1,316.4,46.1,315.6,46.1z"/>
				<path class="st2" d="M315.6,42.6c0-0.8,0-1.5,0-2.3c0.8,0,1.5,0,2.3,0c0,0.8,0,1.5,0,2.3C317.1,42.6,316.4,42.6,315.6,42.6z"/>
				<path class="st2" d="M317.9,49.7c-0.8,0-1.5,0-2.3,0c0-0.8,0-1.5,0-2.3c0.8,0,1.5,0,2.3,0C317.9,48.1,317.9,48.9,317.9,49.7z"/>
			</g>
		</g>
		<g>
			<path class="st1" d="M291.4,55.6c-4.2,0-8.5,0-12.7,0c-0.1,0-0.2,0-0.4,0c-0.8,0-1.2-0.4-1.2-1.2c0-2.5,0-5,0-7.5
				c0-6,0-11.9,0-17.9c0-0.2-0.1-0.4-0.2-0.5c-0.4-0.5-0.5-1.1-0.3-1.7s0.7-1,1.3-1.1c2.2-0.4,4.4-0.7,6.7-1
				c2.5-0.4,5.1-0.8,7.7-1.2c0.8-0.1,1.6-0.3,2.4-0.4c0.6-0.1,1.3,0.3,1.6,0.9c0.3,0.6,0.3,1.4-0.2,1.9c-0.2,0.2-0.3,0.5-0.3,0.7
				c0,2,0,4,0,6c0,0.3,0.1,0.4,0.4,0.4c0.9,0.2,1.8,0.4,2.7,0.6c2,0.5,4.1,1,6.1,1.5c0.7,0.2,1.2,0.6,1.4,1.3
				c0.2,0.7-0.1,1.3-0.6,1.8c-0.1,0.1-0.2,0.3-0.2,0.4c0,3.4,0,6.8,0,10.1c0,1.9,0,3.7,0,5.6c0,0.9-0.4,1.3-1.3,1.3
				C300.1,55.6,295.7,55.6,291.4,55.6L291.4,55.6z M293.6,26.6c-0.1,0-0.2,0-0.3,0c-2.3,0.4-4.5,0.7-6.9,1.1c-2.3,0.4-4.5,0.7-6.9,1
				c-0.4,0.1-0.5,0.2-0.5,0.6c0,7.9,0,15.8,0,23.6c0,0.1,0,0.3,0,0.4c1.8,0,3.6,0,5.5,0c0-1.8,0-3.6,0-5.4c1.1,0,2.2,0,3.3,0
				c0,1.8,0,3.6,0,5.4c1.8,0,3.6,0,5.5,0C293.6,44.5,293.6,35.6,293.6,26.6z M300.7,53.4c1,0,1.9,0,2.8,0c0-0.1,0-0.2,0-0.3
				c0-4.8,0-9.6,0-14.4c0-0.3-0.1-0.4-0.4-0.4c-1.8-0.4-3.6-0.8-5.3-1.2c-0.6-0.1-1.3-0.3-1.9-0.4c0,5.6,0,11.2,0,16.8
				c0.9,0,1.9,0,2.8,0c0-0.9,0-1.8,0-2.7c0.7,0,1.3,0,2,0C300.7,51.6,300.7,52.5,300.7,53.4z"/>
			<path class="st2" d="M293.6,26.6c0,9,0,17.9,0,26.8c-1.8,0-3.6,0-5.5,0c0-1.8,0-3.6,0-5.4c-1.1,0-2.2,0-3.3,0c0,1.8,0,3.6,0,5.4
				c-1.8,0-3.6,0-5.5,0c0-0.1,0-0.3,0-0.4c0-7.9,0-15.8,0-23.6c0-0.4,0.1-0.5,0.5-0.6c2.3-0.3,4.5-0.7,6.9-1
				C289,27.4,291.2,27.1,293.6,26.6C293.4,26.7,293.5,26.7,293.6,26.6z M286.5,44.9L286.5,44.9c0.5,0,0.9,0,1.4,0
				c0.2,0,0.3-0.1,0.3-0.3c0-0.9,0-1.8,0-2.7c0-0.2-0.1-0.3-0.3-0.3c-0.9,0-1.8,0-2.8,0c-0.2,0-0.3,0.1-0.3,0.3c0,0.9,0,1.8,0,2.7
				c0,0.3,0.1,0.3,0.3,0.3C285.6,44.9,286,44.9,286.5,44.9z M284.8,29.8c0,1.1,0,2.1,0,3.2c1.1,0,2.2,0,3.3,0c0-1.1,0-2.1,0-3.2
				C287,29.8,285.9,29.8,284.8,29.8z M284.8,35.7c0,1.1,0,2.1,0,3.2c1.1,0,2.1,0,3.1,0c0.1,0,0.2-0.2,0.2-0.2c0-0.5,0-1,0-1.5
				s0-0.9,0-1.4C287,35.7,286,35.7,284.8,35.7z"/>
			<path class="st2" d="M300.7,53.4c0-0.9,0-1.8,0-2.7c-0.7,0-1.3,0-2,0c0,0.9,0,1.8,0,2.7c-1,0-1.9,0-2.8,0c0-5.6,0-11.2,0-16.8
				c0.7,0.1,1.3,0.3,1.9,0.4c1.8,0.4,3.6,0.8,5.3,1.2c0.3,0.1,0.4,0.1,0.4,0.4c0,4.8,0,9.6,0,14.4c0,0.1,0,0.2,0,0.3
				C302.6,53.4,301.7,53.4,300.7,53.4z M300.7,39.6c-0.7,0-1.3,0-1.9,0c0,0.6,0,1.3,0,1.9c0.7,0,1.3,0,1.9,0
				C300.7,40.9,300.7,40.2,300.7,39.6z M298.7,43.1c0,0.6,0,1.1,0,1.7c0,0.1,0.2,0.2,0.2,0.2c0.5,0,1,0,1.5,0c0.1,0,0.2-0.1,0.2-0.2
				c0-0.6,0-1.1,0-1.7C300,43.1,299.4,43.1,298.7,43.1z M298.7,46.7c0,0.6,0,1.2,0,1.8c0.7,0,1.3,0,1.9,0c0-0.6,0-1.2,0-1.8
				C300,46.7,299.4,46.7,298.7,46.7z"/>
			<path class="st1" d="M286.5,44.9c-0.4,0-0.9,0-1.3,0c-0.2,0-0.3,0-0.3-0.3c0-0.9,0-1.8,0-2.7c0-0.2,0.1-0.3,0.3-0.3
				c0.9,0,1.8,0,2.8,0c0.2,0,0.3,0.1,0.3,0.3c0,0.9,0,1.8,0,2.7c0,0.2-0.1,0.3-0.3,0.3C287.4,44.9,286.9,44.9,286.5,44.9L286.5,44.9
				z"/>
			<path class="st1" d="M284.8,29.8c1.1,0,2.2,0,3.3,0c0,1.1,0,2.1,0,3.2c-1.1,0-2.2,0-3.3,0C284.8,31.9,284.8,30.9,284.8,29.8z"/>
			<path class="st1" d="M284.8,35.7c1.1,0,2.2,0,3.3,0c0,0.5,0,0.9,0,1.4s0,1,0,1.5c0,0.1-0.1,0.2-0.2,0.2c-1,0-2.1,0-3.1,0
				C284.8,37.8,284.8,36.8,284.8,35.7z"/>
			<path class="st1" d="M300.7,39.6c0,0.6,0,1.2,0,1.9c-0.6,0-1.3,0-1.9,0c0-0.6,0-1.2,0-1.9C299.4,39.6,300,39.6,300.7,39.6z"/>
			<path class="st1" d="M298.7,43.1c0.7,0,1.3,0,2,0c0,0.6,0,1.1,0,1.7c0,0.1-0.1,0.2-0.2,0.2c-0.5,0-1,0-1.5,0
				c-0.1,0-0.2-0.1-0.2-0.2C298.7,44.3,298.7,43.7,298.7,43.1z"/>
			<path class="st1" d="M298.7,46.7c0.6,0,1.3,0,1.9,0c0,0.6,0,1.2,0,1.8c-0.6,0-1.3,0-1.9,0C298.7,47.9,298.7,47.3,298.7,46.7z"/>
		</g>
		<g>
			<path class="st1" d="M267.8,54.4c-0.6,0-1.2,0-1.8,0h-0.1c-0.6-0.2-1-0.7-1-1.3c0-0.4,0-0.8,0-1.2c0-0.1,0-0.1,0-0.2
				c-1.8,0-3.6,0-5.4,0l0,0c0,0.4,0,0.8,0,1.3c0,0.6-0.3,1.1-0.9,1.3c-0.1,0-0.2,0.1-0.3,0.1c-0.6,0-1.2,0-1.8,0
				c-0.1,0-0.1,0-0.2-0.1c-0.6-0.2-1-0.7-1-1.3c0-0.3,0-0.6,0-0.9c0-0.2,0-0.3,0-0.5c-0.9-0.1-1.3-0.6-1.3-1.5c0-3.7,0-7.5,0-11.2
				c0-0.6,0-1.2,0.1-1.7c0.4-1.9,2.1-3.1,4-3.1s3.9,0,5.8,0c0.9,0,1.8,0,2.8,0.1c1.7,0.1,3.1,1.5,3.4,3.2c0.1,0.6,0.1,1.1,0.1,1.7
				c0,3.7,0,7.4,0,11.1c0,0.3,0,0.6-0.2,0.8c-0.3,0.4-0.6,0.6-1.1,0.6l0,0c0,0.4,0,0.9,0,1.3c0,0.6-0.4,1-0.9,1.2
				C268,54.4,267.9,54.4,267.8,54.4z M268.9,38.2c-4.5,0-9.1,0-13.6,0c0,2.7,0,5.4,0,8.1c4.5,0,9.1,0,13.6,0
				C268.9,43.6,268.9,40.9,268.9,38.2z M259.5,36.9c1.8,0,3.6,0,5.4,0c0-0.5,0-0.9,0-1.3c-1.8,0-3.6,0-5.4,0
				C259.5,36,259.5,36.4,259.5,36.9z M256.7,47.7c-0.7,0-1.3,0.6-1.3,1.4c0,0.7,0.6,1.3,1.4,1.3c0.7,0,1.3-0.6,1.3-1.4
				C258.1,48.3,257.4,47.7,256.7,47.7z M267.6,47.7c-0.8,0-1.4,0.6-1.4,1.4c0,0.7,0.6,1.3,1.3,1.3c0.7,0,1.4-0.6,1.4-1.3
				C269,48.3,268.4,47.7,267.6,47.7z"/>
			<path class="st0" d="M258.3,54.4c0.1,0,0.2-0.1,0.3-0.1c0.5-0.2,0.9-0.7,0.9-1.3c0-0.4,0-0.8,0-1.3l0,0c1.8,0,3.6,0,5.4,0
				c0,0.1,0,0.1,0,0.2c0,0.4,0,0.8,0,1.2c0,0.6,0.4,1.1,1,1.3h0.1C263.5,54.4,260.9,54.4,258.3,54.4z"/>
			<path class="st1" d="M251.3,40.1c0.3-0.6,0.8-0.5,1.3-0.5c0,1.3,0,2.7,0,4c-0.5,0-1.1,0.1-1.3-0.5
				C251.3,42.1,251.3,41.1,251.3,40.1z"/>
			<path class="st1" d="M273.1,43.1c-0.3,0.5-0.4,0.6-1.3,0.5c0-1.3,0-2.7,0-4c0.8-0.1,1-0.1,1.3,0.5
				C273.1,41.1,273.1,42.1,273.1,43.1z"/>
			<path class="st2" d="M268.9,38.2c0,2.7,0,5.4,0,8.1c-4.5,0-9.1,0-13.6,0c0-2.7,0-5.4,0-8.1C259.9,38.2,264.4,38.2,268.9,38.2z"/>
			<path class="st2" d="M259.5,36.9c0-0.4,0-0.9,0-1.3c1.8,0,3.6,0,5.4,0c0,0.4,0,0.9,0,1.3C263.1,36.9,261.3,36.9,259.5,36.9z"/>
			<path class="st2" d="M256.7,47.7c0.7,0,1.4,0.6,1.4,1.3c0,0.7-0.6,1.4-1.3,1.4s-1.4-0.6-1.4-1.3
				C255.3,48.3,255.9,47.7,256.7,47.7z"/>
			<path class="st2" d="M267.6,47.7c0.7,0,1.3,0.6,1.3,1.4c0,0.7-0.6,1.3-1.4,1.3c-0.7,0-1.3-0.6-1.3-1.3
				C266.2,48.3,266.9,47.7,267.6,47.7z"/>
		</g>
	</g>
	<rect x="-4.4" y="54.2" class="st1" width="789" height="3.1"/>
</g>
</svg>
