<?xml version="1.0" encoding="utf-8"?>
<!-- Generator: Adobe Illustrator 19.1.0, SVG Export Plug-In . SVG Version: 6.00 Build 0)  -->
<svg version="1.1" id="Layer_1" xmlns="http://www.w3.org/2000/svg" xmlns:xlink="http://www.w3.org/1999/xlink" x="0px" y="0px"
	 viewBox="0 -16 783 73" style="enable-background:new 0 -16 783 73;" xml:space="preserve">
<style type="text/css">
	.st0{fill:#0075C9;}
	.st1{fill:#C2DAF1;}
	.st2{fill:#FFFFFF;}
</style>
<g>
	<g>
		<g>
			<path class="st0" d="M214.5,54.7c-1.9,0-3.4,0-5.3,0c0-2.3,0-4.6,0-6.6c-2-0.6-3.8-0.9-5.3-1.6c-2.5-1.3-3.5-3.6-3.6-6.4
				c0-1-0.4-2.2-1-3c-3.3-4.4-1.2-10.2,4.1-11.7c0.8-0.2,1.6-0.8,2-1.5c3.4-4.7,9.3-4.7,12.6-0.1c0.5,0.7,1.4,1.3,2.3,1.6
				c5.1,1.5,7.1,7.3,3.9,11.6c-0.5,0.6-1,1.4-1.1,2.1c-0.5,6.2-2,7.8-8.7,8.7C214.5,50,214.5,52.3,214.5,54.7z M214.2,45.2
				c4.4,1,7.7-1.8,7-5.5c-0.3-1.6,0.3-2.4,1.1-3.7c0.9-1.4,1.6-3.7,1.1-5.2c-0.5-1.5-2.4-3-4-3.5c-1.4-0.5-2.3-0.8-2.9-2.1
				c-0.9-1.9-2.5-2.8-4.7-2.8c-2.2,0-4.1,0.9-4.9,2.9c-0.6,1.4-1.4,1.7-2.7,2c-4.5,0.9-6.3,5.7-3.1,8.9c1.2,1.2,1.4,2.1,1.1,3.7
				c-0.5,2.9,1.9,5.6,4.8,5.9c1.5,0.1,2.2-0.5,1.5-1.9c-0.7-1.6-1.7-3-2.7-4.7c2.4-2.5,2.8,1.3,4.4,1.6c0.4-1.3-0.7-4.2,2.7-3
				c0.1,1,0.2,2,0.3,3c1.5-0.5,2-4,4.1-1.5C216.3,41.3,215.3,43.2,214.2,45.2z"/>
			<path class="st1" d="M214.2,45.2c1.1-2,2.1-3.9,3.2-6.1c-2.2-2.4-2.6,1-4.1,1.5c-0.1-1-0.2-2-0.3-3c-3.4-1.1-2.3,1.7-2.7,3
				c-1.6-0.3-2-4.1-4.4-1.6c1,1.7,2,3.2,2.7,4.7c0.6,1.4-0.1,2-1.5,1.9c-2.9-0.3-5.3-3-4.8-5.9c0.3-1.5,0.1-2.5-1.1-3.7
				c-3.2-3.1-1.4-8,3.1-8.9c1.4-0.3,2.1-0.6,2.7-2c0.8-2,2.7-2.9,4.9-2.9c2.1,0,3.8,0.9,4.7,2.8c0.6,1.4,1.5,1.7,2.9,2.1
				c1.6,0.5,3.5,2,4,3.5c0.5,1.5-0.2,3.7-1.1,5.2c-0.8,1.2-1.4,2.1-1.1,3.7C221.9,43.4,218.6,46.2,214.2,45.2z"/>
		</g>
		<g>
			<path class="st0" d="M196.4,54.7c-1.5,0-2.8,0-4.3,0c0-1.9,0-3.7,0-5.4c-1.6-0.5-3.1-0.7-4.3-1.3c-2-1.1-2.9-2.9-3-5.2
				c0-0.8-0.3-1.8-0.8-2.5c-2.7-3.6-1-8.3,3.3-9.5c0.6-0.2,1.3-0.7,1.7-1.2c2.7-3.8,7.5-3.9,10.3,0c0.4,0.6,1.1,1.1,1.8,1.3
				c4.2,1.2,5.8,6,3.2,9.4c-0.4,0.5-0.8,1.1-0.9,1.7c-0.4,5-1.6,6.3-7,7.1C196.4,50.9,196.4,52.8,196.4,54.7z M196.2,47
				c3.6,0.8,6.2-1.5,5.7-4.5c-0.2-1.3,0.3-2,0.9-3c0.7-1.2,1.3-3,0.9-4.2c-0.4-1.2-2-2.4-3.3-2.9c-1.1-0.4-1.8-0.6-2.3-1.7
				c-0.7-1.5-2.1-2.3-3.8-2.3c-1.8,0-3.3,0.7-4,2.3c-0.5,1.1-1.1,1.4-2.2,1.6c-3.7,0.7-5.1,4.7-2.5,7.2c1,1,1.1,1.7,0.9,3
				c-0.4,2.4,1.5,4.6,3.9,4.8c1.2,0.1,1.8-0.4,1.3-1.5c-0.6-1.3-1.4-2.4-2.2-3.8c1.9-2.1,2.3,1.1,3.6,1.3c0.4-1.1-0.6-3.4,2.2-2.5
				c0.1,0.8,0.2,1.7,0.3,2.4c1.2-0.4,1.6-3.2,3.4-1.3C197.9,43.8,197,45.3,196.2,47z"/>
			<path class="st1" d="M196.2,47c0.9-1.7,1.7-3.2,2.6-5c-1.8-2-2.1,0.8-3.4,1.3c-0.1-0.8-0.2-1.6-0.3-2.4c-2.8-0.9-1.8,1.4-2.2,2.5
				c-1.3-0.2-1.6-3.3-3.6-1.3c0.8,1.4,1.6,2.6,2.2,3.8c0.5,1.1,0,1.6-1.3,1.5c-2.4-0.2-4.3-2.4-3.9-4.8c0.2-1.3,0.1-2-0.9-3
				c-2.6-2.6-1.2-6.5,2.5-7.2c1.1-0.2,1.7-0.5,2.2-1.6c0.7-1.6,2.2-2.3,4-2.3c1.7,0,3.1,0.7,3.8,2.3c0.5,1.1,1.2,1.4,2.3,1.7
				c1.3,0.4,2.9,1.7,3.3,2.9c0.4,1.2-0.1,3-0.9,4.2c-0.6,1-1.2,1.7-0.9,3C202.4,45.5,199.7,47.8,196.2,47z"/>
		</g>
		<g>
			<path class="st0" d="M766.3,23c-0.7,0.3-1.3,0.5-2.2,0.8c2.5-4,4.8-7.9,6.3-12.7c1.5,4.8,3.8,8.8,6.5,12.8
				c-0.9-0.4-1.6-0.7-2.3-1c-0.1,0.1-0.1,0.1-0.2,0.2c1.5,3,2.9,6,4.5,9.1c-0.8-0.4-1.4-0.7-2.2-1.1c1.4,2.8,2.7,5.4,4.1,8.2
				c-0.8-0.3-1.4-0.6-2.1-0.8c0,0.1-0.1,0.1-0.1,0.2c1.2,2.1,2.4,4.2,3.7,6.5c-7.9,2.4-15.7,2.4-23.6,0c1.3-2.2,2.5-4.4,3.8-6.8
				c-0.9,0.3-1.6,0.6-2.4,1c1.4-2.7,2.6-5.3,3.9-7.9c0-0.1-0.1-0.1-0.1-0.2c-0.6,0.3-1.2,0.5-1.9,0.9c0.8-1.7,1.6-3.3,2.3-4.9
				c0.6-1.3,1.2-2.5,1.9-3.8C766.2,23.5,766.3,23.3,766.3,23c0.1,0,0.1,0,0.1,0c0,0,0,0-0.1-0.1C766.3,23,766.3,23,766.3,23z"/>
			<path class="st0" d="M773.6,53.4c-2.2,0-4.4,0-6.6,0c0.5-0.8,1.1-1.5,1.3-2.3c0.3-0.8,0.2-1.8,0.4-2.8c0.8,0,1.7,0,2.5,0
				c0.1,0,0.3,0.2,0.4,0.3C772.2,50.2,772.9,51.8,773.6,53.4z"/>
		</g>
		<g>
			<path class="st0" d="M380.2,32.4c-0.5,0.2-0.9,0.4-1.5,0.6c1.7-2.7,3.3-5.4,4.3-8.7c1.1,3.3,2.6,6.1,4.4,8.8
				c-0.6-0.3-1.1-0.5-1.5-0.7c0,0-0.1,0.1-0.1,0.1c1,2.1,2,4.1,3.1,6.3c-0.6-0.3-1-0.5-1.5-0.7c1,1.9,1.9,3.7,2.8,5.7
				c-0.5-0.2-1-0.4-1.5-0.6c0,0-0.1,0.1-0.1,0.1c0.8,1.5,1.7,2.9,2.5,4.5c-5.4,1.6-10.8,1.7-16.2,0c0.9-1.5,1.7-3,2.6-4.7
				c-0.6,0.2-1.1,0.4-1.7,0.7c0.9-1.9,1.8-3.7,2.7-5.4c0,0-0.1-0.1-0.1-0.1c-0.4,0.2-0.8,0.4-1.3,0.6c0.6-1.2,1.1-2.3,1.6-3.4
				c0.4-0.9,0.9-1.7,1.3-2.6C380.2,32.8,380.2,32.6,380.2,32.4C380.3,32.4,380.3,32.4,380.2,32.4C380.3,32.4,380.3,32.4,380.2,32.4
				C380.2,32.4,380.2,32.4,380.2,32.4z"/>
			<path class="st0" d="M385.2,53.4c-1.5,0-3,0-4.5,0c0.3-0.5,0.7-1,0.9-1.6c0.2-0.6,0.2-1.3,0.2-1.9c0.5,0,1.1,0,1.8,0
				c0.1,0,0.2,0.1,0.3,0.2C384.3,51.2,384.7,52.3,385.2,53.4z"/>
		</g>
		<g>
			<path class="st0" d="M225.8,50.1c0-1.9,0-3.7,0-5.6c0-0.1,0.1-0.3,0.1-0.4c0.2-0.7,0.7-1.1,1.3-1.4c0.3-0.1,0.4-0.2,0.5-0.5
				c0.4-1.2,0.9-2.4,1.4-3.5c0.4-1.1,1.1-1.6,2.4-1.7c2.7,0,5.4,0,8.1,0c1.2,0,1.9,0.5,2.4,1.7c0.4,1,0.8,2,1.1,3
				c0.2,0.5,0.3,1,1,1.2c0.1,0,0.3,0.2,0.4,0.3c0.3,0.4,0.5,0.8,0.7,1.2c0,1.9,0,3.8,0,5.7c-0.5,0-1,0-1.5,0c0,0.4,0,0.6,0,0.9
				c0,0.4,0,0.8-0.1,1.2c-0.1,0.9-1.1,1.4-2,1c-0.7-0.3-0.9-0.8-0.9-1.5c0-0.5,0-1,0-1.5c-3.5,0-7,0-10.5,0c0,0.6,0,1.3,0,1.9
				c0,0.6-0.4,1-1,1.2c-0.5,0.2-1,0.1-1.4-0.3c-0.4-0.4-0.5-0.8-0.5-1.4c0-0.5,0-1,0-1.5C226.8,50.1,226.3,50.1,225.8,50.1z
				 M241.8,42.7c-0.4-1.1-0.8-2.2-1.2-3.2c-0.2-0.6-0.4-0.8-1.1-0.8c-2.6,0-5.3,0-7.9,0c-0.7,0-0.9,0.1-1.1,0.8
				c-0.4,1-0.7,1.9-1.1,2.9c0,0.1-0.1,0.2-0.1,0.3C233.4,42.7,237.6,42.7,241.8,42.7z M228.8,47c0.7,0,1.3-0.6,1.3-1.3
				c0-0.7-0.6-1.4-1.3-1.4c-0.7,0-1.3,0.6-1.3,1.3C227.5,46.3,228.1,47,228.8,47z M243.4,45.6c0-0.7-0.6-1.4-1.3-1.3
				c-0.7,0-1.3,0.6-1.3,1.4c0,0.7,0.6,1.3,1.3,1.3C242.8,47,243.4,46.4,243.4,45.6z"/>
			<path class="st1" d="M241.8,42.7c-4.2,0-8.3,0-12.5,0c0-0.1,0.1-0.2,0.1-0.3c0.4-1,0.7-1.9,1.1-2.9c0.2-0.6,0.4-0.8,1.1-0.8
				c2.6,0,5.3,0,7.9,0c0.7,0,0.9,0.1,1.1,0.8C241,40.5,241.3,41.6,241.8,42.7z"/>
			<path class="st1" d="M228.8,47c-0.7,0-1.3-0.6-1.3-1.4c0-0.7,0.6-1.3,1.3-1.3c0.7,0,1.3,0.6,1.3,1.4
				C230.2,46.4,229.5,47,228.8,47z"/>
			<path class="st1" d="M243.4,45.6c0,0.7-0.6,1.4-1.3,1.4c-0.7,0-1.3-0.6-1.3-1.3c0-0.7,0.6-1.3,1.3-1.4
				C242.8,44.3,243.4,44.9,243.4,45.6z"/>
		</g>
		<rect x="740.1" y="39.2" class="st0" width="18" height="16.2"/>
		<rect x="742.6" y="42.1" class="st1" width="3.2" height="3.2"/>
		<rect x="747.5" y="42.1" class="st1" width="3.2" height="3.2"/>
		<rect x="752.3" y="42.1" class="st1" width="3.2" height="3.2"/>
		<rect x="742.6" y="47.4" class="st1" width="3.2" height="6.3"/>
		<rect x="747.5" y="47.4" class="st1" width="3.2" height="6.3"/>
		<rect x="752.3" y="47.4" class="st1" width="3.2" height="6.3"/>
		<polygon class="st0" points="759.3,40.2 738.9,40.2 749.1,30.1 		"/>
		<rect x="646.4" y="15.4" class="st0" width="11.5" height="9.2"/>
		<polygon class="st0" points="659.5,15.8 644.9,15.8 652.2,9.6 		"/>
		<ellipse class="st1" cx="749.1" cy="37.2" rx="1.9" ry="1.9"/>
		<ellipse class="st1" cx="652.2" cy="18.7" rx="2.8" ry="2.7"/>
		<rect x="715.6" y="10.1" class="st0" width="22.2" height="44.2"/>
		<rect x="717.9" y="13" class="st1" width="2.3" height="3.7"/>
		<rect x="722.9" y="13" class="st1" width="2.3" height="3.7"/>
		<rect x="728" y="13" class="st1" width="2.3" height="3.7"/>
		<rect x="733" y="13" class="st1" width="2.3" height="3.7"/>
		<rect x="717.9" y="19.2" class="st1" width="2.3" height="3.7"/>
		<rect x="722.9" y="19.2" class="st1" width="2.3" height="3.7"/>
		<rect x="728" y="19.2" class="st1" width="2.3" height="3.7"/>
		<rect x="733" y="19.2" class="st1" width="2.3" height="3.7"/>
		<rect x="717.9" y="25.4" class="st1" width="2.3" height="3.7"/>
		<rect x="722.9" y="25.4" class="st1" width="2.3" height="3.7"/>
		<rect x="728" y="25.4" class="st1" width="2.3" height="3.7"/>
		<rect x="733" y="25.4" class="st1" width="2.3" height="3.7"/>
		<rect x="717.9" y="31.6" class="st1" width="2.3" height="3.7"/>
		<rect x="722.9" y="31.6" class="st1" width="2.3" height="3.7"/>
		<rect x="728" y="31.6" class="st1" width="2.3" height="3.7"/>
		<rect x="733" y="31.6" class="st1" width="2.3" height="3.7"/>
		<rect x="717.9" y="37.8" class="st1" width="2.3" height="3.7"/>
		<rect x="722.9" y="37.8" class="st1" width="2.3" height="3.7"/>
		<rect x="728" y="37.8" class="st1" width="2.3" height="3.7"/>
		<rect x="733" y="37.8" class="st1" width="2.3" height="3.7"/>
		<rect x="717.9" y="44" class="st1" width="2.3" height="3.7"/>
		<rect x="722.9" y="44" class="st1" width="2.3" height="3.7"/>
		<rect x="728" y="44" class="st1" width="2.3" height="3.7"/>
		<rect x="733" y="44" class="st1" width="2.3" height="3.7"/>
		<rect x="717.9" y="50.2" class="st1" width="2.3" height="3.7"/>
		<rect x="722.9" y="50.2" class="st1" width="2.3" height="3.7"/>
		<rect x="728" y="50.2" class="st1" width="2.3" height="3.7"/>
		<rect x="733" y="50.2" class="st1" width="2.3" height="3.7"/>
		<rect x="695.5" y="29.3" class="st0" width="21.3" height="26.2"/>
		<rect x="698.2" y="31.8" class="st1" width="15.7" height="2.6"/>
		<rect x="698.2" y="36.6" class="st1" width="15.7" height="2.6"/>
		<rect x="698.2" y="41.5" class="st1" width="15.7" height="2.6"/>
		<rect x="698.2" y="46.3" class="st1" width="15.7" height="2.6"/>
		<rect x="698.2" y="51.1" class="st1" width="15.7" height="2.6"/>
		<g>
			<g>
				<rect x="666.3" y="17.7" class="st0" width="5" height="37.7"/>
				<g>
					<polygon class="st1" points="671.8,55 671.8,18.4 682.3,22.1 682.3,55 					"/>
					<path class="st0" d="M672.3,19.1l9.6,3.3v32h-9.6V19.1 M671.3,17.7v37.7h11.6V21.7L671.3,17.7L671.3,17.7z"/>
				</g>
			</g>
			<polygon class="st0" points="673.7,22 673.7,24.8 680.5,27.1 680.5,24.3 			"/>
			<polygon class="st0" points="673.7,27.1 673.7,30.1 680.5,31.8 680.5,29.1 			"/>
		</g>
		<g>
			<g>
				<rect x="675.6" y="32.6" class="st0" width="5" height="21.9"/>
				<g>
					<polygon class="st1" points="681,53.9 681,33.3 691.6,36.9 691.6,53.9 					"/>
					<path class="st0" d="M681.5,34l9.6,3.3v16.2h-9.6V34 M680.5,32.6v21.9h11.6V36.6L680.5,32.6L680.5,32.6z"/>
				</g>
			</g>
			<polygon class="st0" points="682.9,36.9 682.9,39.6 689.7,42 689.7,39.2 			"/>
			<polygon class="st0" points="682.9,42 682.9,45 689.7,46.6 689.7,44 			"/>
		</g>
		<g>
			<g>
				<rect x="368.5" y="10.1" class="st0" width="6" height="45.3"/>
				<g>
					<polygon class="st1" points="355.2,54.8 355.2,15.3 367.9,11 367.9,54.8 					"/>
					<path class="st0" d="M367.3,11.8v42.4h-11.5V15.8L367.3,11.8 M368.5,10.1l-13.9,4.8v40.6h13.9V10.1L368.5,10.1z"/>
				</g>
			</g>
			<polygon class="st0" points="365.6,15.3 365.6,18.6 357.5,21.4 357.5,18 			"/>
			<polygon class="st0" points="365.6,21.4 365.6,25 357.5,27 357.5,23.8 			"/>
		</g>
		<g>
			<g>
				<rect x="357.4" y="28" class="st0" width="6" height="26.3"/>
				<g>
					<polygon class="st1" points="344.1,53.6 344.1,33.2 356.8,28.8 356.8,53.6 					"/>
					<path class="st0" d="M356.2,29.7V53h-11.5V33.6L356.2,29.7 M357.4,28l-13.9,4.8v21.5h13.9V28L357.4,28z"/>
				</g>
			</g>
			<polygon class="st0" points="354.5,33.1 354.5,36.4 346.3,39.2 346.3,35.9 			"/>
			<polygon class="st0" points="354.5,39.2 354.5,42.8 346.3,44.8 346.3,41.7 			"/>
		</g>
		<rect x="640.7" y="22.9" class="st0" width="23" height="31.9"/>
		<rect x="644" y="27.1" class="st1" width="4" height="4"/>
		<rect x="650.2" y="27.1" class="st1" width="4" height="4"/>
		<rect x="656.3" y="27.1" class="st1" width="4" height="4"/>
		<rect x="644" y="33.2" class="st1" width="4" height="4"/>
		<rect x="650.2" y="33.2" class="st1" width="4" height="4"/>
		<rect x="656.3" y="33.2" class="st1" width="4" height="4"/>
		<rect x="644" y="39.3" class="st1" width="4" height="4"/>
		<rect x="650.2" y="39.3" class="st1" width="4" height="4"/>
		<rect x="656.3" y="39.3" class="st1" width="4" height="4"/>
		<rect x="644" y="45.5" class="st1" width="4" height="4.1"/>
		<rect x="650.2" y="45.5" class="st1" width="4" height="8.3"/>
		<rect x="656.3" y="45.5" class="st1" width="4" height="4.1"/>
		<g>
			<rect x="583.6" y="17.7" class="st1" width="13.4" height="37"/>
			<rect x="611" y="5.6" class="st1" width="12.6" height="50.8"/>
			<g>
				<path class="st0" d="M622.8,7.4c-3.5,0.5-6.9,1-10.4,1.5c0,16.4,0,30.8,0,47.2c-5.5,0-11,0-16.6,0c0-12.6,0-23.2,0-35.9
					c-1.2,0.2-2.4,0.3-3.5,0.5c-2.1,0.3-4.2,0.7-6.3,0.9c-0.5,0.1-0.6,0.3-0.6,0.7c0,9.3,0,18.7,0,28c0,2.4,0,2.7,0,5.1
					c0,0.2,0,0.4,0,0.6c-2.9,0-5.7,0-8.6,0c0-1.6,0-1.1,0-2.8c1,0,2,0,3,0c0.6,0,0.8-0.2,0.8-0.8c0-11.3,0-22.5,0-33.8
					c0-0.3,0-0.7,0-1.1c1.7-0.3,3.4-0.5,5.1-0.8c4.6-0.7,9.2-1.3,13.7-2.1c1.2-0.2,2.1,0.2,3.2,0.5c0.9,0.2,1.3,0.6,1.4,1.6
					c0.6,5.1,1.3,10.3,1.9,15.4c0.2,1.3,0.3,2.6,0.5,3.9c0.1,0.5,0.6,0.9,0.9,1.3c0.1,0,0.1-0.1,0.2-0.1c0-0.2,0-0.4,0-0.6
					c0-10.4,0-20.8,0-31.2c0-0.5,0.1-0.7,0.7-0.8c5.2-0.7,10.4-1.5,15.6-2.3c1-0.1,2-0.3,3-0.4c0.5-0.1,1.1,0,1.6,0.1
					c2.4,0.8,4.8,1.6,7.1,2.4c0.4,0.1,0.6,0.3,0.6,0.8c0,9.2,0,18.5,0,27.7c0,6.6,0,13.2,0,19.8c0,0.2,0,0.3,0,0.6c1,0,2,0,3,0
					c0,1.6,0,1.2,0,2.8c-5.4,0-10.8,0-16.3,0C622.8,39.2,622.8,24.3,622.8,7.4z"/>
				<path class="st0" d="M618.4,47.2c0-1.2,0-2.4,0-3.6c0.8,0,1.5,0,2.3,0c0,1.2,0,2.4,0,3.6C620,47.2,619.2,47.2,618.4,47.2z"/>
				<path class="st0" d="M620.7,14c-0.7,0.1-1.5,0.2-2.2,0.3c0-1.2,0-2.4,0-3.7c0.7-0.1,1.5-0.2,2.2-0.3
					C620.7,11.5,620.7,12.7,620.7,14z"/>
				<path class="st0" d="M618.4,20.8c0-1.2,0-2.4,0-3.6c0.7-0.1,1.5-0.2,2.3-0.2c0,1,0,1.9,0,2.8c0,0.9,0,0.9-0.9,1
					c-0.4,0-0.8,0.1-1.2,0.1C618.6,20.8,618.5,20.8,618.4,20.8z"/>
				<path class="st0" d="M618.5,36.9c0.8,0,1.5-0.1,2.2-0.1c0,1.2,0,2.4,0,3.7c-0.7,0-1.5,0-2.2,0C618.5,39.3,618.5,38.2,618.5,36.9
					z"/>
				<path class="st0" d="M620.7,23.5c0,1.2,0,2.4,0,3.7c-0.7,0.1-1.5,0.1-2.2,0.2c0-1.3,0-2.4,0-3.7
					C619.2,23.7,619.9,23.6,620.7,23.5z"/>
				<path class="st0" d="M618.4,30.3c0.7,0,1.5-0.1,2.2-0.1c0,1.3,0,2.4,0,3.7c-0.7,0-1.5,0-2.2,0C618.4,32.7,618.4,31.6,618.4,30.3
					z"/>
				<path class="st0" d="M591.4,46.5c0-1.3,0-2.5,0-3.7c0.7,0,1.5-0.1,2.2-0.1c0,1.3,0,2.4,0,3.7C592.9,46.4,592.2,46.5,591.4,46.5z
					"/>
				<path class="st0" d="M591.5,29.6c0.7-0.1,1.4-0.1,2.2-0.2c0,1.2,0,2.4,0,3.7c-0.7,0.1-1.4,0.1-2.2,0.2
					C591.5,32.1,591.5,30.9,591.5,29.6z"/>
				<path class="st0" d="M593.7,36.1c0,1.3,0,2.5,0,3.7c-0.7,0-1.4,0.1-2.2,0.1c0-1.2,0-2.3,0-3.4c0-0.1,0.2-0.2,0.3-0.3
					C592.3,36.1,593,36.1,593.7,36.1z"/>
				<path class="st0" d="M593.7,22.7c0,1.3,0,2.5,0,3.7c-0.7,0.1-1.5,0.2-2.2,0.3c0-1.2,0-2.3,0-3.4c0-0.1,0.2-0.3,0.3-0.3
					C592.3,22.9,593,22.8,593.7,22.7z"/>
				<path class="st0" d="M593.6,53.1c-0.7,0-1.4,0-2.2,0c0-1.2,0-2.4,0-3.6c0.7,0,1.4,0,2.2,0C593.6,50.6,593.6,51.8,593.6,53.1z"/>
				<path class="st0" d="M614.2,43.6c0.8,0,1.5,0,2.2,0c0,1.2,0,2.4,0,3.6c-0.6,0-1.3,0-1.9,0c-0.1,0-0.3-0.2-0.3-0.3
					C614.2,45.8,614.2,44.7,614.2,43.6z"/>
				<path class="st0" d="M587.2,53c0-1.2,0-2.3,0-3.6c0.7,0,1.4,0,2.1,0c0,1.1,0,2.3,0,3.6C588.7,53,588,53,587.2,53z"/>
				<path class="st0" d="M587.2,33.6c0-1.2,0-2.4,0-3.6c0.7-0.1,1.4-0.1,2.2-0.2c0,1.2,0,2.3,0,3.4c0,0.1-0.2,0.2-0.3,0.3
					C588.5,33.6,587.9,33.6,587.2,33.6z"/>
				<path class="st0" d="M614.2,34.2c0-1.2,0-2.2,0-3.3c0-0.1,0.2-0.3,0.4-0.4c0.6-0.1,1.2-0.1,1.8-0.1c0,1.2,0,2.4,0,3.6
					C615.7,34.1,615,34.1,614.2,34.2z"/>
				<path class="st0" d="M589.4,36.4c0,1.3,0,2.4,0,3.7c-0.7,0-1.4,0.1-2.1,0.1c0-1.2,0-2.4,0-3.6C587.9,36.5,588.6,36.4,589.4,36.4
					z"/>
				<path class="st0" d="M614.2,27.7c0-1.3,0-2.4,0-3.6c0.7-0.1,1.4-0.1,2.2-0.2c0,0.9,0,1.7,0,2.5c0,1.2,0,1.2-1.2,1.2
					C614.9,27.6,614.6,27.7,614.2,27.7z"/>
				<path class="st0" d="M587.2,23.5c0.7-0.1,1.4-0.2,2.1-0.3c0,1.2,0,2.4,0,3.7c-0.7,0.1-1.4,0.1-2.1,0.2
					C587.2,25.9,587.2,24.8,587.2,23.5z"/>
				<path class="st0" d="M616.4,14.5c-0.7,0.1-1.4,0.2-2.2,0.3c0-1.2,0-2.3,0-3.4c0-0.1,0.2-0.3,0.3-0.3c0.6-0.1,1.2-0.2,1.9-0.2
					C616.4,12.1,616.4,13.2,616.4,14.5z"/>
				<path class="st0" d="M616.4,17.4c0,1.3,0,2.4,0,3.7c-0.7,0.1-1.4,0.1-2.2,0.2c0-1.2,0-2.4,0-3.6
					C614.9,17.5,615.6,17.4,616.4,17.4z"/>
				<path class="st0" d="M587.2,46.6c0-1.3,0-2.4,0-3.7c0.7,0,1.4,0,2.1,0c0,1.1,0,2.3,0,3.5C588.7,46.6,588,46.6,587.2,46.6z"/>
				<path class="st0" d="M614.2,37c0.7,0,1.4,0,2.2,0c0,1.1,0,2.3,0,3.5c-0.7,0-1.4,0-2.2,0C614.2,39.4,614.2,38.3,614.2,37z"/>
			</g>
		</g>
		<g>
			<rect x="522.4" y="20" class="st1" width="48.8" height="33.8"/>
			<rect x="540.3" y="1.9" class="st1" width="14.7" height="13.4"/>
			<g>
				<path class="st0" d="M555.1,45.3c1.1,0,2.3,0,3.4,0c3.8,0,7.6,0,11.4,0c0.5,0,0.7-0.1,0.7-0.6c0-7.6,0-15.3,0-22.9
					c0-0.1,0-0.2,0-0.4c-15.4,0-30.9,0-46.4,0c0,7.9,0,15.9,0,23.8c5.1,0,10.2,0,15.4,0c0,2.8,0,5.6,0,8.5c-0.2,0-0.5,0-0.7,0
					c-5.6,0-11.3,0-16.9,0c-1,0-1.2-0.2-1.2-1.2c0-10.1,0-20.3,0-30.4c0-0.6-0.1-0.9-0.8-0.8c-0.3,0-0.9-0.1-0.9-0.2
					c-0.1-0.5-0.2-1.3,0.1-1.6c1.5-1.6,3.1-3.2,4.7-4.7c0.2-0.2,0.7-0.3,1-0.3c4.1,0,8.1,0,12.2,0c0.2,0,0.4,0,0.7,0c0-4,0-7.9,0-12
					c-0.4,0-0.8,0.1-1.1,0c-0.2,0-0.5-0.3-0.5-0.5c-0.1-0.7,0-1.3,0.6-1.9c1.4-1.3,2.7-2.6,4-3.9c0.3-0.3,0.8-0.5,1.2-0.5
					c3.5,0,7.1,0,10.6,0c0.4,0,0.9,0.2,1.2,0.5c1.5,1.4,2.9,2.8,4.3,4.3c0.3,0.3,0.5,1.4,0.3,1.8c-0.1,0.1-0.4,0.2-0.6,0.2
					c-0.3,0-0.7,0-1.1,0c0,4,0,7.9,0,12c0.3,0,0.6,0,0.9,0c4,0,8.1,0,12.1,0c0.4,0,0.9,0.2,1.2,0.5c1.5,1.4,2.9,2.8,4.3,4.2
					c0.3,0.3,0.5,1.4,0.3,1.8c-0.1,0.1-0.3,0.2-0.5,0.2c-0.4,0-0.7,0-1.1,0c0,0.4,0,0.7,0,1c0,10.1,0,20.1,0,30.2
					c0,1.1-0.1,1.3-1.3,1.3c-5.6,0-11.2,0-16.9,0c-0.6,0-0.8-0.2-0.8-0.8c0-2.4,0-4.7,0-7.1C555.1,45.8,555.1,45.6,555.1,45.3z
					 M541.4,2.6c0,4,0,8,0,11.9c4,0,8,0,12,0c0-0.1,0-0.2,0-0.3c0-3.7,0-7.4,0-11.1c0-0.5-0.3-0.5-0.6-0.5c-2.5,0-5,0-7.5,0
					C544,2.6,542.7,2.6,541.4,2.6z"/>
				<path class="st0" d="M544.8,46.9c0-3.9,0-7.8,0-11.8c1.7,0,3.3,0,5.1,0c0,3.9,0,7.8,0,11.8C548.2,46.9,546.6,46.9,544.8,46.9z"
					/>
				<path class="st0" d="M558.5,41.8c-1.6,0-3.2,0-4.7,0c-0.1,0-0.4-0.3-0.4-0.4c0-2,0-4,0-6c0-0.1,0.2-0.4,0.3-0.4
					c1.6,0,3.2,0,4.8,0C558.5,37.3,558.5,39.5,558.5,41.8z"/>
				<path class="st0" d="M562,35.1c1.7,0,3.4,0,5.1,0c0,2.2,0,4.4,0,6.7c-1.7,0-3.3,0-5.1,0C562,39.6,562,37.4,562,35.1z"/>
				<path class="st0" d="M536.3,35.1c1.7,0,3.3,0,5,0c0,2.3,0,4.5,0,6.7c-1.7,0-3.3,0-5,0C536.3,39.6,536.3,37.4,536.3,35.1z"/>
				<path class="st0" d="M532.7,35.1c0,2.3,0,4.4,0,6.7c-1.7,0-3.3,0-5.1,0c0-2.2,0-4.4,0-6.7C529.3,35.1,531,35.1,532.7,35.1z"/>
				<path class="st0" d="M567.1,24.8c0,2.3,0,4.5,0,6.7c-1.7,0-3.3,0-5.1,0c0-2.2,0-4.5,0-6.7C563.7,24.8,565.4,24.8,567.1,24.8z"/>
				<path class="st0" d="M553.4,31.5c0-2.2,0-4.4,0-6.7c1.7,0,3.3,0,5.1,0c0,2.2,0,4.4,0,6.7C556.8,31.5,555.1,31.5,553.4,31.5z"/>
				<path class="st0" d="M549.9,24.8c0,2.3,0,4.4,0,6.7c-1.7,0-3.3,0-5.1,0c0-2.2,0-4.4,0-6.7C546.5,24.8,548.2,24.8,549.9,24.8z"/>
				<path class="st0" d="M536.2,31.6c0-2.2,0-4.5,0-6.7c1.7,0,3.3,0,5.1,0c0,2.2,0,4.4,0,6.7C539.6,31.6,537.9,31.6,536.2,31.6z"/>
				<path class="st0" d="M527.6,31.5c0-2.2,0-4.5,0-6.7c1.7,0,3.4,0,5.1,0c0,2.2,0,4.4,0,6.7C531,31.5,529.4,31.5,527.6,31.5z"/>
				<path class="st0" d="M541.4,50.3c0-0.6,0-1.1,0-1.6c4,0,7.9,0,11.9,0c0,0.5,0,1.1,0,1.6C549.3,50.3,545.4,50.3,541.4,50.3z"/>
				<path class="st0" d="M541.4,52.1c4,0,7.9,0,11.9,0c0,0.6,0,1.1,0,1.6c-4,0-8,0-11.9,0C541.4,53.2,541.4,52.7,541.4,52.1z"/>
				<path class="st0" d="M544.8,12.8c0-2.3,0-4.5,0-6.7c1.7,0,3.3,0,5.1,0c0,2.2,0,4.5,0,6.7C548.2,12.8,546.6,12.8,544.8,12.8z"/>
			</g>
		</g>
		<g>
			<path class="st0" d="M477.9,55c0-10.1,0-20.2,0-30.4c-0.6,0.4-1,0.8-1.5,1.2c-1-1.5-2.1-2.9-3.1-4.4c7.1-5.5,14.2-10.9,21.4-16.3
				c2.1,1.6,4.3,3.2,6.5,4.9c0-1.7,0-3.3,0-4.9c1.9,0,3.8,0,5.8,0c0,0.2,0,0.5,0,0.7c0,2.7,0,5.4,0,8.2c0,0.4,0.1,0.7,0.5,1
				c2.7,2,5.3,4.1,8,6.1c0.2,0.1,0.3,0.3,0.5,0.4c-1,1.5-2,2.9-3.1,4.4c-0.5-0.4-0.9-0.7-1.5-1.2c0,10.2,0,20.2,0,30.3
				C500.2,55,489.1,55,477.9,55z M497.7,41.2c-1.9,0-3.8,0-5.6,0c0,3.8,0,7.5,0,11.2c1.9,0,3.8,0,5.6,0
				C497.7,48.6,497.7,44.9,497.7,41.2z M488.4,41.2c-1.9,0-3.8,0-5.7,0c0,1.7,0,3.5,0,5.2c1.9,0,3.8,0,5.7,0
				C488.4,44.7,488.4,43,488.4,41.2z M501.5,46.4c1.9,0,3.8,0,5.7,0c0-1.8,0-3.4,0-5.2c-1.9,0-3.8,0-5.7,0
				C501.5,43,501.5,44.7,501.5,46.4z M488.3,23.7c-1.9,0-3.8,0-5.7,0c0,1.7,0,3.4,0,5.1c1.9,0,3.8,0,5.7,0
				C488.3,27.1,488.3,25.4,488.3,23.7z M492,28.8c1.9,0,3.8,0,5.7,0c0-1.7,0-3.4,0-5.2c-1.9,0-3.8,0-5.7,0
				C492,25.4,492,27.1,492,28.8z M501.5,23.6c0,1.8,0,3.5,0,5.2c1.9,0,3.8,0,5.6,0c0-1.7,0-3.4,0-5.2
				C505.3,23.6,503.4,23.6,501.5,23.6z M482.6,32.3c0,1.8,0,3.5,0,5.2c1.9,0,3.8,0,5.6,0c0-1.7,0-3.5,0-5.2
				C486.4,32.3,484.5,32.3,482.6,32.3z M497.6,37.5c0-1.8,0-3.5,0-5.2c-1.9,0-3.8,0-5.6,0c0,1.7,0,3.4,0,5.2
				C493.9,37.5,495.7,37.5,497.6,37.5z M501.5,32.3c0,1.8,0,3.5,0,5.2c1.9,0,3.8,0,5.6,0c0-1.8,0-3.5,0-5.2
				C505.3,32.3,503.4,32.3,501.5,32.3z"/>
			<path class="st1" d="M497.7,41.2c0,3.7,0,7.4,0,11.2c-1.9,0-3.7,0-5.6,0c0-3.7,0-7.4,0-11.2C493.9,41.2,495.7,41.2,497.7,41.2z"
				/>
			<path class="st1" d="M488.4,41.2c0,1.8,0,3.4,0,5.2c-1.9,0-3.8,0-5.7,0c0-1.7,0-3.4,0-5.2C484.6,41.2,486.5,41.2,488.4,41.2z"/>
			<path class="st1" d="M501.5,46.4c0-1.7,0-3.4,0-5.2c1.9,0,3.8,0,5.7,0c0,1.7,0,3.4,0,5.2C505.3,46.4,503.4,46.4,501.5,46.4z"/>
			<path class="st1" d="M488.3,23.7c0,1.7,0,3.4,0,5.1c-1.9,0-3.8,0-5.7,0c0-1.7,0-3.4,0-5.1C484.5,23.7,486.3,23.7,488.3,23.7z"/>
			<path class="st1" d="M492,28.8c0-1.7,0-3.4,0-5.2c1.9,0,3.8,0,5.7,0c0,1.7,0,3.4,0,5.2C495.7,28.8,493.9,28.8,492,28.8z"/>
			<path class="st1" d="M501.5,23.6c1.9,0,3.8,0,5.6,0c0,1.7,0,3.4,0,5.2c-1.9,0-3.7,0-5.6,0C501.5,27.1,501.5,25.4,501.5,23.6z"/>
			<path class="st1" d="M482.6,32.3c1.9,0,3.8,0,5.6,0c0,1.7,0,3.4,0,5.2c-1.9,0-3.7,0-5.6,0C482.6,35.8,482.6,34.1,482.6,32.3z"/>
			<path class="st1" d="M497.6,37.5c-1.9,0-3.8,0-5.6,0c0-1.7,0-3.4,0-5.2c1.9,0,3.7,0,5.6,0C497.6,34,497.6,35.7,497.6,37.5z"/>
			<path class="st1" d="M501.5,32.3c1.9,0,3.8,0,5.6,0c0,1.7,0,3.4,0,5.2c-1.9,0-3.7,0-5.6,0C501.5,35.8,501.5,34.1,501.5,32.3z"/>
		</g>
		<g>
			<path class="st0" d="M478.9,54.7c-2.1,0-3.9,0-6.1,0c0-2.6,0-5.2,0-7.5c-2.3-0.7-4.4-1-6.1-1.9c-2.9-1.5-4-4.1-4.2-7.3
				c0-1.2-0.4-2.5-1.1-3.5c-3.8-5-1.4-11.7,4.7-13.4c0.9-0.2,1.8-0.9,2.3-1.7c3.9-5.4,10.6-5.4,14.5-0.1c0.6,0.8,1.6,1.5,2.6,1.8
				c5.9,1.7,8.2,8.4,4.5,13.3c-0.5,0.7-1.1,1.6-1.2,2.4c-0.5,7.1-2.3,8.9-9.9,9.9C478.9,49.3,478.9,52,478.9,54.7z M478.6,43.8
				c5,1.1,8.8-2.1,8-6.3c-0.3-1.9,0.4-2.8,1.3-4.2c1-1.7,1.8-4.2,1.2-5.9c-0.6-1.7-2.8-3.4-4.6-4c-1.6-0.5-2.6-0.9-3.3-2.4
				c-1-2.2-2.9-3.2-5.3-3.2c-2.5,0-4.6,1-5.6,3.3c-0.7,1.6-1.5,2-3.1,2.3c-5.2,1-7.2,6.6-3.6,10.2c1.4,1.3,1.6,2.5,1.3,4.2
				c-0.6,3.3,2.2,6.5,5.5,6.8c1.7,0.2,2.5-0.5,1.8-2.1c-0.8-1.8-1.9-3.4-3.1-5.4c2.7-2.9,3.2,1.5,5,1.8c0.5-1.5-0.8-4.8,3.1-3.5
				c0.1,1.2,0.3,2.3,0.4,3.4c1.7-0.6,2.3-4.6,4.7-1.8C481,39.3,479.9,41.5,478.6,43.8z"/>
			<path class="st1" d="M478.6,43.8c1.2-2.3,2.4-4.5,3.7-7c-2.5-2.8-3,1.2-4.7,1.8c-0.1-1.1-0.2-2.2-0.4-3.4
				c-3.9-1.3-2.6,1.9-3.1,3.5c-1.8-0.3-2.3-4.7-5-1.8c1.1,2,2.2,3.6,3.1,5.4c0.7,1.6-0.1,2.3-1.8,2.1c-3.3-0.3-6.1-3.4-5.5-6.8
				c0.3-1.8,0.1-2.9-1.3-4.2c-3.6-3.6-1.6-9.2,3.6-10.2c1.6-0.3,2.4-0.7,3.1-2.3c0.9-2.3,3-3.3,5.6-3.3c2.4,0,4.3,1.1,5.3,3.2
				c0.7,1.6,1.7,1.9,3.3,2.4c1.8,0.6,4,2.3,4.6,4c0.6,1.7-0.2,4.3-1.2,5.9c-0.9,1.4-1.6,2.3-1.3,4.2C487.4,41.8,483.7,45,478.6,43.8
				z"/>
		</g>
		<g>
			<path class="st0" d="M383,55.4c0-2.3,0,0.4,0-1.9c2.1,0,4.2,0,6.3,0c0-17.2,0-34.3,0-51.4c-1.4-0.3-1.4-0.3-1.4-1.8
				c0-0.5,0-1,0-1.5c10,0,19.9,0,29.9,0c0,1,0.1,1.9,0,2.9c0,0.2-0.6,0.3-1,0.5c0,0.1,0,0.2,0,0.4c0,7.3,0,14.5,0,21.8
				c0,0.7,0.1,0.9,0.8,0.9c1.4-0.1,2.9,0,4.4,0c0-0.4,0-0.7,0-1c0-10.9,0-21.8,0-32.7c0-0.7,0.2-0.9,0.8-1.1
				c7.6-2,15.1-4.1,22.7-6.2c0.2-0.1,0.5-0.1,0.8-0.2c0,23.2,0,46.2,0,69.4c2.2,0,4.3,0,6.5,0c0,2.4,0-0.3,0,2
				C429.6,55.4,406.3,55.4,383,55.4z M408.8,5.5c0,14,0,27.9,0,41.9c0.9,0,1.7,0,2.5,0c1,0,1,0,1-1c0-13.3,0-26.6,0-39.9
				c0-0.3,0-0.6,0-0.9C411.1,5.5,410,5.5,408.8,5.5z M395.9,5.5c-1.2,0-2.4,0-3.5,0c0,1.7,0,3.3,0,4.9c1.1,0,2.1,0,3.1,0
				c0.1,0,0.4-0.2,0.4-0.4C396,8.6,395.9,7.1,395.9,5.5z M432.3,5.5c0,1.6,0,3.1,0,4.6c0,0.1,0.2,0.4,0.3,0.4c1,0,2.1,0,3.1,0
				c0-1.7,0-3.3,0-5C434.7,5.5,433.6,5.5,432.3,5.5z M443.4,14.7c-1.1,0-2.1,0-3.1,0c-0.2,0-0.4,0.3-0.4,0.4c0,1.4,0,2.7,0,4.1
				c0,0.2,0.3,0.4,0.4,0.4c0.9,0,1.7,0,2.6,0c0.2,0,0.4-0.2,0.4-0.4C443.4,17.8,443.4,16.3,443.4,14.7z M443.4,47.3
				c0-1.7,0-3.3,0-4.9c-1.2,0-2.3,0-3.4,0c0,1.6,0,3.2,0,4.9C441.1,47.3,442.2,47.3,443.4,47.3z M435.8,42.4c-1.2,0-2.3,0-3.5,0
				c0,1.6,0,3.1,0,4.6c0,0.1,0.2,0.4,0.4,0.4c1,0,2,0,3.1,0C435.8,45.7,435.8,44.1,435.8,42.4z M425,42.4c0,1.6,0,3.3,0,4.9
				c1.2,0,2.3,0,3.4,0c0-1.7,0-3.3,0-4.9C427.2,42.4,426.1,42.4,425,42.4z M392.5,42.4c0,1.7,0,3.3,0,5c1.1,0,2.1,0,3.1,0
				c0.1,0,0.4-0.2,0.4-0.3c0-1.5,0-3,0-4.6C394.7,42.4,393.6,42.4,392.5,42.4z M443.4,23.9c-1.1,0-2.1,0-3.1,0
				c-0.2,0-0.4,0.3-0.4,0.5c-0.1,0.7,0,1.4,0,2.1c0,0.8,0,1.6,0,2.3c1.3,0,2.4,0,3.5,0C443.4,27.2,443.4,25.6,443.4,23.9z
				 M435.8,23.9c-1.1,0-2.1,0-3.1,0c-0.1,0-0.3,0.2-0.3,0.3c0,1.5,0,3.1,0,4.6c1.2,0,2.3,0,3.5,0C435.8,27.2,435.8,25.6,435.8,23.9z
				 M428.4,28.9c0-1.7,0-3.3,0-4.9c-1.2,0-2.3,0-3.4,0c0,1.7,0,3.3,0,4.9C426.1,28.9,427.2,28.9,428.4,28.9z M395.9,28.9
				c0-1.6,0-3.1,0-4.6c0-0.1-0.2-0.4-0.3-0.4c-1.1,0-2.1,0-3.2,0c0,1.7,0,3.3,0,5C393.6,28.9,394.7,28.9,395.9,28.9z M432.4,19.7
				c1.2,0,2.3,0,3.4,0c0-1.7,0-3.3,0-4.9c-1.2,0-2.2,0-3.4,0C432.4,16.4,432.4,18,432.4,19.7z M428.4,19.7c0-1.7,0-3.3,0-4.9
				c-1.2,0-2.2,0-3.4,0c0,1.7,0,3.3,0,4.9C426.2,19.7,427.3,19.7,428.4,19.7z M392.4,19.7c1.1,0,2.1,0,3.1,0c0.2,0,0.4-0.3,0.4-0.4
				c0-1.4,0-2.7,0-4.1c0-0.2-0.3-0.4-0.4-0.4c-0.9,0-1.7,0-2.6,0c-0.2,0-0.4,0.2-0.4,0.4C392.4,16.6,392.4,18.1,392.4,19.7z
				 M439.9,5.5c0,1.6,0,3.1,0,4.6c0,0.1,0.2,0.4,0.3,0.4c1.1,0,2.1,0,3.2,0c0-1.7,0-3.3,0-5C442.2,5.5,441.1,5.5,439.9,5.5z
				 M428.4,10.5c0-1.7,0-3.3,0-5c-1.2,0-2.2,0-3.4,0c0,1.6,0,3.1,0,4.6c0,0.1,0.2,0.4,0.4,0.4C426.3,10.5,427.3,10.5,428.4,10.5z
				 M392.4,38.1c1.1,0,2.1,0,3.1,0c0.2,0,0.4-0.3,0.4-0.5c0-0.8,0-1.6,0-2.4c0-0.7,0-1.3,0-2c-1.3,0-2.4,0-3.5,0
				C392.4,34.9,392.4,36.4,392.4,38.1z M435.8,38.1c0-1.7,0-3.3,0-4.9c-1.2,0-2.3,0-3.4,0c0,1.7,0,3.3,0,4.9
				C433.6,38.1,434.7,38.1,435.8,38.1z M439.9,33.2c0,1.7,0,3.3,0,4.9c1.2,0,2.3,0,3.4,0c0-1.7,0-3.3,0-4.9
				C442.2,33.2,441.1,33.2,439.9,33.2z M439.9-3.7c0,1.5,0,3,0,4.5c0,0.1,0.2,0.4,0.3,0.4c1,0,2.1,0,3.1,0c0-1.7,0-3.3,0-4.9
				C442.2-3.7,441.1-3.7,439.9-3.7z M435.8-3.7c-1.2,0-2.3,0-3.4,0c0,1.7,0,3.2,0,4.9c1.2,0,2.3,0,3.4,0
				C435.8-0.4,435.8-2,435.8-3.7z M428.4-3.7c-1.2,0-2.3,0-3.4,0c0,1.7,0,3.3,0,4.9c1.2,0,2.3,0,3.4,0C428.4-0.4,428.4-2,428.4-3.7z
				 M425,38.1c1.2,0,2.3,0,3.4,0c0-1.7,0-3.3,0-4.9c-1.2,0-2.3,0-3.4,0C425,34.8,425,36.5,425,38.1z"/>
			<path class="st1" d="M408.8,5.5c1.2,0,2.3,0,3.5,0c0,0.3,0,0.6,0,0.9c0,13.3,0,26.6,0,39.9c0,1,0,1-1,1c-0.8,0-1.6,0-2.5,0
				C408.8,33.4,408.8,19.5,408.8,5.5z"/>
			<path class="st1" d="M395.9,5.5c0,1.6,0,3.1,0,4.5c0,0.1-0.2,0.4-0.4,0.4c-1,0-2,0-3.1,0c0-1.7,0-3.3,0-4.9
				C393.6,5.5,394.7,5.5,395.9,5.5z"/>
			<path class="st1" d="M432.3,5.5c1.2,0,2.3,0,3.5,0c0,1.6,0,3.2,0,5c-1,0-2.1,0-3.1,0c-0.1,0-0.3-0.3-0.3-0.4
				C432.3,8.6,432.3,7.1,432.3,5.5z"/>
			<path class="st1" d="M443.4,14.7c0,1.6,0,3.1,0,4.7c0,0.1-0.3,0.4-0.4,0.4c-0.9,0-1.7,0-2.6,0c-0.2,0-0.4-0.3-0.4-0.4
				c0-1.4,0-2.7,0-4.1c0-0.2,0.3-0.4,0.4-0.4C441.3,14.7,442.3,14.7,443.4,14.7z"/>
			<path class="st1" d="M443.4,47.3c-1.2,0-2.3,0-3.4,0c0-1.7,0-3.2,0-4.9c1.2,0,2.3,0,3.4,0C443.4,44,443.4,45.6,443.4,47.3z"/>
			<path class="st1" d="M435.8,42.4c0,1.7,0,3.3,0,5c-1.1,0-2.1,0-3.1,0c-0.1,0-0.4-0.2-0.4-0.4c0-1.5,0-3,0-4.6
				C433.5,42.4,434.6,42.4,435.8,42.4z"/>
			<path class="st1" d="M425,42.4c1.2,0,2.2,0,3.4,0c0,1.6,0,3.3,0,4.9c-1.1,0-2.2,0-3.4,0C425,45.6,425,44,425,42.4z"/>
			<path class="st1" d="M392.5,42.4c1.2,0,2.3,0,3.5,0c0,1.6,0,3.1,0,4.6c0,0.1-0.2,0.3-0.4,0.3c-1,0-2,0-3.1,0
				C392.5,45.7,392.5,44.1,392.5,42.4z"/>
			<path class="st1" d="M443.4,23.9c0,1.7,0,3.3,0,4.9c-1.1,0-2.3,0-3.5,0c0-0.8,0-1.5,0-2.3c0-0.7,0-1.4,0-2.1
				c0-0.2,0.3-0.5,0.4-0.5C441.3,23.9,442.3,23.9,443.4,23.9z"/>
			<path class="st1" d="M435.8,23.9c0,1.7,0,3.3,0,4.9c-1.1,0-2.2,0-3.5,0c0-1.5,0-3.1,0-4.6c0-0.1,0.2-0.3,0.3-0.3
				C433.7,23.9,434.7,23.9,435.8,23.9z"/>
			<path class="st1" d="M428.4,28.9c-1.2,0-2.3,0-3.4,0c0-1.6,0-3.2,0-4.9c1.1,0,2.2,0,3.4,0C428.4,25.6,428.4,27.2,428.4,28.9z"/>
			<path class="st1" d="M395.9,28.9c-1.2,0-2.3,0-3.5,0c0-1.6,0-3.2,0-5c1.1,0,2.1,0,3.2,0c0.1,0,0.3,0.2,0.3,0.4
				C396,25.8,395.9,27.3,395.9,28.9z"/>
			<path class="st1" d="M432.4,19.7c0-1.7,0-3.3,0-4.9c1.2,0,2.2,0,3.4,0c0,1.6,0,3.3,0,4.9C434.7,19.7,433.6,19.7,432.4,19.7z"/>
			<path class="st1" d="M428.4,19.7c-1.1,0-2.2,0-3.4,0c0-1.6,0-3.3,0-4.9c1.1,0,2.2,0,3.4,0C428.4,16.4,428.4,18,428.4,19.7z"/>
			<path class="st1" d="M392.4,19.7c0-1.6,0-3.1,0-4.7c0-0.1,0.3-0.4,0.4-0.4c0.9,0,1.7,0,2.6,0c0.2,0,0.4,0.3,0.4,0.4
				c0,1.4,0,2.7,0,4.1c0,0.2-0.3,0.4-0.4,0.4C394.5,19.7,393.5,19.7,392.4,19.7z"/>
			<path class="st1" d="M439.9,5.5c1.2,0,2.3,0,3.5,0c0,1.6,0,3.2,0,5c-1.1,0-2.1,0-3.2,0c-0.1,0-0.3-0.2-0.3-0.4
				C439.9,8.6,439.9,7.1,439.9,5.5z"/>
			<path class="st1" d="M428.4,10.5c-1,0-2.1,0-3.1,0c-0.1,0-0.3-0.2-0.4-0.4c0-1.5,0-3,0-4.6c1.2,0,2.3,0,3.4,0
				C428.4,7.2,428.4,8.8,428.4,10.5z"/>
			<path class="st1" d="M392.4,38.1c0-1.7,0-3.3,0-4.9c1.1,0,2.2,0,3.5,0c0,0.7,0,1.3,0,2c0,0.8,0,1.6,0,2.4c0,0.2-0.3,0.5-0.4,0.5
				C394.5,38.2,393.5,38.1,392.4,38.1z"/>
			<path class="st1" d="M435.8,38.1c-1.1,0-2.2,0-3.4,0c0-1.6,0-3.2,0-4.9c1.1,0,2.2,0,3.4,0C435.8,34.8,435.8,36.4,435.8,38.1z"/>
			<path class="st1" d="M439.9,33.2c1.2,0,2.3,0,3.4,0c0,1.6,0,3.2,0,4.9c-1.1,0-2.3,0-3.4,0C439.9,36.5,439.9,34.9,439.9,33.2z"/>
			<path class="st1" d="M439.9-3.7c1.2,0,2.3,0,3.5,0c0,1.6,0,3.2,0,4.9c-1,0-2.1,0-3.1,0c-0.1,0-0.3-0.2-0.3-0.4
				C439.9-0.6,439.9-2.1,439.9-3.7z"/>
			<path class="st1" d="M435.8-3.7c0,1.7,0,3.2,0,4.9c-1.2,0-2.3,0-3.4,0c0-1.6,0-3.2,0-4.9C433.5-3.7,434.6-3.7,435.8-3.7z"/>
			<path class="st1" d="M428.4-3.7c0,1.7,0,3.3,0,4.9c-1.1,0-2.2,0-3.4,0c0-1.6,0-3.2,0-4.9C426.1-3.7,427.2-3.7,428.4-3.7z"/>
			<path class="st1" d="M425,38.1c0-1.6,0-3.2,0-4.9c1.1,0,2.2,0,3.4,0c0,1.6,0,3.2,0,4.9C427.3,38.1,426.2,38.1,425,38.1z"/>
		</g>
		<g>
			<rect x="335.4" y="45.1" class="st1" width="6.9" height="9.1"/>
			<g>
				<path class="st0" d="M344.3,54c-0.9,0-1.9,0-2.9,0c0-2.7,0-5.4,0-8.1c-1.8,0-3.6,0-5.4,0c0,2.7,0,5.4,0,8.1
					c-8.5,0-16.9,0-25.3,0c0-0.1,0-0.3,0-0.4c0-6.1,0-12.2,0-18.3c0-0.3,0.1-0.4,0.3-0.5c3-1.5,6-3,9-4.5c0.2-0.1,0.4-0.1,0.6,0
					c1.4,0.7,2.7,1.4,4.1,2.1c0.1,0.1,0.2,0.1,0.4,0.2c0-5.6,0-11.1,0-16.6c6.4,0,12.8,0,19.2,0C344.3,28.6,344.3,41.3,344.3,54z
					 M337.9,38.3c0,1,0,2.1,0,3.1c1.1,0,2.1,0,3.1,0c0-1,0-2,0-3.1C340,38.3,339,38.3,337.9,38.3z M336.3,41.4c0-1.1,0-2.1,0-3.1
					c-1.1,0-2.1,0-3.1,0c0,1,0,2.1,0,3.1C334.3,41.4,335.3,41.4,336.3,41.4z M328.4,38.3c0,1,0,2.1,0,3.1c1.1,0,2.1,0,3.1,0
					c0-1,0-2.1,0-3.1C330.5,38.3,329.5,38.3,328.4,38.3z M341.1,33.6c-1,0-2.1,0-3.1,0c0,1,0,2.1,0,3.1c1.1,0,2.1,0,3.1,0
					C341.1,35.6,341.1,34.6,341.1,33.6z M333.2,33.6c0,1.1,0,2.1,0,3.1c1,0,2.1,0,3.1,0c0-1,0-2.1,0-3.1
					C335.3,33.6,334.3,33.6,333.2,33.6z M328.4,36.7c1.1,0,2.1,0,3.1,0c0-1,0-2.1,0-3.1c-1.1,0-2.1,0-3.1,0
					C328.4,34.6,328.4,35.6,328.4,36.7z M341.1,28.9c-1.1,0-2.1,0-3.1,0c0,1,0,2.1,0,3.1c1.1,0,2.1,0,3.1,0
					C341.1,31,341.1,30,341.1,28.9z M333.2,28.9c0,1,0,2.1,0,3.1c1.1,0,2.1,0,3.1,0c0-1,0-2,0-3.1C335.3,28.9,334.3,28.9,333.2,28.9
					z M328.4,32c1.1,0,2.1,0,3.1,0c0-1,0-2.1,0-3.1c-1,0-2.1,0-3.1,0C328.4,29.9,328.4,30.9,328.4,32z M341.1,24.2c-1,0-2.1,0-3.1,0
					c0,1,0,2.1,0,3.1c1.1,0,2.1,0,3.1,0C341.1,26.3,341.1,25.3,341.1,24.2z M336.3,24.2c-1,0-2.1,0-3.1,0c0,1,0,2.1,0,3.1
					c1.1,0,2.1,0,3.1,0C336.3,26.3,336.3,25.3,336.3,24.2z M328.4,27.3c1.1,0,2.1,0,3.1,0c0-1,0-2.1,0-3.1c-1.1,0-2.1,0-3.1,0
					C328.4,25.3,328.4,26.3,328.4,27.3z M337.9,19.5c0,1.1,0,2.1,0,3.1c1,0,2.1,0,3.1,0c0-1,0-2.1,0-3.1
					C340,19.5,339,19.5,337.9,19.5z M336.3,19.6c-1,0-2.1,0-3.1,0c0,1,0,2.1,0,3.1c1.1,0,2.1,0,3.1,0
					C336.3,21.6,336.3,20.6,336.3,19.6z M328.4,22.6c1.1,0,2.1,0,3.1,0c0-1,0-2.1,0-3.1c-1.1,0-2.1,0-3.1,0
					C328.4,20.6,328.4,21.6,328.4,22.6z M321.5,42.8c-0.8,0-1.6,0-2.3,0c0,0.8,0,1.5,0,2.3c0.8,0,1.5,0,2.3,0
					C321.5,44.4,321.5,43.6,321.5,42.8z M322.8,41.6c0.8,0,1.6,0,2.3,0c0-0.8,0-1.5,0-2.3c-0.8,0-1.5,0-2.3,0
					C322.8,40.1,322.8,40.9,322.8,41.6z M321.5,41.7c0-0.8,0-1.6,0-2.3c-0.8,0-1.5,0-2.3,0c0,0.7,0,1.4,0,2.1c0,0.1,0.2,0.2,0.2,0.2
					C320.1,41.7,320.8,41.7,321.5,41.7z M322.8,45.1c0.8,0,1.6,0,2.4,0c0-0.6,0-1.1,0-1.6c0-0.8,0.1-0.7-0.7-0.7c-0.6,0-1.1,0-1.7,0
					C322.8,43.6,322.8,44.4,322.8,45.1z M319.2,46.4c0,0.8,0,1.5,0,2.3c0.8,0,1.5,0,2.3,0c0-0.8,0-1.5,0-2.3
					C320.7,46.4,320,46.4,319.2,46.4z M322.8,46.4c0,0.8,0,1.5,0,2.3c0.8,0,1.6,0,2.3,0c0-0.8,0-1.5,0-2.3
					C324.3,46.4,323.5,46.4,322.8,46.4z M315.6,45.1c0.8,0,1.5,0,2.3,0c0-0.8,0-1.5,0-2.3c-0.8,0-1.6,0-2.3,0
					C315.6,43.6,315.6,44.4,315.6,45.1z M315.6,41.6c0.8,0,1.6,0,2.3,0c0-0.8,0-1.5,0-2.3c-0.8,0-1.5,0-2.3,0
					C315.6,40.1,315.6,40.8,315.6,41.6z M317.9,48.7c0-0.8,0-1.6,0-2.3c-0.8,0-1.5,0-2.3,0c0,0.8,0,1.5,0,2.3
					C316.4,48.7,317.2,48.7,317.9,48.7z"/>
				<path class="st1" d="M337.9,38.3c1.1,0,2.1,0,3.1,0c0,1,0,2,0,3.1c-1,0-2.1,0-3.1,0C337.9,40.3,337.9,39.3,337.9,38.3z"/>
				<path class="st1" d="M336.3,41.4c-1,0-2.1,0-3.1,0c0-1,0-2,0-3.1c1,0,2,0,3.1,0C336.3,39.3,336.3,40.3,336.3,41.4z"/>
				<path class="st1" d="M328.4,38.3c1,0,2,0,3.1,0c0,1,0,2,0,3.1c-1,0-2,0-3.1,0C328.4,40.3,328.4,39.3,328.4,38.3z"/>
				<path class="st1" d="M341.1,33.6c0,1,0,2,0,3.1c-1,0-2.1,0-3.1,0c0-1,0-2,0-3.1C339,33.6,340,33.6,341.1,33.6z"/>
				<path class="st1" d="M333.2,33.6c1,0,2.1,0,3.1,0c0,1,0,2.1,0,3.1c-1,0-2.1,0-3.1,0C333.2,35.7,333.2,34.6,333.2,33.6z"/>
				<path class="st1" d="M328.4,36.7c0-1,0-2,0-3.1c1,0,2.1,0,3.1,0c0,1,0,2,0,3.1C330.5,36.7,329.5,36.7,328.4,36.7z"/>
				<path class="st1" d="M341.1,28.9c0,1,0,2,0,3.1c-1,0-2.1,0-3.1,0c0-1,0-2,0-3.1C339,28.9,340,28.9,341.1,28.9z"/>
				<path class="st1" d="M333.2,28.9c1,0,2.1,0,3.1,0c0,1,0,2,0,3.1c-1,0-2.1,0-3.1,0C333.2,31,333.2,30,333.2,28.9z"/>
				<path class="st1" d="M328.4,32c0-1,0-2.1,0-3.1c1,0,2.1,0,3.1,0c0,1,0,2,0,3.1C330.5,32,329.5,32,328.4,32z"/>
				<path class="st1" d="M341.1,24.2c0,1,0,2,0,3.1c-1,0-2.1,0-3.1,0c0-1,0-2,0-3.1C339,24.2,340,24.2,341.1,24.2z"/>
				<path class="st1" d="M336.3,24.2c0,1,0,2,0,3.1c-1,0-2.1,0-3.1,0c0-1,0-2,0-3.1C334.3,24.2,335.3,24.2,336.3,24.2z"/>
				<path class="st1" d="M328.4,27.3c0-1,0-2,0-3.1c1,0,2.1,0,3.1,0c0,1,0,2,0,3.1C330.5,27.3,329.5,27.3,328.4,27.3z"/>
				<path class="st1" d="M337.9,19.5c1,0,2.1,0,3.1,0c0,1,0,2.1,0,3.1c-1,0-2.1,0-3.1,0C337.9,21.6,337.9,20.6,337.9,19.5z"/>
				<path class="st1" d="M336.3,19.6c0,1,0,2,0,3.1c-1,0-2.1,0-3.1,0c0-1,0-2,0-3.1C334.3,19.6,335.3,19.6,336.3,19.6z"/>
				<path class="st1" d="M328.4,22.6c0-1,0-2,0-3.1c1,0,2.1,0,3.1,0c0,1,0,2,0,3.1C330.5,22.6,329.5,22.6,328.4,22.6z"/>
				<path class="st1" d="M321.5,42.8c0,0.8,0,1.5,0,2.3c-0.8,0-1.5,0-2.3,0c0-0.8,0-1.5,0-2.3C320,42.8,320.7,42.8,321.5,42.8z"/>
				<path class="st1" d="M322.8,41.6c0-0.8,0-1.5,0-2.3c0.8,0,1.5,0,2.3,0c0,0.8,0,1.5,0,2.3C324.3,41.6,323.6,41.6,322.8,41.6z"/>
				<path class="st1" d="M321.5,41.7c-0.7,0-1.4,0-2.1,0c-0.1,0-0.2-0.1-0.2-0.2c0-0.7,0-1.4,0-2.1c0.8,0,1.6,0,2.3,0
					C321.5,40.1,321.5,40.8,321.5,41.7z"/>
				<path class="st1" d="M322.8,45.1c0-0.8,0-1.5,0-2.3c0.6,0,1.1,0,1.7,0c0.8,0,0.7-0.1,0.7,0.7c0,0.5,0,1.1,0,1.6
					C324.3,45.1,323.6,45.1,322.8,45.1z"/>
				<path class="st1" d="M319.2,46.4c0.8,0,1.5,0,2.3,0c0,0.8,0,1.5,0,2.3c-0.8,0-1.5,0-2.3,0C319.2,47.9,319.2,47.1,319.2,46.4z"/>
				<path class="st1" d="M322.8,46.4c0.8,0,1.5,0,2.3,0c0,0.8,0,1.5,0,2.3c-0.8,0-1.5,0-2.3,0C322.8,47.9,322.8,47.1,322.8,46.4z"/>
				<path class="st1" d="M315.6,45.1c0-0.8,0-1.5,0-2.3c0.8,0,1.5,0,2.3,0c0,0.8,0,1.5,0,2.3C317.2,45.1,316.4,45.1,315.6,45.1z"/>
				<path class="st1" d="M315.6,41.6c0-0.8,0-1.5,0-2.3c0.8,0,1.5,0,2.3,0c0,0.8,0,1.5,0,2.3C317.2,41.6,316.4,41.6,315.6,41.6z"/>
				<path class="st1" d="M317.9,48.7c-0.8,0-1.5,0-2.3,0c0-0.8,0-1.5,0-2.3c0.8,0,1.5,0,2.3,0C317.9,47.1,317.9,47.9,317.9,48.7z"/>
			</g>
		</g>
		<g>
			<path class="st0" d="M291.4,54.6c-4.2,0-8.5,0-12.7,0c-0.1,0-0.2,0-0.4,0c-0.8,0-1.2-0.4-1.2-1.2c0-2.5,0-5,0-7.5
				c0-6,0-11.9,0-17.9c0-0.2-0.1-0.4-0.2-0.5c-0.4-0.5-0.5-1.1-0.3-1.7c0.2-0.6,0.7-1,1.3-1.1c2.2-0.4,4.4-0.7,6.6-1
				c2.6-0.4,5.1-0.8,7.7-1.2c0.8-0.1,1.6-0.3,2.4-0.4c0.6-0.1,1.3,0.3,1.7,0.9c0.3,0.6,0.3,1.4-0.2,1.9c-0.2,0.2-0.3,0.5-0.3,0.7
				c0,2,0,4,0,6c0,0.3,0.1,0.4,0.4,0.4c0.9,0.2,1.8,0.4,2.7,0.6c2,0.5,4.1,1,6.1,1.5c0.7,0.2,1.2,0.6,1.4,1.3
				c0.2,0.7-0.1,1.3-0.6,1.8c-0.1,0.1-0.2,0.3-0.2,0.4c0,3.4,0,6.8,0,10.1c0,1.9,0,3.7,0,5.6c0,0.9-0.4,1.3-1.3,1.3
				C300.1,54.6,295.7,54.6,291.4,54.6L291.4,54.6z M293.7,25.7c-0.1,0-0.2,0-0.3,0c-2.3,0.3-4.5,0.7-6.8,1.1c-2.3,0.4-4.5,0.7-6.8,1
				c-0.4,0.1-0.5,0.2-0.5,0.6c0,7.9,0,15.7,0,23.6c0,0.1,0,0.3,0,0.4c1.9,0,3.7,0,5.5,0c0-1.8,0-3.6,0-5.4c1.1,0,2.2,0,3.4,0
				c0,1.8,0,3.6,0,5.4c1.9,0,3.7,0,5.5,0C293.7,43.5,293.7,34.6,293.7,25.7z M300.7,52.4c1,0,1.9,0,2.8,0c0-0.1,0-0.2,0-0.3
				c0-4.8,0-9.6,0-14.4c0-0.3-0.1-0.4-0.4-0.4c-1.8-0.4-3.6-0.8-5.4-1.2c-0.6-0.1-1.3-0.3-1.9-0.4c0,5.6,0,11.2,0,16.8
				c1,0,1.9,0,2.8,0c0-0.9,0-1.8,0-2.7c0.7,0,1.3,0,2,0C300.7,50.6,300.7,51.5,300.7,52.4z"/>
			<path class="st1" d="M293.7,25.7c0,8.9,0,17.8,0,26.8c-1.8,0-3.7,0-5.5,0c0-1.8,0-3.6,0-5.4c-1.1,0-2.2,0-3.4,0
				c0,1.8,0,3.6,0,5.4c-1.9,0-3.7,0-5.5,0c0-0.1,0-0.3,0-0.4c0-7.9,0-15.7,0-23.6c0-0.4,0.1-0.5,0.5-0.6c2.3-0.3,4.5-0.7,6.8-1
				c2.3-0.4,4.5-0.7,6.8-1.1C293.5,25.7,293.6,25.7,293.7,25.7z M286.5,43.9C286.5,43.9,286.5,43.9,286.5,43.9c0.5,0,0.9,0,1.4,0
				c0.2,0,0.3-0.1,0.3-0.3c0-0.9,0-1.8,0-2.7c0-0.2-0.1-0.3-0.3-0.3c-0.9,0-1.9,0-2.8,0c-0.2,0-0.3,0.1-0.3,0.3c0,0.9,0,1.8,0,2.7
				c0,0.3,0.1,0.3,0.3,0.3C285.6,43.9,286,43.9,286.5,43.9z M284.9,28.8c0,1.1,0,2.1,0,3.2c1.1,0,2.2,0,3.3,0c0-1.1,0-2.1,0-3.2
				C287,28.8,286,28.8,284.9,28.8z M284.9,34.7c0,1.1,0,2.1,0,3.2c1.1,0,2.1,0,3.2,0c0.1,0,0.2-0.2,0.2-0.2c0-0.5,0-1,0-1.5
				c0-0.5,0-0.9,0-1.4C287.1,34.7,286,34.7,284.9,34.7z"/>
			<path class="st1" d="M300.7,52.4c0-0.9,0-1.8,0-2.7c-0.7,0-1.3,0-2,0c0,0.9,0,1.8,0,2.7c-1,0-1.9,0-2.8,0c0-5.6,0-11.1,0-16.8
				c0.7,0.1,1.3,0.3,1.9,0.4c1.8,0.4,3.6,0.8,5.4,1.2c0.3,0.1,0.4,0.1,0.4,0.4c0,4.8,0,9.6,0,14.4c0,0.1,0,0.2,0,0.3
				C302.6,52.4,301.7,52.4,300.7,52.4z M300.7,38.6c-0.7,0-1.3,0-1.9,0c0,0.6,0,1.3,0,1.9c0.7,0,1.3,0,1.9,0
				C300.7,39.9,300.7,39.3,300.7,38.6z M298.7,42.2c0,0.6,0,1.1,0,1.7c0,0.1,0.2,0.2,0.2,0.2c0.5,0,1,0,1.5,0c0.1,0,0.2-0.1,0.2-0.2
				c0-0.6,0-1.1,0-1.7C300,42.2,299.4,42.2,298.7,42.2z M298.8,45.7c0,0.6,0,1.2,0,1.8c0.7,0,1.3,0,1.9,0c0-0.6,0-1.2,0-1.8
				C300,45.7,299.4,45.7,298.8,45.7z"/>
			<path class="st0" d="M286.5,43.9c-0.4,0-0.9,0-1.3,0c-0.2,0-0.3,0-0.3-0.3c0-0.9,0-1.8,0-2.7c0-0.2,0.1-0.3,0.3-0.3
				c0.9,0,1.9,0,2.8,0c0.2,0,0.3,0.1,0.3,0.3c0,0.9,0,1.8,0,2.7c0,0.2-0.1,0.3-0.3,0.3C287.4,43.9,287,43.9,286.5,43.9
				C286.5,43.9,286.5,43.9,286.5,43.9z"/>
			<path class="st0" d="M284.9,28.8c1.1,0,2.2,0,3.3,0c0,1.1,0,2.1,0,3.2c-1.1,0-2.2,0-3.3,0C284.9,30.9,284.9,29.9,284.9,28.8z"/>
			<path class="st0" d="M284.9,34.7c1.1,0,2.2,0,3.3,0c0,0.5,0,0.9,0,1.4c0,0.5,0,1,0,1.5c0,0.1-0.1,0.2-0.2,0.2c-1,0-2.1,0-3.2,0
				C284.9,36.9,284.9,35.8,284.9,34.7z"/>
			<path class="st0" d="M300.7,38.6c0,0.6,0,1.2,0,1.9c-0.6,0-1.3,0-1.9,0c0-0.6,0-1.2,0-1.9C299.4,38.6,300,38.6,300.7,38.6z"/>
			<path class="st0" d="M298.7,42.2c0.7,0,1.3,0,2,0c0,0.6,0,1.1,0,1.7c0,0.1-0.1,0.2-0.2,0.2c-0.5,0-1,0-1.5,0
				c-0.1,0-0.2-0.1-0.2-0.2C298.7,43.3,298.7,42.7,298.7,42.2z"/>
			<path class="st0" d="M298.8,45.7c0.6,0,1.3,0,1.9,0c0,0.6,0,1.2,0,1.8c-0.6,0-1.3,0-1.9,0C298.8,46.9,298.8,46.3,298.8,45.7z"/>
		</g>
		<g>
			<path class="st0" d="M267.9,53.4c-0.6,0-1.2,0-1.8,0c0,0-0.1,0-0.1,0c-0.6-0.2-1-0.7-1-1.3c0-0.4,0-0.8,0-1.2c0-0.1,0-0.1,0-0.2
				c-1.8,0-3.6,0-5.4,0c0,0,0,0,0,0c0,0.4,0,0.8,0,1.3c0,0.6-0.3,1.1-0.9,1.3c-0.1,0-0.2,0.1-0.3,0.1c-0.6,0-1.2,0-1.8,0
				c-0.1,0-0.1,0-0.2-0.1c-0.6-0.2-1-0.7-1-1.3c0-0.3,0-0.6,0-0.9c0-0.2,0-0.3,0-0.5c-0.9-0.1-1.4-0.6-1.4-1.5c0-3.7,0-7.5,0-11.2
				c0-0.6,0-1.2,0.1-1.7c0.4-1.9,2.1-3.1,4.1-3.1c1.9,0,3.9,0,5.8,0c0.9,0,1.9,0,2.8,0.1c1.7,0.1,3.2,1.5,3.4,3.2
				c0.1,0.6,0.1,1.1,0.1,1.7c0,3.7,0,7.4,0,11.1c0,0.3,0,0.6-0.2,0.8c-0.3,0.4-0.7,0.6-1.1,0.6c0,0,0,0,0,0c0,0.4,0,0.9,0,1.3
				c0,0.6-0.4,1-0.9,1.2C268.1,53.4,268,53.4,267.9,53.4z M269,37.3c-4.5,0-9.1,0-13.6,0c0,2.7,0,5.4,0,8.1c4.5,0,9.1,0,13.6,0
				C269,42.6,269,40,269,37.3z M259.5,35.9c1.8,0,3.6,0,5.4,0c0-0.5,0-0.9,0-1.3c-1.8,0-3.6,0-5.4,0C259.5,35,259.5,35.4,259.5,35.9
				z M256.8,46.7c-0.8,0-1.4,0.6-1.4,1.4c0,0.7,0.6,1.3,1.4,1.3c0.7,0,1.4-0.6,1.4-1.4C258.1,47.3,257.5,46.7,256.8,46.7z
				 M267.7,46.7c-0.8,0-1.4,0.6-1.4,1.4c0,0.7,0.6,1.3,1.3,1.3c0.8,0,1.4-0.6,1.4-1.3C269,47.3,268.4,46.7,267.7,46.7z"/>
			<path class="st2" d="M258.4,53.4c0.1,0,0.2-0.1,0.3-0.1c0.5-0.2,0.9-0.7,0.9-1.3c0-0.4,0-0.8,0-1.3c0,0,0,0,0,0
				c1.8,0,3.6,0,5.4,0c0,0.1,0,0.1,0,0.2c0,0.4,0,0.8,0,1.2c0,0.6,0.4,1.1,1,1.3c0,0,0.1,0,0.1,0C263.5,53.4,260.9,53.4,258.4,53.4z
				"/>
			<path class="st0" d="M251.3,39.1c0.3-0.6,0.8-0.5,1.3-0.5c0,1.3,0,2.7,0,4c-0.5,0-1.1,0.1-1.3-0.5
				C251.3,41.1,251.3,40.1,251.3,39.1z"/>
			<path class="st0" d="M273.1,42.1c-0.3,0.5-0.4,0.6-1.3,0.5c0-1.3,0-2.7,0-4c0.9-0.1,1-0.1,1.3,0.5
				C273.1,40.1,273.1,41.1,273.1,42.1z"/>
			<path class="st1" d="M269,37.3c0,2.7,0,5.4,0,8.1c-4.5,0-9.1,0-13.6,0c0-2.7,0-5.4,0-8.1C260,37.3,264.5,37.3,269,37.3z"/>
			<path class="st1" d="M259.5,35.9c0-0.4,0-0.9,0-1.3c1.8,0,3.6,0,5.4,0c0,0.4,0,0.9,0,1.3C263.1,35.9,261.3,35.9,259.5,35.9z"/>
			<path class="st1" d="M256.8,46.7c0.8,0,1.4,0.6,1.4,1.3c0,0.7-0.6,1.4-1.4,1.4c-0.8,0-1.4-0.6-1.4-1.3
				C255.4,47.3,256,46.7,256.8,46.7z"/>
			<path class="st1" d="M267.7,46.7c0.7,0,1.4,0.6,1.3,1.4c0,0.7-0.6,1.3-1.4,1.3c-0.7,0-1.3-0.6-1.3-1.3
				C266.3,47.3,266.9,46.7,267.7,46.7z"/>
		</g>
	</g>
	<rect x="-4.4" y="53.2" class="st0" width="789" height="3.1"/>
</g>
</svg>
