<?xml version="1.0" encoding="utf-8"?>
<!-- Generator: Adobe Illustrator 19.1.0, SVG Export Plug-In . SVG Version: 6.00 Build 0)  -->
<svg version="1.1" id="Layer_1" xmlns="http://www.w3.org/2000/svg" xmlns:xlink="http://www.w3.org/1999/xlink" x="0px" y="0px"
	 viewBox="0 0 783 55" style="enable-background:new 0 0 783 55;" xml:space="preserve">
<style type="text/css">
	.st0{fill:#82BC00;}
	.st1{fill:#E3EEC5;}
</style>
<g>
	<g>
		<g>
			<g>
				<path class="st0" d="M426.9,53.2c0.4-0.7,1-0.9,1.9-0.8c0-6.9,0-14.8,0-21.8c0.3,0,0.5,0,0.7,0c4.5,0,9,0,13.5,0
					c1.2,0,2.3-0.4,3.2-1.3c3.2-3.1,6.4-6.2,9.5-9.3c0.1-0.1,0.3-0.3,0.5-0.4c1.1,1.1,2.2,2.1,3.3,3.2c2.2,2.2,4.5,4.3,6.7,6.5
					c0.9,0.9,2,1.4,3.3,1.4c4.5,0,8.9,0,13.4,0c0.2,0,0.4,0,0.7,0c0,6.9,0,14.8,0,21.7c1.8,0.3,1.9-0.7,1.9,1.2
					c0,1.2-0.4,0.6-1.6,0.6c-18.4,0-36.9,0-55.3,0c-0.7,0-1.2,0.8-1.6,0.2C426.9,53.6,426.9,53.9,426.9,53.2z M455.2,27
					c-2.2,0.2-3.9,2.5-3.7,5c0.1,2.4,2.3,4.3,4.8,4.3c2.4,0,4.5-2,4.6-4.3c0.1-2.5-1.6-4.7-3.7-5c0,0.1,0,0.2,0,0.3
					c0,1.4,0,2.8,0,4.1c0,0.7-0.4,1.1-1.1,1.1c-0.6,0-1.3,0-1.9,0c-0.6,0-0.7-0.2-0.7-0.9c0-0.7,0.2-0.9,0.7-0.9c0.4,0,0.7,0,1.1,0
					C455.2,29.4,455.2,28.2,455.2,27z M459,51.4c0-2.3,0.1-4.7,0-7c-0.1-1.5-1.5-2.5-3.1-2.4c-1.4,0.1-2.5,1.4-2.5,2.8
					c0,2.1,0,4.1,0,6.2c0,0.1,0,0.3,0,0.4C455.3,51.4,457.1,51.4,459,51.4z M438.2,36.3c-1.3,0-2.5,0-3.7,0c0,1.3,0,2.5,0,3.7
					c1.3,0,2.5,0,3.7,0C438.2,38.8,438.2,37.6,438.2,36.3z M447.7,36.3c-1.3,0-2.5,0-3.7,0c0,1.3,0,2.5,0,3.7c1.3,0,2.5,0,3.7,0
					C447.7,38.8,447.7,37.6,447.7,36.3z M464.7,40c1.3,0,2.5,0,3.7,0c0-1.3,0-2.5,0-3.7c-1.3,0-2.5,0-3.7,0
					C464.7,37.6,464.7,38.8,464.7,40z M477.9,36.3c-1.3,0-2.5,0-3.7,0c0,1.3,0,2.5,0,3.7c1.3,0,2.5,0,3.7,0
					C477.9,38.8,477.9,37.6,477.9,36.3z M434.5,47.6c1.3,0,2.5,0,3.7,0c0-1.3,0-2.5,0-3.7c-1.3,0-2.5,0-3.7,0
					C434.5,45.1,434.5,46.3,434.5,47.6z M447.6,47.6c0-1.3,0-2.5,0-3.7c-1.3,0-2.5,0-3.7,0c0,1.3,0,2.5,0,3.7
					C445.2,47.6,446.4,47.6,447.6,47.6z M468.4,47.6c0-1.3,0-2.5,0-3.7c-1.3,0-2.5,0-3.7,0c0,1.3,0,2.5,0,3.7
					C466,47.6,467.2,47.6,468.4,47.6z M477.8,47.6c0-1.3,0-2.5,0-3.7c-1.3,0-2.5,0-3.7,0c0,1.3,0,2.5,0,3.7
					C475.4,47.6,476.6,47.6,477.8,47.6z"/>
				<path class="st0" d="M426.9,27.6c2.4-3.1,4.8-6.3,7.2-9.4c0.4-0.5,1-0.8,1.6-0.8c3.9,0,7.7,0,11.6,0c0.3,0,0.7-0.1,0.9-0.3
					c2.2-2.1,4.5-4.3,6.7-6.4c0.2-0.2,0.3-0.5,0.3-0.8c0-2.7,0-5.5,0-8.2c0-1.1,1-1.8,1.9-1.1c1.4,1,2.9,0.9,4.4,0.3
					c1.4-0.6,2.8-0.6,4.2,0c0.5,0.2,0.8,0.5,0.8,1.2c-0.1,1.8,0,3.5,0,5.3c0,0.2,0,0.3,0,0.4c-0.6-0.2-1.3-0.5-1.9-0.7
					c-1-0.3-2.1-0.1-3,0.3c-1,0.4-2,0.7-3,0.4c-0.5-0.1-0.9-0.4-1.4-0.6c0,1,0,2,0,3c0,0.1,0.2,0.3,0.3,0.4c2.2,2.2,4.5,4.3,6.7,6.4
					c0.2,0.2,0.5,0.3,0.8,0.3c3.9,0,7.7,0,11.6,0c0.8,0,1.3,0.3,1.8,0.9c2.2,2.9,4.5,5.9,6.7,8.8c0.3,0.3,0.5,0.7,0.2,1.1
					c-0.2,0.5-0.6,0.5-1.1,0.5c-4.7,0-9.4,0-14,0c-0.8,0-1.4-0.3-1.9-0.8c-3.8-3.8-7.7-7.5-11.6-11.3c-0.2-0.2-0.3-0.3-0.5-0.5
					c-1.2,1.1-2.3,2.2-3.4,3.3c-2.9,2.9-5.9,5.7-8.8,8.6c-0.5,0.5-1,0.7-1.7,0.7c-4.7,0-9.4,0-14,0c-0.6,0-1-0.1-1.3-0.6
					C426.9,28,426.9,27.8,426.9,27.6z"/>
				<path class="st1" d="M455.2,27c0,1.2,0,2.4,0,3.6c-0.4,0-0.8,0-1.1,0c-0.6,0-0.7,0.2-0.7,0.9c0,0.7,0.2,0.9,0.7,0.9
					c0.6,0,1.3,0,1.9,0c0.7,0,1.1-0.4,1.1-1.1c0-1.4,0-2.8,0-4.1c0-0.1,0-0.2,0-0.3c2.2,0.2,3.9,2.5,3.7,5c-0.1,2.3-2.2,4.3-4.6,4.3
					c-2.5,0-4.7-1.9-4.8-4.3C451.3,29.5,453,27.3,455.2,27z"/>
				<path class="st1" d="M459,51.4c-1.9,0-3.7,0-5.6,0c0-0.1,0-0.3,0-0.4c0-2.1,0-4.1,0-6.2c0-1.4,1.2-2.7,2.5-2.8
					c1.6-0.1,3,1,3.1,2.4C459.1,46.7,459,49,459,51.4z"/>
				<path class="st1" d="M438.2,36.3c0,1.2,0,2.5,0,3.7c-1.2,0-2.4,0-3.7,0c0-1.2,0-2.4,0-3.7C435.7,36.3,437,36.3,438.2,36.3z"/>
				<path class="st1" d="M447.7,36.3c0,1.2,0,2.4,0,3.7c-1.2,0-2.4,0-3.7,0c0-1.2,0-2.4,0-3.7C445.2,36.3,446.4,36.3,447.7,36.3z"/>
				<path class="st1" d="M464.7,40c0-1.2,0-2.5,0-3.7c1.2,0,2.5,0,3.7,0c0,1.2,0,2.4,0,3.7C467.2,40,466,40,464.7,40z"/>
				<path class="st1" d="M477.9,36.3c0,1.3,0,2.5,0,3.7c-1.2,0-2.4,0-3.7,0c0-1.2,0-2.4,0-3.7C475.4,36.3,476.6,36.3,477.9,36.3z"/>
				<path class="st1" d="M434.5,47.6c0-1.3,0-2.5,0-3.7c1.2,0,2.4,0,3.7,0c0,1.2,0,2.4,0,3.7C437,47.6,435.8,47.6,434.5,47.6z"/>
				<path class="st1" d="M447.6,47.6c-1.2,0-2.5,0-3.7,0c0-1.2,0-2.5,0-3.7c1.2,0,2.4,0,3.7,0C447.6,45.1,447.6,46.3,447.6,47.6z"/>
				<path class="st1" d="M468.4,47.6c-1.2,0-2.4,0-3.7,0c0-1.2,0-2.5,0-3.7c1.2,0,2.4,0,3.7,0C468.4,45.1,468.4,46.3,468.4,47.6z"/>
				<path class="st1" d="M477.8,47.6c-1.3,0-2.5,0-3.7,0c0-1.2,0-2.5,0-3.7c1.2,0,2.4,0,3.7,0C477.8,45.1,477.8,46.3,477.8,47.6z"/>
			</g>
			<g>
				<path class="st0" d="M419.9,37.2c1,0,2-0.2,2.7,0.7c0.5,0.7,0.3,1.5,0.4,2.4c-0.5,0-1,0-1.5,0c-0.4,0-0.8,0-1.1,0.1
					c-0.5,0.1-0.8,0.5-0.7,1.2c0,0.5,0.4,0.9,0.9,0.9c0.8,0,1.6,0,2.4,0c0,0.4,0,0.8,0,1.2c0,1.2,0,2.4,0,3.6c0,0.8-0.6,1.4-1.4,1.4
					c-0.2,0-0.5,0-0.7,0c-0.8-3-3-4-4.7-4.1c-2.5-0.2-4.9,1.4-5.5,4.1c-0.1,0-0.3,0-0.4,0c-3.9,0-7.8,0-11.7,0
					c-0.3,0-0.4-0.1-0.5-0.4c-0.6-2.2-2.6-3.7-4.9-3.7c-2.3,0-4.4,1.6-5,3.8c-0.1,0.3-0.2,0.3-0.4,0.3c-0.9,0-1.7-0.2-2.4-0.7
					c-0.3-0.2-0.5-0.5-0.5-0.9c0-5,0-10.1,0-15.1c0-1.5,1.4-2.9,2.9-2.9c8.3,0,16.6,0,25,0c1.4,0,2.8,0,4.3,0c1.4,0,2.8,1,2.9,2.9
					c0,1.6,0,3.2,0,4.9C419.9,36.9,419.9,37,419.9,37.2z M410.7,37.9c0-1.7,0-3.3,0-5c0-0.6-0.3-0.9-0.9-0.9c-0.8,0-1.5,0-2.3,0
					c-0.8,0-1,0.2-1,1c0,1.6,0,3.3,0,4.9c0,1.9,0,3.8,0,5.6c0,0.6,0.2,0.8,0.8,0.9c0.7,0,1.4,0,2.1-0.1c0.7-0.1,1.3-0.9,1.3-1.6
					C410.7,41.2,410.7,39.5,410.7,37.9z M412.7,34.6c0,0.6,0,1.2,0,1.8c0,0.5,0.3,0.7,0.7,0.7c0.9,0,1.8,0,2.7,0
					c0.5,0,0.7-0.2,0.7-0.7c0-1.2,0-2.4,0-3.6c0-0.5-0.4-0.9-0.9-0.9c-0.8,0-1.6,0-2.4,0c-0.5,0-0.8,0.3-0.8,0.8
					C412.7,33.4,412.7,34,412.7,34.6z M390,32.1c-0.4,0-0.9,0-1.3,0c-0.4,0-0.7,0.3-0.7,0.7c0,0.5,0,1,0,1.6c0,0.5,0.2,0.8,0.7,0.8
					c0.9,0,1.8,0,2.6,0c0.5,0,0.7-0.3,0.7-0.8c0-0.5,0-1,0-1.6c0-0.6-0.2-0.8-0.8-0.8C390.9,32.1,390.4,32.1,390,32.1z M402.4,35.2
					C402.4,35.2,402.4,35.2,402.4,35.2c0.4,0,0.8,0,1.2,0c0.6,0,0.9-0.3,0.9-0.9c0-0.5,0-1,0-1.5c0-0.5-0.3-0.8-0.8-0.8
					c-0.9,0-1.7,0-2.6,0c-0.5,0-0.8,0.2-0.8,0.7c0,0.5,0,1,0,1.6c0,0.5,0.2,0.8,0.8,0.8C401.6,35.2,402,35.2,402.4,35.2z M390,40.3
					C390,40.3,390,40.3,390,40.3c0.4,0,0.9,0,1.3,0c0.5,0,0.8-0.3,0.8-0.8c0-0.5,0-1,0-1.6c0-0.5-0.3-0.8-0.8-0.8
					c-0.9,0-1.7,0-2.6,0c-0.5,0-0.8,0.3-0.8,0.8c0,0.5,0,1,0,1.5c0,0.5,0.3,0.8,0.8,0.8C389.2,40.3,389.6,40.3,390,40.3z
					 M402.4,37.2c-0.4,0-0.9,0-1.3,0c-0.5,0-0.7,0.2-0.7,0.7c0,0.6,0,1.1,0,1.7c0,0.4,0.3,0.7,0.7,0.7c0.9,0,1.8,0,2.7,0
					c0.5,0,0.7-0.3,0.7-0.8c0-0.5,0-1,0-1.5c0-0.5-0.3-0.8-0.8-0.8C403.3,37.2,402.8,37.2,402.4,37.2z M396.2,32.1
					c-0.4,0-0.9,0-1.3,0c-0.5,0-0.8,0.3-0.8,0.8c0,0.5,0,1,0,1.6c0,0.5,0.2,0.8,0.7,0.8c0.9,0,1.8,0,2.7,0c0.5,0,0.7-0.3,0.7-0.8
					c0-0.5,0-1,0-1.5c0-0.5-0.3-0.8-0.8-0.8C397.1,32.1,396.7,32.1,396.2,32.1z M396.2,37.2c-0.4,0-0.9,0-1.3,0
					c-0.5,0-0.8,0.3-0.8,0.8c0,0.5,0,1,0,1.6c0,0.5,0.2,0.8,0.7,0.8c0.9,0,1.8,0,2.7,0c0.5,0,0.7-0.3,0.7-0.8c0-0.5,0-1,0-1.6
					c0-0.5-0.3-0.8-0.8-0.8C397.1,37.2,396.7,37.2,396.2,37.2z"/>
				<path class="st0" d="M415.8,46.4c1.9,0,3.3,1.5,3.2,3.3c-0.1,1.9-1.5,3.2-3.3,3.1c-1.8,0-3.2-1.5-3.1-3.3
					C412.6,47.7,414.1,46.3,415.8,46.4z"/>
				<path class="st0" d="M393.1,46.4c1.7,0,3.2,1.4,3.2,3c0.1,1.9-1.3,3.4-3.2,3.4c-1.7,0-3.2-1.4-3.3-3.1
					C389.9,47.9,391.3,46.3,393.1,46.4z"/>
				<path class="st1" d="M410.7,37.9c0,1.6,0,3.2,0,4.8c0,0.7-0.6,1.5-1.3,1.6c-0.7,0.1-1.4,0.1-2.1,0.1c-0.6,0-0.8-0.3-0.8-0.9
					c0-1.9,0-3.8,0-5.6c0-1.6,0-3.3,0-4.9c0-0.7,0.2-1,1-1c0.8,0,1.5,0,2.3,0c0.6,0,0.9,0.3,0.9,0.9
					C410.7,34.6,410.7,36.3,410.7,37.9z"/>
				<path class="st1" d="M412.7,34.6c0-0.6,0-1.2,0-1.8c0-0.5,0.3-0.8,0.8-0.8c0.8,0,1.6,0,2.4,0c0.5,0,0.9,0.3,0.9,0.9
					c0,1.2,0,2.4,0,3.6c0,0.5-0.3,0.7-0.7,0.7c-0.9,0-1.8,0-2.7,0c-0.5,0-0.7-0.3-0.7-0.7C412.7,35.8,412.7,35.2,412.7,34.6z"/>
				<path class="st1" d="M390,32.1c0.4,0,0.8,0,1.2,0c0.6,0,0.8,0.2,0.8,0.8c0,0.5,0,1,0,1.6c0,0.5-0.2,0.7-0.7,0.8
					c-0.9,0-1.8,0-2.6,0c-0.5,0-0.7-0.3-0.7-0.8c0-0.5,0-1,0-1.6c0-0.4,0.3-0.7,0.7-0.7C389.2,32.1,389.6,32.1,390,32.1z"/>
				<path class="st1" d="M402.4,35.2c-0.4,0-0.9,0-1.3,0c-0.5,0-0.8-0.3-0.8-0.8c0-0.5,0-1,0-1.6c0-0.5,0.3-0.7,0.8-0.7
					c0.9,0,1.7,0,2.6,0c0.5,0,0.8,0.3,0.8,0.8c0,0.5,0,1,0,1.5c0,0.6-0.3,0.8-0.9,0.9C403.2,35.2,402.8,35.2,402.4,35.2
					C402.4,35.2,402.4,35.2,402.4,35.2z"/>
				<path class="st1" d="M390,40.3c-0.4,0-0.8,0-1.2,0c-0.5,0-0.8-0.3-0.8-0.8c0-0.5,0-1,0-1.5c0-0.5,0.3-0.8,0.8-0.8
					c0.9,0,1.7,0,2.6,0c0.5,0,0.8,0.2,0.8,0.8c0,0.5,0,1,0,1.6c0,0.5-0.3,0.8-0.8,0.8C390.9,40.3,390.5,40.3,390,40.3
					C390,40.3,390,40.3,390,40.3z"/>
				<path class="st1" d="M402.4,37.2c0.4,0,0.9,0,1.3,0c0.5,0,0.8,0.3,0.8,0.8c0,0.5,0,1,0,1.5c0,0.5-0.2,0.8-0.7,0.8
					c-0.9,0-1.8,0-2.7,0c-0.4,0-0.7-0.3-0.7-0.7c0-0.6,0-1.1,0-1.7c0-0.5,0.3-0.7,0.7-0.7C401.5,37.2,402,37.2,402.4,37.2z"/>
				<path class="st1" d="M396.2,32.1c0.4,0,0.9,0,1.3,0c0.5,0,0.8,0.3,0.8,0.8c0,0.5,0,1,0,1.5c0,0.5-0.2,0.8-0.7,0.8
					c-0.9,0-1.8,0-2.7,0c-0.5,0-0.7-0.3-0.7-0.8c0-0.5,0-1,0-1.6c0-0.5,0.3-0.8,0.8-0.8C395.4,32.1,395.8,32.1,396.2,32.1z"/>
				<path class="st1" d="M396.2,37.2c0.4,0,0.9,0,1.3,0c0.5,0,0.8,0.3,0.8,0.8c0,0.5,0,1,0,1.6c0,0.5-0.2,0.7-0.7,0.8
					c-0.9,0-1.8,0-2.7,0c-0.5,0-0.7-0.3-0.7-0.8c0-0.5,0-1,0-1.6c0-0.5,0.3-0.8,0.8-0.8C395.4,37.2,395.8,37.2,396.2,37.2z"/>
			</g>
			<g>
				<path class="st0" d="M504.9,53.2c0.4-0.4,0.8-0.7,1.1-1.1c1.3-1.9,2.5-3.9,3.8-5.8c0.5-0.7,0.6-1.5,0.4-2.3
					c-0.3-1.2-0.5-2.4-0.8-3.5c-0.1-0.4-0.3-0.9-0.6-0.9c-0.6-0.2-1.3-0.2-1.7,0.6c-0.3,0.6-0.6,1.1-0.8,1.7
					c-0.3,1.1-1.1,1.8-2.1,2.2c-0.4,0.2-1,0.4-0.7,1c0.3,0.7,0.9,0.2,1.3,0c0.8-0.5,1.8-0.7,2.4-1.8c0.2,0.7,0.4,1.4,0.6,2.1
					c0,0.2-0.1,0.4-0.2,0.6c-1.1,1.8-2.2,3.6-3.2,5.3c-0.5,0.9-0.4,1.3,0.4,1.8C504.7,53.2,504.8,53.2,504.9,53.2z"/>
				<path class="st0" d="M513,43.6c-0.4-1.2-0.8-2.4-1.2-3.7c-0.3-0.8-0.6-1-1.3-0.6c-0.2,0.1-0.5,0.5-0.5,0.8
					c0.3,1.4,0.6,2.7,0.9,4.1c0.1,0.5,0.4,0.7,0.9,0.5c0.4-0.1,0.8-0.3,1.2-0.5C513,43.9,513,43.7,513,43.6z"/>
				<path class="st0" d="M513,52c-0.3-0.4-0.6-0.8-0.9-1.3c-0.7-1.1-1.3-2.3-1.9-3.4c-0.3,0.4-0.6,0.8-1,1.4c-0.1,0.2-0.1,0.5,0,0.7
					c0.9,1.2,1.8,2.5,2.8,3.7c0.3,0,0.6,0,1,0C513,52.8,513,52.4,513,52z"/>
				<path class="st0" d="M506.7,35.3c-0.6,0.3-1.1,0.7-1.2,1.5c-0.1,0.8,0.4,1.6,1.2,1.9c0.8,0.3,1.7-0.2,2.1-1
					c0.3-0.8,0-1.7-0.7-2.1c-0.2-0.1-0.3-0.2-0.5-0.3C507.3,35.3,507,35.3,506.7,35.3z"/>
				<path class="st0" d="M498.6,46.5c0.4,0.7,0.3,1.3-0.2,2.1c-0.7,1-1.3,2-1.9,3.1c-0.1,0.2-0.3,0.4-0.3,0.6c0,0.2,0.1,0.6,0.3,0.7
					c0.2,0.1,0.5,0,0.7-0.1c0.2-0.2,0.4-0.4,0.6-0.7c0.9-1.3,1.7-2.6,2.6-4c0.4-0.6,0.5-1.1,0.3-1.8c-0.2-0.7-0.3-1.4-0.5-2.1
					c-0.1-0.3-0.3-0.6-0.5-0.7c-0.4-0.1-0.9-0.1-1.2,0.4c-0.2,0.4-0.4,0.7-0.6,1.1c-0.3,0.8-0.8,1.3-1.6,1.7c-0.3,0.1-1,0.2-0.7,0.8
					c0.3,0.6,0.8,0.2,1.1,0C497.4,47.3,498,46.9,498.6,46.5z"/>
				<path class="st0" d="M498.6,42.9c0.8,0,1.4-0.6,1.4-1.4c0-0.7-0.6-1.3-1.3-1.3c-0.8,0-1.4,0.6-1.4,1.3
					C497.2,42.3,497.8,42.9,498.6,42.9z"/>
				<path class="st0" d="M500.4,43.5c0.3,1.2,0.5,2.1,0.7,3.1c0.2,0.6,0.7,0.3,1.1,0.3c0.4-0.1,0.5-0.3,0.4-0.7
					c-0.3-0.9-0.5-1.8-0.8-2.7c-0.1-0.2-0.5-0.4-0.7-0.4C500.8,43.1,500.6,43.3,500.4,43.5z"/>
				<path class="st0" d="M500.6,48.8C500.6,48.8,500.6,48.8,500.6,48.8c-1,1.2-1,1.3-0.1,2.5c0.4,0.5,0.7,1,1.1,1.4
					c0.2,0.2,0.5,0.1,0.8,0.2c0-0.3,0.1-0.5,0-0.8c-0.1-0.2-0.3-0.4-0.4-0.6C501.6,50.6,501.1,49.8,500.6,48.8z"/>
			</g>
			<g>
				<path class="st0" d="M326.3,42.9c0.2-0.6,0.7-0.9,1.3-0.8c0.5,0,1,0,1.6,0c0.5,0,0.8-0.2,1.1-0.6c0.9-1.1,1.7-2.3,2.6-3.4
					c0.2-0.2,0.3-0.4,0.5-0.7c0.2-0.3,0.6-0.4,0.9-0.5c0.2,0,0.3,0,0.5,0c2.2,0,4.5,0,6.7,0c0.9,0,1.5,0.3,2.1,1
					c0.9,1.2,1.9,2.4,2.9,3.5c0.3,0.4,0.7,0.6,1.3,0.6c1,0,2,0.1,2.9,0.6c1.3,0.7,2.1,1.7,2.3,3.2c0,0,0,0,0,0.1c0,0.8,0,1.7,0,2.5
					c-0.1,0.4-0.4,0.8-0.9,0.8c-0.7,0-1.5,0-2.2,0c-0.3-2-1.9-3-3.3-3.1c-0.8,0-1.6,0.1-2.2,0.6c-0.9,0.6-1.4,1.5-1.6,2.5
					c-2.1,0-4.1,0-6.1,0c-0.3-2-1.9-3-3.3-3.1c-0.8-0.1-1.6,0.1-2.2,0.6c-0.9,0.6-1.5,1.5-1.7,2.6c-0.6,0-1.2,0-1.8,0
					c-0.6,0-1.1-0.2-1.3-0.8C326.3,46.6,326.3,44.7,326.3,42.9z M332.4,42c1.8,0,3.5,0,5.2,0c0-1,0-2,0-3.1c-0.8,0-1.7,0-2.5,0
					c-0.3,0-0.6,0.1-0.7,0.4c-0.6,0.8-1.3,1.7-1.9,2.6C332.4,41.9,332.4,42,332.4,42z M339.7,42c1.6,0,3.1,0,4.7,0
					c-0.7-0.9-1.4-1.7-2.1-2.6c-0.2-0.2-0.4-0.4-0.7-0.4c-0.6,0-1.3,0-1.9,0c0,0.1,0,0.2,0,0.2C339.7,40.2,339.7,41.1,339.7,42z"/>
				<path class="st1" d="M332.4,42c0-0.1,0.1-0.1,0.1-0.1c0.6-0.9,1.3-1.7,1.9-2.6c0.2-0.2,0.4-0.4,0.7-0.4c0.8,0,1.6,0,2.5,0
					c0,1,0,2,0,3.1C335.9,42,334.1,42,332.4,42z"/>
				<path class="st1" d="M339.7,42c0-0.9,0-1.9,0-2.8c0-0.1,0-0.2,0-0.2c0.6,0,1.3,0,1.9,0c0.3,0,0.5,0.2,0.7,0.4
					c0.7,0.9,1.4,1.7,2.1,2.6C342.8,42,341.3,42,339.7,42z"/>
				<path class="st0" d="M346.4,52.1c-1.3,0-2.4-1-2.4-2.4c0-1.3,1-2.4,2.4-2.4c1.3,0,2.4,1.1,2.4,2.4
					C348.7,51,347.7,52.1,346.4,52.1z"/>
				<path class="st0" d="M333,52.1c-1.3,0-2.4-1-2.4-2.4c0-1.3,1.1-2.4,2.4-2.4c1.3,0,2.4,1.1,2.4,2.4C335.4,51,334.3,52.1,333,52.1
					z"/>
			</g>
		</g>
		<g>
			<path class="st0" d="M545.4,52.7c-2.1,0-3.9,0-6,0c0-2.6,0-5.2,0-7.5c-2.3-0.7-4.3-1-6-1.9c-2.9-1.5-4-4.1-4.1-7.3
				c0-1.2-0.4-2.5-1.1-3.5c-3.7-5.1-1.4-11.7,4.7-13.4c0.9-0.2,1.8-0.9,2.3-1.7c3.8-5.4,10.5-5.4,14.4-0.1c0.6,0.8,1.6,1.5,2.6,1.8
				c5.9,1.7,8.1,8.4,4.4,13.3c-0.5,0.7-1.1,1.6-1.2,2.4c-0.5,7.1-2.2,8.9-9.8,9.9C545.4,47.3,545.4,50,545.4,52.7z M545,41.8
				c5,1.1,8.7-2.1,7.9-6.3c-0.3-1.9,0.4-2.8,1.3-4.2c1-1.7,1.8-4.2,1.2-5.9c-0.6-1.7-2.7-3.4-4.6-4c-1.6-0.5-2.6-0.9-3.3-2.4
				c-1-2.2-2.9-3.2-5.3-3.2c-2.5,0-4.6,1-5.5,3.3c-0.6,1.6-1.5,2-3.1,2.3c-5.2,1-7.1,6.6-3.5,10.2c1.3,1.3,1.6,2.5,1.3,4.2
				c-0.6,3.3,2.1,6.5,5.5,6.8c1.7,0.2,2.5-0.5,1.8-2.1c-0.8-1.8-1.9-3.4-3-5.4c2.7-2.9,3.2,1.5,5,1.8c0.5-1.5-0.8-4.8,3.1-3.5
				c0.1,1.2,0.2,2.3,0.4,3.4c1.7-0.6,2.2-4.6,4.7-1.8C547.4,37.3,546.3,39.5,545,41.8z"/>
			<path class="st1" d="M545,41.8c1.2-2.3,2.4-4.5,3.7-7c-2.5-2.8-3,1.2-4.7,1.8c-0.1-1.1-0.2-2.2-0.4-3.4c-3.9-1.3-2.6,2-3.1,3.5
				c-1.8-0.3-2.3-4.7-5-1.8c1.1,2,2.2,3.6,3,5.4c0.7,1.6-0.1,2.3-1.8,2.1c-3.3-0.3-6-3.5-5.5-6.8c0.3-1.8,0.1-2.9-1.3-4.2
				c-3.6-3.6-1.6-9.2,3.5-10.2c1.5-0.3,2.4-0.7,3.1-2.3c0.9-2.3,3-3.3,5.5-3.3c2.4,0,4.3,1.1,5.3,3.2c0.7,1.6,1.7,1.9,3.3,2.4
				c1.8,0.6,4,2.3,4.6,4c0.6,1.7-0.2,4.3-1.2,5.9c-0.9,1.4-1.6,2.4-1.3,4.2C553.7,39.8,550,43,545,41.8z"/>
		</g>
		<g>
			<path class="st0" d="M528.3,52.4c-1.5,0-2.8,0-4.4,0c0-1.9,0-3.8,0-5.5c-1.7-0.5-3.1-0.7-4.4-1.4c-2.1-1.1-2.9-3-3-5.3
				c0-0.9-0.3-1.8-0.8-2.5c-2.7-3.7-1-8.5,3.4-9.7c0.6-0.2,1.3-0.7,1.7-1.2c2.8-3.9,7.6-3.9,10.4,0c0.4,0.6,1.2,1.1,1.9,1.3
				c4.2,1.2,5.9,6.1,3.2,9.6c-0.4,0.5-0.8,1.1-0.9,1.7c-0.4,5.1-1.6,6.5-7.1,7.2C528.3,48.5,528.3,50.4,528.3,52.4z M528,44.6
				c3.6,0.8,6.3-1.5,5.7-4.6c-0.2-1.3,0.3-2,0.9-3c0.8-1.2,1.3-3.1,0.9-4.3c-0.4-1.2-2-2.5-3.3-2.9c-1.1-0.4-1.9-0.6-2.4-1.8
				c-0.7-1.6-2.1-2.3-3.8-2.3c-1.8,0-3.3,0.7-4,2.4c-0.5,1.2-1.1,1.4-2.2,1.7c-3.7,0.7-5.2,4.7-2.6,7.4c1,1,1.1,1.8,0.9,3.1
				c-0.4,2.4,1.5,4.7,4,4.9c1.2,0.1,1.8-0.4,1.3-1.5c-0.6-1.3-1.4-2.5-2.2-3.9c1.9-2.1,2.3,1.1,3.6,1.3c0.4-1.1-0.6-3.5,2.2-2.5
				c0.1,0.9,0.2,1.7,0.3,2.5c1.2-0.4,1.6-3.3,3.4-1.3C529.7,41.3,528.9,42.9,528,44.6z"/>
			<path class="st1" d="M528,44.6c0.9-1.7,1.7-3.3,2.7-5.1c-1.8-2-2.2,0.8-3.4,1.3c-0.1-0.8-0.2-1.6-0.3-2.5
				c-2.8-0.9-1.9,1.4-2.2,2.5c-1.3-0.2-1.6-3.4-3.6-1.3c0.8,1.4,1.6,2.6,2.2,3.9c0.5,1.2,0,1.7-1.3,1.5c-2.4-0.2-4.4-2.5-4-4.9
				c0.2-1.3,0.1-2.1-0.9-3.1c-2.6-2.6-1.2-6.6,2.6-7.4c1.1-0.2,1.8-0.5,2.2-1.7c0.7-1.7,2.2-2.4,4-2.4c1.7,0,3.1,0.8,3.8,2.3
				c0.5,1.1,1.2,1.4,2.4,1.8c1.3,0.4,2.9,1.7,3.3,2.9c0.4,1.2-0.1,3.1-0.9,4.3c-0.6,1-1.2,1.7-0.9,3C534.3,43,531.6,45.4,528,44.6z"
				/>
		</g>
		<g>
			<path class="st0" d="M364.6,51c0.4-0.2,0.3-0.5,0.3-0.8c-0.3,0-0.5,0-0.8,0c-0.4,0-0.8-0.1-1.1-0.3c-0.1,0-0.1-0.2-0.1-0.2
				c0.2-0.5,0.1-1.1,0.1-1.6c0-0.4-0.1-0.9-0.1-1.3c0-0.1,0-0.2,0-0.3c-0.2,0-0.4,0-0.7,0c0.6,1.3,0.7,2.5,0,3.8
				c-0.5,0.9-1.2,1.5-2.2,1.8c-1.9,0.5-3.7-0.3-4.5-2c-0.9-1.9-0.1-4,1.6-4.9c0.1,0.2,0.2,0.4,0.3,0.6c-0.4,0.2-0.7,0.6-1,0.9
				c-1,1.5-0.5,3.6,1.1,4.4c1.8,0.9,4-0.2,4.4-2.1c0.3-1.5-0.5-3-1.9-3.5c-0.1,0-0.2-0.1-0.3-0.2c-0.3-0.8-0.7-1.6-1.1-2.4
				c-0.1,0.2-0.2,0.4-0.3,0.5c0,0,0,0.1,0,0.2c0.3,0.6,0.5,1.2,0.8,1.8c0.1,0.3,0.1,0.6-0.1,0.7c-0.2,0.2-0.5,0.2-0.8,0
				c-0.1-0.1-0.2-0.2-0.2-0.3c-0.3-0.7-0.7-1.5-1-2.2c-0.1-0.2-0.1-0.4,0-0.5c0.3-0.5,0.5-1,0.9-1.5c0.5-0.7,1.2-1,2-0.9
				c0.4,0,0.9,0.5,0.9,0.9c0,0.3,0,0.5,0,0.8c0,0.8,0,1.7,0,2.5c0.3,0,0.5,0,0.8,0c0.6,0,1.3,0,1.9,0c0.4,0,0.7,0.3,0.7,0.7
				c0.1,0.7,0.2,1.4,0.2,2.1c0,0.4,0.1,0.9,0.1,1.3c0,0.2,0,0.4,0,0.6c0.3,0,0.5,0,0.9,0c0,0.5,0.1,1-0.2,1.5
				c-0.1,0.2-0.3,0.3-0.5,0.4c-0.1,0-0.2,0.1-0.2,0.2c-0.2,0.4-0.6,0.5-1,0.4c-0.4-0.1-0.6-0.5-0.6-0.9c0.1-0.4,0.4-0.7,0.8-0.7
				C364.1,50.4,364.4,50.6,364.6,51z M363.8,51c-0.2,0-0.3,0.1-0.3,0.3c0,0.2,0.1,0.3,0.3,0.3c0.2,0,0.3-0.1,0.3-0.3
				C364.1,51.1,364,51,363.8,51z"/>
			<path class="st0" d="M359.4,46.4c0.1-0.2,0.2-0.3,0.2-0.5c0.8,0.2,1.6,1.1,1.7,2.1c0.1,1.2-0.6,2.1-1.4,2.5
				c-1.5,0.8-3.4-0.2-3.6-1.9c-0.2-1,0.2-1.8,1.1-2.5c0.1-0.1,0.1-0.1,0.2,0c0.1,0.1,0.2,0.2,0.3,0.3c-0.9,0.6-1.2,1.5-0.9,2.3
				c0.2,0.7,1,1.5,2.1,1.4c0.8-0.1,1.5-0.6,1.7-1.4C361,47.9,360.6,46.9,359.4,46.4z"/>
			<path class="st0" d="M361.3,40.5c-0.9,0.1-2-0.7-2-2c0-1.1,1-1.9,1.9-2c1.1,0,2,0.9,2.1,1.9C363.4,39.6,362.4,40.6,361.3,40.5z"
				/>
		</g>
	</g>
	<rect x="0" y="51.9" class="st0" width="782.7" height="3.1"/>
</g>
</svg>
