<?xml version="1.0" encoding="utf-8"?>
<!-- Generator: Adobe Illustrator 19.1.0, SVG Export Plug-In . SVG Version: 6.00 Build 0)  -->
<svg version="1.1" id="Layer_1" xmlns="http://www.w3.org/2000/svg" xmlns:xlink="http://www.w3.org/1999/xlink" x="0px" y="0px"
	 viewBox="0 0 783 41" style="enable-background:new 0 0 783 41;" xml:space="preserve">
<style type="text/css">
	.st0{fill:#82BC00;}
	.st1{fill:#E3EEC5;}
</style>
<g>
	<g>
		<g>
			<path class="st0" d="M406.2,32.3c0,0.5-0.1,0.9-0.1,1.4c0,0.2-0.1,0.4-0.1,0.6c-0.4,1-0.8,2-1.1,2.9c-0.1,0.4-0.4,0.6-0.8,0.7
				c-0.7,0.1-1.3-0.5-1-1.2c0.2-0.5,0.4-1.1,0.6-1.6c0.5-1.1,0.7-2.2,0.7-3.4c0-0.2,0-0.3,0-0.5c0-0.3,0-0.6-0.1-0.9
				c-0.1-0.2-0.1-0.6-0.1-0.8c0.2-0.9,0.4-1.7,0.5-2.6c0,0-0.1,0-0.1-0.1c-0.4,0.5-0.9,0.9-1.3,1.4c-0.2,0.2-0.3,0.4-0.5,0.5
				c-0.3,0.3-0.7,0.3-1,0.1c-0.3-0.2-0.4-0.7-0.1-1c1.1-1.3,2.2-2.6,3.9-3.2c1.2-0.5,1.9-0.3,2.7,0.7c0.7,0.8,1.4,1.6,2.2,2.4
				c0.3,0.3,0.7,0.5,1,0.8c0.3,0.2,0.5,0.5,0.4,0.9c0,0.1,0.1,0.2,0.2,0.3c1.2,1.2,2.4,2.5,3.7,3.7c0,0,0.1,0.1,0.1,0.1
				c-0.1,0.1-0.2,0.2-0.3,0.3c-0.4-0.4-0.8-0.7-1.1-1.1c-0.9-0.9-1.8-1.8-2.7-2.8c-0.1-0.1-0.2-0.2-0.4-0.1c-0.2,0-0.5,0-0.7-0.2
				c-0.9-0.6-1.7-1.2-2.3-2c0-0.1-0.1-0.1-0.1-0.2c0,0-0.1,0-0.1,0.1c-0.2,0.9-0.3,1.7-0.6,2.6c-0.1,0.4,0,0.8,0.2,1.1
				c1,1.3,1.6,2.8,1.9,4.4c0.1,0.4,0.2,0.7,0.3,1.1c0.1,0.6-0.1,1-0.6,1.2c-0.5,0.1-1-0.1-1.2-0.7c-0.3-0.9-0.5-1.7-0.7-2.6
				C407.4,33.7,406.7,33,406.2,32.3C406.3,32.3,406.3,32.3,406.2,32.3z"/>
			<path class="st0" d="M416.7,36.2c-0.7,0-1.4,0-2.1,0c0.2,0.3,0.3,0.6,0.5,0.9c0.1,0.2,0.1,0.4-0.1,0.5c-0.2,0.1-0.4,0-0.5-0.2
				c-0.2-0.3-0.4-0.7-0.6-1.1c-0.2,0.4-0.4,0.7-0.5,1c-0.1,0.2-0.3,0.4-0.5,0.3c-0.3-0.1-0.2-0.4-0.1-0.6c0-0.1,0.1-0.1,0.1-0.2
				c0.5-0.6,0.4-1.4,0.4-2.1c0-0.1-0.1-0.2-0.2-0.3c-0.2-0.1-0.4-0.3-0.5-0.4c-0.1-0.1-0.1-0.3,0-0.4c0-0.1,0.3,0,0.4-0.1
				c0,0,0,0,0.1,0c0.4,0.5,1,0.6,1.6,0.5c1-0.2,1.7,0.4,2.5,0.9c0.1,0,0.1,0.2,0.1,0.2c0,0.7,0,1.4,0,2.1c0,0.2-0.1,0.4-0.3,0.4
				c-0.3,0-0.4-0.2-0.3-0.4C416.7,36.9,416.7,36.6,416.7,36.2z"/>
			<path class="st0" d="M407.9,20.8c1,0,1.9,0.8,1.9,1.9c0,1-0.9,1.9-1.9,1.9c-1,0-1.9-0.9-1.9-1.9
				C406.1,21.6,406.9,20.8,407.9,20.8z"/>
			<path class="st0" d="M417.4,34.7c-0.5-0.3-1-0.6-1.5-0.8c0.2-0.3,0.4-0.6,0.6-0.9c0.2-0.3,0.3-0.6,0.5-0.9
				c0.1-0.1,0.2-0.2,0.3-0.2c0.1,0,0.3,0.2,0.3,0.3c0,0.7,0.5,1,1,1.4c0.2,0.2,0.6,0.2,0.5,0.6c-0.1,0.3-0.4,0.4-0.8,0.4
				c0,0-0.1,0-0.1,0C417.8,34.4,417.6,34.4,417.4,34.7z"/>
		</g>
		<g>
			<path class="st0" d="M563.6,27.3c-2.3-0.3-2.3-0.3-3.3-1.4c5.2-5.2,10.5-10.5,15.7-15.7c5.1,5.2,10.3,10.4,15.6,15.7
				c-0.5,1.1-1.6,1.5-3.1,1.2c0,3.8,0,7.4,0,11.1c-8.3,0-16.5,0-24.8,0C563.6,34.6,563.6,31,563.6,27.3z M577,38.5
				c0-0.4,0-2.7,0-3.1c0-2.5,0-5.1,0-7.6c0-0.6,0.2-0.9,0.8-0.8c1.5,0,3,0,4.6,0c0.5,0,0.6,0.2,0.6,0.7c0,2.4,0,4.8,0,7.2
				c0,0.6,0,3.1,0,3.7c1.3,0,2.4,0,3.5,0c0-3.6,0-9.1,0-12.6c0-0.3-0.3-0.7-0.5-1c-3.1-3.2-6.3-6.3-9.4-9.4
				c-0.2-0.2-0.4-0.4-0.6-0.6c-3.4,3.5-6.9,6.9-10.3,10.3c-0.2,0.2-0.2,0.6-0.3,0.9c0,1.8,0,3.6,0,5.3c0,1.7,0,5.4,0,7.1
				C569.3,38.5,573,38.5,577,38.5z"/>
			<path class="st0" d="M586.9,20c-1.3-1.4-2.8-2.7-4-4.1c-0.4-0.5-0.2-1.4-0.3-2.3c1.5,0,2.9,0,4.2,0c0.1,0,0.4,0.4,0.4,0.6
				c0,1.9,0,3.8,0,5.7C587.1,20,587,20,586.9,20z"/>
			<path class="st1" d="M577,38.5c-3.9,0-7.7,0-11.6,0c0-1.7,0-5.4,0-7.1c0-1.8,0-3.6,0-5.3c0-0.3,0.1-0.7,0.3-0.9
				c3.4-3.4,6.8-6.9,10.3-10.3c0.3,0.2,0.5,0.4,0.6,0.6c3.1,3.1,6.3,6.3,9.4,9.4c0.3,0.3,0.5,0.6,0.5,1c0,3.5,0,9,0,12.6
				c-1.2,0-2.3,0-3.5,0c0-0.5,0-3.1,0-3.7c0-2.4,0-4.8,0-7.2c0-0.5-0.2-0.7-0.6-0.7c-1.5,0-3.1,0-4.6,0c-0.7,0-0.8,0.2-0.8,0.8
				c0,2.5,0,5.1,0,7.6C577,35.8,577,38.1,577,38.5z M568.8,31.6c1.6,0,3.1,0,4.6,0c0-1.4,0-2.7,0-4c0-0.2-0.4-0.5-0.6-0.5
				c-1.1-0.1-2.3,0-3.4,0c-0.5,0-0.6,0.2-0.6,0.7C568.8,28.9,568.8,30.2,568.8,31.6z"/>
			<path class="st0" d="M568.8,31.6c0-1.3,0-2.6,0-3.9c0-0.5,0.1-0.7,0.6-0.7c1.1,0,2.3,0,3.4,0c0.2,0,0.5,0.3,0.6,0.5
				c0,1.3,0,2.6,0,4C571.9,31.6,570.4,31.6,568.8,31.6z"/>
		</g>
		<g>
			<path class="st0" d="M508.2,8.9c2.3,2.3,4.5,4.6,6.8,7.1c0-0.5,0.1-0.9,0.1-1.3c1.5,0,3,0,4.7,0c0,1.3,0.1,2.6,0,3.9
				c-0.2,1.6,0.5,2.8,1.6,3.8c1.1,0.9,2.1,2,3.2,3c-0.7,1-1.4,1.7-2.6,1.5c-0.9-0.2-1.1,0.2-1.1,1.1c0,3.4,0,6.8,0,10.2
				c0,0.1,0,0.2,0,0.4c-12.3,0-24.6,0-37,0c0-3.9,0-7.7,0-11.6c-2.6-0.5-2.6-0.5-3.5-1.6c3.3-3.1,6.7-6.2,10-9.3
				c0.1-0.1,0.1-0.1,0.2-0.2c1.1-1.6,2.7-2,4.6-1.9c2.4,0.1,4.8,0.1,7.1,0c0.4,0,0.8-0.2,1-0.4C505,12.2,506.5,10.6,508.2,8.9z
				 M497,38.8c4.1,0,8.1,0,12.1,0c0-2.7,0-7.3,0-9.9c0-0.7,0.2-0.9,0.9-0.9c1.5,0,3.1,0.1,4.6,0c0.7,0,0.9,0.3,0.9,0.9
				c0,2.2,0,4.3,0,6.5c0,0.4,0,2.9,0,3.3c1.3,0,2.5,0,3.8,0c0-0.3,0-2.6,0-2.9c0-3.3,0-6.6,0-9.9c0-0.5-0.3-1-0.6-1.3
				c-3-3.1-6.1-6.1-9.1-9.1c-0.5-0.5-0.9-1-1.5-1.8c-3.6,3.7-7.1,7.3-10.5,10.9c-0.3,0.3-0.5,0.8-0.5,1.1c0,2.3,0,4.6,0,6.9
				C497,34.1,497,37.4,497,38.8z M495,38.8c0-3.2,0-8.4,0-11.6c-3.1,0-6.2,0-9.3,0c0,3.2,0,8.4,0,11.6
				C488.8,38.8,491.9,38.8,495,38.8z"/>
			<path class="st1" d="M497,38.8c0-1.4,0-4.7,0-6c0-2.3,0-4.6,0-6.9c0-0.4,0.2-0.9,0.5-1.1c3.4-3.6,6.9-7.1,10.5-10.9
				c0.6,0.7,1,1.3,1.5,1.8c3,3,6.1,6.1,9.1,9.1c0.3,0.3,0.6,0.9,0.6,1.3c0,3.3,0,6.6,0,9.9c0,0.3,0,2.5,0,2.9c-1.3,0-2.5,0-3.8,0
				c0-0.5,0-2.9,0-3.3c0-2.2,0-4.3,0-6.5c0-0.7-0.2-1-0.9-0.9c-1.5,0-3.1,0-4.6,0c-0.7,0-0.9,0.2-0.9,0.9c0,2.6,0,7.2,0,9.9
				C505.1,38.8,501.2,38.8,497,38.8z M505.3,34.6c0-1.6,0-3.1,0-4.6c-1.6,0-3.1,0-4.6,0c0,1.6,0,3.1,0,4.6
				C502.3,34.6,503.8,34.6,505.3,34.6z"/>
			<path class="st1" d="M495,38.8c-3.1,0-6.2,0-9.3,0c0-3.2,0-8.4,0-11.6c3.1,0,6.2,0,9.3,0C495,30.5,495,35.6,495,38.8z
				 M488.1,34.6c1.6,0,3.1,0,4.7,0c0-1.6,0-3.1,0-4.6c-1.6,0-3.1,0-4.7,0C488.1,31.5,488.1,33,488.1,34.6z"/>
			<path class="st0" d="M505.3,34.6c-1.5,0-3,0-4.6,0c0-1.5,0-3,0-4.6c1.5,0,3,0,4.6,0C505.3,31.5,505.3,33,505.3,34.6z"/>
			<path class="st0" d="M488.1,34.6c0-1.6,0-3,0-4.6c1.6,0,3.1,0,4.7,0c0,1.5,0,3,0,4.6C491.2,34.6,489.6,34.6,488.1,34.6z"/>
		</g>
		<g>
			<path class="st0" d="M526.1,38.1c0-7.8,0-15.6,0-23.5c-1.1,0-2.1,0-3.4,0c0.2-0.9,0.3-1.6,0.6-2.3c1.5-2.9,3-5.8,4.5-8.7
				c0.3-0.5,0.6-0.7,1.2-0.7c5.2,0,10.4,0,15.6,0c0.5,0,1,0,1.5-0.1c0-1,0-1.9,0-2.9c1.5,0,2.9,0,4.5,0c0,1.5,0,3.1,0,4.6
				c0.1,0,0.2,0,0.3,0c0-0.3,0.1-0.7,0.1-1c0-0.5,0.2-0.7,0.7-0.6c1.8,0,3.5,0,5.3,0.1c0.3,0,0.7,0.3,0.9,0.5c1.6,3,3.2,6.1,4.7,9.2
				c0.3,0.5,0.3,1.1,0.5,1.8c-1.2,0-2.3,0-3.4,0c0,7.9,0,15.7,0,23.5C548.4,38.1,537.3,38.1,526.1,38.1z M557.3,14.7
				c-9.8,0-19.4,0-29.1,0c0,7.1,0,16.2,0,23.3c3.8,0,7.6,0,11.5,0c0-3.1,0-8.2,0-11.2c2.1,0,4.2,0,6.3,0c0,3.1,0,8.2,0,11.3
				c3.8,0,7.6,0,11.4,0C557.3,30.9,557.3,21.8,557.3,14.7z"/>
			<path class="st1" d="M557.3,14.7c0,7.1,0,16.2,0,23.4c-3.8,0-7.6,0-11.4,0c0-3.1,0-8.2,0-11.3c-2.1,0-4.1,0-6.3,0
				c0,3,0,8.1,0,11.2c-3.9,0-7.7,0-11.5,0c0-7.1,0-16.2,0-23.3C537.8,14.7,547.5,14.7,557.3,14.7z M549.4,31.5c1.6,0,3.2,0,4.8,0
				c0-1.6,0-3.2,0-4.7c-1.6,0-3.2,0-4.8,0C549.4,28.3,549.4,29.8,549.4,31.5z M554.2,16.9c-1.5,0-2.9,0-4.3,0
				c-0.2,0-0.5,0.3-0.5,0.4c0,1.4,0,2.9,0,4.3c1.7,0,3.3,0,4.8,0C554.2,20.1,554.2,18.6,554.2,16.9z M540.4,21.7c1.6,0,3.2,0,4.8,0
				c0-1.4,0-2.7,0-4.1c0-0.2-0.4-0.6-0.7-0.6c-1.4-0.1-2.7,0-4.1,0C540.4,18.6,540.4,20.1,540.4,21.7z M536,21.8c0-1.6,0-3.1,0-4.7
				c-1.6,0-3.2,0-4.8,0c0,1.5,0,2.8,0,4.2c0,0.2,0.4,0.5,0.6,0.5C533.2,21.8,534.6,21.8,536,21.8z M536,31.5c0-1.7,0-3.3,0-4.9
				c-1.5,0-2.8,0-4.2,0c-0.2,0-0.5,0.4-0.5,0.6c-0.1,1.2-0.1,2.5,0,3.7c0,0.2,0.4,0.6,0.6,0.6C533.2,31.6,534.6,31.5,536,31.5z"/>
			<path class="st0" d="M549.4,31.5c0-1.6,0-3.1,0-4.7c1.6,0,3.1,0,4.8,0c0,1.5,0,3.1,0,4.7C552.6,31.5,551,31.5,549.4,31.5z"/>
			<path class="st0" d="M554.2,16.9c0,1.6,0,3.2,0,4.8c-1.6,0-3.1,0-4.8,0c0-1.4,0-2.9,0-4.3c0-0.1,0.3-0.4,0.5-0.4
				C551.3,16.9,552.7,16.9,554.2,16.9z"/>
			<path class="st0" d="M540.4,21.7c0-1.6,0-3.1,0-4.7c1.4,0,2.8,0,4.1,0c0.2,0,0.6,0.4,0.7,0.6c0.1,1.3,0,2.7,0,4.1
				C543.6,21.7,542.1,21.7,540.4,21.7z"/>
			<path class="st0" d="M536,21.8c-1.5,0-2.8,0-4.2,0c-0.2,0-0.6-0.3-0.6-0.5c-0.1-1.4,0-2.8,0-4.2c1.7,0,3.2,0,4.8,0
				C536,18.6,536,20.1,536,21.8z"/>
			<path class="st0" d="M536,31.5c-1.4,0-2.8,0-4.1,0c-0.2,0-0.6-0.4-0.6-0.6c-0.1-1.2-0.1-2.5,0-3.7c0-0.2,0.4-0.5,0.5-0.6
				c1.4,0,2.8,0,4.2,0C536,28.3,536,29.8,536,31.5z"/>
		</g>
		<g>
			<path class="st0" d="M460.2,35.2c0-1.9,0-3.7,0-5.6c0-0.1,0.1-0.3,0.1-0.4c0.2-0.7,0.6-1.1,1.3-1.4c0.3-0.1,0.4-0.2,0.5-0.5
				c0.4-1.2,0.9-2.4,1.4-3.5c0.4-1.1,1.1-1.6,2.4-1.7c2.7,0,5.4,0,8,0c1.2,0,1.9,0.5,2.4,1.7c0.4,1,0.8,2,1.1,3c0.2,0.5,0.3,1,1,1.2
				c0.1,0,0.3,0.2,0.4,0.3c0.3,0.4,0.5,0.8,0.7,1.2c0,1.9,0,3.8,0,5.7c-0.5,0-1,0-1.5,0c0,0.4,0,0.6,0,0.9c0,0.4,0,0.8-0.1,1.2
				c-0.1,0.9-1.1,1.4-1.9,1c-0.7-0.3-0.9-0.8-0.9-1.5c0-0.5,0-1,0-1.5c-3.5,0-6.9,0-10.4,0c0,0.6,0,1.3,0,1.9c0,0.6-0.4,1-1,1.2
				c-0.5,0.2-1,0.1-1.4-0.3c-0.4-0.4-0.5-0.8-0.5-1.4c0-0.5,0-1,0-1.5C461.2,35.2,460.7,35.2,460.2,35.2z M476,27.8
				c-0.4-1.1-0.8-2.2-1.2-3.2c-0.2-0.6-0.4-0.8-1.1-0.8c-2.6,0-5.2,0-7.8,0c-0.7,0-0.9,0.1-1.1,0.8c-0.4,1-0.7,1.9-1.1,2.9
				c0,0.1-0.1,0.2-0.1,0.3C467.8,27.8,471.9,27.8,476,27.8z M463.2,32.1c0.7,0,1.3-0.6,1.3-1.3c0-0.7-0.6-1.4-1.3-1.4
				c-0.7,0-1.3,0.6-1.3,1.3C461.9,31.4,462.5,32.1,463.2,32.1z M477.7,30.7c0-0.7-0.6-1.4-1.3-1.4c-0.7,0-1.3,0.6-1.3,1.4
				c0,0.7,0.6,1.3,1.3,1.3C477.1,32.1,477.7,31.4,477.7,30.7z"/>
			<path class="st1" d="M476,27.8c-4.2,0-8.3,0-12.4,0c0-0.1,0.1-0.2,0.1-0.3c0.4-1,0.7-1.9,1.1-2.9c0.2-0.6,0.4-0.8,1.1-0.8
				c2.6,0,5.2,0,7.8,0c0.7,0,0.9,0.1,1.1,0.8C475.2,25.6,475.6,26.7,476,27.8z"/>
			<path class="st1" d="M463.2,32.1c-0.7,0-1.3-0.6-1.3-1.4c0-0.7,0.6-1.3,1.3-1.3c0.7,0,1.3,0.6,1.3,1.4
				C464.5,31.5,463.9,32.1,463.2,32.1z"/>
			<path class="st1" d="M477.7,30.7c0,0.7-0.6,1.4-1.3,1.4c-0.7,0-1.3-0.6-1.3-1.3c0-0.7,0.6-1.4,1.3-1.4
				C477.1,29.3,477.7,30,477.7,30.7z"/>
		</g>
		<g>
			<path class="st0" d="M695.6,33.9c-0.2,0.6-0.7,0.9-1.3,0.8c-0.6,0-1.2,0-1.8,0c-0.2-1.1-0.7-2-1.7-2.6c-0.7-0.4-1.4-0.6-2.2-0.6
				c-1.4,0.1-3,1.1-3.3,3.1c-2,0-4.1,0-6.1,0c-0.2-1.1-0.7-1.9-1.6-2.5c-0.7-0.4-1.4-0.6-2.2-0.6c-1.4,0.1-3,1.1-3.3,3.1
				c-0.7,0-1.5,0-2.2,0c-0.5,0-0.7-0.4-0.9-0.8c0-0.8,0-1.7,0-2.5c0,0,0,0,0-0.1c0.3-1.4,1.1-2.5,2.3-3.2c0.9-0.5,1.9-0.6,2.9-0.6
				c0.5,0,0.9-0.2,1.3-0.6c1-1.2,2-2.3,2.9-3.5c0.5-0.7,1.2-1,2.1-1c2.2,0,4.5,0,6.7,0c0.2,0,0.3,0,0.5,0c0.4,0.1,0.7,0.2,0.9,0.5
				c0.2,0.2,0.3,0.4,0.5,0.7c0.9,1.1,1.7,2.3,2.6,3.4c0.3,0.4,0.6,0.6,1.1,0.6c0.5,0,1,0,1.6,0c0.6,0,1.1,0.2,1.3,0.8
				C695.6,30.2,695.6,32.1,695.6,33.9z M689.5,27.4c-0.6-0.9-1.3-1.7-1.9-2.6c-0.2-0.2-0.4-0.4-0.7-0.4c-0.8,0-1.6,0-2.5,0
				c0,1,0,2,0,3.1c1.7,0,3.5,0,5.2,0C689.6,27.5,689.6,27.4,689.5,27.4z M682.3,24.7c0-0.1,0-0.2,0-0.2c-0.6,0-1.3,0-1.9,0
				c-0.3,0-0.5,0.2-0.7,0.4c-0.7,0.9-1.4,1.7-2.1,2.6c1.6,0,3.1,0,4.7,0C682.3,26.6,682.3,25.7,682.3,24.7z"/>
			<path class="st1" d="M689.6,27.5c0-0.1-0.1-0.1-0.1-0.1c-0.6-0.9-1.3-1.7-1.9-2.6c-0.2-0.2-0.4-0.4-0.7-0.4c-0.8,0-1.6,0-2.5,0
				c0,1,0,2,0,3.1C686.1,27.5,687.8,27.5,689.6,27.5z"/>
			<path class="st1" d="M682.3,27.5c0-0.9,0-1.9,0-2.8c0-0.1,0-0.2,0-0.2c-0.6,0-1.3,0-1.9,0c-0.3,0-0.5,0.2-0.7,0.4
				c-0.7,0.9-1.4,1.7-2.1,2.6C679.2,27.5,680.7,27.5,682.3,27.5z"/>
			<path class="st0" d="M675.6,37.6c1.3,0,2.4-1,2.4-2.4c0-1.3-1-2.4-2.4-2.4c-1.3,0-2.4,1.1-2.4,2.4
				C673.3,36.5,674.3,37.6,675.6,37.6z"/>
			<path class="st0" d="M689,37.6c1.3,0,2.4-1,2.4-2.4c0-1.3-1.1-2.4-2.4-2.4c-1.3,0-2.4,1.1-2.4,2.4
				C686.6,36.5,687.7,37.6,689,37.6z"/>
		</g>
		<g>
			<path class="st0" d="M628.3,33c-0.4,0-0.8,0-1.3,0c0.6-1.9,1.2-3.8,1.7-5.7c0,0-0.1,0-0.1-0.1c-0.1,0.1-0.2,0.2-0.2,0.3
				c-0.3,0.8-0.5,1.6-0.7,2.4c0,0.1-0.1,0.2-0.1,0.3c-0.1,0.2-0.4,0.3-0.6,0.3s-0.4-0.3-0.4-0.5c0-0.1,0-0.2,0-0.3
				c0.3-1,0.6-2,0.9-3.1c0.2-0.5,0.4-1.1,1.1-1.1c0.9-0.1,1.8-0.1,2.7,0c0.6,0,0.9,0.6,1.1,1.1c0.2,0.8,0.5,1.5,0.7,2.3
				c0.1,0.3,0.2,0.5,0.2,0.8c0.1,0.4,0,0.7-0.4,0.8c-0.3,0.1-0.6-0.1-0.7-0.5c-0.3-0.8-0.5-1.7-0.8-2.5c0-0.1-0.1-0.2-0.2-0.3
				c0,0-0.1,0-0.1,0.1c0.6,1.9,1.1,3.8,1.7,5.7c-0.4,0-0.7,0-1,0c-0.3,0-0.4,0.1-0.4,0.4c0,1.2,0,2.4,0,3.6c0,0.2-0.1,0.4-0.2,0.6
				c-0.1,0.3-0.4,0.3-0.7,0.3c-0.3,0-0.5-0.2-0.6-0.5c0-0.2-0.1-0.3-0.1-0.5c0-1.2,0-2.4,0-3.6c0-0.1-0.1-0.2-0.1-0.3
				c0,0.1-0.1,0.2-0.1,0.3c0,1.2,0,2.4,0,3.6c0,0.1,0,0.3,0,0.4c-0.1,0.3-0.3,0.5-0.7,0.6c-0.3,0-0.6-0.2-0.7-0.5
				c0-0.1-0.1-0.3-0.1-0.5C628.3,35.6,628.3,34.3,628.3,33z"/>
			<path class="st0" d="M624.2,36.2c-0.2-0.2-0.4-0.5-0.6-0.7c-0.8,0.4-1.6,0.2-2.3-0.2c-0.2-0.1-0.8,0.2-0.8,0.5
				c0,0.1,0.1,0.2,0.2,0.2c0.4,0.3,0.6,0.7,0.5,1.1c-0.1,0.4-0.5,0.7-0.9,0.7c-0.4,0-0.8-0.3-1-0.7c-0.1-0.4,0-0.8,0.5-1.1
				c0.1-0.1,0.2-0.2,0.2-0.3c0-0.2,0.1-0.3,0.2-0.5c1.3-1,2.5-2.1,3.8-3.1c0.3-0.2,0.5-0.5,0.8-0.8c0.2-0.2,0.4-0.4,0.6-0.5
				c0.4-0.3,0.9-0.1,1.2,0.3c0.2,0.4,0.1,1-0.3,1.2c-0.1,0-0.2,0-0.2,0c0,0-0.1-0.2,0-0.2c0-0.1,0.2-0.2,0.2-0.3
				c0-0.2,0-0.4-0.1-0.5c-0.1-0.1-0.4-0.1-0.5-0.1c-0.4,0.3-0.7,0.7-1.1,1c0,0,0,0.2,0,0.2c0.1,0.8,0,1.6-0.3,2.4c0,0.1,0,0.2,0,0.3
				c0.1,0.2,0.3,0.3,0.4,0.4c0.2,0.2,0.3,0.3,0.6,0.3c0.4,0,0.7,0.3,0.8,0.8c0.1,0.4-0.1,0.8-0.5,1c-0.4,0.2-0.8,0.2-1.1-0.1
				c-0.3-0.3-0.4-0.7-0.2-1.1C624.1,36.4,624.1,36.3,624.2,36.2z"/>
			<path class="st0" d="M623.6,30.8c0,0.8-0.6,1.4-1.4,1.4c-0.8,0-1.4-0.6-1.4-1.4c0-0.8,0.7-1.5,1.4-1.5
				C623,29.4,623.6,30,623.6,30.8z"/>
			<path class="st0" d="M629.9,21.7c0.9,0,1.7,0.8,1.7,1.7c0,0.9-0.8,1.8-1.8,1.7c-0.9,0-1.7-0.8-1.7-1.7
				C628.2,22.5,629,21.7,629.9,21.7z"/>
			<path class="st0" d="M621.4,33.8c-0.6,0.5-1.1,0.9-1.7,1.4c-0.3,0.2-0.6,0.2-0.8,0c-0.2-0.2-0.1-0.5,0.1-0.7
				c0.3-0.3,0.6-0.5,0.9-0.8C620.5,33.2,620.9,33.3,621.4,33.8z"/>
		</g>
		<g>
			<path class="st0" d="M420.3,28.7c-0.3,0-0.6,0-0.8,0c-1.4,0-2.6-0.5-3.5-1.5c-1.1-1.1-1.6-2.4-1.6-3.9c0-0.3-0.1-0.8-0.3-0.9
				c-2.1-1.2-3.1-2.9-3-5.3c0.1-1.9,1-3.2,2.6-4.2c0.5-0.3,0.8-0.6,0.8-1.2c-0.1-2.2,1.5-4.4,3.5-5.1c0.2-0.1,0.5-0.3,0.5-0.5
				c0.4-1.1,1-2.1,1.9-2.9c2.1-2,5.8-2.1,8-0.5c0.4,0.3,0.6,0.3,1,0.1c1.2-0.8,2.4-1.1,3.9-1.2c3.6,0,6.4,3,6.3,6.6
				c0,0.9,0.3,1.1,0.9,1.4c2.6,1.3,3.9,4.6,3.1,7.4c-0.6,2.1-2.1,3.5-4,4.3c0.8,3.9-2.6,9-8.9,7.1c0,1.7,0,8.8,0,10.4
				c-0.7,0-1.4,0-2,0c0-1.7,0-8.8,0-10.4c-0.8,0.1-1.6,0.1-2.4,0.2c0,3.4,0,6.8,0,10.2c-0.7,0-1.4,0-2.1,0c0-0.3,0-0.6,0-0.8
				c0-3.1,0-6.3,0-9.4c0-0.7-0.4-0.9-0.8-1c-0.4-0.1-0.8,0.5-0.8,1c0,3.1,0,6.3,0,9.4c0,0.3,0,0.5,0,0.8c-0.7,0-1.2,0-2,0
				C420.3,35.6,420.3,32.2,420.3,28.7z M416.6,12.7c0.3,0.9,0,1.5-0.9,1.6c-1.3,0.2-2.1,1.1-2.5,2.2c-0.6,1.6,0.5,3.8,2.3,4.2
				c1.2,0.3,1.4,0.6,1.1,1.8c-0.4,1.4,0.2,2.9,1.6,3.8c1.2,0.7,2.7,0.6,3.8-0.5c1-1,1.3-1,2.3,0c0.9,0.9,2.1,1.2,3.3,0.7
				c1.2-0.5,2-1.3,2.2-2.6c0.1-0.5,0-1-0.1-1.6c-0.2-0.9,0.1-1.4,1-1.6c1.5-0.3,2.6-1.9,2.6-3.3c0-1.3-1.3-2.9-2.6-3.1
				c-1-0.2-1.2-0.7-1-1.7c0.7-2.5-1.2-4.4-3.3-4.3c-0.8,0-1.6,0.4-2.2,1c-0.9,0.9-1.2,0.9-2.2,0c-1.1-1-2.3-1.2-3.6-0.7
				c-1.2,0.5-2,1.7-2.1,3.1C416.4,12.1,416.5,12.4,416.6,12.7z M422.8,7.3c0.2,0.1,0.5,0,0.6-0.1c2.5-1.6,5.9-1,7.6,1.6
				c0.6,0.9,0.9,1.9,0.8,2.9c-0.1,0.6,0.1,0.9,0.7,1.1c2.5,1.2,3.6,4.9,2,7.5c-0.6,0.9-1.3,1.5-2.2,2c-0.2,0.1-0.4,0.5-0.4,0.8
				c-0.2,1-0.4,2.1-0.5,3.3c0.9,0.7,2.5,0.6,3.9-0.2c1.8-1,2.6-3.2,2-5.2c-0.3-0.9-0.1-1.3,0.8-1.6c2.1-0.6,3.5-2.3,3.6-4.2
				c0-2.3-1.4-3.9-3.5-4.5c-0.9-0.2-1.2-0.6-0.9-1.5c0.9-2.7-0.8-5.2-3.4-5.8c-1.5-0.3-2.8,0.2-3.9,1.3c-0.7,0.7-1.3,0.8-2.1,0
				c-1.9-1.9-4.3-1.9-6.2-0.3c-0.1,0.1-0.2,0.1-0.2,0.2c-0.3,0.4-0.6,0.9-0.8,1.3C421.4,6.6,422.1,7,422.8,7.3z"/>
			<path class="st1" d="M416.4,11.7c0.1,0.3,0.1,0.7,0.2,1c0.3,0.9,0,1.5-0.9,1.6c-1.3,0.2-2.1,1.1-2.5,2.2
				c-0.6,1.6,0.5,3.8,2.3,4.2c1.2,0.3,1.4,0.6,1.1,1.8c-0.4,1.4,0.2,2.9,1.6,3.8c1.2,0.7,2.7,0.6,3.8-0.5c1-1,1.3-1,2.3,0
				c0.9,0.9,2.1,1.2,3.3,0.7c1.2-0.5,2-1.3,2.2-2.6c0.1-0.5,0-1-0.1-1.6c-0.2-0.9,0.1-1.4,1-1.6c1.5-0.3,2.6-1.9,2.6-3.3
				c0-1.3-1.3-2.9-2.6-3.1c-1-0.2-1.2-0.7-1-1.7c0.7-2.5-1.2-4.4-3.3-4.3c-0.8,0-1.6,0.4-2.2,1c-0.9,0.9-1.2,0.9-2.2,0
				c-1.1-1-2.3-1.2-3.6-0.7C417.2,9.2,416.4,10.4,416.4,11.7z"/>
			<path class="st1" d="M420.6,6.3c0.8,0.4,1.5,0.8,2.3,1.1c0.2,0.1,0.5,0,0.6-0.1c2.5-1.6,5.9-1,7.6,1.6c0.6,0.9,0.9,1.9,0.8,2.9
				c-0.1,0.6,0.1,0.9,0.7,1.1c2.5,1.2,3.6,4.9,2,7.5c-0.6,0.9-1.3,1.5-2.2,2c-0.2,0.1-0.4,0.5-0.4,0.8c-0.2,1-0.4,2.1-0.5,3.3
				c0.9,0.7,2.5,0.6,3.9-0.2c1.8-1,2.6-3.2,2-5.2c-0.3-0.9-0.1-1.3,0.8-1.6c2.1-0.6,3.5-2.3,3.6-4.2c0-2.3-1.4-3.9-3.5-4.5
				c-0.9-0.2-1.2-0.6-0.9-1.5c0.9-2.7-0.8-5.2-3.4-5.8c-1.5-0.3-2.8,0.2-3.9,1.3c-0.7,0.7-1.3,0.8-2.1,0c-1.9-1.9-4.3-1.9-6.2-0.3
				c-0.1,0.1-0.2,0.1-0.2,0.2C421.1,5.4,420.9,5.8,420.6,6.3z"/>
		</g>
		<g>
			<path class="st0" d="M383.8,33.5c-0.1,0.3-0.2,0.7-0.2,1c0,0.9,0.1,1.8,0.2,2.6c0,0.1,0,0.2,0,0.3c0.1,0.4-0.2,0.8-0.6,0.9
				c-0.4,0.1-0.8-0.2-0.9-0.6c-0.2-0.9-0.3-1.7-0.4-2.6c-0.1-0.8,0-1.5,0.3-2.2c0.1-0.4,0.2-0.7,0.3-1.1c0.1-0.4,0.3-0.8,0-1.2
				c-0.1-0.1-0.1-0.3-0.1-0.4c0-0.7-0.1-1.4-0.1-2.1c0-0.1,0.1-0.2,0.1-0.3c0.4-0.6,0.7-1.3,0.8-2.1c0.1-0.5-0.2-0.8-0.6-0.9
				c-0.4-0.1-0.8,0.1-1,0.5c0,0,0,0.1,0,0.2c-0.1-0.6,0.6-1.2,1.3-1c0.2,0.1,0.5,0.3,0.7,0.5c1,1.5,1.6,3.2,1.7,5
				c0,0.4,0,0.8-0.3,1.1c-0.1,0.1-0.1,0.2-0.1,0.3c0.1,0.5,0.2,1,0.3,1.5c0.1,0.3,0.2,0.7,0.4,1c0.5,0.9,1,1.8,1.4,2.7
				c0.3,0.5,0,1-0.5,1.1c-0.3,0.1-0.6-0.1-0.8-0.4c-0.6-1.1-1.2-2.1-1.7-3.2C384,34,384,33.7,383.8,33.5
				C383.9,33.5,383.8,33.5,383.8,33.5z"/>
			<path class="st0" d="M383.1,22.7c0,1-0.8,1.9-1.9,1.9c-1.1,0-1.9-0.9-1.9-1.9c0-1,0.9-1.9,1.9-1.9
				C382.2,20.9,383.1,21.7,383.1,22.7z"/>
			<path class="st0" d="M379.1,29.6c-0.5,0-0.8-0.3-0.9-0.7c0-0.4,0.2-0.8,0.7-0.8c1.5-0.2,2.4-1,2.8-2.7c0.1-0.4,0.3-0.6,0.7-0.6
				c0.4,0,0.6,0.2,0.7,0.5c0,0.1,0,0.2,0,0.3c-0.1,1.6-1.5,3.3-3.1,3.8C379.8,29.5,379.5,29.6,379.1,29.6z"/>
			<path class="st0" d="M378.2,29.2c0.1,0.1,0.2,0.2,0.2,0.2c0,0,0.1,0.1,0.1,0.1c-0.1,0.4-0.2,0.7-0.2,1c-0.5,2.5-1,5-1.5,7.5
				c0,0.1,0,0.1,0,0.2c-0.1,0.1-0.2,0.1-0.3,0.2c-0.1-0.1-0.2-0.2-0.2-0.3c0.1-0.6,0.2-1.1,0.3-1.6c0.4-2.2,0.8-4.4,1.3-6.5
				C378,29.7,378.1,29.5,378.2,29.2z"/>
			<path class="st0" d="M379.2,29.7c0.1,0,0.3,0,0.5-0.1c0,0.2,0,0.4-0.1,0.6c-0.1,0.2-0.3,0-0.4-0.2
				C379.2,29.9,379.2,29.8,379.2,29.7z"/>
		</g>
		<g>
			<polygon class="st0" points="591.5,38.3 591.5,31.5 590.6,30.1 589.8,31.5 589.8,38.3 			"/>
			<polygon class="st0" points="594.5,38.3 594.5,31.5 593.6,30.1 592.7,31.5 592.7,38.3 			"/>
			<polygon class="st0" points="597.4,38.3 597.4,31.5 596.5,30.1 595.7,31.5 595.7,38.3 			"/>
			<polygon class="st0" points="600.4,38.3 600.4,31.5 599.5,30.1 598.6,31.5 598.6,38.3 			"/>
			<rect x="589.3" y="32.4" class="st0" width="11.7" height="1"/>
			<rect x="589.3" y="36" class="st0" width="11.7" height="1"/>
		</g>
	</g>
	<rect x="0" y="37.7" class="st0" width="782.7" height="3.1"/>
</g>
</svg>
