<?xml version="1.0" encoding="utf-8"?>
<!-- Generator: Adobe Illustrator 19.1.0, SVG Export Plug-In . SVG Version: 6.00 Build 0)  -->
<svg version="1.1" id="Layer_1" xmlns="http://www.w3.org/2000/svg" xmlns:xlink="http://www.w3.org/1999/xlink" x="0px" y="0px"
	 viewBox="0 0 783 41" style="enable-background:new 0 0 783 41;" xml:space="preserve">
<style type="text/css">
	.st0{fill:#0075C9;}
	.st1{fill:#C2DAF1;}
</style>
<g>
	<g>
		<g>
			<path class="st0" d="M405.9,32.4c0,0.5-0.1,0.9-0.1,1.4c0,0.2-0.1,0.4-0.1,0.6c-0.4,1-0.8,2-1.1,2.9c-0.1,0.4-0.4,0.6-0.8,0.7
				c-0.7,0.1-1.3-0.5-1-1.2c0.2-0.5,0.4-1.1,0.6-1.6c0.5-1.1,0.7-2.2,0.7-3.4c0-0.2,0-0.3,0-0.5c0-0.3,0-0.6-0.1-0.9
				c-0.1-0.2-0.1-0.6-0.1-0.8c0.2-0.9,0.4-1.7,0.5-2.6c0,0-0.1,0-0.1-0.1c-0.4,0.5-0.9,0.9-1.3,1.4c-0.2,0.2-0.3,0.4-0.5,0.5
				c-0.3,0.3-0.7,0.3-1,0.1c-0.3-0.2-0.4-0.7-0.1-1c1.1-1.3,2.2-2.6,3.9-3.2c1.2-0.5,1.9-0.3,2.7,0.7c0.7,0.8,1.4,1.6,2.2,2.4
				c0.3,0.3,0.7,0.5,1,0.8c0.3,0.2,0.5,0.5,0.4,0.9c0,0.1,0.1,0.2,0.2,0.3c1.2,1.2,2.4,2.5,3.7,3.7l0.1,0.1
				c-0.1,0.1-0.2,0.2-0.3,0.3c-0.4-0.4-0.8-0.7-1.1-1.1c-0.9-0.9-1.8-1.8-2.7-2.8c-0.1-0.1-0.2-0.2-0.4-0.1c-0.2,0-0.5,0-0.7-0.2
				c-0.9-0.6-1.7-1.2-2.3-2c0-0.1-0.1-0.1-0.1-0.2c0,0-0.1,0-0.1,0.1c-0.2,0.9-0.3,1.7-0.6,2.6c-0.1,0.4,0,0.8,0.2,1.1
				c1,1.3,1.6,2.8,1.9,4.4c0.1,0.4,0.2,0.7,0.3,1.1c0.1,0.6-0.1,1-0.6,1.2c-0.5,0.1-1-0.1-1.2-0.7c-0.3-0.9-0.5-1.7-0.7-2.6
				C407.1,33.8,406.4,33.1,405.9,32.4C406,32.4,406,32.4,405.9,32.4z"/>
			<path class="st0" d="M416.5,36.3c-0.7,0-1.4,0-2.1,0c0.2,0.3,0.3,0.6,0.5,0.9c0.1,0.2,0.1,0.4-0.1,0.5s-0.4,0-0.5-0.2
				c-0.2-0.3-0.4-0.7-0.6-1.1c-0.2,0.4-0.4,0.7-0.5,1c-0.1,0.2-0.3,0.4-0.5,0.3c-0.3-0.1-0.2-0.4-0.1-0.6c0-0.1,0.1-0.1,0.1-0.2
				c0.5-0.6,0.4-1.4,0.4-2.1c0-0.1-0.1-0.2-0.2-0.3c-0.2-0.1-0.4-0.3-0.5-0.4c-0.1-0.1-0.1-0.3,0-0.4c0-0.1,0.3,0,0.4-0.1
				c0,0,0,0,0.1,0c0.4,0.5,1,0.6,1.6,0.5c1-0.2,1.7,0.4,2.5,0.9c0.1,0,0.1,0.2,0.1,0.2c0,0.7,0,1.4,0,2.1c0,0.2-0.1,0.4-0.3,0.4
				c-0.3,0-0.4-0.2-0.3-0.4C416.5,37,416.5,36.7,416.5,36.3z"/>
			<path class="st0" d="M407.6,20.9c1,0,1.9,0.8,1.9,1.9c0,1-0.9,1.9-1.9,1.9s-1.9-0.9-1.9-1.9C405.8,21.7,406.6,20.9,407.6,20.9z"
				/>
			<path class="st0" d="M417.2,34.8c-0.5-0.3-1-0.6-1.5-0.8c0.2-0.3,0.4-0.6,0.6-0.9c0.2-0.3,0.3-0.6,0.5-0.9
				c0.1-0.1,0.2-0.2,0.3-0.2c0.1,0,0.3,0.2,0.3,0.3c0,0.7,0.5,1,1,1.4c0.2,0.2,0.6,0.2,0.5,0.6c-0.1,0.3-0.4,0.4-0.8,0.4H418
				C417.6,34.5,417.4,34.5,417.2,34.8z"/>
		</g>
		<g>
			<path class="st0" d="M564.2,27.4c-2.3-0.3-2.3-0.3-3.3-1.4c5.2-5.2,10.6-10.5,15.8-15.7c5.1,5.2,10.4,10.4,15.7,15.7
				c-0.5,1.1-1.6,1.5-3.1,1.2c0,3.8,0,7.4,0,11.1c-8.3,0-16.6,0-24.9,0C564.2,34.7,564.2,31.1,564.2,27.4z M577.7,38.6
				c0-0.4,0-2.7,0-3.1c0-2.5,0-5.1,0-7.6c0-0.6,0.2-0.9,0.8-0.8c1.5,0,3,0,4.6,0c0.5,0,0.6,0.2,0.6,0.7c0,2.4,0,4.8,0,7.2
				c0,0.6,0,3.1,0,3.7c1.3,0,2.4,0,3.5,0c0-3.6,0-9.1,0-12.6c0-0.3-0.3-0.7-0.5-1c-3.1-3.2-6.3-6.3-9.5-9.4
				c-0.2-0.2-0.4-0.4-0.6-0.6c-3.4,3.5-6.9,6.9-10.4,10.3c-0.2,0.2-0.2,0.6-0.3,0.9c0,1.8,0,3.6,0,5.3c0,1.7,0,5.4,0,7.1
				C569.9,38.6,573.6,38.6,577.7,38.6z"/>
			<path class="st0" d="M587.6,20.1c-1.3-1.4-2.8-2.7-4-4.1c-0.4-0.5-0.2-1.4-0.3-2.3c1.5,0,2.9,0,4.2,0c0.1,0,0.4,0.4,0.4,0.6
				c0,1.9,0,3.8,0,5.7C587.8,20.1,587.7,20.1,587.6,20.1z"/>
			<path class="st1" d="M577.7,38.6c-3.9,0-7.7,0-11.7,0c0-1.7,0-5.4,0-7.1c0-1.8,0-3.6,0-5.3c0-0.3,0.1-0.7,0.3-0.9
				c3.4-3.4,6.8-6.9,10.4-10.3c0.3,0.2,0.5,0.4,0.6,0.6c3.1,3.1,6.3,6.3,9.5,9.4c0.3,0.3,0.5,0.6,0.5,1c0,3.5,0,9,0,12.6
				c-1.2,0-2.3,0-3.5,0c0-0.5,0-3.1,0-3.7c0-2.4,0-4.8,0-7.2c0-0.5-0.2-0.7-0.6-0.7c-1.5,0-3.1,0-4.6,0c-0.7,0-0.8,0.2-0.8,0.8
				c0,2.5,0,5.1,0,7.6C577.7,35.9,577.7,38.2,577.7,38.6z M569.4,31.7c1.6,0,3.1,0,4.6,0c0-1.4,0-2.7,0-4c0-0.2-0.4-0.5-0.6-0.5
				c-1.1-0.1-2.3,0-3.4,0c-0.5,0-0.6,0.2-0.6,0.7C569.4,29,569.4,30.3,569.4,31.7z"/>
			<path class="st0" d="M569.4,31.7c0-1.3,0-2.6,0-3.9c0-0.5,0.1-0.7,0.6-0.7c1.1,0,2.3,0,3.4,0c0.2,0,0.5,0.3,0.6,0.5
				c0,1.3,0,2.6,0,4C572.5,31.7,571,31.7,569.4,31.7z"/>
		</g>
		<g>
			<path class="st0" d="M508.5,9c2.3,2.3,4.5,4.6,6.8,7.1c0-0.5,0.1-0.9,0.1-1.3c1.5,0,3,0,4.7,0c0,1.3,0.1,2.6,0,3.9
				c-0.2,1.6,0.5,2.8,1.6,3.8c1.1,0.9,2.1,2,3.2,3c-0.7,1-1.4,1.7-2.6,1.5c-0.9-0.2-1.1,0.2-1.1,1.1c0,3.4,0,6.8,0,10.2
				c0,0.1,0,0.2,0,0.4c-12.4,0-24.7,0-37.2,0c0-3.9,0-7.7,0-11.6c-2.6-0.5-2.6-0.5-3.5-1.6c3.3-3.1,6.7-6.2,10.1-9.3
				c0.1-0.1,0.1-0.1,0.2-0.2c1.1-1.6,2.7-2,4.6-1.9c2.4,0.1,4.8,0.1,7.1,0c0.4,0,0.8-0.2,1-0.4C505.3,12.3,506.8,10.7,508.5,9z
				 M497.2,38.9c4.1,0,8.1,0,12.2,0c0-2.7,0-7.3,0-9.9c0-0.7,0.2-0.9,0.9-0.9c1.5,0,3.1,0.1,4.6,0c0.7,0,0.9,0.3,0.9,0.9
				c0,2.2,0,4.3,0,6.5c0,0.4,0,2.9,0,3.3c1.3,0,2.5,0,3.8,0c0-0.3,0-2.6,0-2.9c0-3.3,0-6.6,0-9.9c0-0.5-0.3-1-0.6-1.3
				c-3-3.1-6.1-6.1-9.1-9.1c-0.5-0.5-0.9-1-1.5-1.8c-3.6,3.7-7.1,7.3-10.6,10.9c-0.3,0.3-0.5,0.8-0.5,1.1c0,2.3,0,4.6,0,6.9
				C497.2,34.2,497.2,37.5,497.2,38.9z M495.2,38.9c0-3.2,0-8.4,0-11.6c-3.1,0-6.2,0-9.4,0c0,3.2,0,8.4,0,11.6
				C489,38.9,492.1,38.9,495.2,38.9z"/>
			<path class="st1" d="M497.2,38.9c0-1.4,0-4.7,0-6c0-2.3,0-4.6,0-6.9c0-0.4,0.2-0.9,0.5-1.1c3.4-3.6,6.9-7.1,10.6-10.9
				c0.6,0.7,1,1.3,1.5,1.8c3,3,6.1,6.1,9.1,9.1c0.3,0.3,0.6,0.9,0.6,1.3c0,3.3,0,6.6,0,9.9c0,0.3,0,2.5,0,2.9c-1.3,0-2.5,0-3.8,0
				c0-0.5,0-2.9,0-3.3c0-2.2,0-4.3,0-6.5c0-0.7-0.2-1-0.9-0.9c-1.5,0-3.1,0-4.6,0c-0.7,0-0.9,0.2-0.9,0.9c0,2.6,0,7.2,0,9.9
				C505.4,38.9,501.5,38.9,497.2,38.9z M505.6,34.7c0-1.6,0-3.1,0-4.6c-1.6,0-3.1,0-4.6,0c0,1.6,0,3.1,0,4.6
				C502.6,34.7,504.1,34.7,505.6,34.7z"/>
			<path class="st1" d="M495.2,38.9c-3.1,0-6.2,0-9.4,0c0-3.2,0-8.4,0-11.6c3.1,0,6.2,0,9.4,0C495.2,30.6,495.2,35.7,495.2,38.9z
				 M488.3,34.7c1.6,0,3.1,0,4.7,0c0-1.6,0-3.1,0-4.6c-1.6,0-3.1,0-4.7,0C488.3,31.6,488.3,33.1,488.3,34.7z"/>
			<path class="st0" d="M505.6,34.7c-1.5,0-3,0-4.6,0c0-1.5,0-3,0-4.6c1.5,0,3,0,4.6,0C505.6,31.6,505.6,33.1,505.6,34.7z"/>
			<path class="st0" d="M488.3,34.7c0-1.6,0-3,0-4.6c1.6,0,3.1,0,4.7,0c0,1.5,0,3,0,4.6C491.4,34.7,489.8,34.7,488.3,34.7z"/>
		</g>
		<g>
			<path class="st0" d="M526.5,38.2c0-7.8,0-15.6,0-23.5c-1.1,0-2.1,0-3.4,0c0.2-0.9,0.3-1.6,0.6-2.3c1.5-2.9,3-5.8,4.5-8.7
				c0.3-0.5,0.6-0.7,1.2-0.7c5.2,0,10.5,0,15.7,0c0.5,0,1,0,1.5-0.1c0-1,0-1.9,0-2.9c1.5,0,2.9,0,4.5,0c0,1.5,0,3.1,0,4.6
				c0.1,0,0.2,0,0.3,0c0-0.3,0.1-0.7,0.1-1c0-0.5,0.2-0.7,0.7-0.6c1.8,0,3.5,0,5.3,0.1c0.3,0,0.7,0.3,0.9,0.5c1.6,3,3.2,6.1,4.7,9.2
				c0.3,0.5,0.3,1.1,0.5,1.8c-1.2,0-2.3,0-3.4,0c0,7.9,0,15.7,0,23.5C548.9,38.2,537.8,38.2,526.5,38.2z M557.9,14.8
				c-9.9,0-19.5,0-29.3,0c0,7.1,0,16.2,0,23.3c3.8,0,7.6,0,11.6,0c0-3.1,0-8.2,0-11.2c2.1,0,4.2,0,6.3,0c0,3.1,0,8.2,0,11.3
				c3.8,0,7.6,0,11.5,0C557.9,31,557.9,21.9,557.9,14.8z"/>
			<path class="st1" d="M557.9,14.8c0,7.1,0,16.2,0,23.4c-3.8,0-7.6,0-11.5,0c0-3.1,0-8.2,0-11.3c-2.1,0-4.1,0-6.3,0
				c0,3,0,8.1,0,11.2c-3.9,0-7.7,0-11.6,0c0-7.1,0-16.2,0-23.3C538.3,14.8,548,14.8,557.9,14.8z M549.9,31.6c1.6,0,3.2,0,4.8,0
				c0-1.6,0-3.2,0-4.7c-1.6,0-3.2,0-4.8,0C549.9,28.4,549.9,29.9,549.9,31.6z M554.7,17c-1.5,0-2.9,0-4.3,0c-0.2,0-0.5,0.3-0.5,0.4
				c0,1.4,0,2.9,0,4.3c1.7,0,3.3,0,4.8,0C554.7,20.2,554.7,18.7,554.7,17z M540.9,21.8c1.6,0,3.2,0,4.8,0c0-1.4,0-2.7,0-4.1
				c0-0.2-0.4-0.6-0.7-0.6c-1.4-0.1-2.7,0-4.1,0C540.9,18.7,540.9,20.2,540.9,21.8z M536.4,21.9c0-1.6,0-3.1,0-4.7
				c-1.6,0-3.2,0-4.8,0c0,1.5,0,2.8,0,4.2c0,0.2,0.4,0.5,0.6,0.5C533.6,21.9,535,21.9,536.4,21.9z M536.4,31.6c0-1.7,0-3.3,0-4.9
				c-1.5,0-2.8,0-4.2,0c-0.2,0-0.5,0.4-0.5,0.6c-0.1,1.2-0.1,2.5,0,3.7c0,0.2,0.4,0.6,0.6,0.6C533.6,31.7,535,31.6,536.4,31.6z"/>
			<path class="st0" d="M549.9,31.6c0-1.6,0-3.1,0-4.7c1.6,0,3.1,0,4.8,0c0,1.5,0,3.1,0,4.7C553.1,31.6,551.5,31.6,549.9,31.6z"/>
			<path class="st0" d="M554.7,17c0,1.6,0,3.2,0,4.8c-1.6,0-3.1,0-4.8,0c0-1.4,0-2.9,0-4.3c0-0.1,0.3-0.4,0.5-0.4
				C551.8,17,553.2,17,554.7,17z"/>
			<path class="st0" d="M540.9,21.8c0-1.6,0-3.1,0-4.7c1.4,0,2.8,0,4.1,0c0.2,0,0.6,0.4,0.7,0.6c0.1,1.3,0,2.7,0,4.1
				C544.1,21.8,542.6,21.8,540.9,21.8z"/>
			<path class="st0" d="M536.4,21.9c-1.5,0-2.8,0-4.2,0c-0.2,0-0.6-0.3-0.6-0.5c-0.1-1.4,0-2.8,0-4.2c1.7,0,3.2,0,4.8,0
				C536.4,18.7,536.4,20.2,536.4,21.9z"/>
			<path class="st0" d="M536.4,31.6c-1.4,0-2.8,0-4.1,0c-0.2,0-0.6-0.4-0.6-0.6c-0.1-1.2-0.1-2.5,0-3.7c0-0.2,0.4-0.5,0.5-0.6
				c1.4,0,2.8,0,4.2,0C536.4,28.4,536.4,29.9,536.4,31.6z"/>
		</g>
		<g>
			<path class="st0" d="M460.2,35.3c0-1.9,0-3.7,0-5.6c0-0.1,0.1-0.3,0.1-0.4c0.2-0.7,0.6-1.1,1.3-1.4c0.3-0.1,0.4-0.2,0.5-0.5
				c0.4-1.2,0.9-2.4,1.4-3.5c0.4-1.1,1.1-1.6,2.4-1.7c2.7,0,5.4,0,8,0c1.2,0,1.9,0.5,2.4,1.7c0.4,1,0.8,2,1.1,3c0.2,0.5,0.3,1,1,1.2
				c0.1,0,0.3,0.2,0.4,0.3c0.3,0.4,0.5,0.8,0.7,1.2c0,1.9,0,3.8,0,5.7c-0.5,0-1,0-1.5,0c0,0.4,0,0.6,0,0.9c0,0.4,0,0.8-0.1,1.2
				c-0.1,0.9-1.1,1.4-1.9,1c-0.7-0.3-0.9-0.8-0.9-1.5c0-0.5,0-1,0-1.5c-3.5,0-6.9,0-10.5,0c0,0.6,0,1.3,0,1.9c0,0.6-0.4,1-1,1.2
				c-0.5,0.2-1,0.1-1.4-0.3c-0.4-0.4-0.5-0.8-0.5-1.4c0-0.5,0-1,0-1.5C461.2,35.3,460.7,35.3,460.2,35.3z M476.1,27.9
				c-0.4-1.1-0.8-2.2-1.2-3.2c-0.2-0.6-0.4-0.8-1.1-0.8c-2.6,0-5.2,0-7.8,0c-0.7,0-0.9,0.1-1.1,0.8c-0.4,1-0.7,1.9-1.1,2.9
				c0,0.1-0.1,0.2-0.1,0.3C467.9,27.9,472,27.9,476.1,27.9z M463.2,32.2c0.7,0,1.3-0.6,1.3-1.3c0-0.7-0.6-1.4-1.3-1.4
				c-0.7,0-1.3,0.6-1.3,1.3C461.9,31.5,462.5,32.2,463.2,32.2z M477.8,30.8c0-0.7-0.6-1.4-1.3-1.4c-0.7,0-1.3,0.6-1.3,1.4
				c0,0.7,0.6,1.3,1.3,1.3C477.2,32.2,477.8,31.5,477.8,30.8z"/>
			<path class="st1" d="M476.1,27.9c-4.2,0-8.3,0-12.5,0c0-0.1,0.1-0.2,0.1-0.3c0.4-1,0.7-1.9,1.1-2.9c0.2-0.6,0.4-0.8,1.1-0.8
				c2.6,0,5.2,0,7.8,0c0.7,0,0.9,0.1,1.1,0.8C475.3,25.7,475.7,26.8,476.1,27.9z"/>
			<path class="st1" d="M463.2,32.2c-0.7,0-1.3-0.6-1.3-1.4c0-0.7,0.6-1.3,1.3-1.3c0.7,0,1.3,0.6,1.3,1.4
				C464.6,31.6,463.9,32.2,463.2,32.2z"/>
			<path class="st1" d="M477.8,30.8c0,0.7-0.6,1.4-1.3,1.4c-0.7,0-1.3-0.6-1.3-1.3c0-0.7,0.6-1.4,1.3-1.4
				C477.2,29.4,477.8,30.1,477.8,30.8z"/>
		</g>
		<g>
			<path class="st0" d="M696.9,34c-0.2,0.6-0.7,0.9-1.3,0.8c-0.6,0-1.2,0-1.8,0c-0.2-1.1-0.7-2-1.7-2.6c-0.7-0.4-1.4-0.6-2.2-0.6
				c-1.4,0.1-3,1.1-3.3,3.1c-2,0-4.1,0-6.1,0c-0.2-1.1-0.7-1.9-1.6-2.5c-0.7-0.4-1.4-0.6-2.2-0.6c-1.4,0.1-3,1.1-3.3,3.1
				c-0.7,0-1.5,0-2.2,0c-0.5,0-0.7-0.4-0.9-0.8c0-0.8,0-1.7,0-2.5c0,0,0,0,0-0.1c0.3-1.4,1.1-2.5,2.3-3.2c0.9-0.5,1.9-0.6,2.9-0.6
				c0.5,0,0.9-0.2,1.3-0.6c1-1.2,2-2.3,2.9-3.5c0.5-0.7,1.2-1,2.1-1c2.2,0,4.5,0,6.7,0c0.2,0,0.3,0,0.5,0c0.4,0.1,0.7,0.2,0.9,0.5
				c0.2,0.2,0.3,0.4,0.5,0.7c0.9,1.1,1.7,2.3,2.6,3.4c0.3,0.4,0.6,0.6,1.1,0.6s1,0,1.6,0s1.1,0.2,1.3,0.8
				C696.9,30.3,696.9,32.2,696.9,34z M690.8,27.5c-0.6-0.9-1.3-1.7-1.9-2.6c-0.2-0.2-0.4-0.4-0.7-0.4c-0.8,0-1.6,0-2.5,0
				c0,1,0,2,0,3.1c1.7,0,3.5,0,5.2,0C690.9,27.6,690.9,27.5,690.8,27.5z M683.5,24.8c0-0.1,0-0.2,0-0.2c-0.6,0-1.3,0-1.9,0
				c-0.3,0-0.5,0.2-0.7,0.4c-0.7,0.9-1.4,1.7-2.1,2.6c1.6,0,3.1,0,4.7,0C683.5,26.7,683.5,25.8,683.5,24.8z"/>
			<path class="st1" d="M690.9,27.6c0-0.1-0.1-0.1-0.1-0.1c-0.6-0.9-1.3-1.7-1.9-2.6c-0.2-0.2-0.4-0.4-0.7-0.4c-0.8,0-1.6,0-2.5,0
				c0,1,0,2,0,3.1C687.4,27.6,689.1,27.6,690.9,27.6z"/>
			<path class="st1" d="M683.5,27.6c0-0.9,0-1.9,0-2.8c0-0.1,0-0.2,0-0.2c-0.6,0-1.3,0-1.9,0c-0.3,0-0.5,0.2-0.7,0.4
				c-0.7,0.9-1.4,1.7-2.1,2.6C680.4,27.6,681.9,27.6,683.5,27.6z"/>
			<path class="st0" d="M676.8,37.7c1.3,0,2.4-1,2.4-2.4c0-1.3-1-2.4-2.4-2.4c-1.3,0-2.4,1.1-2.4,2.4
				C674.5,36.6,675.5,37.7,676.8,37.7z"/>
			<path class="st0" d="M690.3,37.7c1.3,0,2.4-1,2.4-2.4c0-1.3-1.1-2.4-2.4-2.4c-1.3,0-2.4,1.1-2.4,2.4S689,37.7,690.3,37.7z"/>
		</g>
		<g>
			<path class="st0" d="M629.3,33.1c-0.4,0-0.8,0-1.3,0c0.6-1.9,1.2-3.8,1.7-5.7c0,0-0.1,0-0.1-0.1c-0.1,0.1-0.2,0.2-0.2,0.3
				c-0.3,0.8-0.5,1.6-0.7,2.4c0,0.1-0.1,0.2-0.1,0.3c-0.1,0.2-0.4,0.3-0.6,0.3s-0.4-0.3-0.4-0.5c0-0.1,0-0.2,0-0.3
				c0.3-1,0.6-2,0.9-3.1c0.2-0.5,0.4-1.1,1.1-1.1c0.9-0.1,1.8-0.1,2.7,0c0.6,0,0.9,0.6,1.1,1.1c0.2,0.8,0.5,1.5,0.7,2.3
				c0.1,0.3,0.2,0.5,0.2,0.8c0.1,0.4,0,0.7-0.4,0.8c-0.3,0.1-0.6-0.1-0.7-0.5c-0.3-0.8-0.5-1.7-0.8-2.5c0-0.1-0.1-0.2-0.2-0.3
				c0,0-0.1,0-0.1,0.1c0.6,1.9,1.1,3.8,1.7,5.7c-0.4,0-0.7,0-1,0s-0.4,0.1-0.4,0.4c0,1.2,0,2.4,0,3.6c0,0.2-0.1,0.4-0.2,0.6
				c-0.1,0.3-0.4,0.3-0.7,0.3s-0.5-0.2-0.6-0.5c0-0.2-0.1-0.3-0.1-0.5c0-1.2,0-2.4,0-3.6c0-0.1-0.1-0.2-0.1-0.3
				c0,0.1-0.1,0.2-0.1,0.3c0,1.2,0,2.4,0,3.6c0,0.1,0,0.3,0,0.4c-0.1,0.3-0.3,0.5-0.7,0.6c-0.3,0-0.6-0.2-0.7-0.5
				c0-0.1-0.1-0.3-0.1-0.5C629.3,35.7,629.3,34.4,629.3,33.1z"/>
			<path class="st0" d="M625.1,36.3c-0.2-0.2-0.4-0.5-0.6-0.7c-0.8,0.4-1.6,0.2-2.3-0.2c-0.2-0.1-0.8,0.2-0.8,0.5
				c0,0.1,0.1,0.2,0.2,0.2c0.4,0.3,0.6,0.7,0.5,1.1c-0.1,0.4-0.5,0.7-0.9,0.7s-0.8-0.3-1-0.7c-0.1-0.4,0-0.8,0.5-1.1
				c0.1-0.1,0.2-0.2,0.2-0.3c0-0.2,0.1-0.3,0.2-0.5c1.3-1,2.5-2.1,3.8-3.1c0.3-0.2,0.5-0.5,0.8-0.8c0.2-0.2,0.4-0.4,0.6-0.5
				c0.4-0.3,0.9-0.1,1.2,0.3c0.2,0.4,0.1,1-0.3,1.2c-0.1,0-0.2,0-0.2,0s-0.1-0.2,0-0.2c0-0.1,0.2-0.2,0.2-0.3c0-0.2,0-0.4-0.1-0.5
				s-0.4-0.1-0.5-0.1c-0.4,0.3-0.7,0.7-1.1,1v0.2c0.1,0.8,0,1.6-0.3,2.4c0,0.1,0,0.2,0,0.3c0.1,0.2,0.3,0.3,0.4,0.4
				c0.2,0.2,0.3,0.3,0.6,0.3c0.4,0,0.7,0.3,0.8,0.8c0.1,0.4-0.1,0.8-0.5,1s-0.8,0.2-1.1-0.1s-0.4-0.7-0.2-1.1
				C625,36.5,625,36.4,625.1,36.3z"/>
			<path class="st0" d="M624.5,30.9c0,0.8-0.6,1.4-1.4,1.4c-0.8,0-1.4-0.6-1.4-1.4s0.7-1.5,1.4-1.5
				C623.9,29.5,624.5,30.1,624.5,30.9z"/>
			<path class="st0" d="M630.9,21.8c0.9,0,1.7,0.8,1.7,1.7c0,0.9-0.8,1.8-1.8,1.7c-0.9,0-1.7-0.8-1.7-1.7
				C629.2,22.6,630,21.8,630.9,21.8z"/>
			<path class="st0" d="M622.3,33.9c-0.6,0.5-1.1,0.9-1.7,1.4c-0.3,0.2-0.6,0.2-0.8,0s-0.1-0.5,0.1-0.7c0.3-0.3,0.6-0.5,0.9-0.8
				C621.4,33.3,621.8,33.4,622.3,33.9z"/>
		</g>
		<g>
			<path class="st0" d="M420.1,28.8c-0.3,0-0.6,0-0.8,0c-1.4,0-2.6-0.5-3.5-1.5c-1.1-1.1-1.6-2.4-1.6-3.9c0-0.3-0.1-0.8-0.3-0.9
				c-2.1-1.2-3.1-2.9-3-5.3c0.1-1.9,1-3.2,2.6-4.2c0.5-0.3,0.8-0.6,0.8-1.2c-0.1-2.2,1.5-4.4,3.5-5.1c0.2-0.1,0.5-0.3,0.5-0.5
				c0.4-1.1,1-2.1,1.9-2.9c2.1-2,5.8-2.1,8-0.5c0.4,0.3,0.6,0.3,1,0.1c1.2-0.8,2.4-1.1,3.9-1.2c3.6,0,6.4,3,6.3,6.6
				c0,0.9,0.3,1.1,0.9,1.4c2.6,1.3,3.9,4.6,3.1,7.4c-0.6,2.1-2.1,3.5-4,4.3c0.8,3.9-2.6,9-8.9,7.1c0,1.7,0,8.8,0,10.4
				c-0.7,0-1.4,0-2,0c0-1.7,0-8.8,0-10.4c-0.8,0.1-1.6,0.1-2.4,0.2c0,3.4,0,6.8,0,10.2c-0.7,0-1.4,0-2.1,0c0-0.3,0-0.6,0-0.8
				c0-3.1,0-6.3,0-9.4c0-0.7-0.4-0.9-0.8-1s-0.8,0.5-0.8,1c0,3.1,0,6.3,0,9.4c0,0.3,0,0.5,0,0.8c-0.7,0-1.2,0-2,0
				C420.1,35.7,420.1,32.3,420.1,28.8z M416.4,12.8c0.3,0.9,0,1.5-0.9,1.6c-1.3,0.2-2.1,1.1-2.5,2.2c-0.6,1.6,0.5,3.8,2.3,4.2
				c1.2,0.3,1.4,0.6,1.1,1.8c-0.4,1.4,0.2,2.9,1.6,3.8c1.2,0.7,2.7,0.6,3.8-0.5c1-1,1.3-1,2.3,0c0.9,0.9,2.1,1.2,3.3,0.7
				c1.2-0.5,2-1.3,2.2-2.6c0.1-0.5,0-1-0.1-1.6c-0.2-0.9,0.1-1.4,1-1.6c1.5-0.3,2.6-1.9,2.6-3.3c0-1.3-1.3-2.9-2.6-3.1
				c-1-0.2-1.2-0.7-1-1.7c0.7-2.5-1.2-4.4-3.3-4.3c-0.8,0-1.6,0.4-2.2,1c-0.9,0.9-1.2,0.9-2.2,0c-1.1-1-2.3-1.2-3.6-0.7
				c-1.2,0.5-2,1.7-2.1,3.1C416.2,12.2,416.3,12.5,416.4,12.8z M422.6,7.4c0.2,0.1,0.5,0,0.6-0.1c2.5-1.6,5.9-1,7.6,1.6
				c0.6,0.9,0.9,1.9,0.8,2.9c-0.1,0.6,0.1,0.9,0.7,1.1c2.5,1.2,3.6,4.9,2,7.5c-0.6,0.9-1.3,1.5-2.2,2c-0.2,0.1-0.4,0.5-0.4,0.8
				c-0.2,1-0.4,2.1-0.5,3.3c0.9,0.7,2.5,0.6,3.9-0.2c1.8-1,2.6-3.2,2-5.2c-0.3-0.9-0.1-1.3,0.8-1.6c2.1-0.6,3.5-2.3,3.6-4.2
				c0-2.3-1.4-3.9-3.5-4.5c-0.9-0.2-1.2-0.6-0.9-1.5c0.9-2.7-0.8-5.2-3.4-5.8c-1.5-0.3-2.8,0.2-3.9,1.3c-0.7,0.7-1.3,0.8-2.1,0
				c-1.9-1.9-4.3-1.9-6.2-0.3c-0.1,0.1-0.2,0.1-0.2,0.2c-0.3,0.4-0.6,0.9-0.8,1.3C421.2,6.7,421.9,7.1,422.6,7.4z"/>
			<path class="st1" d="M416.2,11.8c0.1,0.3,0.1,0.7,0.2,1c0.3,0.9,0,1.5-0.9,1.6c-1.3,0.2-2.1,1.1-2.5,2.2
				c-0.6,1.6,0.5,3.8,2.3,4.2c1.2,0.3,1.4,0.6,1.1,1.8c-0.4,1.4,0.2,2.9,1.6,3.8c1.2,0.7,2.7,0.6,3.8-0.5c1-1,1.3-1,2.3,0
				c0.9,0.9,2.1,1.2,3.3,0.7c1.2-0.5,2-1.3,2.2-2.6c0.1-0.5,0-1-0.1-1.6c-0.2-0.9,0.1-1.4,1-1.6c1.5-0.3,2.6-1.9,2.6-3.3
				c0-1.3-1.3-2.9-2.6-3.1c-1-0.2-1.2-0.7-1-1.7c0.7-2.5-1.2-4.4-3.3-4.3c-0.8,0-1.6,0.4-2.2,1c-0.9,0.9-1.2,0.9-2.2,0
				c-1.1-1-2.3-1.2-3.6-0.7C417,9.3,416.2,10.5,416.2,11.8z"/>
			<path class="st1" d="M420.4,6.4c0.8,0.4,1.5,0.8,2.3,1.1c0.2,0.1,0.5,0,0.6-0.1c2.5-1.6,5.9-1,7.6,1.6c0.6,0.9,0.9,1.9,0.8,2.9
				c-0.1,0.6,0.1,0.9,0.7,1.1c2.5,1.2,3.6,4.9,2,7.5c-0.6,0.9-1.3,1.5-2.2,2c-0.2,0.1-0.4,0.5-0.4,0.8c-0.2,1-0.4,2.1-0.5,3.3
				c0.9,0.7,2.5,0.6,3.9-0.2c1.8-1,2.6-3.2,2-5.2c-0.3-0.9-0.1-1.3,0.8-1.6c2.1-0.6,3.5-2.3,3.6-4.2c0-2.3-1.4-3.9-3.5-4.5
				c-0.9-0.2-1.2-0.6-0.9-1.5c0.9-2.7-0.8-5.2-3.4-5.8c-1.5-0.3-2.8,0.2-3.9,1.3c-0.7,0.7-1.3,0.8-2.1,0c-1.9-1.9-4.3-1.9-6.2-0.3
				c-0.1,0.1-0.2,0.1-0.2,0.2C420.9,5.5,420.7,5.9,420.4,6.4z"/>
		</g>
		<g>
			<path class="st0" d="M383.4,33.6c-0.1,0.3-0.2,0.7-0.2,1c0,0.9,0.1,1.8,0.2,2.6c0,0.1,0,0.2,0,0.3c0.1,0.4-0.2,0.8-0.6,0.9
				c-0.4,0.1-0.8-0.2-0.9-0.6c-0.2-0.9-0.3-1.7-0.4-2.6c-0.1-0.8,0-1.5,0.3-2.2c0.1-0.4,0.2-0.7,0.3-1.1c0.1-0.4,0.3-0.8,0-1.2
				c-0.1-0.1-0.1-0.3-0.1-0.4c0-0.7-0.1-1.4-0.1-2.1c0-0.1,0.1-0.2,0.1-0.3c0.4-0.6,0.7-1.3,0.8-2.1c0.1-0.5-0.2-0.8-0.6-0.9
				s-0.8,0.1-1,0.5c0,0,0,0.1,0,0.2c-0.1-0.6,0.6-1.2,1.3-1c0.2,0.1,0.5,0.3,0.7,0.5c1,1.5,1.6,3.2,1.7,5c0,0.4,0,0.8-0.3,1.1
				c-0.1,0.1-0.1,0.2-0.1,0.3c0.1,0.5,0.2,1,0.3,1.5c0.1,0.3,0.2,0.7,0.4,1c0.5,0.9,1,1.8,1.4,2.7c0.3,0.5,0,1-0.5,1.1
				c-0.3,0.1-0.6-0.1-0.8-0.4c-0.6-1.1-1.2-2.1-1.7-3.2C383.6,34.1,383.6,33.8,383.4,33.6C383.5,33.6,383.4,33.6,383.4,33.6z"/>
			<path class="st0" d="M382.7,22.8c0,1-0.8,1.9-1.9,1.9s-1.9-0.9-1.9-1.9s0.9-1.9,1.9-1.9C381.8,21,382.7,21.8,382.7,22.8z"/>
			<path class="st0" d="M378.7,29.7c-0.5,0-0.8-0.3-0.9-0.7c0-0.4,0.2-0.8,0.7-0.8c1.5-0.2,2.4-1,2.8-2.7c0.1-0.4,0.3-0.6,0.7-0.6
				c0.4,0,0.6,0.2,0.7,0.5c0,0.1,0,0.2,0,0.3c-0.1,1.6-1.5,3.3-3.1,3.8C379.4,29.6,379.1,29.7,378.7,29.7z"/>
			<path class="st0" d="M377.8,29.3c0.1,0.1,0.2,0.2,0.2,0.2l0.1,0.1c-0.1,0.4-0.2,0.7-0.2,1c-0.5,2.5-1,5-1.5,7.5
				c0,0.1,0,0.1,0,0.2c-0.1,0.1-0.2,0.1-0.3,0.2c-0.1-0.1-0.2-0.2-0.2-0.3c0.1-0.6,0.2-1.1,0.3-1.6c0.4-2.2,0.8-4.4,1.3-6.5
				C377.6,29.8,377.7,29.6,377.8,29.3z"/>
			<path class="st0" d="M378.8,29.8c0.1,0,0.3,0,0.5-0.1c0,0.2,0,0.4-0.1,0.6s-0.3,0-0.4-0.2C378.8,30,378.8,29.9,378.8,29.8z"/>
		</g>
		<g>
			<polygon class="st0" points="592.2,38.4 592.2,31.6 591.3,30.2 590.5,31.6 590.5,38.4 			"/>
			<polygon class="st0" points="595.3,38.4 595.3,31.6 594.4,30.2 593.5,31.6 593.5,38.4 			"/>
			<polygon class="st0" points="598.2,38.4 598.2,31.6 597.3,30.2 596.5,31.6 596.5,38.4 			"/>
			<polygon class="st0" points="601.2,38.4 601.2,31.6 600.3,30.2 599.4,31.6 599.4,38.4 			"/>
			<rect x="590" y="32.5" class="st0" width="11.8" height="1"/>
			<rect x="590" y="36.1" class="st0" width="11.8" height="1"/>
		</g>
	</g>
	<rect x="-2.5" y="37.8" class="st0" width="787" height="3.1"/>
</g>
</svg>
