<?xml version="1.0" encoding="utf-8"?>
<!-- Generator: Adobe Illustrator 19.1.0, SVG Export Plug-In . SVG Version: 6.00 Build 0)  -->
<svg version="1.1" id="Layer_1" xmlns="http://www.w3.org/2000/svg" xmlns:xlink="http://www.w3.org/1999/xlink" x="0px" y="0px"
	 viewBox="0 -4 783 49" style="enable-background:new 0 -4 783 49;" xml:space="preserve">
<style type="text/css">
	.st0{fill:#82BC00;}
	.st1{fill:#E3EEC5;}
</style>
<g>
	<g>
		<g>
			<path class="st0" d="M39.8,19c-0.5,0.2-1,0.4-1.6,0.6c1.9-3,3.5-5.9,4.6-9.4c1.1,3.6,2.8,6.6,4.8,9.5c-0.6-0.3-1.2-0.5-1.7-0.8
				c0,0.1-0.1,0.1-0.1,0.2c1.1,2.2,2.1,4.4,3.3,6.8c-0.6-0.3-1.1-0.5-1.7-0.8c1,2.1,2,4,3,6.1c-0.6-0.2-1.1-0.4-1.6-0.6l-0.1,0.1
				c0.9,1.6,1.8,3.2,2.7,4.8c-5.8,1.8-11.6,1.8-17.4,0c0.9-1.7,1.8-3.3,2.8-5c-0.6,0.3-1.2,0.5-1.8,0.7c1-2,1.9-4,2.9-5.9l-0.1-0.1
				c-0.4,0.2-0.9,0.4-1.4,0.6c0.6-1.3,1.2-2.4,1.7-3.6c0.5-0.9,0.9-1.9,1.4-2.8C39.7,19.3,39.7,19.1,39.8,19L39.8,19
				C39.8,18.9,39.8,18.9,39.8,19C39.8,18.9,39.8,18.9,39.8,19z"/>
			<path class="st0" d="M45.1,41.6c-1.6,0-3.2,0-4.9,0c0.3-0.6,0.8-1.1,1-1.7c0.2-0.6,0.2-1.4,0.3-2.1c0.6,0,1.2,0,1.9,0
				c0.1,0,0.2,0.1,0.3,0.3C44.1,39.2,44.6,40.4,45.1,41.6z"/>
		</g>
		<g>
			<path class="st0" d="M31.3,25.3c-0.4,0.1-0.9,0.3-1.4,0.5c1.6-2.1,3.1-4.2,4-6.8c1,2.6,2.4,4.7,4.2,6.9c-0.6-0.2-1-0.4-1.5-0.5
				l-0.1,0.1c0.9,1.5,1.9,3.1,2.9,4.8c-0.5-0.2-0.9-0.4-1.5-0.6c0.9,1.5,1.8,2.9,2.6,4.4c-0.5-0.2-0.9-0.3-1.4-0.4L39,33.8
				c0.8,1.1,1.6,2.3,2.4,3.5c-5.1,1.3-10.1,1.3-15.2,0c0.8-1.2,1.6-2.4,2.5-3.6c-0.6,0.2-1,0.3-1.6,0.5c0.9-1.5,1.7-2.8,2.5-4.2
				l-0.1-0.1c-0.4,0.1-0.8,0.3-1.2,0.5c0.5-0.9,1-1.8,1.5-2.6c0.4-0.7,0.8-1.4,1.2-2C31.2,25.5,31.2,25.4,31.3,25.3L31.3,25.3
				C31.3,25.3,31.3,25.2,31.3,25.3L31.3,25.3z"/>
			<path class="st0" d="M36,41.6c-1.4,0-2.8,0-4.3,0c0.3-0.4,0.7-0.8,0.9-1.3c0.2-0.4,0.2-1,0.2-1.5c0.5,0,1.1,0,1.6,0
				c0.1,0,0.2,0.1,0.2,0.2C35.1,39.8,35.5,40.7,36,41.6z"/>
		</g>
		<g>
			<g>
				<path class="st0" d="M187.1,42.4c-0.9,0-1.6,0-2.4,0c0-0.4,0-0.7,0-1c0-3.9,0-7.8,0-11.7c0-0.7-0.6-1.5-1.1-1.3
					c-0.6,0.2-1,0.5-1,1.3c0.1,3.9,0,7.8,0,11.7c0,0.3,0,0.7,0,1c-0.9,0-1.7,0-2.6,0c0-4.2,0-8.4,0-12.7c-1.1-0.1-2-0.2-3-0.3
					c0,2,0,4,0,6.1c-0.8,0-1.6,0-2.5,0c0-2,0-4.1,0-6.2c-7.9,2.3-12-4.1-11-8.9c-2.4-1.1-4.2-2.7-5-5.4c-1-3.5,0.6-7.6,3.8-9.2
					c0.8-0.4,1.2-0.7,1.1-1.7c-0.2-4.4,3.3-8.2,7.8-8.2c1.8,0,3.4,0.4,4.8,1.4c0.4,0.3,0.7,0.3,1.2-0.1c2.7-2,7.3-1.9,9.9,0.6
					c1.1,1,1.8,2.2,2.4,3.6c0.1,0.3,0.4,0.6,0.7,0.7c2.5,0.8,4.5,3.5,4.4,6.3c0,0.8,0.3,1.1,0.9,1.5c1.9,1.2,3,2.8,3.2,5.2
					c0.2,3-1.2,5.1-3.7,6.6c-0.3,0.2-0.4,0.7-0.4,1.1c-0.1,1.9-0.6,3.5-2,4.8c-1.2,1.2-2.7,1.9-4.4,1.8c-0.3,0-0.6,0-1,0
					C187.1,33.9,187.1,38.1,187.1,42.4z M191.9,8.6c-0.1-1.7-1.1-3.2-2.6-3.8c-1.7-0.7-3.1-0.3-4.4,0.9c-1.2,1.1-1.5,1.2-2.7,0
					c-0.7-0.7-1.6-1.2-2.7-1.2c-2.6,0-4.9,2.2-4.1,5.3c0.3,1.2,0,1.8-1.2,2.1c-1.6,0.3-3.1,2.2-3.2,3.9c-0.1,1.8,1.4,3.7,3.2,4.1
					c1.2,0.3,1.5,0.8,1.2,2c-0.1,0.6-0.2,1.3-0.1,1.9c0.2,1.7,1.2,2.7,2.7,3.3c1.5,0.6,2.9,0.1,4.1-0.9c1.3-1.2,1.7-1.2,2.9,0
					c1.3,1.3,3.2,1.5,4.7,0.6c1.8-1.1,2.6-2.9,2-4.7c-0.4-1.4-0.2-1.8,1.3-2.2c2.2-0.6,3.6-3.2,2.8-5.2c-0.6-1.4-1.5-2.5-3.1-2.8
					c-1.1-0.2-1.5-0.9-1.1-2C191.8,9.4,191.8,9,191.9,8.6z M186.7,1.8c-0.3-0.5-0.7-1-1-1.6c-0.1-0.1-0.2-0.2-0.3-0.3
					c-2.4-2-5.4-2-7.7,0.3c-0.9,0.9-1.7,0.8-2.6-0.1c-1.3-1.4-2.9-2-4.8-1.6c-3.2,0.7-5.3,3.8-4.2,7.2c0.3,1,0,1.6-1.1,1.8
					c-2.6,0.7-4.4,2.7-4.4,5.5c0,2.4,1.8,4.5,4.4,5.2c1.2,0.3,1.4,0.8,1,1.9c-0.8,2.5,0.2,5.1,2.5,6.4c1.7,1,3.7,1.1,4.8,0.2
					c-0.2-1.4-0.4-2.7-0.7-4c-0.1-0.4-0.3-0.8-0.5-1c-1.1-0.6-2-1.4-2.7-2.5c-2-3.2-0.7-7.7,2.4-9.3c0.7-0.3,0.9-0.7,0.8-1.4
					c-0.1-1.3,0.3-2.5,1-3.6c2.1-3.2,6.3-4,9.4-2c0.2,0.1,0.6,0.2,0.8,0.1C184.8,2.7,185.7,2.2,186.7,1.8z"/>
				<path class="st0" d="M175.4,39.1c0,1.2,0,2.2,0,3.3c-0.9,0-1.7,0-2.6,0c0-0.9,0-1.8,0-2.7c0-0.5-0.1-0.7-0.7-0.8
					c-2.6-0.4-5.1-1.4-7-3.2c-3.2-2.9-6.2-6-9.3-9c-0.2-0.2-0.5-0.5-0.8-0.8c0,5.6,0,11,0,16.5c-0.8,0-1.6,0-2.4,0
					c0-2.6,0-5.2,0-7.9c-3.4,0-6.6,0-10,0c0,2.6,0,5.2,0,7.9c-0.9,0-1.7,0-2.6,0c0-0.3,0-0.6,0-1c0-9.2,0-18.4,0-27.6
					c0-1.9,0.4-2.2,2.3-2.2c3.6,0,7.2,0,10.8,0c1.7,0,2,0.3,2,2c0,2.7,0,5.3,0,8c0,0.4,0.2,0.8,0.5,1.1c3.1,3.1,6.2,6.3,9.4,9.4
					c2.2,2.1,4.6,3.8,7.7,4.3c1.6,0.2,3.2,0.2,4.8,0.3c1.1,0.1,1.7,1,1.1,1.9c-0.2,0.3-0.6,0.5-0.9,0.5
					C176.8,39.2,176.2,39.1,175.4,39.1z M142.6,24.5c0,2.6,0,5.1,0,7.5c3.4,0,6.6,0,9.9,0c0-2.5,0-5,0-7.5c-0.2,0-0.3,0-0.5,0
					C148.9,24.5,145.8,24.5,142.6,24.5z M150.6,22c0-1.3,0.1-2.5,0-3.7c-0.1-1.4-1.4-2.5-2.7-2.6c-1.7-0.2-3,1.2-3.1,2.3
					c-0.2,1.3,0,2.7,0,4.1c0.5,0,0.8,0,1.1,0C147.3,22,148.9,22,150.6,22z"/>
				<path class="st0" d="M125.2,34.4c0-5.1,0-10.3,0-15.4c-2.3,0-4.5,0-7,0c0,5.1,0,10.3,0,15.5c0.9,0,1.3,0.4,1.4,1.1
					c0.1,0.7-0.3,1.1-0.9,1.4c-3.2,1.4-6.3,1.4-9.5-0.1c-0.4-0.2-0.8-0.9-0.8-1.4c0-0.4,0.6-0.8,1-1.2c0.1,0.1,0.2,0.1,0.3,0.2
					c0-5.2,0-10.3,0-15.5c-0.9,0-1.6,0-2.5,0c0,7.8,0,15.6,0,23.5c-0.9,0-1.6,0-2.5,0c0-0.3,0-0.6,0-0.9c0-7.9,0-15.8,0-23.7
					c0-1.2,0.3-1.5,1.5-1.5c10.2,0,20.5,0,30.8,0c1.2,0,1.7,0.5,1.7,1.7c0,7.8,0,15.7,0,23.5c0,0.3,0,0.6,0,1c-0.9,0-1.7,0-2.6,0
					c0-7.8,0-15.6,0-23.5c-0.9,0-1.6,0-2.5,0c0,5.2,0,10.3,0,15.5c0.1-0.1,0.2-0.1,0.3-0.2c0.3,0.4,0.8,0.7,1,1.2
					c0.3,0.8-0.2,1.3-0.9,1.6c-2.9,1.2-5.8,1.2-8.8,0.2c-0.5-0.2-1.1-0.6-1.4-1.1C123.5,35.3,124,34.6,125.2,34.4z M110.8,18.9
					c0,0.5,0.2,1,0.1,1.4c-0.3,0.7,0,1.4,0,2.2c0,0.8-0.2,1.7,0,2.5c0.1,0.5-0.3,1.1-0.3,1.6c0,0.9,0.1,1.8,0.2,2.7
					c0,0.5,0.1,1.1,0.1,1.6c0,0.6-0.1,1.2-0.1,1.9s0,1.3,0,2.1c1.7,0.8,4.7,0.8,6.1-0.1c0-5.3,0-10.6,0-15.9
					C114.8,18.9,113,18.9,110.8,18.9z M132.5,18.9c-2.1,0-4.1,0-6.2,0c0,5.3,0,10.6,0,15.9c2,0.8,4.2,0.8,6.2,0
					C132.5,29.5,132.5,24.2,132.5,18.9z"/>
				<path class="st0" d="M147.6,10.7c-2,0-4,0-5.9,0c-0.5,0-1.2-0.3-1.4-0.7c-0.3-0.6-0.2-1.2,0.4-1.8c1.9-1.8,3.7-3.7,5.6-5.6
					c0.9-0.9,1.7-0.9,2.6,0c1.8,1.8,3.7,3.7,5.5,5.5c0.6,0.6,0.9,1.3,0.5,1.9c-0.2,0.4-1,0.6-1.5,0.7
					C151.5,10.8,149.5,10.7,147.6,10.7z M147.7,5.2c-1,1-1.9,1.9-2.8,2.8c1.8,0,3.7,0,5.6,0C149.5,7.1,148.6,6.1,147.7,5.2z"/>
				<path class="st1" d="M191.9,8.6c-0.1,0.4-0.1,0.8-0.3,1.2c-0.4,1.1,0.1,1.8,1.1,2c1.6,0.3,2.6,1.3,3.1,2.8
					c0.8,2-0.7,4.7-2.8,5.2c-1.5,0.4-1.8,0.8-1.3,2.2c0.5,1.7-0.3,3.6-2,4.7c-1.5,0.9-3.4,0.7-4.7-0.6c-1.2-1.2-1.6-1.2-2.9,0
					c-1.2,1.1-2.6,1.5-4.1,0.9c-1.5-0.6-2.5-1.6-2.7-3.3c-0.1-0.6,0-1.3,0.1-1.9c0.2-1.2-0.1-1.7-1.2-2c-1.8-0.4-3.3-2.3-3.2-4.1
					c0-1.6,1.6-3.6,3.2-3.9c1.2-0.2,1.5-0.8,1.2-2.1c-0.8-3.1,1.5-5.4,4.1-5.3c1,0,1.9,0.5,2.7,1.2c1.2,1.2,1.5,1.1,2.7,0
					c1.3-1.2,2.8-1.6,4.4-0.9C190.9,5.4,191.9,6.9,191.9,8.6z"/>
				<path class="st1" d="M186.7,1.8c-1,0.5-1.9,0.9-2.8,1.3c-0.2,0.1-0.6,0-0.8-0.1c-3.1-2-7.4-1.2-9.4,2c-0.7,1.1-1.1,2.3-1,3.6
					c0.1,0.7-0.2,1.1-0.8,1.4c-3.1,1.5-4.5,6-2.4,9.3c0.7,1.1,1.6,1.9,2.7,2.5c0.3,0.2,0.5,0.6,0.5,1c0.3,1.3,0.4,2.6,0.7,4
					c-1.1,0.9-3.1,0.8-4.8-0.2c-2.2-1.3-3.2-3.9-2.5-6.4c0.4-1.2,0.1-1.6-1-1.9c-2.6-0.7-4.4-2.8-4.4-5.2c0-2.9,1.7-4.8,4.4-5.5
					c1.1-0.3,1.5-0.8,1.1-1.8c-1.1-3.4,0.9-6.5,4.2-7.2c1.9-0.4,3.5,0.3,4.8,1.6c0.9,0.9,1.7,1,2.6,0.1c2.3-2.3,5.3-2.3,7.7-0.3
					c0.1,0.1,0.2,0.2,0.3,0.3C186,0.7,186.4,1.3,186.7,1.8z"/>
				<path class="st1" d="M150.6,22c-1.7,0-3.2,0-4.8,0c-0.3,0-0.7,0-1.1,0c0-1.4-0.1-2.7,0-4.1c0.1-1,1.4-2.4,3.1-2.3
					c1.4,0.1,2.6,1.3,2.7,2.6C150.6,19.5,150.6,20.7,150.6,22z"/>
				<path class="st1" d="M147.7,5.2c0.8,0.9,1.8,1.8,2.7,2.8c-1.9,0-3.8,0-5.6,0C145.8,7.2,146.7,6.2,147.7,5.2z"/>
			</g>
		</g>
		<g>
			<path class="st0" d="M272.3,41.9c-0.5-0.1-0.9-0.2-1.3-0.4c-1.1-0.6-1.8-1.5-1.9-2.7c0-0.3,0-0.6,0-1c0-0.1,0-0.1-0.1-0.2
				c-0.3-0.2-0.7-0.5-1.1-0.7l0,0c0,0.3,0,0.6,0,0.9c0,0.7,0.1,1.5,0.1,2.2c0,0.2-0.1,0.3-0.2,0.3c-0.2,0-0.3-0.1-0.3-0.2
				c-0.1-0.3-0.1-0.6-0.2-1c-0.2-1.2-0.4-2.3-0.6-3.5c0,0,0-0.1-0.1-0.1c-0.5-0.6-0.8-1.2-1.1-1.9c-0.3,0.6-0.5,1.2-0.8,1.8
				c0.2,0.2,0.4,0.4,0.6,0.7c1.7,2.2,0.4,5.3-2.3,5.7c-2,0.3-3.8-1.1-4.1-3c0-0.1,0-0.3-0.1-0.4c0-0.1,0-0.1,0-0.2v-0.1
				c0-0.9,0.4-1.6,1-2.2c1-1,2.1-1.3,3.5-1c0.2,0,0.4,0.1,0.7,0.2c0.2-0.5,0.5-1.1,0.7-1.7c0.2-0.4,0.3-0.9,0.4-1.3
				c0.1-0.2,0.2-0.3,0.4-0.4c0.8-0.1,1.5-0.3,2.3-0.4c0.2,0,0.3-0.1,0.4-0.2c0.6-0.6,1.1-1.2,1.7-1.9c0.3-0.3,0.7-0.5,1.2-0.3
				c0.4,0.1,0.6,0.5,0.6,1c0,1.1,0,2.2,0,3.3c0,0.4-0.2,0.7-0.5,0.9c-1,0.6-2.1,1.3-3.1,1.9c0,0-0.1,0-0.1,0.1
				c0.4,0.3,0.9,0.7,1.3,1c0.1-0.1,0.1-0.3,0.2-0.4c0.7-1.1,1.7-1.8,3-1.8c0.8,0,1.5,0.2,2.2,0.6c1.2,0.9,1.7,2,1.5,3.5
				c-0.2,1.3-0.9,2.3-2.2,2.8c-0.3,0.1-0.7,0.2-1,0.3C272.7,41.9,272.5,41.9,272.3,41.9z M263,38.3c-0.1,0.1-0.2,0.2-0.3,0.3
				c-0.2,0.2-0.4,0.2-0.6,0.1c-0.2-0.1-0.2-0.4,0-0.6c0.5-0.7,1-1.4,1.4-2.1c0,0,0-0.1,0.1-0.1c-1.3-0.6-2.9,0-3.6,1.2
				c-0.7,1.3-0.2,2.9,1.1,3.7c1.2,0.7,2.9,0.3,3.7-0.9c0.8-1.2,0.5-2.8-0.5-3.6C263.9,36.9,263.4,37.6,263,38.3z M272,41.1
				c1.5,0.3,2.9-0.6,3.3-2.1c0.3-1.4-0.6-2.9-1.9-3.3c-1.5-0.4-2.9,0.5-3.4,1.7c0.3,0.1,0.5,0.2,0.8,0.3c0.6,0.2,1.2,0.3,1.8,0.4
				c0.3,0,0.5,0.2,0.4,0.4c0,0.2-0.2,0.4-0.5,0.4c-0.9-0.1-1.8-0.3-2.6-0.6h-0.1C269.7,39.4,270.5,40.8,272,41.1z M268.2,32.2
				c-0.1,0-0.1,0.1-0.2,0.1c-0.6,0-1.3,0-1.9,0c-0.1,0-0.1,0-0.2,0c0.2,1,0.6,1.9,1.1,2.7c0.4-0.3,0.7-0.6,1.1-0.9
				c0.5-0.4,0.9-0.8,1.4-1.2c0,0,0.1-0.1,0.1-0.2c0-0.5,0-0.9,0-1.4c0,0,0,0,0-0.1C269.1,31.6,268.7,31.9,268.2,32.2z"/>
			<path class="st0" d="M269.5,25.4c-0.4,0.1-0.8,0.3-1,0.7c-0.4,0.6-0.4,1.4,0,2c0.5,0.6,1.3,0.8,2,0.4c0.6-0.3,1-1,0.9-1.6
				c-0.1-0.7-0.6-1.3-1.3-1.4c0,0,0,0-0.1,0C269.8,25.4,269.6,25.4,269.5,25.4z"/>
			<path class="st0" d="M262.6,31.8c-0.4,0-0.7,0-1.1,0s-0.5,0.2-0.4,0.6c0.1,0.5,0.2,1.1,0.3,1.6c0,0.2,0.2,0.4,0.4,0.4
				c0.5,0,1,0,1.5,0c0.2,0,0.4-0.1,0.4-0.3c0.2-0.6,0.3-1.2,0.4-1.7c0.1-0.3-0.1-0.5-0.4-0.5C263.3,31.8,262.9,31.8,262.6,31.8
				L262.6,31.8z"/>
		</g>
		<g>
			<g>
				<path class="st0" d="M96.3,30.6C96.3,30.5,96.3,30.5,96.3,30.6c0.1-0.5,0.3-0.9,0.7-1.2c0.3-0.2,0.6-0.3,1-0.3c1,0,2,0,2.9,0
					c0.6,0,1.1,0.3,1.5,0.8c0.2,0.3,0.2,0.5,0.2,0.8c0,1.2,0,2.3,0,3.5c0,0.2,0,0.3,0,0.5c0,0.3-0.2,0.5-0.5,0.6
					c-0.3,0.1-0.6-0.1-0.7-0.4c0-0.1,0-0.1,0-0.2c0-1.2,0-2.3,0-3.5c0,0,0,0,0-0.1c0,0-0.2,0-0.3,0l0,0c0,0,0,0,0,0.1
					c0,3.3,0,6.6,0,9.9c0,0.3-0.1,0.5-0.3,0.6c-0.1,0.1-0.2,0.1-0.3,0.1l0,0c-0.1,0-0.2,0-0.2,0l0,0c-0.1,0-0.3-0.1-0.4-0.2
					c-0.2-0.2-0.2-0.3-0.2-0.6c0-1.6,0-3.2,0-4.9c0-0.3,0-0.6,0-0.9c0,0,0,0,0-0.1c-0.1,0-0.2,0-0.3,0v0.1c0,1.9,0,3.8,0,5.7V41
					c0,0.3-0.3,0.6-0.6,0.6h-0.1c-0.1,0-0.1,0-0.2,0l0,0c-0.2,0-0.3-0.1-0.4-0.2c-0.1-0.1-0.2-0.3-0.2-0.5c0-3.3,0-6.6,0-9.9
					c0,0,0,0,0-0.1l0,0c-0.1,0-0.3,0-0.3,0s0,0,0,0.1c0,0.7,0,1.3,0,2c0,0.5,0,1,0,1.5c0,0.1,0,0.1,0,0.2c-0.1,0.2-0.3,0.4-0.5,0.4
					c-0.3,0-0.5-0.2-0.6-0.4l0,0C96.3,33.4,96.3,32,96.3,30.6z"/>
				<path class="st0" d="M99.6,25.5c0.1,0,0.1,0,0.2,0c0.6,0.2,1.1,0.5,1.3,1.2c0.2,0.7-0.1,1.4-0.7,1.8c-0.8,0.5-1.8,0.3-2.3-0.5
					c-0.5-0.7-0.2-1.7,0.5-2.2c0.2-0.1,0.5-0.2,0.7-0.3c0,0,0,0,0.1,0C99.4,25.5,99.5,25.5,99.6,25.5z"/>
			</g>
			<g>
				<path class="st0" d="M86.4,30.6C86.4,30.5,86.4,30.5,86.4,30.6c0.1-0.5,0.3-0.9,0.7-1.2c0.3-0.2,0.6-0.3,1-0.3c1,0,2,0,2.9,0
					c0.6,0,1.1,0.3,1.5,0.8c0.2,0.3,0.2,0.5,0.2,0.8c0,1.2,0,2.3,0,3.5c0,0.2,0,0.3,0,0.5c0,0.3-0.2,0.5-0.5,0.6
					c-0.3,0.1-0.6-0.1-0.7-0.4c0-0.1,0-0.1,0-0.2c0-1.2,0-2.3,0-3.5c0,0,0,0,0-0.1c0,0-0.2,0-0.3,0l0,0c0,0,0,0,0,0.1
					c0,3.3,0,6.6,0,9.9c0,0.3-0.1,0.5-0.3,0.6c-0.1,0.1-0.2,0.1-0.3,0.1l0,0c-0.1,0-0.2,0-0.2,0l0,0c-0.1,0-0.3-0.1-0.4-0.2
					c-0.2-0.2-0.2-0.3-0.2-0.6c0-1.6,0-3.2,0-4.9c0-0.3,0-0.6,0-0.9c0,0,0,0,0-0.1c-0.1,0-0.2,0-0.3,0v0.1c0,1.9,0,3.8,0,5.7V41
					c0,0.3-0.3,0.6-0.6,0.6h-0.1c-0.1,0-0.1,0-0.2,0l0,0c-0.2,0-0.3-0.1-0.4-0.2c-0.1-0.1-0.2-0.3-0.2-0.5c0-3.3,0-6.6,0-9.9
					c0,0,0,0,0-0.1l0,0c-0.1,0-0.3,0-0.3,0s0,0,0,0.1c0,0.7,0,1.3,0,2c0,0.5,0,1,0,1.5c0,0.1,0,0.1,0,0.2c-0.1,0.2-0.3,0.4-0.5,0.4
					c-0.3,0-0.5-0.2-0.6-0.4l0,0C86.4,33.4,86.4,32,86.4,30.6z"/>
				<path class="st0" d="M89.7,25.5c0.1,0,0.1,0,0.2,0c0.6,0.2,1.1,0.5,1.3,1.2c0.2,0.7-0.1,1.4-0.7,1.8c-0.8,0.5-1.8,0.3-2.3-0.5
					c-0.5-0.7-0.2-1.7,0.5-2.2c0.2-0.1,0.5-0.2,0.7-0.3c0,0,0,0,0.1,0C89.5,25.5,89.6,25.5,89.7,25.5z"/>
			</g>
			<g>
				<path class="st0" d="M93.4,41.8c-0.2-0.2-0.2-0.4-0.2-0.6c0-0.5,0-1,0-1.4s0-0.9,0-1.3c0,0,0,0,0-0.1c-0.1,0-0.2,0-0.3,0
					c-0.4-0.1-0.7-0.4-0.7-0.8c0-0.9,0-1.8,0-2.7c0-0.5,0.4-0.9,0.9-0.9c0.9,0,1.8,0,2.7,0c0.5,0,0.9,0.4,0.9,0.8c0,0.9,0,1.8,0,2.7
					c0,0.4-0.3,0.8-0.8,0.8c-0.1,0-0.1,0-0.2,0c0,0.2,0,0.3,0,0.5c0,0.8,0,1.7,0,2.5c0,0.2-0.1,0.3-0.2,0.4c-0.2,0-0.5,0-0.7,0
					c-0.1-0.1-0.2-0.3-0.2-0.5c0-1,0-1.9,0-2.9v-0.1c-0.1,0-0.2,0-0.3,0c0,0.1,0,0.1,0,0.2c0,0.9,0,1.8,0,2.8c0,0.2-0.1,0.4-0.2,0.5
					C93.9,41.8,93.6,41.8,93.4,41.8z"/>
				<path class="st0" d="M93.1,32.1c0-0.8,0.7-1.5,1.5-1.5s1.5,0.7,1.4,1.5c0,0.8-0.7,1.4-1.5,1.4C93.7,33.6,93.1,32.9,93.1,32.1z"
					/>
			</g>
		</g>
		<g>
			<path class="st0" d="M198.3,41.6C198.2,41.6,198.2,41.6,198.3,41.6c-0.3-0.1-0.5-0.2-0.6-0.5c0-0.1,0-0.1,0-0.2c0-0.7,0-1.3,0-2
				c0-0.8,0-1.5,0-2.3c0,0,0,0,0-0.1c-0.6,0-1.1,0-1.7,0c0.6-2,1.2-4,1.8-6c-0.1,0-0.1,0-0.1,0h-0.1c0,0,0,0,0,0.1
				c-0.3,0.9-0.6,1.8-0.8,2.8c-0.1,0.2-0.1,0.4-0.2,0.6c-0.1,0.3-0.3,0.4-0.6,0.4c-0.1,0-0.3-0.1-0.4-0.1c-0.2-0.1-0.2-0.3-0.2-0.5
				s0.1-0.3,0.1-0.5c0.3-1,0.6-2.1,0.9-3.1c0.1-0.3,0.2-0.6,0.4-0.8c0.3-0.3,0.6-0.5,1-0.6c0.1,0,0.1,0,0.2,0c0.7,0,1.3,0,2,0
				c0.6,0,1.1,0.3,1.5,0.8c0.1,0.2,0.2,0.4,0.2,0.6c0.3,1.2,0.7,2.3,1,3.5v0.1c0,0.1,0,0.2,0,0.2l0,0c0,0.1-0.1,0.2-0.2,0.3
				s-0.3,0.2-0.5,0.1c-0.2,0-0.4-0.2-0.4-0.4c-0.3-1.1-0.7-2.2-1-3.4c0,0,0,0,0-0.1c-0.1,0-0.2,0-0.3,0c0.6,2,1.2,4,1.8,6
				c-0.1,0-0.3,0-0.4,0c-0.1,0-0.3,0-0.4,0c-0.1,0-0.3,0-0.4,0c-0.1,0-0.3,0-0.4,0v0.1c0,1,0,2,0,3c0,0.4,0,0.9,0,1.3
				c0,0.1,0,0.1,0,0.2c-0.1,0.2-0.2,0.4-0.5,0.4h-0.1h-0.1l0,0c-0.3,0-0.6-0.3-0.6-0.7c0-0.8,0-1.6,0-2.3c0-0.6,0-1.3,0-1.9
				c0,0,0,0,0-0.1c-0.1,0-0.2,0-0.3,0c0,0,0,0,0,0.1c0,1.4,0,2.8,0,4.2c0,0.1,0,0.1,0,0.2c-0.1,0.3-0.3,0.4-0.5,0.5l0,0
				C198.4,41.6,198.3,41.6,198.3,41.6z"/>
			<path class="st0" d="M199.2,25.4c0.1,0,0.1,0,0.2,0c0.5,0.1,1,0.4,1.2,0.9c0.3,0.6,0.2,1.3-0.3,1.8c-0.4,0.4-0.9,0.6-1.4,0.5
				c-0.5,0-0.9-0.3-1.2-0.7c-0.2-0.3-0.3-0.6-0.3-1c0-0.6,0.3-1,0.8-1.3c0.2-0.1,0.5-0.2,0.7-0.2c0,0,0,0,0.1,0
				C199.1,25.4,199.2,25.4,199.2,25.4z"/>
			<g>
				<path class="st0" d="M193.5,41.6c-0.2-0.2-0.2-0.4-0.2-0.6c0-0.5,0-1,0-1.4s0-0.9,0-1.3c0,0,0,0,0-0.1c-0.1,0-0.2,0-0.3,0
					c-0.4-0.1-0.7-0.4-0.7-0.8c0-0.9,0-1.8,0-2.7c0-0.5,0.4-0.9,0.9-0.9c0.9,0,1.8,0,2.7,0c0.5,0,0.8,0.4,0.8,0.8c0,0.9,0,1.8,0,2.7
					c0,0.4-0.3,0.8-0.8,0.8c-0.1,0-0.1,0-0.2,0c0,0.2,0,0.3,0,0.5c0,0.8,0,1.7,0,2.5c0,0.2-0.1,0.3-0.2,0.4c-0.2,0-0.4,0-0.7,0
					c-0.1-0.1-0.2-0.3-0.2-0.5c0-0.9,0-1.9,0-2.8v-0.1c-0.1,0-0.2,0-0.3,0c0,0.1,0,0.1,0,0.2c0,0.9,0,1.8,0,2.7
					c0,0.2-0.1,0.4-0.2,0.5C193.9,41.6,193.7,41.6,193.5,41.6z"/>
				<path class="st0" d="M193.1,32c0-0.8,0.6-1.4,1.4-1.4c0.8,0,1.4,0.7,1.4,1.5s-0.6,1.4-1.5,1.4C193.8,33.4,193.1,32.8,193.1,32z"
					/>
			</g>
		</g>
		<g>
			<g>
				<path class="st0" d="M4.9,30.4C4.9,30.3,4.9,30.3,4.9,30.4c0.1-0.5,0.3-0.9,0.7-1.2c0.3-0.2,0.6-0.3,1-0.3c1,0,2,0,2.9,0
					c0.6,0,1.1,0.3,1.5,0.8c0.2,0.3,0.2,0.5,0.2,0.8c0,1.2,0,2.3,0,3.5c0,0.2,0,0.3,0,0.5c0,0.3-0.2,0.5-0.5,0.6
					c-0.3,0.1-0.6-0.1-0.7-0.4c0-0.1,0-0.1,0-0.2c0-1.2,0-2.3,0-3.5c0,0,0,0,0-0.1c0,0-0.2,0-0.3,0l0,0c0,0,0,0,0,0.1
					c0,3.3,0,6.6,0,9.8c0,0.3-0.1,0.5-0.3,0.6c-0.1,0.1-0.2,0.1-0.3,0.1l0,0c-0.1,0-0.2,0-0.2,0l0,0c-0.1,0-0.3-0.1-0.4-0.2
					c-0.2-0.2-0.2-0.3-0.2-0.6c0-1.6,0-3.2,0-4.8c0-0.3,0-0.6,0-0.8c0,0,0,0,0-0.1c-0.1,0-0.2,0-0.3,0v0.1c0,1.9,0,3.8,0,5.7v0.1
					c0,0.3-0.3,0.6-0.6,0.6c0,0,0,0-0.1,0c-0.1,0-0.1,0-0.2,0l0,0c-0.2,0-0.3-0.1-0.4-0.2c-0.3-0.1-0.4-0.3-0.4-0.5
					c0-3.3,0-6.6,0-9.8c0,0,0,0,0-0.1l0,0c-0.1,0-0.3,0-0.3,0s0,0,0,0.1c0,0.7,0,1.3,0,2c0,0.5,0,1,0,1.5c0,0.1,0,0.1,0,0.2
					C5.9,34.8,5.7,35,5.5,35c-0.3,0-0.5-0.2-0.6-0.4l0,0C4.9,33.1,4.9,31.7,4.9,30.4z"/>
				<path class="st0" d="M8.2,25.4c0.1,0,0.1,0,0.2,0c0.6,0.2,1.1,0.5,1.2,1.2c0.2,0.7-0.1,1.4-0.7,1.8c-0.8,0.5-1.8,0.3-2.3-0.5
					c-0.4-0.9-0.2-1.8,0.5-2.3c0.2-0.1,0.5-0.2,0.7-0.3c0,0,0,0,0.1,0C8,25.4,8.1,25.4,8.2,25.4z"/>
			</g>
			<path class="st0" d="M17.5,41.5C17.4,41.5,17.4,41.5,17.5,41.5c-0.3-0.1-0.5-0.2-0.6-0.5c0-0.1,0-0.1,0-0.2c0-0.7,0-1.3,0-2
				c0-0.8,0-1.5,0-2.3c0,0,0,0,0-0.1c-0.6,0-1.1,0-1.7,0c0.6-2,1.2-4,1.8-6c-0.1,0-0.1,0-0.1,0h-0.1c0,0,0,0,0,0.1
				c-0.3,0.9-0.6,1.8-0.8,2.8c-0.1,0.2-0.1,0.4-0.2,0.6c-0.1,0.3-0.3,0.4-0.6,0.4c-0.1,0-0.3-0.1-0.4-0.1c-0.2-0.1-0.2-0.3-0.2-0.5
				s0.1-0.3,0.1-0.5c0.3-1,0.6-2.1,0.9-3.1c0.1-0.3,0.2-0.6,0.4-0.8c0.3-0.3,0.6-0.5,1-0.6c0.1,0,0.1,0,0.2,0c0.7,0,1.3,0,2,0
				c0.6,0,1.1,0.3,1.5,0.8c0.1,0.2,0.2,0.4,0.2,0.6c0.3,1.2,0.7,2.3,1,3.5v0.1c0,0.1,0,0.2,0,0.2l0,0c0,0.1-0.1,0.2-0.2,0.3
				s-0.3,0.2-0.5,0.1c-0.2,0-0.4-0.2-0.4-0.4c-0.3-1.1-0.7-2.2-1-3.4c0,0,0,0,0-0.1c-0.1,0-0.2,0-0.3,0c0.6,2,1.2,4,1.8,6
				c-0.1,0-0.3,0-0.4,0s-0.3,0-0.4,0s-0.3,0-0.4,0s-0.3,0-0.4,0v0.1c0,1,0,2,0,3c0,0.4,0,0.9,0,1.3c0,0.1,0,0.1,0,0.2
				c-0.1,0.2-0.2,0.4-0.5,0.4h-0.1H19l0,0c-0.3,0-0.6-0.3-0.6-0.7c0-0.8,0-1.6,0-2.3c0-0.6,0-1.3,0-1.9c0,0,0,0,0-0.1
				c-0.1,0-0.2,0-0.3,0c0,0,0,0,0,0.1c0,1.4,0,2.8,0,4.3c0,0.1,0,0.1,0,0.2c-0.1,0.3-0.3,0.4-0.5,0.5l0,0
				C17.5,41.5,17.5,41.5,17.5,41.5z"/>
			<path class="st0" d="M18.4,25.2c0.1,0,0.1,0,0.2,0c0.6,0.1,1,0.4,1.2,0.9c0.3,0.6,0.2,1.3-0.3,1.8c-0.4,0.4-0.9,0.6-1.4,0.5
				c-0.5,0-0.9-0.3-1.2-0.7c-0.2-0.3-0.3-0.6-0.3-1c0-0.6,0.3-1,0.8-1.3c0.2-0.1,0.5-0.2,0.7-0.2c0,0,0,0,0.1,0
				C18.3,25.2,18.3,25.2,18.4,25.2z"/>
			<g>
				<path class="st0" d="M12,41.6c-0.2-0.2-0.2-0.4-0.2-0.6c0-0.5,0-1,0-1.4s0-0.9,0-1.3c0,0,0,0,0-0.1c-0.1,0-0.2,0-0.3,0
					c-0.4-0.1-0.7-0.4-0.7-0.8c0-0.9,0-1.8,0-2.7c0-0.5,0.4-0.9,0.9-0.9c0.9,0,1.8,0,2.7,0c0.5,0,0.8,0.4,0.8,0.8c0,0.9,0,1.8,0,2.7
					c0,0.4-0.3,0.8-0.8,0.8c-0.1,0-0.1,0-0.2,0c0,0.2,0,0.3,0,0.5c0,0.8,0,1.7,0,2.5c0,0.2-0.1,0.3-0.2,0.4c-0.2,0-0.4,0-0.7,0
					c-0.1-0.1-0.2-0.3-0.2-0.5c0-1,0-1.9,0-2.9V38c-0.1,0-0.2,0-0.3,0c0,0.1,0,0.1,0,0.2c0,0.9,0,1.8,0,2.7c0,0.2-0.1,0.4-0.2,0.5
					C12.5,41.6,12.2,41.6,12,41.6z"/>
				<path class="st0" d="M11.7,31.9c0-0.8,0.6-1.4,1.5-1.4c0.8,0,1.4,0.7,1.4,1.5s-0.6,1.4-1.5,1.4C12.3,33.4,11.7,32.7,11.7,31.9z"
					/>
			</g>
		</g>
		<g>
			<path class="st0" d="M216.8,41.5L216.8,41.5c-0.3-0.1-0.5-0.2-0.6-0.5c0-0.1,0-0.1,0-0.2c0-0.7,0-1.3,0-2c0-0.8,0-1.5,0-2.3
				c0,0,0,0,0-0.1c-0.6,0-1.1,0-1.7,0c0.6-2,1.2-4,1.8-5.9c-0.1,0-0.1,0-0.1,0h-0.1c0,0,0,0,0,0.1c-0.3,0.9-0.5,1.8-0.8,2.8
				c-0.1,0.2-0.1,0.4-0.2,0.6c-0.1,0.3-0.3,0.4-0.6,0.4c-0.1,0-0.3-0.1-0.4-0.1c-0.2-0.1-0.2-0.3-0.2-0.5s0.1-0.3,0.1-0.5
				c0.3-1,0.6-2,0.9-3.1c0.1-0.3,0.2-0.6,0.4-0.8c0.3-0.3,0.6-0.5,1-0.6c0.1,0,0.1,0,0.2,0c0.7,0,1.3,0,2,0c0.6,0,1.1,0.3,1.5,0.8
				c0.1,0.2,0.2,0.4,0.2,0.6c0.3,1.2,0.7,2.3,1,3.5v0.1c0,0.1,0,0.2,0,0.2l0,0c0,0.1-0.1,0.2-0.2,0.3c-0.1,0.1-0.3,0.2-0.5,0.1
				c-0.2,0-0.3-0.2-0.4-0.4c-0.3-1.1-0.7-2.2-1-3.3c0,0,0,0,0-0.1c-0.1,0-0.2,0-0.3,0c0.6,2,1.2,4,1.8,5.9c-0.1,0-0.3,0-0.4,0
				c-0.1,0-0.3,0-0.4,0s-0.3,0-0.4,0c-0.1,0-0.3,0-0.4,0v0.1c0,1,0,2,0,3c0,0.4,0,0.9,0,1.3c0,0.1,0,0.1,0,0.2
				c-0.1,0.2-0.2,0.4-0.5,0.4h-0.1h-0.1l0,0c-0.3,0-0.6-0.3-0.6-0.7c0-0.8,0-1.6,0-2.3c0-0.6,0-1.3,0-1.9c0,0,0,0,0-0.1
				c-0.1,0-0.2,0-0.3,0c0,0,0,0,0,0.1c0,1.4,0,2.8,0,4.2c0,0.1,0,0.1,0,0.2c-0.1,0.3-0.3,0.4-0.5,0.5l0,0
				C216.9,41.5,216.9,41.5,216.8,41.5z"/>
			<path class="st0" d="M217.8,25.4c0.1,0,0.1,0,0.2,0c0.5,0.1,1,0.4,1.2,0.8c0.3,0.6,0.2,1.3-0.3,1.8c-0.4,0.4-0.9,0.6-1.4,0.5
				c-0.5,0-0.9-0.3-1.2-0.7c-0.2-0.3-0.3-0.6-0.3-1c0-0.6,0.3-1,0.8-1.3c0.2-0.1,0.5-0.2,0.7-0.2c0,0,0,0,0.1,0
				C217.7,25.4,217.7,25.4,217.8,25.4z"/>
			<g>
				<path class="st0" d="M211.6,41.5c-0.2-0.2-0.2-0.4-0.2-0.6c0-0.5,0-1,0-1.4s0-0.9,0-1.3c0,0,0,0,0-0.1c-0.1,0-0.2,0-0.3,0
					c-0.4-0.1-0.7-0.4-0.7-0.8c0-0.9,0-1.8,0-2.7c0-0.5,0.4-0.9,0.9-0.9c0.9,0,1.8,0,2.7,0c0.5,0,0.8,0.4,0.8,0.8c0,0.9,0,1.8,0,2.7
					c0,0.4-0.3,0.8-0.8,0.8c-0.1,0-0.1,0-0.2,0c0,0.2,0,0.3,0,0.5c0,0.8,0,1.7,0,2.5c0,0.2-0.1,0.3-0.2,0.4c-0.2,0-0.4,0-0.7,0
					c-0.1-0.1-0.2-0.3-0.2-0.5c0-0.9,0-1.9,0-2.8V38c-0.1,0-0.2,0-0.3,0c0,0.1,0,0.1,0,0.2c0,0.9,0,1.8,0,2.7c0,0.2-0.1,0.4-0.2,0.5
					C212,41.5,211.8,41.5,211.6,41.5z"/>
				<path class="st0" d="M211.2,31.9c0-0.8,0.6-1.4,1.4-1.4c0.8,0,1.4,0.6,1.4,1.4c0,0.8-0.6,1.4-1.5,1.4
					C211.9,33.4,211.2,32.7,211.2,31.9z"/>
			</g>
			<g>
				<path class="st0" d="M222.2,41.5L222.2,41.5c-0.3-0.2-0.4-0.4-0.4-0.7c0-0.6,0-1.3,0-1.9c0-0.3,0-0.5,0-0.8c-0.2,0-0.3,0-0.5,0
					s-0.4,0-0.6,0c-0.4,0-0.7-0.4-0.6-0.9c0.4-1,0.8-2.1,1.2-3.1c0.1-0.3,0.3-0.4,0.6-0.4c0.5,0,0.9,0,1.4,0c0.3,0,0.5,0.1,0.6,0.4
					c0.4,1,0.8,2.1,1.2,3.1c0.1,0.4-0.1,0.8-0.5,0.9c-0.2,0-0.4,0-0.6,0s-0.4,0-0.7,0v0.1c0,0.8,0,1.7,0,2.5c0,0.3-0.1,0.6-0.4,0.8
					C222.8,41.5,222.5,41.5,222.2,41.5z"/>
				<path class="st0" d="M222.6,33.4c-0.8,0-1.4-0.6-1.4-1.4c0-0.8,0.6-1.4,1.4-1.4c0.8,0,1.4,0.6,1.4,1.4
					C224.1,32.7,223.4,33.4,222.6,33.4z"/>
			</g>
		</g>
	</g>
	<rect x="-0.9" y="41.5" class="st0" width="784" height="3.1"/>
</g>
</svg>
