<?xml version="1.0" encoding="utf-8"?>
<!-- Generator: Adobe Illustrator 19.1.0, SVG Export Plug-In . SVG Version: 6.00 Build 0)  -->
<svg version="1.1" id="Layer_1" xmlns="http://www.w3.org/2000/svg" xmlns:xlink="http://www.w3.org/1999/xlink" x="0px" y="0px"
	 viewBox="0 -4 783 49" style="enable-background:new 0 -4 783 49;" xml:space="preserve">
<style type="text/css">
	.st0{fill:#0075C9;}
	.st1{fill:#C2DAF1;}
</style>
<g>
	<g>
		<g>
			<path class="st0" d="M40.1,19.2c-0.5,0.2-1,0.4-1.6,0.6c1.9-3,3.5-5.9,4.6-9.4c1.1,3.6,2.8,6.6,4.8,9.5c-0.6-0.3-1.2-0.5-1.7-0.8
				c0,0.1-0.1,0.1-0.1,0.2c1.1,2.2,2.1,4.4,3.3,6.8c-0.6-0.3-1.1-0.5-1.7-0.8c1,2.1,2,4,3,6.1c-0.6-0.2-1.1-0.4-1.6-0.6L49,30.9
				c0.9,1.6,1.8,3.2,2.7,4.8c-5.8,1.8-11.6,1.8-17.4,0c0.9-1.7,1.8-3.3,2.8-5c-0.6,0.3-1.2,0.5-1.8,0.7c1-2,1.9-4,2.9-5.9l-0.1-0.1
				c-0.4,0.2-0.9,0.4-1.4,0.6c0.6-1.3,1.2-2.4,1.7-3.6c0.5-0.9,0.9-1.9,1.4-2.8C40,19.5,40,19.3,40.1,19.2L40.1,19.2
				C40.1,19.1,40.1,19.1,40.1,19.2C40.1,19.1,40.1,19.1,40.1,19.2z"/>
			<path class="st0" d="M45.4,41.8c-1.6,0-3.2,0-4.9,0c0.3-0.6,0.8-1.1,1-1.7s0.2-1.4,0.3-2.1c0.6,0,1.2,0,1.9,0
				c0.1,0,0.2,0.1,0.3,0.3C44.5,39.4,44.9,40.6,45.4,41.8z"/>
		</g>
		<g>
			<path class="st0" d="M31.6,25.5c-0.4,0.1-0.9,0.3-1.4,0.5c1.6-2.1,3.1-4.2,4-6.8c1,2.6,2.4,4.7,4.2,6.9c-0.6-0.2-1-0.4-1.5-0.5
				l-0.1,0.1c0.9,1.6,1.9,3.2,2.9,4.9c-0.5-0.2-0.9-0.4-1.5-0.6c0.9,1.5,1.8,2.9,2.6,4.4c-0.5-0.2-0.9-0.3-1.4-0.4l-0.1,0.1
				c0.8,1.1,1.6,2.3,2.4,3.5c-5.1,1.3-10.1,1.3-15.2,0c0.8-1.2,1.6-2.4,2.5-3.6c-0.6,0.2-1,0.3-1.6,0.5c0.9-1.5,1.7-2.8,2.5-4.2
				l-0.1-0.1c-0.4,0.1-0.8,0.3-1.2,0.5c0.5-0.9,1-1.8,1.5-2.6c0.4-0.7,0.8-1.4,1.2-2C31.5,25.7,31.6,25.6,31.6,25.5L31.6,25.5
				C31.6,25.5,31.6,25.4,31.6,25.5L31.6,25.5z"/>
			<path class="st0" d="M36.3,41.8c-1.4,0-2.8,0-4.3,0c0.3-0.4,0.7-0.8,0.9-1.3c0.2-0.4,0.2-1,0.2-1.5c0.5,0,1.1,0,1.6,0
				c0.1,0,0.2,0.1,0.2,0.2C35.4,40,35.8,40.9,36.3,41.8z"/>
		</g>
		<g>
			<g>
				<path class="st0" d="M187.1,42.6c-0.9,0-1.6,0-2.4,0c0-0.4,0-0.7,0-1c0-3.9,0-7.8,0-11.7c0-0.7-0.6-1.5-1.1-1.3
					c-0.6,0.2-1,0.5-1,1.3c0.1,3.9,0,7.8,0,11.7c0,0.3,0,0.7,0,1c-0.9,0-1.7,0-2.6,0c0-4.2,0-8.4,0-12.7c-1.1-0.1-2-0.2-3-0.3
					c0,2,0,4,0,6.1c-0.8,0-1.6,0-2.5,0c0-2,0-4.1,0-6.2c-7.9,2.3-12-4.1-11-8.9c-2.4-1.1-4.2-2.7-5-5.4c-1-3.5,0.6-7.6,3.8-9.2
					c0.8-0.4,1.2-0.7,1.1-1.7c-0.2-4.4,3.3-8.2,7.8-8.2c1.8,0,3.4,0.4,4.8,1.4c0.4,0.3,0.7,0.3,1.2-0.1c2.7-2,7.3-1.9,9.9,0.6
					c1.1,1,1.8,2.2,2.4,3.6c0.1,0.3,0.4,0.6,0.7,0.7c2.5,0.8,4.5,3.5,4.4,6.3c0,0.8,0.3,1.1,0.9,1.5c1.9,1.2,3,2.8,3.2,5.2
					c0.2,3-1.2,5.1-3.7,6.6c-0.3,0.2-0.4,0.7-0.4,1.1c-0.1,1.9-0.6,3.5-2,4.8c-1.2,1.2-2.7,1.9-4.4,1.8c-0.3,0-0.6,0-1,0
					C187.1,34.1,187.1,38.3,187.1,42.6z M191.9,8.8c-0.1-1.7-1.1-3.2-2.6-3.8c-1.7-0.7-3.1-0.3-4.4,0.9c-1.2,1.1-1.5,1.2-2.7,0
					c-0.7-0.7-1.6-1.2-2.7-1.2c-2.6,0-4.9,2.2-4.1,5.3c0.3,1.2,0,1.8-1.2,2.1c-1.6,0.3-3.1,2.2-3.2,3.9c-0.1,1.8,1.4,3.7,3.2,4.1
					c1.2,0.3,1.5,0.8,1.2,2c-0.1,0.6-0.2,1.3-0.1,1.9c0.2,1.7,1.2,2.7,2.7,3.3c1.5,0.6,2.9,0.1,4.1-0.9c1.3-1.2,1.7-1.2,2.9,0
					c1.3,1.3,3.2,1.5,4.7,0.6c1.8-1.1,2.6-2.9,2-4.7c-0.4-1.4-0.2-1.8,1.3-2.2c2.2-0.6,3.6-3.2,2.8-5.2c-0.6-1.4-1.5-2.5-3.1-2.8
					c-1.1-0.2-1.5-0.9-1.1-2C191.8,9.6,191.9,9.2,191.9,8.8z M186.8,2c-0.3-0.5-0.7-1-1-1.6c-0.1-0.1-0.2-0.2-0.3-0.3
					c-2.4-2-5.4-2-7.7,0.3c-0.9,0.9-1.7,0.8-2.6-0.1c-1.3-1.4-2.9-2-4.8-1.6c-3.2,0.7-5.3,3.8-4.2,7.2c0.3,1,0,1.6-1.1,1.8
					c-2.6,0.7-4.4,2.7-4.4,5.5c0,2.4,1.8,4.5,4.4,5.2c1.2,0.3,1.4,0.8,1,1.9c-0.8,2.5,0.2,5.1,2.5,6.4c1.7,1,3.7,1.1,4.8,0.2
					c-0.2-1.4-0.4-2.7-0.7-4c-0.1-0.4-0.3-0.8-0.5-1c-1.1-0.6-2-1.4-2.7-2.5c-2-3.2-0.7-7.7,2.4-9.3c0.7-0.3,0.9-0.7,0.8-1.4
					c-0.1-1.3,0.3-2.5,1-3.6c2.1-3.2,6.3-4,9.4-2c0.2,0.1,0.6,0.2,0.8,0.1C184.8,2.9,185.8,2.4,186.8,2z"/>
				<path class="st0" d="M175.6,39.3c0,1.2,0,2.2,0,3.3c-0.9,0-1.7,0-2.6,0c0-0.9,0-1.8,0-2.7c0-0.5-0.1-0.7-0.7-0.8
					c-2.6-0.4-5.1-1.4-7-3.2c-3.2-2.9-6.2-6-9.3-9c-0.2-0.2-0.5-0.5-0.8-0.8c0,5.6,0,11,0,16.5c-0.8,0-1.6,0-2.4,0
					c0-2.6,0-5.2,0-7.9c-3.4,0-6.6,0-10,0c0,2.6,0,5.2,0,7.9c-0.9,0-1.7,0-2.6,0c0-0.3,0-0.6,0-1c0-9.2,0-18.4,0-27.6
					c0-1.9,0.4-2.2,2.3-2.2c3.6,0,7.2,0,10.8,0c1.7,0,2,0.3,2,2c0,2.7,0,5.3,0,8c0,0.4,0.2,0.8,0.5,1.1c3.1,3.1,6.2,6.3,9.4,9.4
					c2.2,2.1,4.6,3.8,7.7,4.3c1.6,0.2,3.2,0.2,4.8,0.3c1.1,0.1,1.7,1,1.1,1.9c-0.2,0.3-0.6,0.5-0.9,0.5
					C177.1,39.4,176.3,39.3,175.6,39.3z M142.8,24.7c0,2.6,0,5.1,0,7.5c3.4,0,6.6,0,9.9,0c0-2.5,0-5,0-7.5c-0.2,0-0.3,0-0.5,0
					C149.1,24.7,145.9,24.7,142.8,24.7z M150.8,22.2c0-1.3,0.1-2.5,0-3.7c-0.1-1.4-1.4-2.5-2.7-2.6c-1.7-0.2-3,1.2-3.1,2.3
					c-0.2,1.3,0,2.7,0,4.1c0.5,0,0.8,0,1.1,0C147.4,22.2,149.1,22.2,150.8,22.2z"/>
				<path class="st0" d="M125.3,34.6c0-5.1,0-10.3,0-15.4c-2.3,0-4.5,0-7,0c0,5.1,0,10.3,0,15.5c0.9,0,1.3,0.4,1.4,1.1
					c0.1,0.7-0.3,1.1-0.9,1.4c-3.2,1.4-6.3,1.4-9.5-0.1c-0.4-0.2-0.8-0.9-0.8-1.4c0-0.4,0.6-0.8,1-1.2c0.1,0.1,0.2,0.1,0.3,0.2
					c0-5.2,0-10.3,0-15.5c-0.9,0-1.6,0-2.5,0c0,7.8,0,15.6,0,23.5c-0.9,0-1.6,0-2.5,0c0-0.3,0-0.6,0-0.9c0-7.9,0-15.8,0-23.7
					c0-1.2,0.3-1.5,1.5-1.5c10.2,0,20.5,0,30.7,0c1.2,0,1.7,0.5,1.7,1.7c0,7.8,0,15.7,0,23.5c0,0.3,0,0.6,0,1c-0.9,0-1.7,0-2.6,0
					c0-7.8,0-15.6,0-23.5c-0.9,0-1.6,0-2.5,0c0,5.2,0,10.3,0,15.5c0.1-0.1,0.2-0.1,0.3-0.2c0.3,0.4,0.8,0.7,1,1.2
					c0.3,0.8-0.2,1.3-0.9,1.6c-2.9,1.2-5.8,1.2-8.8,0.2c-0.5-0.2-1.1-0.6-1.4-1.1C123.6,35.5,124.1,34.8,125.3,34.6z M111,19.1
					c0,0.5,0.2,1,0.1,1.4c-0.3,0.7,0,1.4,0,2.2c0,0.8-0.2,1.7,0,2.5c0.1,0.5-0.3,1.1-0.3,1.6c0,0.9,0.1,1.8,0.2,2.7
					c0,0.5,0.1,1.1,0.1,1.6c0,0.6-0.1,1.2-0.1,1.9c0,0.7,0,1.3,0,2.1c1.7,0.8,4.7,0.8,6.1-0.1c0-5.3,0-10.6,0-15.9
					C115,19.1,113.2,19.1,111,19.1z M132.6,19.1c-2.1,0-4.1,0-6.2,0c0,5.3,0,10.6,0,15.9c2,0.8,4.2,0.8,6.2,0
					C132.6,29.7,132.6,24.4,132.6,19.1z"/>
				<path class="st0" d="M147.8,10.9c-2,0-4,0-5.9,0c-0.5,0-1.2-0.3-1.4-0.7c-0.3-0.6-0.2-1.2,0.4-1.8c1.9-1.8,3.7-3.7,5.6-5.6
					c0.9-0.9,1.7-0.9,2.6,0c1.8,1.8,3.7,3.7,5.5,5.5c0.6,0.6,0.9,1.3,0.5,1.9c-0.2,0.4-1,0.6-1.5,0.7
					C151.6,11,149.8,10.9,147.8,10.9z M147.8,5.4c-1,1-1.9,1.9-2.8,2.8c1.8,0,3.7,0,5.6,0C149.6,7.3,148.8,6.3,147.8,5.4z"/>
				<path class="st1" d="M191.9,8.8c-0.1,0.4-0.1,0.8-0.3,1.2c-0.4,1.1,0.1,1.8,1.1,2c1.6,0.3,2.6,1.3,3.1,2.8
					c0.8,2-0.7,4.7-2.8,5.2c-1.5,0.4-1.8,0.8-1.3,2.2c0.5,1.7-0.3,3.6-2,4.7c-1.5,0.9-3.4,0.7-4.7-0.6c-1.2-1.2-1.6-1.2-2.9,0
					c-1.2,1.1-2.6,1.5-4.1,0.9s-2.5-1.6-2.7-3.3c-0.1-0.6,0-1.3,0.1-1.9c0.2-1.2-0.1-1.7-1.2-2c-1.8-0.4-3.3-2.3-3.2-4.1
					c0-1.6,1.6-3.6,3.2-3.9c1.2-0.2,1.5-0.8,1.2-2.1c-0.8-3.1,1.5-5.4,4.1-5.3c1,0,1.9,0.5,2.7,1.2c1.2,1.2,1.5,1.1,2.7,0
					c1.3-1.2,2.8-1.6,4.4-0.9S191.9,7.1,191.9,8.8z"/>
				<path class="st1" d="M186.8,2c-1,0.5-1.9,0.9-2.8,1.3c-0.2,0.1-0.6,0-0.8-0.1c-3.1-2-7.4-1.2-9.4,2c-0.7,1.1-1.1,2.3-1,3.6
					c0.1,0.7-0.2,1.1-0.8,1.4c-3.1,1.5-4.5,6-2.4,9.3c0.7,1.1,1.6,1.9,2.7,2.5c0.3,0.2,0.5,0.6,0.5,1c0.3,1.3,0.4,2.6,0.7,4
					c-1.1,0.9-3.1,0.8-4.8-0.2c-2.2-1.3-3.2-3.9-2.5-6.4c0.4-1.2,0.1-1.6-1-1.9c-2.6-0.7-4.4-2.8-4.4-5.2c0-2.9,1.7-4.8,4.4-5.5
					c1.1-0.3,1.5-0.8,1.1-1.8c-1.1-3.4,0.9-6.5,4.2-7.2c1.9-0.4,3.5,0.3,4.8,1.6c0.9,0.9,1.7,1,2.6,0.1c2.3-2.3,5.3-2.3,7.7-0.3
					c0.1,0.1,0.2,0.2,0.3,0.3C186.1,0.9,186.4,1.5,186.8,2z"/>
				<path class="st1" d="M150.8,22.2c-1.7,0-3.2,0-4.8,0c-0.3,0-0.7,0-1.1,0c0-1.4-0.1-2.7,0-4.1c0.1-1,1.4-2.4,3.1-2.3
					c1.4,0.1,2.6,1.3,2.7,2.6C150.8,19.7,150.8,20.9,150.8,22.2z"/>
				<path class="st1" d="M147.8,5.4c0.8,0.9,1.8,1.8,2.7,2.8c-1.9,0-3.8,0-5.6,0C145.9,7.4,146.8,6.4,147.8,5.4z"/>
			</g>
		</g>
		<g>
			<path class="st0" d="M272.2,42.1c-0.5-0.1-0.9-0.2-1.3-0.4c-1.1-0.6-1.8-1.5-1.9-2.7c0-0.3,0-0.6,0-1c0-0.1,0-0.1-0.1-0.2
				c-0.3-0.2-0.7-0.5-1.1-0.7l0,0c0,0.3,0,0.6,0,0.9c0,0.7,0.1,1.5,0.1,2.2c0,0.2-0.1,0.3-0.2,0.3c-0.2,0-0.3-0.1-0.3-0.2
				c-0.1-0.3-0.1-0.6-0.2-1c-0.2-1.2-0.4-2.3-0.6-3.5c0,0,0-0.1-0.1-0.1c-0.5-0.6-0.8-1.2-1.1-1.9c-0.3,0.6-0.5,1.2-0.8,1.8
				c0.2,0.2,0.4,0.4,0.6,0.7c1.7,2.2,0.4,5.3-2.3,5.7c-2,0.3-3.8-1.1-4.1-3c0-0.1,0-0.3-0.1-0.4c0-0.1,0-0.1,0-0.2v-0.1
				c0-0.9,0.4-1.6,1-2.2c1-1,2.1-1.3,3.5-1c0.2,0,0.4,0.1,0.7,0.2c0.2-0.5,0.5-1.1,0.7-1.7c0.2-0.4,0.3-0.9,0.4-1.3
				c0.1-0.2,0.2-0.3,0.4-0.4c0.8-0.1,1.5-0.3,2.3-0.4c0.2,0,0.3-0.1,0.4-0.2c0.6-0.6,1.1-1.2,1.7-1.9c0.3-0.3,0.7-0.5,1.2-0.3
				c0.4,0.1,0.6,0.5,0.6,1c0,1.1,0,2.2,0,3.3c0,0.4-0.2,0.7-0.5,0.9c-1,0.6-2.1,1.3-3.1,1.9c0,0-0.1,0-0.1,0.1
				c0.4,0.3,0.9,0.7,1.3,1c0.1-0.1,0.1-0.3,0.2-0.4c0.7-1.1,1.7-1.8,3-1.8c0.8,0,1.5,0.2,2.2,0.6c1.2,0.9,1.7,2,1.5,3.5
				c-0.2,1.3-0.9,2.3-2.2,2.8c-0.3,0.1-0.7,0.2-1,0.3C272.6,42.1,272.4,42.1,272.2,42.1z M262.9,38.5c-0.1,0.1-0.2,0.2-0.3,0.3
				c-0.2,0.2-0.4,0.2-0.6,0.1c-0.2-0.1-0.2-0.4,0-0.6c0.5-0.7,1-1.4,1.4-2.1c0,0,0-0.1,0.1-0.1c-1.3-0.6-2.9,0-3.6,1.2
				c-0.7,1.3-0.2,2.9,1.1,3.7c1.2,0.7,2.9,0.3,3.7-0.9c0.8-1.2,0.5-2.8-0.5-3.6C263.8,37.1,263.3,37.8,262.9,38.5z M271.9,41.3
				c1.5,0.3,2.9-0.6,3.3-2.1c0.3-1.4-0.6-2.9-1.9-3.3c-1.5-0.4-2.9,0.5-3.4,1.7c0.3,0.1,0.5,0.2,0.8,0.3c0.6,0.2,1.2,0.3,1.8,0.4
				c0.3,0,0.5,0.2,0.4,0.4c0,0.2-0.2,0.4-0.5,0.4c-0.9-0.1-1.8-0.3-2.6-0.6h-0.1C269.6,39.6,270.4,41,271.9,41.3z M268.1,32.4
				c-0.1,0-0.1,0.1-0.2,0.1c-0.6,0-1.3,0-1.9,0c-0.1,0-0.1,0-0.2,0c0.2,1,0.6,1.9,1.1,2.7c0.4-0.3,0.7-0.6,1.1-0.9
				c0.5-0.4,0.9-0.8,1.4-1.2c0,0,0.1-0.1,0.1-0.2c0-0.5,0-0.9,0-1.4c0,0,0,0,0-0.1C269,31.8,268.6,32.1,268.1,32.4z"/>
			<path class="st0" d="M269.4,25.6c-0.4,0.1-0.8,0.3-1,0.7c-0.4,0.6-0.4,1.4,0,2c0.5,0.6,1.3,0.8,2,0.4c0.6-0.3,1-1,0.9-1.6
				c-0.1-0.7-0.6-1.3-1.3-1.4c0,0,0,0-0.1,0C269.7,25.6,269.6,25.6,269.4,25.6z"/>
			<path class="st0" d="M262.5,32c-0.4,0-0.7,0-1.1,0s-0.5,0.2-0.4,0.6c0.1,0.5,0.2,1.1,0.3,1.6c0,0.2,0.2,0.4,0.4,0.4
				c0.5,0,1,0,1.5,0c0.2,0,0.4-0.1,0.4-0.3c0.2-0.6,0.3-1.2,0.4-1.7c0.1-0.3-0.1-0.5-0.4-0.5C263.2,32,262.9,32,262.5,32L262.5,32z"
				/>
		</g>
		<g>
			<g>
				<path class="st0" d="M96.5,30.8C96.5,30.7,96.5,30.7,96.5,30.8c0.1-0.5,0.3-0.9,0.7-1.2c0.3-0.2,0.6-0.3,1-0.3c1,0,2,0,2.9,0
					c0.6,0,1.1,0.3,1.5,0.8c0.2,0.3,0.2,0.5,0.2,0.8c0,1.2,0,2.3,0,3.5c0,0.2,0,0.3,0,0.5c0,0.3-0.2,0.5-0.5,0.6s-0.6-0.1-0.7-0.4
					c0-0.1,0-0.1,0-0.2c0-1.2,0-2.3,0-3.5c0,0,0,0,0-0.1c0,0-0.2,0-0.3,0l0,0c0,0,0,0,0,0.1c0,3.3,0,6.6,0,9.9
					c0,0.3-0.1,0.5-0.3,0.6c-0.1,0.1-0.2,0.1-0.3,0.1l0,0c-0.1,0-0.2,0-0.2,0l0,0c-0.1,0-0.3-0.1-0.4-0.2c-0.2-0.2-0.2-0.3-0.2-0.6
					c0-1.6,0-3.2,0-4.9c0-0.3,0-0.6,0-0.9c0,0,0,0,0-0.1c-0.1,0-0.2,0-0.3,0v0.1c0,1.9,0,3.8,0,5.7v0.1c0,0.3-0.3,0.6-0.6,0.6h-0.1
					c-0.1,0-0.1,0-0.2,0l0,0c-0.2,0-0.3-0.1-0.4-0.2s-0.2-0.3-0.2-0.5c0-3.3,0-6.6,0-9.9c0,0,0,0,0-0.1l0,0c-0.1,0-0.3,0-0.3,0
					s0,0,0,0.1c0,0.7,0,1.3,0,2c0,0.5,0,1,0,1.5c0,0.1,0,0.1,0,0.2c-0.1,0.2-0.3,0.4-0.5,0.4c-0.3,0-0.5-0.2-0.6-0.4l0,0
					C96.5,33.6,96.5,32.2,96.5,30.8z"/>
				<path class="st0" d="M99.8,25.7c0.1,0,0.1,0,0.2,0c0.6,0.2,1.1,0.5,1.3,1.2c0.2,0.7-0.1,1.4-0.7,1.8c-0.8,0.5-1.8,0.3-2.3-0.5
					c-0.5-0.7-0.2-1.7,0.5-2.2c0.2-0.1,0.5-0.2,0.7-0.3c0,0,0,0,0.1,0C99.8,25.7,99.8,25.7,99.8,25.7z"/>
			</g>
			<g>
				<path class="st0" d="M86.6,30.8C86.6,30.7,86.6,30.7,86.6,30.8c0.1-0.5,0.3-0.9,0.7-1.2c0.3-0.2,0.6-0.3,1-0.3c1,0,2,0,2.9,0
					c0.6,0,1.1,0.3,1.5,0.8c0.2,0.3,0.2,0.5,0.2,0.8c0,1.2,0,2.3,0,3.5c0,0.2,0,0.3,0,0.5c0,0.3-0.2,0.5-0.5,0.6s-0.6-0.1-0.7-0.4
					c0-0.1,0-0.1,0-0.2c0-1.2,0-2.3,0-3.5c0,0,0,0,0-0.1c0,0-0.2,0-0.3,0l0,0c0,0,0,0,0,0.1c0,3.3,0,6.6,0,9.9
					c0,0.3-0.1,0.5-0.3,0.6C91,42,90.9,42,90.8,42l0,0c-0.1,0-0.2,0-0.2,0l0,0c-0.1,0-0.3-0.1-0.4-0.2C90,41.6,90,41.5,90,41.2
					c0-1.6,0-3.2,0-4.9c0-0.3,0-0.6,0-0.9c0,0,0,0,0-0.1c-0.1,0-0.2,0-0.3,0v0.1c0,1.9,0,3.8,0,5.7v0.1c0,0.3-0.3,0.6-0.6,0.6H89
					c-0.1,0-0.1,0-0.2,0l0,0c-0.2,0-0.3-0.1-0.4-0.2s-0.2-0.3-0.2-0.5c0-3.3,0-6.6,0-9.9c0,0,0,0,0-0.1l0,0c-0.1,0-0.3,0-0.3,0
					s0,0,0,0.1c0,0.7,0,1.3,0,2c0,0.5,0,1,0,1.5c0,0.1,0,0.1,0,0.2c-0.1,0.2-0.3,0.4-0.5,0.4c-0.3,0-0.5-0.2-0.6-0.4l0,0
					C86.6,33.6,86.6,32.2,86.6,30.8z"/>
				<path class="st0" d="M89.9,25.7c0.1,0,0.1,0,0.2,0c0.6,0.2,1.1,0.5,1.3,1.2c0.2,0.7-0.1,1.4-0.7,1.8c-0.8,0.5-1.8,0.3-2.3-0.5
					c-0.5-0.7-0.2-1.7,0.5-2.2c0.2-0.1,0.5-0.2,0.7-0.3c0,0,0,0,0.1,0C89.8,25.7,89.8,25.7,89.9,25.7z"/>
			</g>
			<g>
				<path class="st0" d="M93.6,42c-0.2-0.2-0.2-0.4-0.2-0.6c0-0.5,0-1,0-1.4s0-0.9,0-1.3c0,0,0,0,0-0.1c-0.1,0-0.2,0-0.3,0
					c-0.4-0.1-0.7-0.4-0.7-0.8c0-0.9,0-1.8,0-2.7c0-0.5,0.4-0.9,0.9-0.9c0.9,0,1.8,0,2.7,0c0.5,0,0.9,0.4,0.9,0.8c0,0.9,0,1.8,0,2.7
					c0,0.4-0.3,0.8-0.8,0.8c-0.1,0-0.1,0-0.2,0c0,0.2,0,0.3,0,0.5c0,0.8,0,1.7,0,2.5c0,0.2-0.1,0.3-0.2,0.4c-0.2,0-0.5,0-0.7,0
					c-0.1-0.1-0.2-0.3-0.2-0.5c0-1,0-1.9,0-2.9v-0.1c-0.1,0-0.2,0-0.3,0c0,0.1,0,0.1,0,0.2c0,0.9,0,1.8,0,2.8c0,0.2-0.1,0.4-0.2,0.5
					C94.1,42,93.9,42,93.6,42z"/>
				<path class="st0" d="M93.3,32.3c0-0.8,0.7-1.5,1.5-1.5s1.5,0.7,1.4,1.5c0,0.8-0.7,1.4-1.5,1.4C93.9,33.8,93.3,33.1,93.3,32.3z"
					/>
			</g>
		</g>
		<g>
			<path class="st0" d="M198.3,41.8C198.3,41.8,198.2,41.8,198.3,41.8c-0.3-0.1-0.5-0.2-0.6-0.5c0-0.1,0-0.1,0-0.2c0-0.7,0-1.3,0-2
				c0-0.8,0-1.5,0-2.3c0,0,0,0,0-0.1c-0.6,0-1.1,0-1.7,0c0.6-2,1.2-4,1.8-6c-0.1,0-0.1,0-0.1,0h-0.1c0,0,0,0,0,0.1
				c-0.3,0.9-0.6,1.8-0.8,2.8c-0.1,0.2-0.1,0.4-0.2,0.6c-0.1,0.3-0.3,0.4-0.6,0.4c-0.1,0-0.3-0.1-0.4-0.1c-0.2-0.1-0.2-0.3-0.2-0.5
				c0-0.2,0.1-0.3,0.1-0.5c0.3-1,0.6-2.1,0.9-3.1c0.1-0.3,0.2-0.6,0.4-0.8c0.3-0.3,0.6-0.5,1-0.6c0.1,0,0.1,0,0.2,0c0.7,0,1.3,0,2,0
				c0.6,0,1.1,0.3,1.5,0.8c0.1,0.2,0.2,0.4,0.2,0.6c0.3,1.2,0.7,2.3,1,3.5V34c0,0.1,0,0.2,0,0.2l0,0c0,0.1-0.1,0.2-0.2,0.3
				c-0.1,0.1-0.3,0.2-0.5,0.1c-0.2,0-0.4-0.2-0.4-0.4c-0.3-1.1-0.7-2.2-1-3.4c0,0,0,0,0-0.1c-0.1,0-0.2,0-0.3,0c0.6,2,1.2,4,1.8,6
				c-0.1,0-0.3,0-0.4,0c-0.1,0-0.3,0-0.4,0c-0.1,0-0.3,0-0.4,0c-0.1,0-0.3,0-0.4,0v0.1c0,1,0,2,0,3c0,0.4,0,0.9,0,1.3
				c0,0.1,0,0.1,0,0.2c-0.1,0.2-0.2,0.4-0.5,0.4h-0.1h-0.1l0,0c-0.3,0-0.6-0.3-0.6-0.7c0-0.8,0-1.6,0-2.3c0-0.6,0-1.3,0-1.9
				c0,0,0,0,0-0.1c-0.1,0-0.2,0-0.3,0c0,0,0,0,0,0.1c0,1.4,0,2.8,0,4.2c0,0.1,0,0.1,0,0.2C198.8,41.5,198.6,41.6,198.3,41.8
				L198.3,41.8C198.4,41.8,198.3,41.8,198.3,41.8z"/>
			<path class="st0" d="M199.2,25.6c0.1,0,0.1,0,0.2,0c0.5,0.1,1,0.4,1.2,0.9c0.3,0.6,0.2,1.3-0.3,1.8c-0.4,0.4-0.9,0.6-1.4,0.5
				c-0.5,0-0.9-0.3-1.2-0.7c-0.2-0.3-0.3-0.6-0.3-1c0-0.6,0.3-1,0.8-1.3c0.2-0.1,0.5-0.2,0.7-0.2c0,0,0,0,0.1,0
				C199.1,25.6,199.2,25.6,199.2,25.6z"/>
			<g>
				<path class="st0" d="M193.6,41.8c-0.2-0.2-0.2-0.4-0.2-0.6c0-0.5,0-1,0-1.4s0-0.9,0-1.3c0,0,0,0,0-0.1c-0.1,0-0.2,0-0.3,0
					c-0.4-0.1-0.7-0.4-0.7-0.8c0-0.9,0-1.8,0-2.7c0-0.5,0.4-0.9,0.9-0.9c0.9,0,1.8,0,2.7,0c0.5,0,0.8,0.4,0.8,0.8c0,0.9,0,1.8,0,2.7
					c0,0.4-0.3,0.8-0.8,0.8c-0.1,0-0.1,0-0.2,0c0,0.2,0,0.3,0,0.5c0,0.8,0,1.7,0,2.5c0,0.2-0.1,0.3-0.2,0.4c-0.2,0-0.4,0-0.7,0
					c-0.1-0.1-0.2-0.3-0.2-0.5c0-0.9,0-1.9,0-2.8v-0.1c-0.1,0-0.2,0-0.3,0c0,0.1,0,0.1,0,0.2c0,0.9,0,1.8,0,2.7
					c0,0.2-0.1,0.4-0.2,0.5C193.9,41.8,193.8,41.8,193.6,41.8z"/>
				<path class="st0" d="M193.1,32.2c0-0.8,0.6-1.4,1.4-1.4c0.8,0,1.4,0.7,1.4,1.5c0,0.8-0.6,1.4-1.5,1.4
					C193.8,33.6,193.1,33,193.1,32.2z"/>
			</g>
		</g>
		<g>
			<g>
				<path class="st0" d="M5.2,30.6C5.2,30.5,5.2,30.5,5.2,30.6c0.1-0.5,0.3-0.9,0.7-1.2c0.3-0.2,0.6-0.3,1-0.3c1,0,2,0,2.9,0
					c0.6,0,1.1,0.3,1.5,0.8c0.2,0.3,0.2,0.5,0.2,0.8c0,1.2,0,2.3,0,3.5c0,0.2,0,0.3,0,0.5c0,0.3-0.2,0.5-0.5,0.6s-0.6-0.1-0.7-0.4
					c0-0.1,0-0.1,0-0.2c0-1.2,0-2.3,0-3.5c0,0,0,0,0-0.1c0,0-0.2,0-0.3,0l0,0c0,0,0,0,0,0.1c0,3.3,0,6.6,0,9.8
					c0,0.3-0.1,0.5-0.3,0.6c-0.1,0.1-0.2,0.1-0.3,0.1l0,0c-0.1,0-0.2,0-0.2,0l0,0c-0.1,0-0.3-0.1-0.4-0.2c-0.2-0.2-0.2-0.3-0.2-0.6
					c0-1.6,0-3.2,0-4.8c0-0.3,0-0.6,0-0.8c0,0,0,0,0-0.1c-0.1,0-0.2,0-0.3,0v0.1c0,1.9,0,3.8,0,5.7v0.1c0,0.3-0.3,0.6-0.6,0.6
					c0,0,0,0-0.1,0s-0.1,0-0.2,0l0,0c-0.2,0-0.3-0.1-0.4-0.2S6.8,41.2,6.8,41c0-3.3,0-6.6,0-9.8c0,0,0,0,0-0.1l0,0
					c-0.1,0-0.3,0-0.3,0s0,0,0,0.1c0,0.7,0,1.3,0,2c0,0.5,0,1,0,1.5c0,0.1,0,0.1,0,0.2c-0.2,0.1-0.4,0.3-0.7,0.3
					c-0.3,0-0.5-0.2-0.6-0.4l0,0C5.2,33.3,5.2,31.9,5.2,30.6z"/>
				<path class="st0" d="M8.5,25.6c0.1,0,0.1,0,0.2,0c0.6,0.2,1.1,0.5,1.2,1.2c0.2,0.7-0.1,1.4-0.7,1.8c-0.8,0.5-1.8,0.3-2.3-0.5
					c-0.4-0.9-0.2-1.8,0.5-2.3c0.2-0.1,0.5-0.2,0.7-0.3c0,0,0,0,0.1,0C8.3,25.6,8.4,25.6,8.5,25.6z"/>
			</g>
			<path class="st0" d="M17.8,41.7C17.7,41.7,17.7,41.7,17.8,41.7c-0.3-0.1-0.5-0.2-0.6-0.5c0-0.1,0-0.1,0-0.2c0-0.7,0-1.3,0-2
				c0-0.8,0-1.5,0-2.3c0,0,0,0,0-0.1c-0.6,0-1.1,0-1.7,0c0.6-2,1.2-4,1.8-6c-0.1,0-0.1,0-0.1,0h-0.1c0,0,0,0,0,0.1
				c-0.3,0.9-0.6,1.8-0.8,2.8c-0.1,0.2-0.1,0.4-0.2,0.6c-0.1,0.3-0.3,0.4-0.6,0.4c-0.1,0-0.3-0.1-0.4-0.1c-0.2-0.1-0.2-0.3-0.2-0.5
				c0-0.2,0.1-0.3,0.1-0.5c0.3-1,0.6-2.1,0.9-3.1c0.1-0.3,0.2-0.6,0.4-0.8c0.3-0.3,0.6-0.5,1-0.6c0.1,0,0.1,0,0.2,0c0.7,0,1.3,0,2,0
				c0.6,0,1.1,0.3,1.5,0.8c0.1,0.2,0.2,0.4,0.2,0.6c0.3,1.2,0.7,2.3,1,3.5v0.1c0,0.1,0,0.2,0,0.2l0,0c0,0.1-0.1,0.2-0.2,0.3
				s-0.3,0.2-0.5,0.1c-0.2,0-0.4-0.2-0.4-0.4c-0.3-1.1-0.7-2.2-1-3.4c0,0,0,0,0-0.1c-0.1,0-0.2,0-0.3,0c0.6,2,1.2,4,1.8,6
				c-0.1,0-0.3,0-0.4,0s-0.3,0-0.4,0s-0.3,0-0.4,0s-0.3,0-0.4,0v0.1c0,1,0,2,0,3c0,0.4,0,0.9,0,1.3c0,0.1,0,0.1,0,0.2
				c-0.1,0.2-0.2,0.4-0.5,0.4h-0.1h-0.1l0,0c-0.3,0-0.6-0.3-0.6-0.7c0-0.8,0-1.6,0-2.3c0-0.6,0-1.3,0-1.9c0,0,0,0,0-0.1
				c-0.1,0-0.2,0-0.3,0c0,0,0,0,0,0.1c0,1.4,0,2.8,0,4.3c0,0.1,0,0.1,0,0.2c-0.1,0.3-0.3,0.4-0.5,0.5l0,0H17.8z"/>
			<path class="st0" d="M18.7,25.4c0.1,0,0.1,0,0.2,0c0.6,0.1,1,0.4,1.2,0.9c0.3,0.6,0.2,1.3-0.3,1.8c-0.4,0.4-0.9,0.6-1.4,0.5
				c-0.5,0-0.9-0.3-1.2-0.7c-0.2-0.3-0.3-0.6-0.3-1c0-0.6,0.3-1,0.8-1.3c0.2-0.1,0.5-0.2,0.7-0.2c0,0,0,0,0.1,0
				C18.6,25.4,18.7,25.4,18.7,25.4z"/>
			<g>
				<path class="st0" d="M12.3,41.8c-0.2-0.2-0.2-0.4-0.2-0.6c0-0.5,0-1,0-1.4s0-0.9,0-1.3c0,0,0,0,0-0.1c-0.1,0-0.2,0-0.3,0
					c-0.4-0.1-0.7-0.4-0.7-0.8c0-0.9,0-1.8,0-2.7c0-0.5,0.4-0.9,0.9-0.9c0.9,0,1.8,0,2.7,0c0.5,0,0.8,0.4,0.8,0.8c0,0.9,0,1.8,0,2.7
					c0,0.4-0.3,0.8-0.8,0.8c-0.1,0-0.1,0-0.2,0c0,0.2,0,0.3,0,0.5c0,0.8,0,1.7,0,2.5c0,0.2-0.1,0.3-0.2,0.4c-0.2,0-0.4,0-0.7,0
					c-0.1-0.1-0.2-0.3-0.2-0.5c0-1,0-1.9,0-2.9v-0.1c-0.1,0-0.2,0-0.3,0c0,0.1,0,0.1,0,0.2c0,0.9,0,1.8,0,2.7c0,0.2-0.1,0.4-0.2,0.5
					C12.8,41.8,12.5,41.8,12.3,41.8z"/>
				<path class="st0" d="M12,32.1c0-0.8,0.6-1.4,1.5-1.4c0.8,0,1.4,0.7,1.4,1.5c0,0.8-0.6,1.4-1.5,1.4C12.6,33.6,12,32.9,12,32.1z"
					/>
			</g>
		</g>
		<g>
			<path class="st0" d="M216.8,41.7L216.8,41.7c-0.3-0.1-0.5-0.2-0.6-0.5c0-0.1,0-0.1,0-0.2c0-0.7,0-1.3,0-2c0-0.8,0-1.5,0-2.3
				c0,0,0,0,0-0.1c-0.6,0-1.1,0-1.7,0c0.6-2,1.2-4,1.8-5.9c-0.1,0-0.1,0-0.1,0h-0.1c0,0,0,0,0,0.1c-0.3,0.9-0.5,1.8-0.8,2.8
				c-0.1,0.2-0.1,0.4-0.2,0.6c-0.1,0.3-0.3,0.4-0.6,0.4c-0.1,0-0.3-0.1-0.4-0.1c-0.2-0.1-0.2-0.3-0.2-0.5c0-0.2,0.1-0.3,0.1-0.5
				c0.3-1,0.6-2,0.9-3.1c0.1-0.3,0.2-0.6,0.4-0.8c0.3-0.3,0.6-0.5,1-0.6c0.1,0,0.1,0,0.2,0c0.7,0,1.3,0,2,0c0.6,0,1.1,0.3,1.5,0.8
				c0.1,0.2,0.2,0.4,0.2,0.6c0.3,1.2,0.7,2.3,1,3.5V34c0,0.1,0,0.2,0,0.2l0,0c0,0.1-0.1,0.2-0.2,0.3c-0.1,0.1-0.3,0.2-0.5,0.1
				c-0.2,0-0.3-0.2-0.4-0.4c-0.3-1.1-0.7-2.2-1-3.3c0,0,0,0,0-0.1c-0.1,0-0.2,0-0.3,0c0.6,2,1.2,4,1.8,5.9c-0.1,0-0.3,0-0.4,0
				c-0.1,0-0.3,0-0.4,0c-0.1,0-0.3,0-0.4,0c-0.1,0-0.3,0-0.4,0v0.1c0,1,0,2,0,3c0,0.4,0,0.9,0,1.3c0,0.1,0,0.1,0,0.2
				c-0.1,0.2-0.2,0.4-0.5,0.4h-0.1h-0.1l0,0c-0.3,0-0.6-0.3-0.6-0.7c0-0.8,0-1.6,0-2.3c0-0.6,0-1.3,0-1.9c0,0,0,0,0-0.1
				c-0.1,0-0.2,0-0.3,0c0,0,0,0,0,0.1c0,1.4,0,2.8,0,4.2c0,0.1,0,0.1,0,0.2C217.3,41.5,217.1,41.6,216.8,41.7L216.8,41.7
				C216.9,41.7,216.9,41.7,216.8,41.7z"/>
			<path class="st0" d="M217.8,25.6c0.1,0,0.1,0,0.2,0c0.5,0.1,1,0.4,1.2,0.8c0.3,0.6,0.2,1.3-0.3,1.8c-0.4,0.4-0.9,0.6-1.4,0.5
				c-0.5,0-0.9-0.3-1.2-0.7c-0.2-0.3-0.3-0.6-0.3-1c0-0.6,0.3-1,0.8-1.3c0.2-0.1,0.5-0.2,0.7-0.2c0,0,0,0,0.1,0
				C217.8,25.6,217.8,25.6,217.8,25.6z"/>
			<g>
				<path class="st0" d="M211.6,41.7c-0.2-0.2-0.2-0.4-0.2-0.6c0-0.5,0-1,0-1.4s0-0.9,0-1.3c0,0,0,0,0-0.1c-0.1,0-0.2,0-0.3,0
					c-0.4-0.1-0.7-0.4-0.7-0.8c0-0.9,0-1.8,0-2.7c0-0.5,0.4-0.9,0.9-0.9c0.9,0,1.8,0,2.7,0c0.5,0,0.8,0.4,0.8,0.8c0,0.9,0,1.8,0,2.7
					c0,0.4-0.3,0.8-0.8,0.8c-0.1,0-0.1,0-0.2,0c0,0.2,0,0.3,0,0.5c0,0.8,0,1.7,0,2.5c0,0.2-0.1,0.3-0.2,0.4c-0.2,0-0.4,0-0.7,0
					c-0.1-0.1-0.2-0.3-0.2-0.5c0-0.9,0-1.9,0-2.8v-0.1c-0.1,0-0.2,0-0.3,0c0,0.1,0,0.1,0,0.2c0,0.9,0,1.8,0,2.7
					c0,0.2-0.1,0.4-0.2,0.5C212.1,41.7,211.8,41.7,211.6,41.7z"/>
				<path class="st0" d="M211.2,32.1c0-0.8,0.6-1.4,1.4-1.4c0.8,0,1.4,0.6,1.4,1.4c0,0.8-0.6,1.4-1.5,1.4
					C211.9,33.6,211.2,32.9,211.2,32.1z"/>
			</g>
			<g>
				<path class="st0" d="M222.2,41.7L222.2,41.7c-0.3-0.2-0.4-0.4-0.4-0.7c0-0.6,0-1.3,0-1.9c0-0.3,0-0.5,0-0.8c-0.2,0-0.3,0-0.5,0
					s-0.4,0-0.6,0c-0.4,0-0.7-0.4-0.6-0.9c0.4-1,0.8-2.1,1.2-3.1c0.1-0.3,0.3-0.4,0.6-0.4c0.5,0,0.9,0,1.4,0c0.3,0,0.5,0.1,0.6,0.4
					c0.4,1,0.8,2.1,1.2,3.1c0.1,0.4-0.1,0.8-0.5,0.9c-0.2,0-0.4,0-0.6,0c-0.2,0-0.4,0-0.7,0v0.1c0,0.8,0,1.7,0,2.5
					c0,0.3-0.1,0.6-0.4,0.8C222.8,41.7,222.6,41.7,222.2,41.7z"/>
				<path class="st0" d="M222.6,33.6c-0.8,0-1.4-0.6-1.4-1.4c0-0.8,0.6-1.4,1.4-1.4c0.8,0,1.4,0.6,1.4,1.4
					C224.1,32.9,223.4,33.6,222.6,33.6z"/>
			</g>
		</g>
	</g>
	<rect x="-0.6" y="41.7" class="st0" width="782.7" height="3.1"/>
</g>
</svg>
