<?xml version="1.0" encoding="utf-8"?>
<!-- Generator: Adobe Illustrator 19.1.0, SVG Export Plug-In . SVG Version: 6.00 Build 0)  -->
<svg version="1.1" id="Layer_1" xmlns="http://www.w3.org/2000/svg" xmlns:xlink="http://www.w3.org/1999/xlink" x="0px" y="0px"
	 viewBox="0 -4 783 49" style="enable-background:new 0 -4 783 49;" xml:space="preserve">
<style type="text/css">
	.st0{fill:#0075C9;}
	.st1{fill:#C2DAF1;}
</style>
<g>
	<g>
		<g>
			<path class="st0" d="M40.7,19c-0.5,0.2-1,0.4-1.6,0.6c1.9-3,3.5-5.9,4.6-9.4c1.1,3.6,2.8,6.6,4.8,9.5c-0.6-0.3-1.2-0.5-1.7-0.8
				c0,0.1-0.1,0.1-0.1,0.2c1.1,2.2,2.1,4.4,3.3,6.8c-0.6-0.3-1.1-0.5-1.7-0.8c1,2.1,2,4,3,6.1c-0.6-0.2-1.1-0.4-1.6-0.6
				c0,0-0.1,0.1-0.1,0.1c0.9,1.6,1.8,3.2,2.7,4.8c-5.8,1.8-11.6,1.8-17.4,0c0.9-1.7,1.8-3.3,2.8-5c-0.6,0.3-1.2,0.5-1.8,0.7
				c1-2,1.9-4,2.9-5.9c0,0-0.1-0.1-0.1-0.1c-0.4,0.2-0.9,0.4-1.4,0.6c0.6-1.3,1.2-2.4,1.7-3.6c0.5-0.9,0.9-1.9,1.4-2.8
				C40.6,19.3,40.6,19.1,40.7,19C40.7,19,40.7,19,40.7,19C40.7,18.9,40.7,18.9,40.7,19C40.7,18.9,40.7,18.9,40.7,19z"/>
			<path class="st0" d="M46,41.6c-1.6,0-3.2,0-4.9,0c0.3-0.6,0.8-1.1,1-1.7c0.2-0.6,0.2-1.4,0.3-2.1c0.6,0,1.2,0,1.9,0
				c0.1,0,0.2,0.1,0.3,0.3C45.1,39.2,45.5,40.4,46,41.6z"/>
		</g>
		<g>
			<path class="st0" d="M32.2,25.3c-0.4,0.1-0.9,0.3-1.4,0.5c1.6-2.1,3.1-4.2,4-6.8c1,2.6,2.4,4.7,4.2,6.9c-0.6-0.2-1-0.4-1.5-0.5
				c0,0-0.1,0.1-0.1,0.1c0.9,1.6,1.9,3.2,2.9,4.9c-0.5-0.2-0.9-0.4-1.5-0.6c0.9,1.5,1.8,2.9,2.6,4.4c-0.5-0.2-0.9-0.3-1.4-0.4
				c0,0-0.1,0.1-0.1,0.1c0.8,1.1,1.6,2.3,2.4,3.5c-5.1,1.3-10.1,1.3-15.2,0c0.8-1.2,1.6-2.4,2.5-3.6c-0.6,0.2-1,0.3-1.6,0.5
				c0.9-1.5,1.7-2.8,2.5-4.2c0,0-0.1-0.1-0.1-0.1c-0.4,0.1-0.8,0.3-1.2,0.5c0.5-0.9,1-1.8,1.5-2.6c0.4-0.7,0.8-1.4,1.2-2
				C32.1,25.5,32.2,25.4,32.2,25.3C32.2,25.3,32.2,25.3,32.2,25.3C32.2,25.3,32.2,25.2,32.2,25.3C32.2,25.3,32.2,25.3,32.2,25.3z"/>
			<path class="st0" d="M36.9,41.6c-1.4,0-2.8,0-4.3,0c0.3-0.4,0.7-0.8,0.9-1.3c0.2-0.4,0.2-1,0.2-1.5c0.5,0,1.1,0,1.6,0
				c0.1,0,0.2,0.1,0.2,0.2C36,39.8,36.4,40.7,36.9,41.6z"/>
		</g>
		<g>
			<g>
				<path class="st0" d="M187.7,42.4c-0.9,0-1.6,0-2.4,0c0-0.4,0-0.7,0-1c0-3.9,0-7.8,0-11.7c0-0.7-0.6-1.5-1.1-1.3
					c-0.6,0.2-1,0.5-1,1.3c0.1,3.9,0,7.8,0,11.7c0,0.3,0,0.7,0,1c-0.9,0-1.7,0-2.6,0c0-4.2,0-8.4,0-12.7c-1.1-0.1-2-0.2-3-0.3
					c0,2,0,4,0,6.1c-0.8,0-1.6,0-2.5,0c0-2,0-4.1,0-6.2c-7.9,2.3-12-4.1-11-8.9c-2.4-1.1-4.2-2.7-5-5.4c-1-3.5,0.6-7.6,3.8-9.2
					c0.8-0.4,1.2-0.7,1.1-1.7c-0.2-4.4,3.3-8.2,7.8-8.2c1.8,0,3.4,0.4,4.8,1.4c0.4,0.3,0.7,0.3,1.2-0.1c2.7-2,7.3-1.9,9.9,0.6
					c1.1,1,1.8,2.2,2.4,3.6c0.1,0.3,0.4,0.6,0.7,0.7c2.5,0.8,4.5,3.5,4.4,6.3c0,0.8,0.3,1.1,0.9,1.5c1.9,1.2,3,2.8,3.2,5.2
					c0.2,3-1.2,5.1-3.7,6.6c-0.3,0.2-0.4,0.7-0.4,1.1c-0.1,1.9-0.6,3.5-2,4.8c-1.2,1.2-2.7,1.9-4.4,1.8c-0.3,0-0.6,0-1,0
					C187.7,33.9,187.7,38.1,187.7,42.4z M192.5,8.6c-0.1-1.7-1.1-3.2-2.6-3.8c-1.7-0.7-3.1-0.3-4.4,0.9c-1.2,1.1-1.5,1.2-2.7,0
					c-0.7-0.7-1.6-1.2-2.7-1.2c-2.6,0-4.9,2.2-4.1,5.3c0.3,1.2,0,1.8-1.2,2.1c-1.6,0.3-3.1,2.2-3.2,3.9c-0.1,1.8,1.4,3.7,3.2,4.1
					c1.2,0.3,1.5,0.8,1.2,2c-0.1,0.6-0.2,1.3-0.1,1.9c0.2,1.7,1.2,2.7,2.7,3.3c1.5,0.6,2.9,0.1,4.1-0.9c1.3-1.2,1.7-1.2,2.9,0
					c1.3,1.3,3.2,1.5,4.7,0.6c1.8-1.1,2.6-2.9,2-4.7c-0.4-1.4-0.2-1.8,1.3-2.2c2.2-0.6,3.6-3.2,2.8-5.2c-0.6-1.4-1.5-2.5-3.1-2.8
					c-1.1-0.2-1.5-0.9-1.1-2C192.4,9.4,192.5,9,192.5,8.6z M187.3,1.8c-0.3-0.5-0.7-1-1-1.6c-0.1-0.1-0.2-0.2-0.3-0.3
					c-2.4-2-5.4-2-7.7,0.3c-0.9,0.9-1.7,0.8-2.6-0.1c-1.3-1.4-2.9-2-4.8-1.6c-3.2,0.7-5.3,3.8-4.2,7.2c0.3,1,0,1.6-1.1,1.8
					c-2.6,0.7-4.4,2.7-4.4,5.5c0,2.4,1.8,4.5,4.4,5.2c1.2,0.3,1.4,0.8,1,1.9c-0.8,2.5,0.2,5.1,2.5,6.4c1.7,1,3.7,1.1,4.8,0.2
					c-0.2-1.4-0.4-2.7-0.7-4c-0.1-0.4-0.3-0.8-0.5-1c-1.1-0.6-2-1.4-2.7-2.5c-2-3.2-0.7-7.7,2.4-9.3c0.7-0.3,0.9-0.7,0.8-1.4
					c-0.1-1.3,0.3-2.5,1-3.6c2.1-3.2,6.3-4,9.4-2c0.2,0.1,0.6,0.2,0.8,0.1C185.4,2.7,186.3,2.2,187.3,1.8z"/>
				<path class="st0" d="M176.1,39.1c0,1.2,0,2.2,0,3.3c-0.9,0-1.7,0-2.6,0c0-0.9,0-1.8,0-2.7c0-0.5-0.1-0.7-0.7-0.8
					c-2.6-0.4-5.1-1.4-7-3.2c-3.2-2.9-6.2-6-9.3-9c-0.2-0.2-0.5-0.5-0.8-0.8c0,5.6,0,11,0,16.5c-0.8,0-1.6,0-2.4,0
					c0-2.6,0-5.2,0-7.9c-3.4,0-6.6,0-10,0c0,2.6,0,5.2,0,7.9c-0.9,0-1.7,0-2.6,0c0-0.3,0-0.6,0-1c0-9.2,0-18.4,0-27.6
					c0-1.9,0.4-2.2,2.3-2.2c3.6,0,7.2,0,10.8,0c1.7,0,2,0.3,2,2c0,2.7,0,5.3,0,8c0,0.4,0.2,0.8,0.5,1.1c3.1,3.1,6.2,6.3,9.4,9.4
					c2.2,2.1,4.6,3.8,7.7,4.3c1.6,0.2,3.2,0.2,4.8,0.3c1.1,0.1,1.7,1,1.1,1.9c-0.2,0.3-0.6,0.5-0.9,0.5
					C177.6,39.2,176.9,39.1,176.1,39.1z M143.4,24.5c0,2.6,0,5.1,0,7.5c3.4,0,6.6,0,9.9,0c0-2.5,0-5,0-7.5c-0.2,0-0.3,0-0.5,0
					C149.7,24.5,146.5,24.5,143.4,24.5z M151.3,22c0-1.3,0.1-2.5,0-3.7c-0.1-1.4-1.4-2.5-2.7-2.6c-1.7-0.2-3,1.2-3.1,2.3
					c-0.2,1.3,0,2.7,0,4.1c0.5,0,0.8,0,1.1,0C148,22,149.6,22,151.3,22z"/>
				<path class="st0" d="M125.9,34.4c0-5.1,0-10.3,0-15.4c-2.3,0-4.5,0-7,0c0,5.1,0,10.3,0,15.5c0.9,0,1.3,0.4,1.4,1.1
					c0.1,0.7-0.3,1.1-0.9,1.4c-3.2,1.4-6.3,1.4-9.5-0.1c-0.4-0.2-0.8-0.9-0.8-1.4c0-0.4,0.6-0.8,1-1.2c0.1,0.1,0.2,0.1,0.3,0.2
					c0-5.2,0-10.3,0-15.5c-0.9,0-1.6,0-2.5,0c0,7.8,0,15.6,0,23.5c-0.9,0-1.6,0-2.5,0c0-0.3,0-0.6,0-0.9c0-7.9,0-15.8,0-23.7
					c0-1.2,0.3-1.5,1.5-1.5c10.2,0,20.5,0,30.7,0c1.2,0,1.7,0.5,1.7,1.7c0,7.8,0,15.7,0,23.5c0,0.3,0,0.6,0,1c-0.9,0-1.7,0-2.6,0
					c0-7.8,0-15.6,0-23.5c-0.9,0-1.6,0-2.5,0c0,5.2,0,10.3,0,15.5c0.1-0.1,0.2-0.1,0.3-0.2c0.3,0.4,0.8,0.7,1,1.2
					c0.3,0.8-0.2,1.3-0.9,1.6c-2.9,1.2-5.8,1.2-8.8,0.2c-0.5-0.2-1.1-0.6-1.4-1.1C124.2,35.3,124.7,34.6,125.9,34.4z M111.6,18.9
					c0,0.5,0.2,1,0.1,1.4c-0.3,0.7,0,1.4,0,2.2c0,0.8-0.2,1.7,0,2.5c0.1,0.5-0.3,1.1-0.3,1.6c0,0.9,0.1,1.8,0.2,2.7
					c0,0.5,0.1,1.1,0.1,1.6c0,0.6-0.1,1.2-0.1,1.9c0,0.7,0,1.3,0,2.1c1.7,0.8,4.7,0.8,6.1-0.1c0-5.3,0-10.6,0-15.9
					C115.6,18.9,113.8,18.9,111.6,18.9z M133.2,18.9c-2.1,0-4.1,0-6.2,0c0,5.3,0,10.6,0,15.9c2,0.8,4.2,0.8,6.2,0
					C133.2,29.5,133.2,24.2,133.2,18.9z"/>
				<path class="st0" d="M148.3,10.7c-2,0-4,0-5.9,0c-0.5,0-1.2-0.3-1.4-0.7c-0.3-0.6-0.2-1.2,0.4-1.8c1.9-1.8,3.7-3.7,5.6-5.6
					c0.9-0.9,1.7-0.9,2.6,0c1.8,1.8,3.7,3.7,5.5,5.5c0.6,0.6,0.9,1.3,0.5,1.9c-0.2,0.4-1,0.6-1.5,0.7
					C152.2,10.8,150.3,10.7,148.3,10.7z M148.4,5.2c-1,1-1.9,1.9-2.8,2.8c1.8,0,3.7,0,5.6,0C150.2,7.1,149.3,6.1,148.4,5.2z"/>
				<path class="st1" d="M192.5,8.6c-0.1,0.4-0.1,0.8-0.3,1.2c-0.4,1.1,0.1,1.8,1.1,2c1.6,0.3,2.6,1.3,3.1,2.8
					c0.8,2-0.7,4.7-2.8,5.2c-1.5,0.4-1.8,0.8-1.3,2.2c0.5,1.7-0.3,3.6-2,4.7c-1.5,0.9-3.4,0.7-4.7-0.6c-1.2-1.2-1.6-1.2-2.9,0
					c-1.2,1.1-2.6,1.5-4.1,0.9c-1.5-0.6-2.5-1.6-2.7-3.3c-0.1-0.6,0-1.3,0.1-1.9c0.2-1.2-0.1-1.7-1.2-2c-1.8-0.4-3.3-2.3-3.2-4.1
					c0-1.6,1.6-3.6,3.2-3.9c1.2-0.2,1.5-0.8,1.2-2.1c-0.8-3.1,1.5-5.4,4.1-5.3c1,0,1.9,0.5,2.7,1.2c1.2,1.2,1.5,1.1,2.7,0
					c1.3-1.2,2.8-1.6,4.4-0.9C191.5,5.4,192.5,6.9,192.5,8.6z"/>
				<path class="st1" d="M187.3,1.8c-1,0.5-1.9,0.9-2.8,1.3c-0.2,0.1-0.6,0-0.8-0.1c-3.1-2-7.4-1.2-9.4,2c-0.7,1.1-1.1,2.3-1,3.6
					c0.1,0.7-0.2,1.1-0.8,1.4c-3.1,1.5-4.5,6-2.4,9.3c0.7,1.1,1.6,1.9,2.7,2.5c0.3,0.2,0.5,0.6,0.5,1c0.3,1.3,0.4,2.6,0.7,4
					c-1.1,0.9-3.1,0.8-4.8-0.2c-2.2-1.3-3.2-3.9-2.5-6.4c0.4-1.2,0.1-1.6-1-1.9c-2.6-0.7-4.4-2.8-4.4-5.2c0-2.9,1.7-4.8,4.4-5.5
					c1.1-0.3,1.5-0.8,1.1-1.8c-1.1-3.4,0.9-6.5,4.2-7.2c1.9-0.4,3.5,0.3,4.8,1.6c0.9,0.9,1.7,1,2.6,0.1c2.3-2.3,5.3-2.3,7.7-0.3
					c0.1,0.1,0.2,0.2,0.3,0.3C186.6,0.7,187,1.3,187.3,1.8z"/>
				<path class="st1" d="M151.3,22c-1.7,0-3.2,0-4.8,0c-0.3,0-0.7,0-1.1,0c0-1.4-0.1-2.7,0-4.1c0.1-1,1.4-2.4,3.1-2.3
					c1.4,0.1,2.6,1.3,2.7,2.6C151.3,19.5,151.3,20.7,151.3,22z"/>
				<path class="st1" d="M148.4,5.2c0.8,0.9,1.8,1.8,2.7,2.8c-1.9,0-3.8,0-5.6,0C146.5,7.2,147.4,6.2,148.4,5.2z"/>
			</g>
		</g>
		<g>
			<path class="st0" d="M272.8,41.9c-0.5-0.1-0.9-0.2-1.3-0.4c-1.1-0.6-1.8-1.5-1.9-2.7c0-0.3,0-0.6,0-1c0-0.1,0-0.1-0.1-0.2
				c-0.3-0.2-0.7-0.5-1.1-0.7c0,0,0,0,0,0c0,0.3,0,0.6,0,0.9c0,0.7,0.1,1.5,0.1,2.2c0,0.2-0.1,0.3-0.2,0.3c-0.2,0-0.3-0.1-0.3-0.2
				c-0.1-0.3-0.1-0.6-0.2-1c-0.2-1.2-0.4-2.3-0.6-3.5c0,0,0-0.1-0.1-0.1c-0.5-0.6-0.8-1.2-1.1-1.9c-0.3,0.6-0.5,1.2-0.8,1.8
				c0.2,0.2,0.4,0.4,0.6,0.7c1.7,2.2,0.4,5.3-2.3,5.7c-2,0.3-3.8-1.1-4.1-3c0-0.1,0-0.3-0.1-0.4c0-0.1,0-0.1,0-0.2c0,0,0-0.1,0-0.1
				c0-0.9,0.4-1.6,1-2.2c1-1,2.1-1.3,3.5-1c0.2,0,0.4,0.1,0.7,0.2c0.2-0.5,0.5-1.1,0.7-1.7c0.2-0.4,0.3-0.9,0.4-1.3
				c0.1-0.2,0.2-0.3,0.4-0.4c0.8-0.1,1.5-0.3,2.3-0.4c0.2,0,0.3-0.1,0.4-0.2c0.6-0.6,1.1-1.2,1.7-1.9c0.3-0.3,0.7-0.5,1.2-0.3
				c0.4,0.1,0.6,0.5,0.6,1c0,1.1,0,2.2,0,3.3c0,0.4-0.2,0.7-0.5,0.9c-1,0.6-2.1,1.3-3.1,1.9c0,0-0.1,0-0.1,0.1
				c0.4,0.3,0.9,0.7,1.3,1c0.1-0.1,0.1-0.3,0.2-0.4c0.7-1.1,1.7-1.8,3-1.8c0.8,0,1.5,0.2,2.2,0.6c1.2,0.9,1.7,2,1.5,3.5
				c-0.2,1.3-0.9,2.3-2.2,2.8c-0.3,0.1-0.7,0.2-1,0.3C273.2,41.9,273,41.9,272.8,41.9z M263.5,38.3c-0.1,0.1-0.2,0.2-0.3,0.3
				c-0.2,0.2-0.4,0.2-0.6,0.1c-0.2-0.1-0.2-0.4,0-0.6c0.5-0.7,1-1.4,1.4-2.1c0,0,0-0.1,0.1-0.1c-1.3-0.6-2.9,0-3.6,1.2
				c-0.7,1.3-0.2,2.9,1.1,3.7c1.2,0.7,2.9,0.3,3.7-0.9c0.8-1.2,0.5-2.8-0.5-3.6C264.4,36.9,263.9,37.6,263.5,38.3z M272.5,41.1
				c1.5,0.3,2.9-0.6,3.3-2.1c0.3-1.4-0.6-2.9-1.9-3.3c-1.5-0.4-2.9,0.5-3.4,1.7c0.3,0.1,0.5,0.2,0.8,0.3c0.6,0.2,1.2,0.3,1.8,0.4
				c0.3,0,0.5,0.2,0.4,0.4c0,0.2-0.2,0.4-0.5,0.4c-0.9-0.1-1.8-0.3-2.6-0.6c0,0-0.1,0-0.1,0C270.2,39.4,271,40.8,272.5,41.1z
				 M268.7,32.2c-0.1,0-0.1,0.1-0.2,0.1c-0.6,0-1.3,0-1.9,0c-0.1,0-0.1,0-0.2,0c0.2,1,0.6,1.9,1.1,2.7c0.4-0.3,0.7-0.6,1.1-0.9
				c0.5-0.4,0.9-0.8,1.4-1.2c0,0,0.1-0.1,0.1-0.2c0-0.5,0-0.9,0-1.4c0,0,0,0,0-0.1C269.6,31.6,269.2,31.9,268.7,32.2z"/>
			<path class="st0" d="M270,25.4c-0.4,0.1-0.8,0.3-1,0.7c-0.4,0.6-0.4,1.4,0,2c0.5,0.6,1.3,0.8,2,0.4c0.6-0.3,1-1,0.9-1.6
				c-0.1-0.7-0.6-1.3-1.3-1.4c0,0,0,0-0.1,0C270.3,25.4,270.2,25.4,270,25.4z"/>
			<path class="st0" d="M263.1,31.8c-0.4,0-0.7,0-1.1,0c-0.4,0-0.5,0.2-0.4,0.6c0.1,0.5,0.2,1.1,0.3,1.6c0,0.2,0.2,0.4,0.4,0.4
				c0.5,0,1,0,1.5,0c0.2,0,0.4-0.1,0.4-0.3c0.2-0.6,0.3-1.2,0.4-1.7c0.1-0.3-0.1-0.5-0.4-0.5C263.8,31.8,263.5,31.8,263.1,31.8
				C263.1,31.8,263.1,31.8,263.1,31.8z"/>
		</g>
		<g>
			<g>
				<path class="st0" d="M97.1,30.6C97.1,30.5,97.1,30.5,97.1,30.6c0.1-0.5,0.3-0.9,0.7-1.2c0.3-0.2,0.6-0.3,1-0.3c1,0,2,0,2.9,0
					c0.6,0,1.1,0.3,1.5,0.8c0.2,0.3,0.2,0.5,0.2,0.8c0,1.2,0,2.3,0,3.5c0,0.2,0,0.3,0,0.5c0,0.3-0.2,0.5-0.5,0.6
					c-0.3,0.1-0.6-0.1-0.7-0.4c0-0.1,0-0.1,0-0.2c0-1.2,0-2.3,0-3.5c0,0,0,0,0-0.1c0,0-0.2,0-0.3,0c0,0,0,0,0,0c0,0,0,0,0,0.1
					c0,3.3,0,6.6,0,9.9c0,0.3-0.1,0.5-0.3,0.6c-0.1,0.1-0.2,0.1-0.3,0.1c0,0,0,0,0,0c-0.1,0-0.2,0-0.2,0c0,0,0,0,0,0
					c-0.1,0-0.3-0.1-0.4-0.2c-0.2-0.2-0.2-0.3-0.2-0.6c0-1.6,0-3.2,0-4.9c0-0.3,0-0.6,0-0.9c0,0,0,0,0-0.1c-0.1,0-0.2,0-0.3,0
					c0,0,0,0.1,0,0.1c0,1.9,0,3.8,0,5.7c0,0,0,0.1,0,0.1c0,0.3-0.3,0.6-0.6,0.6c0,0-0.1,0-0.1,0c-0.1,0-0.1,0-0.2,0c0,0,0,0,0,0
					c-0.2,0-0.3-0.1-0.4-0.2c-0.1-0.1-0.2-0.3-0.2-0.5c0-3.3,0-6.6,0-9.9c0,0,0,0,0-0.1c0,0,0,0,0,0c-0.1,0-0.3,0-0.3,0
					c0,0,0,0,0,0.1c0,0.7,0,1.3,0,2c0,0.5,0,1,0,1.5c0,0.1,0,0.1,0,0.2c-0.1,0.2-0.3,0.4-0.5,0.4c-0.3,0-0.5-0.2-0.6-0.4
					c0,0,0,0,0,0C97.1,33.4,97.1,32,97.1,30.6z"/>
				<path class="st0" d="M100.4,25.5c0.1,0,0.1,0,0.2,0c0.6,0.2,1.1,0.5,1.3,1.2c0.2,0.7-0.1,1.4-0.7,1.8c-0.8,0.5-1.8,0.3-2.3-0.5
					c-0.5-0.7-0.2-1.7,0.5-2.2c0.2-0.1,0.5-0.2,0.7-0.3c0,0,0,0,0.1,0C100.3,25.5,100.4,25.5,100.4,25.5z"/>
			</g>
			<g>
				<path class="st0" d="M87.2,30.6C87.2,30.5,87.2,30.5,87.2,30.6c0.1-0.5,0.3-0.9,0.7-1.2c0.3-0.2,0.6-0.3,1-0.3c1,0,2,0,2.9,0
					c0.6,0,1.1,0.3,1.5,0.8c0.2,0.3,0.2,0.5,0.2,0.8c0,1.2,0,2.3,0,3.5c0,0.2,0,0.3,0,0.5c0,0.3-0.2,0.5-0.5,0.6
					c-0.3,0.1-0.6-0.1-0.7-0.4c0-0.1,0-0.1,0-0.2c0-1.2,0-2.3,0-3.5c0,0,0,0,0-0.1c0,0-0.2,0-0.3,0c0,0,0,0,0,0c0,0,0,0,0,0.1
					c0,3.3,0,6.6,0,9.9c0,0.3-0.1,0.5-0.3,0.6c-0.1,0.1-0.2,0.1-0.3,0.1c0,0,0,0,0,0c-0.1,0-0.2,0-0.2,0c0,0,0,0,0,0
					c-0.1,0-0.3-0.1-0.4-0.2c-0.2-0.2-0.2-0.3-0.2-0.6c0-1.6,0-3.2,0-4.9c0-0.3,0-0.6,0-0.9c0,0,0,0,0-0.1c-0.1,0-0.2,0-0.3,0
					c0,0,0,0.1,0,0.1c0,1.9,0,3.8,0,5.7c0,0,0,0.1,0,0.1c0,0.3-0.3,0.6-0.6,0.6c0,0-0.1,0-0.1,0c-0.1,0-0.1,0-0.2,0c0,0,0,0,0,0
					c-0.2,0-0.3-0.1-0.4-0.2c-0.1-0.1-0.2-0.3-0.2-0.5c0-3.3,0-6.6,0-9.9c0,0,0,0,0-0.1c0,0,0,0,0,0c-0.1,0-0.3,0-0.3,0
					c0,0,0,0,0,0.1c0,0.7,0,1.3,0,2c0,0.5,0,1,0,1.5c0,0.1,0,0.1,0,0.2c-0.1,0.2-0.3,0.4-0.5,0.4c-0.3,0-0.5-0.2-0.6-0.4
					c0,0,0,0,0,0C87.2,33.4,87.2,32,87.2,30.6z"/>
				<path class="st0" d="M90.5,25.5c0.1,0,0.1,0,0.2,0c0.6,0.2,1.1,0.5,1.3,1.2c0.2,0.7-0.1,1.4-0.7,1.8c-0.8,0.5-1.8,0.3-2.3-0.5
					c-0.5-0.7-0.2-1.7,0.5-2.2c0.2-0.1,0.5-0.2,0.7-0.3c0,0,0,0,0.1,0C90.3,25.5,90.4,25.5,90.5,25.5z"/>
			</g>
			<g>
				<path class="st0" d="M94.2,41.8c-0.2-0.2-0.2-0.4-0.2-0.6c0-0.5,0-1,0-1.4c0-0.4,0-0.9,0-1.3c0,0,0,0,0-0.1c-0.1,0-0.2,0-0.3,0
					c-0.4-0.1-0.7-0.4-0.7-0.8c0-0.9,0-1.8,0-2.7c0-0.5,0.4-0.9,0.9-0.9c0.9,0,1.8,0,2.7,0c0.5,0,0.9,0.4,0.9,0.8c0,0.9,0,1.8,0,2.7
					c0,0.4-0.3,0.8-0.8,0.8c-0.1,0-0.1,0-0.2,0c0,0.2,0,0.3,0,0.5c0,0.8,0,1.7,0,2.5c0,0.2-0.1,0.3-0.2,0.4c-0.2,0-0.5,0-0.7,0
					c-0.1-0.1-0.2-0.3-0.2-0.5c0-1,0-1.9,0-2.9c0,0,0-0.1,0-0.1c-0.1,0-0.2,0-0.3,0c0,0.1,0,0.1,0,0.2c0,0.9,0,1.8,0,2.8
					c0,0.2-0.1,0.4-0.2,0.5C94.7,41.8,94.5,41.8,94.2,41.8z"/>
				<path class="st0" d="M93.9,32.1c0-0.8,0.7-1.5,1.5-1.5c0.8,0,1.5,0.7,1.4,1.5c0,0.8-0.7,1.4-1.5,1.4
					C94.5,33.6,93.9,32.9,93.9,32.1z"/>
			</g>
		</g>
		<g>
			<path class="st0" d="M198.9,41.6C198.9,41.6,198.8,41.6,198.9,41.6c-0.3-0.1-0.5-0.2-0.6-0.5c0-0.1,0-0.1,0-0.2c0-0.7,0-1.3,0-2
				c0-0.8,0-1.5,0-2.3c0,0,0,0,0-0.1c-0.6,0-1.1,0-1.7,0c0.6-2,1.2-4,1.8-6c-0.1,0-0.1,0-0.1,0c0,0-0.1,0-0.1,0c0,0,0,0,0,0.1
				c-0.3,0.9-0.6,1.8-0.8,2.8c-0.1,0.2-0.1,0.4-0.2,0.6c-0.1,0.3-0.3,0.4-0.6,0.4c-0.1,0-0.3-0.1-0.4-0.1c-0.2-0.1-0.2-0.3-0.2-0.5
				c0-0.2,0.1-0.3,0.1-0.5c0.3-1,0.6-2.1,0.9-3.1c0.1-0.3,0.2-0.6,0.4-0.8c0.3-0.3,0.6-0.5,1-0.6c0.1,0,0.1,0,0.2,0c0.7,0,1.3,0,2,0
				c0.6,0,1.1,0.3,1.5,0.8c0.1,0.2,0.2,0.4,0.2,0.6c0.3,1.2,0.7,2.3,1,3.5c0,0,0,0.1,0,0.1c0,0.1,0,0.2,0,0.2c0,0,0,0,0,0
				c0,0.1-0.1,0.2-0.2,0.3c-0.1,0.1-0.3,0.2-0.5,0.1c-0.2,0-0.4-0.2-0.4-0.4c-0.3-1.1-0.7-2.2-1-3.4c0,0,0,0,0-0.1
				c-0.1,0-0.2,0-0.3,0c0.6,2,1.2,4,1.8,6c-0.1,0-0.3,0-0.4,0c-0.1,0-0.3,0-0.4,0c-0.1,0-0.3,0-0.4,0c-0.1,0-0.3,0-0.4,0
				c0,0,0,0.1,0,0.1c0,1,0,2,0,3c0,0.4,0,0.9,0,1.3c0,0.1,0,0.1,0,0.2c-0.1,0.2-0.2,0.4-0.5,0.4c0,0-0.1,0-0.1,0c0,0-0.1,0-0.1,0
				c0,0,0,0,0,0c-0.3,0-0.6-0.3-0.6-0.7c0-0.8,0-1.6,0-2.3c0-0.6,0-1.3,0-1.9c0,0,0,0,0-0.1c-0.1,0-0.2,0-0.3,0c0,0,0,0,0,0.1
				c0,1.4,0,2.8,0,4.2c0,0.1,0,0.1,0,0.2c-0.1,0.3-0.3,0.4-0.5,0.5c0,0,0,0,0,0C199,41.6,198.9,41.6,198.9,41.6z"/>
			<path class="st0" d="M199.8,25.4c0.1,0,0.1,0,0.2,0c0.5,0.1,1,0.4,1.2,0.9c0.3,0.6,0.2,1.3-0.3,1.8c-0.4,0.4-0.9,0.6-1.4,0.5
				c-0.5,0-0.9-0.3-1.2-0.7c-0.2-0.3-0.3-0.6-0.3-1c0-0.6,0.3-1,0.8-1.3c0.2-0.1,0.5-0.2,0.7-0.2c0,0,0,0,0.1,0
				C199.7,25.4,199.8,25.4,199.8,25.4z"/>
			<g>
				<path class="st0" d="M194.1,41.6c-0.2-0.2-0.2-0.4-0.2-0.6c0-0.5,0-1,0-1.4c0-0.4,0-0.9,0-1.3c0,0,0,0,0-0.1c-0.1,0-0.2,0-0.3,0
					c-0.4-0.1-0.7-0.4-0.7-0.8c0-0.9,0-1.8,0-2.7c0-0.5,0.4-0.9,0.9-0.9c0.9,0,1.8,0,2.7,0c0.5,0,0.8,0.4,0.8,0.8c0,0.9,0,1.8,0,2.7
					c0,0.4-0.3,0.8-0.8,0.8c-0.1,0-0.1,0-0.2,0c0,0.2,0,0.3,0,0.5c0,0.8,0,1.7,0,2.5c0,0.2-0.1,0.3-0.2,0.4c-0.2,0-0.4,0-0.7,0
					c-0.1-0.1-0.2-0.3-0.2-0.5c0-0.9,0-1.9,0-2.8c0,0,0-0.1,0-0.1c-0.1,0-0.2,0-0.3,0c0,0.1,0,0.1,0,0.2c0,0.9,0,1.8,0,2.7
					c0,0.2-0.1,0.4-0.2,0.5C194.5,41.6,194.3,41.6,194.1,41.6z"/>
				<path class="st0" d="M193.7,32c0-0.8,0.6-1.4,1.4-1.4c0.8,0,1.4,0.7,1.4,1.5c0,0.8-0.6,1.4-1.5,1.4
					C194.4,33.4,193.7,32.8,193.7,32z"/>
			</g>
		</g>
		<g>
			<g>
				<path class="st0" d="M5.8,30.4C5.8,30.3,5.8,30.3,5.8,30.4c0.1-0.5,0.3-0.9,0.7-1.2c0.3-0.2,0.6-0.3,1-0.3c1,0,2,0,2.9,0
					c0.6,0,1.1,0.3,1.5,0.8c0.2,0.3,0.2,0.5,0.2,0.8c0,1.2,0,2.3,0,3.5c0,0.2,0,0.3,0,0.5c0,0.3-0.2,0.5-0.5,0.6
					c-0.3,0.1-0.6-0.1-0.7-0.4c0-0.1,0-0.1,0-0.2c0-1.2,0-2.3,0-3.5c0,0,0,0,0-0.1c0,0-0.2,0-0.3,0c0,0,0,0,0,0c0,0,0,0,0,0.1
					c0,3.3,0,6.6,0,9.8c0,0.3-0.1,0.5-0.3,0.6c-0.1,0.1-0.2,0.1-0.3,0.1c0,0,0,0,0,0c-0.1,0-0.2,0-0.2,0c0,0,0,0,0,0
					c-0.1,0-0.3-0.1-0.4-0.2c-0.2-0.2-0.2-0.3-0.2-0.6c0-1.6,0-3.2,0-4.8c0-0.3,0-0.6,0-0.8c0,0,0,0,0-0.1c-0.1,0-0.2,0-0.3,0
					c0,0,0,0.1,0,0.1c0,1.9,0,3.8,0,5.7c0,0,0,0.1,0,0.1c0,0.3-0.3,0.6-0.6,0.6c0,0,0,0-0.1,0c-0.1,0-0.1,0-0.2,0c0,0,0,0,0,0
					c-0.2,0-0.3-0.1-0.4-0.2c-0.1-0.1-0.2-0.3-0.2-0.5c0-3.3,0-6.6,0-9.8c0,0,0,0,0-0.1c0,0,0,0,0,0c-0.1,0-0.3,0-0.3,0
					c0,0,0,0,0,0.1c0,0.7,0,1.3,0,2c0,0.5,0,1,0,1.5c0,0.1,0,0.1,0,0.2C6.9,34.8,6.7,35,6.4,35c-0.3,0-0.5-0.2-0.6-0.4c0,0,0,0,0,0
					C5.8,33.1,5.8,31.7,5.8,30.4z"/>
				<path class="st0" d="M9.1,25.4c0.1,0,0.1,0,0.2,0c0.6,0.2,1.1,0.5,1.2,1.2c0.2,0.7-0.1,1.4-0.7,1.8c-0.8,0.5-1.8,0.3-2.3-0.5
					C7.1,27,7.3,26.1,8,25.6c0.2-0.1,0.5-0.2,0.7-0.3c0,0,0,0,0.1,0C8.9,25.4,9,25.4,9.1,25.4z"/>
			</g>
			<path class="st0" d="M18.4,41.5C18.3,41.5,18.3,41.5,18.4,41.5c-0.3-0.1-0.5-0.2-0.6-0.5c0-0.1,0-0.1,0-0.2c0-0.7,0-1.3,0-2
				c0-0.8,0-1.5,0-2.3c0,0,0,0,0-0.1c-0.6,0-1.1,0-1.7,0c0.6-2,1.2-4,1.8-6c-0.1,0-0.1,0-0.1,0c0,0-0.1,0-0.1,0c0,0,0,0,0,0.1
				c-0.3,0.9-0.6,1.8-0.8,2.8c-0.1,0.2-0.1,0.4-0.2,0.6c-0.1,0.3-0.3,0.4-0.6,0.4c-0.1,0-0.3-0.1-0.4-0.1c-0.2-0.1-0.2-0.3-0.2-0.5
				c0-0.2,0.1-0.3,0.1-0.5c0.3-1,0.6-2.1,0.9-3.1c0.1-0.3,0.2-0.6,0.4-0.8c0.3-0.3,0.6-0.5,1-0.6c0.1,0,0.1,0,0.2,0c0.7,0,1.3,0,2,0
				c0.6,0,1.1,0.3,1.5,0.8c0.1,0.2,0.2,0.4,0.2,0.6c0.3,1.2,0.7,2.3,1,3.5c0,0,0,0.1,0,0.1c0,0.1,0,0.2,0,0.2c0,0,0,0,0,0
				c0,0.1-0.1,0.2-0.2,0.3c-0.1,0.1-0.3,0.2-0.5,0.1c-0.2,0-0.4-0.2-0.4-0.4c-0.3-1.1-0.7-2.2-1-3.4c0,0,0,0,0-0.1
				c-0.1,0-0.2,0-0.3,0c0.6,2,1.2,4,1.8,6c-0.1,0-0.3,0-0.4,0c-0.1,0-0.3,0-0.4,0c-0.1,0-0.3,0-0.4,0c-0.1,0-0.3,0-0.4,0
				c0,0,0,0.1,0,0.1c0,1,0,2,0,3c0,0.4,0,0.9,0,1.3c0,0.1,0,0.1,0,0.2c-0.1,0.2-0.2,0.4-0.5,0.4c0,0-0.1,0-0.1,0c0,0-0.1,0-0.1,0
				c0,0,0,0,0,0c-0.3,0-0.6-0.3-0.6-0.7c0-0.8,0-1.6,0-2.3c0-0.6,0-1.3,0-1.9c0,0,0,0,0-0.1c-0.1,0-0.2,0-0.3,0c0,0,0,0,0,0.1
				c0,1.4,0,2.8,0,4.3c0,0.1,0,0.1,0,0.2c-0.1,0.3-0.3,0.4-0.5,0.5c0,0,0,0,0,0C18.5,41.5,18.4,41.5,18.4,41.5z"/>
			<path class="st0" d="M19.3,25.2c0.1,0,0.1,0,0.2,0c0.6,0.1,1,0.4,1.2,0.9c0.3,0.6,0.2,1.3-0.3,1.8c-0.4,0.4-0.9,0.6-1.4,0.5
				c-0.5,0-0.9-0.3-1.2-0.7c-0.2-0.3-0.3-0.6-0.3-1c0-0.6,0.3-1,0.8-1.3c0.2-0.1,0.5-0.2,0.7-0.2c0,0,0,0,0.1,0
				C19.2,25.2,19.3,25.2,19.3,25.2z"/>
			<g>
				<path class="st0" d="M12.9,41.6c-0.2-0.2-0.2-0.4-0.2-0.6c0-0.5,0-1,0-1.4c0-0.4,0-0.9,0-1.3c0,0,0,0,0-0.1c-0.1,0-0.2,0-0.3,0
					c-0.4-0.1-0.7-0.4-0.7-0.8c0-0.9,0-1.8,0-2.7c0-0.5,0.4-0.9,0.9-0.9c0.9,0,1.8,0,2.7,0c0.5,0,0.8,0.4,0.8,0.8c0,0.9,0,1.8,0,2.7
					c0,0.4-0.3,0.8-0.8,0.8c-0.1,0-0.1,0-0.2,0c0,0.2,0,0.3,0,0.5c0,0.8,0,1.7,0,2.5c0,0.2-0.1,0.3-0.2,0.4c-0.2,0-0.4,0-0.7,0
					c-0.1-0.1-0.2-0.3-0.2-0.5c0-1,0-1.9,0-2.9c0,0,0-0.1,0-0.1c-0.1,0-0.2,0-0.3,0c0,0.1,0,0.1,0,0.2c0,0.9,0,1.8,0,2.7
					c0,0.2-0.1,0.4-0.2,0.5C13.4,41.6,13.1,41.6,12.9,41.6z"/>
				<path class="st0" d="M12.6,31.9c0-0.8,0.6-1.4,1.5-1.4c0.8,0,1.4,0.7,1.4,1.5c0,0.8-0.6,1.4-1.5,1.4
					C13.2,33.4,12.6,32.7,12.6,31.9z"/>
			</g>
		</g>
		<g>
			<path class="st0" d="M217.4,41.5C217.4,41.5,217.4,41.5,217.4,41.5c-0.3-0.1-0.5-0.2-0.6-0.5c0-0.1,0-0.1,0-0.2c0-0.7,0-1.3,0-2
				c0-0.8,0-1.5,0-2.3c0,0,0,0,0-0.1c-0.6,0-1.1,0-1.7,0c0.6-2,1.2-4,1.8-5.9c-0.1,0-0.1,0-0.1,0c0,0-0.1,0-0.1,0c0,0,0,0,0,0.1
				c-0.3,0.9-0.5,1.8-0.8,2.8c-0.1,0.2-0.1,0.4-0.2,0.6c-0.1,0.3-0.3,0.4-0.6,0.4c-0.1,0-0.3-0.1-0.4-0.1c-0.2-0.1-0.2-0.3-0.2-0.5
				c0-0.2,0.1-0.3,0.1-0.5c0.3-1,0.6-2,0.9-3.1c0.1-0.3,0.2-0.6,0.4-0.8c0.3-0.3,0.6-0.5,1-0.6c0.1,0,0.1,0,0.2,0c0.7,0,1.3,0,2,0
				c0.6,0,1.1,0.3,1.5,0.8c0.1,0.2,0.2,0.4,0.2,0.6c0.3,1.2,0.7,2.3,1,3.5c0,0,0,0.1,0,0.1c0,0.1,0,0.2,0,0.2c0,0,0,0,0,0
				c0,0.1-0.1,0.2-0.2,0.3c-0.1,0.1-0.3,0.2-0.5,0.1c-0.2,0-0.3-0.2-0.4-0.4c-0.3-1.1-0.7-2.2-1-3.3c0,0,0,0,0-0.1
				c-0.1,0-0.2,0-0.3,0c0.6,2,1.2,4,1.8,5.9c-0.1,0-0.3,0-0.4,0c-0.1,0-0.3,0-0.4,0c-0.1,0-0.3,0-0.4,0c-0.1,0-0.3,0-0.4,0
				c0,0,0,0.1,0,0.1c0,1,0,2,0,3c0,0.4,0,0.9,0,1.3c0,0.1,0,0.1,0,0.2c-0.1,0.2-0.2,0.4-0.5,0.4c0,0-0.1,0-0.1,0c0,0-0.1,0-0.1,0
				c0,0,0,0,0,0c-0.3,0-0.6-0.3-0.6-0.7c0-0.8,0-1.6,0-2.3c0-0.6,0-1.3,0-1.9c0,0,0,0,0-0.1c-0.1,0-0.2,0-0.3,0c0,0,0,0,0,0.1
				c0,1.4,0,2.8,0,4.2c0,0.1,0,0.1,0,0.2c-0.1,0.3-0.3,0.4-0.5,0.5c0,0,0,0,0,0C217.5,41.5,217.5,41.5,217.4,41.5z"/>
			<path class="st0" d="M218.4,25.4c0.1,0,0.1,0,0.2,0c0.5,0.1,1,0.4,1.2,0.8c0.3,0.6,0.2,1.3-0.3,1.8c-0.4,0.4-0.9,0.6-1.4,0.5
				c-0.5,0-0.9-0.3-1.2-0.7c-0.2-0.3-0.3-0.6-0.3-1c0-0.6,0.3-1,0.8-1.3c0.2-0.1,0.5-0.2,0.7-0.2c0,0,0,0,0.1,0
				C218.3,25.4,218.3,25.4,218.4,25.4z"/>
			<g>
				<path class="st0" d="M212.2,41.5c-0.2-0.2-0.2-0.4-0.2-0.6c0-0.5,0-1,0-1.4c0-0.4,0-0.9,0-1.3c0,0,0,0,0-0.1c-0.1,0-0.2,0-0.3,0
					c-0.4-0.1-0.7-0.4-0.7-0.8c0-0.9,0-1.8,0-2.7c0-0.5,0.4-0.9,0.9-0.9c0.9,0,1.8,0,2.7,0c0.5,0,0.8,0.4,0.8,0.8c0,0.9,0,1.8,0,2.7
					c0,0.4-0.3,0.8-0.8,0.8c-0.1,0-0.1,0-0.2,0c0,0.2,0,0.3,0,0.5c0,0.8,0,1.7,0,2.5c0,0.2-0.1,0.3-0.2,0.4c-0.2,0-0.4,0-0.7,0
					c-0.1-0.1-0.2-0.3-0.2-0.5c0-0.9,0-1.9,0-2.8c0,0,0-0.1,0-0.1c-0.1,0-0.2,0-0.3,0c0,0.1,0,0.1,0,0.2c0,0.9,0,1.8,0,2.7
					c0,0.2-0.1,0.4-0.2,0.5C212.6,41.5,212.4,41.5,212.2,41.5z"/>
				<path class="st0" d="M211.8,31.9c0-0.8,0.6-1.4,1.4-1.4c0.8,0,1.4,0.6,1.4,1.4c0,0.8-0.6,1.4-1.5,1.4
					C212.5,33.4,211.8,32.7,211.8,31.9z"/>
			</g>
			<g>
				<path class="st0" d="M222.8,41.5C222.8,41.5,222.8,41.5,222.8,41.5c-0.3-0.2-0.4-0.4-0.4-0.7c0-0.6,0-1.3,0-1.9
					c0-0.3,0-0.5,0-0.8c-0.2,0-0.3,0-0.5,0c-0.2,0-0.4,0-0.6,0c-0.4,0-0.7-0.4-0.6-0.9c0.4-1,0.8-2.1,1.2-3.1
					c0.1-0.3,0.3-0.4,0.6-0.4c0.5,0,0.9,0,1.4,0c0.3,0,0.5,0.1,0.6,0.4c0.4,1,0.8,2.1,1.2,3.1c0.1,0.4-0.1,0.8-0.5,0.9
					c-0.2,0-0.4,0-0.6,0c-0.2,0-0.4,0-0.7,0c0,0,0,0.1,0,0.1c0,0.8,0,1.7,0,2.5c0,0.3-0.1,0.6-0.4,0.8
					C223.4,41.5,223.1,41.5,222.8,41.5z"/>
				<path class="st0" d="M223.2,33.4c-0.8,0-1.4-0.6-1.4-1.4c0-0.8,0.6-1.4,1.4-1.4c0.8,0,1.4,0.6,1.4,1.4
					C224.7,32.7,224,33.4,223.2,33.4z"/>
			</g>
		</g>
	</g>
	<rect x="0" y="41.5" class="st0" width="782.7" height="3.1"/>
</g>
</svg>
