<?xml version="1.0" encoding="utf-8"?>
<!-- Generator: Adobe Illustrator 19.1.0, SVG Export Plug-In . SVG Version: 6.00 Build 0)  -->
<svg version="1.1" id="Layer_1" xmlns="http://www.w3.org/2000/svg" xmlns:xlink="http://www.w3.org/1999/xlink" x="0px" y="0px"
	 viewBox="0 -12 783 64" style="enable-background:new 0 -12 783 64;" xml:space="preserve">
<metadata><?xpacket begin="﻿" id="W5M0MpCehiHzreSzNTczkc9d"?>
<x:xmpmeta xmlns:x="adobe:ns:meta/" x:xmptk="Adobe XMP Core 5.6-c067 79.157747, 2015/03/30-23:40:42        ">
   <rdf:RDF xmlns:rdf="http://www.w3.org/1999/02/22-rdf-syntax-ns#">
      <rdf:Description rdf:about=""/>
   </rdf:RDF>
</x:xmpmeta>
                                                                                                    
                                                                                                    
                                                                                                    
                                                                                                    
                                                                                                    
                                                                                                    
                                                                                                    
                                                                                                    
                                                                                                    
                                                                                                    
                                                                                                    
                                                                                                    
                                                                                                    
                                                                                                    
                                                                                                    
                                                                                                    
                                                                                                    
                                                                                                    
                                                                                                    
                                                                                                    
                           
<?xpacket end="w"?></metadata>
<style type="text/css">
	.st0{fill:#BBBDBF;}
	.st1{fill:#FFFFFF;}
</style>
<g>
	<g>
		<g>
			<g>
				<path class="st0" d="M655.9,0.5c0,16.6,0,33.4,0,50c-1.1,0-2.2,0-3.3,0c0-0.1,0-0.3,0-0.4c0-13.1,0-26.3,0-39.4c0-3,0-6.1,0-9.2
					c0-1-0.3-1.4-1.2-1.4c-6.9,0-13.7,0-20.5,0c-0.9,0-1.1,0.3-1.1,1.1c0,3.5,0,7.1,0,10.7c0,0.2,0,0.4,0,0.7c0.4,0,0.6,0,0.9,0
					c4.4,0,8.9,0.1,13.2,0c2.8-0.1,4.6,2,4.6,4.6c0,11.1,0,22.2,0,33.4c-12.9,0-25.8,0-38.6,0c0-0.2,0-0.3,0-0.5
					c0-10.9,0-21.9,0-32.8c0-0.5,0-1,0.1-1.5c0.5-2,2.1-3.2,4.2-3.2c3.7,0,7.6,0,11.3,0c0.2,0,0.5,0,0.8,0c0-0.3,0-0.5,0-0.7
					c0-3.4,0-6.9,0-10.3c0-1.4,0.3-2.8,1.5-3.7c0.7-0.5,1.5-0.7,2.2-1.1c7.5,0,14.8,0,22.3,0c0.7,0.4,1.5,0.7,2.2,1.2
					C655.4-1.5,655.6-0.5,655.9,0.5z M645.1,50c0-0.3,0-0.6,0-0.8c0-8.2,0-19.4,0-27.5c0-1.5,0-3,0-4.5c0-0.8-0.4-1.2-1.1-1.2
					c-9.9,0-19.8,0-29.6,0c-0.8,0-1.1,0.3-1.1,1.1c0,9.8,0,22.6,0,32.3c0,0.2,0,0.4,0,0.7c4.4,0,8.9,0,13.3,0c0-3,0-9,0-11.9
					c1.7,0,3.3,0,5,0c0,3,0,9,0,11.9C636.1,50,640.5,50,645.1,50z"/>
				<path class="st1" d="M648.5,50.5c0-11.1,0-22.2,0-33.4c0-2.6-1.9-4.7-4.6-4.6c-4.4,0.1-8.8,0-13.2,0c-0.3,0-0.5,0-0.9,0
					c0-0.2,0-0.5,0-0.7c0-3.5,0-7.1,0-10.7c0-0.9,0.3-1.1,1.1-1.1c6.9,0,13.7,0,20.5,0c0.9,0,1.2,0.4,1.2,1.4c0,3,0,6.1,0,9.2
					c0,13.1,0,26.3,0,39.4c0,0.1,0,0.3,0,0.4C651.1,50.5,649.8,50.5,648.5,50.5z M643.1,4.1c0,1.7,0,3.4,0,5.1c1.7,0,3.4,0,5,0
					c0-1.7,0-3.4,0-5.1C646.4,4.1,644.8,4.1,643.1,4.1z M638.9,4.1c-1.7,0-3.3,0-4.9,0c0,1.7,0,3.4,0,5.1c1.7,0,3.3,0,4.9,0
					C638.9,7.5,638.9,5.8,638.9,4.1z"/>
				<path class="st1" d="M645.1,50c-4.5,0-9.1,0-13.6,0c0-2.9,0-9,0-11.9c-1.7,0-3.3,0-5,0c0,2.9,0,8.9,0,11.9c-4.4,0-8.9,0-13.3,0
					c0-0.2,0-0.4,0-0.7c0-9.8,0-22.6,0-32.3c0-0.8,0.3-1.1,1.1-1.1c9.9,0,19.8,0,29.6,0c0.7,0,1.1,0.4,1.1,1.2c0,1.5,0,3,0,4.5
					c0,8.2,0,19.4,0,27.5C645.1,49.4,645.1,49.7,645.1,50z M622.4,25.1c0-1.7,0-3.4,0-5.1c-1.7,0-3.4,0-5,0c0,1.7,0,3.4,0,5.1
					C619,25.1,620.6,25.1,622.4,25.1z M640.7,20.1c-1.7,0-3.4,0-5.1,0c0,1.7,0,3.4,0,5.1c1.7,0,3.4,0,5.1,0
					C640.7,23.4,640.7,21.8,640.7,20.1z M635.6,43.2c1.7,0,3.4,0,5.1,0c0-1.7,0-3.3,0-5c-1.7,0-3.4,0-5.1,0
					C635.6,39.9,635.6,41.6,635.6,43.2z M617.3,38.1c0,1.8,0,3.4,0,5c1.7,0,3.4,0,5.1,0c0-1.6,0-3.1,0-4.6c0-0.2-0.3-0.4-0.4-0.4
					C620.4,38.1,618.9,38.1,617.3,38.1z M626.5,25.1c1.7,0,3.3,0,4.9,0c0-1.7,0-3.4,0-5.1c-1.7,0-3.3,0-4.9,0
					C626.5,21.8,626.5,23.4,626.5,25.1z M622.4,29.2c-1.7,0-3.4,0-5.1,0c0,1.7,0,3.3,0,4.9c1.7,0,3.4,0,5.1,0
					C622.4,32.5,622.4,30.9,622.4,29.2z M640.7,34.1c0-1.7,0-3.3,0-4.9c-1.7,0-3.4,0-5.1,0c0,1.7,0,3.3,0,4.9
					C637.3,34.1,639,34.1,640.7,34.1z M631.5,34.1c0-1.7,0-3.3,0-4.9c-1.7,0-3.3,0-4.9,0c0,1.7,0,3.3,0,4.9
					C628.1,34.1,629.8,34.1,631.5,34.1z"/>
				<path class="st0" d="M643.1,4.1c1.7,0,3.3,0,5,0c0,1.7,0,3.3,0,5.1c-1.7,0-3.3,0-5,0C643.1,7.5,643.1,5.9,643.1,4.1z"/>
				<path class="st0" d="M638.9,4.1c0,1.7,0,3.4,0,5.1c-1.6,0-3.3,0-4.9,0c0-1.7,0-3.4,0-5.1C635.6,4.1,637.2,4.1,638.9,4.1z"/>
				<path class="st0" d="M622.4,25.1c-1.7,0-3.3,0-5,0c0-1.7,0-3.4,0-5.1c1.7,0,3.3,0,5,0C622.4,21.7,622.4,23.4,622.4,25.1z"/>
				<path class="st0" d="M640.7,20.1c0,1.7,0,3.4,0,5.1c-1.7,0-3.3,0-5.1,0c0-1.7,0-3.3,0-5.1C637.3,20.1,639,20.1,640.7,20.1z"/>
				<path class="st0" d="M635.6,43.2c0-1.7,0-3.3,0-5c1.7,0,3.4,0,5.1,0c0,1.7,0,3.3,0,5C639,43.2,637.3,43.2,635.6,43.2z"/>
				<path class="st0" d="M617.3,38.1c1.6,0,3.1,0,4.6,0c0.2,0,0.4,0.3,0.4,0.4c0,1.5,0,3,0,4.6c-1.7,0-3.4,0-5.1,0
					C617.3,41.6,617.3,39.9,617.3,38.1z"/>
				<path class="st0" d="M626.5,25.1c0-1.7,0-3.4,0-5.1c1.6,0,3.2,0,4.9,0c0,1.7,0,3.3,0,5.1C629.9,25.1,628.2,25.1,626.5,25.1z"/>
				<path class="st0" d="M622.4,29.2c0,1.7,0,3.2,0,4.9c-1.7,0-3.4,0-5.1,0c0-1.6,0-3.2,0-4.9C619,29.2,620.7,29.2,622.4,29.2z"/>
				<path class="st0" d="M640.7,34.1c-1.7,0-3.4,0-5.1,0c0-1.6,0-3.2,0-4.9c1.7,0,3.3,0,5.1,0C640.7,30.8,640.7,32.4,640.7,34.1z"/>
				<path class="st0" d="M631.5,34.1c-1.7,0-3.3,0-4.9,0c0-1.6,0-3.3,0-4.9c1.6,0,3.3,0,4.9,0C631.5,30.8,631.5,32.4,631.5,34.1z"/>
			</g>
			<g>
				<path class="st0" d="M676.3-12c9.6,0,19.3,0,28.8,0c0,6.1,0,9.4,0,15.6c4.3,0,8.5,0,12.6,0c0,14.9,0,31.6,0,46.7
					c1.1,0,2.3,0,3.5,0c0,1.2,0,0.2,0,1.3c-21.7,0-43.3,0-64.9,0c0-1.1,0-0.1,0-1.3c1.1,0,2,0,3.1,0c0-18.6,0-39.1,0-57.8
					c5.6,0,11.2,0,16.8,0C676.3-10.1,676.3-9.6,676.3-12z M688.8,3.5c4.3,0,8.6,0,12.9,0c0-4.9,0-7.8,0-12.6c-7.4,0-14.6,0-22,0
					c0,1.2,0,0.4,0,1.6c1.7,0,3.3,0,5.1,0c0,18.5,0,37,0,55.5c1.4,0,2.7,0,4.2,0c0-2.9,0-5.8,0-8.8c1.4,0,2.7,0,4.2,0
					c0,3,0,5.8,0,8.8c1.3,0,2.5,0,3.9,0c0-3,0-5.8,0-8.8c1.5,0,2.7,0,4.1,0c0,3,0,5.8,0,8.8c1.4,0,2.6,0,4,0c0-3,0-5.9,0-8.8
					c1.4,0,2.7,0,4.1,0c0,3,0,5.8,0,8.8c1.7,0,3.3,0,4.9,0c0-13.8,0-27.4,0-41.3c-8.6,0-17.1,0-25.6,0
					C688.8,5.6,688.8,4.7,688.8,3.5z M663.3,11.7c5.9,0,11.8,0,17.5,0c0-1.5,0-2.9,0-4.3c-5.9,0-11.7,0-17.5,0
					C663.3,9,663.3,10.3,663.3,11.7z M681,26.1c-5.9,0-11.8,0-17.5,0c0,1.5,0,2.9,0,4.3c5.9,0,11.7,0,17.5,0
					C681,29.1,681,27.7,681,26.1z M681,2.6c0-1.4,0-2.8,0-4.2c-5.9,0-11.8,0-17.5,0c0,1.5,0,2.8,0,4.2C669.3,2.6,675.1,2.6,681,2.6z
					 M681,35.6c-5.9,0-11.7,0-17.5,0c0,1.5,0,2.8,0,4.3c5.9,0,11.7,0,17.5,0C681,38.5,681,37.1,681,35.6z M663.3,21
					c5.9,0,11.8,0,17.6,0c0-1.5,0-2.9,0-4.3c-5.9,0-11.7,0-17.6,0C663.3,18.2,663.3,19.6,663.3,21z M669.9,43.7c0,1.7,0,3.4,0,5
					c1.7,0,3.4,0,5,0c0-1.7,0-3.3,0-5C673.2,43.7,671.6,43.7,669.9,43.7z"/>
				<path class="st1" d="M688.8,3.5c0,1.1,0,2.1,0,3.2c8.5,0,17,0,25.6,0c0,13.8,0,29.5,0,43.3c-1.6,0-3.2,0-4.9,0
					c0-2.9,0-7.8,0-10.8c-1.4,0-2.7,0-4.1,0c0,2.8,0,7.8,0,10.8c-1.4,0-2.6,0-4,0c0-2.9,0-7.9,0-10.8c-1.4,0-2.7,0-4.1,0
					c0,2.9,0,7.9,0,10.8c-1.4,0-2.6,0-3.9,0c0-2.9,0-7.8,0-10.8c-1.4,0-2.7,0-4.2,0c0,2.9,0,7.8,0,10.8c-1.4,0-2.7,0-4.2,0
					c0-18.5,0-39,0-57.5c-1.7,0-3.4,0-5.1,0c0-1.2,0-0.4,0-1.6c7.3,0,14.6,0,22,0c0,4.8,0,7.7,0,12.6C697.5,3.5,693.2,3.5,688.8,3.5
					z M701.2,25.4c0-1.4,0-2.7,0-4c-1.4,0-2.6,0-3.9,0c0,1.4,0,2.7,0,4C698.7,25.4,699.9,25.4,701.2,25.4z M709.5,21.4
					c-1.4,0-2.7,0-4,0c0,1.4,0,2.7,0,4c1.4,0,2.6,0,4,0C709.5,24,709.5,22.8,709.5,21.4z M689.2,21.4c0,1.4,0,2.7,0,4
					c1.4,0,2.7,0,4,0c0-1.4,0-2.6,0-4C691.9,21.4,690.5,21.4,689.2,21.4z M689.1,34.6c1.4,0,2.7,0,3.9,0c0-1.4,0-2.7,0-4
					c-1.4,0-2.6,0-3.9,0C689.1,31.9,689.1,33.2,689.1,34.6z M701.2,34.6c0-1.4,0-2.7,0-4.1c-1.2,0-2.2,0-3.3,0
					c-0.3,0-0.7,0.4-0.7,0.7c-0.1,1.1,0,2.2,0,3.4C698.6,34.6,699.9,34.6,701.2,34.6z M705.5,30.5c0,1.5,0,2.7,0,4.1
					c1.3,0,2.6,0,4,0c0-1.2,0-2.3,0-3.4c0-0.2-0.4-0.6-0.7-0.7C707.7,30.5,706.7,30.5,705.5,30.5z M705.5,12.7c0,1.4,0,2.7,0,4.1
					c1.1,0,2.2,0.1,3.2,0c0.3,0,0.8-0.4,0.8-0.7c0.1-1.1,0-2.2,0-3.4C708.1,12.7,706.9,12.7,705.5,12.7z M701.3,12.7
					c-1.4,0-2.7,0-4.1,0c0,1.2,0,2.3,0,3.4c0,0.2,0.4,0.6,0.6,0.6c1.1,0.1,2.3,0,3.5,0C701.3,15.4,701.3,14.2,701.3,12.7z
					 M689.1,16.8c1.4,0,2.7,0,3.9,0c0-1.4,0-2.7,0-3.9c-1.4,0-2.6,0-3.9,0C689.1,14.2,689.1,15.4,689.1,16.8z"/>
				<path class="st1" d="M663.3,11.7c0-1.4,0-2.8,0-4.3c5.8,0,11.6,0,17.5,0c0,1.4,0,2.8,0,4.3C675.1,11.7,669.4,11.7,663.3,11.7z"
					/>
				<path class="st1" d="M681,26.1c0,1.5,0,2.8,0,4.3c-5.8,0-11.7,0-17.5,0c0-1.4,0-2.8,0-4.3C669.2,26.1,675,26.1,681,26.1z"/>
				<path class="st1" d="M681,2.6c-5.8,0-11.7,0-17.5,0c0-1.4,0-2.8,0-4.2c5.8,0,11.7,0,17.5,0C681-0.3,681,1.1,681,2.6z"/>
				<path class="st1" d="M681,35.6c0,1.5,0,2.8,0,4.3c-5.8,0-11.7,0-17.5,0c0-1.4,0-2.8,0-4.3C669.3,35.6,675,35.6,681,35.6z"/>
				<path class="st1" d="M663.3,21c0-1.5,0-2.8,0-4.3c5.8,0,11.7,0,17.6,0c0,1.4,0,2.8,0,4.3C675.1,21,669.3,21,663.3,21z"/>
				<path class="st1" d="M669.9,43.7c1.7,0,3.3,0,5,0c0,1.7,0,5.3,0,7.1c-1.6,0-3.2,0-5,0C669.9,49.1,669.9,45.5,669.9,43.7z"/>
				<path class="st0" d="M701.2,25.4c-1.3,0-2.6,0-3.9,0c0-1.3,0-2.6,0-4c1.3,0,2.6,0,3.9,0C701.2,22.7,701.2,24,701.2,25.4z"/>
				<path class="st0" d="M709.5,21.4c0,1.3,0,2.6,0,4c-1.3,0-2.6,0-4,0c0-1.3,0-2.6,0-4C706.8,21.4,708,21.4,709.5,21.4z"/>
				<path class="st0" d="M689.2,21.4c1.3,0,2.6,0,4,0c0,1.3,0,2.6,0,4c-1.3,0-2.6,0-4,0C689.2,24.1,689.2,22.8,689.2,21.4z"/>
				<path class="st0" d="M689.1,34.6c0-1.4,0-2.6,0-4c1.3,0,2.6,0,3.9,0c0,1.3,0,2.6,0,4C691.9,34.6,690.6,34.6,689.1,34.6z"/>
				<path class="st0" d="M701.2,34.6c-1.3,0-2.6,0-4,0c0-1.2,0-2.3,0-3.4c0-0.2,0.4-0.6,0.7-0.7c1.1-0.1,2.1,0,3.3,0
					C701.2,31.9,701.2,33.1,701.2,34.6z"/>
				<path class="st0" d="M705.5,30.5c1.2,0,2.3,0,3.3,0c0.3,0,0.7,0.4,0.7,0.7c0.1,1.1,0,2.2,0,3.4c-1.4,0-2.7,0-4,0
					C705.5,33.2,705.5,32,705.5,30.5z"/>
				<path class="st0" d="M705.5,12.7c1.4,0,2.6,0,4,0c0,1.2,0.1,2.3,0,3.4c0,0.3-0.5,0.7-0.8,0.7c-1,0.1-2,0-3.2,0
					C705.5,15.5,705.5,14.2,705.5,12.7z"/>
				<path class="st0" d="M701.3,12.7c0,1.4,0,2.6,0,4c-1.2,0-2.3,0-3.5,0c-0.2,0-0.6-0.4-0.6-0.6c-0.1-1.1,0-2.2,0-3.4
					C698.6,12.7,699.9,12.7,701.3,12.7z"/>
				<path class="st0" d="M689.1,16.8c0-1.3,0-2.6,0-3.9c1.3,0,2.6,0,3.9,0c0,1.3,0,2.6,0,3.9C691.9,16.8,690.5,16.8,689.1,16.8z"/>
			</g>
		</g>
		<g>
			<path class="st0" d="M760.3,41c0.1,0.2,0.1,0.4-0.2,0.5c-0.6,0.3-1.2,0.6-1.7,0.8c-0.2,0.1-0.4,0-0.5-0.2c-0.5-1-1-2-1.5-3
				c-0.1-0.2,0-0.3,0.2-0.4s0.3-0.2,0.5-0.2c0.4-0.2,0.8-0.4,1.2-0.6c0.2-0.1,0.4,0,0.5,0.2s0.2,0.4,0.3,0.6c0.5-0.3,0.9,0,1.4,0
				c0.2,0,0.3,0.1,0.5,0.1c0.4,0.1,0.8,0,1.1-0.2c0.5-0.4,0.9-0.9,1.1-1.6c0.1-0.5,0.4-0.9,1-0.9c0.8,0,1.5,0,2.2,0.3
				c0.8,0.4,1.4,0.9,1.6,1.7c0.3,0.9,0.3,1.9,0.2,2.8c-0.1,0.4-0.2,0.6-0.7,0.6c-0.3,0-0.5-0.2-0.5-0.7c0-0.6,0-1.2,0-1.7
				c0-0.6-0.4-1.2-1-1.5v0.1c0.3,1,0.4,2,0.4,3c0,0.5,0,1-0.3,1.4v0.1c0,0.4,0,0.9,0.1,1.3c0.2,1,0.6,1.9,1.4,2.5
				c0.3,0.3,0.6,0.5,1,0.7c0.3,0.2,0.6,0.4,0.7,0.7c0.1,0.4,0,0.7-0.3,1c-0.3,0.2-0.6,0.3-0.9,0.1c-1-0.4-1.8-1.1-2.5-2
				c-0.3-0.5-0.6-1-0.8-1.5c-0.2-0.4-0.3-0.9-0.5-1.3c-0.2,0.4-0.4,0.8-0.6,1.2c-0.3,0.9-0.2,1.9,0.2,2.8c0.2,0.4,0,0.9-0.4,1.1
				c-0.7,0.3-1.2,0.1-1.4-0.6c-0.4-1.2-0.5-2.3-0.2-3.5c0.3-1.1,0.9-2,1.8-2.8c0.1-0.1,0.1-0.2,0.1-0.3c0-0.4,0-0.8,0-1.2
				c0-0.5-0.1-0.9-0.2-1.4c-0.9,1-1.9,1.3-3,1c-0.2,0.2-0.3,0.3-0.5,0.5C760.1,40.6,760.2,40.8,760.3,41z M760.2,39.9
				c-0.5-0.3-0.5-0.5-0.3-1.1c-0.2,0-0.4,0-0.6,0.1c0.2,0.5,0.4,0.8,0.7,1.3C760,40,760.1,40,760.2,39.9z"/>
			<path class="st0" d="M764.8,34.2c-0.1-0.9-0.6-1.7-1.7-1.7c-1.1,0-1.7,0.8-1.7,1.7c0,1,0.7,1.7,1.7,1.7S764.8,35.2,764.8,34.2z"
				/>
		</g>
		<g>
			<path class="st0" d="M603.7,42.2c-0.1,0-0.2,0-0.4,0c0,0.1,0,0.2,0,0.3c0,1.9,0,3.7,0,5.6c0,0.7-0.8,1.2-1.4,0.8
				c-0.4-0.2-0.5-0.6-0.5-1c0-1.7,0-3.4,0-5.1c0-0.2,0-0.4-0.2-0.5s-0.3-0.4-0.4-0.6c-0.3-0.8-0.6-1.6-0.8-2.5
				c-0.2-1-0.1-1.9,0.6-2.7c0.4-0.4,0.8-0.6,1.4-0.6c1,0,2,0,3,0c0.3,0,0.6,0.1,0.8,0.3c0.6,0.3,1,0.9,1.2,1.6
				c0.2,0.7-0.1,1.4-0.7,1.8c-0.5,0.3-1,0.5-1.5,0.5c-0.3,0-0.6,0-1,0c-0.3,0-0.6-0.4-0.6-0.7c0-0.4,0.4-0.6,0.8-0.6
				c0.5,0,0.9,0,1.4-0.2c0.5-0.1,0.5-0.7,0.2-1.2c0,0.3,0,0.5,0,0.7c0,0.1-0.1,0.2-0.1,0.3c-0.3,0.1-0.6,0.2-0.9,0.2
				c-0.1-0.4-0.1-0.8-0.2-1.1c0-0.2-0.1-0.2-0.2-0.2c-0.4,0.1-0.8,0.1-1.2,0.2c-0.2,0-0.4,0.1-0.6,0.1c0.2,1.1,0.3,2.3,0.5,3.4
				c0.7-0.1,1.3-0.2,2-0.3c0-0.2,0-0.4,0-0.6c0.2,0,0.5-0.1,0.8-0.1c0,0.1,0,0.3,0,0.4c0,2.5,0,5,0,7.6c0,0.8-0.6,1.3-1.3,1
				c-0.4-0.1-0.6-0.4-0.6-0.9c0-1.9,0-3.7,0-5.6C603.7,42.4,603.7,42.3,603.7,42.2z M601.4,37.4c-0.3,0.7-0.2,1.3,0,2
				C601.4,38.7,601.4,38,601.4,37.4z"/>
			<path class="st0" d="M603.7,35.2c-1,0.2-1.8-0.9-1.7-1.7c0-0.9,0.8-1.7,1.8-1.7s1.7,0.8,1.7,1.7
				C605.4,34.5,604.7,35.2,603.7,35.2z"/>
		</g>
		<g>
			<path class="st0" d="M729.7,39.6c-0.3,0-0.6,0-0.8,0c-1.4,0-2.6-0.5-3.5-1.5c-1.1-1.1-1.6-2.4-1.6-3.9c0-0.3-0.1-0.8-0.3-0.9
				c-2.1-1.2-3.1-2.9-3-5.3c0.1-1.9,1-3.2,2.6-4.2c0.5-0.3,0.8-0.6,0.8-1.2c-0.1-2.2,1.5-4.4,3.5-5.1c0.2-0.1,0.5-0.3,0.5-0.5
				c0.4-1.1,1-2.1,1.9-2.9c2.1-2,5.8-2.1,8.1-0.5c0.4,0.3,0.6,0.3,1,0.1c1.2-0.8,2.4-1.1,3.9-1.2c3.6,0,6.5,3,6.4,6.7
				c0,0.9,0.3,1.1,0.9,1.4c2.6,1.3,3.9,4.6,3.1,7.5c-0.6,2.1-2.1,3.5-4,4.3c0.8,3.9-2.6,9.1-9,7.2c0,1.7,0,8.9,0,10.5
				c-0.7,0-1.4,0-2,0c0-1.7,0-8.9,0-10.5c-0.8,0.1-1.6,0.1-2.4,0.2c0,3.4,0,6.9,0,10.3c-0.7,0-1.4,0-2.1,0c0-0.3,0-0.6,0-0.8
				c0-3.1,0-6.3,0-9.5c0-0.7-0.4-0.9-0.8-1c-0.4-0.1-0.8,0.5-0.8,1c0,3.1,0,6.3,0,9.5c0,0.3,0,0.5,0,0.8c-0.7,0-1.2,0-2,0
				C729.7,46.5,729.7,43.1,729.7,39.6z M725.9,23.4c0.3,0.9,0,1.5-0.9,1.6c-1.3,0.2-2.1,1.1-2.5,2.2c-0.6,1.6,0.5,3.8,2.3,4.2
				c1.2,0.3,1.4,0.6,1.1,1.8c-0.4,1.4,0.2,2.9,1.6,3.8c1.2,0.7,2.7,0.6,3.8-0.5c1-1,1.3-1,2.3,0c0.9,0.9,2.1,1.2,3.3,0.7
				s2-1.3,2.2-2.6c0.1-0.5,0-1-0.1-1.6c-0.2-0.9,0.1-1.4,1-1.6c1.5-0.3,2.6-1.9,2.6-3.3c0-1.3-1.3-2.9-2.6-3.1c-1-0.2-1.2-0.7-1-1.7
				c0.7-2.5-1.2-4.4-3.3-4.3c-0.8,0-1.6,0.4-2.2,1c-0.9,0.9-1.2,0.9-2.2,0c-1.1-1-2.3-1.2-3.6-0.7c-1.2,0.5-2,1.7-2.1,3.1
				C725.7,22.8,725.8,23.1,725.9,23.4z M732.2,18c0.2,0.1,0.5,0,0.6-0.1c2.5-1.6,5.9-1,7.7,1.6c0.6,0.9,0.9,1.9,0.8,2.9
				c-0.1,0.6,0.1,0.9,0.7,1.1c2.5,1.2,3.6,4.9,2,7.6c-0.6,0.9-1.3,1.5-2.2,2c-0.2,0.1-0.4,0.5-0.4,0.8c-0.2,1-0.4,2.1-0.5,3.3
				c0.9,0.7,2.5,0.6,3.9-0.2c1.8-1,2.6-3.2,2-5.2c-0.3-0.9-0.1-1.3,0.8-1.6c2.1-0.6,3.5-2.3,3.6-4.2c0-2.3-1.4-3.9-3.5-4.5
				c-0.9-0.2-1.2-0.6-0.9-1.5c0.9-2.7-0.8-5.2-3.4-5.8c-1.5-0.3-2.8,0.2-3.9,1.3c-0.7,0.7-1.3,0.8-2.1,0c-1.9-1.9-4.3-1.9-6.2-0.3
				c-0.1,0.1-0.2,0.1-0.2,0.2c-0.3,0.4-0.6,0.9-0.8,1.3C730.8,17.3,731.5,17.7,732.2,18z"/>
			<path class="st1" d="M725.7,22.4c0.1,0.3,0.1,0.7,0.2,1c0.3,0.9,0,1.5-0.9,1.6c-1.3,0.2-2.1,1.1-2.5,2.2
				c-0.6,1.6,0.5,3.8,2.3,4.2c1.2,0.3,1.4,0.6,1.1,1.8c-0.4,1.4,0.2,2.9,1.6,3.8c1.2,0.7,2.7,0.6,3.8-0.5c1-1,1.3-1,2.3,0
				c0.9,0.9,2.1,1.2,3.3,0.7s2-1.3,2.2-2.6c0.1-0.5,0-1-0.1-1.6c-0.2-0.9,0.1-1.4,1-1.6c1.5-0.3,2.6-1.9,2.6-3.3
				c0-1.3-1.3-2.9-2.6-3.1c-1-0.2-1.2-0.7-1-1.7c0.7-2.5-1.2-4.4-3.3-4.3c-0.8,0-1.6,0.4-2.2,1c-0.9,0.9-1.2,0.9-2.2,0
				c-1.1-1-2.3-1.2-3.6-0.7C726.5,19.9,725.7,21.1,725.7,22.4z"/>
			<path class="st1" d="M730,17c0.8,0.4,1.5,0.8,2.3,1.1c0.2,0.1,0.5,0,0.6-0.1c2.5-1.6,5.9-1,7.7,1.6c0.6,0.9,0.9,1.9,0.8,2.9
				c-0.1,0.6,0.1,0.9,0.7,1.1c2.5,1.2,3.6,4.9,2,7.6c-0.6,0.9-1.3,1.5-2.2,2c-0.2,0.1-0.4,0.5-0.4,0.8c-0.2,1-0.4,2.1-0.5,3.3
				c0.9,0.7,2.5,0.6,3.9-0.2c1.8-1,2.6-3.2,2-5.2c-0.3-0.9-0.1-1.3,0.8-1.6c2.1-0.6,3.5-2.3,3.6-4.2c0-2.3-1.4-3.9-3.5-4.5
				c-0.9-0.2-1.2-0.6-0.9-1.5c0.9-2.7-0.8-5.2-3.4-5.8c-1.5-0.3-2.8,0.2-3.9,1.3c-0.7,0.7-1.3,0.8-2.1,0c-1.9-1.9-4.3-1.9-6.2-0.3
				c-0.1,0.1-0.2,0.1-0.2,0.2C730.5,16.1,730.3,16.5,730,17z"/>
		</g>
	</g>
	<rect x="-4" y="48.8" class="st0" width="789" height="3.1"/>
</g>
</svg>
