<?xml version="1.0" encoding="utf-8"?>
<!-- Generator: Adobe Illustrator 19.1.0, SVG Export Plug-In . SVG Version: 6.00 Build 0)  -->
<svg version="1.1" id="Layer_1" xmlns="http://www.w3.org/2000/svg" xmlns:xlink="http://www.w3.org/1999/xlink" x="0px" y="0px"
	 viewBox="0 0 783 64" style="enable-background:new 0 0 783 64;" xml:space="preserve">
<style type="text/css">
	.st0{fill:#82BC00;}
	.st1{fill:#E3EEC5;}
</style>
<g>
	<g>
		<g>
			<g>
				<path class="st0" d="M654.6,12.5c0,16.5,0,33.1,0,49.6c-1.1,0-2.2,0-3.3,0c0-0.1,0-0.3,0-0.4c0-13,0-26.1,0-39.1
					c0-3,0-6.1,0-9.1c0-1-0.3-1.4-1.2-1.4c-6.8,0-13.6,0-20.3,0c-0.9,0-1.1,0.3-1.1,1.1c0,3.5,0,7,0,10.6c0,0.2,0,0.4,0,0.7
					c0.4,0,0.6,0,0.9,0c4.4,0,8.8,0.1,13.1,0c2.8-0.1,4.6,2,4.6,4.6c0,11,0,22,0,33.1c-12.8,0-25.6,0-38.3,0c0-0.2,0-0.3,0-0.5
					c0-10.8,0-21.7,0-32.5c0-0.5,0-1,0.1-1.5c0.5-2,2.1-3.2,4.2-3.2c3.7,0,7.5,0,11.2,0c0.2,0,0.5,0,0.8,0c0-0.3,0-0.5,0-0.7
					c0-3.4,0-6.8,0-10.2c0-1.4,0.3-2.8,1.5-3.7c0.7-0.5,1.5-0.7,2.2-1.1c7.4,0,14.7,0,22.1,0c0.7,0.4,1.5,0.7,2.2,1.2
					C654.1,10.5,654.3,11.5,654.6,12.5z M643.9,61.6c0-0.3,0-0.6,0-0.8c0-8.1,0-19.2,0-27.3c0-1.5,0-3,0-4.5c0-0.8-0.4-1.2-1.1-1.2
					c-9.8,0-19.6,0-29.4,0c-0.8,0-1.1,0.3-1.1,1.1c0,9.7,0,22.4,0,32c0,0.2,0,0.4,0,0.7c4.4,0,8.8,0,13.2,0c0-3,0-8.9,0-11.8
					c1.7,0,3.3,0,5,0c0,3,0,8.9,0,11.8C635,61.6,639.4,61.6,643.9,61.6z"/>
				<path class="st1" d="M647.3,62.1c0-11,0-22,0-33.1c0-2.6-1.9-4.7-4.6-4.6c-4.4,0.1-8.7,0-13.1,0c-0.3,0-0.5,0-0.9,0
					c0-0.2,0-0.5,0-0.7c0-3.5,0-7,0-10.6c0-0.9,0.3-1.1,1.1-1.1c6.8,0,13.6,0,20.3,0c0.9,0,1.2,0.4,1.2,1.4c0,3,0,6.1,0,9.1
					c0,13,0,26.1,0,39.1c0,0.1,0,0.3,0,0.4C649.9,62.1,648.6,62.1,647.3,62.1z M641.9,16c0,1.7,0,3.4,0,5.1c1.7,0,3.4,0,5,0
					c0-1.7,0-3.4,0-5.1C645.2,16,643.6,16,641.9,16z M637.8,16c-1.7,0-3.3,0-4.9,0c0,1.7,0,3.4,0,5.1c1.7,0,3.3,0,4.9,0
					C637.8,19.4,637.8,17.7,637.8,16z"/>
				<path class="st1" d="M643.9,61.6c-4.5,0-9,0-13.5,0c0-2.9,0-8.9,0-11.8c-1.7,0-3.3,0-5,0c0,2.9,0,8.8,0,11.8
					c-4.4,0-8.8,0-13.2,0c0-0.2,0-0.4,0-0.7c0-9.7,0-22.4,0-32c0-0.8,0.3-1.1,1.1-1.1c9.8,0,19.6,0,29.4,0c0.7,0,1.1,0.4,1.1,1.2
					c0,1.5,0,3,0,4.5c0,8.1,0,19.2,0,27.3C643.9,61,643.9,61.3,643.9,61.6z M621.4,36.9c0-1.7,0-3.4,0-5.1c-1.7,0-3.4,0-5,0
					c0,1.7,0,3.4,0,5.1C618,36.9,619.6,36.9,621.4,36.9z M639.6,31.9c-1.7,0-3.4,0-5.1,0c0,1.7,0,3.4,0,5.1c1.7,0,3.4,0,5.1,0
					C639.6,35.2,639.6,33.6,639.6,31.9z M634.5,54.8c1.7,0,3.4,0,5.1,0c0-1.7,0-3.3,0-5c-1.7,0-3.4,0-5.1,0
					C634.5,51.5,634.5,53.2,634.5,54.8z M616.3,49.8c0,1.8,0,3.4,0,5c1.7,0,3.4,0,5.1,0c0-1.6,0-3.1,0-4.6c0-0.2-0.3-0.4-0.4-0.4
					C619.4,49.8,617.9,49.8,616.3,49.8z M625.5,36.9c1.7,0,3.3,0,4.9,0c0-1.7,0-3.4,0-5.1c-1.7,0-3.3,0-4.9,0
					C625.5,33.6,625.5,35.2,625.5,36.9z M621.4,40.9c-1.7,0-3.4,0-5.1,0c0,1.7,0,3.3,0,4.9c1.7,0,3.4,0,5.1,0
					C621.4,44.2,621.4,42.6,621.4,40.9z M639.6,45.8c0-1.7,0-3.3,0-4.9c-1.7,0-3.4,0-5.1,0c0,1.7,0,3.3,0,4.9
					C636.2,45.8,637.9,45.8,639.6,45.8z M630.4,45.8c0-1.7,0-3.3,0-4.9c-1.7,0-3.3,0-4.9,0c0,1.7,0,3.3,0,4.9
					C627.1,45.8,628.7,45.8,630.4,45.8z"/>
				<path class="st0" d="M641.9,16c1.7,0,3.3,0,5,0c0,1.7,0,3.3,0,5.1c-1.7,0-3.3,0-5,0C641.9,19.4,641.9,17.8,641.9,16z"/>
				<path class="st0" d="M637.8,16c0,1.7,0,3.4,0,5.1c-1.6,0-3.3,0-4.9,0c0-1.7,0-3.4,0-5.1C634.5,16,636.1,16,637.8,16z"/>
				<path class="st0" d="M621.4,36.9c-1.7,0-3.3,0-5,0c0-1.7,0-3.4,0-5.1c1.7,0,3.3,0,5,0C621.4,33.5,621.4,35.2,621.4,36.9z"/>
				<path class="st0" d="M639.6,31.9c0,1.7,0,3.4,0,5.1c-1.7,0-3.3,0-5.1,0c0-1.7,0-3.3,0-5.1C636.2,31.9,637.9,31.9,639.6,31.9z"/>
				<path class="st0" d="M634.5,54.8c0-1.7,0-3.3,0-5c1.7,0,3.4,0,5.1,0c0,1.7,0,3.3,0,5C637.9,54.8,636.2,54.8,634.5,54.8z"/>
				<path class="st0" d="M616.3,49.8c1.6,0,3.1,0,4.6,0c0.2,0,0.4,0.3,0.4,0.4c0,1.5,0,3,0,4.6c-1.7,0-3.4,0-5.1,0
					C616.3,53.2,616.3,51.5,616.3,49.8z"/>
				<path class="st0" d="M625.5,36.9c0-1.7,0-3.4,0-5.1c1.6,0,3.2,0,4.9,0c0,1.7,0,3.3,0,5.1C628.8,36.9,627.2,36.9,625.5,36.9z"/>
				<path class="st0" d="M621.4,40.9c0,1.7,0,3.2,0,4.9c-1.7,0-3.4,0-5.1,0c0-1.6,0-3.2,0-4.9C618,40.9,619.7,40.9,621.4,40.9z"/>
				<path class="st0" d="M639.6,45.8c-1.7,0-3.4,0-5.1,0c0-1.6,0-3.2,0-4.9c1.7,0,3.3,0,5.1,0C639.6,42.5,639.6,44.1,639.6,45.8z"/>
				<path class="st0" d="M630.4,45.8c-1.7,0-3.3,0-4.9,0c0-1.6,0-3.3,0-4.9c1.6,0,3.3,0,4.9,0C630.4,42.5,630.4,44.1,630.4,45.8z"/>
			</g>
			<g>
				<path class="st0" d="M674.9,0c9.5,0,19.1,0,28.6,0c0,6.1,0,9.3,0,15.5c4.3,0,8.4,0,12.5,0c0,14.8,0,31.4,0,46.3
					c1.1,0,2.3,0,3.5,0c0,1.2,0,0.2,0,1.3c-21.5,0-43,0-64.4,0c0-1.1,0-0.1,0-1.3c1.1,0,2,0,3.1,0c0-18.5,0-38.8,0-57.3
					c5.6,0,11.1,0,16.7,0C674.9,1.9,674.9,2.4,674.9,0z M687.3,15.4c4.3,0,8.5,0,12.8,0c0-4.9,0-7.7,0-12.5c-7.3,0-14.5,0-21.8,0
					c0,1.2,0,0.4,0,1.6c1.7,0,3.3,0,5.1,0c0,18.4,0,36.7,0,55.1c1.4,0,2.7,0,4.2,0c0-2.9,0-5.8,0-8.7c1.4,0,2.7,0,4.2,0
					c0,3,0,5.8,0,8.7c1.3,0,2.5,0,3.9,0c0-3,0-5.8,0-8.7c1.5,0,2.7,0,4.1,0c0,3,0,5.8,0,8.7c1.4,0,2.6,0,4,0c0-3,0-5.9,0-8.7
					c1.4,0,2.7,0,4.1,0c0,3,0,5.8,0,8.7c1.7,0,3.3,0,4.9,0c0-13.7,0-27.2,0-41c-8.5,0-17,0-25.4,0C687.3,17.5,687.3,16.6,687.3,15.4
					z M662,23.6c5.9,0,11.7,0,17.4,0c0-1.5,0-2.9,0-4.3c-5.9,0-11.6,0-17.4,0C662,20.9,662,22.2,662,23.6z M679.5,37.9
					c-5.9,0-11.7,0-17.4,0c0,1.5,0,2.9,0,4.3c5.9,0,11.6,0,17.4,0C679.5,40.8,679.5,39.4,679.5,37.9z M679.5,14.5c0-1.4,0-2.8,0-4.2
					c-5.9,0-11.7,0-17.4,0c0,1.5,0,2.8,0,4.2C667.9,14.5,673.7,14.5,679.5,14.5z M679.5,47.3c-5.9,0-11.6,0-17.4,0
					c0,1.5,0,2.8,0,4.3c5.9,0,11.6,0,17.4,0C679.5,50.2,679.5,48.8,679.5,47.3z M662,32.8c5.9,0,11.7,0,17.5,0c0-1.5,0-2.9,0-4.3
					c-5.9,0-11.6,0-17.5,0C662,30,662,31.4,662,32.8z M668.5,55.3c0,1.7,0,3.4,0,5c1.7,0,3.4,0,5,0c0-1.7,0-3.3,0-5
					C671.8,55.3,670.2,55.3,668.5,55.3z"/>
				<path class="st1" d="M687.3,15.4c0,1.1,0,2.1,0,3.2c8.4,0,16.9,0,25.4,0c0,13.7,0,29.3,0,43c-1.6,0-3.2,0-4.9,0
					c0-2.9,0-7.7,0-10.7c-1.4,0-2.7,0-4.1,0c0,2.8,0,7.7,0,10.7c-1.4,0-2.6,0-4,0c0-2.9,0-7.8,0-10.7c-1.4,0-2.7,0-4.1,0
					c0,2.9,0,7.8,0,10.7c-1.4,0-2.6,0-3.9,0c0-2.9,0-7.7,0-10.7c-1.4,0-2.7,0-4.2,0c0,2.9,0,7.7,0,10.7c-1.4,0-2.7,0-4.2,0
					c0-18.4,0-38.7,0-57.1c-1.7,0-3.4,0-5.1,0c0-1.2,0-0.4,0-1.6c7.2,0,14.5,0,21.8,0c0,4.8,0,7.6,0,12.5
					C695.9,15.4,691.6,15.4,687.3,15.4z M699.6,37.2c0-1.4,0-2.7,0-4c-1.4,0-2.6,0-3.9,0c0,1.4,0,2.7,0,4
					C697.1,37.2,698.3,37.2,699.6,37.2z M707.8,33.2c-1.4,0-2.7,0-4,0c0,1.4,0,2.7,0,4c1.4,0,2.6,0,4,0
					C707.8,35.8,707.8,34.6,707.8,33.2z M687.7,33.2c0,1.4,0,2.7,0,4c1.4,0,2.7,0,4,0c0-1.4,0-2.6,0-4
					C690.3,33.2,689,33.2,687.7,33.2z M687.6,46.3c1.4,0,2.7,0,3.9,0c0-1.4,0-2.7,0-4c-1.4,0-2.6,0-3.9,0
					C687.6,43.6,687.6,44.9,687.6,46.3z M699.6,46.3c0-1.4,0-2.7,0-4.1c-1.2,0-2.2,0-3.3,0c-0.3,0-0.7,0.4-0.7,0.7
					c-0.1,1.1,0,2.2,0,3.4C697,46.3,698.3,46.3,699.6,46.3z M703.8,42.2c0,1.5,0,2.7,0,4.1c1.3,0,2.6,0,4,0c0-1.2,0-2.3,0-3.4
					c0-0.2-0.4-0.6-0.7-0.7C706,42.2,705,42.2,703.8,42.2z M703.8,24.6c0,1.4,0,2.7,0,4.1c1.1,0,2.2,0.1,3.2,0
					c0.3,0,0.8-0.4,0.8-0.7c0.1-1.1,0-2.2,0-3.4C706.4,24.6,705.2,24.6,703.8,24.6z M699.7,24.6c-1.4,0-2.7,0-4.1,0
					c0,1.2,0,2.3,0,3.4c0,0.2,0.4,0.6,0.6,0.6c1.1,0.1,2.3,0,3.5,0C699.7,27.2,699.7,26,699.7,24.6z M687.6,28.6c1.4,0,2.7,0,3.9,0
					c0-1.4,0-2.7,0-3.9c-1.4,0-2.6,0-3.9,0C687.6,26,687.6,27.2,687.6,28.6z"/>
				<path class="st1" d="M662,23.6c0-1.4,0-2.8,0-4.3c5.8,0,11.5,0,17.4,0c0,1.4,0,2.8,0,4.3C673.7,23.6,668,23.6,662,23.6z"/>
				<path class="st1" d="M679.5,37.9c0,1.5,0,2.8,0,4.3c-5.8,0-11.6,0-17.4,0c0-1.4,0-2.8,0-4.3C667.8,37.9,673.6,37.9,679.5,37.9z"
					/>
				<path class="st1" d="M679.5,14.5c-5.8,0-11.6,0-17.4,0c0-1.4,0-2.8,0-4.2c5.8,0,11.6,0,17.4,0C679.5,11.7,679.5,13,679.5,14.5z"
					/>
				<path class="st1" d="M679.5,47.3c0,1.5,0,2.8,0,4.3c-5.8,0-11.6,0-17.4,0c0-1.4,0-2.8,0-4.3C667.9,47.3,673.6,47.3,679.5,47.3z"
					/>
				<path class="st1" d="M662,32.8c0-1.5,0-2.8,0-4.3c5.8,0,11.6,0,17.5,0c0,1.4,0,2.8,0,4.3C673.7,32.8,667.9,32.8,662,32.8z"/>
				<path class="st1" d="M668.5,55.3c1.7,0,3.3,0,5,0c0,1.7,0,5.3,0,7c-1.6,0-3.2,0-5,0C668.5,60.7,668.5,57.1,668.5,55.3z"/>
				<path class="st0" d="M699.6,37.2c-1.3,0-2.6,0-3.9,0c0-1.3,0-2.6,0-4c1.3,0,2.6,0,3.9,0C699.6,34.5,699.6,35.8,699.6,37.2z"/>
				<path class="st0" d="M707.8,33.2c0,1.3,0,2.6,0,4c-1.3,0-2.6,0-4,0c0-1.3,0-2.6,0-4C705.1,33.2,706.3,33.2,707.8,33.2z"/>
				<path class="st0" d="M687.7,33.2c1.3,0,2.6,0,4,0c0,1.3,0,2.6,0,4c-1.3,0-2.6,0-4,0C687.7,35.9,687.7,34.6,687.7,33.2z"/>
				<path class="st0" d="M687.6,46.3c0-1.4,0-2.6,0-4c1.3,0,2.6,0,3.9,0c0,1.3,0,2.6,0,4C690.3,46.3,689.1,46.3,687.6,46.3z"/>
				<path class="st0" d="M699.6,46.3c-1.3,0-2.6,0-4,0c0-1.2,0-2.3,0-3.4c0-0.2,0.4-0.6,0.7-0.7c1.1-0.1,2.1,0,3.3,0
					C699.6,43.6,699.6,44.8,699.6,46.3z"/>
				<path class="st0" d="M703.8,42.2c1.2,0,2.3,0,3.3,0c0.3,0,0.7,0.4,0.7,0.7c0.1,1.1,0,2.2,0,3.4c-1.4,0-2.7,0-4,0
					C703.8,44.9,703.8,43.7,703.8,42.2z"/>
				<path class="st0" d="M703.8,24.6c1.4,0,2.6,0,4,0c0,1.2,0.1,2.3,0,3.4c0,0.3-0.5,0.7-0.8,0.7c-1,0.1-2,0-3.2,0
					C703.8,27.3,703.8,26,703.8,24.6z"/>
				<path class="st0" d="M699.7,24.6c0,1.4,0,2.6,0,4c-1.2,0-2.3,0-3.5,0c-0.2,0-0.6-0.4-0.6-0.6c-0.1-1.1,0-2.2,0-3.4
					C697,24.6,698.3,24.6,699.7,24.6z"/>
				<path class="st0" d="M687.6,28.6c0-1.3,0-2.6,0-3.9c1.3,0,2.6,0,3.9,0c0,1.3,0,2.6,0,3.9C690.3,28.6,689,28.6,687.6,28.6z"/>
			</g>
		</g>
		<g>
			<path class="st0" d="M758.2,52.6c0.1,0.2,0.1,0.4-0.2,0.5c-0.6,0.3-1.2,0.6-1.7,0.8c-0.2,0.1-0.4,0-0.5-0.2c-0.5-1-1-2-1.5-3
				c-0.1-0.2,0-0.3,0.2-0.4c0.2-0.1,0.3-0.2,0.5-0.2c0.4-0.2,0.8-0.4,1.2-0.6c0.2-0.1,0.4,0,0.5,0.2c0.1,0.2,0.2,0.4,0.3,0.6
				c0.5-0.3,0.9,0,1.4,0c0.2,0,0.3,0.1,0.5,0.1c0.4,0.1,0.8,0,1.1-0.2c0.5-0.4,0.9-0.9,1.1-1.6c0.1-0.5,0.4-0.9,1-0.9
				c0.8,0,1.5,0,2.2,0.3c0.8,0.4,1.4,0.9,1.6,1.7c0.3,0.9,0.3,1.9,0.2,2.8c-0.1,0.4-0.2,0.6-0.7,0.6c-0.3,0-0.5-0.2-0.5-0.7
				c0-0.6,0-1.2,0-1.7c0-0.6-0.4-1.2-1-1.5c0,0,0,0.1,0,0.1c0.3,1,0.4,2,0.4,3c0,0.5,0,1-0.3,1.4c0,0,0,0.1,0,0.1
				c0,0.4,0,0.9,0.1,1.3c0.2,1,0.6,1.9,1.4,2.5c0.3,0.3,0.6,0.5,1,0.7c0.3,0.2,0.6,0.4,0.7,0.7c0.1,0.4,0,0.7-0.3,1
				c-0.3,0.2-0.6,0.3-0.9,0.1c-1-0.4-1.8-1.1-2.5-2c-0.3-0.5-0.6-1-0.8-1.5c-0.2-0.4-0.3-0.9-0.5-1.3c-0.2,0.4-0.4,0.8-0.6,1.2
				c-0.3,0.9-0.2,1.9,0.2,2.8c0.2,0.4,0,0.9-0.4,1.1c-0.7,0.3-1.2,0.1-1.4-0.6c-0.4-1.2-0.5-2.3-0.2-3.5c0.3-1.1,0.9-2,1.8-2.8
				c0.1-0.1,0.1-0.2,0.1-0.3c0-0.4,0-0.8,0-1.2c0-0.5-0.1-0.9-0.2-1.4c-0.9,1-1.9,1.3-3,1c-0.2,0.2-0.3,0.3-0.5,0.5
				C758,52.2,758.1,52.4,758.2,52.6z M758.1,51.5c-0.5-0.3-0.5-0.5-0.3-1.1c-0.2,0-0.4,0-0.6,0.1c0.2,0.5,0.4,0.8,0.7,1.3
				C757.9,51.6,758,51.6,758.1,51.5z"/>
			<path class="st0" d="M762.7,45.9c-0.1-0.9-0.6-1.7-1.7-1.7c-1.1,0-1.7,0.8-1.7,1.7c0,1,0.7,1.7,1.7,1.7
				C762,47.6,762.7,46.9,762.7,45.9z"/>
		</g>
		<g>
			<path class="st0" d="M602.8,53.8c-0.1,0-0.2,0-0.4,0c0,0.1,0,0.2,0,0.3c0,1.9,0,3.7,0,5.6c0,0.7-0.8,1.2-1.4,0.8
				c-0.4-0.2-0.5-0.6-0.5-1c0-1.7,0-3.4,0-5.1c0-0.2,0-0.4-0.2-0.5c-0.2-0.1-0.3-0.4-0.4-0.6c-0.3-0.8-0.6-1.6-0.8-2.5
				c-0.2-1-0.1-1.9,0.6-2.7c0.4-0.4,0.8-0.6,1.4-0.6c1,0,2,0,3,0c0.3,0,0.6,0.1,0.8,0.3c0.6,0.3,1,0.9,1.2,1.6
				c0.2,0.7-0.1,1.4-0.7,1.8c-0.5,0.3-1,0.5-1.5,0.5c-0.3,0-0.6,0-1,0c-0.3,0-0.6-0.4-0.6-0.7c0-0.4,0.4-0.6,0.8-0.6
				c0.5,0,0.9,0,1.4-0.2c0.5-0.1,0.5-0.7,0.2-1.2c0,0.3,0,0.5,0,0.7c0,0.1-0.1,0.2-0.1,0.3c-0.3,0.1-0.6,0.2-0.9,0.2
				c-0.1-0.4-0.1-0.8-0.2-1.1c0-0.2-0.1-0.2-0.2-0.2c-0.4,0.1-0.8,0.1-1.2,0.2c-0.2,0-0.4,0.1-0.6,0.1c0.2,1.1,0.3,2.3,0.5,3.4
				c0.7-0.1,1.3-0.2,2-0.3c0-0.2,0-0.4,0-0.6c0.2,0,0.5-0.1,0.8-0.1c0,0.1,0,0.3,0,0.4c0,2.5,0,5,0,7.5c0,0.8-0.6,1.3-1.3,1
				c-0.4-0.1-0.6-0.4-0.6-0.9c0-1.9,0-3.7,0-5.6C602.8,54,602.8,53.9,602.8,53.8z M600.6,49.1c-0.3,0.7-0.2,1.3,0,2
				C600.6,50.4,600.6,49.7,600.6,49.1z"/>
			<path class="st0" d="M602.8,46.9c-1,0.2-1.8-0.9-1.7-1.7c0-0.9,0.8-1.7,1.8-1.7c1,0,1.7,0.8,1.7,1.7
				C604.5,46.2,603.8,46.9,602.8,46.9z"/>
		</g>
		<g>
			<path class="st0" d="M727.8,51.2c-0.3,0-0.6,0-0.8,0c-1.4,0-2.6-0.5-3.5-1.5c-1.1-1.1-1.6-2.4-1.6-3.9c0-0.3-0.1-0.8-0.3-0.9
				c-2.1-1.2-3.1-2.9-3-5.3c0.1-1.9,1-3.2,2.6-4.2c0.5-0.3,0.8-0.6,0.8-1.2c-0.1-2.2,1.5-4.4,3.5-5.1c0.2-0.1,0.5-0.3,0.5-0.5
				c0.4-1.1,1-2.1,1.9-2.9c2.1-2,5.8-2.1,8-0.5c0.4,0.3,0.6,0.3,1,0.1c1.2-0.8,2.4-1.1,3.9-1.2c3.6,0,6.4,3,6.3,6.6
				c0,0.9,0.3,1.1,0.9,1.4c2.6,1.3,3.9,4.6,3.1,7.4c-0.6,2.1-2.1,3.5-4,4.3c0.8,3.9-2.6,9-8.9,7.1c0,1.7,0,8.8,0,10.4
				c-0.7,0-1.4,0-2,0c0-1.7,0-8.8,0-10.4c-0.8,0.1-1.6,0.1-2.4,0.2c0,3.4,0,6.8,0,10.2c-0.7,0-1.4,0-2.1,0c0-0.3,0-0.6,0-0.8
				c0-3.1,0-6.3,0-9.4c0-0.7-0.4-0.9-0.8-1c-0.4-0.1-0.8,0.5-0.8,1c0,3.1,0,6.3,0,9.4c0,0.3,0,0.5,0,0.8c-0.7,0-1.2,0-2,0
				C727.8,58.1,727.8,54.7,727.8,51.2z M724.1,35.2c0.3,0.9,0,1.5-0.9,1.6c-1.3,0.2-2.1,1.1-2.5,2.2c-0.6,1.6,0.5,3.8,2.3,4.2
				c1.2,0.3,1.4,0.6,1.1,1.8c-0.4,1.4,0.2,2.9,1.6,3.8c1.2,0.7,2.7,0.6,3.8-0.5c1-1,1.3-1,2.3,0c0.9,0.9,2.1,1.2,3.3,0.7
				c1.2-0.5,2-1.3,2.2-2.6c0.1-0.5,0-1-0.1-1.6c-0.2-0.9,0.1-1.4,1-1.6c1.5-0.3,2.6-1.9,2.6-3.3c0-1.3-1.3-2.9-2.6-3.1
				c-1-0.2-1.2-0.7-1-1.7c0.7-2.5-1.2-4.4-3.3-4.3c-0.8,0-1.6,0.4-2.2,1c-0.9,0.9-1.2,0.9-2.2,0c-1.1-1-2.3-1.2-3.6-0.7
				c-1.2,0.5-2,1.7-2.1,3.1C723.9,34.6,724,34.9,724.1,35.2z M730.3,29.8c0.2,0.1,0.5,0,0.6-0.1c2.5-1.6,5.9-1,7.6,1.6
				c0.6,0.9,0.9,1.9,0.8,2.9c-0.1,0.6,0.1,0.9,0.7,1.1c2.5,1.2,3.6,4.9,2,7.5c-0.6,0.9-1.3,1.5-2.2,2c-0.2,0.1-0.4,0.5-0.4,0.8
				c-0.2,1-0.4,2.1-0.5,3.3c0.9,0.7,2.5,0.6,3.9-0.2c1.8-1,2.6-3.2,2-5.2c-0.3-0.9-0.1-1.3,0.8-1.6c2.1-0.6,3.5-2.3,3.6-4.2
				c0-2.3-1.4-3.9-3.5-4.5c-0.9-0.2-1.2-0.6-0.9-1.5c0.9-2.7-0.8-5.2-3.4-5.8c-1.5-0.3-2.8,0.2-3.9,1.3c-0.7,0.7-1.3,0.8-2.1,0
				c-1.9-1.9-4.3-1.9-6.2-0.3c-0.1,0.1-0.2,0.1-0.2,0.2c-0.3,0.4-0.6,0.9-0.8,1.3C728.9,29.1,729.6,29.5,730.3,29.8z"/>
			<path class="st1" d="M723.9,34.2c0.1,0.3,0.1,0.7,0.2,1c0.3,0.9,0,1.5-0.9,1.6c-1.3,0.2-2.1,1.1-2.5,2.2
				c-0.6,1.6,0.5,3.8,2.3,4.2c1.2,0.3,1.4,0.6,1.1,1.8c-0.4,1.4,0.2,2.9,1.6,3.8c1.2,0.7,2.7,0.6,3.8-0.5c1-1,1.3-1,2.3,0
				c0.9,0.9,2.1,1.2,3.3,0.7c1.2-0.5,2-1.3,2.2-2.6c0.1-0.5,0-1-0.1-1.6c-0.2-0.9,0.1-1.4,1-1.6c1.5-0.3,2.6-1.9,2.6-3.3
				c0-1.3-1.3-2.9-2.6-3.1c-1-0.2-1.2-0.7-1-1.7c0.7-2.5-1.2-4.4-3.3-4.3c-0.8,0-1.6,0.4-2.2,1c-0.9,0.9-1.2,0.9-2.2,0
				c-1.1-1-2.3-1.2-3.6-0.7C724.7,31.7,723.9,32.9,723.9,34.2z"/>
			<path class="st1" d="M728.1,28.8c0.8,0.4,1.5,0.8,2.3,1.1c0.2,0.1,0.5,0,0.6-0.1c2.5-1.6,5.9-1,7.6,1.6c0.6,0.9,0.9,1.9,0.8,2.9
				c-0.1,0.6,0.1,0.9,0.7,1.1c2.5,1.2,3.6,4.9,2,7.5c-0.6,0.9-1.3,1.5-2.2,2c-0.2,0.1-0.4,0.5-0.4,0.8c-0.2,1-0.4,2.1-0.5,3.3
				c0.9,0.7,2.5,0.6,3.9-0.2c1.8-1,2.6-3.2,2-5.2c-0.3-0.9-0.1-1.3,0.8-1.6c2.1-0.6,3.5-2.3,3.6-4.2c0-2.3-1.4-3.9-3.5-4.5
				c-0.9-0.2-1.2-0.6-0.9-1.5c0.9-2.7-0.8-5.2-3.4-5.8c-1.5-0.3-2.8,0.2-3.9,1.3c-0.7,0.7-1.3,0.8-2.1,0c-1.9-1.9-4.3-1.9-6.2-0.3
				c-0.1,0.1-0.2,0.1-0.2,0.2C728.6,27.9,728.4,28.3,728.1,28.8z"/>
		</g>
	</g>
	<rect x="0" y="60.4" class="st0" width="782.7" height="3.1"/>
</g>
</svg>
